<?xml version="1.0" encoding="UTF-8" standalone="no"?>
<svg xmlns="http://www.w3.org/2000/svg" xmlns:xlink="http://www.w3.org/1999/xlink" contentScriptType="application/ecmascript" contentStyleType="text/css" height="152px" preserveAspectRatio="none" style="width:388px;height:152px;background:#FFFFFF;" version="1.1" viewBox="0 0 388 152" width="388px" zoomAndPan="magnify"><defs><filter height="300%" id="f2tgeugyf7l6w" width="300%" x="-1" y="-1"><feGaussianBlur result="blurOut" stdDeviation="2.0"/><feColorMatrix in="blurOut" result="blurOut2" type="matrix" values="0 0 0 0 0 0 0 0 0 0 0 0 0 0 0 0 0 0 .4 0"/><feOffset dx="4.0" dy="4.0" in="blurOut2" result="blurOut3"/><feBlend in="SourceGraphic" in2="blurOut3" mode="normal"/></filter></defs><g><!--MD5=[9d35236b92952560f647498cf8a29acb]
class Term--><rect codeLine="3" fill="#FEFECE" filter="url(#f2tgeugyf7l6w)" height="48" id="Term" style="stroke:#A80036;stroke-width:1.5;" width="63" x="7" y="49"/><ellipse cx="22" cy="65" fill="#B4A7E5" rx="11" ry="11" style="stroke:#A80036;stroke-width:1.0;"/><path d="M22.9531,61.7813 L24.6719,61.7813 C25.0625,61.7813 25.25,61.75 25.375,61.6719 C25.6406,61.5156 25.7813,61.2344 25.7813,60.9375 C25.7813,60.6719 25.6719,60.4063 25.4375,60.2344 C25.2656,60.125 25.125,60.0938 24.6719,60.0938 L19.5313,60.0938 C19.0938,60.0938 18.9688,60.1094 18.8125,60.2031 C18.5625,60.3594 18.4063,60.6563 18.4063,60.9375 C18.4063,61.2188 18.5469,61.4688 18.7656,61.6406 C18.9219,61.75 19.1094,61.7813 19.5313,61.7813 L21.25,61.7813 L21.25,68.2969 L19.5313,68.2969 C19.0938,68.2969 18.9688,68.3125 18.8125,68.4219 C18.5625,68.5781 18.4063,68.8594 18.4063,69.1563 C18.4063,69.4063 18.5469,69.6719 18.7656,69.8281 C18.9219,69.9531 19.125,70 19.5313,70 L24.6719,70 C25.4219,70 25.7813,69.7188 25.7813,69.1563 C25.7813,68.875 25.6719,68.625 25.4375,68.4531 C25.2656,68.3281 25.125,68.2969 24.6719,68.2969 L22.9531,68.2969 L22.9531,61.7813 Z " fill="#000000"/><text fill="#000000" font-family="sans-serif" font-size="12" font-style="italic" lengthAdjust="spacing" textLength="31" x="36" y="69.1543">Term</text><line style="stroke:#A80036;stroke-width:1.5;" x1="8" x2="69" y1="81" y2="81"/><line style="stroke:#A80036;stroke-width:1.5;" x1="8" x2="69" y1="89" y2="89"/><!--MD5=[54b85b6d1a687c59d530998eb343c279]
class Constant--><rect codeLine="5" fill="#FEFECE" filter="url(#f2tgeugyf7l6w)" height="48" id="Constant" style="stroke:#A80036;stroke-width:1.5;" width="86" x="130" y="7"/><ellipse cx="145" cy="23" fill="#B4A7E5" rx="11" ry="11" style="stroke:#A80036;stroke-width:1.0;"/><path d="M145.9531,19.7813 L147.6719,19.7813 C148.0625,19.7813 148.25,19.75 148.375,19.6719 C148.6406,19.5156 148.7813,19.2344 148.7813,18.9375 C148.7813,18.6719 148.6719,18.4063 148.4375,18.2344 C148.2656,18.125 148.125,18.0938 147.6719,18.0938 L142.5313,18.0938 C142.0938,18.0938 141.9688,18.1094 141.8125,18.2031 C141.5625,18.3594 141.4063,18.6563 141.4063,18.9375 C141.4063,19.2188 141.5469,19.4688 141.7656,19.6406 C141.9219,19.75 142.1094,19.7813 142.5313,19.7813 L144.25,19.7813 L144.25,26.2969 L142.5313,26.2969 C142.0938,26.2969 141.9688,26.3125 141.8125,26.4219 C141.5625,26.5781 141.4063,26.8594 141.4063,27.1563 C141.4063,27.4063 141.5469,27.6719 141.7656,27.8281 C141.9219,27.9531 142.125,28 142.5313,28 L147.6719,28 C148.4219,28 148.7813,27.7188 148.7813,27.1563 C148.7813,26.875 148.6719,26.625 148.4375,26.4531 C148.2656,26.3281 148.125,26.2969 147.6719,26.2969 L145.9531,26.2969 L145.9531,19.7813 Z " fill="#000000"/><text fill="#000000" font-family="sans-serif" font-size="12" font-style="italic" lengthAdjust="spacing" textLength="54" x="159" y="27.1543">Constant</text><line style="stroke:#A80036;stroke-width:1.5;" x1="131" x2="215" y1="39" y2="39"/><line style="stroke:#A80036;stroke-width:1.5;" x1="131" x2="215" y1="47" y2="47"/><!--MD5=[eb0f4986160aea42d9ece72995cb24c7]
class Struct--><rect codeLine="7" fill="#FEFECE" filter="url(#f2tgeugyf7l6w)" height="48" id="Struct" style="stroke:#A80036;stroke-width:1.5;" width="70" x="138" y="90"/><ellipse cx="153" cy="106" fill="#B4A7E5" rx="11" ry="11" style="stroke:#A80036;stroke-width:1.0;"/><path d="M153.9531,102.7813 L155.6719,102.7813 C156.0625,102.7813 156.25,102.75 156.375,102.6719 C156.6406,102.5156 156.7813,102.2344 156.7813,101.9375 C156.7813,101.6719 156.6719,101.4063 156.4375,101.2344 C156.2656,101.125 156.125,101.0938 155.6719,101.0938 L150.5313,101.0938 C150.0938,101.0938 149.9688,101.1094 149.8125,101.2031 C149.5625,101.3594 149.4063,101.6563 149.4063,101.9375 C149.4063,102.2188 149.5469,102.4688 149.7656,102.6406 C149.9219,102.75 150.1094,102.7813 150.5313,102.7813 L152.25,102.7813 L152.25,109.2969 L150.5313,109.2969 C150.0938,109.2969 149.9688,109.3125 149.8125,109.4219 C149.5625,109.5781 149.4063,109.8594 149.4063,110.1563 C149.4063,110.4063 149.5469,110.6719 149.7656,110.8281 C149.9219,110.9531 150.125,111 150.5313,111 L155.6719,111 C156.4219,111 156.7813,110.7188 156.7813,110.1563 C156.7813,109.875 156.6719,109.625 156.4375,109.4531 C156.2656,109.3281 156.125,109.2969 155.6719,109.2969 L153.9531,109.2969 L153.9531,102.7813 Z " fill="#000000"/><text fill="#000000" font-family="sans-serif" font-size="12" font-style="italic" lengthAdjust="spacing" textLength="38" x="167" y="110.1543">Struct</text><line style="stroke:#A80036;stroke-width:1.5;" x1="139" x2="207" y1="122" y2="122"/><line style="stroke:#A80036;stroke-width:1.5;" x1="139" x2="207" y1="130" y2="130"/><!--MD5=[f18b0f967872e82ff276115ca1b4c569]
class Atom--><rect codeLine="9" fill="#FEFECE" filter="url(#f2tgeugyf7l6w)" height="60.8047" id="Atom" style="stroke:#A80036;stroke-width:1.5;" width="98" x="276" y="42.5"/><ellipse cx="306.3" cy="58.5" fill="#B4A7E5" rx="11" ry="11" style="stroke:#A80036;stroke-width:1.0;"/><path d="M307.2531,55.2813 L308.9719,55.2813 C309.3625,55.2813 309.55,55.25 309.675,55.1719 C309.9406,55.0156 310.0813,54.7344 310.0813,54.4375 C310.0813,54.1719 309.9719,53.9063 309.7375,53.7344 C309.5656,53.625 309.425,53.5938 308.9719,53.5938 L303.8313,53.5938 C303.3938,53.5938 303.2688,53.6094 303.1125,53.7031 C302.8625,53.8594 302.7063,54.1563 302.7063,54.4375 C302.7063,54.7188 302.8469,54.9688 303.0656,55.1406 C303.2219,55.25 303.4094,55.2813 303.8313,55.2813 L305.55,55.2813 L305.55,61.7969 L303.8313,61.7969 C303.3938,61.7969 303.2688,61.8125 303.1125,61.9219 C302.8625,62.0781 302.7063,62.3594 302.7063,62.6563 C302.7063,62.9063 302.8469,63.1719 303.0656,63.3281 C303.2219,63.4531 303.425,63.5 303.8313,63.5 L308.9719,63.5 C309.7219,63.5 310.0813,63.2188 310.0813,62.6563 C310.0813,62.375 309.9719,62.125 309.7375,61.9531 C309.5656,61.8281 309.425,61.7969 308.9719,61.7969 L307.2531,61.7969 L307.2531,55.2813 Z " fill="#000000"/><text fill="#000000" font-family="sans-serif" font-size="12" font-style="italic" lengthAdjust="spacing" textLength="32" x="323.7" y="62.6543">Atom</text><line style="stroke:#A80036;stroke-width:1.5;" x1="277" x2="373" y1="74.5" y2="74.5"/><ellipse cx="287" cy="85.5" rx="3" ry="3" style="stroke:#038048;stroke-width:1.0;fill:none;"/><text fill="#000000" font-family="sans-serif" font-size="11" lengthAdjust="spacing" textLength="72" x="296" y="88.7104">value: String</text><line style="stroke:#A80036;stroke-width:1.5;" x1="277" x2="373" y1="95.3047" y2="95.3047"/><!--MD5=[f626f12429d76bc694cd64f7f069082d]
reverse link Term to Struct--><path codeLine="14" d="M89.5483,88.4866 C105.6143,93.458 123.035,98.8484 137.706,103.3882 " fill="none" id="Term-backto-Struct" style="stroke:#A80036;stroke-width:1.0;"/><polygon fill="none" points="87.2681,95.1086,70.2312,82.5093,91.4067,81.7343,87.2681,95.1086" style="stroke:#A80036;stroke-width:1.0;"/><!--MD5=[22dcc2a6458fba43153ab5c044b6d0f2]
reverse link Term to Constant--><path codeLine="15" d="M89.4347,57.1716 C102.7637,52.9466 117.032,48.4238 129.894,44.3468 " fill="none" id="Term-backto-Constant" style="stroke:#A80036;stroke-width:1.0;"/><polygon fill="none" points="91.4115,63.8882,70.2312,63.2588,87.1812,50.5426,91.4115,63.8882" style="stroke:#A80036;stroke-width:1.0;"/><!--MD5=[904172204236467fd977e5a86c11fa2e]
reverse link Constant to Atom--><path codeLine="17" d="M235.771,48.296 C249.122,52.034 263.049,55.9338 275.789,59.501 " fill="none" id="Constant-backto-Atom" style="stroke:#A80036;stroke-width:1.0;"/><polygon fill="none" points="233.554,54.9445,216.183,42.8111,237.329,41.463,233.554,54.9445" style="stroke:#A80036;stroke-width:1.0;"/><!--MD5=[71ce62bb6f3323542defcc754b11eb47]
reverse link Struct to Atom--><path codeLine="19" d="M227.411,99.4009 C243.22,95.0798 260.428,90.3763 275.881,86.1524 " fill="none" id="Struct-backto-Atom" style="stroke:#A80036;stroke-width:1.0;"/><polygon fill="none" points="229.175,106.1755,208.037,104.6965,225.484,92.6709,229.175,106.1755" style="stroke:#A80036;stroke-width:1.0;"/><!--MD5=[01277030cbc181b5bb5091790ccaac8f]
@startuml
left to right direction

interface Term

interface Constant

interface Struct 

interface Atom {
  + value: String
  ' + {static} of(value: String): Atom
}

Term <|- - Struct
Term <|- - Constant

Constant <|- - Atom

Struct <|- - Atom
@enduml

@startuml
left to right direction

interface Term

interface Constant

interface Struct 

interface Atom {
  + value: String
}

Term <|- - Struct
Term <|- - Constant

Constant <|- - Atom

Struct <|- - Atom
@enduml

PlantUML version 1.2021.6beta6(Unknown compile time)
(GPL source distribution)
Java Runtime: Java(TM) SE Runtime Environment
JVM: Java HotSpot(TM) 64-Bit Server VM
Default Encoding: UTF-8
Language: en
Country: US
--></g></svg>