<?xml version="1.0" encoding="UTF-8" standalone="no"?><svg xmlns="http://www.w3.org/2000/svg" xmlns:xlink="http://www.w3.org/1999/xlink" contentScriptType="application/ecmascript" contentStyleType="text/css" height="239px" preserveAspectRatio="none" style="width:842px;height:239px;" version="1.1" viewBox="0 0 842 239" width="842px" zoomAndPan="magnify"><defs/><g><!--MD5=[9d35236b92952560f647498cf8a29acb]
class Term--><rect fill="#FEFECE" height="124.8281" id="Term" style="stroke: #A80036; stroke-width: 1.5;" width="258" x="6" y="40"/><ellipse cx="115.25" cy="56" fill="#B4A7E5" rx="11" ry="11" style="stroke: #A80036; stroke-width: 1.0;"/><path d="M111.1719,51.7656 L111.1719,49.6094 L118.5625,49.6094 L118.5625,51.7656 L116.0938,51.7656 L116.0938,59.8438 L118.5625,59.8438 L118.5625,62 L111.1719,62 L111.1719,59.8438 L113.6406,59.8438 L113.6406,51.7656 L111.1719,51.7656 Z "/><text fill="#000000" font-family="sans-serif" font-size="12" font-style="italic" lengthAdjust="spacingAndGlyphs" textLength="31" x="135.75" y="60.1543">Term</text><line style="stroke: #A80036; stroke-width: 1.5;" x1="7" x2="263" y1="72" y2="72"/><ellipse cx="17" cy="83" fill="none" rx="3" ry="3" style="stroke: #038048; stroke-width: 1.0;"/><text fill="#000000" font-family="sans-serif" font-size="11" lengthAdjust="spacingAndGlyphs" textLength="106" x="26" y="86.2104">isGround: Boolean</text><ellipse cx="17" cy="95.8047" fill="none" rx="3" ry="3" style="stroke: #038048; stroke-width: 1.0;"/><text fill="#000000" font-family="sans-serif" font-size="11" lengthAdjust="spacingAndGlyphs" textLength="153" x="26" y="99.0151">variables: Sequence&lt;Var&gt;</text><line style="stroke: #A80036; stroke-width: 1.5;" x1="7" x2="263" y1="105.6094" y2="105.6094"/><ellipse cx="17" cy="116.6094" fill="#84BE84" rx="3" ry="3" style="stroke: #038048; stroke-width: 1.0;"/><text fill="#000000" font-family="sans-serif" font-size="11" lengthAdjust="spacingAndGlyphs" textLength="158" x="26" y="119.8198">equals(other: Any): Boolean</text><ellipse cx="17" cy="129.4141" fill="#84BE84" rx="3" ry="3" style="stroke: #038048; stroke-width: 1.0;"/><text fill="#000000" font-family="sans-serif" font-size="11" lengthAdjust="spacingAndGlyphs" textLength="232" x="26" y="132.6245">structurallyEquals(other: Term): Boolean</text><ellipse cx="17" cy="142.2188" fill="#84BE84" rx="3" ry="3" style="stroke: #038048; stroke-width: 1.0;"/><text fill="#000000" font-family="sans-serif" font-size="11" lengthAdjust="spacingAndGlyphs" textLength="104" x="26" y="145.4292">freshCopy(): Term</text><ellipse cx="17" cy="155.0234" fill="#84BE84" rx="3" ry="3" style="stroke: #038048; stroke-width: 1.0;"/><text fill="#000000" font-family="sans-serif" font-size="11" lengthAdjust="spacingAndGlyphs" textLength="95" x="26" y="158.2339">toString(): String</text><!--MD5=[54b85b6d1a687c59d530998eb343c279]
class Constant--><rect fill="#FEFECE" height="60.8047" id="Constant" style="stroke: #A80036; stroke-width: 1.5;" width="88" x="426.5" y="8"/><ellipse cx="441.5" cy="24" fill="#B4A7E5" rx="11" ry="11" style="stroke: #A80036; stroke-width: 1.0;"/><path d="M437.4219,19.7656 L437.4219,17.6094 L444.8125,17.6094 L444.8125,19.7656 L442.3438,19.7656 L442.3438,27.8438 L444.8125,27.8438 L444.8125,30 L437.4219,30 L437.4219,27.8438 L439.8906,27.8438 L439.8906,19.7656 L437.4219,19.7656 Z "/><text fill="#000000" font-family="sans-serif" font-size="12" font-style="italic" lengthAdjust="spacingAndGlyphs" textLength="56" x="455.5" y="28.1543">Constant</text><line style="stroke: #A80036; stroke-width: 1.5;" x1="427.5" x2="513.5" y1="40" y2="40"/><ellipse cx="437.5" cy="51" fill="none" rx="3" ry="3" style="stroke: #038048; stroke-width: 1.0;"/><text fill="#000000" font-family="sans-serif" font-size="11" lengthAdjust="spacingAndGlyphs" textLength="58" x="446.5" y="54.2104">value: Any</text><line style="stroke: #A80036; stroke-width: 1.5;" x1="427.5" x2="513.5" y1="60.8047" y2="60.8047"/><!--MD5=[eb0f4986160aea42d9ece72995cb24c7]
class Struct--><rect fill="#FEFECE" height="124.8281" id="Struct" style="stroke: #A80036; stroke-width: 1.5;" width="293" x="324" y="104"/><ellipse cx="447.25" cy="120" fill="#B4A7E5" rx="11" ry="11" style="stroke: #A80036; stroke-width: 1.0;"/><path d="M443.1719,115.7656 L443.1719,113.6094 L450.5625,113.6094 L450.5625,115.7656 L448.0938,115.7656 L448.0938,123.8438 L450.5625,123.8438 L450.5625,126 L443.1719,126 L443.1719,123.8438 L445.6406,123.8438 L445.6406,115.7656 L443.1719,115.7656 Z "/><text fill="#000000" font-family="sans-serif" font-size="12" font-style="italic" lengthAdjust="spacingAndGlyphs" textLength="38" x="467.75" y="124.1543">Struct</text><line style="stroke: #A80036; stroke-width: 1.5;" x1="325" x2="616" y1="136" y2="136"/><ellipse cx="335" cy="147" fill="none" rx="3" ry="3" style="stroke: #038048; stroke-width: 1.0;"/><text fill="#000000" font-family="sans-serif" font-size="11" lengthAdjust="spacingAndGlyphs" textLength="82" x="344" y="150.2104">functor: String</text><ellipse cx="335" cy="159.8047" fill="none" rx="3" ry="3" style="stroke: #038048; stroke-width: 1.0;"/><text fill="#000000" font-family="sans-serif" font-size="11" lengthAdjust="spacingAndGlyphs" textLength="47" x="344" y="163.0151">arity: Int</text><ellipse cx="335" cy="172.6094" fill="none" rx="3" ry="3" style="stroke: #038048; stroke-width: 1.0;"/><text fill="#000000" font-family="sans-serif" font-size="11" lengthAdjust="spacingAndGlyphs" textLength="112" x="344" y="175.8198">args: Array&lt;Term&gt;</text><ellipse cx="335" cy="185.4141" fill="none" rx="3" ry="3" style="stroke: #038048; stroke-width: 1.0;"/><text fill="#000000" font-family="sans-serif" font-size="11" lengthAdjust="spacingAndGlyphs" textLength="106" x="344" y="188.6245">indicator: Indicator</text><line style="stroke: #A80036; stroke-width: 1.5;" x1="325" x2="616" y1="195.2188" y2="195.2188"/><ellipse cx="335" cy="206.2188" fill="#84BE84" rx="3" ry="3" style="stroke: #038048; stroke-width: 1.0;"/><text fill="#000000" font-family="sans-serif" font-size="11" lengthAdjust="spacingAndGlyphs" textLength="116" x="344" y="209.4292">get(index: Int): Term</text><ellipse cx="335" cy="219.0234" fill="#84BE84" rx="3" ry="3" style="stroke: #038048; stroke-width: 1.0;"/><text fill="#000000" font-family="sans-serif" font-size="11" lengthAdjust="spacingAndGlyphs" text-decoration="underline" textLength="101" x="344" y="222.2339">of(functor: String,</text><text fill="#000000" font-family="sans-serif" font-size="11" font-weight="bold" lengthAdjust="spacingAndGlyphs" text-decoration="underline" textLength="48" x="449" y="222.2339">varargs</text><text fill="#000000" font-family="sans-serif" font-size="11" lengthAdjust="spacingAndGlyphs" text-decoration="underline" textLength="110" x="501" y="222.2339">args: Term): Struct</text><!--MD5=[f18b0f967872e82ff276115ca1b4c569]
class Atom--><rect fill="#FEFECE" height="73.6094" id="Atom" style="stroke: #A80036; stroke-width: 1.5;" width="154" x="677" y="65.5"/><ellipse cx="733.75" cy="81.5" fill="#B4A7E5" rx="11" ry="11" style="stroke: #A80036; stroke-width: 1.0;"/><path d="M729.6719,77.2656 L729.6719,75.1094 L737.0625,75.1094 L737.0625,77.2656 L734.5938,77.2656 L734.5938,85.3438 L737.0625,85.3438 L737.0625,87.5 L729.6719,87.5 L729.6719,85.3438 L732.1406,85.3438 L732.1406,77.2656 L729.6719,77.2656 Z "/><text fill="#000000" font-family="sans-serif" font-size="12" font-style="italic" lengthAdjust="spacingAndGlyphs" textLength="32" x="754.25" y="85.6543">Atom</text><line style="stroke: #A80036; stroke-width: 1.5;" x1="678" x2="830" y1="97.5" y2="97.5"/><ellipse cx="688" cy="108.5" fill="none" rx="3" ry="3" style="stroke: #038048; stroke-width: 1.0;"/><text fill="#000000" font-family="sans-serif" font-size="11" lengthAdjust="spacingAndGlyphs" textLength="72" x="697" y="111.7104">value: String</text><line style="stroke: #A80036; stroke-width: 1.5;" x1="678" x2="830" y1="118.3047" y2="118.3047"/><ellipse cx="688" cy="129.3047" fill="#84BE84" rx="3" ry="3" style="stroke: #038048; stroke-width: 1.0;"/><text fill="#000000" font-family="sans-serif" font-size="11" lengthAdjust="spacingAndGlyphs" text-decoration="underline" textLength="128" x="697" y="132.5151">of(value: String): Atom</text><!--MD5=[f626f12429d76bc694cd64f7f069082d]
reverse link Term to Struct--><path d="M284.27,130.95 C297.43,133.48 310.74,136.03 323.88,138.55 " fill="none" id="Term&lt;-Struct" style="stroke: #A80036; stroke-width: 1.0;"/><polygon fill="none" points="282.79,137.8,264.46,127.15,285.42,124.05,282.79,137.8" style="stroke: #A80036; stroke-width: 1.0;"/><!--MD5=[22dcc2a6458fba43153ab5c044b6d0f2]
reverse link Term to Constant--><path d="M284.12,74.07 C335.83,64.15 389.97,53.76 426.29,46.79 " fill="none" id="Term&lt;-Constant" style="stroke: #A80036; stroke-width: 1.0;"/><polygon fill="none" points="285.42,80.95,264.46,77.85,282.79,67.2,285.42,80.95" style="stroke: #A80036; stroke-width: 1.0;"/><!--MD5=[904172204236467fd977e5a86c11fa2e]
reverse link Constant to Atom--><path d="M534.33,52.78 C576.44,62.36 632.14,75.02 676.78,85.17 " fill="none" id="Constant&lt;-Atom" style="stroke: #A80036; stroke-width: 1.0;"/><polygon fill="none" points="532.51,59.55,514.56,48.29,535.61,45.9,532.51,59.55" style="stroke: #A80036; stroke-width: 1.0;"/><!--MD5=[71ce62bb6f3323542defcc754b11eb47]
reverse link Struct to Atom--><path d="M636.95,128.88 C650.8,125.73 664.33,122.66 676.97,119.79 " fill="none" id="Struct&lt;-Atom" style="stroke: #A80036; stroke-width: 1.0;"/><polygon fill="none" points="638.25,135.77,617.2,133.38,635.15,122.12,638.25,135.77" style="stroke: #A80036; stroke-width: 1.0;"/><!--MD5=[b5ccbc303fb506c30f9efa405df7bdb0]
@startuml

left to right direction
skinparam shadowing false

interface Term {
  + isGround: Boolean
  + variables: Sequence<Var>
  + equals(other: Any): Boolean
  + structurallyEquals(other: Term): Boolean
  + freshCopy(): Term
  + toString(): String
}
interface Constant {
  + value: Any
}
interface Struct {
  + functor: String
  + arity: Int
  + args: Array<Term>
  + indicator: Indicator
  + get(index: Int): Term
  + {static} of(functor: String, **varargs** args: Term): Struct
}
interface Atom {
  + value: String
  + {static} of(value: String): Atom
}

Term <|- - Struct
Term <|- - Constant

Constant <|- - Atom

Struct <|- - Atom
@enduml

PlantUML version 1.2020.02(Sun Mar 01 11:22:07 CET 2020)
(GPL source distribution)
Java Runtime: OpenJDK Runtime Environment
JVM: OpenJDK 64-Bit Server VM
Java Version: 11.0.10+9
Operating System: Linux
Default Encoding: UTF-8
Language: it
Country: IT
--></g></svg>