<?xml version="1.0" encoding="UTF-8" standalone="no"?>
<svg xmlns="http://www.w3.org/2000/svg" xmlns:xlink="http://www.w3.org/1999/xlink" contentScriptType="application/ecmascript" contentStyleType="text/css" height="449px" preserveAspectRatio="none" style="width:795px;height:449px;" version="1.1" viewBox="0 0 795 449" width="795px" zoomAndPan="magnify"><defs><filter height="300%" id="fyolsw7kgefr4" width="300%" x="-1" y="-1"><feGaussianBlur result="blurOut" stdDeviation="2.0"/><feColorMatrix in="blurOut" result="blurOut2" type="matrix" values="0 0 0 0 0 0 0 0 0 0 0 0 0 0 0 0 0 0 .4 0"/><feOffset dx="4.0" dy="4.0" in="blurOut2" result="blurOut3"/><feBlend in="SourceGraphic" in2="blurOut3" mode="normal"/></filter></defs><g><!--MD5=[f7baa1082940d3ce43d405e81b39ac4c]
class InputChannel--><rect codeLine="1" fill="#FEFECE" filter="url(#fyolsw7kgefr4)" height="48" id="InputChannel" style="stroke:#A80036;stroke-width:1.5;" width="125" x="85.5" y="387"/><ellipse cx="100.5" cy="403" fill="#B4A7E5" rx="11" ry="11" style="stroke:#A80036;stroke-width:1.0;"/><path d="M101.4531,399.7813 L103.1719,399.7813 C103.5625,399.7813 103.75,399.75 103.875,399.6719 C104.1406,399.5156 104.2813,399.2344 104.2813,398.9375 C104.2813,398.6719 104.1719,398.4063 103.9375,398.2344 C103.7656,398.125 103.625,398.0938 103.1719,398.0938 L98.0313,398.0938 C97.5938,398.0938 97.4688,398.1094 97.3125,398.2031 C97.0625,398.3594 96.9063,398.6563 96.9063,398.9375 C96.9063,399.2188 97.0469,399.4688 97.2656,399.6406 C97.4219,399.75 97.6094,399.7813 98.0313,399.7813 L99.75,399.7813 L99.75,406.2969 L98.0313,406.2969 C97.5938,406.2969 97.4688,406.3125 97.3125,406.4219 C97.0625,406.5781 96.9063,406.8594 96.9063,407.1563 C96.9063,407.4063 97.0469,407.6719 97.2656,407.8281 C97.4219,407.9531 97.625,408 98.0313,408 L103.1719,408 C103.9219,408 104.2813,407.7188 104.2813,407.1563 C104.2813,406.875 104.1719,406.625 103.9375,406.4531 C103.7656,406.3281 103.625,406.2969 103.1719,406.2969 L101.4531,406.2969 L101.4531,399.7813 Z " fill="#000000"/><text fill="#000000" font-family="sans-serif" font-size="12" font-style="italic" lengthAdjust="spacing" textLength="82" x="114.5" y="407.1543">InputChannel</text><rect fill="#FFFFFF" height="15.9688" style="stroke:#000000;stroke-width:1.0;stroke-dasharray:2.0,2.0;" width="9" x="204.5" y="384"/><text fill="#000000" font-family="sans-serif" font-size="12" font-style="italic" lengthAdjust="spacing" textLength="7" x="205.5" y="396.1387">T</text><line style="stroke:#A80036;stroke-width:1.5;" x1="86.5" x2="209.5" y1="419" y2="419"/><line style="stroke:#A80036;stroke-width:1.5;" x1="86.5" x2="209.5" y1="427" y2="427"/><!--MD5=[65a4a8a9711b185e0a80cb86d89d8ef9]
class OutputChannel--><rect codeLine="3" fill="#FEFECE" filter="url(#fyolsw7kgefr4)" height="48" id="OutputChannel" style="stroke:#A80036;stroke-width:1.5;" width="135" x="646.5" y="387"/><ellipse cx="661.5" cy="403" fill="#B4A7E5" rx="11" ry="11" style="stroke:#A80036;stroke-width:1.0;"/><path d="M662.4531,399.7813 L664.1719,399.7813 C664.5625,399.7813 664.75,399.75 664.875,399.6719 C665.1406,399.5156 665.2813,399.2344 665.2813,398.9375 C665.2813,398.6719 665.1719,398.4063 664.9375,398.2344 C664.7656,398.125 664.625,398.0938 664.1719,398.0938 L659.0313,398.0938 C658.5938,398.0938 658.4688,398.1094 658.3125,398.2031 C658.0625,398.3594 657.9063,398.6563 657.9063,398.9375 C657.9063,399.2188 658.0469,399.4688 658.2656,399.6406 C658.4219,399.75 658.6094,399.7813 659.0313,399.7813 L660.75,399.7813 L660.75,406.2969 L659.0313,406.2969 C658.5938,406.2969 658.4688,406.3125 658.3125,406.4219 C658.0625,406.5781 657.9063,406.8594 657.9063,407.1563 C657.9063,407.4063 658.0469,407.6719 658.2656,407.8281 C658.4219,407.9531 658.625,408 659.0313,408 L664.1719,408 C664.9219,408 665.2813,407.7188 665.2813,407.1563 C665.2813,406.875 665.1719,406.625 664.9375,406.4531 C664.7656,406.3281 664.625,406.2969 664.1719,406.2969 L662.4531,406.2969 L662.4531,399.7813 Z " fill="#000000"/><text fill="#000000" font-family="sans-serif" font-size="12" font-style="italic" lengthAdjust="spacing" textLength="92" x="675.5" y="407.1543">OutputChannel</text><rect fill="#FFFFFF" height="15.9688" style="stroke:#000000;stroke-width:1.0;stroke-dasharray:2.0,2.0;" width="9" x="775.5" y="384"/><text fill="#000000" font-family="sans-serif" font-size="12" font-style="italic" lengthAdjust="spacing" textLength="7" x="776.5" y="396.1387">T</text><line style="stroke:#A80036;stroke-width:1.5;" x1="647.5" x2="780.5" y1="419" y2="419"/><line style="stroke:#A80036;stroke-width:1.5;" x1="647.5" x2="780.5" y1="427" y2="427"/><!--MD5=[4c95f9bed35113f7168e59ba3b2ef414]
class InputStore--><rect codeLine="5" fill="#FEFECE" filter="url(#fyolsw7kgefr4)" height="153.6328" id="InputStore" style="stroke:#A80036;stroke-width:1.5;" width="340" x="7" y="128.5"/><ellipse cx="140.25" cy="144.5" fill="#B4A7E5" rx="11" ry="11" style="stroke:#A80036;stroke-width:1.0;"/><path d="M141.2031,141.2813 L142.9219,141.2813 C143.3125,141.2813 143.5,141.25 143.625,141.1719 C143.8906,141.0156 144.0313,140.7344 144.0313,140.4375 C144.0313,140.1719 143.9219,139.9063 143.6875,139.7344 C143.5156,139.625 143.375,139.5938 142.9219,139.5938 L137.7813,139.5938 C137.3438,139.5938 137.2188,139.6094 137.0625,139.7031 C136.8125,139.8594 136.6563,140.1563 136.6563,140.4375 C136.6563,140.7188 136.7969,140.9688 137.0156,141.1406 C137.1719,141.25 137.3594,141.2813 137.7813,141.2813 L139.5,141.2813 L139.5,147.7969 L137.7813,147.7969 C137.3438,147.7969 137.2188,147.8125 137.0625,147.9219 C136.8125,148.0781 136.6563,148.3594 136.6563,148.6563 C136.6563,148.9063 136.7969,149.1719 137.0156,149.3281 C137.1719,149.4531 137.375,149.5 137.7813,149.5 L142.9219,149.5 C143.6719,149.5 144.0313,149.2188 144.0313,148.6563 C144.0313,148.375 143.9219,148.125 143.6875,147.9531 C143.5156,147.8281 143.375,147.7969 142.9219,147.7969 L141.2031,147.7969 L141.2031,141.2813 Z " fill="#000000"/><text fill="#000000" font-family="sans-serif" font-size="12" font-style="italic" lengthAdjust="spacing" textLength="65" x="160.75" y="148.6543">InputStore</text><line style="stroke:#A80036;stroke-width:1.5;" x1="8" x2="346" y1="160.5" y2="160.5"/><ellipse cx="18" cy="171.5" rx="3" ry="3" style="stroke:#038048;stroke-width:1.0;fill:none;"/><text fill="#000000" font-family="sans-serif" font-size="11" lengthAdjust="spacing" textLength="160" x="27" y="174.7104">stdIn: InputChannel&lt;String&gt;</text><line style="stroke:#A80036;stroke-width:1.0;stroke-dasharray:1.0,2.0;" x1="8" x2="346" y1="181.3047" y2="181.3047"/><ellipse cx="18" cy="192.3047" rx="3" ry="3" style="stroke:#038048;stroke-width:1.0;fill:none;"/><text fill="#000000" font-family="sans-serif" font-size="11" lengthAdjust="spacing" textLength="179" x="27" y="195.5151">current: InputChannel&lt;String&gt;?</text><ellipse cx="18" cy="205.1094" rx="3" ry="3" style="stroke:#038048;stroke-width:1.0;fill:none;"/><text fill="#000000" font-family="sans-serif" font-size="11" lengthAdjust="spacing" textLength="198" x="27" y="208.3198">currentAliases: Sequence&lt;String&gt;</text><line style="stroke:#A80036;stroke-width:1.0;" x1="8" x2="346" y1="214.9141" y2="214.9141"/><ellipse cx="18" cy="225.9141" fill="#84BE84" rx="3" ry="3" style="stroke:#038048;stroke-width:1.0;"/><text fill="#000000" font-family="sans-serif" font-size="11" lengthAdjust="spacing" textLength="167" x="27" y="229.1245">setCurrent(String): InputStore</text><ellipse cx="18" cy="238.7188" fill="#84BE84" rx="3" ry="3" style="stroke:#038048;stroke-width:1.0;"/><text fill="#000000" font-family="sans-serif" font-size="11" lengthAdjust="spacing" textLength="260" x="27" y="241.9292">setCurrent(InputChannel&lt;String&gt;): InputStore</text><line style="stroke:#A80036;stroke-width:1.0;stroke-dasharray:1.0,2.0;" x1="8" x2="346" y1="248.5234" y2="248.5234"/><ellipse cx="18" cy="259.5234" fill="#84BE84" rx="3" ry="3" style="stroke:#038048;stroke-width:1.0;"/><text fill="#000000" font-family="sans-serif" font-size="11" lengthAdjust="spacing" textLength="314" x="27" y="262.7339">findByTerm(Term): Sequence&lt;InputChannel&lt;String&gt;&gt;</text><ellipse cx="18" cy="272.3281" fill="#84BE84" rx="3" ry="3" style="stroke:#038048;stroke-width:1.0;"/><text fill="#000000" font-family="sans-serif" font-size="11" lengthAdjust="spacing" textLength="304" x="27" y="275.5386">aliasesOf(InputChannel&lt;String&gt;): Sequence&lt;String&gt;</text><!--MD5=[02a1f05eac83fd68d63f990662b2b84d]
class OutputStore--><rect codeLine="18" fill="#FEFECE" filter="url(#fyolsw7kgefr4)" height="179.2422" id="OutputStore" style="stroke:#A80036;stroke-width:1.5;" width="350" x="382" y="116"/><ellipse cx="515.25" cy="132" fill="#B4A7E5" rx="11" ry="11" style="stroke:#A80036;stroke-width:1.0;"/><path d="M516.2031,128.7813 L517.9219,128.7813 C518.3125,128.7813 518.5,128.75 518.625,128.6719 C518.8906,128.5156 519.0313,128.2344 519.0313,127.9375 C519.0313,127.6719 518.9219,127.4063 518.6875,127.2344 C518.5156,127.125 518.375,127.0938 517.9219,127.0938 L512.7813,127.0938 C512.3438,127.0938 512.2188,127.1094 512.0625,127.2031 C511.8125,127.3594 511.6563,127.6563 511.6563,127.9375 C511.6563,128.2188 511.7969,128.4688 512.0156,128.6406 C512.1719,128.75 512.3594,128.7813 512.7813,128.7813 L514.5,128.7813 L514.5,135.2969 L512.7813,135.2969 C512.3438,135.2969 512.2188,135.3125 512.0625,135.4219 C511.8125,135.5781 511.6563,135.8594 511.6563,136.1563 C511.6563,136.4063 511.7969,136.6719 512.0156,136.8281 C512.1719,136.9531 512.375,137 512.7813,137 L517.9219,137 C518.6719,137 519.0313,136.7188 519.0313,136.1563 C519.0313,135.875 518.9219,135.625 518.6875,135.4531 C518.5156,135.3281 518.375,135.2969 517.9219,135.2969 L516.2031,135.2969 L516.2031,128.7813 Z " fill="#000000"/><text fill="#000000" font-family="sans-serif" font-size="12" font-style="italic" lengthAdjust="spacing" textLength="75" x="535.75" y="136.1543">OutputStore</text><line style="stroke:#A80036;stroke-width:1.5;" x1="383" x2="731" y1="148" y2="148"/><ellipse cx="393" cy="159" rx="3" ry="3" style="stroke:#038048;stroke-width:1.0;fill:none;"/><text fill="#000000" font-family="sans-serif" font-size="11" lengthAdjust="spacing" textLength="180" x="402" y="162.2104">stdOut: OutputChannel&lt;String&gt;</text><ellipse cx="393" cy="171.8047" rx="3" ry="3" style="stroke:#038048;stroke-width:1.0;fill:none;"/><text fill="#000000" font-family="sans-serif" font-size="11" lengthAdjust="spacing" textLength="175" x="402" y="175.0151">stdErr: OutputChannel&lt;String&gt;</text><ellipse cx="393" cy="184.6094" rx="3" ry="3" style="stroke:#038048;stroke-width:1.0;fill:none;"/><text fill="#000000" font-family="sans-serif" font-size="11" lengthAdjust="spacing" textLength="151" x="402" y="187.8198">warnings: OutputChannel&lt;</text><text fill="#000000" font-family="sans-serif" font-size="11" font-weight="bold" lengthAdjust="spacing" textLength="99" x="553" y="187.8198">PrologWarning</text><text fill="#000000" font-family="sans-serif" font-size="11" lengthAdjust="spacing" textLength="9" x="652" y="187.8198">&gt;</text><line style="stroke:#A80036;stroke-width:1.0;stroke-dasharray:1.0,2.0;" x1="383" x2="731" y1="194.4141" y2="194.4141"/><ellipse cx="393" cy="205.4141" rx="3" ry="3" style="stroke:#038048;stroke-width:1.0;fill:none;"/><text fill="#000000" font-family="sans-serif" font-size="11" lengthAdjust="spacing" textLength="189" x="402" y="208.6245">current: OutputChannel&lt;String&gt;?</text><ellipse cx="393" cy="218.2188" rx="3" ry="3" style="stroke:#038048;stroke-width:1.0;fill:none;"/><text fill="#000000" font-family="sans-serif" font-size="11" lengthAdjust="spacing" textLength="198" x="402" y="221.4292">currentAliases: Sequence&lt;String&gt;</text><line style="stroke:#A80036;stroke-width:1.0;" x1="383" x2="731" y1="228.0234" y2="228.0234"/><ellipse cx="393" cy="239.0234" fill="#84BE84" rx="3" ry="3" style="stroke:#038048;stroke-width:1.0;"/><text fill="#000000" font-family="sans-serif" font-size="11" lengthAdjust="spacing" textLength="177" x="402" y="242.2339">setCurrent(String): OutputStore</text><ellipse cx="393" cy="251.8281" fill="#84BE84" rx="3" ry="3" style="stroke:#038048;stroke-width:1.0;"/><text fill="#000000" font-family="sans-serif" font-size="11" lengthAdjust="spacing" textLength="280" x="402" y="255.0386">setCurrent(OutputChannel&lt;String&gt;): OutputStore</text><line style="stroke:#A80036;stroke-width:1.0;stroke-dasharray:1.0,2.0;" x1="383" x2="731" y1="261.6328" y2="261.6328"/><ellipse cx="393" cy="272.6328" fill="#84BE84" rx="3" ry="3" style="stroke:#038048;stroke-width:1.0;"/><text fill="#000000" font-family="sans-serif" font-size="11" lengthAdjust="spacing" textLength="324" x="402" y="275.8433">findByTerm(Term): Sequence&lt;OutputChannel&lt;String&gt;&gt;</text><ellipse cx="393" cy="285.4375" fill="#84BE84" rx="3" ry="3" style="stroke:#038048;stroke-width:1.0;"/><text fill="#000000" font-family="sans-serif" font-size="11" lengthAdjust="spacing" textLength="314" x="402" y="288.6479">aliasesOf(OutputChannel&lt;String&gt;): Sequence&lt;String&gt;</text><!--MD5=[4dfc6a72b8dd60daa1b635d583ff79da]
class Map--><rect codeLine="33" fill="#FEFECE" filter="url(#fyolsw7kgefr4)" height="48" id="Map" style="stroke:#A80036;stroke-width:1.5;" width="85" x="333.5" y="387"/><ellipse cx="348.5" cy="403" fill="#B4A7E5" rx="11" ry="11" style="stroke:#A80036;stroke-width:1.0;"/><path d="M349.4531,399.7813 L351.1719,399.7813 C351.5625,399.7813 351.75,399.75 351.875,399.6719 C352.1406,399.5156 352.2813,399.2344 352.2813,398.9375 C352.2813,398.6719 352.1719,398.4063 351.9375,398.2344 C351.7656,398.125 351.625,398.0938 351.1719,398.0938 L346.0313,398.0938 C345.5938,398.0938 345.4688,398.1094 345.3125,398.2031 C345.0625,398.3594 344.9063,398.6563 344.9063,398.9375 C344.9063,399.2188 345.0469,399.4688 345.2656,399.6406 C345.4219,399.75 345.6094,399.7813 346.0313,399.7813 L347.75,399.7813 L347.75,406.2969 L346.0313,406.2969 C345.5938,406.2969 345.4688,406.3125 345.3125,406.4219 C345.0625,406.5781 344.9063,406.8594 344.9063,407.1563 C344.9063,407.4063 345.0469,407.6719 345.2656,407.8281 C345.4219,407.9531 345.625,408 346.0313,408 L351.1719,408 C351.9219,408 352.2813,407.7188 352.2813,407.1563 C352.2813,406.875 352.1719,406.625 351.9375,406.4531 C351.7656,406.3281 351.625,406.2969 351.1719,406.2969 L349.4531,406.2969 L349.4531,399.7813 Z " fill="#000000"/><text fill="#000000" font-family="sans-serif" font-size="12" font-style="italic" lengthAdjust="spacing" textLength="25" x="362.5" y="407.1543">Map</text><rect fill="#FFFFFF" height="15.9688" style="stroke:#000000;stroke-width:1.0;stroke-dasharray:2.0,2.0;" width="26" x="395.5" y="384"/><text fill="#000000" font-family="sans-serif" font-size="12" font-style="italic" lengthAdjust="spacing" textLength="24" x="396.5" y="396.1387">K, V</text><line style="stroke:#A80036;stroke-width:1.5;" x1="334.5" x2="417.5" y1="419" y2="419"/><line style="stroke:#A80036;stroke-width:1.5;" x1="334.5" x2="417.5" y1="427" y2="427"/><!--MD5=[b8f9c9f402fdb0639661b25476f0741f]
class ExecutionContext--><rect codeLine="41" fill="#FEFECE" filter="url(#fyolsw7kgefr4)" height="48" id="ExecutionContext" style="stroke:#A80036;stroke-width:1.5;" width="139" x="339.5" y="7"/><ellipse cx="354.5" cy="23" fill="#B4A7E5" rx="11" ry="11" style="stroke:#A80036;stroke-width:1.0;"/><path d="M355.4531,19.7813 L357.1719,19.7813 C357.5625,19.7813 357.75,19.75 357.875,19.6719 C358.1406,19.5156 358.2813,19.2344 358.2813,18.9375 C358.2813,18.6719 358.1719,18.4063 357.9375,18.2344 C357.7656,18.125 357.625,18.0938 357.1719,18.0938 L352.0313,18.0938 C351.5938,18.0938 351.4688,18.1094 351.3125,18.2031 C351.0625,18.3594 350.9063,18.6563 350.9063,18.9375 C350.9063,19.2188 351.0469,19.4688 351.2656,19.6406 C351.4219,19.75 351.6094,19.7813 352.0313,19.7813 L353.75,19.7813 L353.75,26.2969 L352.0313,26.2969 C351.5938,26.2969 351.4688,26.3125 351.3125,26.4219 C351.0625,26.5781 350.9063,26.8594 350.9063,27.1563 C350.9063,27.4063 351.0469,27.6719 351.2656,27.8281 C351.4219,27.9531 351.625,28 352.0313,28 L357.1719,28 C357.9219,28 358.2813,27.7188 358.2813,27.1563 C358.2813,26.875 358.1719,26.625 357.9375,26.4531 C357.7656,26.3281 357.625,26.2969 357.1719,26.2969 L355.4531,26.2969 L355.4531,19.7813 Z " fill="#000000"/><text fill="#000000" font-family="sans-serif" font-size="12" font-style="italic" lengthAdjust="spacing" textLength="107" x="368.5" y="27.1543">ExecutionContext</text><line style="stroke:#A80036;stroke-width:1.5;" x1="340.5" x2="477.5" y1="39" y2="39"/><line style="stroke:#A80036;stroke-width:1.5;" x1="340.5" x2="477.5" y1="47" y2="47"/><!--MD5=[3bd490cd0896ca440c1b38baec253d9c]
link InputStore to Map--><path codeLine="35" d="M172.222,282.623 C174.393,308.86 181.479,336.718 199,357 C227.198,389.64 274.607,402.6137 313.266,407.5755 " fill="none" id="InputStore-to-Map" style="stroke:#A80036;stroke-width:1.0;"/><polygon fill="none" points="314.167,400.6303,333.383,409.562,312.791,414.5626,314.167,400.6303" style="stroke:#A80036;stroke-width:1.0;"/><text fill="#000000" font-family="sans-serif" font-size="13" lengthAdjust="spacing" textLength="34" x="254.5" y="338.0669">binds</text><text fill="#000000" font-family="sans-serif" font-size="13" font-style="italic" lengthAdjust="spacing" textLength="9" x="292.5" y="338.0669">K</text><text fill="#000000" font-family="sans-serif" font-size="13" lengthAdjust="spacing" textLength="13" x="305.5" y="338.0669">to</text><text fill="#000000" font-family="sans-serif" font-size="13" font-style="italic" lengthAdjust="spacing" textLength="38" x="322.5" y="338.0669">String</text><text fill="#000000" font-family="sans-serif" font-size="13" lengthAdjust="spacing" textLength="24" x="200" y="353.1997">and</text><text fill="#000000" font-family="sans-serif" font-size="13" font-style="italic" lengthAdjust="spacing" textLength="9" x="228" y="353.1997">V</text><text fill="#000000" font-family="sans-serif" font-size="13" lengthAdjust="spacing" textLength="13" x="241" y="353.1997">to</text><text fill="#000000" font-family="sans-serif" font-size="13" font-style="italic" lengthAdjust="spacing" textLength="157" x="258" y="353.1997">InputChannel&lt;String&gt;&gt;</text><!--MD5=[dafea935b93e1507e43ab6bb18b19291]
link OutputStore to Map--><path codeLine="36" d="M478.764,295.392 C460.818,315.682 441.786,337.1197 424,357 C419.75,361.7503 415.274,366.7271 410.834,371.6484 " fill="none" id="OutputStore-to-Map" style="stroke:#A80036;stroke-width:1.0;"/><polygon fill="none" points="415.7,376.7037,397.09,386.8363,405.319,367.3099,415.7,376.7037" style="stroke:#A80036;stroke-width:1.0;"/><text fill="#000000" font-family="sans-serif" font-size="13" lengthAdjust="spacing" textLength="34" x="510" y="338.0669">binds</text><text fill="#000000" font-family="sans-serif" font-size="13" font-style="italic" lengthAdjust="spacing" textLength="9" x="548" y="338.0669">K</text><text fill="#000000" font-family="sans-serif" font-size="13" lengthAdjust="spacing" textLength="13" x="561" y="338.0669">to</text><text fill="#000000" font-family="sans-serif" font-size="13" font-style="italic" lengthAdjust="spacing" textLength="38" x="578" y="338.0669">String</text><text fill="#000000" font-family="sans-serif" font-size="13" lengthAdjust="spacing" textLength="24" x="450" y="353.1997">and</text><text fill="#000000" font-family="sans-serif" font-size="13" font-style="italic" lengthAdjust="spacing" textLength="9" x="478" y="353.1997">V</text><text fill="#000000" font-family="sans-serif" font-size="13" lengthAdjust="spacing" textLength="13" x="491" y="353.1997">to</text><text fill="#000000" font-family="sans-serif" font-size="13" font-style="italic" lengthAdjust="spacing" textLength="168" x="508" y="353.1997">OutputChannel&lt;String&gt;&gt;</text><!--MD5=[8b62abbfe90ec69e50fa3ee30413f165]
reverse link InputStore to InputChannel--><path codeLine="38" d="M164.281,295.749 C159.517,329.184 154.492,364.4465 151.306,386.8015 " fill="none" id="InputStore-backto-InputChannel" style="stroke:#A80036;stroke-width:1.0;"/><polygon fill="#A80036" points="166.16,282.565,161.3534,287.9406,164.4668,294.4449,169.2734,289.0694,166.16,282.565" style="stroke:#A80036;stroke-width:1.0;"/><text fill="#000000" font-family="sans-serif" font-size="13" lengthAdjust="spacing" textLength="8" x="156.8383" y="302.1857">1</text><text fill="#000000" font-family="sans-serif" font-size="13" lengthAdjust="spacing" textLength="9" x="142" y="375.7627">N</text><!--MD5=[3b1b1da4af67453fad1c78147a319924]
reverse link OutputStore to OutputChannel--><path codeLine="39" d="M678.414,305.625 C683.342,311.896 687.915,318.365 692,325 C703.667,343.9517 709.182,368.9334 711.767,386.903 " fill="none" id="OutputStore-backto-OutputChannel" style="stroke:#A80036;stroke-width:1.0;"/><polygon fill="#A80036" points="669.811,295.262,670.5653,302.4335,677.4753,304.4956,676.721,297.324,669.811,295.262" style="stroke:#A80036;stroke-width:1.0;"/><text fill="#000000" font-family="sans-serif" font-size="13" lengthAdjust="spacing" textLength="8" x="670.8219" y="315.3789">1</text><text fill="#000000" font-family="sans-serif" font-size="13" lengthAdjust="spacing" textLength="9" x="701.0417" y="375.8902">N</text><!--MD5=[755798162876e12577ebc5fd419bc3df]
reverse link ExecutionContext to InputStore--><path codeLine="43" d="M366.985,63.24 C342.405,81.516 310.218,105.448 279.34,128.407 " fill="none" id="ExecutionContext-backto-InputStore" style="stroke:#A80036;stroke-width:1.0;"/><polygon fill="#A80036" points="377.711,55.264,370.5094,55.6346,368.0816,62.4247,375.2832,62.0541,377.711,55.264" style="stroke:#A80036;stroke-width:1.0;"/><text fill="#000000" font-family="sans-serif" font-size="13" lengthAdjust="spacing" textLength="8" x="361.1093" y="75.0896">1</text><text fill="#000000" font-family="sans-serif" font-size="13" lengthAdjust="spacing" textLength="8" x="280.713" y="117.435">1</text><!--MD5=[6acc1d6907486f84685a3e6fc516cfa7]
reverse link ExecutionContext to OutputStore--><path codeLine="44" d="M437.536,65.26 C450.056,79.853 465.411,97.749 480.888,115.789 " fill="none" id="ExecutionContext-backto-OutputStore" style="stroke:#A80036;stroke-width:1.0;"/><polygon fill="#A80036" points="428.96,55.264,429.831,62.4223,436.7737,64.3714,435.9027,57.2131,428.96,55.264" style="stroke:#A80036;stroke-width:1.0;"/><text fill="#000000" font-family="sans-serif" font-size="13" lengthAdjust="spacing" textLength="8" x="424.8502" y="75.0896">1</text><text fill="#000000" font-family="sans-serif" font-size="13" lengthAdjust="spacing" textLength="8" x="466.2537" y="104.8011">1</text><!--MD5=[5e29a37e2edaac480d4ac31684b97864]
@startuml
interface InputChannel<T>

interface OutputChannel<T>

interface InputStore {
    + stdIn: InputChannel<String>
    ..
    + current: InputChannel<String>?
    + currentAliases: Sequence<String>
    - -
    + setCurrent(String): InputStore
    + setCurrent(InputChannel<String>): InputStore
    ..
    + findByTerm(Term): Sequence<InputChannel<String>>
    + aliasesOf(InputChannel<String>): Sequence<String>
}

interface OutputStore {
    + stdOut: OutputChannel<String>
    + stdErr: OutputChannel<String>
    + warnings: OutputChannel<**PrologWarning**>
    ..
    + current: OutputChannel<String>?
    + currentAliases: Sequence<String>
    - -
    + setCurrent(String): OutputStore
    + setCurrent(OutputChannel<String>): OutputStore
    ..
    + findByTerm(Term): Sequence<OutputChannel<String>>
    + aliasesOf(OutputChannel<String>): Sequence<String>
}

interface Map<K, V>

InputStore - -|> Map: binds //K// to //String//\nand //V// to //InputChannel<String>>//
OutputStore - -|> Map: binds //K// to //String//\nand //V// to //OutputChannel<String>>//

InputStore "1" *- - "N" InputChannel
OutputStore "1" *- - "N" OutputChannel

interface ExecutionContext

ExecutionContext "1" *- - "1" InputStore
ExecutionContext "1" *- - "1" OutputStore
@enduml

PlantUML version 1.2021.5(Sun Apr 25 11:20:28 UTC 2021)
(GPL source distribution)
Java Runtime: Java(TM) SE Runtime Environment
JVM: Java HotSpot(TM) 64-Bit Server VM
Default Encoding: UTF-8
Language: en
Country: US
--></g></svg>