<?xml version="1.0" encoding="UTF-8" standalone="no"?>
<svg xmlns="http://www.w3.org/2000/svg" xmlns:xlink="http://www.w3.org/1999/xlink" contentScriptType="application/ecmascript" contentStyleType="text/css" height="241px" preserveAspectRatio="none" style="width:580px;height:241px;" version="1.1" viewBox="0 0 580 241" width="580px" zoomAndPan="magnify"><defs><filter height="300%" id="f9wy3c4ympzuc" width="300%" x="-1" y="-1"><feGaussianBlur result="blurOut" stdDeviation="2.0"/><feColorMatrix in="blurOut" result="blurOut2" type="matrix" values="0 0 0 0 0 0 0 0 0 0 0 0 0 0 0 0 0 0 .4 0"/><feOffset dx="4.0" dy="4.0" in="blurOut2" result="blurOut3"/><feBlend in="SourceGraphic" in2="blurOut3" mode="normal"/></filter></defs><g><!--MD5=[5906af5765eb3dde04353d7e2c8f0e92]
cluster solve--><polygon fill="#FFFFFF" filter="url(#f9wy3c4ympzuc)" points="16,6,64,6,71,28.2969,293.5,28.2969,293.5,105,16,105,16,6" style="stroke:#000000;stroke-width:1.5;"/><line style="stroke:#000000;stroke-width:1.5;" x1="16" x2="71" y1="28.2969" y2="28.2969"/><text fill="#000000" font-family="sans-serif" font-size="14" font-weight="bold" lengthAdjust="spacing" textLength="42" x="20" y="20.9951">solve</text><!--MD5=[568848c30dd6b1c15469c75d0c2b929c]
cluster solve-classic--><polygon fill="#FFFFFF" filter="url(#f9wy3c4ympzuc)" points="148,129,258,129,265,151.2969,563.5,151.2969,563.5,234,148,234,148,129" style="stroke:#000000;stroke-width:1.5;"/><line style="stroke:#000000;stroke-width:1.5;" x1="148" x2="265" y1="151.2969" y2="151.2969"/><text fill="#000000" font-family="sans-serif" font-size="14" font-weight="bold" lengthAdjust="spacing" textLength="104" x="152" y="143.9951">solve-classic</text><!--MD5=[7e0cc054e68485d8dbab588155cf841a]
class Solver--><rect codeLine="4" fill="#FEFECE" filter="url(#f9wy3c4ympzuc)" height="48" id="Solver" style="stroke:#A80036;stroke-width:1.5;" width="69" x="32" y="41"/><ellipse cx="47" cy="57" fill="#B4A7E5" rx="11" ry="11" style="stroke:#A80036;stroke-width:1.0;"/><path d="M47.9531,53.7813 L49.6719,53.7813 C50.0625,53.7813 50.25,53.75 50.375,53.6719 C50.6406,53.5156 50.7813,53.2344 50.7813,52.9375 C50.7813,52.6719 50.6719,52.4063 50.4375,52.2344 C50.2656,52.125 50.125,52.0938 49.6719,52.0938 L44.5313,52.0938 C44.0938,52.0938 43.9688,52.1094 43.8125,52.2031 C43.5625,52.3594 43.4063,52.6563 43.4063,52.9375 C43.4063,53.2188 43.5469,53.4688 43.7656,53.6406 C43.9219,53.75 44.1094,53.7813 44.5313,53.7813 L46.25,53.7813 L46.25,60.2969 L44.5313,60.2969 C44.0938,60.2969 43.9688,60.3125 43.8125,60.4219 C43.5625,60.5781 43.4063,60.8594 43.4063,61.1563 C43.4063,61.4063 43.5469,61.6719 43.7656,61.8281 C43.9219,61.9531 44.125,62 44.5313,62 L49.6719,62 C50.4219,62 50.7813,61.7188 50.7813,61.1563 C50.7813,60.875 50.6719,60.625 50.4375,60.4531 C50.2656,60.3281 50.125,60.2969 49.6719,60.2969 L47.9531,60.2969 L47.9531,53.7813 Z " fill="#000000"/><text fill="#000000" font-family="sans-serif" font-size="12" font-style="italic" lengthAdjust="spacing" textLength="37" x="61" y="61.1543">Solver</text><line style="stroke:#A80036;stroke-width:1.5;" x1="33" x2="100" y1="73" y2="73"/><line style="stroke:#A80036;stroke-width:1.5;" x1="33" x2="100" y1="81" y2="81"/><!--MD5=[c5c3bc2db960f5b0e791f54130695b68]
class SolverFactory--><rect codeLine="6" fill="#FEFECE" filter="url(#f9wy3c4ympzuc)" height="48" id="SolverFactory" style="stroke:#A80036;stroke-width:1.5;" width="114" x="163.5" y="41"/><ellipse cx="178.5" cy="57" fill="#B4A7E5" rx="11" ry="11" style="stroke:#A80036;stroke-width:1.0;"/><path d="M179.4531,53.7813 L181.1719,53.7813 C181.5625,53.7813 181.75,53.75 181.875,53.6719 C182.1406,53.5156 182.2813,53.2344 182.2813,52.9375 C182.2813,52.6719 182.1719,52.4063 181.9375,52.2344 C181.7656,52.125 181.625,52.0938 181.1719,52.0938 L176.0313,52.0938 C175.5938,52.0938 175.4688,52.1094 175.3125,52.2031 C175.0625,52.3594 174.9063,52.6563 174.9063,52.9375 C174.9063,53.2188 175.0469,53.4688 175.2656,53.6406 C175.4219,53.75 175.6094,53.7813 176.0313,53.7813 L177.75,53.7813 L177.75,60.2969 L176.0313,60.2969 C175.5938,60.2969 175.4688,60.3125 175.3125,60.4219 C175.0625,60.5781 174.9063,60.8594 174.9063,61.1563 C174.9063,61.4063 175.0469,61.6719 175.2656,61.8281 C175.4219,61.9531 175.625,62 176.0313,62 L181.1719,62 C181.9219,62 182.2813,61.7188 182.2813,61.1563 C182.2813,60.875 182.1719,60.625 181.9375,60.4531 C181.7656,60.3281 181.625,60.2969 181.1719,60.2969 L179.4531,60.2969 L179.4531,53.7813 Z " fill="#000000"/><text fill="#000000" font-family="sans-serif" font-size="12" font-style="italic" lengthAdjust="spacing" textLength="82" x="192.5" y="61.1543">SolverFactory</text><line style="stroke:#A80036;stroke-width:1.5;" x1="164.5" x2="276.5" y1="73" y2="73"/><line style="stroke:#A80036;stroke-width:1.5;" x1="164.5" x2="276.5" y1="81" y2="81"/><!--MD5=[121a8334ab232fe5d6e11f20a381a45f]
class ClassicSolver--><rect codeLine="12" fill="#FEFECE" filter="url(#f9wy3c4ympzuc)" height="48" id="ClassicSolver" style="stroke:#A80036;stroke-width:1.5;" width="113" x="164" y="164"/><ellipse cx="179" cy="180" fill="#ADD1B2" rx="11" ry="11" style="stroke:#A80036;stroke-width:1.0;"/><path d="M181.3438,175.6719 C180.4063,175.2344 179.8125,175.0938 178.9375,175.0938 C176.3125,175.0938 174.3125,177.1719 174.3125,179.8906 L174.3125,181.0156 C174.3125,183.5938 176.4219,185.4844 179.3125,185.4844 C180.5313,185.4844 181.6875,185.1875 182.4375,184.6406 C183.0156,184.2344 183.3438,183.7813 183.3438,183.3906 C183.3438,182.9375 182.9531,182.5469 182.4844,182.5469 C182.2656,182.5469 182.0625,182.625 181.875,182.8125 C181.4219,183.2969 181.4219,183.2969 181.2344,183.3906 C180.8125,183.6563 180.125,183.7813 179.3594,183.7813 C177.3125,183.7813 176.0156,182.6875 176.0156,180.9844 L176.0156,179.8906 C176.0156,178.1094 177.2656,176.7969 179,176.7969 C179.5781,176.7969 180.1875,176.9531 180.6563,177.2031 C181.1406,177.4844 181.3125,177.7031 181.4063,178.1094 C181.4688,178.5156 181.5,178.6406 181.6406,178.7656 C181.7813,178.9063 182.0156,179.0156 182.2344,179.0156 C182.5,179.0156 182.7656,178.875 182.9375,178.6563 C183.0469,178.5 183.0781,178.3125 183.0781,177.8906 L183.0781,176.4688 C183.0781,176.0313 183.0625,175.9063 182.9688,175.75 C182.8125,175.4844 182.5313,175.3438 182.2344,175.3438 C181.9375,175.3438 181.7344,175.4375 181.5156,175.75 L181.3438,175.6719 Z " fill="#000000"/><text fill="#000000" font-family="sans-serif" font-size="12" lengthAdjust="spacing" textLength="81" x="193" y="184.1543">ClassicSolver</text><line style="stroke:#A80036;stroke-width:1.5;" x1="165" x2="276" y1="196" y2="196"/><line style="stroke:#A80036;stroke-width:1.5;" x1="165" x2="276" y1="204" y2="204"/><!--MD5=[abfb9707535f26f7b11ded17a591280f]
class ClassicSolverFactory--><rect codeLine="14" fill="#FEFECE" filter="url(#f9wy3c4ympzuc)" height="53.9375" id="ClassicSolverFactory" style="stroke:#A80036;stroke-width:1.5;" width="158" x="389.5" y="164"/><ellipse cx="404.5" cy="182.9688" fill="#FF7700" rx="11" ry="11" style="stroke:#A80036;stroke-width:1.0;"/><path d="M408.2813,178.9375 C408.2813,178.5 408.2656,178.3594 408.1719,178.2031 C408.0313,177.9688 407.75,177.8125 407.4531,177.8125 C407.1094,177.8125 406.9688,177.9531 406.7969,178.375 C406.2031,178 405.4531,177.8125 404.5781,177.8125 C402.4688,177.8125 400.8906,179.1094 400.8906,180.8281 C400.8906,181.7969 401.4219,182.7031 402.2813,183.1875 C402.8281,183.5 403.375,183.6719 404.4844,183.8594 C405.6406,184.0625 405.9063,184.125 406.2656,184.3125 C406.6406,184.5156 406.875,184.8594 406.875,185.2188 C406.875,185.9531 405.8906,186.5 404.6406,186.5 C403.5156,186.5 402.4375,186.0156 402.2656,185.4063 C402.1406,184.9375 402.1406,184.9375 402.0156,184.8281 C401.8594,184.6719 401.6406,184.5781 401.4063,184.5781 C401.125,184.5781 400.875,184.7031 400.7031,184.9219 C400.5938,185.0938 400.5469,185.2813 400.5469,185.7031 L400.5469,186.8281 C400.5469,187.5938 400.8281,187.9531 401.4219,187.9531 C401.6875,187.9531 401.8125,187.8906 402.0938,187.5469 C402.9375,187.9844 403.8281,188.2031 404.75,188.2031 C407.0781,188.2031 408.6406,187.0156 408.6406,185.25 C408.6406,184.3594 408.3281,183.6719 407.6406,183.125 C407.1094,182.7031 406.4688,182.4531 404.9844,182.1875 C403.7188,181.9531 403.625,181.9219 403.2969,181.75 C402.9219,181.5625 402.6563,181.1719 402.6563,180.8125 C402.6563,180.0781 403.5156,179.5156 404.5781,179.5156 C405.6406,179.5156 406.4531,179.9844 406.6094,180.6563 C406.7188,181.2031 406.7188,181.2031 406.8438,181.3438 C406.9844,181.4688 407.2188,181.5781 407.4531,181.5781 C407.7188,181.5781 407.9688,181.4375 408.1406,181.2188 C408.25,181.0469 408.2813,180.9063 408.2813,180.4375 L408.2813,178.9375 Z " fill="#000000"/><text fill="#000000" font-family="sans-serif" font-size="12" font-style="italic" lengthAdjust="spacing" textLength="71" x="446" y="180.1387">«Singleton»</text><text fill="#000000" font-family="sans-serif" font-size="12" lengthAdjust="spacing" textLength="126" x="418.5" y="194.1074">ClassicSolverFactory</text><line style="stroke:#A80036;stroke-width:1.5;" x1="390.5" x2="546.5" y1="201.9375" y2="201.9375"/><line style="stroke:#A80036;stroke-width:1.5;" x1="390.5" x2="546.5" y1="209.9375" y2="209.9375"/><!--MD5=[df7fb5c54c31cb53eb5c091a547a2cd3]
link Solver to SolverFactory--><path codeLine="8" d="M101.234,65 C119.513,65 142.576,65 163.471,65 " fill="none" id="Solver-SolverFactory" style="stroke:#A80036;stroke-width:1.0;stroke-dasharray:7.0,7.0;"/><!--MD5=[1480bf92aa5fd8ddd72122bffa0e29f6]
reverse link ClassicSolver to ClassicSolverFactory--><path codeLine="16" d="M282.137,188.7395 C314.489,189.134 354.667,189.624 389.338,190.0468 " fill="none" id="ClassicSolver-backto-ClassicSolverFactory" style="stroke:#A80036;stroke-width:1.0;stroke-dasharray:7.0,7.0;"/><polygon fill="#A80036" points="277.014,188.677,285.9642,192.7873,282.0136,188.7384,286.0625,184.7879,277.014,188.677" style="stroke:#A80036;stroke-width:1.0;"/><text fill="#000000" font-family="sans-serif" font-size="13" lengthAdjust="spacing" textLength="48" x="310.5" y="185.0669">creates</text><text fill="#000000" font-family="sans-serif" font-size="13" lengthAdjust="spacing" textLength="9" x="284.8314" y="201.8001">N</text><text fill="#000000" font-family="sans-serif" font-size="13" lengthAdjust="spacing" textLength="8" x="373.4116" y="202.747">1</text><!--MD5=[2c641c6862fa8db84cc8fe4cfad031c7]
reverse link Solver to ClassicSolver--><path codeLine="19" d="M112.967,101.792 C137.782,121.873 167.806,146.169 189.648,163.8431 " fill="none" id="Solver-backto-ClassicSolver" style="stroke:#A80036;stroke-width:1.0;"/><polygon fill="none" points="108.312,107.03,97.168,89.008,117.119,96.147,108.312,107.03" style="stroke:#A80036;stroke-width:1.0;"/><!--MD5=[cf749ed4c6fb5e946e36f5b6182fe787]
reverse link SolverFactory to ClassicSolverFactory--><path codeLine="20" d="M286.456,98.27 C326.428,118.744 377.012,144.653 414.544,163.8764 " fill="none" id="SolverFactory-backto-ClassicSolverFactory" style="stroke:#A80036;stroke-width:1.0;"/><polygon fill="none" points="283.25,104.493,268.64,89.145,289.632,92.032,283.25,104.493" style="stroke:#A80036;stroke-width:1.0;"/><!--MD5=[2ea0bdaa45a6b0a87ede3a369973fed0]
@startuml
left to right direction

package solve {
  interface Solver

  interface SolverFactory

  Solver  ..  SolverFactory
}

package solve-classic {
  class ClassicSolver

  class ClassicSolverFactory << (S,#FF7700) Singleton >>

  ClassicSolver "N" <.. "1" ClassicSolverFactory: creates
}

Solver <|-down- ClassicSolver
SolverFactory <|-down- ClassicSolverFactory
@enduml

PlantUML version 1.2021.6beta4(Unknown compile time)
(GPL source distribution)
Java Runtime: Java(TM) SE Runtime Environment
JVM: Java HotSpot(TM) 64-Bit Server VM
Default Encoding: UTF-8
Language: en
Country: US
--></g></svg>