<?xml version="1.0" encoding="UTF-8" standalone="no"?>
<svg xmlns="http://www.w3.org/2000/svg" xmlns:xlink="http://www.w3.org/1999/xlink" contentScriptType="application/ecmascript" contentStyleType="text/css" height="524px" preserveAspectRatio="none" style="width:587px;height:524px;" version="1.1" viewBox="0 0 587 524" width="587px" zoomAndPan="magnify"><defs><filter height="300%" id="f1p5dco87507f6" width="300%" x="-1" y="-1"><feGaussianBlur result="blurOut" stdDeviation="2.0"/><feColorMatrix in="blurOut" result="blurOut2" type="matrix" values="0 0 0 0 0 0 0 0 0 0 0 0 0 0 0 0 0 0 .4 0"/><feOffset dx="4.0" dy="4.0" in="blurOut2" result="blurOut3"/><feBlend in="SourceGraphic" in2="blurOut3" mode="normal"/></filter></defs><g><!--MD5=[5906af5765eb3dde04353d7e2c8f0e92]
cluster solve--><polygon fill="#FFFFFF" filter="url(#f1p5dco87507f6)" points="294,6,342,6,349,28.2969,570,28.2969,570,105,294,105,294,6" style="stroke:#000000;stroke-width:1.5;"/><line style="stroke:#000000;stroke-width:1.5;" x1="294" x2="349" y1="28.2969" y2="28.2969"/><text fill="#000000" font-family="sans-serif" font-size="14" font-weight="bold" lengthAdjust="spacing" textLength="42" x="298" y="20.9951">solve</text><!--MD5=[568848c30dd6b1c15469c75d0c2b929c]
cluster solve-classic--><polygon fill="#FFFFFF" filter="url(#f1p5dco87507f6)" points="16,138,126,138,133,160.2969,536,160.2969,536,517,16,517,16,138" style="stroke:#000000;stroke-width:1.5;"/><line style="stroke:#000000;stroke-width:1.5;" x1="16" x2="133" y1="160.2969" y2="160.2969"/><text fill="#000000" font-family="sans-serif" font-size="14" font-weight="bold" lengthAdjust="spacing" textLength="104" x="20" y="152.9951">solve-classic</text><!--MD5=[7e0cc054e68485d8dbab588155cf841a]
class Solver--><rect codeLine="2" fill="#FEFECE" filter="url(#f1p5dco87507f6)" height="48" id="Solver" style="stroke:#A80036;stroke-width:1.5;" width="69" x="310.5" y="41"/><ellipse cx="325.5" cy="57" fill="#B4A7E5" rx="11" ry="11" style="stroke:#A80036;stroke-width:1.0;"/><path d="M326.4531,53.7813 L328.1719,53.7813 C328.5625,53.7813 328.75,53.75 328.875,53.6719 C329.1406,53.5156 329.2813,53.2344 329.2813,52.9375 C329.2813,52.6719 329.1719,52.4063 328.9375,52.2344 C328.7656,52.125 328.625,52.0938 328.1719,52.0938 L323.0313,52.0938 C322.5938,52.0938 322.4688,52.1094 322.3125,52.2031 C322.0625,52.3594 321.9063,52.6563 321.9063,52.9375 C321.9063,53.2188 322.0469,53.4688 322.2656,53.6406 C322.4219,53.75 322.6094,53.7813 323.0313,53.7813 L324.75,53.7813 L324.75,60.2969 L323.0313,60.2969 C322.5938,60.2969 322.4688,60.3125 322.3125,60.4219 C322.0625,60.5781 321.9063,60.8594 321.9063,61.1563 C321.9063,61.4063 322.0469,61.6719 322.2656,61.8281 C322.4219,61.9531 322.625,62 323.0313,62 L328.1719,62 C328.9219,62 329.2813,61.7188 329.2813,61.1563 C329.2813,60.875 329.1719,60.625 328.9375,60.4531 C328.7656,60.3281 328.625,60.2969 328.1719,60.2969 L326.4531,60.2969 L326.4531,53.7813 Z " fill="#000000"/><text fill="#000000" font-family="sans-serif" font-size="12" font-style="italic" lengthAdjust="spacing" textLength="37" x="339.5" y="61.1543">Solver</text><line style="stroke:#A80036;stroke-width:1.5;" x1="311.5" x2="378.5" y1="73" y2="73"/><line style="stroke:#A80036;stroke-width:1.5;" x1="311.5" x2="378.5" y1="81" y2="81"/><!--MD5=[b8f9c9f402fdb0639661b25476f0741f]
class ExecutionContext--><rect codeLine="4" fill="#FEFECE" filter="url(#f1p5dco87507f6)" height="48" id="ExecutionContext" style="stroke:#A80036;stroke-width:1.5;" width="139" x="414.5" y="41"/><ellipse cx="429.5" cy="57" fill="#B4A7E5" rx="11" ry="11" style="stroke:#A80036;stroke-width:1.0;"/><path d="M430.4531,53.7813 L432.1719,53.7813 C432.5625,53.7813 432.75,53.75 432.875,53.6719 C433.1406,53.5156 433.2813,53.2344 433.2813,52.9375 C433.2813,52.6719 433.1719,52.4063 432.9375,52.2344 C432.7656,52.125 432.625,52.0938 432.1719,52.0938 L427.0313,52.0938 C426.5938,52.0938 426.4688,52.1094 426.3125,52.2031 C426.0625,52.3594 425.9063,52.6563 425.9063,52.9375 C425.9063,53.2188 426.0469,53.4688 426.2656,53.6406 C426.4219,53.75 426.6094,53.7813 427.0313,53.7813 L428.75,53.7813 L428.75,60.2969 L427.0313,60.2969 C426.5938,60.2969 426.4688,60.3125 426.3125,60.4219 C426.0625,60.5781 425.9063,60.8594 425.9063,61.1563 C425.9063,61.4063 426.0469,61.6719 426.2656,61.8281 C426.4219,61.9531 426.625,62 427.0313,62 L432.1719,62 C432.9219,62 433.2813,61.7188 433.2813,61.1563 C433.2813,60.875 433.1719,60.625 432.9375,60.4531 C432.7656,60.3281 432.625,60.2969 432.1719,60.2969 L430.4531,60.2969 L430.4531,53.7813 Z " fill="#000000"/><text fill="#000000" font-family="sans-serif" font-size="12" font-style="italic" lengthAdjust="spacing" textLength="107" x="443.5" y="61.1543">ExecutionContext</text><line style="stroke:#A80036;stroke-width:1.5;" x1="415.5" x2="552.5" y1="73" y2="73"/><line style="stroke:#A80036;stroke-width:1.5;" x1="415.5" x2="552.5" y1="81" y2="81"/><!--MD5=[e8f8c8c0582cb1deedd03a71a907f2b7]
class AbstractClassicSolver--><rect codeLine="9" fill="#FEFECE" filter="url(#f1p5dco87507f6)" height="48" id="AbstractClassicSolver" style="stroke:#A80036;stroke-width:1.5;" width="160" x="269" y="173"/><ellipse cx="284" cy="189" fill="#A9DCDF" rx="11" ry="11" style="stroke:#A80036;stroke-width:1.0;"/><path d="M286.0781,190.8125 L286.4688,191.7969 L286.0781,191.7969 C285.625,191.7969 285.5156,191.8125 285.3594,191.9219 C285.1094,192.0781 284.9531,192.3594 284.9531,192.6563 C284.9531,192.9219 285.0938,193.1719 285.3125,193.3281 C285.4531,193.4531 285.6563,193.5 286.0781,193.5 L288.4375,193.5 C288.7969,193.5 289.0156,193.4688 289.1563,193.375 C289.4063,193.2344 289.5625,192.9375 289.5625,192.6563 C289.5625,192.375 289.4219,192.125 289.2031,191.9688 C289.0313,191.8281 288.875,191.7969 288.4063,191.7969 L285.0156,183.5938 L281.3438,183.5938 C280.8906,183.5938 280.7656,183.6094 280.6094,183.7031 C280.3594,183.875 280.2031,184.1563 280.2031,184.4375 C280.2031,184.7188 280.3438,184.9688 280.5625,185.1406 C280.7344,185.25 280.9063,185.2813 281.3438,185.2813 L282.4219,185.2813 L279.7813,191.7969 C279.3594,191.7969 279.2031,191.8125 279.0469,191.9219 C278.7969,192.0781 278.6406,192.3594 278.6406,192.6563 C278.6406,193.2188 279.0156,193.5 279.7656,193.5 L282.0313,193.5 C282.3906,193.5 282.6094,193.4688 282.7344,193.375 C283,193.2344 283.1406,192.9375 283.1406,192.6563 C283.1406,192.375 283.0156,192.125 282.7969,191.9531 C282.625,191.8281 282.4844,191.7969 282.0313,191.7969 L281.6406,191.7969 L282.0313,190.8125 L286.0781,190.8125 Z M285.375,189.1094 L282.7031,189.1094 L284.0469,185.8438 L285.375,189.1094 Z " fill="#000000"/><text fill="#000000" font-family="sans-serif" font-size="12" font-style="italic" lengthAdjust="spacing" textLength="128" x="298" y="193.1543">AbstractClassicSolver</text><line style="stroke:#A80036;stroke-width:1.5;" x1="270" x2="428" y1="205" y2="205"/><line style="stroke:#A80036;stroke-width:1.5;" x1="270" x2="428" y1="213" y2="213"/><!--MD5=[121a8334ab232fe5d6e11f20a381a45f]
class ClassicSolver--><rect codeLine="11" fill="#FEFECE" filter="url(#f1p5dco87507f6)" height="48" id="ClassicSolver" style="stroke:#A80036;stroke-width:1.5;" width="113" x="32.5" y="313"/><ellipse cx="47.5" cy="329" fill="#ADD1B2" rx="11" ry="11" style="stroke:#A80036;stroke-width:1.0;"/><path d="M49.8438,324.6719 C48.9063,324.2344 48.3125,324.0938 47.4375,324.0938 C44.8125,324.0938 42.8125,326.1719 42.8125,328.8906 L42.8125,330.0156 C42.8125,332.5938 44.9219,334.4844 47.8125,334.4844 C49.0313,334.4844 50.1875,334.1875 50.9375,333.6406 C51.5156,333.2344 51.8438,332.7813 51.8438,332.3906 C51.8438,331.9375 51.4531,331.5469 50.9844,331.5469 C50.7656,331.5469 50.5625,331.625 50.375,331.8125 C49.9219,332.2969 49.9219,332.2969 49.7344,332.3906 C49.3125,332.6563 48.625,332.7813 47.8594,332.7813 C45.8125,332.7813 44.5156,331.6875 44.5156,329.9844 L44.5156,328.8906 C44.5156,327.1094 45.7656,325.7969 47.5,325.7969 C48.0781,325.7969 48.6875,325.9531 49.1563,326.2031 C49.6406,326.4844 49.8125,326.7031 49.9063,327.1094 C49.9688,327.5156 50,327.6406 50.1406,327.7656 C50.2813,327.9063 50.5156,328.0156 50.7344,328.0156 C51,328.0156 51.2656,327.875 51.4375,327.6563 C51.5469,327.5 51.5781,327.3125 51.5781,326.8906 L51.5781,325.4688 C51.5781,325.0313 51.5625,324.9063 51.4688,324.75 C51.3125,324.4844 51.0313,324.3438 50.7344,324.3438 C50.4375,324.3438 50.2344,324.4375 50.0156,324.75 L49.8438,324.6719 Z " fill="#000000"/><text fill="#000000" font-family="sans-serif" font-size="12" lengthAdjust="spacing" textLength="81" x="61.5" y="333.1543">ClassicSolver</text><line style="stroke:#A80036;stroke-width:1.5;" x1="33.5" x2="144.5" y1="345" y2="345"/><line style="stroke:#A80036;stroke-width:1.5;" x1="33.5" x2="144.5" y1="353" y2="353"/><!--MD5=[9dfa8fc026f08e19afffa804b4e113f2]
class ClassicExecutionContext--><rect codeLine="15" fill="#FEFECE" filter="url(#f1p5dco87507f6)" height="48" id="ClassicExecutionContext" style="stroke:#A80036;stroke-width:1.5;" width="178" x="342" y="313"/><ellipse cx="357" cy="329" fill="#ADD1B2" rx="11" ry="11" style="stroke:#A80036;stroke-width:1.0;"/><path d="M359.3438,324.6719 C358.4063,324.2344 357.8125,324.0938 356.9375,324.0938 C354.3125,324.0938 352.3125,326.1719 352.3125,328.8906 L352.3125,330.0156 C352.3125,332.5938 354.4219,334.4844 357.3125,334.4844 C358.5313,334.4844 359.6875,334.1875 360.4375,333.6406 C361.0156,333.2344 361.3438,332.7813 361.3438,332.3906 C361.3438,331.9375 360.9531,331.5469 360.4844,331.5469 C360.2656,331.5469 360.0625,331.625 359.875,331.8125 C359.4219,332.2969 359.4219,332.2969 359.2344,332.3906 C358.8125,332.6563 358.125,332.7813 357.3594,332.7813 C355.3125,332.7813 354.0156,331.6875 354.0156,329.9844 L354.0156,328.8906 C354.0156,327.1094 355.2656,325.7969 357,325.7969 C357.5781,325.7969 358.1875,325.9531 358.6563,326.2031 C359.1406,326.4844 359.3125,326.7031 359.4063,327.1094 C359.4688,327.5156 359.5,327.6406 359.6406,327.7656 C359.7813,327.9063 360.0156,328.0156 360.2344,328.0156 C360.5,328.0156 360.7656,327.875 360.9375,327.6563 C361.0469,327.5 361.0781,327.3125 361.0781,326.8906 L361.0781,325.4688 C361.0781,325.0313 361.0625,324.9063 360.9688,324.75 C360.8125,324.4844 360.5313,324.3438 360.2344,324.3438 C359.9375,324.3438 359.7344,324.4375 359.5156,324.75 L359.3438,324.6719 Z " fill="#000000"/><text fill="#000000" font-family="sans-serif" font-size="12" lengthAdjust="spacing" textLength="146" x="371" y="333.1543">ClassicExecutionContext</text><line style="stroke:#A80036;stroke-width:1.5;" x1="343" x2="519" y1="345" y2="345"/><line style="stroke:#A80036;stroke-width:1.5;" x1="343" x2="519" y1="353" y2="353"/><!--MD5=[705c8a62542d5f10b7d6c5dc9ee490a2]
class SolutionIterator--><rect codeLine="17" fill="#FEFECE" filter="url(#f1p5dco87507f6)" height="48" id="SolutionIterator" style="stroke:#A80036;stroke-width:1.5;" width="126" x="181" y="313"/><ellipse cx="196" cy="329" fill="#B4A7E5" rx="11" ry="11" style="stroke:#A80036;stroke-width:1.0;"/><path d="M196.9531,325.7813 L198.6719,325.7813 C199.0625,325.7813 199.25,325.75 199.375,325.6719 C199.6406,325.5156 199.7813,325.2344 199.7813,324.9375 C199.7813,324.6719 199.6719,324.4063 199.4375,324.2344 C199.2656,324.125 199.125,324.0938 198.6719,324.0938 L193.5313,324.0938 C193.0938,324.0938 192.9688,324.1094 192.8125,324.2031 C192.5625,324.3594 192.4063,324.6563 192.4063,324.9375 C192.4063,325.2188 192.5469,325.4688 192.7656,325.6406 C192.9219,325.75 193.1094,325.7813 193.5313,325.7813 L195.25,325.7813 L195.25,332.2969 L193.5313,332.2969 C193.0938,332.2969 192.9688,332.3125 192.8125,332.4219 C192.5625,332.5781 192.4063,332.8594 192.4063,333.1563 C192.4063,333.4063 192.5469,333.6719 192.7656,333.8281 C192.9219,333.9531 193.125,334 193.5313,334 L198.6719,334 C199.4219,334 199.7813,333.7188 199.7813,333.1563 C199.7813,332.875 199.6719,332.625 199.4375,332.4531 C199.2656,332.3281 199.125,332.2969 198.6719,332.2969 L196.9531,332.2969 L196.9531,325.7813 Z " fill="#000000"/><text fill="#000000" font-family="sans-serif" font-size="12" font-style="italic" lengthAdjust="spacing" textLength="94" x="210" y="333.1543">SolutionIterator</text><line style="stroke:#A80036;stroke-width:1.5;" x1="182" x2="306" y1="345" y2="345"/><line style="stroke:#A80036;stroke-width:1.5;" x1="182" x2="306" y1="353" y2="353"/><!--MD5=[c5eeb677a7ed33d19c5ca8d1d7478a1f]
class MutableSolutionIterator--><rect codeLine="19" fill="#FEFECE" filter="url(#f1p5dco87507f6)" height="48" id="MutableSolutionIterator" style="stroke:#A80036;stroke-width:1.5;" width="174" x="227" y="453"/><ellipse cx="242" cy="469" fill="#B4A7E5" rx="11" ry="11" style="stroke:#A80036;stroke-width:1.0;"/><path d="M242.9531,465.7813 L244.6719,465.7813 C245.0625,465.7813 245.25,465.75 245.375,465.6719 C245.6406,465.5156 245.7813,465.2344 245.7813,464.9375 C245.7813,464.6719 245.6719,464.4063 245.4375,464.2344 C245.2656,464.125 245.125,464.0938 244.6719,464.0938 L239.5313,464.0938 C239.0938,464.0938 238.9688,464.1094 238.8125,464.2031 C238.5625,464.3594 238.4063,464.6563 238.4063,464.9375 C238.4063,465.2188 238.5469,465.4688 238.7656,465.6406 C238.9219,465.75 239.1094,465.7813 239.5313,465.7813 L241.25,465.7813 L241.25,472.2969 L239.5313,472.2969 C239.0938,472.2969 238.9688,472.3125 238.8125,472.4219 C238.5625,472.5781 238.4063,472.8594 238.4063,473.1563 C238.4063,473.4063 238.5469,473.6719 238.7656,473.8281 C238.9219,473.9531 239.125,474 239.5313,474 L244.6719,474 C245.4219,474 245.7813,473.7188 245.7813,473.1563 C245.7813,472.875 245.6719,472.625 245.4375,472.4531 C245.2656,472.3281 245.125,472.2969 244.6719,472.2969 L242.9531,472.2969 L242.9531,465.7813 Z " fill="#000000"/><text fill="#000000" font-family="sans-serif" font-size="12" font-style="italic" lengthAdjust="spacing" textLength="142" x="256" y="473.1543">MutableSolutionIterator</text><line style="stroke:#A80036;stroke-width:1.5;" x1="228" x2="400" y1="485" y2="485"/><line style="stroke:#A80036;stroke-width:1.5;" x1="228" x2="400" y1="493" y2="493"/><!--MD5=[60d6b92408f98aed8df94d5c6e04aa63]
class State--><rect codeLine="23" fill="#FEFECE" filter="url(#f1p5dco87507f6)" height="48" id="State" style="stroke:#A80036;stroke-width:1.5;" width="64" x="436" y="453"/><ellipse cx="451" cy="469" fill="#B4A7E5" rx="11" ry="11" style="stroke:#A80036;stroke-width:1.0;"/><path d="M451.9531,465.7813 L453.6719,465.7813 C454.0625,465.7813 454.25,465.75 454.375,465.6719 C454.6406,465.5156 454.7813,465.2344 454.7813,464.9375 C454.7813,464.6719 454.6719,464.4063 454.4375,464.2344 C454.2656,464.125 454.125,464.0938 453.6719,464.0938 L448.5313,464.0938 C448.0938,464.0938 447.9688,464.1094 447.8125,464.2031 C447.5625,464.3594 447.4063,464.6563 447.4063,464.9375 C447.4063,465.2188 447.5469,465.4688 447.7656,465.6406 C447.9219,465.75 448.1094,465.7813 448.5313,465.7813 L450.25,465.7813 L450.25,472.2969 L448.5313,472.2969 C448.0938,472.2969 447.9688,472.3125 447.8125,472.4219 C447.5625,472.5781 447.4063,472.8594 447.4063,473.1563 C447.4063,473.4063 447.5469,473.6719 447.7656,473.8281 C447.9219,473.9531 448.125,474 448.5313,474 L453.6719,474 C454.4219,474 454.7813,473.7188 454.7813,473.1563 C454.7813,472.875 454.6719,472.625 454.4375,472.4531 C454.2656,472.3281 454.125,472.2969 453.6719,472.2969 L451.9531,472.2969 L451.9531,465.7813 Z " fill="#000000"/><text fill="#000000" font-family="sans-serif" font-size="12" font-style="italic" lengthAdjust="spacing" textLength="32" x="465" y="473.1543">State</text><line style="stroke:#A80036;stroke-width:1.5;" x1="437" x2="499" y1="485" y2="485"/><line style="stroke:#A80036;stroke-width:1.5;" x1="437" x2="499" y1="493" y2="493"/><path d="M32,464.5 L32,489.6328 A0,0 0 0 0 32,489.6328 L192,489.6328 A0,0 0 0 0 192,489.6328 L192,474.5 L182,464.5 L114.047,464.5 L92.8497,361.098 L106.047,464.5 L32,464.5 A0,0 0 0 0 32,464.5 " fill="#FBFB77" filter="url(#f1p5dco87507f6)" style="stroke:#A80036;stroke-width:1.0;"/><path d="M182,464.5 L182,474.5 L192,474.5 L182,464.5 " fill="#FBFB77" style="stroke:#A80036;stroke-width:1.0;"/><text fill="#000000" font-family="sans-serif" font-size="13" lengthAdjust="spacing" textLength="139" x="38" y="481.5669">this is what users use</text><path d="M32.5,177 L32.5,217.2656 A0,0 0 0 0 32.5,217.2656 L233.5,217.2656 A0,0 0 0 0 233.5,217.2656 L233.5,201 L268.92,197 L233.5,193 L233.5,187 L223.5,177 L32.5,177 A0,0 0 0 0 32.5,177 " fill="#FBFB77" filter="url(#f1p5dco87507f6)" style="stroke:#A80036;stroke-width:1.0;"/><path d="M223.5,177 L223.5,187 L233.5,187 L223.5,177 " fill="#FBFB77" style="stroke:#A80036;stroke-width:1.0;"/><text fill="#000000" font-family="sans-serif" font-size="13" lengthAdjust="spacing" textLength="180" x="38.5" y="194.0669">developers may extend this</text><text fill="#000000" font-family="sans-serif" font-size="13" lengthAdjust="spacing" textLength="160" x="38.5" y="209.1997">to create custom solvers</text><!--MD5=[8e4f6672f97f3253b87af76f3ceda203]
reverse link AbstractClassicSolver to ClassicSolver--><path codeLine="13" d="M287.516,230.634 C239.887,255.914 175.08,290.311 132.66,312.827 " fill="none" id="AbstractClassicSolver-backto-ClassicSolver" style="stroke:#A80036;stroke-width:1.0;"/><polygon fill="none" points="284.534,224.292,305.482,221.098,291.098,236.658,284.534,224.292" style="stroke:#A80036;stroke-width:1.0;"/><!--MD5=[d67666b069cc916a54c1189429c63117]
reverse link SolutionIterator to MutableSolutionIterator--><path codeLine="21" d="M264.782,378.971 C277.014,403.085 292.037,432.702 302.245,452.8265 " fill="none" id="SolutionIterator-backto-MutableSolutionIterator" style="stroke:#A80036;stroke-width:1.0;"/><polygon fill="none" points="258.521,382.101,255.716,361.098,271.007,375.768,258.521,382.101" style="stroke:#A80036;stroke-width:1.0;"/><!--MD5=[88c787f9cf1245f35328e1985ecb2326]
link SolutionIterator to State--><path codeLine="25" d="M281.493,361.098 C323.191,386.787 390.105,428.011 431.428,453.4687 " fill="none" id="SolutionIterator-to-State" style="stroke:#A80036;stroke-width:1.0;stroke-dasharray:7.0,7.0;"/><polygon fill="#A80036" points="435.84,456.1872,430.2758,448.0607,431.5831,453.5644,426.0794,454.8717,435.84,456.1872" style="stroke:#A80036;stroke-width:1.0;"/><text fill="#000000" font-family="sans-serif" font-size="13" lengthAdjust="spacing" textLength="35" x="384.5" y="404.0669">steps</text><text fill="#000000" font-family="sans-serif" font-size="13" lengthAdjust="spacing" textLength="50" x="377" y="419.1997">through</text><text fill="#000000" font-family="sans-serif" font-size="13" lengthAdjust="spacing" textLength="8" x="281.6569" y="380.8831">1</text><text fill="#000000" font-family="sans-serif" font-size="13" lengthAdjust="spacing" textLength="9" x="418.8206" y="447.0752">N</text><!--MD5=[22bdb29eeadfeecad0e3d398dd31f99f]
link AbstractClassicSolver to SolutionIterator--><path codeLine="27" d="M331.425,221.098 C313.027,245.279 284.156,283.223 264.675,308.827 " fill="none" id="AbstractClassicSolver-to-SolutionIterator" style="stroke:#A80036;stroke-width:1.0;stroke-dasharray:7.0,7.0;"/><polygon fill="#A80036" points="261.632,312.827,270.265,308.0866,264.6596,308.8478,263.8983,303.2424,261.632,312.827" style="stroke:#A80036;stroke-width:1.0;"/><text fill="#000000" font-family="sans-serif" font-size="13" lengthAdjust="spacing" textLength="30" x="306" y="271.5669">uses</text><text fill="#000000" font-family="sans-serif" font-size="13" lengthAdjust="spacing" textLength="8" x="318.1661" y="240.8831">1</text><text fill="#000000" font-family="sans-serif" font-size="13" lengthAdjust="spacing" textLength="9" x="255.9971" y="301.7947">N</text><!--MD5=[211ea684800ed38f1ee25c2b6bd869ed]
reverse link AbstractClassicSolver to ClassicExecutionContext--><path codeLine="29" d="M351.622,226.337 C354.251,243.714 359.508,265.841 370,283 C376.953,294.37 387.146,304.6 397.217,312.971 " fill="none" id="AbstractClassicSolver-backto-ClassicExecutionContext" style="stroke:#A80036;stroke-width:1.0;stroke-dasharray:7.0,7.0;"/><polygon fill="#A80036" points="350.887,221.107,348.1782,230.576,351.5827,226.0584,356.1004,229.4629,350.887,221.107" style="stroke:#A80036;stroke-width:1.0;"/><text fill="#000000" font-family="sans-serif" font-size="13" lengthAdjust="spacing" textLength="85" x="371" y="264.0669">encapsulates</text><text fill="#000000" font-family="sans-serif" font-size="13" lengthAdjust="spacing" textLength="50" x="388.5" y="279.1997">state of</text><text fill="#000000" font-family="sans-serif" font-size="13" lengthAdjust="spacing" textLength="8" x="342.372" y="240.8943">1</text><text fill="#000000" font-family="sans-serif" font-size="13" lengthAdjust="spacing" textLength="8" x="379.5351" y="301.9756">1</text><!--MD5=[81a3707c7ceccaa02faeb1ff0b9d3916]
link ClassicExecutionContext to State--><path codeLine="31" d="M437.193,361.098 C442.982,382.691 451.715,415.261 458.406,440.2168 " fill="none" id="ClassicExecutionContext-to-State" style="stroke:#A80036;stroke-width:1.0;stroke-dasharray:7.0,7.0;"/><polygon fill="#A80036" points="461.787,452.8265,464.0968,445.9953,458.6794,441.2359,456.3697,448.067,461.787,452.8265" style="stroke:#A80036;stroke-width:1.0;"/><text fill="#000000" font-family="sans-serif" font-size="13" lengthAdjust="spacing" textLength="8" x="429.7275" y="380.8831">1</text><text fill="#000000" font-family="sans-serif" font-size="13" lengthAdjust="spacing" textLength="8" x="451.1699" y="441.7941">1</text><!--MD5=[635125f96ccdefae6a16addb54e77955]
reverse link Solver to AbstractClassicSolver--><path codeLine="37" d="M346.333,109.322 C346.987,130.592 347.75,155.36 348.291,172.96 " fill="none" id="Solver-backto-AbstractClassicSolver" style="stroke:#A80036;stroke-width:1.0;"/><polygon fill="none" points="339.334,109.447,345.715,89.241,353.327,109.017,339.334,109.447" style="stroke:#A80036;stroke-width:1.0;"/><!--MD5=[dcdecc26b49a15899fe128d0cfc389dd]
reverse link ExecutionContext to ClassicExecutionContext--><path codeLine="38" d="M484.547,109.263 C483.935,153.84 479.656,224.827 461,283 C457.674,293.37 452.168,303.975 446.775,312.947 " fill="none" id="ExecutionContext-backto-ClassicExecutionContext" style="stroke:#A80036;stroke-width:1.0;"/><polygon fill="none" points="477.547,109.104,484.595,89.121,491.547,109.137,477.547,109.104" style="stroke:#A80036;stroke-width:1.0;"/><!--MD5=[aeecaedbddd1819b2e7985f7984bc197]
@startuml
package solve {
    interface Solver

    interface ExecutionContext
}

package solve-classic {

    abstract class AbstractClassicSolver

    class ClassicSolver

    AbstractClassicSolver <|- - ClassicSolver

    class ClassicExecutionContext

    interface SolutionIterator

    interface MutableSolutionIterator

    SolutionIterator <|- - MutableSolutionIterator

    interface State

    SolutionIterator "1" ..> "N" State: steps\nthrough

    AbstractClassicSolver "1" ..> "N" SolutionIterator: uses

    AbstractClassicSolver "1" <.. "1" ClassicExecutionContext: encapsulates\nstate of

    State "1" *.up. "1" ClassicExecutionContext

    note bottom of ClassicSolver: this is what users use
    note left of AbstractClassicSolver: developers may extend this\nto create custom solvers
}

Solver <|- - AbstractClassicSolver
ExecutionContext <|- - ClassicExecutionContext
@enduml

PlantUML version 1.2021.6beta4(Unknown compile time)
(GPL source distribution)
Java Runtime: Java(TM) SE Runtime Environment
JVM: Java HotSpot(TM) 64-Bit Server VM
Default Encoding: UTF-8
Language: en
Country: US
--></g></svg>