<?xml version="1.0" encoding="UTF-8" standalone="no"?><svg xmlns="http://www.w3.org/2000/svg" xmlns:xlink="http://www.w3.org/1999/xlink" contentScriptType="application/ecmascript" contentStyleType="text/css" height="213px" preserveAspectRatio="none" style="width:1027px;height:213px;" version="1.1" viewBox="0 0 1027 213" width="1027px" zoomAndPan="magnify"><defs/><g><!--MD5=[eb0f4986160aea42d9ece72995cb24c7]
class Struct--><rect fill="#FEFECE" height="48" id="Struct" style="stroke: #A80036; stroke-width: 1.5;" width="70" x="6" y="85"/><ellipse cx="21" cy="101" fill="#B4A7E5" rx="11" ry="11" style="stroke: #A80036; stroke-width: 1.0;"/><path d="M16.9219,96.7656 L16.9219,94.6094 L24.3125,94.6094 L24.3125,96.7656 L21.8438,96.7656 L21.8438,104.8438 L24.3125,104.8438 L24.3125,107 L16.9219,107 L16.9219,104.8438 L19.3906,104.8438 L19.3906,96.7656 L16.9219,96.7656 Z "/><text fill="#000000" font-family="sans-serif" font-size="12" font-style="italic" lengthAdjust="spacingAndGlyphs" textLength="38" x="35" y="105.1543">Struct</text><line style="stroke: #A80036; stroke-width: 1.5;" x1="7" x2="75" y1="117" y2="117"/><line style="stroke: #A80036; stroke-width: 1.5;" x1="7" x2="75" y1="125" y2="125"/><!--MD5=[3d9a9201f4e3c24a3b32edb25b35db95]
class Clause--><rect fill="#FEFECE" height="99.2188" id="Clause" style="stroke: #A80036; stroke-width: 1.5;" width="293" x="136" y="59.5"/><ellipse cx="257.75" cy="75.5" fill="#B4A7E5" rx="11" ry="11" style="stroke: #A80036; stroke-width: 1.0;"/><path d="M253.6719,71.2656 L253.6719,69.1094 L261.0625,69.1094 L261.0625,71.2656 L258.5938,71.2656 L258.5938,79.3438 L261.0625,79.3438 L261.0625,81.5 L253.6719,81.5 L253.6719,79.3438 L256.1406,79.3438 L256.1406,71.2656 L253.6719,71.2656 Z "/><text fill="#000000" font-family="sans-serif" font-size="12" font-style="italic" lengthAdjust="spacingAndGlyphs" textLength="41" x="278.25" y="79.6543">Clause</text><line style="stroke: #A80036; stroke-width: 1.5;" x1="137" x2="428" y1="91.5" y2="91.5"/><ellipse cx="147" cy="102.5" fill="none" rx="3" ry="3" style="stroke: #038048; stroke-width: 1.0;"/><text fill="#000000" font-family="sans-serif" font-size="11" lengthAdjust="spacingAndGlyphs" textLength="76" x="156" y="105.7104">head: Struct?</text><ellipse cx="147" cy="115.3047" fill="none" rx="3" ry="3" style="stroke: #038048; stroke-width: 1.0;"/><text fill="#000000" font-family="sans-serif" font-size="11" lengthAdjust="spacingAndGlyphs" textLength="65" x="156" y="118.5151">body: Term</text><ellipse cx="147" cy="128.1094" fill="none" rx="3" ry="3" style="stroke: #038048; stroke-width: 1.0;"/><text fill="#000000" font-family="sans-serif" font-size="11" lengthAdjust="spacingAndGlyphs" textLength="129" x="156" y="131.3198">isWellFormed: Boolean</text><line style="stroke: #A80036; stroke-width: 1.5;" x1="137" x2="428" y1="137.9141" y2="137.9141"/><ellipse cx="147" cy="148.9141" fill="#84BE84" rx="3" ry="3" style="stroke: #038048; stroke-width: 1.0;"/><text fill="#000000" font-family="sans-serif" font-size="11" lengthAdjust="spacingAndGlyphs" text-decoration="underline" textLength="95" x="156" y="152.1245">of(head: Struct?,</text><text fill="#000000" font-family="sans-serif" font-size="11" font-weight="bold" lengthAdjust="spacingAndGlyphs" text-decoration="underline" textLength="48" x="255" y="152.1245">varargs</text><text fill="#000000" font-family="sans-serif" font-size="11" lengthAdjust="spacingAndGlyphs" text-decoration="underline" textLength="116" x="307" y="152.1245">body: Term): Clause</text><!--MD5=[4cf87534c235239d37db4adfd136fff4]
class Rule--><rect fill="#FEFECE" height="86.4141" id="Rule" style="stroke: #A80036; stroke-width: 1.5;" width="272" x="489" y="8"/><ellipse cx="607.25" cy="24" fill="#B4A7E5" rx="11" ry="11" style="stroke: #A80036; stroke-width: 1.0;"/><path d="M603.1719,19.7656 L603.1719,17.6094 L610.5625,17.6094 L610.5625,19.7656 L608.0938,19.7656 L608.0938,27.8438 L610.5625,27.8438 L610.5625,30 L603.1719,30 L603.1719,27.8438 L605.6406,27.8438 L605.6406,19.7656 L603.1719,19.7656 Z "/><text fill="#000000" font-family="sans-serif" font-size="12" font-style="italic" lengthAdjust="spacingAndGlyphs" textLength="27" x="627.75" y="28.1543">Rule</text><line style="stroke: #A80036; stroke-width: 1.5;" x1="490" x2="760" y1="40" y2="40"/><ellipse cx="500" cy="51" fill="none" rx="3" ry="3" style="stroke: #038048; stroke-width: 1.0;"/><text fill="#000000" font-family="sans-serif" font-size="11" lengthAdjust="spacingAndGlyphs" textLength="70" x="509" y="54.2104">head: Struct</text><ellipse cx="500" cy="63.8047" fill="none" rx="3" ry="3" style="stroke: #038048; stroke-width: 1.0;"/><text fill="#000000" font-family="sans-serif" font-size="11" lengthAdjust="spacingAndGlyphs" textLength="65" x="509" y="67.0151">body: Term</text><line style="stroke: #A80036; stroke-width: 1.5;" x1="490" x2="760" y1="73.6094" y2="73.6094"/><ellipse cx="500" cy="84.6094" fill="#84BE84" rx="3" ry="3" style="stroke: #038048; stroke-width: 1.0;"/><text fill="#000000" font-family="sans-serif" font-size="11" lengthAdjust="spacingAndGlyphs" text-decoration="underline" textLength="89" x="509" y="87.8198">of(head: Struct,</text><text fill="#000000" font-family="sans-serif" font-size="11" font-weight="bold" lengthAdjust="spacingAndGlyphs" text-decoration="underline" textLength="48" x="602" y="87.8198">varargs</text><text fill="#000000" font-family="sans-serif" font-size="11" lengthAdjust="spacingAndGlyphs" text-decoration="underline" textLength="101" x="654" y="87.8198">body: Term): Rule</text><!--MD5=[326c2f491a5c94a5eb0f952bc2efd709]
class Directive--><rect fill="#FEFECE" height="73.6094" id="Directive" style="stroke: #A80036; stroke-width: 1.5;" width="219" x="515.5" y="129"/><ellipse cx="593.75" cy="145" fill="#B4A7E5" rx="11" ry="11" style="stroke: #A80036; stroke-width: 1.0;"/><path d="M589.6719,140.7656 L589.6719,138.6094 L597.0625,138.6094 L597.0625,140.7656 L594.5938,140.7656 L594.5938,148.8438 L597.0625,148.8438 L597.0625,151 L589.6719,151 L589.6719,148.8438 L592.1406,148.8438 L592.1406,140.7656 L589.6719,140.7656 Z "/><text fill="#000000" font-family="sans-serif" font-size="12" font-style="italic" lengthAdjust="spacingAndGlyphs" textLength="54" x="614.25" y="149.1543">Directive</text><line style="stroke: #A80036; stroke-width: 1.5;" x1="516.5" x2="733.5" y1="161" y2="161"/><ellipse cx="526.5" cy="172" fill="none" rx="3" ry="3" style="stroke: #038048; stroke-width: 1.0;"/><text fill="#000000" font-family="sans-serif" font-size="11" lengthAdjust="spacingAndGlyphs" textLength="76" x="535.5" y="175.2104">head: Struct?</text><text fill="#000000" font-family="sans-serif" font-size="11" font-weight="bold" lengthAdjust="spacingAndGlyphs" textLength="37" x="615.5" y="175.2104">= null</text><line style="stroke: #A80036; stroke-width: 1.5;" x1="516.5" x2="733.5" y1="181.8047" y2="181.8047"/><ellipse cx="526.5" cy="192.8047" fill="#84BE84" rx="3" ry="3" style="stroke: #038048; stroke-width: 1.0;"/><text fill="#000000" font-family="sans-serif" font-size="11" lengthAdjust="spacingAndGlyphs" text-decoration="underline" textLength="15" x="535.5" y="196.0151">of(</text><text fill="#000000" font-family="sans-serif" font-size="11" font-weight="bold" lengthAdjust="spacingAndGlyphs" text-decoration="underline" textLength="48" x="550.5" y="196.0151">varargs</text><text fill="#000000" font-family="sans-serif" font-size="11" lengthAdjust="spacingAndGlyphs" text-decoration="underline" textLength="126" x="602.5" y="196.0151">body: Term): Directive</text><!--MD5=[8b7b02036613c263e1d0ae582a50c9f5]
class Fact--><rect fill="#FEFECE" height="73.6094" id="Fact" style="stroke: #A80036; stroke-width: 1.5;" width="195" x="821" y="14"/><ellipse cx="900.75" cy="30" fill="#B4A7E5" rx="11" ry="11" style="stroke: #A80036; stroke-width: 1.0;"/><path d="M896.6719,25.7656 L896.6719,23.6094 L904.0625,23.6094 L904.0625,25.7656 L901.5938,25.7656 L901.5938,33.8438 L904.0625,33.8438 L904.0625,36 L896.6719,36 L896.6719,33.8438 L899.1406,33.8438 L899.1406,25.7656 L896.6719,25.7656 Z "/><text fill="#000000" font-family="sans-serif" font-size="12" font-style="italic" lengthAdjust="spacingAndGlyphs" textLength="27" x="921.25" y="34.1543">Fact</text><line style="stroke: #A80036; stroke-width: 1.5;" x1="822" x2="1015" y1="46" y2="46"/><line style="stroke: #A80036; stroke-width: 1.5;" x1="822" x2="1015" y1="54" y2="54"/><ellipse cx="832" cy="65" fill="#84BE84" rx="3" ry="3" style="stroke: #038048; stroke-width: 1.0;"/><text fill="#000000" font-family="sans-serif" font-size="11" lengthAdjust="spacingAndGlyphs" textLength="65" x="841" y="68.2104">body: Term</text><text fill="#000000" font-family="sans-serif" font-size="11" font-weight="bold" lengthAdjust="spacingAndGlyphs" textLength="100" x="910" y="68.2104">= Truth.of(true)</text><ellipse cx="832" cy="77.8047" fill="#84BE84" rx="3" ry="3" style="stroke: #038048; stroke-width: 1.0;"/><text fill="#000000" font-family="sans-serif" font-size="11" lengthAdjust="spacingAndGlyphs" text-decoration="underline" textLength="120" x="841" y="81.0151">of(head: Struct): Fact</text><!--MD5=[b7702a11f4d6cfaf0543be0d76476975]
reverse link Struct to Clause--><path d="M96.33,109 C108.46,109 121.88,109 135.79,109 " fill="none" id="Struct&lt;-Clause" style="stroke: #A80036; stroke-width: 1.0;"/><polygon fill="none" points="96.06,116,76.06,109,96.06,102,96.06,116" style="stroke: #A80036; stroke-width: 1.0;"/><!--MD5=[f3bf6ee72f5e1a12bb542db493abdab0]
reverse link Clause to Rule--><path d="M449.41,80.74 C462.66,78.48 475.93,76.22 488.93,74.01 " fill="none" id="Clause&lt;-Rule" style="stroke: #A80036; stroke-width: 1.0;"/><polygon fill="none" points="450.28,87.69,429.38,84.15,447.92,73.89,450.28,87.69" style="stroke: #A80036; stroke-width: 1.0;"/><!--MD5=[528afe65e613338255b9ddfd2453915a]
reverse link Clause to Directive--><path d="M449.12,136.73 C471.66,140.5 494.3,144.29 515.47,147.83 " fill="none" id="Clause&lt;-Directive" style="stroke: #A80036; stroke-width: 1.0;"/><polygon fill="none" points="447.95,143.63,429.38,133.42,450.27,129.82,447.95,143.63" style="stroke: #A80036; stroke-width: 1.0;"/><!--MD5=[20e1b802e026257bc052a955cce88ea7]
reverse link Rule to Fact--><path d="M781.38,51 C794.74,51 807.99,51 820.67,51 " fill="none" id="Rule&lt;-Fact" style="stroke: #A80036; stroke-width: 1.0;"/><polygon fill="none" points="781.08,58,761.08,51,781.08,44,781.08,58" style="stroke: #A80036; stroke-width: 1.0;"/><!--MD5=[a0b0cdb7d7582b93c1f5d39ae9a201c4]
@startuml
left to right direction
skinparam shadowing false

interface Struct

interface Clause {
  + head: Struct?
  + body: Term
  + isWellFormed: Boolean
  + {static} of(head: Struct?, **varargs** body: Term): Clause
}
interface Rule {
  + head: Struct
  + body: Term
  + {static} of(head: Struct, **varargs** body: Term): Rule
}
interface Directive {
  + head: Struct? **= null**
  + {static} of(**varargs** body: Term): Directive
}
interface Fact {
  + body: Term **= Truth.of(true)**
  + {static} of(head: Struct): Fact
}
Struct <|- - Clause
Clause <|- - Rule
Clause <|- - Directive
Rule <|- - Fact
@enduml

PlantUML version 1.2020.02(Sun Mar 01 11:22:07 CET 2020)
(GPL source distribution)
Java Runtime: OpenJDK Runtime Environment
JVM: OpenJDK 64-Bit Server VM
Java Version: 11.0.10+9
Operating System: Linux
Default Encoding: UTF-8
Language: it
Country: IT
--></g></svg>