<?xml version="1.0" encoding="UTF-8" standalone="no"?><svg xmlns="http://www.w3.org/2000/svg" xmlns:xlink="http://www.w3.org/1999/xlink" contentScriptType="application/ecmascript" contentStyleType="text/css" height="237px" preserveAspectRatio="none" style="width:689px;height:237px;" version="1.1" viewBox="0 0 689 237" width="689px" zoomAndPan="magnify"><defs><filter height="300%" id="f17qbspww7s1xz" width="300%" x="-1" y="-1"><feGaussianBlur result="blurOut" stdDeviation="2.0"/><feColorMatrix in="blurOut" result="blurOut2" type="matrix" values="0 0 0 0 0 0 0 0 0 0 0 0 0 0 0 0 0 0 .4 0"/><feOffset dx="4.0" dy="4.0" in="blurOut2" result="blurOut3"/><feBlend in="SourceGraphic" in2="blurOut3" mode="normal"/></filter></defs><g><!--MD5=[47de47a8b5f06cbc5e036fae0a9149b7]
class Iterable--><rect codeLine="4" fill="#FEFECE" filter="url(#f17qbspww7s1xz)" height="32" id="Iterable" style="stroke:#A80036;stroke-width:1.5;" width="78" x="174" y="7"/><ellipse cx="189" cy="23" fill="#B4A7E5" rx="11" ry="11" style="stroke:#A80036;stroke-width:1.0;"/><path d="M189.9531,19.7813 L191.6719,19.7813 C192.0625,19.7813 192.25,19.75 192.375,19.6719 C192.6406,19.5156 192.7813,19.2344 192.7813,18.9375 C192.7813,18.6719 192.6719,18.4063 192.4375,18.2344 C192.2656,18.125 192.125,18.0938 191.6719,18.0938 L186.5313,18.0938 C186.0938,18.0938 185.9688,18.1094 185.8125,18.2031 C185.5625,18.3594 185.4063,18.6563 185.4063,18.9375 C185.4063,19.2188 185.5469,19.4688 185.7656,19.6406 C185.9219,19.75 186.1094,19.7813 186.5313,19.7813 L188.25,19.7813 L188.25,26.2969 L186.5313,26.2969 C186.0938,26.2969 185.9688,26.3125 185.8125,26.4219 C185.5625,26.5781 185.4063,26.8594 185.4063,27.1563 C185.4063,27.4063 185.5469,27.6719 185.7656,27.8281 C185.9219,27.9531 186.125,28 186.5313,28 L191.6719,28 C192.4219,28 192.7813,27.7188 192.7813,27.1563 C192.7813,26.875 192.6719,26.625 192.4375,26.4531 C192.2656,26.3281 192.125,26.2969 191.6719,26.2969 L189.9531,26.2969 L189.9531,19.7813 Z " fill="#000000"/><text fill="#000000" font-family="sans-serif" font-size="12" font-style="italic" lengthAdjust="spacing" textLength="46" x="203" y="27.1543">Iterable</text><!--MD5=[e58ab208f3be0c33294b0b0cc10d28a1]
class ClauseCollection--><rect codeLine="6" fill="#FEFECE" filter="url(#f17qbspww7s1xz)" height="32" id="ClauseCollection" style="stroke:#A80036;stroke-width:1.5;" width="129" x="148.5" y="99"/><ellipse cx="163.5" cy="115" fill="#B4A7E5" rx="11" ry="11" style="stroke:#A80036;stroke-width:1.0;"/><path d="M164.4531,111.7813 L166.1719,111.7813 C166.5625,111.7813 166.75,111.75 166.875,111.6719 C167.1406,111.5156 167.2813,111.2344 167.2813,110.9375 C167.2813,110.6719 167.1719,110.4063 166.9375,110.2344 C166.7656,110.125 166.625,110.0938 166.1719,110.0938 L161.0313,110.0938 C160.5938,110.0938 160.4688,110.1094 160.3125,110.2031 C160.0625,110.3594 159.9063,110.6563 159.9063,110.9375 C159.9063,111.2188 160.0469,111.4688 160.2656,111.6406 C160.4219,111.75 160.6094,111.7813 161.0313,111.7813 L162.75,111.7813 L162.75,118.2969 L161.0313,118.2969 C160.5938,118.2969 160.4688,118.3125 160.3125,118.4219 C160.0625,118.5781 159.9063,118.8594 159.9063,119.1563 C159.9063,119.4063 160.0469,119.6719 160.2656,119.8281 C160.4219,119.9531 160.625,120 161.0313,120 L166.1719,120 C166.9219,120 167.2813,119.7188 167.2813,119.1563 C167.2813,118.875 167.1719,118.625 166.9375,118.4531 C166.7656,118.3281 166.625,118.2969 166.1719,118.2969 L164.4531,118.2969 L164.4531,111.7813 Z " fill="#000000"/><text fill="#000000" font-family="sans-serif" font-size="12" font-style="italic" lengthAdjust="spacing" textLength="97" x="177.5" y="119.1543">ClauseCollection</text><!--MD5=[8ba815cc7f0aed062161ccc90f540528]
class MutableClauseCollection--><rect codeLine="7" fill="#FEFECE" filter="url(#f17qbspww7s1xz)" height="32" id="MutableClauseCollection" style="stroke:#A80036;stroke-width:1.5;" width="177" x="312.5" y="99"/><ellipse cx="327.5" cy="115" fill="#B4A7E5" rx="11" ry="11" style="stroke:#A80036;stroke-width:1.0;"/><path d="M328.4531,111.7813 L330.1719,111.7813 C330.5625,111.7813 330.75,111.75 330.875,111.6719 C331.1406,111.5156 331.2813,111.2344 331.2813,110.9375 C331.2813,110.6719 331.1719,110.4063 330.9375,110.2344 C330.7656,110.125 330.625,110.0938 330.1719,110.0938 L325.0313,110.0938 C324.5938,110.0938 324.4688,110.1094 324.3125,110.2031 C324.0625,110.3594 323.9063,110.6563 323.9063,110.9375 C323.9063,111.2188 324.0469,111.4688 324.2656,111.6406 C324.4219,111.75 324.6094,111.7813 325.0313,111.7813 L326.75,111.7813 L326.75,118.2969 L325.0313,118.2969 C324.5938,118.2969 324.4688,118.3125 324.3125,118.4219 C324.0625,118.5781 323.9063,118.8594 323.9063,119.1563 C323.9063,119.4063 324.0469,119.6719 324.2656,119.8281 C324.4219,119.9531 324.625,120 325.0313,120 L330.1719,120 C330.9219,120 331.2813,119.7188 331.2813,119.1563 C331.2813,118.875 331.1719,118.625 330.9375,118.4531 C330.7656,118.3281 330.625,118.2969 330.1719,118.2969 L328.4531,118.2969 L328.4531,111.7813 Z " fill="#000000"/><text fill="#000000" font-family="sans-serif" font-size="12" font-style="italic" lengthAdjust="spacing" textLength="145" x="341.5" y="119.1543">MutableClauseCollection</text><!--MD5=[a07fd37e05e0cefc699a88d519a18654]
class ClauseMultiSet--><rect codeLine="9" fill="#FEFECE" filter="url(#f17qbspww7s1xz)" height="32" id="ClauseMultiSet" style="stroke:#A80036;stroke-width:1.5;" width="120" x="7" y="191"/><ellipse cx="22" cy="207" fill="#B4A7E5" rx="11" ry="11" style="stroke:#A80036;stroke-width:1.0;"/><path d="M22.9531,203.7813 L24.6719,203.7813 C25.0625,203.7813 25.25,203.75 25.375,203.6719 C25.6406,203.5156 25.7813,203.2344 25.7813,202.9375 C25.7813,202.6719 25.6719,202.4063 25.4375,202.2344 C25.2656,202.125 25.125,202.0938 24.6719,202.0938 L19.5313,202.0938 C19.0938,202.0938 18.9688,202.1094 18.8125,202.2031 C18.5625,202.3594 18.4063,202.6563 18.4063,202.9375 C18.4063,203.2188 18.5469,203.4688 18.7656,203.6406 C18.9219,203.75 19.1094,203.7813 19.5313,203.7813 L21.25,203.7813 L21.25,210.2969 L19.5313,210.2969 C19.0938,210.2969 18.9688,210.3125 18.8125,210.4219 C18.5625,210.5781 18.4063,210.8594 18.4063,211.1563 C18.4063,211.4063 18.5469,211.6719 18.7656,211.8281 C18.9219,211.9531 19.125,212 19.5313,212 L24.6719,212 C25.4219,212 25.7813,211.7188 25.7813,211.1563 C25.7813,210.875 25.6719,210.625 25.4375,210.4531 C25.2656,210.3281 25.125,210.2969 24.6719,210.2969 L22.9531,210.2969 L22.9531,203.7813 Z " fill="#000000"/><text fill="#000000" font-family="sans-serif" font-size="12" font-style="italic" lengthAdjust="spacing" textLength="88" x="36" y="211.1543">ClauseMultiSet</text><!--MD5=[bb05680ce6cb6390aea27a2c02ac4cec]
class ClauseQueue--><rect codeLine="10" fill="#FEFECE" filter="url(#f17qbspww7s1xz)" height="32" id="ClauseQueue" style="stroke:#A80036;stroke-width:1.5;" width="110" x="162" y="191"/><ellipse cx="177" cy="207" fill="#B4A7E5" rx="11" ry="11" style="stroke:#A80036;stroke-width:1.0;"/><path d="M177.9531,203.7813 L179.6719,203.7813 C180.0625,203.7813 180.25,203.75 180.375,203.6719 C180.6406,203.5156 180.7813,203.2344 180.7813,202.9375 C180.7813,202.6719 180.6719,202.4063 180.4375,202.2344 C180.2656,202.125 180.125,202.0938 179.6719,202.0938 L174.5313,202.0938 C174.0938,202.0938 173.9688,202.1094 173.8125,202.2031 C173.5625,202.3594 173.4063,202.6563 173.4063,202.9375 C173.4063,203.2188 173.5469,203.4688 173.7656,203.6406 C173.9219,203.75 174.1094,203.7813 174.5313,203.7813 L176.25,203.7813 L176.25,210.2969 L174.5313,210.2969 C174.0938,210.2969 173.9688,210.3125 173.8125,210.4219 C173.5625,210.5781 173.4063,210.8594 173.4063,211.1563 C173.4063,211.4063 173.5469,211.6719 173.7656,211.8281 C173.9219,211.9531 174.125,212 174.5313,212 L179.6719,212 C180.4219,212 180.7813,211.7188 180.7813,211.1563 C180.7813,210.875 180.6719,210.625 180.4375,210.4531 C180.2656,210.3281 180.125,210.2969 179.6719,210.2969 L177.9531,210.2969 L177.9531,203.7813 Z " fill="#000000"/><text fill="#000000" font-family="sans-serif" font-size="12" font-style="italic" lengthAdjust="spacing" textLength="78" x="191" y="211.1543">ClauseQueue</text><!--MD5=[c01df263721b69e6fd30602283efbdac]
class MutableClauseMultiSet--><rect codeLine="12" fill="#FEFECE" filter="url(#f17qbspww7s1xz)" height="32" id="MutableClauseMultiSet" style="stroke:#A80036;stroke-width:1.5;" width="168" x="314" y="191"/><ellipse cx="329" cy="207" fill="#B4A7E5" rx="11" ry="11" style="stroke:#A80036;stroke-width:1.0;"/><path d="M329.9531,203.7813 L331.6719,203.7813 C332.0625,203.7813 332.25,203.75 332.375,203.6719 C332.6406,203.5156 332.7813,203.2344 332.7813,202.9375 C332.7813,202.6719 332.6719,202.4063 332.4375,202.2344 C332.2656,202.125 332.125,202.0938 331.6719,202.0938 L326.5313,202.0938 C326.0938,202.0938 325.9688,202.1094 325.8125,202.2031 C325.5625,202.3594 325.4063,202.6563 325.4063,202.9375 C325.4063,203.2188 325.5469,203.4688 325.7656,203.6406 C325.9219,203.75 326.1094,203.7813 326.5313,203.7813 L328.25,203.7813 L328.25,210.2969 L326.5313,210.2969 C326.0938,210.2969 325.9688,210.3125 325.8125,210.4219 C325.5625,210.5781 325.4063,210.8594 325.4063,211.1563 C325.4063,211.4063 325.5469,211.6719 325.7656,211.8281 C325.9219,211.9531 326.125,212 326.5313,212 L331.6719,212 C332.4219,212 332.7813,211.7188 332.7813,211.1563 C332.7813,210.875 332.6719,210.625 332.4375,210.4531 C332.2656,210.3281 332.125,210.2969 331.6719,210.2969 L329.9531,210.2969 L329.9531,203.7813 Z " fill="#000000"/><text fill="#000000" font-family="sans-serif" font-size="12" font-style="italic" lengthAdjust="spacing" textLength="136" x="343" y="211.1543">MutableClauseMultiSet</text><!--MD5=[a2301b020ba864493319be6d22cf5f8f]
class MutableClauseQueue--><rect codeLine="13" fill="#FEFECE" filter="url(#f17qbspww7s1xz)" height="32" id="MutableClauseQueue" style="stroke:#A80036;stroke-width:1.5;" width="158" x="517" y="191"/><ellipse cx="532" cy="207" fill="#B4A7E5" rx="11" ry="11" style="stroke:#A80036;stroke-width:1.0;"/><path d="M532.9531,203.7813 L534.6719,203.7813 C535.0625,203.7813 535.25,203.75 535.375,203.6719 C535.6406,203.5156 535.7813,203.2344 535.7813,202.9375 C535.7813,202.6719 535.6719,202.4063 535.4375,202.2344 C535.2656,202.125 535.125,202.0938 534.6719,202.0938 L529.5313,202.0938 C529.0938,202.0938 528.9688,202.1094 528.8125,202.2031 C528.5625,202.3594 528.4063,202.6563 528.4063,202.9375 C528.4063,203.2188 528.5469,203.4688 528.7656,203.6406 C528.9219,203.75 529.1094,203.7813 529.5313,203.7813 L531.25,203.7813 L531.25,210.2969 L529.5313,210.2969 C529.0938,210.2969 528.9688,210.3125 528.8125,210.4219 C528.5625,210.5781 528.4063,210.8594 528.4063,211.1563 C528.4063,211.4063 528.5469,211.6719 528.7656,211.8281 C528.9219,211.9531 529.125,212 529.5313,212 L534.6719,212 C535.4219,212 535.7813,211.7188 535.7813,211.1563 C535.7813,210.875 535.6719,210.625 535.4375,210.4531 C535.2656,210.3281 535.125,210.2969 534.6719,210.2969 L532.9531,210.2969 L532.9531,203.7813 Z " fill="#000000"/><text fill="#000000" font-family="sans-serif" font-size="12" font-style="italic" lengthAdjust="spacing" textLength="126" x="546" y="211.1543">MutableClauseQueue</text><!--MD5=[c689aa64595d223fe3c5dcc887b016ee]
reverse link Iterable to ClauseCollection--><path codeLine="15" d="M213,59.615 C213,73.31 213,88.22 213,98.958 " fill="none" id="Iterable-backto-ClauseCollection" style="stroke:#A80036;stroke-width:1.0;"/><polygon fill="none" points="206,59.267,213,39.267,220,59.267,206,59.267" style="stroke:#A80036;stroke-width:1.0;"/><!--MD5=[3052e632a4949176cd5878e8b92649be]
reverse link ClauseCollection to MutableClauseCollection--><path codeLine="16" d="M297.685,115 C302.565,115 307.445,115 312.324,115 " fill="none" id="ClauseCollection-backto-MutableClauseCollection" style="stroke:#A80036;stroke-width:1.0;"/><polygon fill="none" points="297.625,122,277.625,115,297.625,108,297.625,122" style="stroke:#A80036;stroke-width:1.0;"/><!--MD5=[0936d52e9ce80bfe169ed1bbc1c22f51]
reverse link ClauseCollection to ClauseMultiSet--><path codeLine="18" d="M171.537,141.5592 C145.699,157.4869 113.335,177.4375 91.5168,190.8869 " fill="none" id="ClauseCollection-backto-ClauseMultiSet" style="stroke:#A80036;stroke-width:1.0;"/><polygon fill="none" points="167.864,135.6002,188.563,131.064,175.211,147.5178,167.864,135.6002" style="stroke:#A80036;stroke-width:1.0;"/><!--MD5=[4ef4ec5ae7bd76e5823b63aad505bfdd]
reverse link ClauseCollection to ClauseQueue--><path codeLine="19" d="M214.583,151.6147 C215.192,165.3102 215.854,180.2196 216.331,190.9582 " fill="none" id="ClauseCollection-backto-ClauseQueue" style="stroke:#A80036;stroke-width:1.0;"/><polygon fill="none" points="207.574,151.5584,213.679,131.2673,221.56,150.9367,207.574,151.5584" style="stroke:#A80036;stroke-width:1.0;"/><!--MD5=[7f1b94097fa6ecc25ba13b6d64f47c8f]
reverse link MutableClauseCollection to MutableClauseMultiSet--><path codeLine="21" d="M399.813,151.6147 C399.356,165.3102 398.859,180.2196 398.501,190.9582 " fill="none" id="MutableClauseCollection-backto-MutableClauseMultiSet" style="stroke:#A80036;stroke-width:1.0;"/><polygon fill="none" points="392.829,151.0229,400.491,131.2673,406.821,151.4894,392.829,151.0229" style="stroke:#A80036;stroke-width:1.0;"/><!--MD5=[ccf1994d3b94288b972f60d1ed377850]
reverse link MutableClauseCollection to MutableClauseQueue--><path codeLine="22" d="M451.928,139.5053 C487.103,155.7398 532.848,176.8527 563.255,190.8869 " fill="none" id="MutableClauseCollection-backto-MutableClauseQueue" style="stroke:#A80036;stroke-width:1.0;"/><polygon fill="none" points="448.864,145.8009,433.639,131.064,454.731,133.0895,448.864,145.8009" style="stroke:#A80036;stroke-width:1.0;"/><!--MD5=[a97bbb9852634cbcc78314e4d4506497]
@startuml
hide fields
hide methods

interface Iterable

interface ClauseCollection
interface MutableClauseCollection

interface ClauseMultiSet
interface ClauseQueue

interface MutableClauseMultiSet
interface MutableClauseQueue

Iterable <|- - ClauseCollection
ClauseCollection <|-right- MutableClauseCollection

ClauseCollection <|- - ClauseMultiSet
ClauseCollection <|- - ClauseQueue

MutableClauseCollection <|- - MutableClauseMultiSet
MutableClauseCollection <|- - MutableClauseQueue
@enduml

PlantUML version 1.2021.5beta3(Unknown compile time)
(GPL source distribution)
Java Runtime: Java(TM) SE Runtime Environment
JVM: Java HotSpot(TM) 64-Bit Server VM
Default Encoding: UTF-8
Language: en
Country: US
--></g></svg>