<?xml version="1.0" encoding="UTF-8" standalone="no"?>
<svg xmlns="http://www.w3.org/2000/svg" xmlns:xlink="http://www.w3.org/1999/xlink" contentScriptType="application/ecmascript" contentStyleType="text/css" height="171px" preserveAspectRatio="none" style="width:523px;height:171px;background:#FFFFFF;" version="1.1" viewBox="0 0 523 171" width="523px" zoomAndPan="magnify"><defs><filter height="300%" id="f1x1tkok22ypdn" width="300%" x="-1" y="-1"><feGaussianBlur result="blurOut" stdDeviation="2.0"/><feColorMatrix in="blurOut" result="blurOut2" type="matrix" values="0 0 0 0 0 0 0 0 0 0 0 0 0 0 0 0 0 0 .4 0"/><feOffset dx="4.0" dy="4.0" in="blurOut2" result="blurOut3"/><feBlend in="SourceGraphic" in2="blurOut3" mode="normal"/></filter></defs><g><!--MD5=[9d35236b92952560f647498cf8a29acb]
class Term--><rect codeLine="3" fill="#FEFECE" filter="url(#f1x1tkok22ypdn)" height="48" id="Term" style="stroke:#A80036;stroke-width:1.5;" width="63" x="7" y="58"/><ellipse cx="22" cy="74" fill="#B4A7E5" rx="11" ry="11" style="stroke:#A80036;stroke-width:1.0;"/><path d="M22.9531,70.7813 L24.6719,70.7813 C25.0625,70.7813 25.25,70.75 25.375,70.6719 C25.6406,70.5156 25.7813,70.2344 25.7813,69.9375 C25.7813,69.6719 25.6719,69.4063 25.4375,69.2344 C25.2656,69.125 25.125,69.0938 24.6719,69.0938 L19.5313,69.0938 C19.0938,69.0938 18.9688,69.1094 18.8125,69.2031 C18.5625,69.3594 18.4063,69.6563 18.4063,69.9375 C18.4063,70.2188 18.5469,70.4688 18.7656,70.6406 C18.9219,70.75 19.1094,70.7813 19.5313,70.7813 L21.25,70.7813 L21.25,77.2969 L19.5313,77.2969 C19.0938,77.2969 18.9688,77.3125 18.8125,77.4219 C18.5625,77.5781 18.4063,77.8594 18.4063,78.1563 C18.4063,78.4063 18.5469,78.6719 18.7656,78.8281 C18.9219,78.9531 19.125,79 19.5313,79 L24.6719,79 C25.4219,79 25.7813,78.7188 25.7813,78.1563 C25.7813,77.875 25.6719,77.625 25.4375,77.4531 C25.2656,77.3281 25.125,77.2969 24.6719,77.2969 L22.9531,77.2969 L22.9531,70.7813 Z " fill="#000000"/><text fill="#000000" font-family="sans-serif" font-size="12" font-style="italic" lengthAdjust="spacing" textLength="31" x="36" y="78.1543">Term</text><line style="stroke:#A80036;stroke-width:1.5;" x1="8" x2="69" y1="90" y2="90"/><line style="stroke:#A80036;stroke-width:1.5;" x1="8" x2="69" y1="98" y2="98"/><!--MD5=[eb0f4986160aea42d9ece72995cb24c7]
class Struct--><rect codeLine="4" fill="#FEFECE" filter="url(#f1x1tkok22ypdn)" height="48" id="Struct" style="stroke:#A80036;stroke-width:1.5;" width="70" x="130" y="58"/><ellipse cx="145" cy="74" fill="#B4A7E5" rx="11" ry="11" style="stroke:#A80036;stroke-width:1.0;"/><path d="M145.9531,70.7813 L147.6719,70.7813 C148.0625,70.7813 148.25,70.75 148.375,70.6719 C148.6406,70.5156 148.7813,70.2344 148.7813,69.9375 C148.7813,69.6719 148.6719,69.4063 148.4375,69.2344 C148.2656,69.125 148.125,69.0938 147.6719,69.0938 L142.5313,69.0938 C142.0938,69.0938 141.9688,69.1094 141.8125,69.2031 C141.5625,69.3594 141.4063,69.6563 141.4063,69.9375 C141.4063,70.2188 141.5469,70.4688 141.7656,70.6406 C141.9219,70.75 142.1094,70.7813 142.5313,70.7813 L144.25,70.7813 L144.25,77.2969 L142.5313,77.2969 C142.0938,77.2969 141.9688,77.3125 141.8125,77.4219 C141.5625,77.5781 141.4063,77.8594 141.4063,78.1563 C141.4063,78.4063 141.5469,78.6719 141.7656,78.8281 C141.9219,78.9531 142.125,79 142.5313,79 L147.6719,79 C148.4219,79 148.7813,78.7188 148.7813,78.1563 C148.7813,77.875 148.6719,77.625 148.4375,77.4531 C148.2656,77.3281 148.125,77.2969 147.6719,77.2969 L145.9531,77.2969 L145.9531,70.7813 Z " fill="#000000"/><text fill="#000000" font-family="sans-serif" font-size="12" font-style="italic" lengthAdjust="spacing" textLength="38" x="159" y="78.1543">Struct</text><line style="stroke:#A80036;stroke-width:1.5;" x1="131" x2="199" y1="90" y2="90"/><line style="stroke:#A80036;stroke-width:1.5;" x1="131" x2="199" y1="98" y2="98"/><!--MD5=[c160724f8e3bb89ca8141a12554ac2e3]
class Collection--><rect codeLine="6" fill="#FEFECE" filter="url(#f1x1tkok22ypdn)" height="150.4375" id="Collection" style="stroke:#A80036;stroke-width:1.5;" width="249" x="260" y="7"/><ellipse cx="351.25" cy="23" fill="#B4A7E5" rx="11" ry="11" style="stroke:#A80036;stroke-width:1.0;"/><path d="M352.2031,19.7813 L353.9219,19.7813 C354.3125,19.7813 354.5,19.75 354.625,19.6719 C354.8906,19.5156 355.0313,19.2344 355.0313,18.9375 C355.0313,18.6719 354.9219,18.4063 354.6875,18.2344 C354.5156,18.125 354.375,18.0938 353.9219,18.0938 L348.7813,18.0938 C348.3438,18.0938 348.2188,18.1094 348.0625,18.2031 C347.8125,18.3594 347.6563,18.6563 347.6563,18.9375 C347.6563,19.2188 347.7969,19.4688 348.0156,19.6406 C348.1719,19.75 348.3594,19.7813 348.7813,19.7813 L350.5,19.7813 L350.5,26.2969 L348.7813,26.2969 C348.3438,26.2969 348.2188,26.3125 348.0625,26.4219 C347.8125,26.5781 347.6563,26.8594 347.6563,27.1563 C347.6563,27.4063 347.7969,27.6719 348.0156,27.8281 C348.1719,27.9531 348.375,28 348.7813,28 L353.9219,28 C354.6719,28 355.0313,27.7188 355.0313,27.1563 C355.0313,26.875 354.9219,26.625 354.6875,26.4531 C354.5156,26.3281 354.375,26.2969 353.9219,26.2969 L352.2031,26.2969 L352.2031,19.7813 Z " fill="#000000"/><text fill="#000000" font-family="sans-serif" font-size="12" font-style="italic" lengthAdjust="spacing" textLength="58" x="371.75" y="27.1543">Collection</text><line style="stroke:#A80036;stroke-width:1.5;" x1="261" x2="508" y1="39" y2="39"/><ellipse cx="271" cy="50" rx="3" ry="3" style="stroke:#038048;stroke-width:1.0;fill:none;"/><text fill="#000000" font-family="sans-serif" font-size="11" lengthAdjust="spacing" textLength="45" x="280" y="53.2104">size: Int</text><ellipse cx="271" cy="62.8047" rx="3" ry="3" style="stroke:#038048;stroke-width:1.0;fill:none;"/><text fill="#000000" font-family="sans-serif" font-size="11" lengthAdjust="spacing" textLength="165" x="280" y="66.0151">unfoldedArray: Array&lt;Term&gt;</text><ellipse cx="271" cy="75.6094" rx="3" ry="3" style="stroke:#038048;stroke-width:1.0;fill:none;"/><text fill="#000000" font-family="sans-serif" font-size="11" lengthAdjust="spacing" textLength="143" x="280" y="78.8198">unfoldedList: List&lt;Term&gt;</text><ellipse cx="271" cy="88.4141" rx="3" ry="3" style="stroke:#038048;stroke-width:1.0;fill:none;"/><text fill="#000000" font-family="sans-serif" font-size="11" lengthAdjust="spacing" textLength="223" x="280" y="91.6245">unfoldedSequence: Sequence&lt;Term&gt;</text><line style="stroke:#A80036;stroke-width:1.5;" x1="261" x2="508" y1="98.2188" y2="98.2188"/><ellipse cx="271" cy="109.2188" fill="#84BE84" rx="3" ry="3" style="stroke:#038048;stroke-width:1.0;"/><text fill="#000000" font-family="sans-serif" font-size="11" lengthAdjust="spacing" textLength="134" x="280" y="112.4292">toArray(): Array&lt;Term&gt;</text><ellipse cx="271" cy="122.0234" fill="#84BE84" rx="3" ry="3" style="stroke:#038048;stroke-width:1.0;"/><text fill="#000000" font-family="sans-serif" font-size="11" lengthAdjust="spacing" textLength="112" x="280" y="125.2339">toList(): List&lt;Term&gt;</text><ellipse cx="271" cy="134.8281" fill="#84BE84" rx="3" ry="3" style="stroke:#038048;stroke-width:1.0;"/><text fill="#000000" font-family="sans-serif" font-size="11" lengthAdjust="spacing" textLength="192" x="280" y="138.0386">toSequence(): Sequence&lt;Term&gt;</text><ellipse cx="271" cy="147.6328" fill="#84BE84" rx="3" ry="3" style="stroke:#038048;stroke-width:1.0;"/><text fill="#000000" font-family="sans-serif" font-size="11" lengthAdjust="spacing" textLength="157" x="280" y="150.8433">unfold(): Sequence&lt;Term&gt;</text><!--MD5=[f626f12429d76bc694cd64f7f069082d]
reverse link Term to Struct--><path codeLine="16" d="M90.6401,82 C103.7691,82 117.579,82 129.632,82 " fill="none" id="Term-backto-Struct" style="stroke:#A80036;stroke-width:1.0;"/><polygon fill="none" points="90.2753,88.9999,70.2753,82,90.2753,74.9999,90.2753,88.9999" style="stroke:#A80036;stroke-width:1.0;"/><!--MD5=[5d5281d9d86ea5bbb09f5d4bbd5d543a]
reverse link Struct to Collection--><path codeLine="17" d="M220.722,82 C232.796,82 246.062,82 259.647,82 " fill="none" id="Struct-backto-Collection" style="stroke:#A80036;stroke-width:1.0;"/><polygon fill="none" points="220.464,88.9999,200.464,82,220.463,74.9999,220.464,88.9999" style="stroke:#A80036;stroke-width:1.0;"/><!--MD5=[8a2c9406165af0ddf8317a54bb61dbe1]
@startuml
left to right direction

interface Term
interface Struct

interface Collection {
  + size: Int
  + unfoldedArray: Array<Term>
  + unfoldedList: List<Term>
  + unfoldedSequence: Sequence<Term>
  + toArray(): Array<Term>
  + toList(): List<Term>
  + toSequence(): Sequence<Term>
  + unfold(): Sequence<Term>
}
Term <|- - Struct
Struct <|- - Collection
@enduml

PlantUML version 1.2021.6beta6(Unknown compile time)
(GPL source distribution)
Java Runtime: Java(TM) SE Runtime Environment
JVM: Java HotSpot(TM) 64-Bit Server VM
Default Encoding: UTF-8
Language: en
Country: US
--></g></svg>