<?xml version="1.0" encoding="UTF-8" standalone="no"?><svg xmlns="http://www.w3.org/2000/svg" xmlns:xlink="http://www.w3.org/1999/xlink" contentScriptType="application/ecmascript" contentStyleType="text/css" height="143px" preserveAspectRatio="none" style="width:423px;height:143px;" version="1.1" viewBox="0 0 423 143" width="423px" zoomAndPan="magnify"><defs/><g><!--MD5=[9d35236b92952560f647498cf8a29acb]
class Term--><rect fill="#FEFECE" height="124.8281" id="Term" style="stroke: #A80036; stroke-width: 1.5;" width="258" x="6" y="8"/><ellipse cx="115.25" cy="24" fill="#B4A7E5" rx="11" ry="11" style="stroke: #A80036; stroke-width: 1.0;"/><path d="M111.1719,19.7656 L111.1719,17.6094 L118.5625,17.6094 L118.5625,19.7656 L116.0938,19.7656 L116.0938,27.8438 L118.5625,27.8438 L118.5625,30 L111.1719,30 L111.1719,27.8438 L113.6406,27.8438 L113.6406,19.7656 L111.1719,19.7656 Z "/><text fill="#000000" font-family="sans-serif" font-size="12" font-style="italic" lengthAdjust="spacingAndGlyphs" textLength="31" x="135.75" y="28.1543">Term</text><line style="stroke: #A80036; stroke-width: 1.5;" x1="7" x2="263" y1="40" y2="40"/><ellipse cx="17" cy="51" fill="none" rx="3" ry="3" style="stroke: #038048; stroke-width: 1.0;"/><text fill="#000000" font-family="sans-serif" font-size="11" lengthAdjust="spacingAndGlyphs" textLength="106" x="26" y="54.2104">isGround: Boolean</text><ellipse cx="17" cy="63.8047" fill="none" rx="3" ry="3" style="stroke: #038048; stroke-width: 1.0;"/><text fill="#000000" font-family="sans-serif" font-size="11" lengthAdjust="spacingAndGlyphs" textLength="153" x="26" y="67.0151">variables: Sequence&lt;Var&gt;</text><line style="stroke: #A80036; stroke-width: 1.5;" x1="7" x2="263" y1="73.6094" y2="73.6094"/><ellipse cx="17" cy="84.6094" fill="#84BE84" rx="3" ry="3" style="stroke: #038048; stroke-width: 1.0;"/><text fill="#000000" font-family="sans-serif" font-size="11" lengthAdjust="spacingAndGlyphs" textLength="158" x="26" y="87.8198">equals(other: Any): Boolean</text><ellipse cx="17" cy="97.4141" fill="#84BE84" rx="3" ry="3" style="stroke: #038048; stroke-width: 1.0;"/><text fill="#000000" font-family="sans-serif" font-size="11" lengthAdjust="spacingAndGlyphs" textLength="232" x="26" y="100.6245">structurallyEquals(other: Term): Boolean</text><ellipse cx="17" cy="110.2188" fill="#84BE84" rx="3" ry="3" style="stroke: #038048; stroke-width: 1.0;"/><text fill="#000000" font-family="sans-serif" font-size="11" lengthAdjust="spacingAndGlyphs" textLength="104" x="26" y="113.4292">freshCopy(): Term</text><ellipse cx="17" cy="123.0234" fill="#84BE84" rx="3" ry="3" style="stroke: #038048; stroke-width: 1.0;"/><text fill="#000000" font-family="sans-serif" font-size="11" lengthAdjust="spacingAndGlyphs" textLength="95" x="26" y="126.2339">toString(): String</text><!--MD5=[54b85b6d1a687c59d530998eb343c279]
class Constant--><rect fill="#FEFECE" height="60.8047" id="Constant" style="stroke: #A80036; stroke-width: 1.5;" width="88" x="324" y="40"/><ellipse cx="339" cy="56" fill="#B4A7E5" rx="11" ry="11" style="stroke: #A80036; stroke-width: 1.0;"/><path d="M334.9219,51.7656 L334.9219,49.6094 L342.3125,49.6094 L342.3125,51.7656 L339.8438,51.7656 L339.8438,59.8438 L342.3125,59.8438 L342.3125,62 L334.9219,62 L334.9219,59.8438 L337.3906,59.8438 L337.3906,51.7656 L334.9219,51.7656 Z "/><text fill="#000000" font-family="sans-serif" font-size="12" font-style="italic" lengthAdjust="spacingAndGlyphs" textLength="56" x="353" y="60.1543">Constant</text><line style="stroke: #A80036; stroke-width: 1.5;" x1="325" x2="411" y1="72" y2="72"/><ellipse cx="335" cy="83" fill="none" rx="3" ry="3" style="stroke: #038048; stroke-width: 1.0;"/><text fill="#000000" font-family="sans-serif" font-size="11" lengthAdjust="spacingAndGlyphs" textLength="58" x="344" y="86.2104">value: Any</text><line style="stroke: #A80036; stroke-width: 1.5;" x1="325" x2="411" y1="92.8047" y2="92.8047"/><!--MD5=[22dcc2a6458fba43153ab5c044b6d0f2]
reverse link Term to Constant--><path d="M284.71,70.5 C298.85,70.5 312.26,70.5 323.99,70.5 " fill="none" id="Term&lt;-Constant" style="stroke: #A80036; stroke-width: 1.0;"/><polygon fill="none" points="284.33,77.5,264.33,70.5,284.33,63.5,284.33,77.5" style="stroke: #A80036; stroke-width: 1.0;"/><!--MD5=[e050dae30c53d5f4f4c12d1e2137ee08]
@startuml
left to right direction
skinparam shadowing false

interface Term {
  + isGround: Boolean
  + variables: Sequence<Var>
  + equals(other: Any): Boolean
  + structurallyEquals(other: Term): Boolean
  + freshCopy(): Term
  + toString(): String
}
interface Constant {
  + value: Any
}

Term <|- - Constant

@enduml

PlantUML version 1.2020.02(Sun Mar 01 11:22:07 CET 2020)
(GPL source distribution)
Java Runtime: OpenJDK Runtime Environment
JVM: OpenJDK 64-Bit Server VM
Java Version: 11.0.10+9
Operating System: Linux
Default Encoding: UTF-8
Language: it
Country: IT
--></g></svg>