<?xml version="1.0" encoding="UTF-8" standalone="no"?>
<svg xmlns="http://www.w3.org/2000/svg" xmlns:xlink="http://www.w3.org/1999/xlink" contentScriptType="application/ecmascript" contentStyleType="text/css" height="81px" preserveAspectRatio="none" style="width:231px;height:81px;background:#FFFFFF;" version="1.1" viewBox="0 0 231 81" width="231px" zoomAndPan="magnify"><defs><filter height="300%" id="f1uolx80pz0wfw" width="300%" x="-1" y="-1"><feGaussianBlur result="blurOut" stdDeviation="2.0"/><feColorMatrix in="blurOut" result="blurOut2" type="matrix" values="0 0 0 0 0 0 0 0 0 0 0 0 0 0 0 0 0 0 .4 0"/><feOffset dx="4.0" dy="4.0" in="blurOut2" result="blurOut3"/><feBlend in="SourceGraphic" in2="blurOut3" mode="normal"/></filter></defs><g><!--MD5=[9d35236b92952560f647498cf8a29acb]
class Term--><rect codeLine="3" fill="#FEFECE" filter="url(#f1uolx80pz0wfw)" height="48" id="Term" style="stroke:#A80036;stroke-width:1.5;" width="63" x="7" y="13.5"/><ellipse cx="22" cy="29.5" fill="#B4A7E5" rx="11" ry="11" style="stroke:#A80036;stroke-width:1.0;"/><path d="M22.9531,26.2813 L24.6719,26.2813 C25.0625,26.2813 25.25,26.25 25.375,26.1719 C25.6406,26.0156 25.7813,25.7344 25.7813,25.4375 C25.7813,25.1719 25.6719,24.9063 25.4375,24.7344 C25.2656,24.625 25.125,24.5938 24.6719,24.5938 L19.5313,24.5938 C19.0938,24.5938 18.9688,24.6094 18.8125,24.7031 C18.5625,24.8594 18.4063,25.1563 18.4063,25.4375 C18.4063,25.7188 18.5469,25.9688 18.7656,26.1406 C18.9219,26.25 19.1094,26.2813 19.5313,26.2813 L21.25,26.2813 L21.25,32.7969 L19.5313,32.7969 C19.0938,32.7969 18.9688,32.8125 18.8125,32.9219 C18.5625,33.0781 18.4063,33.3594 18.4063,33.6563 C18.4063,33.9063 18.5469,34.1719 18.7656,34.3281 C18.9219,34.4531 19.125,34.5 19.5313,34.5 L24.6719,34.5 C25.4219,34.5 25.7813,34.2188 25.7813,33.6563 C25.7813,33.375 25.6719,33.125 25.4375,32.9531 C25.2656,32.8281 25.125,32.7969 24.6719,32.7969 L22.9531,32.7969 L22.9531,26.2813 Z " fill="#000000"/><text fill="#000000" font-family="sans-serif" font-size="12" font-style="italic" lengthAdjust="spacing" textLength="31" x="36" y="33.6543">Term</text><line style="stroke:#A80036;stroke-width:1.5;" x1="8" x2="69" y1="45.5" y2="45.5"/><line style="stroke:#A80036;stroke-width:1.5;" x1="8" x2="69" y1="53.5" y2="53.5"/><!--MD5=[54b85b6d1a687c59d530998eb343c279]
class Constant--><rect codeLine="5" fill="#FEFECE" filter="url(#f1uolx80pz0wfw)" height="60.8047" id="Constant" style="stroke:#A80036;stroke-width:1.5;" width="87" x="130" y="7"/><ellipse cx="145.45" cy="23" fill="#B4A7E5" rx="11" ry="11" style="stroke:#A80036;stroke-width:1.0;"/><path d="M146.4031,19.7813 L148.1219,19.7813 C148.5125,19.7813 148.7,19.75 148.825,19.6719 C149.0906,19.5156 149.2313,19.2344 149.2313,18.9375 C149.2313,18.6719 149.1219,18.4063 148.8875,18.2344 C148.7156,18.125 148.575,18.0938 148.1219,18.0938 L142.9813,18.0938 C142.5438,18.0938 142.4188,18.1094 142.2625,18.2031 C142.0125,18.3594 141.8563,18.6563 141.8563,18.9375 C141.8563,19.2188 141.9969,19.4688 142.2156,19.6406 C142.3719,19.75 142.5594,19.7813 142.9813,19.7813 L144.7,19.7813 L144.7,26.2969 L142.9813,26.2969 C142.5438,26.2969 142.4188,26.3125 142.2625,26.4219 C142.0125,26.5781 141.8563,26.8594 141.8563,27.1563 C141.8563,27.4063 141.9969,27.6719 142.2156,27.8281 C142.3719,27.9531 142.575,28 142.9813,28 L148.1219,28 C148.8719,28 149.2313,27.7188 149.2313,27.1563 C149.2313,26.875 149.1219,26.625 148.8875,26.4531 C148.7156,26.3281 148.575,26.2969 148.1219,26.2969 L146.4031,26.2969 L146.4031,19.7813 Z " fill="#000000"/><text fill="#000000" font-family="sans-serif" font-size="12" font-style="italic" lengthAdjust="spacing" textLength="54" x="159.55" y="27.1543">Constant</text><line style="stroke:#A80036;stroke-width:1.5;" x1="131" x2="216" y1="39" y2="39"/><ellipse cx="141" cy="50" rx="3" ry="3" style="stroke:#038048;stroke-width:1.0;fill:none;"/><text fill="#000000" font-family="sans-serif" font-size="11" lengthAdjust="spacing" textLength="61" x="150" y="53.2104">value: Any</text><line style="stroke:#A80036;stroke-width:1.5;" x1="131" x2="216" y1="59.8047" y2="59.8047"/><!--MD5=[22dcc2a6458fba43153ab5c044b6d0f2]
reverse link Term to Constant--><path codeLine="9" d="M90.1576,37.5 C103.2268,37.5 117.163,37.5 129.783,37.5 " fill="none" id="Term-backto-Constant" style="stroke:#A80036;stroke-width:1.0;"/><polygon fill="none" points="90.0129,44.4999,70.0129,37.5,90.0129,30.4999,90.0129,44.4999" style="stroke:#A80036;stroke-width:1.0;"/><!--MD5=[68bfdf2961268363b4a73ab052bf7162]
@startuml
left to right direction

interface Term 

interface Constant {
  + value: Any
}

Term <|- - Constant
@enduml

PlantUML version 1.2021.6beta6(Unknown compile time)
(GPL source distribution)
Java Runtime: Java(TM) SE Runtime Environment
JVM: Java HotSpot(TM) 64-Bit Server VM
Default Encoding: UTF-8
Language: en
Country: US
--></g></svg>