<?xml version="1.0" encoding="UTF-8" standalone="no"?>
<svg xmlns="http://www.w3.org/2000/svg" xmlns:xlink="http://www.w3.org/1999/xlink" contentScriptType="application/ecmascript" contentStyleType="text/css" height="133px" preserveAspectRatio="none" style="width:660px;height:133px;" version="1.1" viewBox="0 0 660 133" width="660px" zoomAndPan="magnify"><defs><filter height="300%" id="ftcyu2ly6ddik" width="300%" x="-1" y="-1"><feGaussianBlur result="blurOut" stdDeviation="2.0"/><feColorMatrix in="blurOut" result="blurOut2" type="matrix" values="0 0 0 0 0 0 0 0 0 0 0 0 0 0 0 0 0 0 .4 0"/><feOffset dx="4.0" dy="4.0" in="blurOut2" result="blurOut3"/><feBlend in="SourceGraphic" in2="blurOut3" mode="normal"/></filter></defs><g><!--MD5=[358ce344f7265bdea48809428a6313c2]
class CustomData--><rect codeLine="1" fill="#FEFECE" filter="url(#ftcyu2ly6ddik)" height="66.7422" id="CustomData" style="stroke:#A80036;stroke-width:1.5;" width="180" x="466.5" y="29.5"/><ellipse cx="515.25" cy="48.4688" fill="#3495EB" rx="11" ry="11" style="stroke:#A80036;stroke-width:1.0;"/><path d="M515.6875,46 L517.5313,46 L517.5313,47.5938 C517.5313,47.9844 517.5625,48.1563 517.6563,48.2969 C517.8125,48.5469 518.0938,48.7031 518.3906,48.7031 C518.6563,48.7031 518.9063,48.5781 519.0781,48.3594 C519.2188,48.1875 519.2344,48.0625 519.2344,47.5938 L519.2344,44.3125 L510.4688,44.3125 L510.4688,47.5938 C510.4688,47.9844 510.5,48.1563 510.5781,48.2969 C510.7344,48.5625 511.0313,48.7031 511.3125,48.7031 C511.5938,48.7031 511.8438,48.5781 512.0156,48.3594 C512.125,48.1875 512.1563,48.0469 512.1563,47.5938 L512.1563,46 L513.9844,46 L513.9844,52.5156 L512.875,52.5156 C512.4375,52.5156 512.3125,52.5313 512.1563,52.6406 C511.9063,52.7969 511.75,53.0781 511.75,53.375 C511.75,53.625 511.8906,53.8906 512.1094,54.0469 C512.2656,54.1719 512.4844,54.2188 512.875,54.2188 L516.8125,54.2188 C517.1406,54.2188 517.4063,54.1719 517.5156,54.0938 C517.7813,53.9531 517.9219,53.6563 517.9219,53.375 C517.9219,53.0938 517.7969,52.8438 517.5625,52.6719 C517.4063,52.5469 517.2656,52.5156 516.8125,52.5156 L515.6875,52.5156 L515.6875,46 Z " fill="#000000"/><text fill="#000000" font-family="sans-serif" font-size="12" font-style="italic" lengthAdjust="spacing" textLength="67" x="539.25" y="45.6387">«typealias»</text><text fill="#000000" font-family="sans-serif" font-size="12" font-style="italic" lengthAdjust="spacing" textLength="74" x="535.75" y="59.6074">CustomData</text><line style="stroke:#A80036;stroke-width:1.5;" x1="467.5" x2="645.5" y1="67.4375" y2="67.4375"/><text fill="#000000" font-family="sans-serif" font-size="11" font-weight="bold" lengthAdjust="spacing" textLength="61" x="472.5" y="81.6479">alias for:</text><text fill="#000000" font-family="sans-serif" font-size="11" lengthAdjust="spacing" textLength="32" x="537.5" y="81.6479">Map&lt;</text><text fill="#000000" font-family="sans-serif" font-size="11" font-style="italic" lengthAdjust="spacing" textLength="33" x="569.5" y="81.6479">String</text><text fill="#000000" font-family="sans-serif" font-size="11" lengthAdjust="spacing" textLength="3" x="602.5" y="81.6479">,</text><text fill="#000000" font-family="sans-serif" font-size="11" font-style="italic" lengthAdjust="spacing" textLength="22" x="609.5" y="81.6479">Any</text><text fill="#000000" font-family="sans-serif" font-size="11" lengthAdjust="spacing" textLength="9" x="631.5" y="81.6479">&gt;</text><line style="stroke:#A80036;stroke-width:1.5;" x1="467.5" x2="645.5" y1="88.2422" y2="88.2422"/><!--MD5=[9c88a1966d4158ee41bb7bd9067656b7]
class CustomDataStore--><rect codeLine="5" fill="#FEFECE" filter="url(#ftcyu2ly6ddik)" height="112.0234" id="CustomDataStore" style="stroke:#A80036;stroke-width:1.5;" width="250" x="181.5" y="7"/><ellipse cx="249.75" cy="23" fill="#ADD1B2" rx="11" ry="11" style="stroke:#A80036;stroke-width:1.0;"/><path d="M252.0938,18.6719 C251.1563,18.2344 250.5625,18.0938 249.6875,18.0938 C247.0625,18.0938 245.0625,20.1719 245.0625,22.8906 L245.0625,24.0156 C245.0625,26.5938 247.1719,28.4844 250.0625,28.4844 C251.2813,28.4844 252.4375,28.1875 253.1875,27.6406 C253.7656,27.2344 254.0938,26.7813 254.0938,26.3906 C254.0938,25.9375 253.7031,25.5469 253.2344,25.5469 C253.0156,25.5469 252.8125,25.625 252.625,25.8125 C252.1719,26.2969 252.1719,26.2969 251.9844,26.3906 C251.5625,26.6563 250.875,26.7813 250.1094,26.7813 C248.0625,26.7813 246.7656,25.6875 246.7656,23.9844 L246.7656,22.8906 C246.7656,21.1094 248.0156,19.7969 249.75,19.7969 C250.3281,19.7969 250.9375,19.9531 251.4063,20.2031 C251.8906,20.4844 252.0625,20.7031 252.1563,21.1094 C252.2188,21.5156 252.25,21.6406 252.3906,21.7656 C252.5313,21.9063 252.7656,22.0156 252.9844,22.0156 C253.25,22.0156 253.5156,21.875 253.6875,21.6563 C253.7969,21.5 253.8281,21.3125 253.8281,20.8906 L253.8281,19.4688 C253.8281,19.0313 253.8125,18.9063 253.7188,18.75 C253.5625,18.4844 253.2813,18.3438 252.9844,18.3438 C252.6875,18.3438 252.4844,18.4375 252.2656,18.75 L252.0938,18.6719 Z " fill="#000000"/><text fill="#000000" font-family="sans-serif" font-size="12" lengthAdjust="spacing" textLength="105" x="270.25" y="27.1543">CustomDataStore</text><line style="stroke:#A80036;stroke-width:1.5;" x1="182.5" x2="430.5" y1="39" y2="39"/><ellipse cx="192.5" cy="50" rx="3" ry="3" style="stroke:#038048;stroke-width:1.0;fill:none;"/><text fill="#000000" font-family="sans-serif" font-size="11" lengthAdjust="spacing" textLength="134" x="201.5" y="53.2104">persistent: CustomData</text><ellipse cx="192.5" cy="62.8047" rx="3" ry="3" style="stroke:#038048;stroke-width:1.0;fill:none;"/><text fill="#000000" font-family="sans-serif" font-size="11" lengthAdjust="spacing" textLength="120" x="201.5" y="66.0151">durable: CustomData</text><ellipse cx="192.5" cy="75.6094" rx="3" ry="3" style="stroke:#038048;stroke-width:1.0;fill:none;"/><text fill="#000000" font-family="sans-serif" font-size="11" lengthAdjust="spacing" textLength="140" x="201.5" y="78.8198">ephemeral: CustomData</text><line style="stroke:#A80036;stroke-width:1.5;" x1="182.5" x2="430.5" y1="85.4141" y2="85.4141"/><ellipse cx="192.5" cy="96.4141" fill="#84BE84" rx="3" ry="3" style="stroke:#038048;stroke-width:1.0;"/><text fill="#000000" font-family="sans-serif" font-size="11" lengthAdjust="spacing" textLength="218" x="201.5" y="99.6245">discardEphemeral(): CustomDataStore</text><ellipse cx="192.5" cy="109.2188" fill="#84BE84" rx="3" ry="3" style="stroke:#038048;stroke-width:1.0;"/><text fill="#000000" font-family="sans-serif" font-size="11" lengthAdjust="spacing" textLength="224" x="201.5" y="112.4292">preservePersistent(): CustomDataStore</text><!--MD5=[b8f9c9f402fdb0639661b25476f0741f]
class ExecutionContext--><rect codeLine="15" fill="#FEFECE" filter="url(#ftcyu2ly6ddik)" height="48" id="ExecutionContext" style="stroke:#A80036;stroke-width:1.5;" width="139" x="7" y="39"/><ellipse cx="22" cy="55" fill="#B4A7E5" rx="11" ry="11" style="stroke:#A80036;stroke-width:1.0;"/><path d="M22.9531,51.7813 L24.6719,51.7813 C25.0625,51.7813 25.25,51.75 25.375,51.6719 C25.6406,51.5156 25.7813,51.2344 25.7813,50.9375 C25.7813,50.6719 25.6719,50.4063 25.4375,50.2344 C25.2656,50.125 25.125,50.0938 24.6719,50.0938 L19.5313,50.0938 C19.0938,50.0938 18.9688,50.1094 18.8125,50.2031 C18.5625,50.3594 18.4063,50.6563 18.4063,50.9375 C18.4063,51.2188 18.5469,51.4688 18.7656,51.6406 C18.9219,51.75 19.1094,51.7813 19.5313,51.7813 L21.25,51.7813 L21.25,58.2969 L19.5313,58.2969 C19.0938,58.2969 18.9688,58.3125 18.8125,58.4219 C18.5625,58.5781 18.4063,58.8594 18.4063,59.1563 C18.4063,59.4063 18.5469,59.6719 18.7656,59.8281 C18.9219,59.9531 19.125,60 19.5313,60 L24.6719,60 C25.4219,60 25.7813,59.7188 25.7813,59.1563 C25.7813,58.875 25.6719,58.625 25.4375,58.4531 C25.2656,58.3281 25.125,58.2969 24.6719,58.2969 L22.9531,58.2969 L22.9531,51.7813 Z " fill="#000000"/><text fill="#000000" font-family="sans-serif" font-size="12" font-style="italic" lengthAdjust="spacing" textLength="107" x="36" y="59.1543">ExecutionContext</text><line style="stroke:#A80036;stroke-width:1.5;" x1="8" x2="145" y1="71" y2="71"/><line style="stroke:#A80036;stroke-width:1.5;" x1="8" x2="145" y1="79" y2="79"/><!--MD5=[d7e75bfdde4cdde280e6c36c213a5ec6]
reverse link CustomDataStore to CustomData--><path codeLine="13" d="M445.022,63 C452.026,63 459.03,63 466.034,63 " fill="none" id="CustomDataStore-backto-CustomData" style="stroke:#A80036;stroke-width:1.0;"/><polygon fill="#A80036" points="431.988,63,437.988,67,443.988,63,437.988,59,431.988,63" style="stroke:#A80036;stroke-width:1.0;"/><text fill="#000000" font-family="sans-serif" font-size="13" lengthAdjust="spacing" textLength="8" x="439.474" y="59.6365">1</text><text fill="#000000" font-family="sans-serif" font-size="13" lengthAdjust="spacing" textLength="8" x="450.5062" y="59.4848">3</text><!--MD5=[f6d6a6ed5a51da15dfeb290fd18be49c]
reverse link ExecutionContext to CustomDataStore--><path codeLine="17" d="M159.284,63 C166.593,63 173.902,63 181.21,63 " fill="none" id="ExecutionContext-backto-CustomDataStore" style="stroke:#A80036;stroke-width:1.0;"/><polygon fill="#A80036" points="146.129,63,152.129,67,158.129,63,152.129,59,146.129,63" style="stroke:#A80036;stroke-width:1.0;"/><text fill="#000000" font-family="sans-serif" font-size="13" lengthAdjust="spacing" textLength="8" x="154.1822" y="59.2538">1</text><text fill="#000000" font-family="sans-serif" font-size="13" lengthAdjust="spacing" textLength="8" x="165.3314" y="59.6132">1</text><!--MD5=[1de5d6893a2fc0b87432f4b9974d9ad9]
@startuml
interface CustomData << (T,#3495eb) typealias >>  {
  **alias for:** Map<//String//, //Any//>
}

class CustomDataStore {
  + persistent: CustomData
  + durable: CustomData
  + ephemeral: CustomData
  + discardEphemeral(): CustomDataStore
  + preservePersistent(): CustomDataStore
}

CustomDataStore "1" *-right- "3" CustomData

interface ExecutionContext

ExecutionContext "1" *-right- "1" CustomDataStore
@enduml

PlantUML version 1.2021.5(Sun Apr 25 11:20:28 UTC 2021)
(GPL source distribution)
Java Runtime: Java(TM) SE Runtime Environment
JVM: Java HotSpot(TM) 64-Bit Server VM
Default Encoding: UTF-8
Language: en
Country: US
--></g></svg>