<?xml version="1.0" encoding="UTF-8" standalone="no"?>
<svg xmlns="http://www.w3.org/2000/svg" xmlns:xlink="http://www.w3.org/1999/xlink" contentScriptType="application/ecmascript" contentStyleType="text/css" height="451px" preserveAspectRatio="none" style="width:1416px;height:451px;" version="1.1" viewBox="0 0 1416 451" width="1416px" zoomAndPan="magnify"><defs><filter height="300%" id="fos3vq5zbzveo" width="300%" x="-1" y="-1"><feGaussianBlur result="blurOut" stdDeviation="2.0"/><feColorMatrix in="blurOut" result="blurOut2" type="matrix" values="0 0 0 0 0 0 0 0 0 0 0 0 0 0 0 0 0 0 .4 0"/><feOffset dx="4.0" dy="4.0" in="blurOut2" result="blurOut3"/><feBlend in="SourceGraphic" in2="blurOut3" mode="normal"/></filter></defs><g><!--MD5=[9bc9d6045834095d7c51a979741d6d19]
cluster kotlin--><polygon fill="#FFFFFF" filter="url(#fos3vq5zbzveo)" points="587,345,640,345,647,367.2969,886,367.2969,886,444,587,444,587,345" style="stroke:#000000;stroke-width:1.5;"/><line style="stroke:#000000;stroke-width:1.5;" x1="587" x2="647" y1="367.2969" y2="367.2969"/><text fill="#000000" font-family="sans-serif" font-size="14" font-weight="bold" lengthAdjust="spacing" textLength="47" x="591" y="359.9951">kotlin</text><!--MD5=[01435ace8273dc3cae88e7f376e4d373]
cluster core--><polygon fill="#FFFFFF" filter="url(#fos3vq5zbzveo)" points="910,345,951,345,958,367.2969,1086,367.2969,1086,444,910,444,910,345" style="stroke:#000000;stroke-width:1.5;"/><line style="stroke:#000000;stroke-width:1.5;" x1="910" x2="958" y1="367.2969" y2="367.2969"/><text fill="#000000" font-family="sans-serif" font-size="14" font-weight="bold" lengthAdjust="spacing" textLength="35" x="914" y="359.9951">core</text><!--MD5=[5906af5765eb3dde04353d7e2c8f0e92]
cluster solve--><polygon fill="#FFFFFF" filter="url(#fos3vq5zbzveo)" points="16,6,64,6,71,28.2969,1399,28.2969,1399,321,16,321,16,6" style="stroke:#000000;stroke-width:1.5;"/><line style="stroke:#000000;stroke-width:1.5;" x1="16" x2="71" y1="28.2969" y2="28.2969"/><text fill="#000000" font-family="sans-serif" font-size="14" font-weight="bold" lengthAdjust="spacing" textLength="42" x="20" y="20.9951">solve</text><!--MD5=[1171ddf7f6a3c83b7d2312c80850c25d]
class Throwable--><rect codeLine="2" fill="#FEFECE" filter="url(#fos3vq5zbzveo)" height="48" id="Throwable" style="stroke:#A80036;stroke-width:1.5;" width="94" x="603" y="380"/><ellipse cx="618" cy="396" fill="#B4A7E5" rx="11" ry="11" style="stroke:#A80036;stroke-width:1.0;"/><path d="M618.9531,392.7813 L620.6719,392.7813 C621.0625,392.7813 621.25,392.75 621.375,392.6719 C621.6406,392.5156 621.7813,392.2344 621.7813,391.9375 C621.7813,391.6719 621.6719,391.4063 621.4375,391.2344 C621.2656,391.125 621.125,391.0938 620.6719,391.0938 L615.5313,391.0938 C615.0938,391.0938 614.9688,391.1094 614.8125,391.2031 C614.5625,391.3594 614.4063,391.6563 614.4063,391.9375 C614.4063,392.2188 614.5469,392.4688 614.7656,392.6406 C614.9219,392.75 615.1094,392.7813 615.5313,392.7813 L617.25,392.7813 L617.25,399.2969 L615.5313,399.2969 C615.0938,399.2969 614.9688,399.3125 614.8125,399.4219 C614.5625,399.5781 614.4063,399.8594 614.4063,400.1563 C614.4063,400.4063 614.5469,400.6719 614.7656,400.8281 C614.9219,400.9531 615.125,401 615.5313,401 L620.6719,401 C621.4219,401 621.7813,400.7188 621.7813,400.1563 C621.7813,399.875 621.6719,399.625 621.4375,399.4531 C621.2656,399.3281 621.125,399.2969 620.6719,399.2969 L618.9531,399.2969 L618.9531,392.7813 Z " fill="#000000"/><text fill="#000000" font-family="sans-serif" font-size="12" font-style="italic" lengthAdjust="spacing" textLength="62" x="632" y="400.1543">Throwable</text><line style="stroke:#A80036;stroke-width:1.5;" x1="604" x2="696" y1="412" y2="412"/><line style="stroke:#A80036;stroke-width:1.5;" x1="604" x2="696" y1="420" y2="420"/><!--MD5=[5c6c7d52e42032554528404b62c1d271]
class RuntimeException--><rect codeLine="3" fill="#FEFECE" filter="url(#fos3vq5zbzveo)" height="48" id="RuntimeException" style="stroke:#A80036;stroke-width:1.5;" width="138" x="732" y="380"/><ellipse cx="747" cy="396" fill="#ADD1B2" rx="11" ry="11" style="stroke:#A80036;stroke-width:1.0;"/><path d="M749.3438,391.6719 C748.4063,391.2344 747.8125,391.0938 746.9375,391.0938 C744.3125,391.0938 742.3125,393.1719 742.3125,395.8906 L742.3125,397.0156 C742.3125,399.5938 744.4219,401.4844 747.3125,401.4844 C748.5313,401.4844 749.6875,401.1875 750.4375,400.6406 C751.0156,400.2344 751.3438,399.7813 751.3438,399.3906 C751.3438,398.9375 750.9531,398.5469 750.4844,398.5469 C750.2656,398.5469 750.0625,398.625 749.875,398.8125 C749.4219,399.2969 749.4219,399.2969 749.2344,399.3906 C748.8125,399.6563 748.125,399.7813 747.3594,399.7813 C745.3125,399.7813 744.0156,398.6875 744.0156,396.9844 L744.0156,395.8906 C744.0156,394.1094 745.2656,392.7969 747,392.7969 C747.5781,392.7969 748.1875,392.9531 748.6563,393.2031 C749.1406,393.4844 749.3125,393.7031 749.4063,394.1094 C749.4688,394.5156 749.5,394.6406 749.6406,394.7656 C749.7813,394.9063 750.0156,395.0156 750.2344,395.0156 C750.5,395.0156 750.7656,394.875 750.9375,394.6563 C751.0469,394.5 751.0781,394.3125 751.0781,393.8906 L751.0781,392.4688 C751.0781,392.0313 751.0625,391.9063 750.9688,391.75 C750.8125,391.4844 750.5313,391.3438 750.2344,391.3438 C749.9375,391.3438 749.7344,391.4375 749.5156,391.75 L749.3438,391.6719 Z " fill="#000000"/><text fill="#000000" font-family="sans-serif" font-size="12" lengthAdjust="spacing" textLength="106" x="761" y="400.1543">RuntimeException</text><line style="stroke:#A80036;stroke-width:1.5;" x1="733" x2="869" y1="412" y2="412"/><line style="stroke:#A80036;stroke-width:1.5;" x1="733" x2="869" y1="420" y2="420"/><!--MD5=[72de8112c5091e7d69a21dae6d933ece]
class TuPrologException--><rect codeLine="9" fill="#FEFECE" filter="url(#fos3vq5zbzveo)" height="48" id="TuPrologException" style="stroke:#A80036;stroke-width:1.5;" width="143" x="926.5" y="380"/><ellipse cx="941.5" cy="396" fill="#ADD1B2" rx="11" ry="11" style="stroke:#A80036;stroke-width:1.0;"/><path d="M943.8438,391.6719 C942.9063,391.2344 942.3125,391.0938 941.4375,391.0938 C938.8125,391.0938 936.8125,393.1719 936.8125,395.8906 L936.8125,397.0156 C936.8125,399.5938 938.9219,401.4844 941.8125,401.4844 C943.0313,401.4844 944.1875,401.1875 944.9375,400.6406 C945.5156,400.2344 945.8438,399.7813 945.8438,399.3906 C945.8438,398.9375 945.4531,398.5469 944.9844,398.5469 C944.7656,398.5469 944.5625,398.625 944.375,398.8125 C943.9219,399.2969 943.9219,399.2969 943.7344,399.3906 C943.3125,399.6563 942.625,399.7813 941.8594,399.7813 C939.8125,399.7813 938.5156,398.6875 938.5156,396.9844 L938.5156,395.8906 C938.5156,394.1094 939.7656,392.7969 941.5,392.7969 C942.0781,392.7969 942.6875,392.9531 943.1563,393.2031 C943.6406,393.4844 943.8125,393.7031 943.9063,394.1094 C943.9688,394.5156 944,394.6406 944.1406,394.7656 C944.2813,394.9063 944.5156,395.0156 944.7344,395.0156 C945,395.0156 945.2656,394.875 945.4375,394.6563 C945.5469,394.5 945.5781,394.3125 945.5781,393.8906 L945.5781,392.4688 C945.5781,392.0313 945.5625,391.9063 945.4688,391.75 C945.3125,391.4844 945.0313,391.3438 944.7344,391.3438 C944.4375,391.3438 944.2344,391.4375 944.0156,391.75 L943.8438,391.6719 Z " fill="#000000"/><text fill="#000000" font-family="sans-serif" font-size="12" lengthAdjust="spacing" textLength="111" x="955.5" y="400.1543">TuPrologException</text><line style="stroke:#A80036;stroke-width:1.5;" x1="927.5" x2="1068.5" y1="412" y2="412"/><line style="stroke:#A80036;stroke-width:1.5;" x1="927.5" x2="1068.5" y1="420" y2="420"/><!--MD5=[7e472b12b0de74d762283d9e5d10d75f]
class TuPrologRuntimeExeception--><rect codeLine="15" fill="#FEFECE" filter="url(#fos3vq5zbzveo)" height="48" id="TuPrologRuntimeExeception" style="stroke:#A80036;stroke-width:1.5;" width="198" x="899" y="257"/><ellipse cx="914" cy="273" fill="#ADD1B2" rx="11" ry="11" style="stroke:#A80036;stroke-width:1.0;"/><path d="M916.3438,268.6719 C915.4063,268.2344 914.8125,268.0938 913.9375,268.0938 C911.3125,268.0938 909.3125,270.1719 909.3125,272.8906 L909.3125,274.0156 C909.3125,276.5938 911.4219,278.4844 914.3125,278.4844 C915.5313,278.4844 916.6875,278.1875 917.4375,277.6406 C918.0156,277.2344 918.3438,276.7813 918.3438,276.3906 C918.3438,275.9375 917.9531,275.5469 917.4844,275.5469 C917.2656,275.5469 917.0625,275.625 916.875,275.8125 C916.4219,276.2969 916.4219,276.2969 916.2344,276.3906 C915.8125,276.6563 915.125,276.7813 914.3594,276.7813 C912.3125,276.7813 911.0156,275.6875 911.0156,273.9844 L911.0156,272.8906 C911.0156,271.1094 912.2656,269.7969 914,269.7969 C914.5781,269.7969 915.1875,269.9531 915.6563,270.2031 C916.1406,270.4844 916.3125,270.7031 916.4063,271.1094 C916.4688,271.5156 916.5,271.6406 916.6406,271.7656 C916.7813,271.9063 917.0156,272.0156 917.2344,272.0156 C917.5,272.0156 917.7656,271.875 917.9375,271.6563 C918.0469,271.5 918.0781,271.3125 918.0781,270.8906 L918.0781,269.4688 C918.0781,269.0313 918.0625,268.9063 917.9688,268.75 C917.8125,268.4844 917.5313,268.3438 917.2344,268.3438 C916.9375,268.3438 916.7344,268.4375 916.5156,268.75 L916.3438,268.6719 Z " fill="#000000"/><text fill="#000000" font-family="sans-serif" font-size="12" lengthAdjust="spacing" textLength="166" x="928" y="277.1543">TuPrologRuntimeExeception</text><line style="stroke:#A80036;stroke-width:1.5;" x1="900" x2="1096" y1="289" y2="289"/><line style="stroke:#A80036;stroke-width:1.5;" x1="900" x2="1096" y1="297" y2="297"/><!--MD5=[b34b5b5afb92839df3475bee89668ffa]
class TimeOutException--><rect codeLine="19" fill="#FEFECE" filter="url(#fos3vq5zbzveo)" height="48" id="TimeOutException" style="stroke:#A80036;stroke-width:1.5;" width="141" x="1241.5" y="149"/><ellipse cx="1256.5" cy="165" fill="#ADD1B2" rx="11" ry="11" style="stroke:#A80036;stroke-width:1.0;"/><path d="M1258.8438,160.6719 C1257.9063,160.2344 1257.3125,160.0938 1256.4375,160.0938 C1253.8125,160.0938 1251.8125,162.1719 1251.8125,164.8906 L1251.8125,166.0156 C1251.8125,168.5938 1253.9219,170.4844 1256.8125,170.4844 C1258.0313,170.4844 1259.1875,170.1875 1259.9375,169.6406 C1260.5156,169.2344 1260.8438,168.7813 1260.8438,168.3906 C1260.8438,167.9375 1260.4531,167.5469 1259.9844,167.5469 C1259.7656,167.5469 1259.5625,167.625 1259.375,167.8125 C1258.9219,168.2969 1258.9219,168.2969 1258.7344,168.3906 C1258.3125,168.6563 1257.625,168.7813 1256.8594,168.7813 C1254.8125,168.7813 1253.5156,167.6875 1253.5156,165.9844 L1253.5156,164.8906 C1253.5156,163.1094 1254.7656,161.7969 1256.5,161.7969 C1257.0781,161.7969 1257.6875,161.9531 1258.1563,162.2031 C1258.6406,162.4844 1258.8125,162.7031 1258.9063,163.1094 C1258.9688,163.5156 1259,163.6406 1259.1406,163.7656 C1259.2813,163.9063 1259.5156,164.0156 1259.7344,164.0156 C1260,164.0156 1260.2656,163.875 1260.4375,163.6563 C1260.5469,163.5 1260.5781,163.3125 1260.5781,162.8906 L1260.5781,161.4688 C1260.5781,161.0313 1260.5625,160.9063 1260.4688,160.75 C1260.3125,160.4844 1260.0313,160.3438 1259.7344,160.3438 C1259.4375,160.3438 1259.2344,160.4375 1259.0156,160.75 L1258.8438,160.6719 Z " fill="#000000"/><text fill="#000000" font-family="sans-serif" font-size="12" lengthAdjust="spacing" textLength="109" x="1270.5" y="169.1543">TimeOutException</text><line style="stroke:#A80036;stroke-width:1.5;" x1="1242.5" x2="1381.5" y1="181" y2="181"/><line style="stroke:#A80036;stroke-width:1.5;" x1="1242.5" x2="1381.5" y1="189" y2="189"/><!--MD5=[825fd7d71353b525e753bf8de14d8277]
class HaltException--><rect codeLine="20" fill="#FEFECE" filter="url(#fos3vq5zbzveo)" height="48" id="HaltException" style="stroke:#A80036;stroke-width:1.5;" width="114" x="1092" y="149"/><ellipse cx="1107" cy="165" fill="#ADD1B2" rx="11" ry="11" style="stroke:#A80036;stroke-width:1.0;"/><path d="M1109.3438,160.6719 C1108.4063,160.2344 1107.8125,160.0938 1106.9375,160.0938 C1104.3125,160.0938 1102.3125,162.1719 1102.3125,164.8906 L1102.3125,166.0156 C1102.3125,168.5938 1104.4219,170.4844 1107.3125,170.4844 C1108.5313,170.4844 1109.6875,170.1875 1110.4375,169.6406 C1111.0156,169.2344 1111.3438,168.7813 1111.3438,168.3906 C1111.3438,167.9375 1110.9531,167.5469 1110.4844,167.5469 C1110.2656,167.5469 1110.0625,167.625 1109.875,167.8125 C1109.4219,168.2969 1109.4219,168.2969 1109.2344,168.3906 C1108.8125,168.6563 1108.125,168.7813 1107.3594,168.7813 C1105.3125,168.7813 1104.0156,167.6875 1104.0156,165.9844 L1104.0156,164.8906 C1104.0156,163.1094 1105.2656,161.7969 1107,161.7969 C1107.5781,161.7969 1108.1875,161.9531 1108.6563,162.2031 C1109.1406,162.4844 1109.3125,162.7031 1109.4063,163.1094 C1109.4688,163.5156 1109.5,163.6406 1109.6406,163.7656 C1109.7813,163.9063 1110.0156,164.0156 1110.2344,164.0156 C1110.5,164.0156 1110.7656,163.875 1110.9375,163.6563 C1111.0469,163.5 1111.0781,163.3125 1111.0781,162.8906 L1111.0781,161.4688 C1111.0781,161.0313 1111.0625,160.9063 1110.9688,160.75 C1110.8125,160.4844 1110.5313,160.3438 1110.2344,160.3438 C1109.9375,160.3438 1109.7344,160.4375 1109.5156,160.75 L1109.3438,160.6719 Z " fill="#000000"/><text fill="#000000" font-family="sans-serif" font-size="12" lengthAdjust="spacing" textLength="82" x="1121" y="169.1543">HaltException</text><line style="stroke:#A80036;stroke-width:1.5;" x1="1093" x2="1205" y1="181" y2="181"/><line style="stroke:#A80036;stroke-width:1.5;" x1="1093" x2="1205" y1="189" y2="189"/><!--MD5=[2edc00157c5c9a1df4317dccfc016904]
class PrologError--><rect codeLine="25" fill="#FEFECE" filter="url(#fos3vq5zbzveo)" height="48" id="PrologError" style="stroke:#A80036;stroke-width:1.5;" width="100" x="614" y="149"/><ellipse cx="629" cy="165" fill="#ADD1B2" rx="11" ry="11" style="stroke:#A80036;stroke-width:1.0;"/><path d="M631.3438,160.6719 C630.4063,160.2344 629.8125,160.0938 628.9375,160.0938 C626.3125,160.0938 624.3125,162.1719 624.3125,164.8906 L624.3125,166.0156 C624.3125,168.5938 626.4219,170.4844 629.3125,170.4844 C630.5313,170.4844 631.6875,170.1875 632.4375,169.6406 C633.0156,169.2344 633.3438,168.7813 633.3438,168.3906 C633.3438,167.9375 632.9531,167.5469 632.4844,167.5469 C632.2656,167.5469 632.0625,167.625 631.875,167.8125 C631.4219,168.2969 631.4219,168.2969 631.2344,168.3906 C630.8125,168.6563 630.125,168.7813 629.3594,168.7813 C627.3125,168.7813 626.0156,167.6875 626.0156,165.9844 L626.0156,164.8906 C626.0156,163.1094 627.2656,161.7969 629,161.7969 C629.5781,161.7969 630.1875,161.9531 630.6563,162.2031 C631.1406,162.4844 631.3125,162.7031 631.4063,163.1094 C631.4688,163.5156 631.5,163.6406 631.6406,163.7656 C631.7813,163.9063 632.0156,164.0156 632.2344,164.0156 C632.5,164.0156 632.7656,163.875 632.9375,163.6563 C633.0469,163.5 633.0781,163.3125 633.0781,162.8906 L633.0781,161.4688 C633.0781,161.0313 633.0625,160.9063 632.9688,160.75 C632.8125,160.4844 632.5313,160.3438 632.2344,160.3438 C631.9375,160.3438 631.7344,160.4375 631.5156,160.75 L631.3438,160.6719 Z " fill="#000000"/><text fill="#000000" font-family="sans-serif" font-size="12" lengthAdjust="spacing" textLength="68" x="643" y="169.1543">PrologError</text><line style="stroke:#A80036;stroke-width:1.5;" x1="615" x2="713" y1="181" y2="181"/><line style="stroke:#A80036;stroke-width:1.5;" x1="615" x2="713" y1="189" y2="189"/><!--MD5=[79e676833ccdf47e96aafc18080d7cfb]
class PrologWarning--><rect codeLine="26" fill="#FEFECE" filter="url(#fos3vq5zbzveo)" height="48" id="PrologWarning" style="stroke:#A80036;stroke-width:1.5;" width="119" x="937.5" y="149"/><ellipse cx="952.5" cy="165" fill="#ADD1B2" rx="11" ry="11" style="stroke:#A80036;stroke-width:1.0;"/><path d="M954.8438,160.6719 C953.9063,160.2344 953.3125,160.0938 952.4375,160.0938 C949.8125,160.0938 947.8125,162.1719 947.8125,164.8906 L947.8125,166.0156 C947.8125,168.5938 949.9219,170.4844 952.8125,170.4844 C954.0313,170.4844 955.1875,170.1875 955.9375,169.6406 C956.5156,169.2344 956.8438,168.7813 956.8438,168.3906 C956.8438,167.9375 956.4531,167.5469 955.9844,167.5469 C955.7656,167.5469 955.5625,167.625 955.375,167.8125 C954.9219,168.2969 954.9219,168.2969 954.7344,168.3906 C954.3125,168.6563 953.625,168.7813 952.8594,168.7813 C950.8125,168.7813 949.5156,167.6875 949.5156,165.9844 L949.5156,164.8906 C949.5156,163.1094 950.7656,161.7969 952.5,161.7969 C953.0781,161.7969 953.6875,161.9531 954.1563,162.2031 C954.6406,162.4844 954.8125,162.7031 954.9063,163.1094 C954.9688,163.5156 955,163.6406 955.1406,163.7656 C955.2813,163.9063 955.5156,164.0156 955.7344,164.0156 C956,164.0156 956.2656,163.875 956.4375,163.6563 C956.5469,163.5 956.5781,163.3125 956.5781,162.8906 L956.5781,161.4688 C956.5781,161.0313 956.5625,160.9063 956.4688,160.75 C956.3125,160.4844 956.0313,160.3438 955.7344,160.3438 C955.4375,160.3438 955.2344,160.4375 955.0156,160.75 L954.8438,160.6719 Z " fill="#000000"/><text fill="#000000" font-family="sans-serif" font-size="12" lengthAdjust="spacing" textLength="87" x="966.5" y="169.1543">PrologWarning</text><line style="stroke:#A80036;stroke-width:1.5;" x1="938.5" x2="1055.5" y1="181" y2="181"/><line style="stroke:#A80036;stroke-width:1.5;" x1="938.5" x2="1055.5" y1="189" y2="189"/><!--MD5=[78ac6971888c5a43231472ca7759bc41]
class InitializationIssue--><rect codeLine="31" fill="#FEFECE" filter="url(#fos3vq5zbzveo)" height="48" id="InitializationIssue" style="stroke:#A80036;stroke-width:1.5;" width="133" x="1249.5" y="41"/><ellipse cx="1264.5" cy="57" fill="#ADD1B2" rx="11" ry="11" style="stroke:#A80036;stroke-width:1.0;"/><path d="M1266.8438,52.6719 C1265.9063,52.2344 1265.3125,52.0938 1264.4375,52.0938 C1261.8125,52.0938 1259.8125,54.1719 1259.8125,56.8906 L1259.8125,58.0156 C1259.8125,60.5938 1261.9219,62.4844 1264.8125,62.4844 C1266.0313,62.4844 1267.1875,62.1875 1267.9375,61.6406 C1268.5156,61.2344 1268.8438,60.7813 1268.8438,60.3906 C1268.8438,59.9375 1268.4531,59.5469 1267.9844,59.5469 C1267.7656,59.5469 1267.5625,59.625 1267.375,59.8125 C1266.9219,60.2969 1266.9219,60.2969 1266.7344,60.3906 C1266.3125,60.6563 1265.625,60.7813 1264.8594,60.7813 C1262.8125,60.7813 1261.5156,59.6875 1261.5156,57.9844 L1261.5156,56.8906 C1261.5156,55.1094 1262.7656,53.7969 1264.5,53.7969 C1265.0781,53.7969 1265.6875,53.9531 1266.1563,54.2031 C1266.6406,54.4844 1266.8125,54.7031 1266.9063,55.1094 C1266.9688,55.5156 1267,55.6406 1267.1406,55.7656 C1267.2813,55.9063 1267.5156,56.0156 1267.7344,56.0156 C1268,56.0156 1268.2656,55.875 1268.4375,55.6563 C1268.5469,55.5 1268.5781,55.3125 1268.5781,54.8906 L1268.5781,53.4688 C1268.5781,53.0313 1268.5625,52.9063 1268.4688,52.75 C1268.3125,52.4844 1268.0313,52.3438 1267.7344,52.3438 C1267.4375,52.3438 1267.2344,52.4375 1267.0156,52.75 L1266.8438,52.6719 Z " fill="#000000"/><text fill="#000000" font-family="sans-serif" font-size="12" lengthAdjust="spacing" textLength="101" x="1278.5" y="61.1543">InitializationIssue</text><line style="stroke:#A80036;stroke-width:1.5;" x1="1250.5" x2="1381.5" y1="73" y2="73"/><line style="stroke:#A80036;stroke-width:1.5;" x1="1250.5" x2="1381.5" y1="81" y2="81"/><!--MD5=[ed4992e8f2f44a2b9117e0150ff6d4d4]
class MissingPredicate--><rect codeLine="32" fill="#FEFECE" filter="url(#fos3vq5zbzveo)" height="48" id="MissingPredicate" style="stroke:#A80036;stroke-width:1.5;" width="133" x="1081.5" y="41"/><ellipse cx="1096.5" cy="57" fill="#ADD1B2" rx="11" ry="11" style="stroke:#A80036;stroke-width:1.0;"/><path d="M1098.8438,52.6719 C1097.9063,52.2344 1097.3125,52.0938 1096.4375,52.0938 C1093.8125,52.0938 1091.8125,54.1719 1091.8125,56.8906 L1091.8125,58.0156 C1091.8125,60.5938 1093.9219,62.4844 1096.8125,62.4844 C1098.0313,62.4844 1099.1875,62.1875 1099.9375,61.6406 C1100.5156,61.2344 1100.8438,60.7813 1100.8438,60.3906 C1100.8438,59.9375 1100.4531,59.5469 1099.9844,59.5469 C1099.7656,59.5469 1099.5625,59.625 1099.375,59.8125 C1098.9219,60.2969 1098.9219,60.2969 1098.7344,60.3906 C1098.3125,60.6563 1097.625,60.7813 1096.8594,60.7813 C1094.8125,60.7813 1093.5156,59.6875 1093.5156,57.9844 L1093.5156,56.8906 C1093.5156,55.1094 1094.7656,53.7969 1096.5,53.7969 C1097.0781,53.7969 1097.6875,53.9531 1098.1563,54.2031 C1098.6406,54.4844 1098.8125,54.7031 1098.9063,55.1094 C1098.9688,55.5156 1099,55.6406 1099.1406,55.7656 C1099.2813,55.9063 1099.5156,56.0156 1099.7344,56.0156 C1100,56.0156 1100.2656,55.875 1100.4375,55.6563 C1100.5469,55.5 1100.5781,55.3125 1100.5781,54.8906 L1100.5781,53.4688 C1100.5781,53.0313 1100.5625,52.9063 1100.4688,52.75 C1100.3125,52.4844 1100.0313,52.3438 1099.7344,52.3438 C1099.4375,52.3438 1099.2344,52.4375 1099.0156,52.75 L1098.8438,52.6719 Z " fill="#000000"/><text fill="#000000" font-family="sans-serif" font-size="12" lengthAdjust="spacing" textLength="101" x="1110.5" y="61.1543">MissingPredicate</text><line style="stroke:#A80036;stroke-width:1.5;" x1="1082.5" x2="1213.5" y1="73" y2="73"/><line style="stroke:#A80036;stroke-width:1.5;" x1="1082.5" x2="1213.5" y1="81" y2="81"/><!--MD5=[461c0be67f199517e41afbca022808d5]
class PermissionError--><rect codeLine="37" fill="#FEFECE" filter="url(#fos3vq5zbzveo)" height="48" id="PermissionError" style="stroke:#A80036;stroke-width:1.5;" width="127" x="919.5" y="41"/><ellipse cx="934.5" cy="57" fill="#ADD1B2" rx="11" ry="11" style="stroke:#A80036;stroke-width:1.0;"/><path d="M936.8438,52.6719 C935.9063,52.2344 935.3125,52.0938 934.4375,52.0938 C931.8125,52.0938 929.8125,54.1719 929.8125,56.8906 L929.8125,58.0156 C929.8125,60.5938 931.9219,62.4844 934.8125,62.4844 C936.0313,62.4844 937.1875,62.1875 937.9375,61.6406 C938.5156,61.2344 938.8438,60.7813 938.8438,60.3906 C938.8438,59.9375 938.4531,59.5469 937.9844,59.5469 C937.7656,59.5469 937.5625,59.625 937.375,59.8125 C936.9219,60.2969 936.9219,60.2969 936.7344,60.3906 C936.3125,60.6563 935.625,60.7813 934.8594,60.7813 C932.8125,60.7813 931.5156,59.6875 931.5156,57.9844 L931.5156,56.8906 C931.5156,55.1094 932.7656,53.7969 934.5,53.7969 C935.0781,53.7969 935.6875,53.9531 936.1563,54.2031 C936.6406,54.4844 936.8125,54.7031 936.9063,55.1094 C936.9688,55.5156 937,55.6406 937.1406,55.7656 C937.2813,55.9063 937.5156,56.0156 937.7344,56.0156 C938,56.0156 938.2656,55.875 938.4375,55.6563 C938.5469,55.5 938.5781,55.3125 938.5781,54.8906 L938.5781,53.4688 C938.5781,53.0313 938.5625,52.9063 938.4688,52.75 C938.3125,52.4844 938.0313,52.3438 937.7344,52.3438 C937.4375,52.3438 937.2344,52.4375 937.0156,52.75 L936.8438,52.6719 Z " fill="#000000"/><text fill="#000000" font-family="sans-serif" font-size="12" lengthAdjust="spacing" textLength="95" x="948.5" y="61.1543">PermissionError</text><line style="stroke:#A80036;stroke-width:1.5;" x1="920.5" x2="1045.5" y1="73" y2="73"/><line style="stroke:#A80036;stroke-width:1.5;" x1="920.5" x2="1045.5" y1="81" y2="81"/><!--MD5=[8ed2d57188066148e70e2076acfab87f]
class InstantiationError--><rect codeLine="38" fill="#FEFECE" filter="url(#fos3vq5zbzveo)" height="48" id="InstantiationError" style="stroke:#A80036;stroke-width:1.5;" width="133" x="751.5" y="41"/><ellipse cx="766.5" cy="57" fill="#ADD1B2" rx="11" ry="11" style="stroke:#A80036;stroke-width:1.0;"/><path d="M768.8438,52.6719 C767.9063,52.2344 767.3125,52.0938 766.4375,52.0938 C763.8125,52.0938 761.8125,54.1719 761.8125,56.8906 L761.8125,58.0156 C761.8125,60.5938 763.9219,62.4844 766.8125,62.4844 C768.0313,62.4844 769.1875,62.1875 769.9375,61.6406 C770.5156,61.2344 770.8438,60.7813 770.8438,60.3906 C770.8438,59.9375 770.4531,59.5469 769.9844,59.5469 C769.7656,59.5469 769.5625,59.625 769.375,59.8125 C768.9219,60.2969 768.9219,60.2969 768.7344,60.3906 C768.3125,60.6563 767.625,60.7813 766.8594,60.7813 C764.8125,60.7813 763.5156,59.6875 763.5156,57.9844 L763.5156,56.8906 C763.5156,55.1094 764.7656,53.7969 766.5,53.7969 C767.0781,53.7969 767.6875,53.9531 768.1563,54.2031 C768.6406,54.4844 768.8125,54.7031 768.9063,55.1094 C768.9688,55.5156 769,55.6406 769.1406,55.7656 C769.2813,55.9063 769.5156,56.0156 769.7344,56.0156 C770,56.0156 770.2656,55.875 770.4375,55.6563 C770.5469,55.5 770.5781,55.3125 770.5781,54.8906 L770.5781,53.4688 C770.5781,53.0313 770.5625,52.9063 770.4688,52.75 C770.3125,52.4844 770.0313,52.3438 769.7344,52.3438 C769.4375,52.3438 769.2344,52.4375 769.0156,52.75 L768.8438,52.6719 Z " fill="#000000"/><text fill="#000000" font-family="sans-serif" font-size="12" lengthAdjust="spacing" textLength="101" x="780.5" y="61.1543">InstantiationError</text><line style="stroke:#A80036;stroke-width:1.5;" x1="752.5" x2="883.5" y1="73" y2="73"/><line style="stroke:#A80036;stroke-width:1.5;" x1="752.5" x2="883.5" y1="81" y2="81"/><!--MD5=[f9545c360be8e7b5adcfbfdb727494f5]
class SyntaxError--><rect codeLine="39" fill="#FEFECE" filter="url(#fos3vq5zbzveo)" height="48" id="SyntaxError" style="stroke:#A80036;stroke-width:1.5;" width="102" x="614" y="41"/><ellipse cx="629" cy="57" fill="#ADD1B2" rx="11" ry="11" style="stroke:#A80036;stroke-width:1.0;"/><path d="M631.3438,52.6719 C630.4063,52.2344 629.8125,52.0938 628.9375,52.0938 C626.3125,52.0938 624.3125,54.1719 624.3125,56.8906 L624.3125,58.0156 C624.3125,60.5938 626.4219,62.4844 629.3125,62.4844 C630.5313,62.4844 631.6875,62.1875 632.4375,61.6406 C633.0156,61.2344 633.3438,60.7813 633.3438,60.3906 C633.3438,59.9375 632.9531,59.5469 632.4844,59.5469 C632.2656,59.5469 632.0625,59.625 631.875,59.8125 C631.4219,60.2969 631.4219,60.2969 631.2344,60.3906 C630.8125,60.6563 630.125,60.7813 629.3594,60.7813 C627.3125,60.7813 626.0156,59.6875 626.0156,57.9844 L626.0156,56.8906 C626.0156,55.1094 627.2656,53.7969 629,53.7969 C629.5781,53.7969 630.1875,53.9531 630.6563,54.2031 C631.1406,54.4844 631.3125,54.7031 631.4063,55.1094 C631.4688,55.5156 631.5,55.6406 631.6406,55.7656 C631.7813,55.9063 632.0156,56.0156 632.2344,56.0156 C632.5,56.0156 632.7656,55.875 632.9375,55.6563 C633.0469,55.5 633.0781,55.3125 633.0781,54.8906 L633.0781,53.4688 C633.0781,53.0313 633.0625,52.9063 632.9688,52.75 C632.8125,52.4844 632.5313,52.3438 632.2344,52.3438 C631.9375,52.3438 631.7344,52.4375 631.5156,52.75 L631.3438,52.6719 Z " fill="#000000"/><text fill="#000000" font-family="sans-serif" font-size="12" lengthAdjust="spacing" textLength="70" x="643" y="61.1543">SyntaxError</text><line style="stroke:#A80036;stroke-width:1.5;" x1="615" x2="715" y1="73" y2="73"/><line style="stroke:#A80036;stroke-width:1.5;" x1="615" x2="715" y1="81" y2="81"/><!--MD5=[e42d7fb3af0c88d7d2e862b6586445e0]
class EvaluationError--><rect codeLine="40" fill="#FEFECE" filter="url(#fos3vq5zbzveo)" height="48" id="EvaluationError" style="stroke:#A80036;stroke-width:1.5;" width="122" x="457" y="41"/><ellipse cx="472" cy="57" fill="#ADD1B2" rx="11" ry="11" style="stroke:#A80036;stroke-width:1.0;"/><path d="M474.3438,52.6719 C473.4063,52.2344 472.8125,52.0938 471.9375,52.0938 C469.3125,52.0938 467.3125,54.1719 467.3125,56.8906 L467.3125,58.0156 C467.3125,60.5938 469.4219,62.4844 472.3125,62.4844 C473.5313,62.4844 474.6875,62.1875 475.4375,61.6406 C476.0156,61.2344 476.3438,60.7813 476.3438,60.3906 C476.3438,59.9375 475.9531,59.5469 475.4844,59.5469 C475.2656,59.5469 475.0625,59.625 474.875,59.8125 C474.4219,60.2969 474.4219,60.2969 474.2344,60.3906 C473.8125,60.6563 473.125,60.7813 472.3594,60.7813 C470.3125,60.7813 469.0156,59.6875 469.0156,57.9844 L469.0156,56.8906 C469.0156,55.1094 470.2656,53.7969 472,53.7969 C472.5781,53.7969 473.1875,53.9531 473.6563,54.2031 C474.1406,54.4844 474.3125,54.7031 474.4063,55.1094 C474.4688,55.5156 474.5,55.6406 474.6406,55.7656 C474.7813,55.9063 475.0156,56.0156 475.2344,56.0156 C475.5,56.0156 475.7656,55.875 475.9375,55.6563 C476.0469,55.5 476.0781,55.3125 476.0781,54.8906 L476.0781,53.4688 C476.0781,53.0313 476.0625,52.9063 475.9688,52.75 C475.8125,52.4844 475.5313,52.3438 475.2344,52.3438 C474.9375,52.3438 474.7344,52.4375 474.5156,52.75 L474.3438,52.6719 Z " fill="#000000"/><text fill="#000000" font-family="sans-serif" font-size="12" lengthAdjust="spacing" textLength="90" x="486" y="61.1543">EvaluationError</text><line style="stroke:#A80036;stroke-width:1.5;" x1="458" x2="578" y1="73" y2="73"/><line style="stroke:#A80036;stroke-width:1.5;" x1="458" x2="578" y1="81" y2="81"/><!--MD5=[60775ae3c2f32c90efdf922c1e445706]
class MessageError--><rect codeLine="41" fill="#FEFECE" filter="url(#fos3vq5zbzveo)" height="48" id="MessageError" style="stroke:#A80036;stroke-width:1.5;" width="117" x="531.5" y="257"/><ellipse cx="546.5" cy="273" fill="#ADD1B2" rx="11" ry="11" style="stroke:#A80036;stroke-width:1.0;"/><path d="M548.8438,268.6719 C547.9063,268.2344 547.3125,268.0938 546.4375,268.0938 C543.8125,268.0938 541.8125,270.1719 541.8125,272.8906 L541.8125,274.0156 C541.8125,276.5938 543.9219,278.4844 546.8125,278.4844 C548.0313,278.4844 549.1875,278.1875 549.9375,277.6406 C550.5156,277.2344 550.8438,276.7813 550.8438,276.3906 C550.8438,275.9375 550.4531,275.5469 549.9844,275.5469 C549.7656,275.5469 549.5625,275.625 549.375,275.8125 C548.9219,276.2969 548.9219,276.2969 548.7344,276.3906 C548.3125,276.6563 547.625,276.7813 546.8594,276.7813 C544.8125,276.7813 543.5156,275.6875 543.5156,273.9844 L543.5156,272.8906 C543.5156,271.1094 544.7656,269.7969 546.5,269.7969 C547.0781,269.7969 547.6875,269.9531 548.1563,270.2031 C548.6406,270.4844 548.8125,270.7031 548.9063,271.1094 C548.9688,271.5156 549,271.6406 549.1406,271.7656 C549.2813,271.9063 549.5156,272.0156 549.7344,272.0156 C550,272.0156 550.2656,271.875 550.4375,271.6563 C550.5469,271.5 550.5781,271.3125 550.5781,270.8906 L550.5781,269.4688 C550.5781,269.0313 550.5625,268.9063 550.4688,268.75 C550.3125,268.4844 550.0313,268.3438 549.7344,268.3438 C549.4375,268.3438 549.2344,268.4375 549.0156,268.75 L548.8438,268.6719 Z " fill="#000000"/><text fill="#000000" font-family="sans-serif" font-size="12" lengthAdjust="spacing" textLength="85" x="560.5" y="277.1543">MessageError</text><line style="stroke:#A80036;stroke-width:1.5;" x1="532.5" x2="647.5" y1="289" y2="289"/><line style="stroke:#A80036;stroke-width:1.5;" x1="532.5" x2="647.5" y1="297" y2="297"/><!--MD5=[ff25a0d5ddbc20d31984855d498bfdbf]
class ExistenceError--><rect codeLine="42" fill="#FEFECE" filter="url(#fos3vq5zbzveo)" height="48" id="ExistenceError" style="stroke:#A80036;stroke-width:1.5;" width="120" x="302" y="41"/><ellipse cx="317" cy="57" fill="#ADD1B2" rx="11" ry="11" style="stroke:#A80036;stroke-width:1.0;"/><path d="M319.3438,52.6719 C318.4063,52.2344 317.8125,52.0938 316.9375,52.0938 C314.3125,52.0938 312.3125,54.1719 312.3125,56.8906 L312.3125,58.0156 C312.3125,60.5938 314.4219,62.4844 317.3125,62.4844 C318.5313,62.4844 319.6875,62.1875 320.4375,61.6406 C321.0156,61.2344 321.3438,60.7813 321.3438,60.3906 C321.3438,59.9375 320.9531,59.5469 320.4844,59.5469 C320.2656,59.5469 320.0625,59.625 319.875,59.8125 C319.4219,60.2969 319.4219,60.2969 319.2344,60.3906 C318.8125,60.6563 318.125,60.7813 317.3594,60.7813 C315.3125,60.7813 314.0156,59.6875 314.0156,57.9844 L314.0156,56.8906 C314.0156,55.1094 315.2656,53.7969 317,53.7969 C317.5781,53.7969 318.1875,53.9531 318.6563,54.2031 C319.1406,54.4844 319.3125,54.7031 319.4063,55.1094 C319.4688,55.5156 319.5,55.6406 319.6406,55.7656 C319.7813,55.9063 320.0156,56.0156 320.2344,56.0156 C320.5,56.0156 320.7656,55.875 320.9375,55.6563 C321.0469,55.5 321.0781,55.3125 321.0781,54.8906 L321.0781,53.4688 C321.0781,53.0313 321.0625,52.9063 320.9688,52.75 C320.8125,52.4844 320.5313,52.3438 320.2344,52.3438 C319.9375,52.3438 319.7344,52.4375 319.5156,52.75 L319.3438,52.6719 Z " fill="#000000"/><text fill="#000000" font-family="sans-serif" font-size="12" lengthAdjust="spacing" textLength="88" x="331" y="61.1543">ExistenceError</text><line style="stroke:#A80036;stroke-width:1.5;" x1="303" x2="421" y1="73" y2="73"/><line style="stroke:#A80036;stroke-width:1.5;" x1="303" x2="421" y1="81" y2="81"/><!--MD5=[d80170be72d9a22389ce83fc59a64ba5]
class SystemError--><rect codeLine="43" fill="#FEFECE" filter="url(#fos3vq5zbzveo)" height="48" id="SystemError" style="stroke:#A80036;stroke-width:1.5;" width="107" x="683.5" y="257"/><ellipse cx="698.5" cy="273" fill="#ADD1B2" rx="11" ry="11" style="stroke:#A80036;stroke-width:1.0;"/><path d="M700.8438,268.6719 C699.9063,268.2344 699.3125,268.0938 698.4375,268.0938 C695.8125,268.0938 693.8125,270.1719 693.8125,272.8906 L693.8125,274.0156 C693.8125,276.5938 695.9219,278.4844 698.8125,278.4844 C700.0313,278.4844 701.1875,278.1875 701.9375,277.6406 C702.5156,277.2344 702.8438,276.7813 702.8438,276.3906 C702.8438,275.9375 702.4531,275.5469 701.9844,275.5469 C701.7656,275.5469 701.5625,275.625 701.375,275.8125 C700.9219,276.2969 700.9219,276.2969 700.7344,276.3906 C700.3125,276.6563 699.625,276.7813 698.8594,276.7813 C696.8125,276.7813 695.5156,275.6875 695.5156,273.9844 L695.5156,272.8906 C695.5156,271.1094 696.7656,269.7969 698.5,269.7969 C699.0781,269.7969 699.6875,269.9531 700.1563,270.2031 C700.6406,270.4844 700.8125,270.7031 700.9063,271.1094 C700.9688,271.5156 701,271.6406 701.1406,271.7656 C701.2813,271.9063 701.5156,272.0156 701.7344,272.0156 C702,272.0156 702.2656,271.875 702.4375,271.6563 C702.5469,271.5 702.5781,271.3125 702.5781,270.8906 L702.5781,269.4688 C702.5781,269.0313 702.5625,268.9063 702.4688,268.75 C702.3125,268.4844 702.0313,268.3438 701.7344,268.3438 C701.4375,268.3438 701.2344,268.4375 701.0156,268.75 L700.8438,268.6719 Z " fill="#000000"/><text fill="#000000" font-family="sans-serif" font-size="12" lengthAdjust="spacing" textLength="75" x="712.5" y="277.1543">SystemError</text><line style="stroke:#A80036;stroke-width:1.5;" x1="684.5" x2="789.5" y1="289" y2="289"/><line style="stroke:#A80036;stroke-width:1.5;" x1="684.5" x2="789.5" y1="297" y2="297"/><!--MD5=[65222e474de6b983ec7698664db33c79]
class TypeError--><rect codeLine="44" fill="#FEFECE" filter="url(#fos3vq5zbzveo)" height="48" id="TypeError" style="stroke:#A80036;stroke-width:1.5;" width="92" x="175" y="41"/><ellipse cx="190" cy="57" fill="#ADD1B2" rx="11" ry="11" style="stroke:#A80036;stroke-width:1.0;"/><path d="M192.3438,52.6719 C191.4063,52.2344 190.8125,52.0938 189.9375,52.0938 C187.3125,52.0938 185.3125,54.1719 185.3125,56.8906 L185.3125,58.0156 C185.3125,60.5938 187.4219,62.4844 190.3125,62.4844 C191.5313,62.4844 192.6875,62.1875 193.4375,61.6406 C194.0156,61.2344 194.3438,60.7813 194.3438,60.3906 C194.3438,59.9375 193.9531,59.5469 193.4844,59.5469 C193.2656,59.5469 193.0625,59.625 192.875,59.8125 C192.4219,60.2969 192.4219,60.2969 192.2344,60.3906 C191.8125,60.6563 191.125,60.7813 190.3594,60.7813 C188.3125,60.7813 187.0156,59.6875 187.0156,57.9844 L187.0156,56.8906 C187.0156,55.1094 188.2656,53.7969 190,53.7969 C190.5781,53.7969 191.1875,53.9531 191.6563,54.2031 C192.1406,54.4844 192.3125,54.7031 192.4063,55.1094 C192.4688,55.5156 192.5,55.6406 192.6406,55.7656 C192.7813,55.9063 193.0156,56.0156 193.2344,56.0156 C193.5,56.0156 193.7656,55.875 193.9375,55.6563 C194.0469,55.5 194.0781,55.3125 194.0781,54.8906 L194.0781,53.4688 C194.0781,53.0313 194.0625,52.9063 193.9688,52.75 C193.8125,52.4844 193.5313,52.3438 193.2344,52.3438 C192.9375,52.3438 192.7344,52.4375 192.5156,52.75 L192.3438,52.6719 Z " fill="#000000"/><text fill="#000000" font-family="sans-serif" font-size="12" lengthAdjust="spacing" textLength="60" x="204" y="61.1543">TypeError</text><line style="stroke:#A80036;stroke-width:1.5;" x1="176" x2="266" y1="73" y2="73"/><line style="stroke:#A80036;stroke-width:1.5;" x1="176" x2="266" y1="81" y2="81"/><!--MD5=[4e3496d9fd17a486d3c34a71686687fe]
class DomainError--><rect codeLine="45" fill="#FEFECE" filter="url(#fos3vq5zbzveo)" height="48" id="DomainError" style="stroke:#A80036;stroke-width:1.5;" width="107" x="32.5" y="41"/><ellipse cx="47.5" cy="57" fill="#ADD1B2" rx="11" ry="11" style="stroke:#A80036;stroke-width:1.0;"/><path d="M49.8438,52.6719 C48.9063,52.2344 48.3125,52.0938 47.4375,52.0938 C44.8125,52.0938 42.8125,54.1719 42.8125,56.8906 L42.8125,58.0156 C42.8125,60.5938 44.9219,62.4844 47.8125,62.4844 C49.0313,62.4844 50.1875,62.1875 50.9375,61.6406 C51.5156,61.2344 51.8438,60.7813 51.8438,60.3906 C51.8438,59.9375 51.4531,59.5469 50.9844,59.5469 C50.7656,59.5469 50.5625,59.625 50.375,59.8125 C49.9219,60.2969 49.9219,60.2969 49.7344,60.3906 C49.3125,60.6563 48.625,60.7813 47.8594,60.7813 C45.8125,60.7813 44.5156,59.6875 44.5156,57.9844 L44.5156,56.8906 C44.5156,55.1094 45.7656,53.7969 47.5,53.7969 C48.0781,53.7969 48.6875,53.9531 49.1563,54.2031 C49.6406,54.4844 49.8125,54.7031 49.9063,55.1094 C49.9688,55.5156 50,55.6406 50.1406,55.7656 C50.2813,55.9063 50.5156,56.0156 50.7344,56.0156 C51,56.0156 51.2656,55.875 51.4375,55.6563 C51.5469,55.5 51.5781,55.3125 51.5781,54.8906 L51.5781,53.4688 C51.5781,53.0313 51.5625,52.9063 51.4688,52.75 C51.3125,52.4844 51.0313,52.3438 50.7344,52.3438 C50.4375,52.3438 50.2344,52.4375 50.0156,52.75 L49.8438,52.6719 Z " fill="#000000"/><text fill="#000000" font-family="sans-serif" font-size="12" lengthAdjust="spacing" textLength="75" x="61.5" y="61.1543">DomainError</text><line style="stroke:#A80036;stroke-width:1.5;" x1="33.5" x2="138.5" y1="73" y2="73"/><line style="stroke:#A80036;stroke-width:1.5;" x1="33.5" x2="138.5" y1="81" y2="81"/><!--MD5=[57f3906c627d9264bf9ae2f504048e88]
reverse link Throwable to RuntimeException--><path codeLine="5" d="M717.384,404 C722.142,404 726.899,404 731.656,404 " fill="none" id="Throwable-backto-RuntimeException" style="stroke:#A80036;stroke-width:1.0;"/><polygon fill="none" points="717.188,410.9999,697.188,404,717.187,396.9999,717.188,410.9999" style="stroke:#A80036;stroke-width:1.0;"/><!--MD5=[f89d53a77869d2d61244018e7fc94cc4]
reverse link RuntimeException to TuPrologException--><path codeLine="11" d="M890.342,421.8444 C902.277,422.2499 914.211,421.8627 926.145,420.6829 " fill="none" id="RuntimeException-backto-TuPrologException" style="stroke:#A80036;stroke-width:1.0;"/><polygon fill="none" points="889.71,428.8172,870.258,420.4136,890.705,414.8526,889.71,428.8172" style="stroke:#A80036;stroke-width:1.0;"/><!--MD5=[753136942699066448c48606d0a21309]
link TuPrologRuntimeExeception to TuPrologException--><path codeLine="17" d="M998,305.044 C998,320.42 998,341.119 998,359.527 " fill="none" id="TuPrologRuntimeExeception-to-TuPrologException" style="stroke:#A80036;stroke-width:1.0;"/><polygon fill="none" points="1005,359.63,998,379.6297,991,359.63,1005,359.63" style="stroke:#A80036;stroke-width:1.0;"/><!--MD5=[69dfc4b1136ceb7f1a1b70df124dcb80]
link TimeOutException to TuPrologRuntimeExeception--><path codeLine="22" d="M1243.87,197 C1197.45,212.67 1135.58,233.555 1085.52,250.455 " fill="none" id="TimeOutException-to-TuPrologRuntimeExeception" style="stroke:#A80036;stroke-width:1.0;"/><polygon fill="none" points="1087.46,257.188,1066.27,256.953,1082.98,243.924,1087.46,257.188" style="stroke:#A80036;stroke-width:1.0;"/><!--MD5=[3ed8a388050a419e5c0ad7f2ca42c63e]
link HaltException to TuPrologRuntimeExeception--><path codeLine="23" d="M1116.24,197 C1096.12,211.12 1069.97,229.475 1047.38,245.333 " fill="none" id="HaltException-to-TuPrologRuntimeExeception" style="stroke:#A80036;stroke-width:1.0;"/><polygon fill="none" points="1051.35,251.1,1030.96,256.862,1043.31,239.641,1051.35,251.1" style="stroke:#A80036;stroke-width:1.0;"/><!--MD5=[023c303ee27b9471d5eb343fe4d98251]
link PrologError to TuPrologRuntimeExeception--><path codeLine="28" d="M714.003,189.869 C764.58,205.921 843.928,231.103 905.911,250.774 " fill="none" id="PrologError-to-TuPrologRuntimeExeception" style="stroke:#A80036;stroke-width:1.0;"/><polygon fill="none" points="908.421,244.226,925.366,256.949,904.186,257.571,908.421,244.226" style="stroke:#A80036;stroke-width:1.0;"/><!--MD5=[950f76ed7f94e7d1fab9c47560670fe4]
link PrologWarning to TuPrologRuntimeExeception--><path codeLine="29" d="M997.217,197 C997.326,208.588 997.463,223.029 997.591,236.601 " fill="none" id="PrologWarning-to-TuPrologRuntimeExeception" style="stroke:#A80036;stroke-width:1.0;"/><polygon fill="none" points="1004.59,236.613,997.78,256.678,990.592,236.745,1004.59,236.613" style="stroke:#A80036;stroke-width:1.0;"/><!--MD5=[5e1454c07164124e2512410499610b18]
link InitializationIssue to PrologWarning--><path codeLine="34" d="M1249.13,88.221 C1198.55,105.026 1128.96,128.15 1075.71,145.847 " fill="none" id="InitializationIssue-to-PrologWarning" style="stroke:#A80036;stroke-width:1.0;"/><polygon fill="none" points="1077.72,152.555,1056.53,152.219,1073.3,139.27,1077.72,152.555" style="stroke:#A80036;stroke-width:1.0;"/><!--MD5=[d3f74105b8c5c5cd6738c3a3aa692143]
link MissingPredicate to PrologWarning--><path codeLine="35" d="M1115.24,89 C1095.12,103.12 1068.97,121.475 1046.38,137.333 " fill="none" id="MissingPredicate-to-PrologWarning" style="stroke:#A80036;stroke-width:1.0;"/><polygon fill="none" points="1050.35,143.1,1029.96,148.862,1042.31,131.641,1050.35,143.1" style="stroke:#A80036;stroke-width:1.0;"/><!--MD5=[344629bc16fa5e4ea50779702bf93fa9]
link PermissionError to PrologError--><path codeLine="47" d="M919.212,87.196 C865.45,105.06 788.666,130.575 733.381,148.945 " fill="none" id="PermissionError-to-PrologError" style="stroke:#A80036;stroke-width:1.0;"/><polygon fill="none" points="735.255,155.699,714.068,155.363,730.841,142.413,735.255,155.699" style="stroke:#A80036;stroke-width:1.0;"/><!--MD5=[1a23ba587b7b52b3ae85585e0660c718]
link InstantiationError to PrologError--><path codeLine="48" d="M784.584,89 C764.071,103.12 737.404,121.475 714.365,137.333 " fill="none" id="InstantiationError-to-PrologError" style="stroke:#A80036;stroke-width:1.0;"/><polygon fill="none" points="718.06,143.288,697.616,148.862,710.122,131.756,718.06,143.288" style="stroke:#A80036;stroke-width:1.0;"/><!--MD5=[26389c96755ec051db5e0c3b93f21d12]
link SyntaxError to PrologError--><path codeLine="49" d="M664.783,89 C664.674,100.588 664.537,115.029 664.409,128.601 " fill="none" id="SyntaxError-to-PrologError" style="stroke:#A80036;stroke-width:1.0;"/><polygon fill="none" points="671.408,128.745,664.22,148.678,657.409,128.613,671.408,128.745" style="stroke:#A80036;stroke-width:1.0;"/><!--MD5=[6f81b743090398932cdc5917779f451d]
link EvaluationError to PrologError--><path codeLine="50" d="M549.68,89 C569.032,103.051 594.162,121.296 615.93,137.1 " fill="none" id="EvaluationError-to-PrologError" style="stroke:#A80036;stroke-width:1.0;"/><polygon fill="none" points="620.059,131.447,632.13,148.862,611.833,142.776,620.059,131.447" style="stroke:#A80036;stroke-width:1.0;"/><!--MD5=[d48edeb30400058fd0598f027abcb620]
reverse link PrologError to MessageError--><path codeLine="51" d="M636.316,213.656 C626.197,228.15 615.085,244.068 606.281,256.678 " fill="none" id="PrologError-backto-MessageError" style="stroke:#A80036;stroke-width:1.0;"/><polygon fill="none" points="630.755,209.393,647.943,197,642.234,217.407,630.755,209.393" style="stroke:#A80036;stroke-width:1.0;"/><!--MD5=[fd4241e6a03120b62d36aa048837f8bd]
link ExistenceError to PrologError--><path codeLine="52" d="M422.027,87.069 C471.751,104.522 542.46,129.34 594.607,147.644 " fill="none" id="ExistenceError-to-PrologError" style="stroke:#A80036;stroke-width:1.0;"/><polygon fill="none" points="597.049,141.082,613.602,154.311,592.412,154.292,597.049,141.082" style="stroke:#A80036;stroke-width:1.0;"/><!--MD5=[bba11a73dc55d79ed6d3a49d24a22020]
reverse link PrologError to SystemError--><path codeLine="53" d="M691.31,213.656 C701.292,228.15 712.254,244.068 720.939,256.678 " fill="none" id="PrologError-backto-SystemError" style="stroke:#A80036;stroke-width:1.0;"/><polygon fill="none" points="685.419,217.443,679.84,197,696.949,209.502,685.419,217.443" style="stroke:#A80036;stroke-width:1.0;"/><!--MD5=[de9ad6aeaa8ba789bdc35485d3e2d8f6]
link TypeError to PrologError--><path codeLine="54" d="M267.212,83.675 C272.831,85.585 278.521,87.409 284,89 C390.778,119.999 517.399,145.457 594.167,159.679 " fill="none" id="TypeError-to-PrologError" style="stroke:#A80036;stroke-width:1.0;"/><polygon fill="none" points="595.557,152.817,613.971,163.303,593.037,166.588,595.557,152.817" style="stroke:#A80036;stroke-width:1.0;"/><!--MD5=[d65be20a95f26546eb89084359203c44]
link DomainError to PrologError--><path codeLine="55" d="M139.641,84.319 C145.465,86.025 151.333,87.627 157,89 C311.004,126.324 495.439,151.818 593.894,163.926 " fill="none" id="DomainError-to-PrologError" style="stroke:#A80036;stroke-width:1.0;"/><polygon fill="none" points="594.83,156.988,613.844,166.34,593.148,170.886,594.83,156.988" style="stroke:#A80036;stroke-width:1.0;"/><!--MD5=[0fef062dfedfe9d232b0e7df3a9f6817]
@startuml
package kotlin {
  interface Throwable
  class RuntimeException

  RuntimeException -left-|> Throwable
}

package core {
  class TuPrologException

  TuPrologException -left-|> RuntimeException
}

package solve {
  class TuPrologRuntimeExeception

  TuPrologRuntimeExeception - -|> TuPrologException

  class TimeOutException
  class HaltException

  TimeOutException - -|> TuPrologRuntimeExeception
  HaltException - -|> TuPrologRuntimeExeception

  class PrologError
  class PrologWarning

  PrologError - -|> TuPrologRuntimeExeception
  PrologWarning - -|> TuPrologRuntimeExeception

  class InitializationIssue
  class MissingPredicate
  
  InitializationIssue - -|> PrologWarning
  MissingPredicate - -|> PrologWarning

  class PermissionError
  class InstantiationError
  class SyntaxError
  class EvaluationError
  class MessageError
  class ExistenceError
  class SystemError
  class TypeError
  class DomainError

  PermissionError - -|> PrologError
  InstantiationError - -|> PrologError
  SyntaxError - -|> PrologError
  EvaluationError - -|> PrologError
  MessageError -up-|> PrologError
  ExistenceError - -|> PrologError
  SystemError -up-|> PrologError
  TypeError - -|> PrologError
  DomainError - -|> PrologError

}
@enduml

PlantUML version 1.2021.5(Sun Apr 25 11:20:28 UTC 2021)
(GPL source distribution)
Java Runtime: Java(TM) SE Runtime Environment
JVM: Java HotSpot(TM) 64-Bit Server VM
Default Encoding: UTF-8
Language: en
Country: US
--></g></svg>