<?xml version="1.0" encoding="UTF-8" standalone="no"?><svg xmlns="http://www.w3.org/2000/svg" xmlns:xlink="http://www.w3.org/1999/xlink" contentScriptType="application/ecmascript" contentStyleType="text/css" height="386px" preserveAspectRatio="none" style="width:593px;height:386px;" version="1.1" viewBox="0 0 593 386" width="593px" zoomAndPan="magnify"><defs><filter height="300%" id="ffo56xuw69806" width="300%" x="-1" y="-1"><feGaussianBlur result="blurOut" stdDeviation="2.0"/><feColorMatrix in="blurOut" result="blurOut2" type="matrix" values="0 0 0 0 0 0 0 0 0 0 0 0 0 0 0 0 0 0 .4 0"/><feOffset dx="4.0" dy="4.0" in="blurOut2" result="blurOut3"/><feBlend in="SourceGraphic" in2="blurOut3" mode="normal"/></filter></defs><g><!--MD5=[48c68d8a863b04d4a2cfef801a1cc7ec]
class TermVisitor--><rect codeLine="2" fill="#FEFECE" filter="url(#ffo56xuw69806)" height="48" id="TermVisitor" style="stroke:#A80036;stroke-width:1.5;" width="112" x="236" y="324"/><ellipse cx="251" cy="340" fill="#B4A7E5" rx="11" ry="11" style="stroke:#A80036;stroke-width:1.0;"/><path d="M246.9219,335.7656 L246.9219,333.6094 L254.3125,333.6094 L254.3125,335.7656 L251.8438,335.7656 L251.8438,343.8438 L254.3125,343.8438 L254.3125,346 L246.9219,346 L246.9219,343.8438 L249.3906,343.8438 L249.3906,335.7656 L246.9219,335.7656 Z " fill="#000000"/><text fill="#000000" font-family="sans-serif" font-size="12" font-style="italic" lengthAdjust="spacing" textLength="69" x="265" y="344.1543">TermVisitor</text><rect fill="#FFFFFF" height="15.9688" style="stroke:#000000;stroke-width:1.0;stroke-dasharray:2.0,2.0;" width="9" x="342" y="321"/><text fill="#000000" font-family="sans-serif" font-size="12" font-style="italic" lengthAdjust="spacing" textLength="7" x="343" y="333.1387">T</text><line style="stroke:#A80036;stroke-width:1.5;" x1="237" x2="347" y1="356" y2="356"/><line style="stroke:#A80036;stroke-width:1.5;" x1="237" x2="347" y1="364" y2="364"/><!--MD5=[b3285122efc47aa851f9e17a852ff7ac]
class AbstractEvaluator--><rect codeLine="4" fill="#FEFECE" filter="url(#ffo56xuw69806)" height="112.0234" id="AbstractEvaluator" style="stroke:#A80036;stroke-width:1.5;" width="336" x="124" y="135"/><ellipse cx="139" cy="151" fill="#A9DCDF" rx="11" ry="11" style="stroke:#A80036;stroke-width:1.0;"/><path d="M139.1094,146.3438 L137.9531,151.4219 L140.2813,151.4219 L139.1094,146.3438 Z M137.625,144.1094 L140.6094,144.1094 L143.9688,156.5 L141.5156,156.5 L140.75,153.4375 L137.4688,153.4375 L136.7188,156.5 L134.2813,156.5 L137.625,144.1094 Z " fill="#000000"/><text fill="#000000" font-family="sans-serif" font-size="12" font-style="italic" lengthAdjust="spacing" textLength="111" x="153" y="155.1543">AbstractEvaluator</text><rect fill="#FFFFFF" height="15.9688" style="stroke:#000000;stroke-width:1.0;stroke-dasharray:2.0,2.0;" width="191" x="272" y="132"/><text fill="#000000" font-family="sans-serif" font-size="12" font-style="italic" lengthAdjust="spacing" textLength="189" x="273" y="144.1387">E : ExecutionContext, T : Term</text><line style="stroke:#A80036;stroke-width:1.5;" x1="125" x2="459" y1="167" y2="167"/><polygon fill="none" points="135,173,139,177,135,181,131,177" style="stroke:#B38D22;stroke-width:1.0;"/><text fill="#000000" font-family="sans-serif" font-size="11" lengthAdjust="spacing" textLength="158" x="144" y="181.2104">request: Solve.Request&lt;E&gt;</text><polygon fill="none" points="135,185.8047,139,189.8047,135,193.8047,131,189.8047" style="stroke:#B38D22;stroke-width:1.0;"/><text fill="#000000" font-family="sans-serif" font-size="11" lengthAdjust="spacing" textLength="52" x="144" y="194.0151">index: Int</text><line style="stroke:#A80036;stroke-width:1.0;" x1="125" x2="459" y1="200.6094" y2="200.6094"/><polygon fill="#FFFF44" points="135,206.6094,139,210.6094,135,214.6094,131,210.6094" style="stroke:#B38D22;stroke-width:1.0;"/><text fill="#000000" font-family="sans-serif" font-size="11" lengthAdjust="spacing" textLength="125" x="144" y="214.8198">unevaluable(Struct): T</text><polygon fill="#FFFF44" points="135,219.4141,139,223.4141,135,227.4141,131,223.4141" style="stroke:#B38D22;stroke-width:1.0;"/><text fill="#000000" font-family="sans-serif" font-size="11" lengthAdjust="spacing" textLength="103" x="144" y="227.6245">staticCheck(Term)</text><polygon fill="#FFFF44" points="135,232.2188,139,236.2188,135,240.2188,131,236.2188" style="stroke:#B38D22;stroke-width:1.0;"/><text fill="#000000" font-family="sans-serif" font-size="11" lengthAdjust="spacing" textLength="157" x="144" y="240.4292">dynamicCheck(Term, Term)</text><!--MD5=[05f8a1872459da11d15e89c77a662fb5]
class ExpressionReducer--><rect codeLine="15" fill="#FEFECE" filter="url(#ffo56xuw69806)" height="48" id="ExpressionReducer" style="stroke:#A80036;stroke-width:1.5;" width="164" x="7" y="10"/><ellipse cx="22" cy="26" fill="#ADD1B2" rx="11" ry="11" style="stroke:#A80036;stroke-width:1.0;"/><path d="M24.9688,31.6406 Q24.3906,31.9375 23.75,32.0781 Q23.1094,32.2344 22.4063,32.2344 Q19.9063,32.2344 18.5781,30.5938 Q17.2656,28.9375 17.2656,25.8125 Q17.2656,22.6875 18.5781,21.0313 Q19.9063,19.375 22.4063,19.375 Q23.1094,19.375 23.75,19.5313 Q24.4063,19.6875 24.9688,19.9844 L24.9688,22.7031 Q24.3438,22.125 23.75,21.8594 Q23.1563,21.5781 22.5313,21.5781 Q21.1875,21.5781 20.5,22.6563 Q19.8125,23.7188 19.8125,25.8125 Q19.8125,27.9063 20.5,28.9844 Q21.1875,30.0469 22.5313,30.0469 Q23.1563,30.0469 23.75,29.7813 Q24.3438,29.5 24.9688,28.9219 L24.9688,31.6406 Z " fill="#000000"/><text fill="#000000" font-family="sans-serif" font-size="12" lengthAdjust="spacing" textLength="120" x="36" y="30.1543">ExpressionReducer</text><rect fill="#FFFFFF" height="15.9688" style="stroke:#000000;stroke-width:1.0;stroke-dasharray:2.0,2.0;" width="10" x="164" y="7"/><text fill="#000000" font-family="sans-serif" font-size="12" font-style="italic" lengthAdjust="spacing" textLength="8" x="165" y="19.1387">E</text><line style="stroke:#A80036;stroke-width:1.5;" x1="8" x2="170" y1="42" y2="42"/><line style="stroke:#A80036;stroke-width:1.5;" x1="8" x2="170" y1="50" y2="50"/><!--MD5=[e44685246c31562e20754c567d1af17f]
class ExpressionEvaluator--><rect codeLine="19" fill="#FEFECE" filter="url(#ffo56xuw69806)" height="48" id="ExpressionEvaluator" style="stroke:#A80036;stroke-width:1.5;" width="171" x="206.5" y="10"/><ellipse cx="221.5" cy="26" fill="#ADD1B2" rx="11" ry="11" style="stroke:#A80036;stroke-width:1.0;"/><path d="M224.4688,31.6406 Q223.8906,31.9375 223.25,32.0781 Q222.6094,32.2344 221.9063,32.2344 Q219.4063,32.2344 218.0781,30.5938 Q216.7656,28.9375 216.7656,25.8125 Q216.7656,22.6875 218.0781,21.0313 Q219.4063,19.375 221.9063,19.375 Q222.6094,19.375 223.25,19.5313 Q223.9063,19.6875 224.4688,19.9844 L224.4688,22.7031 Q223.8438,22.125 223.25,21.8594 Q222.6563,21.5781 222.0313,21.5781 Q220.6875,21.5781 220,22.6563 Q219.3125,23.7188 219.3125,25.8125 Q219.3125,27.9063 220,28.9844 Q220.6875,30.0469 222.0313,30.0469 Q222.6563,30.0469 223.25,29.7813 Q223.8438,29.5 224.4688,28.9219 L224.4688,31.6406 Z " fill="#000000"/><text fill="#000000" font-family="sans-serif" font-size="12" lengthAdjust="spacing" textLength="127" x="235.5" y="30.1543">ExpressionEvaluator</text><rect fill="#FFFFFF" height="15.9688" style="stroke:#000000;stroke-width:1.0;stroke-dasharray:2.0,2.0;" width="10" x="370.5" y="7"/><text fill="#000000" font-family="sans-serif" font-size="12" font-style="italic" lengthAdjust="spacing" textLength="8" x="371.5" y="19.1387">E</text><line style="stroke:#A80036;stroke-width:1.5;" x1="207.5" x2="376.5" y1="42" y2="42"/><line style="stroke:#A80036;stroke-width:1.5;" x1="207.5" x2="376.5" y1="50" y2="50"/><!--MD5=[fe5133f049478c49ed15fdae3a595966]
class ArithmeticEvaluator--><rect codeLine="23" fill="#FEFECE" filter="url(#ffo56xuw69806)" height="48" id="ArithmeticEvaluator" style="stroke:#A80036;stroke-width:1.5;" width="166" x="413" y="10"/><ellipse cx="428" cy="26" fill="#ADD1B2" rx="11" ry="11" style="stroke:#A80036;stroke-width:1.0;"/><path d="M430.9688,31.6406 Q430.3906,31.9375 429.75,32.0781 Q429.1094,32.2344 428.4063,32.2344 Q425.9063,32.2344 424.5781,30.5938 Q423.2656,28.9375 423.2656,25.8125 Q423.2656,22.6875 424.5781,21.0313 Q425.9063,19.375 428.4063,19.375 Q429.1094,19.375 429.75,19.5313 Q430.4063,19.6875 430.9688,19.9844 L430.9688,22.7031 Q430.3438,22.125 429.75,21.8594 Q429.1563,21.5781 428.5313,21.5781 Q427.1875,21.5781 426.5,22.6563 Q425.8125,23.7188 425.8125,25.8125 Q425.8125,27.9063 426.5,28.9844 Q427.1875,30.0469 428.5313,30.0469 Q429.1563,30.0469 429.75,29.7813 Q430.3438,29.5 430.9688,28.9219 L430.9688,31.6406 Z " fill="#000000"/><text fill="#000000" font-family="sans-serif" font-size="12" lengthAdjust="spacing" textLength="122" x="442" y="30.1543">ArithmeticEvaluator</text><rect fill="#FFFFFF" height="15.9688" style="stroke:#000000;stroke-width:1.0;stroke-dasharray:2.0,2.0;" width="10" x="572" y="7"/><text fill="#000000" font-family="sans-serif" font-size="12" font-style="italic" lengthAdjust="spacing" textLength="8" x="573" y="19.1387">E</text><line style="stroke:#A80036;stroke-width:1.5;" x1="414" x2="578" y1="42" y2="42"/><line style="stroke:#A80036;stroke-width:1.5;" x1="414" x2="578" y1="50" y2="50"/><!--MD5=[2b6520b25cd3b9b1d4b1a6eb89e23213]
link AbstractEvaluator to TermVisitor--><path codeLine="13" d="M292,247.08 C292,265.56 292,285.9 292,303.37 " fill="none" id="AbstractEvaluator-to-TermVisitor" style="stroke:#A80036;stroke-width:1.0;"/><polygon fill="none" points="299,303.62,292,323.62,285,303.62,299,303.62" style="stroke:#A80036;stroke-width:1.0;"/><text fill="#000000" font-family="sans-serif" font-size="13" lengthAdjust="spacing" textLength="34" x="293" y="290.0669">binds</text><text fill="#000000" font-family="sans-serif" font-size="13" font-style="italic" lengthAdjust="spacing" textLength="8" x="331" y="290.0669">T</text><text fill="#000000" font-family="sans-serif" font-size="13" lengthAdjust="spacing" textLength="91" x="343" y="290.0669">to subtypes of</text><text fill="#000000" font-family="sans-serif" font-size="13" font-style="italic" lengthAdjust="spacing" textLength="34" x="438" y="290.0669">Term</text><!--MD5=[c14771101ae32720663c0636d6620432]
reverse link ExpressionReducer to AbstractEvaluator--><path codeLine="17" d="M135.51,70.51 C160.42,89.53 191.66,113.38 219.66,134.76 " fill="none" id="ExpressionReducer-backto-AbstractEvaluator" style="stroke:#A80036;stroke-width:1.0;"/><polygon fill="none" points="131.04,75.91,119.39,58.21,139.54,64.78,131.04,75.91" style="stroke:#A80036;stroke-width:1.0;"/><text fill="#000000" font-family="sans-serif" font-size="13" lengthAdjust="spacing" textLength="34" x="180" y="101.0669">binds</text><text fill="#000000" font-family="sans-serif" font-size="13" font-style="italic" lengthAdjust="spacing" textLength="8" x="218" y="101.0669">T</text><text fill="#000000" font-family="sans-serif" font-size="13" lengthAdjust="spacing" textLength="13" x="230" y="101.0669">to</text><text fill="#000000" font-family="sans-serif" font-size="13" font-style="italic" lengthAdjust="spacing" textLength="34" x="247" y="101.0669">Term</text><!--MD5=[ae8b0f3ef34662b7828c73f570004744]
reverse link ExpressionEvaluator to AbstractEvaluator--><path codeLine="21" d="M292,78.44 C292,95.91 292,116.26 292,134.76 " fill="none" id="ExpressionEvaluator-backto-AbstractEvaluator" style="stroke:#A80036;stroke-width:1.0;"/><polygon fill="none" points="285,78.21,292,58.21,299,78.21,285,78.21" style="stroke:#A80036;stroke-width:1.0;"/><text fill="#000000" font-family="sans-serif" font-size="13" lengthAdjust="spacing" textLength="34" x="293" y="101.0669">binds</text><text fill="#000000" font-family="sans-serif" font-size="13" font-style="italic" lengthAdjust="spacing" textLength="8" x="331" y="101.0669">T</text><text fill="#000000" font-family="sans-serif" font-size="13" lengthAdjust="spacing" textLength="13" x="343" y="101.0669">to</text><text fill="#000000" font-family="sans-serif" font-size="13" font-style="italic" lengthAdjust="spacing" textLength="34" x="360" y="101.0669">Term</text><!--MD5=[295d17f94c74154d4987421cbe63fbad]
reverse link ArithmeticEvaluator to AbstractEvaluator--><path codeLine="25" d="M449.26,70.51 C424.23,89.53 392.84,113.38 364.7,134.76 " fill="none" id="ArithmeticEvaluator-backto-AbstractEvaluator" style="stroke:#A80036;stroke-width:1.0;"/><polygon fill="none" points="445.3,64.73,465.46,58.21,453.77,75.88,445.3,64.73" style="stroke:#A80036;stroke-width:1.0;"/><text fill="#000000" font-family="sans-serif" font-size="13" lengthAdjust="spacing" textLength="34" x="425" y="101.0669">binds</text><text fill="#000000" font-family="sans-serif" font-size="13" font-style="italic" lengthAdjust="spacing" textLength="8" x="463" y="101.0669">T</text><text fill="#000000" font-family="sans-serif" font-size="13" lengthAdjust="spacing" textLength="13" x="475" y="101.0669">to</text><text fill="#000000" font-family="sans-serif" font-size="13" font-style="italic" lengthAdjust="spacing" textLength="34" x="492" y="101.0669">Term</text><!--MD5=[5675e63b0e4c0d984945f27b9066d9b5]
@startuml

interface TermVisitor<T>

abstract class AbstractEvaluator<E : ExecutionContext, T : Term> {
  # request: Solve.Request<E>
  # index: Int
  - -
  # unevaluable(Struct): T
  # staticCheck(Term)
  # dynamicCheck(Term, Term)
}

AbstractEvaluator - -|> TermVisitor : binds //T// to subtypes of //Term//

class  ExpressionReducer<E> 

ExpressionReducer <|- - AbstractEvaluator : binds //T// to //Term//

class  ExpressionEvaluator<E>

ExpressionEvaluator <|- - AbstractEvaluator : binds //T// to //Term//

class  ArithmeticEvaluator<E>

ArithmeticEvaluator <|- - AbstractEvaluator : binds //T// to //Term//

@enduml

PlantUML version 1.2021.00(Sun Jan 10 11:25:05 CET 2021)
(GPL source distribution)
Java Runtime: OpenJDK Runtime Environment
JVM: OpenJDK 64-Bit Server VM
Default Encoding: UTF-8
Language: it
Country: IT
--></g></svg>