<?xml version="1.0" encoding="UTF-8" standalone="no"?><svg xmlns="http://www.w3.org/2000/svg" xmlns:xlink="http://www.w3.org/1999/xlink" contentScriptType="application/ecmascript" contentStyleType="text/css" height="92px" preserveAspectRatio="none" style="width:594px;height:92px;" version="1.1" viewBox="0 0 594 92" width="594px" zoomAndPan="magnify"><defs/><g><!--MD5=[eb0f4986160aea42d9ece72995cb24c7]
class Struct--><rect fill="#FEFECE" height="48" id="Struct" style="stroke: #A80036; stroke-width: 1.5;" width="70" x="6" y="21"/><ellipse cx="21" cy="37" fill="#B4A7E5" rx="11" ry="11" style="stroke: #A80036; stroke-width: 1.0;"/><path d="M16.9219,32.7656 L16.9219,30.6094 L24.3125,30.6094 L24.3125,32.7656 L21.8438,32.7656 L21.8438,40.8438 L24.3125,40.8438 L24.3125,43 L16.9219,43 L16.9219,40.8438 L19.3906,40.8438 L19.3906,32.7656 L16.9219,32.7656 Z "/><text fill="#000000" font-family="sans-serif" font-size="12" font-style="italic" lengthAdjust="spacingAndGlyphs" textLength="38" x="35" y="41.1543">Struct</text><line style="stroke: #A80036; stroke-width: 1.5;" x1="7" x2="75" y1="53" y2="53"/><line style="stroke: #A80036; stroke-width: 1.5;" x1="7" x2="75" y1="61" y2="61"/><!--MD5=[3d9a9201f4e3c24a3b32edb25b35db95]
class Clause--><rect fill="#FEFECE" height="48" id="Clause" style="stroke: #A80036; stroke-width: 1.5;" width="73" x="136" y="21"/><ellipse cx="151" cy="37" fill="#B4A7E5" rx="11" ry="11" style="stroke: #A80036; stroke-width: 1.0;"/><path d="M146.9219,32.7656 L146.9219,30.6094 L154.3125,30.6094 L154.3125,32.7656 L151.8438,32.7656 L151.8438,40.8438 L154.3125,40.8438 L154.3125,43 L146.9219,43 L146.9219,40.8438 L149.3906,40.8438 L149.3906,32.7656 L146.9219,32.7656 Z "/><text fill="#000000" font-family="sans-serif" font-size="12" font-style="italic" lengthAdjust="spacingAndGlyphs" textLength="41" x="165" y="41.1543">Clause</text><line style="stroke: #A80036; stroke-width: 1.5;" x1="137" x2="208" y1="53" y2="53"/><line style="stroke: #A80036; stroke-width: 1.5;" x1="137" x2="208" y1="61" y2="61"/><!--MD5=[4cf87534c235239d37db4adfd136fff4]
class Rule--><rect fill="#FEFECE" height="48" id="Rule" style="stroke: #A80036; stroke-width: 1.5;" width="59" x="269" y="21"/><ellipse cx="284" cy="37" fill="#B4A7E5" rx="11" ry="11" style="stroke: #A80036; stroke-width: 1.0;"/><path d="M279.9219,32.7656 L279.9219,30.6094 L287.3125,30.6094 L287.3125,32.7656 L284.8438,32.7656 L284.8438,40.8438 L287.3125,40.8438 L287.3125,43 L279.9219,43 L279.9219,40.8438 L282.3906,40.8438 L282.3906,32.7656 L279.9219,32.7656 Z "/><text fill="#000000" font-family="sans-serif" font-size="12" font-style="italic" lengthAdjust="spacingAndGlyphs" textLength="27" x="298" y="41.1543">Rule</text><line style="stroke: #A80036; stroke-width: 1.5;" x1="270" x2="327" y1="53" y2="53"/><line style="stroke: #A80036; stroke-width: 1.5;" x1="270" x2="327" y1="61" y2="61"/><!--MD5=[8b7b02036613c263e1d0ae582a50c9f5]
class Fact--><rect fill="#FEFECE" height="73.6094" id="Fact" style="stroke: #A80036; stroke-width: 1.5;" width="195" x="388" y="8"/><ellipse cx="467.75" cy="24" fill="#B4A7E5" rx="11" ry="11" style="stroke: #A80036; stroke-width: 1.0;"/><path d="M463.6719,19.7656 L463.6719,17.6094 L471.0625,17.6094 L471.0625,19.7656 L468.5938,19.7656 L468.5938,27.8438 L471.0625,27.8438 L471.0625,30 L463.6719,30 L463.6719,27.8438 L466.1406,27.8438 L466.1406,19.7656 L463.6719,19.7656 Z "/><text fill="#000000" font-family="sans-serif" font-size="12" font-style="italic" lengthAdjust="spacingAndGlyphs" textLength="27" x="488.25" y="28.1543">Fact</text><line style="stroke: #A80036; stroke-width: 1.5;" x1="389" x2="582" y1="40" y2="40"/><line style="stroke: #A80036; stroke-width: 1.5;" x1="389" x2="582" y1="48" y2="48"/><ellipse cx="399" cy="59" fill="#84BE84" rx="3" ry="3" style="stroke: #038048; stroke-width: 1.0;"/><text fill="#000000" font-family="sans-serif" font-size="11" lengthAdjust="spacingAndGlyphs" textLength="65" x="408" y="62.2104">body: Term</text><text fill="#000000" font-family="sans-serif" font-size="11" font-weight="bold" lengthAdjust="spacingAndGlyphs" textLength="100" x="477" y="62.2104">= Truth.of(true)</text><ellipse cx="399" cy="71.8047" fill="#84BE84" rx="3" ry="3" style="stroke: #038048; stroke-width: 1.0;"/><text fill="#000000" font-family="sans-serif" font-size="11" lengthAdjust="spacingAndGlyphs" text-decoration="underline" textLength="120" x="408" y="75.0151">of(head: Struct): Fact</text><!--MD5=[b7702a11f4d6cfaf0543be0d76476975]
reverse link Struct to Clause--><path d="M96.23,45 C109.62,45 123.64,45 135.89,45 " fill="none" id="Struct&lt;-Clause" style="stroke: #A80036; stroke-width: 1.0;"/><polygon fill="none" points="96.02,52,76.02,45,96.02,38,96.02,52" style="stroke: #A80036; stroke-width: 1.0;"/><!--MD5=[f3bf6ee72f5e1a12bb542db493abdab0]
reverse link Clause to Rule--><path d="M229.09,45 C242.75,45 256.83,45 268.64,45 " fill="none" id="Clause&lt;-Rule" style="stroke: #A80036; stroke-width: 1.0;"/><polygon fill="none" points="229.03,52,209.03,45,229.03,38,229.03,52" style="stroke: #A80036; stroke-width: 1.0;"/><!--MD5=[20e1b802e026257bc052a955cce88ea7]
reverse link Rule to Fact--><path d="M348.3,45 C360.51,45 374.04,45 387.7,45 " fill="none" id="Rule&lt;-Fact" style="stroke: #A80036; stroke-width: 1.0;"/><polygon fill="none" points="348,52,328,45,348,38,348,52" style="stroke: #A80036; stroke-width: 1.0;"/><!--MD5=[a30231569092648ca13c27e2fb5e68fd]
@startuml
left to right direction
skinparam shadowing false

interface Struct

interface Clause

interface Rule

interface Fact {
  + body: Term **= Truth.of(true)**
  + {static} of(head: Struct): Fact
}

Struct <|- - Clause
Clause <|- - Rule
Rule <|- - Fact
@enduml

PlantUML version 1.2020.02(Sun Mar 01 11:22:07 CET 2020)
(GPL source distribution)
Java Runtime: OpenJDK Runtime Environment
JVM: OpenJDK 64-Bit Server VM
Java Version: 11.0.10+9
Operating System: Linux
Default Encoding: UTF-8
Language: it
Country: IT
--></g></svg>