<?xml version="1.0" encoding="UTF-8" standalone="no"?><svg xmlns="http://www.w3.org/2000/svg" xmlns:xlink="http://www.w3.org/1999/xlink" contentScriptType="application/ecmascript" contentStyleType="text/css" height="544px" preserveAspectRatio="none" style="width:496px;height:544px;" version="1.1" viewBox="0 0 496 544" width="496px" zoomAndPan="magnify"><defs><filter height="300%" id="f1qenksubrdjrf" width="300%" x="-1" y="-1"><feGaussianBlur result="blurOut" stdDeviation="2.0"/><feColorMatrix in="blurOut" result="blurOut2" type="matrix" values="0 0 0 0 0 0 0 0 0 0 0 0 0 0 0 0 0 0 .4 0"/><feOffset dx="4.0" dy="4.0" in="blurOut2" result="blurOut3"/><feBlend in="SourceGraphic" in2="blurOut3" mode="normal"/></filter></defs><g><!--MD5=[9f1812e6113878599cb0680a6172a5b3]
class FlagStore--><rect codeLine="1" fill="#FEFECE" filter="url(#f1qenksubrdjrf)" height="163.2422" id="FlagStore" style="stroke:#A80036;stroke-width:1.5;" width="233" x="49.5" y="7"/><ellipse cx="131.75" cy="23" fill="#ADD1B2" rx="11" ry="11" style="stroke:#A80036;stroke-width:1.0;"/><path d="M134.7188,28.6406 Q134.1406,28.9375 133.5,29.0781 Q132.8594,29.2344 132.1563,29.2344 Q129.6563,29.2344 128.3281,27.5938 Q127.0156,25.9375 127.0156,22.8125 Q127.0156,19.6875 128.3281,18.0313 Q129.6563,16.375 132.1563,16.375 Q132.8594,16.375 133.5,16.5313 Q134.1563,16.6875 134.7188,16.9844 L134.7188,19.7031 Q134.0938,19.125 133.5,18.8594 Q132.9063,18.5781 132.2813,18.5781 Q130.9375,18.5781 130.25,19.6563 Q129.5625,20.7188 129.5625,22.8125 Q129.5625,24.9063 130.25,25.9844 Q130.9375,27.0469 132.2813,27.0469 Q132.9063,27.0469 133.5,26.7813 Q134.0938,26.5 134.7188,25.9219 L134.7188,28.6406 Z " fill="#000000"/><text fill="#000000" font-family="sans-serif" font-size="12" lengthAdjust="spacing" textLength="60" x="152.25" y="27.1543">FlagStore</text><line style="stroke:#A80036;stroke-width:1.5;" x1="50.5" x2="281.5" y1="39" y2="39"/><line style="stroke:#A80036;stroke-width:1.5;" x1="50.5" x2="281.5" y1="47" y2="47"/><ellipse cx="60.5" cy="58" fill="#84BE84" rx="3" ry="3" style="stroke:#038048;stroke-width:1.0;"/><text fill="#000000" font-family="sans-serif" font-size="11" lengthAdjust="spacing" textLength="136" x="69.5" y="61.2104">get(NotableFlag): Term?</text><ellipse cx="60.5" cy="70.8047" fill="#84BE84" rx="3" ry="3" style="stroke:#038048;stroke-width:1.0;"/><text fill="#000000" font-family="sans-serif" font-size="11" lengthAdjust="spacing" textLength="154" x="69.5" y="74.0151">set(NotableFlag): FlagStore</text><ellipse cx="60.5" cy="83.6094" fill="#84BE84" rx="3" ry="3" style="stroke:#038048;stroke-width:1.0;"/><text fill="#000000" font-family="sans-serif" font-size="11" lengthAdjust="spacing" textLength="192" x="69.5" y="86.8198">set(NotableFlag, Term): FlagStore</text><ellipse cx="60.5" cy="96.4141" fill="#84BE84" rx="3" ry="3" style="stroke:#038048;stroke-width:1.0;"/><text fill="#000000" font-family="sans-serif" font-size="11" lengthAdjust="spacing" textLength="160" x="69.5" y="99.6245">set(String, Term): FlagStore</text><ellipse cx="60.5" cy="109.2188" fill="#84BE84" rx="3" ry="3" style="stroke:#038048;stroke-width:1.0;"/><text fill="#000000" font-family="sans-serif" font-size="11" lengthAdjust="spacing" textLength="166" x="69.5" y="112.4292">plus(String, Term): FlagStore</text><ellipse cx="60.5" cy="122.0234" fill="#84BE84" rx="3" ry="3" style="stroke:#038048;stroke-width:1.0;"/><text fill="#000000" font-family="sans-serif" font-size="11" lengthAdjust="spacing" textLength="206" x="69.5" y="125.2339">plus(Pair&lt;String, Term&gt;): FlagStore</text><ellipse cx="60.5" cy="134.8281" fill="#84BE84" rx="3" ry="3" style="stroke:#038048;stroke-width:1.0;"/><text fill="#000000" font-family="sans-serif" font-size="11" lengthAdjust="spacing" textLength="207" x="69.5" y="138.0386">plus(Map&lt;String, Term&gt;): FlagStore</text><ellipse cx="60.5" cy="147.6328" fill="#84BE84" rx="3" ry="3" style="stroke:#038048;stroke-width:1.0;"/><text fill="#000000" font-family="sans-serif" font-size="11" lengthAdjust="spacing" textLength="139" x="69.5" y="150.8433">minus(String): FlagStore</text><ellipse cx="60.5" cy="160.4375" fill="#84BE84" rx="3" ry="3" style="stroke:#038048;stroke-width:1.0;"/><text fill="#000000" font-family="sans-serif" font-size="11" lengthAdjust="spacing" textLength="200" x="69.5" y="163.6479">minus(Iterable&lt;String&gt;): FlagStore</text><!--MD5=[f031d4e33d5f3458ef7f3b0d85782377]
class Flag--><rect codeLine="13" fill="#FEFECE" filter="url(#f1qenksubrdjrf)" height="66.7422" id="Flag" style="stroke:#A80036;stroke-width:1.5;" width="184" x="7" y="464"/><ellipse cx="61.75" cy="482.9688" fill="#3495EB" rx="11" ry="11" style="stroke:#A80036;stroke-width:1.0;"/><path d="M62.5938,489.7188 L60.1406,489.7188 L60.1406,479.4688 L57,479.4688 L57,477.3281 L65.7344,477.3281 L65.7344,479.4688 L62.5938,479.4688 L62.5938,489.7188 Z " fill="#000000"/><text fill="#000000" font-family="sans-serif" font-size="12" font-style="italic" lengthAdjust="spacing" textLength="70" x="80.25" y="480.1387">«typealias»</text><text fill="#000000" font-family="sans-serif" font-size="12" font-style="italic" lengthAdjust="spacing" textLength="26" x="102.25" y="494.1074">Flag</text><line style="stroke:#A80036;stroke-width:1.5;" x1="8" x2="190" y1="501.9375" y2="501.9375"/><text fill="#000000" font-family="sans-serif" font-size="11" font-weight="bold" lengthAdjust="spacing" textLength="57" x="13" y="516.1479">alias for:</text><text fill="#000000" font-family="sans-serif" font-size="11" lengthAdjust="spacing" textLength="31" x="74" y="516.1479">Pair&lt;</text><text fill="#000000" font-family="sans-serif" font-size="11" font-style="italic" lengthAdjust="spacing" textLength="33" x="105" y="516.1479">String</text><text fill="#000000" font-family="sans-serif" font-size="11" lengthAdjust="spacing" textLength="4" x="138" y="516.1479">,</text><text fill="#000000" font-family="sans-serif" font-size="11" font-style="italic" lengthAdjust="spacing" textLength="30" x="146" y="516.1479">Term</text><text fill="#000000" font-family="sans-serif" font-size="11" lengthAdjust="spacing" textLength="9" x="176" y="516.1479">&gt;</text><line style="stroke:#A80036;stroke-width:1.5;" x1="8" x2="190" y1="522.7422" y2="522.7422"/><!--MD5=[4dfc6a72b8dd60daa1b635d583ff79da]
class Map--><rect codeLine="17" fill="#FEFECE" filter="url(#f1qenksubrdjrf)" height="48" id="Map" style="stroke:#A80036;stroke-width:1.5;" width="86" x="123" y="300.5"/><ellipse cx="138" cy="316.5" fill="#B4A7E5" rx="11" ry="11" style="stroke:#A80036;stroke-width:1.0;"/><path d="M133.9219,312.2656 L133.9219,310.1094 L141.3125,310.1094 L141.3125,312.2656 L138.8438,312.2656 L138.8438,320.3438 L141.3125,320.3438 L141.3125,322.5 L133.9219,322.5 L133.9219,320.3438 L136.3906,320.3438 L136.3906,312.2656 L133.9219,312.2656 Z " fill="#000000"/><text fill="#000000" font-family="sans-serif" font-size="12" font-style="italic" lengthAdjust="spacing" textLength="26" x="152" y="320.6543">Map</text><rect fill="#FFFFFF" height="15.9688" style="stroke:#000000;stroke-width:1.0;stroke-dasharray:2.0,2.0;" width="26" x="186" y="297.5"/><text fill="#000000" font-family="sans-serif" font-size="12" font-style="italic" lengthAdjust="spacing" textLength="24" x="187" y="309.6387">K, V</text><line style="stroke:#A80036;stroke-width:1.5;" x1="124" x2="208" y1="332.5" y2="332.5"/><line style="stroke:#A80036;stroke-width:1.5;" x1="124" x2="208" y1="340.5" y2="340.5"/><!--MD5=[8a83ee8581b5c4e5f8754dad88dc09f0]
class NotableFlag--><rect codeLine="21" fill="#FEFECE" filter="url(#f1qenksubrdjrf)" height="124.8281" id="NotableFlag" style="stroke:#A80036;stroke-width:1.5;" width="238" x="244" y="262"/><ellipse cx="321.25" cy="278" fill="#B4A7E5" rx="11" ry="11" style="stroke:#A80036;stroke-width:1.0;"/><path d="M317.1719,273.7656 L317.1719,271.6094 L324.5625,271.6094 L324.5625,273.7656 L322.0938,273.7656 L322.0938,281.8438 L324.5625,281.8438 L324.5625,284 L317.1719,284 L317.1719,281.8438 L319.6406,281.8438 L319.6406,273.7656 L317.1719,273.7656 Z " fill="#000000"/><text fill="#000000" font-family="sans-serif" font-size="12" font-style="italic" lengthAdjust="spacing" textLength="75" x="341.75" y="282.1543">NotableFlag</text><line style="stroke:#A80036;stroke-width:1.5;" x1="245" x2="481" y1="294" y2="294"/><ellipse cx="255" cy="305" fill="none" rx="3" ry="3" style="stroke:#038048;stroke-width:1.0;"/><text fill="#000000" font-family="sans-serif" font-size="11" lengthAdjust="spacing" textLength="74" x="264" y="308.2104">name: String</text><ellipse cx="255" cy="317.8047" fill="none" rx="3" ry="3" style="stroke:#038048;stroke-width:1.0;"/><text fill="#000000" font-family="sans-serif" font-size="11" lengthAdjust="spacing" textLength="108" x="264" y="321.0151">defaultValue: Term</text><ellipse cx="255" cy="330.6094" fill="none" rx="3" ry="3" style="stroke:#038048;stroke-width:1.0;"/><text fill="#000000" font-family="sans-serif" font-size="11" lengthAdjust="spacing" textLength="109" x="264" y="333.8198">isEditable: Boolean</text><ellipse cx="255" cy="343.4141" fill="none" rx="3" ry="3" style="stroke:#038048;stroke-width:1.0;"/><text fill="#000000" font-family="sans-serif" font-size="11" lengthAdjust="spacing" textLength="212" x="264" y="346.6245">admissibleValues: Sequence&lt;Term&gt;</text><line style="stroke:#A80036;stroke-width:1.5;" x1="245" x2="481" y1="353.2188" y2="353.2188"/><ellipse cx="255" cy="364.2188" fill="#84BE84" rx="3" ry="3" style="stroke:#038048;stroke-width:1.0;"/><text fill="#000000" font-family="sans-serif" font-size="11" lengthAdjust="spacing" textLength="195" x="264" y="367.4292">isAdmissibleValue(Term): Boolean</text><ellipse cx="255" cy="377.0234" fill="#84BE84" rx="3" ry="3" style="stroke:#038048;stroke-width:1.0;"/><text fill="#000000" font-family="sans-serif" font-size="11" lengthAdjust="spacing" textLength="72" x="264" y="380.2339">toPair(): Flag</text><!--MD5=[b56f74591b645416f244600f6e3fd1ad]
link FlagStore to Map--><path codeLine="19" d="M166,170.03 C166,206.94 166,249.24 166,280.07 " fill="none" id="FlagStore-to-Map" style="stroke:#A80036;stroke-width:1.0;"/><polygon fill="none" points="173,280.25,166,300.25,159,280.25,173,280.25" style="stroke:#A80036;stroke-width:1.0;"/><text fill="#000000" font-family="sans-serif" font-size="13" lengthAdjust="spacing" textLength="34" x="167" y="213.0669">binds</text><text fill="#000000" font-family="sans-serif" font-size="13" font-style="italic" lengthAdjust="spacing" textLength="9" x="205" y="213.0669">K</text><text fill="#000000" font-family="sans-serif" font-size="13" lengthAdjust="spacing" textLength="13" x="218" y="213.0669">to</text><text fill="#000000" font-family="sans-serif" font-size="13" font-style="italic" lengthAdjust="spacing" textLength="37" x="235" y="213.0669">String</text><text fill="#000000" font-family="sans-serif" font-size="13" lengthAdjust="spacing" textLength="24" x="173.5" y="228.1997">and</text><text fill="#000000" font-family="sans-serif" font-size="13" font-style="italic" lengthAdjust="spacing" textLength="9" x="201.5" y="228.1997">V</text><text fill="#000000" font-family="sans-serif" font-size="13" lengthAdjust="spacing" textLength="13" x="214.5" y="228.1997">to</text><text fill="#000000" font-family="sans-serif" font-size="13" font-style="italic" lengthAdjust="spacing" textLength="34" x="231.5" y="228.1997">Term</text><!--MD5=[e32e1120ffca2c55663f9ff64ae096b0]
reverse link FlagStore to NotableFlag--><path codeLine="30" d="M263.26,179.9 C269.42,186.55 275.4,193.29 281,200 C297,219.16 312.65,241.53 325.91,261.93 " fill="none" id="FlagStore-backto-NotableFlag" style="stroke:#A80036;stroke-width:1.0;stroke-dasharray:7.0,7.0;"/><polygon fill="#FFFFFF" points="254.12,170.22,255.3358,177.3279,262.3645,178.9394,261.1487,171.8315,254.12,170.22" style="stroke:#A80036;stroke-width:1.0;"/><text fill="#000000" font-family="sans-serif" font-size="13" lengthAdjust="spacing" textLength="8" x="253.6119" y="190.2282">1</text><text fill="#000000" font-family="sans-serif" font-size="13" lengthAdjust="spacing" textLength="10" x="311.0433" y="250.9127">N</text><!--MD5=[ba05db74bd2cd078ebfd46663da3f3a8]
reverse link FlagStore to Flag--><path codeLine="31" d="M127.17,182.35 C118.21,207.74 109.89,235.56 105,262 C91.86,333.08 94.06,418.33 96.64,463.93 " fill="none" id="FlagStore-backto-Flag" style="stroke:#A80036;stroke-width:1.0;stroke-dasharray:7.0,7.0;"/><polygon fill="#FFFFFF" points="131.6,170.1,125.7988,174.3832,127.5213,181.3856,133.3225,177.1023,131.6,170.1" style="stroke:#A80036;stroke-width:1.0;"/><text fill="#000000" font-family="sans-serif" font-size="13" lengthAdjust="spacing" textLength="8" x="120.06" y="190.3758">1</text><text fill="#000000" font-family="sans-serif" font-size="13" lengthAdjust="spacing" textLength="10" x="85.191" y="452.9497">N</text><!--MD5=[25f2c63421b4050bdbe03ca313ca3024]
link NotableFlag to Flag--><path codeLine="33" d="M267.69,387.23 C229.38,412.05 186.6,439.76 153.71,461.07 " fill="none" id="NotableFlag-to-Flag" style="stroke:#A80036;stroke-width:1.0;stroke-dasharray:7.0,7.0;"/><polygon fill="#A80036" points="149.34,463.9,159.07,462.3745,153.5394,461.1861,154.7278,455.6555,149.34,463.9" style="stroke:#A80036;stroke-width:1.0;"/><text fill="#000000" font-family="sans-serif" font-size="13" lengthAdjust="spacing" textLength="47" x="216" y="430.0669">toPair()</text><!--MD5=[ae922676730f4a240a7bdc464166eb5d]
@startuml
class FlagStore {
    + get(NotableFlag): Term?
    + set(NotableFlag): FlagStore
    + set(NotableFlag, Term): FlagStore
    + set(String, Term): FlagStore
    + plus(String, Term): FlagStore
    + plus(Pair<String, Term>): FlagStore
    + plus(Map<String, Term>): FlagStore
    + minus(String): FlagStore
    + minus(Iterable<String>): FlagStore
}

interface Flag << (T,#3495eb) typealias >>  {
  **alias for:** Pair<//String//, //Term//>
}

interface Map<K, V>

FlagStore - -|> Map: binds //K// to //String//\nand //V// to //Term//

interface NotableFlag {
    + name: String
    + defaultValue: Term
    + isEditable: Boolean
    + admissibleValues: Sequence<Term>
    + isAdmissibleValue(Term): Boolean
    + toPair(): Flag
}

FlagStore "1" o.. "N" NotableFlag
FlagStore "1" o.. "N" Flag

NotableFlag ..> Flag: toPair()

@enduml

PlantUML version 1.2021.00(Sun Jan 10 11:25:05 CET 2021)
(MIT source distribution)
Java Runtime: OpenJDK Runtime Environment
JVM: OpenJDK 64-Bit Server VM
Default Encoding: UTF-8
Language: it
Country: IT
--></g></svg>