<?xml version="1.0" encoding="UTF-8" standalone="no"?>
<svg xmlns="http://www.w3.org/2000/svg" xmlns:xlink="http://www.w3.org/1999/xlink" contentScriptType="application/ecmascript" contentStyleType="text/css" height="369px" preserveAspectRatio="none" style="width:604px;height:369px;" version="1.1" viewBox="0 0 604 369" width="604px" zoomAndPan="magnify"><defs><filter height="300%" id="f1272tdfwba5s3" width="300%" x="-1" y="-1"><feGaussianBlur result="blurOut" stdDeviation="2.0"/><feColorMatrix in="blurOut" result="blurOut2" type="matrix" values="0 0 0 0 0 0 0 0 0 0 0 0 0 0 0 0 0 0 .4 0"/><feOffset dx="4.0" dy="4.0" in="blurOut2" result="blurOut3"/><feBlend in="SourceGraphic" in2="blurOut3" mode="normal"/></filter></defs><g><!--MD5=[9f1812e6113878599cb0680a6172a5b3]
class FlagStore--><rect codeLine="1" fill="#FEFECE" filter="url(#f1272tdfwba5s3)" height="163.2422" id="FlagStore" style="stroke:#A80036;stroke-width:1.5;" width="229" x="133" y="7"/><ellipse cx="214.25" cy="23" fill="#ADD1B2" rx="11" ry="11" style="stroke:#A80036;stroke-width:1.0;"/><path d="M216.5938,18.6719 C215.6563,18.2344 215.0625,18.0938 214.1875,18.0938 C211.5625,18.0938 209.5625,20.1719 209.5625,22.8906 L209.5625,24.0156 C209.5625,26.5938 211.6719,28.4844 214.5625,28.4844 C215.7813,28.4844 216.9375,28.1875 217.6875,27.6406 C218.2656,27.2344 218.5938,26.7813 218.5938,26.3906 C218.5938,25.9375 218.2031,25.5469 217.7344,25.5469 C217.5156,25.5469 217.3125,25.625 217.125,25.8125 C216.6719,26.2969 216.6719,26.2969 216.4844,26.3906 C216.0625,26.6563 215.375,26.7813 214.6094,26.7813 C212.5625,26.7813 211.2656,25.6875 211.2656,23.9844 L211.2656,22.8906 C211.2656,21.1094 212.5156,19.7969 214.25,19.7969 C214.8281,19.7969 215.4375,19.9531 215.9063,20.2031 C216.3906,20.4844 216.5625,20.7031 216.6563,21.1094 C216.7188,21.5156 216.75,21.6406 216.8906,21.7656 C217.0313,21.9063 217.2656,22.0156 217.4844,22.0156 C217.75,22.0156 218.0156,21.875 218.1875,21.6563 C218.2969,21.5 218.3281,21.3125 218.3281,20.8906 L218.3281,19.4688 C218.3281,19.0313 218.3125,18.9063 218.2188,18.75 C218.0625,18.4844 217.7813,18.3438 217.4844,18.3438 C217.1875,18.3438 216.9844,18.4375 216.7656,18.75 L216.5938,18.6719 Z " fill="#000000"/><text fill="#000000" font-family="sans-serif" font-size="12" lengthAdjust="spacing" textLength="58" x="234.75" y="27.1543">FlagStore</text><line style="stroke:#A80036;stroke-width:1.5;" x1="134" x2="361" y1="39" y2="39"/><line style="stroke:#A80036;stroke-width:1.5;" x1="134" x2="361" y1="47" y2="47"/><ellipse cx="144" cy="58" fill="#84BE84" rx="3" ry="3" style="stroke:#038048;stroke-width:1.0;"/><text fill="#000000" font-family="sans-serif" font-size="11" lengthAdjust="spacing" textLength="137" x="153" y="61.2104">get(NotableFlag): Term?</text><ellipse cx="144" cy="70.8047" fill="#84BE84" rx="3" ry="3" style="stroke:#038048;stroke-width:1.0;"/><text fill="#000000" font-family="sans-serif" font-size="11" lengthAdjust="spacing" textLength="154" x="153" y="74.0151">set(NotableFlag): FlagStore</text><ellipse cx="144" cy="83.6094" fill="#84BE84" rx="3" ry="3" style="stroke:#038048;stroke-width:1.0;"/><text fill="#000000" font-family="sans-serif" font-size="11" lengthAdjust="spacing" textLength="191" x="153" y="86.8198">set(NotableFlag, Term): FlagStore</text><ellipse cx="144" cy="96.4141" fill="#84BE84" rx="3" ry="3" style="stroke:#038048;stroke-width:1.0;"/><text fill="#000000" font-family="sans-serif" font-size="11" lengthAdjust="spacing" textLength="157" x="153" y="99.6245">set(String, Term): FlagStore</text><ellipse cx="144" cy="109.2188" fill="#84BE84" rx="3" ry="3" style="stroke:#038048;stroke-width:1.0;"/><text fill="#000000" font-family="sans-serif" font-size="11" lengthAdjust="spacing" textLength="162" x="153" y="112.4292">plus(String, Term): FlagStore</text><ellipse cx="144" cy="122.0234" fill="#84BE84" rx="3" ry="3" style="stroke:#038048;stroke-width:1.0;"/><text fill="#000000" font-family="sans-serif" font-size="11" lengthAdjust="spacing" textLength="200" x="153" y="125.2339">plus(Pair&lt;String, Term&gt;): FlagStore</text><ellipse cx="144" cy="134.8281" fill="#84BE84" rx="3" ry="3" style="stroke:#038048;stroke-width:1.0;"/><text fill="#000000" font-family="sans-serif" font-size="11" lengthAdjust="spacing" textLength="203" x="153" y="138.0386">plus(Map&lt;String, Term&gt;): FlagStore</text><ellipse cx="144" cy="147.6328" fill="#84BE84" rx="3" ry="3" style="stroke:#038048;stroke-width:1.0;"/><text fill="#000000" font-family="sans-serif" font-size="11" lengthAdjust="spacing" textLength="136" x="153" y="150.8433">minus(String): FlagStore</text><ellipse cx="144" cy="160.4375" fill="#84BE84" rx="3" ry="3" style="stroke:#038048;stroke-width:1.0;"/><text fill="#000000" font-family="sans-serif" font-size="11" lengthAdjust="spacing" textLength="198" x="153" y="163.6479">minus(Iterable&lt;String&gt;): FlagStore</text><!--MD5=[f031d4e33d5f3458ef7f3b0d85782377]
class Flag--><rect codeLine="13" fill="#FEFECE" filter="url(#f1272tdfwba5s3)" height="66.7422" id="Flag" style="stroke:#A80036;stroke-width:1.5;" width="185" x="7" y="260"/><ellipse cx="63.75" cy="278.9688" fill="#3495EB" rx="11" ry="11" style="stroke:#A80036;stroke-width:1.0;"/><path d="M64.1875,276.5 L66.0313,276.5 L66.0313,278.0938 C66.0313,278.4844 66.0625,278.6563 66.1563,278.7969 C66.3125,279.0469 66.5938,279.2031 66.8906,279.2031 C67.1563,279.2031 67.4063,279.0781 67.5781,278.8594 C67.7188,278.6875 67.7344,278.5625 67.7344,278.0938 L67.7344,274.8125 L58.9688,274.8125 L58.9688,278.0938 C58.9688,278.4844 59,278.6563 59.0781,278.7969 C59.2344,279.0625 59.5313,279.2031 59.8125,279.2031 C60.0938,279.2031 60.3438,279.0781 60.5156,278.8594 C60.625,278.6875 60.6563,278.5469 60.6563,278.0938 L60.6563,276.5 L62.4844,276.5 L62.4844,283.0156 L61.375,283.0156 C60.9375,283.0156 60.8125,283.0313 60.6563,283.1406 C60.4063,283.2969 60.25,283.5781 60.25,283.875 C60.25,284.125 60.3906,284.3906 60.6094,284.5469 C60.7656,284.6719 60.9844,284.7188 61.375,284.7188 L65.3125,284.7188 C65.6406,284.7188 65.9063,284.6719 66.0156,284.5938 C66.2813,284.4531 66.4219,284.1563 66.4219,283.875 C66.4219,283.5938 66.2969,283.3438 66.0625,283.1719 C65.9063,283.0469 65.7656,283.0156 65.3125,283.0156 L64.1875,283.0156 L64.1875,276.5 Z " fill="#000000"/><text fill="#000000" font-family="sans-serif" font-size="12" font-style="italic" lengthAdjust="spacing" textLength="67" x="82.25" y="276.1387">«typealias»</text><text fill="#000000" font-family="sans-serif" font-size="12" font-style="italic" lengthAdjust="spacing" textLength="25" x="103.25" y="290.1074">Flag</text><line style="stroke:#A80036;stroke-width:1.5;" x1="8" x2="191" y1="297.9375" y2="297.9375"/><text fill="#000000" font-family="sans-serif" font-size="11" font-weight="bold" lengthAdjust="spacing" textLength="61" x="13" y="312.1479">alias for:</text><text fill="#000000" font-family="sans-serif" font-size="11" lengthAdjust="spacing" textLength="29" x="78" y="312.1479">Pair&lt;</text><text fill="#000000" font-family="sans-serif" font-size="11" font-style="italic" lengthAdjust="spacing" textLength="33" x="107" y="312.1479">String</text><text fill="#000000" font-family="sans-serif" font-size="11" lengthAdjust="spacing" textLength="3" x="140" y="312.1479">,</text><text fill="#000000" font-family="sans-serif" font-size="11" font-style="italic" lengthAdjust="spacing" textLength="30" x="147" y="312.1479">Term</text><text fill="#000000" font-family="sans-serif" font-size="11" lengthAdjust="spacing" textLength="9" x="177" y="312.1479">&gt;</text><line style="stroke:#A80036;stroke-width:1.5;" x1="8" x2="191" y1="318.7422" y2="318.7422"/><!--MD5=[4dfc6a72b8dd60daa1b635d583ff79da]
class Map--><rect codeLine="17" fill="#FEFECE" filter="url(#f1272tdfwba5s3)" height="48" id="Map" style="stroke:#A80036;stroke-width:1.5;" width="85" x="505" y="64.5"/><ellipse cx="520" cy="80.5" fill="#B4A7E5" rx="11" ry="11" style="stroke:#A80036;stroke-width:1.0;"/><path d="M520.9531,77.2813 L522.6719,77.2813 C523.0625,77.2813 523.25,77.25 523.375,77.1719 C523.6406,77.0156 523.7813,76.7344 523.7813,76.4375 C523.7813,76.1719 523.6719,75.9063 523.4375,75.7344 C523.2656,75.625 523.125,75.5938 522.6719,75.5938 L517.5313,75.5938 C517.0938,75.5938 516.9688,75.6094 516.8125,75.7031 C516.5625,75.8594 516.4063,76.1563 516.4063,76.4375 C516.4063,76.7188 516.5469,76.9688 516.7656,77.1406 C516.9219,77.25 517.1094,77.2813 517.5313,77.2813 L519.25,77.2813 L519.25,83.7969 L517.5313,83.7969 C517.0938,83.7969 516.9688,83.8125 516.8125,83.9219 C516.5625,84.0781 516.4063,84.3594 516.4063,84.6563 C516.4063,84.9063 516.5469,85.1719 516.7656,85.3281 C516.9219,85.4531 517.125,85.5 517.5313,85.5 L522.6719,85.5 C523.4219,85.5 523.7813,85.2188 523.7813,84.6563 C523.7813,84.375 523.6719,84.125 523.4375,83.9531 C523.2656,83.8281 523.125,83.7969 522.6719,83.7969 L520.9531,83.7969 L520.9531,77.2813 Z " fill="#000000"/><text fill="#000000" font-family="sans-serif" font-size="12" font-style="italic" lengthAdjust="spacing" textLength="25" x="534" y="84.6543">Map</text><rect fill="#FFFFFF" height="15.9688" style="stroke:#000000;stroke-width:1.0;stroke-dasharray:2.0,2.0;" width="26" x="567" y="61.5"/><text fill="#000000" font-family="sans-serif" font-size="12" font-style="italic" lengthAdjust="spacing" textLength="24" x="568" y="73.6387">K, V</text><line style="stroke:#A80036;stroke-width:1.5;" x1="506" x2="589" y1="96.5" y2="96.5"/><line style="stroke:#A80036;stroke-width:1.5;" x1="506" x2="589" y1="104.5" y2="104.5"/><!--MD5=[8a83ee8581b5c4e5f8754dad88dc09f0]
class NotableFlag--><rect codeLine="21" fill="#FEFECE" filter="url(#f1272tdfwba5s3)" height="124.8281" id="NotableFlag" style="stroke:#A80036;stroke-width:1.5;" width="240" x="275.5" y="231"/><ellipse cx="355.75" cy="247" fill="#B4A7E5" rx="11" ry="11" style="stroke:#A80036;stroke-width:1.0;"/><path d="M356.7031,243.7813 L358.4219,243.7813 C358.8125,243.7813 359,243.75 359.125,243.6719 C359.3906,243.5156 359.5313,243.2344 359.5313,242.9375 C359.5313,242.6719 359.4219,242.4063 359.1875,242.2344 C359.0156,242.125 358.875,242.0938 358.4219,242.0938 L353.2813,242.0938 C352.8438,242.0938 352.7188,242.1094 352.5625,242.2031 C352.3125,242.3594 352.1563,242.6563 352.1563,242.9375 C352.1563,243.2188 352.2969,243.4688 352.5156,243.6406 C352.6719,243.75 352.8594,243.7813 353.2813,243.7813 L355,243.7813 L355,250.2969 L353.2813,250.2969 C352.8438,250.2969 352.7188,250.3125 352.5625,250.4219 C352.3125,250.5781 352.1563,250.8594 352.1563,251.1563 C352.1563,251.4063 352.2969,251.6719 352.5156,251.8281 C352.6719,251.9531 352.875,252 353.2813,252 L358.4219,252 C359.1719,252 359.5313,251.7188 359.5313,251.1563 C359.5313,250.875 359.4219,250.625 359.1875,250.4531 C359.0156,250.3281 358.875,250.2969 358.4219,250.2969 L356.7031,250.2969 L356.7031,243.7813 Z " fill="#000000"/><text fill="#000000" font-family="sans-serif" font-size="12" font-style="italic" lengthAdjust="spacing" textLength="71" x="376.25" y="251.1543">NotableFlag</text><line style="stroke:#A80036;stroke-width:1.5;" x1="276.5" x2="514.5" y1="263" y2="263"/><ellipse cx="286.5" cy="274" rx="3" ry="3" style="stroke:#038048;stroke-width:1.0;fill:none;"/><text fill="#000000" font-family="sans-serif" font-size="11" lengthAdjust="spacing" textLength="73" x="295.5" y="277.2104">name: String</text><ellipse cx="286.5" cy="286.8047" rx="3" ry="3" style="stroke:#038048;stroke-width:1.0;fill:none;"/><text fill="#000000" font-family="sans-serif" font-size="11" lengthAdjust="spacing" textLength="110" x="295.5" y="290.0151">defaultValue: Term</text><ellipse cx="286.5" cy="299.6094" rx="3" ry="3" style="stroke:#038048;stroke-width:1.0;fill:none;"/><text fill="#000000" font-family="sans-serif" font-size="11" lengthAdjust="spacing" textLength="109" x="295.5" y="302.8198">isEditable: Boolean</text><ellipse cx="286.5" cy="312.4141" rx="3" ry="3" style="stroke:#038048;stroke-width:1.0;fill:none;"/><text fill="#000000" font-family="sans-serif" font-size="11" lengthAdjust="spacing" textLength="214" x="295.5" y="315.6245">admissibleValues: Sequence&lt;Term&gt;</text><line style="stroke:#A80036;stroke-width:1.5;" x1="276.5" x2="514.5" y1="322.2188" y2="322.2188"/><ellipse cx="286.5" cy="333.2188" fill="#84BE84" rx="3" ry="3" style="stroke:#038048;stroke-width:1.0;"/><text fill="#000000" font-family="sans-serif" font-size="11" lengthAdjust="spacing" textLength="196" x="295.5" y="336.4292">isAdmissibleValue(Term): Boolean</text><ellipse cx="286.5" cy="346.0234" fill="#84BE84" rx="3" ry="3" style="stroke:#038048;stroke-width:1.0;"/><text fill="#000000" font-family="sans-serif" font-size="11" lengthAdjust="spacing" textLength="69" x="295.5" y="349.2339">toPair(): Flag</text><!--MD5=[b56f74591b645416f244600f6e3fd1ad]
link FlagStore to Map--><path codeLine="19" d="M362.201,88.5 C403.765,88.5 449.162,88.5 484.62,88.5 " fill="none" id="FlagStore-to-Map" style="stroke:#A80036;stroke-width:1.0;"/><polygon fill="none" points="484.765,81.5,504.765,88.5,484.765,95.5,484.765,81.5" style="stroke:#A80036;stroke-width:1.0;"/><text fill="#000000" font-family="sans-serif" font-size="13" lengthAdjust="spacing" textLength="34" x="380.5" y="66.5669">binds</text><text fill="#000000" font-family="sans-serif" font-size="13" font-style="italic" lengthAdjust="spacing" textLength="9" x="418.5" y="66.5669">K</text><text fill="#000000" font-family="sans-serif" font-size="13" lengthAdjust="spacing" textLength="13" x="431.5" y="66.5669">to</text><text fill="#000000" font-family="sans-serif" font-size="13" font-style="italic" lengthAdjust="spacing" textLength="38" x="448.5" y="66.5669">String</text><text fill="#000000" font-family="sans-serif" font-size="13" lengthAdjust="spacing" textLength="24" x="387.5" y="81.6997">and</text><text fill="#000000" font-family="sans-serif" font-size="13" font-style="italic" lengthAdjust="spacing" textLength="9" x="415.5" y="81.6997">V</text><text fill="#000000" font-family="sans-serif" font-size="13" lengthAdjust="spacing" textLength="13" x="428.5" y="81.6997">to</text><text fill="#000000" font-family="sans-serif" font-size="13" font-style="italic" lengthAdjust="spacing" textLength="34" x="445.5" y="81.6997">Term</text><!--MD5=[e32e1120ffca2c55663f9ff64ae096b0]
reverse link FlagStore to NotableFlag--><path codeLine="30" d="M313.884,180.554 C326.295,197.577 338.996,214.997 350.568,230.871 " fill="none" id="FlagStore-backto-NotableFlag" style="stroke:#A80036;stroke-width:1.0;stroke-dasharray:7.0,7.0;"/><polygon fill="#FFFFFF" points="306.206,170.023,306.5086,177.2277,313.2756,179.7194,312.9729,172.5147,306.206,170.023" style="stroke:#A80036;stroke-width:1.0;"/><text fill="#000000" font-family="sans-serif" font-size="13" lengthAdjust="spacing" textLength="8" x="303.2492" y="190.2917">1</text><text fill="#000000" font-family="sans-serif" font-size="13" lengthAdjust="spacing" textLength="9" x="335.8524" y="219.8468">N</text><!--MD5=[ba05db74bd2cd078ebfd46663da3f3a8]
reverse link FlagStore to Flag--><path codeLine="31" d="M180.939,180.796 C160.311,209.091 138.903,238.454 123.216,259.9708 " fill="none" id="FlagStore-backto-Flag" style="stroke:#A80036;stroke-width:1.0;stroke-dasharray:7.0,7.0;"/><polygon fill="#FFFFFF" points="188.794,170.023,182.0271,172.5147,181.7244,179.7194,188.4914,177.2277,188.794,170.023" style="stroke:#A80036;stroke-width:1.0;"/><text fill="#000000" font-family="sans-serif" font-size="13" lengthAdjust="spacing" textLength="8" x="175.0133" y="190.2917">1</text><text fill="#000000" font-family="sans-serif" font-size="13" lengthAdjust="spacing" textLength="9" x="117.9991" y="248.9988">N</text><!--MD5=[7496de681618692959c7763e4a55bfd4]
reverse link Flag to NotableFlag--><path codeLine="33" d="M197.614,293.5 C222.468,293.5 249.446,293.5 275.257,293.5 " fill="none" id="Flag-backto-NotableFlag" style="stroke:#A80036;stroke-width:1.0;stroke-dasharray:7.0,7.0;"/><polygon fill="#A80036" points="192.344,293.5,201.344,297.5,197.344,293.5,201.344,289.5,192.344,293.5" style="stroke:#A80036;stroke-width:1.0;"/><text fill="#000000" font-family="sans-serif" font-size="13" lengthAdjust="spacing" textLength="47" x="210.25" y="286.5669">toPair()</text><!--MD5=[81116e1619f351aaf32d29070274dff0]
@startuml
class FlagStore {
    + get(NotableFlag): Term?
    + set(NotableFlag): FlagStore
    + set(NotableFlag, Term): FlagStore
    + set(String, Term): FlagStore
    + plus(String, Term): FlagStore
    + plus(Pair<String, Term>): FlagStore
    + plus(Map<String, Term>): FlagStore
    + minus(String): FlagStore
    + minus(Iterable<String>): FlagStore
}

interface Flag << (T,#3495eb) typealias >>  {
  **alias for:** Pair<//String//, //Term//>
}

interface Map<K, V>

FlagStore -right-|> Map: binds //K// to //String//\nand //V// to //Term//

interface NotableFlag {
    + name: String
    + defaultValue: Term
    + isEditable: Boolean
    + admissibleValues: Sequence<Term>
    + isAdmissibleValue(Term): Boolean
    + toPair(): Flag
}

FlagStore "1" o.. "N" NotableFlag
FlagStore "1" o.. "N" Flag

NotableFlag .left.> Flag: toPair()
@enduml

PlantUML version 1.2021.5(Sun Apr 25 11:20:28 UTC 2021)
(GPL source distribution)
Java Runtime: Java(TM) SE Runtime Environment
JVM: Java HotSpot(TM) 64-Bit Server VM
Default Encoding: UTF-8
Language: en
Country: US
--></g></svg>