<?xml version="1.0" encoding="UTF-8" standalone="no"?>
<svg xmlns="http://www.w3.org/2000/svg" xmlns:xlink="http://www.w3.org/1999/xlink" contentScriptType="application/ecmascript" contentStyleType="text/css" height="540px" preserveAspectRatio="none" style="width:803px;height:540px;background:#FFFFFF;" version="1.1" viewBox="0 0 803 540" width="803px" zoomAndPan="magnify"><defs><filter height="300%" id="f11a5f68fgqn7j" width="300%" x="-1" y="-1"><feGaussianBlur result="blurOut" stdDeviation="2.0"/><feColorMatrix in="blurOut" result="blurOut2" type="matrix" values="0 0 0 0 0 0 0 0 0 0 0 0 0 0 0 0 0 0 .4 0"/><feOffset dx="4.0" dy="4.0" in="blurOut2" result="blurOut3"/><feBlend in="SourceGraphic" in2="blurOut3" mode="normal"/></filter></defs><g><!--MD5=[30404b2edc0ff233b9122d63ae72b243]
cluster :core--><polygon fill="#FFFFFF" filter="url(#f11a5f68fgqn7j)" points="255,6,302,6,309,28.2969,351,28.2969,351,105,255,105,255,6" style="stroke:#000000;stroke-width:1.5;"/><line style="stroke:#000000;stroke-width:1.5;" x1="255" x2="309" y1="28.2969" y2="28.2969"/><text fill="#000000" font-family="sans-serif" font-size="14" font-weight="bold" lengthAdjust="spacing" textLength="41" x="259" y="20.9951">:core</text><!--MD5=[5c8f74f689ac2236e8699c53ace97f45]
cluster :oop-lib--><polygon fill="#FFFFFF" filter="url(#f11a5f68fgqn7j)" points="16,129,84,129,91,151.2969,786,151.2969,786,533,16,533,16,129" style="stroke:#000000;stroke-width:1.5;"/><line style="stroke:#000000;stroke-width:1.5;" x1="16" x2="91" y1="151.2969" y2="151.2969"/><text fill="#000000" font-family="sans-serif" font-size="14" font-weight="bold" lengthAdjust="spacing" textLength="62" x="20" y="143.9951">:oop-lib</text><!--MD5=[f18b0f967872e82ff276115ca1b4c569]
class Atom--><rect codeLine="2" fill="#FEFECE" filter="url(#f11a5f68fgqn7j)" height="48" id="Atom" style="stroke:#A80036;stroke-width:1.5;" width="64" x="271" y="41"/><ellipse cx="286" cy="57" fill="#B4A7E5" rx="11" ry="11" style="stroke:#A80036;stroke-width:1.0;"/><path d="M286.9531,53.7813 L288.6719,53.7813 C289.0625,53.7813 289.25,53.75 289.375,53.6719 C289.6406,53.5156 289.7813,53.2344 289.7813,52.9375 C289.7813,52.6719 289.6719,52.4063 289.4375,52.2344 C289.2656,52.125 289.125,52.0938 288.6719,52.0938 L283.5313,52.0938 C283.0938,52.0938 282.9688,52.1094 282.8125,52.2031 C282.5625,52.3594 282.4063,52.6563 282.4063,52.9375 C282.4063,53.2188 282.5469,53.4688 282.7656,53.6406 C282.9219,53.75 283.1094,53.7813 283.5313,53.7813 L285.25,53.7813 L285.25,60.2969 L283.5313,60.2969 C283.0938,60.2969 282.9688,60.3125 282.8125,60.4219 C282.5625,60.5781 282.4063,60.8594 282.4063,61.1563 C282.4063,61.4063 282.5469,61.6719 282.7656,61.8281 C282.9219,61.9531 283.125,62 283.5313,62 L288.6719,62 C289.4219,62 289.7813,61.7188 289.7813,61.1563 C289.7813,60.875 289.6719,60.625 289.4375,60.4531 C289.2656,60.3281 289.125,60.2969 288.6719,60.2969 L286.9531,60.2969 L286.9531,53.7813 Z " fill="#000000"/><text fill="#000000" font-family="sans-serif" font-size="12" font-style="italic" lengthAdjust="spacing" textLength="32" x="300" y="61.1543">Atom</text><line style="stroke:#A80036;stroke-width:1.5;" x1="272" x2="334" y1="73" y2="73"/><line style="stroke:#A80036;stroke-width:1.5;" x1="272" x2="334" y1="81" y2="81"/><!--MD5=[b426800acd6da9b6ecac1a582c45d730]
class Ref--><rect codeLine="6" fill="#FEFECE" filter="url(#f11a5f68fgqn7j)" height="99.2188" id="Ref" style="stroke:#A80036;stroke-width:1.5;" width="391" x="107.5" y="164"/><ellipse cx="289.25" cy="180" fill="#B4A7E5" rx="11" ry="11" style="stroke:#A80036;stroke-width:1.0;"/><path d="M290.2031,176.7813 L291.9219,176.7813 C292.3125,176.7813 292.5,176.75 292.625,176.6719 C292.8906,176.5156 293.0313,176.2344 293.0313,175.9375 C293.0313,175.6719 292.9219,175.4063 292.6875,175.2344 C292.5156,175.125 292.375,175.0938 291.9219,175.0938 L286.7813,175.0938 C286.3438,175.0938 286.2188,175.1094 286.0625,175.2031 C285.8125,175.3594 285.6563,175.6563 285.6563,175.9375 C285.6563,176.2188 285.7969,176.4688 286.0156,176.6406 C286.1719,176.75 286.3594,176.7813 286.7813,176.7813 L288.5,176.7813 L288.5,183.2969 L286.7813,183.2969 C286.3438,183.2969 286.2188,183.3125 286.0625,183.4219 C285.8125,183.5781 285.6563,183.8594 285.6563,184.1563 C285.6563,184.4063 285.7969,184.6719 286.0156,184.8281 C286.1719,184.9531 286.375,185 286.7813,185 L291.9219,185 C292.6719,185 293.0313,184.7188 293.0313,184.1563 C293.0313,183.875 292.9219,183.625 292.6875,183.4531 C292.5156,183.3281 292.375,183.2969 291.9219,183.2969 L290.2031,183.2969 L290.2031,176.7813 Z " fill="#000000"/><text fill="#000000" font-family="sans-serif" font-size="12" font-style="italic" lengthAdjust="spacing" textLength="19" x="309.75" y="184.1543">Ref</text><line style="stroke:#A80036;stroke-width:1.5;" x1="108.5" x2="497.5" y1="196" y2="196"/><line style="stroke:#A80036;stroke-width:1.5;" x1="108.5" x2="497.5" y1="204" y2="204"/><ellipse cx="118.5" cy="215" fill="#84BE84" rx="3" ry="3" style="stroke:#038048;stroke-width:1.0;"/><text fill="#000000" font-family="sans-serif" font-size="11" lengthAdjust="spacing" textLength="280" x="127.5" y="218.2104">invoke(TermToObjectConverter, String, Iterable&lt;</text><text fill="#000000" font-family="sans-serif" font-size="11" font-style="italic" lengthAdjust="spacing" textLength="30" x="407.5" y="218.2104">Term</text><text fill="#000000" font-family="sans-serif" font-size="11" lengthAdjust="spacing" textLength="55" x="437.5" y="218.2104">&gt;): Result</text><ellipse cx="118.5" cy="227.8047" fill="#84BE84" rx="3" ry="3" style="stroke:#038048;stroke-width:1.0;"/><text fill="#000000" font-family="sans-serif" font-size="11" lengthAdjust="spacing" textLength="135" x="127.5" y="231.0151">invoke(String, Iterable&lt;</text><text fill="#000000" font-family="sans-serif" font-size="11" font-style="italic" lengthAdjust="spacing" textLength="30" x="262.5" y="231.0151">Term</text><text fill="#000000" font-family="sans-serif" font-size="11" lengthAdjust="spacing" textLength="55" x="292.5" y="231.0151">&gt;): Result</text><ellipse cx="118.5" cy="240.6094" fill="#84BE84" rx="3" ry="3" style="stroke:#038048;stroke-width:1.0;"/><text fill="#000000" font-family="sans-serif" font-size="11" lengthAdjust="spacing" textLength="313" x="127.5" y="243.8198">assign(TermToObjectConverter, String, Term): Boolean</text><ellipse cx="118.5" cy="253.4141" fill="#84BE84" rx="3" ry="3" style="stroke:#038048;stroke-width:1.0;"/><text fill="#000000" font-family="sans-serif" font-size="11" lengthAdjust="spacing" textLength="168" x="127.5" y="256.6245">assign(String, Term): Boolean</text><!--MD5=[24c813b3ce4d0a6d9787f260efc3e27a]
class ObjectRef--><rect codeLine="12" fill="#FEFECE" filter="url(#f11a5f68fgqn7j)" height="60.8047" id="ObjectRef" style="stroke:#A80036;stroke-width:1.5;" width="90" x="32" y="335.5"/><ellipse cx="47" cy="351.5" fill="#B4A7E5" rx="11" ry="11" style="stroke:#A80036;stroke-width:1.0;"/><path d="M47.9531,348.2813 L49.6719,348.2813 C50.0625,348.2813 50.25,348.25 50.375,348.1719 C50.6406,348.0156 50.7813,347.7344 50.7813,347.4375 C50.7813,347.1719 50.6719,346.9063 50.4375,346.7344 C50.2656,346.625 50.125,346.5938 49.6719,346.5938 L44.5313,346.5938 C44.0938,346.5938 43.9688,346.6094 43.8125,346.7031 C43.5625,346.8594 43.4063,347.1563 43.4063,347.4375 C43.4063,347.7188 43.5469,347.9688 43.7656,348.1406 C43.9219,348.25 44.1094,348.2813 44.5313,348.2813 L46.25,348.2813 L46.25,354.7969 L44.5313,354.7969 C44.0938,354.7969 43.9688,354.8125 43.8125,354.9219 C43.5625,355.0781 43.4063,355.3594 43.4063,355.6563 C43.4063,355.9063 43.5469,356.1719 43.7656,356.3281 C43.9219,356.4531 44.125,356.5 44.5313,356.5 L49.6719,356.5 C50.4219,356.5 50.7813,356.2188 50.7813,355.6563 C50.7813,355.375 50.6719,355.125 50.4375,354.9531 C50.2656,354.8281 50.125,354.7969 49.6719,354.7969 L47.9531,354.7969 L47.9531,348.2813 Z " fill="#000000"/><text fill="#000000" font-family="sans-serif" font-size="12" font-style="italic" lengthAdjust="spacing" textLength="58" x="61" y="355.6543">ObjectRef</text><line style="stroke:#A80036;stroke-width:1.5;" x1="33" x2="121" y1="367.5" y2="367.5"/><ellipse cx="43" cy="378.5" rx="3" ry="3" style="stroke:#038048;stroke-width:1.0;fill:none;"/><text fill="#000000" font-family="sans-serif" font-size="11" lengthAdjust="spacing" textLength="64" x="52" y="381.7104">object: Any</text><line style="stroke:#A80036;stroke-width:1.5;" x1="33" x2="121" y1="388.3047" y2="388.3047"/><!--MD5=[bb5d160990469bd4f965063233933f15]
class TypeRef--><rect codeLine="15" fill="#FEFECE" filter="url(#f11a5f68fgqn7j)" height="86.4141" id="TypeRef" style="stroke:#A80036;stroke-width:1.5;" width="350" x="157" y="323"/><ellipse cx="303.75" cy="339" fill="#B4A7E5" rx="11" ry="11" style="stroke:#A80036;stroke-width:1.0;"/><path d="M304.7031,335.7813 L306.4219,335.7813 C306.8125,335.7813 307,335.75 307.125,335.6719 C307.3906,335.5156 307.5313,335.2344 307.5313,334.9375 C307.5313,334.6719 307.4219,334.4063 307.1875,334.2344 C307.0156,334.125 306.875,334.0938 306.4219,334.0938 L301.2813,334.0938 C300.8438,334.0938 300.7188,334.1094 300.5625,334.2031 C300.3125,334.3594 300.1563,334.6563 300.1563,334.9375 C300.1563,335.2188 300.2969,335.4688 300.5156,335.6406 C300.6719,335.75 300.8594,335.7813 301.2813,335.7813 L303,335.7813 L303,342.2969 L301.2813,342.2969 C300.8438,342.2969 300.7188,342.3125 300.5625,342.4219 C300.3125,342.5781 300.1563,342.8594 300.1563,343.1563 C300.1563,343.4063 300.2969,343.6719 300.5156,343.8281 C300.6719,343.9531 300.875,344 301.2813,344 L306.4219,344 C307.1719,344 307.5313,343.7188 307.5313,343.1563 C307.5313,342.875 307.4219,342.625 307.1875,342.4531 C307.0156,342.3281 306.875,342.2969 306.4219,342.2969 L304.7031,342.2969 L304.7031,335.7813 Z " fill="#000000"/><text fill="#000000" font-family="sans-serif" font-size="12" font-style="italic" lengthAdjust="spacing" textLength="48" x="324.25" y="343.1543">TypeRef</text><line style="stroke:#A80036;stroke-width:1.5;" x1="158" x2="506" y1="355" y2="355"/><ellipse cx="168" cy="366" rx="3" ry="3" style="stroke:#038048;stroke-width:1.0;fill:none;"/><text fill="#000000" font-family="sans-serif" font-size="11" lengthAdjust="spacing" textLength="94" x="177" y="369.2104">type: KClass&lt;*&gt;</text><line style="stroke:#A80036;stroke-width:1.5;" x1="158" x2="506" y1="375.8047" y2="375.8047"/><ellipse cx="168" cy="386.8047" fill="#84BE84" rx="3" ry="3" style="stroke:#038048;stroke-width:1.0;"/><text fill="#000000" font-family="sans-serif" font-size="11" lengthAdjust="spacing" textLength="239" x="177" y="390.0151">create(TermToObjectConverter, Iterable&lt;</text><text fill="#000000" font-family="sans-serif" font-size="11" font-style="italic" lengthAdjust="spacing" textLength="30" x="416" y="390.0151">Term</text><text fill="#000000" font-family="sans-serif" font-size="11" lengthAdjust="spacing" textLength="55" x="446" y="390.0151">&gt;): Result</text><ellipse cx="168" cy="399.6094" fill="#84BE84" rx="3" ry="3" style="stroke:#038048;stroke-width:1.0;"/><text fill="#000000" font-family="sans-serif" font-size="11" lengthAdjust="spacing" textLength="94" x="177" y="402.8198">create(Iterable&lt;</text><text fill="#000000" font-family="sans-serif" font-size="11" font-style="italic" lengthAdjust="spacing" textLength="30" x="271" y="402.8198">Term</text><text fill="#000000" font-family="sans-serif" font-size="11" lengthAdjust="spacing" textLength="55" x="301" y="402.8198">&gt;): Result</text><!--MD5=[3d6b35729b0ded3898c61e281952a9cf]
class NullRef--><rect codeLine="21" fill="#FEFECE" filter="url(#f11a5f68fgqn7j)" height="48" id="NullRef" style="stroke:#A80036;stroke-width:1.5;" width="74" x="40" y="469"/><ellipse cx="55" cy="485" fill="#B4A7E5" rx="11" ry="11" style="stroke:#A80036;stroke-width:1.0;"/><path d="M55.9531,481.7813 L57.6719,481.7813 C58.0625,481.7813 58.25,481.75 58.375,481.6719 C58.6406,481.5156 58.7813,481.2344 58.7813,480.9375 C58.7813,480.6719 58.6719,480.4063 58.4375,480.2344 C58.2656,480.125 58.125,480.0938 57.6719,480.0938 L52.5313,480.0938 C52.0938,480.0938 51.9688,480.1094 51.8125,480.2031 C51.5625,480.3594 51.4063,480.6563 51.4063,480.9375 C51.4063,481.2188 51.5469,481.4688 51.7656,481.6406 C51.9219,481.75 52.1094,481.7813 52.5313,481.7813 L54.25,481.7813 L54.25,488.2969 L52.5313,488.2969 C52.0938,488.2969 51.9688,488.3125 51.8125,488.4219 C51.5625,488.5781 51.4063,488.8594 51.4063,489.1563 C51.4063,489.4063 51.5469,489.6719 51.7656,489.8281 C51.9219,489.9531 52.125,490 52.5313,490 L57.6719,490 C58.4219,490 58.7813,489.7188 58.7813,489.1563 C58.7813,488.875 58.6719,488.625 58.4375,488.4531 C58.2656,488.3281 58.125,488.2969 57.6719,488.2969 L55.9531,488.2969 L55.9531,481.7813 Z " fill="#000000"/><text fill="#000000" font-family="sans-serif" font-size="12" font-style="italic" lengthAdjust="spacing" textLength="42" x="69" y="489.1543">NullRef</text><line style="stroke:#A80036;stroke-width:1.5;" x1="41" x2="113" y1="501" y2="501"/><line style="stroke:#A80036;stroke-width:1.5;" x1="41" x2="113" y1="509" y2="509"/><!--MD5=[2741598bdf59a7d7e0d5c97658fd3022]
class Result--><rect codeLine="27" fill="#FEFECE" filter="url(#f11a5f68fgqn7j)" height="73.6094" id="Result" style="stroke:#A80036;stroke-width:1.5;" width="172" x="534" y="176.5"/><ellipse cx="597.75" cy="192.5" fill="#ADD1B2" rx="11" ry="11" style="stroke:#A80036;stroke-width:1.0;"/><path d="M600.0938,188.1719 C599.1563,187.7344 598.5625,187.5938 597.6875,187.5938 C595.0625,187.5938 593.0625,189.6719 593.0625,192.3906 L593.0625,193.5156 C593.0625,196.0938 595.1719,197.9844 598.0625,197.9844 C599.2813,197.9844 600.4375,197.6875 601.1875,197.1406 C601.7656,196.7344 602.0938,196.2813 602.0938,195.8906 C602.0938,195.4375 601.7031,195.0469 601.2344,195.0469 C601.0156,195.0469 600.8125,195.125 600.625,195.3125 C600.1719,195.7969 600.1719,195.7969 599.9844,195.8906 C599.5625,196.1563 598.875,196.2813 598.1094,196.2813 C596.0625,196.2813 594.7656,195.1875 594.7656,193.4844 L594.7656,192.3906 C594.7656,190.6094 596.0156,189.2969 597.75,189.2969 C598.3281,189.2969 598.9375,189.4531 599.4063,189.7031 C599.8906,189.9844 600.0625,190.2031 600.1563,190.6094 C600.2188,191.0156 600.25,191.1406 600.3906,191.2656 C600.5313,191.4063 600.7656,191.5156 600.9844,191.5156 C601.25,191.5156 601.5156,191.375 601.6875,191.1563 C601.7969,191 601.8281,190.8125 601.8281,190.3906 L601.8281,188.9688 C601.8281,188.5313 601.8125,188.4063 601.7188,188.25 C601.5625,187.9844 601.2813,187.8438 600.9844,187.8438 C600.6875,187.8438 600.4844,187.9375 600.2656,188.25 L600.0938,188.1719 Z " fill="#000000"/><text fill="#000000" font-family="sans-serif" font-size="12" lengthAdjust="spacing" textLength="36" x="618.25" y="196.6543">Result</text><line style="stroke:#A80036;stroke-width:1.5;" x1="535" x2="705" y1="208.5" y2="208.5"/><line style="stroke:#A80036;stroke-width:1.5;" x1="535" x2="705" y1="216.5" y2="216.5"/><ellipse cx="545" cy="227.5" fill="#84BE84" rx="3" ry="3" style="stroke:#038048;stroke-width:1.0;"/><text fill="#000000" font-family="sans-serif" font-size="11" lengthAdjust="spacing" textLength="92" x="554" y="230.7104">toTerm(): Term?</text><ellipse cx="545" cy="240.3047" fill="#84BE84" rx="3" ry="3" style="stroke:#038048;stroke-width:1.0;"/><text fill="#000000" font-family="sans-serif" font-size="11" lengthAdjust="spacing" textLength="146" x="554" y="243.5151">asObjectRef(): ObjectRef?</text><!--MD5=[23b93222029f5e808ee3d66414f1a838]
class None--><rect codeLine="32" fill="#FEFECE" filter="url(#f11a5f68fgqn7j)" height="53.9375" id="None" style="stroke:#A80036;stroke-width:1.5;" width="99" x="542.5" y="339"/><ellipse cx="557.5" cy="357.9688" fill="#FF7700" rx="11" ry="11" style="stroke:#A80036;stroke-width:1.0;"/><path d="M561.2813,353.9375 C561.2813,353.5 561.2656,353.3594 561.1719,353.2031 C561.0313,352.9688 560.75,352.8125 560.4531,352.8125 C560.1094,352.8125 559.9688,352.9531 559.7969,353.375 C559.2031,353 558.4531,352.8125 557.5781,352.8125 C555.4688,352.8125 553.8906,354.1094 553.8906,355.8281 C553.8906,356.7969 554.4219,357.7031 555.2813,358.1875 C555.8281,358.5 556.375,358.6719 557.4844,358.8594 C558.6406,359.0625 558.9063,359.125 559.2656,359.3125 C559.6406,359.5156 559.875,359.8594 559.875,360.2188 C559.875,360.9531 558.8906,361.5 557.6406,361.5 C556.5156,361.5 555.4375,361.0156 555.2656,360.4063 C555.1406,359.9375 555.1406,359.9375 555.0156,359.8281 C554.8594,359.6719 554.6406,359.5781 554.4063,359.5781 C554.125,359.5781 553.875,359.7031 553.7031,359.9219 C553.5938,360.0938 553.5469,360.2813 553.5469,360.7031 L553.5469,361.8281 C553.5469,362.5938 553.8281,362.9531 554.4219,362.9531 C554.6875,362.9531 554.8125,362.8906 555.0938,362.5469 C555.9375,362.9844 556.8281,363.2031 557.75,363.2031 C560.0781,363.2031 561.6406,362.0156 561.6406,360.25 C561.6406,359.3594 561.3281,358.6719 560.6406,358.125 C560.1094,357.7031 559.4688,357.4531 557.9844,357.1875 C556.7188,356.9531 556.625,356.9219 556.2969,356.75 C555.9219,356.5625 555.6563,356.1719 555.6563,355.8125 C555.6563,355.0781 556.5156,354.5156 557.5781,354.5156 C558.6406,354.5156 559.4531,354.9844 559.6094,355.6563 C559.7188,356.2031 559.7188,356.2031 559.8438,356.3438 C559.9844,356.4688 560.2188,356.5781 560.4531,356.5781 C560.7188,356.5781 560.9688,356.4375 561.1406,356.2188 C561.25,356.0469 561.2813,355.9063 561.2813,355.4375 L561.2813,353.9375 Z " fill="#000000"/><text fill="#000000" font-family="sans-serif" font-size="12" font-style="italic" lengthAdjust="spacing" textLength="71" x="569.5" y="355.1387">«Singleton»</text><text fill="#000000" font-family="sans-serif" font-size="12" lengthAdjust="spacing" textLength="31" x="589.5" y="369.1074">None</text><line style="stroke:#A80036;stroke-width:1.5;" x1="543.5" x2="640.5" y1="376.9375" y2="376.9375"/><line style="stroke:#A80036;stroke-width:1.5;" x1="543.5" x2="640.5" y1="384.9375" y2="384.9375"/><!--MD5=[ff3d20c1112759d46dde2fcead238479]
class Value--><rect codeLine="34" fill="#FEFECE" filter="url(#f11a5f68fgqn7j)" height="60.8047" id="Value" style="stroke:#A80036;stroke-width:1.5;" width="93" x="676.5" y="335.5"/><ellipse cx="704.1" cy="351.5" fill="#ADD1B2" rx="11" ry="11" style="stroke:#A80036;stroke-width:1.0;"/><path d="M706.4438,347.1719 C705.5063,346.7344 704.9125,346.5938 704.0375,346.5938 C701.4125,346.5938 699.4125,348.6719 699.4125,351.3906 L699.4125,352.5156 C699.4125,355.0938 701.5219,356.9844 704.4125,356.9844 C705.6313,356.9844 706.7875,356.6875 707.5375,356.1406 C708.1156,355.7344 708.4438,355.2813 708.4438,354.8906 C708.4438,354.4375 708.0531,354.0469 707.5844,354.0469 C707.3656,354.0469 707.1625,354.125 706.975,354.3125 C706.5219,354.7969 706.5219,354.7969 706.3344,354.8906 C705.9125,355.1563 705.225,355.2813 704.4594,355.2813 C702.4125,355.2813 701.1156,354.1875 701.1156,352.4844 L701.1156,351.3906 C701.1156,349.6094 702.3656,348.2969 704.1,348.2969 C704.6781,348.2969 705.2875,348.4531 705.7563,348.7031 C706.2406,348.9844 706.4125,349.2031 706.5063,349.6094 C706.5688,350.0156 706.6,350.1406 706.7406,350.2656 C706.8813,350.4063 707.1156,350.5156 707.3344,350.5156 C707.6,350.5156 707.8656,350.375 708.0375,350.1563 C708.1469,350 708.1781,349.8125 708.1781,349.3906 L708.1781,347.9688 C708.1781,347.5313 708.1625,347.4063 708.0688,347.25 C707.9125,346.9844 707.6313,346.8438 707.3344,346.8438 C707.0375,346.8438 706.8344,346.9375 706.6156,347.25 L706.4438,347.1719 Z " fill="#000000"/><text fill="#000000" font-family="sans-serif" font-size="12" lengthAdjust="spacing" textLength="33" x="720.9" y="355.6543">Value</text><line style="stroke:#A80036;stroke-width:1.5;" x1="677.5" x2="768.5" y1="367.5" y2="367.5"/><ellipse cx="687.5" cy="378.5" rx="3" ry="3" style="stroke:#038048;stroke-width:1.0;fill:none;"/><text fill="#000000" font-family="sans-serif" font-size="11" lengthAdjust="spacing" textLength="67" x="696.5" y="381.7104">value: Any?</text><line style="stroke:#A80036;stroke-width:1.5;" x1="677.5" x2="768.5" y1="388.3047" y2="388.3047"/><!--MD5=[1aaf9f634ddbf1899d62ba275e398f36]
reverse link Ref to ObjectRef--><path codeLine="23" d="M212.043,274.421 C188.239,290.173 162.627,307.182 139,323 C133.058,326.978 126.807,331.185 120.655,335.34 " fill="none" id="Ref-backto-ObjectRef" style="stroke:#A80036;stroke-width:1.0;"/><polygon fill="none" points="208.459,268.4,229.003,263.209,216.179,280.078,208.459,268.4" style="stroke:#A80036;stroke-width:1.0;"/><!--MD5=[d6b1f1a5a77c324e39080ec4756d6859]
reverse link Ref to TypeRef--><path codeLine="24" d="M316.277,283.403 C318.877,296.896 321.53,310.663 323.898,322.952 " fill="none" id="Ref-backto-TypeRef" style="stroke:#A80036;stroke-width:1.0;"/><polygon fill="none" points="309.326,284.326,312.415,263.363,323.073,281.677,309.326,284.326" style="stroke:#A80036;stroke-width:1.0;"/><!--MD5=[c3e0bedeb9e4d71141d63771f7eb0aa2]
reverse link ObjectRef to NullRef--><path codeLine="25" d="M77,416.702 C77,434.709 77,454.1961 77,468.8339 " fill="none" id="ObjectRef-backto-NullRef" style="stroke:#A80036;stroke-width:1.0;"/><polygon fill="none" points="70.0001,416.623,77,396.623,84.0001,416.623,70.0001,416.623" style="stroke:#A80036;stroke-width:1.0;"/><!--MD5=[e8f2c7c9a36446b07eff5bcd25ff6897]
link Ref to Result--><path codeLine="38" d="M498.648,213.5 C510.341,213.5 522.034,213.5 533.727,213.5 " fill="none" id="Ref-Result" style="stroke:#A80036;stroke-width:1.0;stroke-dasharray:7.0,7.0;"/><!--MD5=[7bbdf0b7bd407098787ebae8eb4561cb]
reverse link Result to None--><path codeLine="40" d="M609.573,270.547 C605.23,293.89 600.395,319.875 596.898,338.672 " fill="none" id="Result-backto-None" style="stroke:#A80036;stroke-width:1.0;"/><polygon fill="none" points="602.753,268.931,613.293,250.548,616.517,271.491,602.753,268.931" style="stroke:#A80036;stroke-width:1.0;"/><!--MD5=[8bf06426c370c9e87ec7d0ed10a819a8]
reverse link Result to Value--><path codeLine="41" d="M656.1,267.248 C671.716,290.066 689.414,315.925 702.682,335.312 " fill="none" id="Result-backto-Value" style="stroke:#A80036;stroke-width:1.0;"/><polygon fill="none" points="650.19,271.007,644.671,250.548,661.743,263.1,650.19,271.007" style="stroke:#A80036;stroke-width:1.0;"/><!--MD5=[23e96a29e95e2c1fc0d71dc76cf710b0]
reverse link Atom to Ref--><path codeLine="44" d="M303,109.479 C303,126.601 303,146.339 303,163.927 " fill="none" id="Atom-backto-Ref" style="stroke:#A80036;stroke-width:1.0;"/><polygon fill="none" points="296,109.213,303,89.213,310,109.213,296,109.213" style="stroke:#A80036;stroke-width:1.0;"/><!--MD5=[c2b0fb3a355842c4aef9b07163b4303f]
@startuml
package :core {
    interface Atom
}

package :oop-lib {
    interface Ref {
        + invoke(TermToObjectConverter, String, Iterable<//Term//>): Result
        + invoke(String, Iterable<//Term//>): Result
        + assign(TermToObjectConverter, String, Term): Boolean
        + assign(String, Term): Boolean
    }
    interface ObjectRef {
        + object: Any
    }
    interface TypeRef {
        + type: KClass<*>
        + create(TermToObjectConverter, Iterable<//Term//>): Result
        + create(Iterable<//Term//>): Result
    }

    interface NullRef

    Ref <|- - ObjectRef
    Ref <|- - TypeRef
    ObjectRef <|- - NullRef

    class Result {
        + toTerm(): Term?
        + asObjectRef(): ObjectRef?
    }

    class None << (S,#FF7700) Singleton >>

    class Value {
        + value: Any?
    }

    Ref .right. Result

    Result <|- - None
    Result <|- - Value
}

Atom <|- - Ref
@enduml

PlantUML version 1.2021.6beta6(Unknown compile time)
(GPL source distribution)
Java Runtime: Java(TM) SE Runtime Environment
JVM: Java HotSpot(TM) 64-Bit Server VM
Default Encoding: UTF-8
Language: en
Country: US
--></g></svg>