<?xml version="1.0" encoding="UTF-8" standalone="no"?><svg xmlns="http://www.w3.org/2000/svg" xmlns:xlink="http://www.w3.org/1999/xlink" contentScriptType="application/ecmascript" contentStyleType="text/css" height="439px" preserveAspectRatio="none" style="width:409px;height:439px;" version="1.1" viewBox="0 0 409 439" width="409px" zoomAndPan="magnify"><defs><filter height="300%" id="f15m00mp24q7e1" width="300%" x="-1" y="-1"><feGaussianBlur result="blurOut" stdDeviation="2.0"/><feColorMatrix in="blurOut" result="blurOut2" type="matrix" values="0 0 0 0 0 0 0 0 0 0 0 0 0 0 0 0 0 0 .4 0"/><feOffset dx="4.0" dy="4.0" in="blurOut2" result="blurOut3"/><feBlend in="SourceGraphic" in2="blurOut3" mode="normal"/></filter></defs><g><!--MD5=[fcdcd9a462e16d3cccc2dea3947e9ce2]
class Compute--><rect codeLine="1" fill="#FEFECE" filter="url(#f15m00mp24q7e1)" height="48" id="Compute" style="stroke:#A80036;stroke-width:1.5;" width="88" x="168.5" y="377"/><ellipse cx="183.5" cy="393" fill="#A9DCDF" rx="11" ry="11" style="stroke:#A80036;stroke-width:1.0;"/><path d="M183.6094,388.3438 L182.4531,393.4219 L184.7813,393.4219 L183.6094,388.3438 Z M182.125,386.1094 L185.1094,386.1094 L188.4688,398.5 L186.0156,398.5 L185.25,395.4375 L181.9688,395.4375 L181.2188,398.5 L178.7813,398.5 L182.125,386.1094 Z " fill="#000000"/><text fill="#000000" font-family="sans-serif" font-size="12" font-style="italic" lengthAdjust="spacing" textLength="56" x="197.5" y="397.1543">Compute</text><line style="stroke:#A80036;stroke-width:1.5;" x1="169.5" x2="255.5" y1="409" y2="409"/><line style="stroke:#A80036;stroke-width:1.5;" x1="169.5" x2="255.5" y1="417" y2="417"/><!--MD5=[0851f84a889f989e7bb0bebc385d0f09]
class Request--><rect codeLine="3" fill="#FEFECE" filter="url(#f15m00mp24q7e1)" height="99.2188" id="Request" style="stroke:#A80036;stroke-width:1.5;" width="219" x="7" y="218"/><ellipse cx="22" cy="234" fill="#ADD1B2" rx="11" ry="11" style="stroke:#A80036;stroke-width:1.0;"/><path d="M24.9688,239.6406 Q24.3906,239.9375 23.75,240.0781 Q23.1094,240.2344 22.4063,240.2344 Q19.9063,240.2344 18.5781,238.5938 Q17.2656,236.9375 17.2656,233.8125 Q17.2656,230.6875 18.5781,229.0313 Q19.9063,227.375 22.4063,227.375 Q23.1094,227.375 23.75,227.5313 Q24.4063,227.6875 24.9688,227.9844 L24.9688,230.7031 Q24.3438,230.125 23.75,229.8594 Q23.1563,229.5781 22.5313,229.5781 Q21.1875,229.5781 20.5,230.6563 Q19.8125,231.7188 19.8125,233.8125 Q19.8125,235.9063 20.5,236.9844 Q21.1875,238.0469 22.5313,238.0469 Q23.1563,238.0469 23.75,237.7813 Q24.3438,237.5 24.9688,236.9219 L24.9688,239.6406 Z " fill="#000000"/><text fill="#000000" font-family="sans-serif" font-size="12" lengthAdjust="spacing" textLength="52" x="36" y="238.1543">Request</text><rect fill="#FFFFFF" height="15.9688" style="stroke:#000000;stroke-width:1.0;stroke-dasharray:2.0,2.0;" width="133" x="96" y="215"/><text fill="#000000" font-family="sans-serif" font-size="12" font-style="italic" lengthAdjust="spacing" textLength="131" x="97" y="227.1387">C : ExecutionContext</text><line style="stroke:#A80036;stroke-width:1.5;" x1="8" x2="225" y1="250" y2="250"/><ellipse cx="18" cy="261" fill="none" rx="3" ry="3" style="stroke:#038048;stroke-width:1.0;"/><text fill="#000000" font-family="sans-serif" font-size="11" lengthAdjust="spacing" textLength="117" x="27" y="264.2104">signature: Signature</text><ellipse cx="18" cy="273.8047" fill="none" rx="3" ry="3" style="stroke:#038048;stroke-width:1.0;"/><text fill="#000000" font-family="sans-serif" font-size="11" lengthAdjust="spacing" textLength="138" x="27" y="277.0151">arguments: List&lt;Term&gt;</text><ellipse cx="18" cy="286.6094" fill="none" rx="3" ry="3" style="stroke:#038048;stroke-width:1.0;"/><text fill="#000000" font-family="sans-serif" font-size="11" lengthAdjust="spacing" textLength="57" x="27" y="289.8198">context: C</text><line style="stroke:#A80036;stroke-width:1.0;" x1="8" x2="225" y1="296.4141" y2="296.4141"/><ellipse cx="18" cy="307.4141" fill="#84BE84" rx="3" ry="3" style="stroke:#038048;stroke-width:1.0;"/><text fill="#000000" font-family="sans-serif" font-size="11" lengthAdjust="spacing" textLength="153" x="27" y="310.6245">replyWith(Term): Response</text><!--MD5=[62ba8ad8b61caf20139235a169a8c31d]
class Response--><rect codeLine="13" fill="#FEFECE" filter="url(#f15m00mp24q7e1)" height="60.8047" id="Response" style="stroke:#A80036;stroke-width:1.5;" width="97" x="261" y="237"/><ellipse cx="277.35" cy="253" fill="#ADD1B2" rx="11" ry="11" style="stroke:#A80036;stroke-width:1.0;"/><path d="M280.3188,258.6406 Q279.7406,258.9375 279.1,259.0781 Q278.4594,259.2344 277.7563,259.2344 Q275.2563,259.2344 273.9281,257.5938 Q272.6156,255.9375 272.6156,252.8125 Q272.6156,249.6875 273.9281,248.0313 Q275.2563,246.375 277.7563,246.375 Q278.4594,246.375 279.1,246.5313 Q279.7563,246.6875 280.3188,246.9844 L280.3188,249.7031 Q279.6938,249.125 279.1,248.8594 Q278.5063,248.5781 277.8813,248.5781 Q276.5375,248.5781 275.85,249.6563 Q275.1625,250.7188 275.1625,252.8125 Q275.1625,254.9063 275.85,255.9844 Q276.5375,257.0469 277.8813,257.0469 Q278.5063,257.0469 279.1,256.7813 Q279.6938,256.5 280.3188,255.9219 L280.3188,258.6406 Z " fill="#000000"/><text fill="#000000" font-family="sans-serif" font-size="12" lengthAdjust="spacing" textLength="62" x="291.65" y="257.1543">Response</text><line style="stroke:#A80036;stroke-width:1.5;" x1="262" x2="357" y1="269" y2="269"/><ellipse cx="272" cy="280" fill="none" rx="3" ry="3" style="stroke:#038048;stroke-width:1.0;"/><text fill="#000000" font-family="sans-serif" font-size="11" lengthAdjust="spacing" textLength="71" x="281" y="283.2104">result: Term</text><line style="stroke:#A80036;stroke-width:1.5;" x1="262" x2="357" y1="289.8047" y2="289.8047"/><!--MD5=[5fc6e261d0cc3570726fb106fb4f0bb0]
class PrologFunction--><rect codeLine="19" fill="#FEFECE" filter="url(#f15m00mp24q7e1)" height="66.7422" id="PrologFunction" style="stroke:#A80036;stroke-width:1.5;" width="260" x="82.5" y="91"/><ellipse cx="97.5" cy="109.9688" fill="#3495EB" rx="11" ry="11" style="stroke:#A80036;stroke-width:1.0;"/><path d="M98.3438,116.7188 L95.8906,116.7188 L95.8906,106.4688 L92.75,106.4688 L92.75,104.3281 L101.4844,104.3281 L101.4844,106.4688 L98.3438,106.4688 L98.3438,116.7188 Z " fill="#000000"/><text fill="#000000" font-family="sans-serif" font-size="12" font-style="italic" lengthAdjust="spacing" textLength="70" x="123" y="107.1387">«typealias»</text><text fill="#000000" font-family="sans-serif" font-size="12" font-style="italic" lengthAdjust="spacing" textLength="93" x="111.5" y="121.1074">PrologFunction</text><rect fill="#FFFFFF" height="15.9688" style="stroke:#000000;stroke-width:1.0;stroke-dasharray:2.0,2.0;" width="133" x="212.5" y="88"/><text fill="#000000" font-family="sans-serif" font-size="12" font-style="italic" lengthAdjust="spacing" textLength="131" x="213.5" y="100.1387">C : ExecutionContext</text><line style="stroke:#A80036;stroke-width:1.5;" x1="83.5" x2="341.5" y1="128.9375" y2="128.9375"/><line style="stroke:#A80036;stroke-width:1.5;" x1="83.5" x2="341.5" y1="136.9375" y2="136.9375"/><text fill="#000000" font-family="sans-serif" font-size="11" font-weight="bold" lengthAdjust="spacing" textLength="57" x="88.5" y="151.1479">alias for:</text><text fill="#000000" font-family="sans-serif" font-size="11" lengthAdjust="spacing" textLength="157" x="149.5" y="151.1479">(Request&lt;C&gt;) -&gt; Response</text><path d="M25,6 L25,31.1328 A0,0 0 0 0 25,31.1328 L208.5,31.1328 L212.5,90.62 L216.5,31.1328 L400,31.1328 A0,0 0 0 0 400,31.1328 L400,16 L390,6 L25,6 A0,0 0 0 0 25,6 " fill="#FBFB77" filter="url(#f15m00mp24q7e1)" style="stroke:#A80036;stroke-width:1.0;"/><path d="M390,6 L390,16 L400,16 L390,6 " fill="#FBFB77" style="stroke:#A80036;stroke-width:1.0;"/><text fill="#000000" font-family="sans-serif" font-size="13" lengthAdjust="spacing" textLength="354" x="31" y="23.0669">functions accepting 1 request and returning 1 response</text><!--MD5=[0c088a7a48d07d444af375cc72e31a5d]
link Request to Compute--><path codeLine="11" d="M151.97,317.09 C162.49,331.5 173.87,347.08 183.89,360.81 " fill="none" id="Request-to-Compute" style="stroke:#A80036;stroke-width:1.0;"/><polygon fill="none" points="189.55,356.7,195.69,376.98,178.25,364.95,189.55,356.7" style="stroke:#A80036;stroke-width:1.0;"/><!--MD5=[3a9b19004ab30eb679bad8257c23a97b]
link Response to Compute--><path codeLine="17" d="M287.73,298.01 C274.17,316.4 256.54,340.29 241.76,360.33 " fill="none" id="Response-to-Compute" style="stroke:#A80036;stroke-width:1.0;"/><polygon fill="none" points="247.19,364.77,229.68,376.71,235.92,356.46,247.19,364.77" style="stroke:#A80036;stroke-width:1.0;"/><!--MD5=[a3a054b4248e4a7b6b7e4006af6153c9]
reverse link PrologFunction to Request--><path codeLine="23" d="M187.35,162.44 C175.8,179.4 161.95,199.74 149.57,217.93 " fill="none" id="PrologFunction-backto-Request" style="stroke:#A80036;stroke-width:1.0;stroke-dasharray:7.0,7.0;"/><polygon fill="#A80036" points="190.23,158.2,181.864,163.397,187.4204,162.336,188.4815,167.8924,190.23,158.2" style="stroke:#A80036;stroke-width:1.0;"/><text fill="#000000" font-family="sans-serif" font-size="13" lengthAdjust="spacing" textLength="8" x="177.3865" y="177.8992">1</text><text fill="#000000" font-family="sans-serif" font-size="13" lengthAdjust="spacing" textLength="8" x="145.658" y="206.9654">1</text><!--MD5=[7528af8fa2aebb393f00c6a02334d536]
link PrologFunction to Response--><path codeLine="25" d="M235,158.2 C250.38,180.57 270.72,210.13 286.26,232.72 " fill="none" id="PrologFunction-to-Response" style="stroke:#A80036;stroke-width:1.0;stroke-dasharray:7.0,7.0;"/><polygon fill="#A80036" points="289.11,236.86,287.2846,227.1818,286.2677,232.7465,280.703,231.7295,289.11,236.86" style="stroke:#A80036;stroke-width:1.0;"/><text fill="#000000" font-family="sans-serif" font-size="13" lengthAdjust="spacing" textLength="8" x="230.4109" y="177.8992">1</text><text fill="#000000" font-family="sans-serif" font-size="13" lengthAdjust="spacing" textLength="8" x="276.0796" y="226.0944">1</text><!--MD5=[bff899ac707d1762434e97f4257702f3]
@startuml
abstract class Compute 

class Request<C : ExecutionContext> {
    + signature: Signature
    + arguments: List<Term>
    + context: C
    - -
    + replyWith(Term): Response
}

Request - -|> Compute 

class Response {
    + result: Term
}

Response - -|> Compute 

interface PrologFunction<C : ExecutionContext> << (T,#3495eb) typealias >>  {
  **alias for:** (Request<C>) -> Response
}

PrologFunction "1" <.. "1" Request

PrologFunction "1" ..> "1" Response

note top of PrologFunction: functions accepting 1 request and returning 1 response
@enduml

PlantUML version 1.2021.00(Sun Jan 10 11:25:05 CET 2021)
(GPL source distribution)
Java Runtime: OpenJDK Runtime Environment
JVM: OpenJDK 64-Bit Server VM
Default Encoding: UTF-8
Language: it
Country: IT
--></g></svg>