<?xml version="1.0" encoding="UTF-8" standalone="no"?>
<svg xmlns="http://www.w3.org/2000/svg" xmlns:xlink="http://www.w3.org/1999/xlink" contentScriptType="application/ecmascript" contentStyleType="text/css" height="133px" preserveAspectRatio="none" style="width:432px;height:133px;background:#FFFFFF;" version="1.1" viewBox="0 0 432 133" width="432px" zoomAndPan="magnify"><defs><filter height="300%" id="f19df7566xtpw5" width="300%" x="-1" y="-1"><feGaussianBlur result="blurOut" stdDeviation="2.0"/><feColorMatrix in="blurOut" result="blurOut2" type="matrix" values="0 0 0 0 0 0 0 0 0 0 0 0 0 0 0 0 0 0 .4 0"/><feOffset dx="4.0" dy="4.0" in="blurOut2" result="blurOut3"/><feBlend in="SourceGraphic" in2="blurOut3" mode="normal"/></filter></defs><g><!--MD5=[9d35236b92952560f647498cf8a29acb]
class Term--><rect codeLine="2" fill="#FEFECE" filter="url(#f19df7566xtpw5)" height="48" id="Term" style="stroke:#A80036;stroke-width:1.5;" width="63" x="7" y="39"/><ellipse cx="22" cy="55" fill="#B4A7E5" rx="11" ry="11" style="stroke:#A80036;stroke-width:1.0;"/><path d="M22.9531,51.7813 L24.6719,51.7813 C25.0625,51.7813 25.25,51.75 25.375,51.6719 C25.6406,51.5156 25.7813,51.2344 25.7813,50.9375 C25.7813,50.6719 25.6719,50.4063 25.4375,50.2344 C25.2656,50.125 25.125,50.0938 24.6719,50.0938 L19.5313,50.0938 C19.0938,50.0938 18.9688,50.1094 18.8125,50.2031 C18.5625,50.3594 18.4063,50.6563 18.4063,50.9375 C18.4063,51.2188 18.5469,51.4688 18.7656,51.6406 C18.9219,51.75 19.1094,51.7813 19.5313,51.7813 L21.25,51.7813 L21.25,58.2969 L19.5313,58.2969 C19.0938,58.2969 18.9688,58.3125 18.8125,58.4219 C18.5625,58.5781 18.4063,58.8594 18.4063,59.1563 C18.4063,59.4063 18.5469,59.6719 18.7656,59.8281 C18.9219,59.9531 19.125,60 19.5313,60 L24.6719,60 C25.4219,60 25.7813,59.7188 25.7813,59.1563 C25.7813,58.875 25.6719,58.625 25.4375,58.4531 C25.2656,58.3281 25.125,58.2969 24.6719,58.2969 L22.9531,58.2969 L22.9531,51.7813 Z " fill="#000000"/><text fill="#000000" font-family="sans-serif" font-size="12" font-style="italic" lengthAdjust="spacing" textLength="31" x="36" y="59.1543">Term</text><line style="stroke:#A80036;stroke-width:1.5;" x1="8" x2="69" y1="71" y2="71"/><line style="stroke:#A80036;stroke-width:1.5;" x1="8" x2="69" y1="79" y2="79"/><!--MD5=[eb0f4986160aea42d9ece72995cb24c7]
class Struct--><rect codeLine="3" fill="#FEFECE" filter="url(#f19df7566xtpw5)" height="48" id="Struct" style="stroke:#A80036;stroke-width:1.5;" width="70" x="130" y="39"/><ellipse cx="145" cy="55" fill="#B4A7E5" rx="11" ry="11" style="stroke:#A80036;stroke-width:1.0;"/><path d="M145.9531,51.7813 L147.6719,51.7813 C148.0625,51.7813 148.25,51.75 148.375,51.6719 C148.6406,51.5156 148.7813,51.2344 148.7813,50.9375 C148.7813,50.6719 148.6719,50.4063 148.4375,50.2344 C148.2656,50.125 148.125,50.0938 147.6719,50.0938 L142.5313,50.0938 C142.0938,50.0938 141.9688,50.1094 141.8125,50.2031 C141.5625,50.3594 141.4063,50.6563 141.4063,50.9375 C141.4063,51.2188 141.5469,51.4688 141.7656,51.6406 C141.9219,51.75 142.1094,51.7813 142.5313,51.7813 L144.25,51.7813 L144.25,58.2969 L142.5313,58.2969 C142.0938,58.2969 141.9688,58.3125 141.8125,58.4219 C141.5625,58.5781 141.4063,58.8594 141.4063,59.1563 C141.4063,59.4063 141.5469,59.6719 141.7656,59.8281 C141.9219,59.9531 142.125,60 142.5313,60 L147.6719,60 C148.4219,60 148.7813,59.7188 148.7813,59.1563 C148.7813,58.875 148.6719,58.625 148.4375,58.4531 C148.2656,58.3281 148.125,58.2969 147.6719,58.2969 L145.9531,58.2969 L145.9531,51.7813 Z " fill="#000000"/><text fill="#000000" font-family="sans-serif" font-size="12" font-style="italic" lengthAdjust="spacing" textLength="38" x="159" y="59.1543">Struct</text><line style="stroke:#A80036;stroke-width:1.5;" x1="131" x2="199" y1="71" y2="71"/><line style="stroke:#A80036;stroke-width:1.5;" x1="131" x2="199" y1="79" y2="79"/><!--MD5=[ff04013806d21ddc19c98782fe2ddc6c]
class Indicator--><rect codeLine="4" fill="#FEFECE" filter="url(#f19df7566xtpw5)" height="112.0234" id="Indicator" style="stroke:#A80036;stroke-width:1.5;" width="158" x="260" y="7"/><ellipse cx="307.75" cy="23" fill="#B4A7E5" rx="11" ry="11" style="stroke:#A80036;stroke-width:1.0;"/><path d="M308.7031,19.7813 L310.4219,19.7813 C310.8125,19.7813 311,19.75 311.125,19.6719 C311.3906,19.5156 311.5313,19.2344 311.5313,18.9375 C311.5313,18.6719 311.4219,18.4063 311.1875,18.2344 C311.0156,18.125 310.875,18.0938 310.4219,18.0938 L305.2813,18.0938 C304.8438,18.0938 304.7188,18.1094 304.5625,18.2031 C304.3125,18.3594 304.1563,18.6563 304.1563,18.9375 C304.1563,19.2188 304.2969,19.4688 304.5156,19.6406 C304.6719,19.75 304.8594,19.7813 305.2813,19.7813 L307,19.7813 L307,26.2969 L305.2813,26.2969 C304.8438,26.2969 304.7188,26.3125 304.5625,26.4219 C304.3125,26.5781 304.1563,26.8594 304.1563,27.1563 C304.1563,27.4063 304.2969,27.6719 304.5156,27.8281 C304.6719,27.9531 304.875,28 305.2813,28 L310.4219,28 C311.1719,28 311.5313,27.7188 311.5313,27.1563 C311.5313,26.875 311.4219,26.625 311.1875,26.4531 C311.0156,26.3281 310.875,26.2969 310.4219,26.2969 L308.7031,26.2969 L308.7031,19.7813 Z " fill="#000000"/><text fill="#000000" font-family="sans-serif" font-size="12" font-style="italic" lengthAdjust="spacing" textLength="54" x="328.25" y="27.1543">Indicator</text><line style="stroke:#A80036;stroke-width:1.5;" x1="261" x2="417" y1="39" y2="39"/><ellipse cx="271" cy="50" rx="3" ry="3" style="stroke:#038048;stroke-width:1.0;fill:none;"/><text fill="#000000" font-family="sans-serif" font-size="11" lengthAdjust="spacing" textLength="100" x="280" y="53.2104">nameTerm: Term</text><ellipse cx="271" cy="62.8047" rx="3" ry="3" style="stroke:#038048;stroke-width:1.0;fill:none;"/><text fill="#000000" font-family="sans-serif" font-size="11" lengthAdjust="spacing" textLength="132" x="280" y="66.0151">indicatedName: String?</text><ellipse cx="271" cy="75.6094" rx="3" ry="3" style="stroke:#038048;stroke-width:1.0;fill:none;"/><text fill="#000000" font-family="sans-serif" font-size="11" lengthAdjust="spacing" textLength="92" x="280" y="78.8198">arityTerm: Term</text><ellipse cx="271" cy="88.4141" rx="3" ry="3" style="stroke:#038048;stroke-width:1.0;fill:none;"/><text fill="#000000" font-family="sans-serif" font-size="11" lengthAdjust="spacing" textLength="105" x="280" y="91.6245">indicatedArity: Int?</text><ellipse cx="271" cy="101.2188" rx="3" ry="3" style="stroke:#038048;stroke-width:1.0;fill:none;"/><text fill="#000000" font-family="sans-serif" font-size="11" lengthAdjust="spacing" textLength="131" x="280" y="104.4292">isWellFormed: Boolean</text><line style="stroke:#A80036;stroke-width:1.5;" x1="261" x2="417" y1="111.0234" y2="111.0234"/><!--MD5=[f626f12429d76bc694cd64f7f069082d]
reverse link Term to Struct--><path codeLine="14" d="M90.6401,63 C103.7691,63 117.579,63 129.632,63 " fill="none" id="Term-backto-Struct" style="stroke:#A80036;stroke-width:1.0;"/><polygon fill="none" points="90.2753,69.9999,70.2753,63,90.2753,55.9999,90.2753,69.9999" style="stroke:#A80036;stroke-width:1.0;"/><!--MD5=[bbce5c6e594f9519b0e03f998c702cd7]
reverse link Struct to Indicator--><path codeLine="16" d="M220.804,63 C233.257,63 246.719,63 259.929,63 " fill="none" id="Struct-backto-Indicator" style="stroke:#A80036;stroke-width:1.0;"/><polygon fill="none" points="220.393,69.9999,200.393,63,220.393,55.9999,220.393,69.9999" style="stroke:#A80036;stroke-width:1.0;"/><!--MD5=[b53fdeafefaa5899beed3747a7675b3b]
@startuml
left to right direction
interface Term
interface Struct
interface Indicator {
  + nameTerm: Term
  + indicatedName: String?
  + arityTerm: Term
  + indicatedArity: Int?
  + isWellFormed: Boolean
  ' + {static} of(name: String, arity: Int): Indicator
  ' + {static} of(name: Term, arity: Term): Indicator
}

Term <|- - Struct

Struct <|- - Indicator
@enduml

@startuml
left to right direction
interface Term
interface Struct
interface Indicator {
  + nameTerm: Term
  + indicatedName: String?
  + arityTerm: Term
  + indicatedArity: Int?
  + isWellFormed: Boolean
}

Term <|- - Struct

Struct <|- - Indicator
@enduml

PlantUML version 1.2021.6beta6(Unknown compile time)
(GPL source distribution)
Java Runtime: Java(TM) SE Runtime Environment
JVM: Java HotSpot(TM) 64-Bit Server VM
Default Encoding: UTF-8
Language: en
Country: US
--></g></svg>