<?xml version="1.0" encoding="UTF-8" standalone="no"?><svg xmlns="http://www.w3.org/2000/svg" xmlns:xlink="http://www.w3.org/1999/xlink" contentScriptType="application/ecmascript" contentStyleType="text/css" height="156px" preserveAspectRatio="none" style="width:513px;height:156px;" version="1.1" viewBox="0 0 513 156" width="513px" zoomAndPan="magnify"><defs/><g><!--MD5=[9d35236b92952560f647498cf8a29acb]
class Term--><rect fill="#FEFECE" height="48" id="Term" style="stroke: #A80036; stroke-width: 1.5;" width="63" x="6" y="53"/><ellipse cx="21" cy="69" fill="#B4A7E5" rx="11" ry="11" style="stroke: #A80036; stroke-width: 1.0;"/><path d="M16.9219,64.7656 L16.9219,62.6094 L24.3125,62.6094 L24.3125,64.7656 L21.8438,64.7656 L21.8438,72.8438 L24.3125,72.8438 L24.3125,75 L16.9219,75 L16.9219,72.8438 L19.3906,72.8438 L19.3906,64.7656 L16.9219,64.7656 Z "/><text fill="#000000" font-family="sans-serif" font-size="12" font-style="italic" lengthAdjust="spacingAndGlyphs" textLength="31" x="35" y="73.1543">Term</text><line style="stroke: #A80036; stroke-width: 1.5;" x1="7" x2="68" y1="85" y2="85"/><line style="stroke: #A80036; stroke-width: 1.5;" x1="7" x2="68" y1="93" y2="93"/><!--MD5=[eb0f4986160aea42d9ece72995cb24c7]
class Struct--><rect fill="#FEFECE" height="48" id="Struct" style="stroke: #A80036; stroke-width: 1.5;" width="70" x="129" y="53"/><ellipse cx="144" cy="69" fill="#B4A7E5" rx="11" ry="11" style="stroke: #A80036; stroke-width: 1.0;"/><path d="M139.9219,64.7656 L139.9219,62.6094 L147.3125,62.6094 L147.3125,64.7656 L144.8438,64.7656 L144.8438,72.8438 L147.3125,72.8438 L147.3125,75 L139.9219,75 L139.9219,72.8438 L142.3906,72.8438 L142.3906,64.7656 L139.9219,64.7656 Z "/><text fill="#000000" font-family="sans-serif" font-size="12" font-style="italic" lengthAdjust="spacingAndGlyphs" textLength="38" x="158" y="73.1543">Struct</text><line style="stroke: #A80036; stroke-width: 1.5;" x1="130" x2="198" y1="85" y2="85"/><line style="stroke: #A80036; stroke-width: 1.5;" x1="130" x2="198" y1="93" y2="93"/><!--MD5=[ff04013806d21ddc19c98782fe2ddc6c]
class Indicator--><rect fill="#FEFECE" height="137.6328" id="Indicator" style="stroke: #A80036; stroke-width: 1.5;" width="243" x="259" y="8"/><ellipse cx="348.25" cy="24" fill="#B4A7E5" rx="11" ry="11" style="stroke: #A80036; stroke-width: 1.0;"/><path d="M344.1719,19.7656 L344.1719,17.6094 L351.5625,17.6094 L351.5625,19.7656 L349.0938,19.7656 L349.0938,27.8438 L351.5625,27.8438 L351.5625,30 L344.1719,30 L344.1719,27.8438 L346.6406,27.8438 L346.6406,19.7656 L344.1719,19.7656 Z "/><text fill="#000000" font-family="sans-serif" font-size="12" font-style="italic" lengthAdjust="spacingAndGlyphs" textLength="56" x="368.75" y="28.1543">Indicator</text><line style="stroke: #A80036; stroke-width: 1.5;" x1="260" x2="501" y1="40" y2="40"/><ellipse cx="270" cy="51" fill="none" rx="3" ry="3" style="stroke: #038048; stroke-width: 1.0;"/><text fill="#000000" font-family="sans-serif" font-size="11" lengthAdjust="spacingAndGlyphs" textLength="100" x="279" y="54.2104">nameTerm: Term</text><ellipse cx="270" cy="63.8047" fill="none" rx="3" ry="3" style="stroke: #038048; stroke-width: 1.0;"/><text fill="#000000" font-family="sans-serif" font-size="11" lengthAdjust="spacingAndGlyphs" textLength="132" x="279" y="67.0151">indicatedName: String?</text><ellipse cx="270" cy="76.6094" fill="none" rx="3" ry="3" style="stroke: #038048; stroke-width: 1.0;"/><text fill="#000000" font-family="sans-serif" font-size="11" lengthAdjust="spacingAndGlyphs" textLength="93" x="279" y="79.8198">arityTerm: Term</text><ellipse cx="270" cy="89.4141" fill="none" rx="3" ry="3" style="stroke: #038048; stroke-width: 1.0;"/><text fill="#000000" font-family="sans-serif" font-size="11" lengthAdjust="spacingAndGlyphs" textLength="104" x="279" y="92.6245">indicatedArity: Int?</text><ellipse cx="270" cy="102.2188" fill="none" rx="3" ry="3" style="stroke: #038048; stroke-width: 1.0;"/><text fill="#000000" font-family="sans-serif" font-size="11" lengthAdjust="spacingAndGlyphs" textLength="129" x="279" y="105.4292">isWellFormed: Boolean</text><line style="stroke: #A80036; stroke-width: 1.5;" x1="260" x2="501" y1="112.0234" y2="112.0234"/><ellipse cx="270" cy="123.0234" fill="#84BE84" rx="3" ry="3" style="stroke: #038048; stroke-width: 1.0;"/><text fill="#000000" font-family="sans-serif" font-size="11" lengthAdjust="spacingAndGlyphs" text-decoration="underline" textLength="205" x="279" y="126.2339">of(name: String, arity: Int): Indicator</text><ellipse cx="270" cy="135.8281" fill="#84BE84" rx="3" ry="3" style="stroke: #038048; stroke-width: 1.0;"/><text fill="#000000" font-family="sans-serif" font-size="11" lengthAdjust="spacingAndGlyphs" text-decoration="underline" textLength="217" x="279" y="139.0386">of(name: Term, arity: Term): Indicator</text><!--MD5=[f626f12429d76bc694cd64f7f069082d]
reverse link Term to Struct--><path d="M89.64,77 C102.77,77 116.58,77 128.63,77 " fill="none" id="Term&lt;-Struct" style="stroke: #A80036; stroke-width: 1.0;"/><polygon fill="none" points="89.28,84,69.28,77,89.28,70,89.28,84" style="stroke: #A80036; stroke-width: 1.0;"/><!--MD5=[bbce5c6e594f9519b0e03f998c702cd7]
reverse link Struct to Indicator--><path d="M219.78,77 C231.88,77 245.16,77 258.74,77 " fill="none" id="Struct&lt;-Indicator" style="stroke: #A80036; stroke-width: 1.0;"/><polygon fill="none" points="219.46,84,199.46,77,219.46,70,219.46,84" style="stroke: #A80036; stroke-width: 1.0;"/><!--MD5=[2b4a978ecff4d6057b3fbe6ebbb636ab]
@startuml
left to right direction
skinparam shadowing false

interface Term
interface Struct
interface Indicator {
  + nameTerm: Term
  + indicatedName: String?
  + arityTerm: Term
  + indicatedArity: Int?
  + isWellFormed: Boolean
  + {static} of(name: String, arity: Int): Indicator
  + {static} of(name: Term, arity: Term): Indicator
}

Term <|- - Struct

Struct <|- - Indicator

@enduml

PlantUML version 1.2020.02(Sun Mar 01 11:22:07 CET 2020)
(GPL source distribution)
Java Runtime: OpenJDK Runtime Environment
JVM: OpenJDK 64-Bit Server VM
Java Version: 11.0.10+9
Operating System: Linux
Default Encoding: UTF-8
Language: it
Country: IT
--></g></svg>