<?xml version="1.0" encoding="UTF-8" standalone="no"?><svg xmlns="http://www.w3.org/2000/svg" xmlns:xlink="http://www.w3.org/1999/xlink" contentScriptType="application/ecmascript" contentStyleType="text/css" height="693px" preserveAspectRatio="none" style="width:437px;height:693px;" version="1.1" viewBox="0 0 437 693" width="437px" zoomAndPan="magnify"><defs><filter height="300%" id="f40rmm9px8dzu" width="300%" x="-1" y="-1"><feGaussianBlur result="blurOut" stdDeviation="2.0"/><feColorMatrix in="blurOut" result="blurOut2" type="matrix" values="0 0 0 0 0 0 0 0 0 0 0 0 0 0 0 0 0 0 .4 0"/><feOffset dx="4.0" dy="4.0" in="blurOut2" result="blurOut3"/><feBlend in="SourceGraphic" in2="blurOut3" mode="normal"/></filter></defs><g><!--MD5=[79b2c35a8607833edf9d17d918b0cb90]
class Signature--><rect codeLine="1" fill="#FEFECE" filter="url(#f40rmm9px8dzu)" height="73.6094" id="Signature" style="stroke:#A80036;stroke-width:1.5;" width="100" x="129.5" y="497"/><ellipse cx="147.65" cy="513" fill="#ADD1B2" rx="11" ry="11" style="stroke:#A80036;stroke-width:1.0;"/><path d="M150.6188,518.6406 Q150.0406,518.9375 149.4,519.0781 Q148.7594,519.2344 148.0563,519.2344 Q145.5563,519.2344 144.2281,517.5938 Q142.9156,515.9375 142.9156,512.8125 Q142.9156,509.6875 144.2281,508.0313 Q145.5563,506.375 148.0563,506.375 Q148.7594,506.375 149.4,506.5313 Q150.0563,506.6875 150.6188,506.9844 L150.6188,509.7031 Q149.9938,509.125 149.4,508.8594 Q148.8063,508.5781 148.1813,508.5781 Q146.8375,508.5781 146.15,509.6563 Q145.4625,510.7188 145.4625,512.8125 Q145.4625,514.9063 146.15,515.9844 Q146.8375,517.0469 148.1813,517.0469 Q148.8063,517.0469 149.4,516.7813 Q149.9938,516.5 150.6188,515.9219 L150.6188,518.6406 Z " fill="#000000"/><text fill="#000000" font-family="sans-serif" font-size="12" lengthAdjust="spacing" textLength="61" x="162.35" y="517.1543">Signature</text><line style="stroke:#A80036;stroke-width:1.5;" x1="130.5" x2="228.5" y1="529" y2="529"/><ellipse cx="140.5" cy="540" fill="none" rx="3" ry="3" style="stroke:#038048;stroke-width:1.0;"/><text fill="#000000" font-family="sans-serif" font-size="11" lengthAdjust="spacing" textLength="74" x="149.5" y="543.2104">name: String</text><ellipse cx="140.5" cy="552.8047" fill="none" rx="3" ry="3" style="stroke:#038048;stroke-width:1.0;"/><text fill="#000000" font-family="sans-serif" font-size="11" lengthAdjust="spacing" textLength="47" x="149.5" y="556.0151">arity: Int</text><line style="stroke:#A80036;stroke-width:1.5;" x1="130.5" x2="228.5" y1="562.6094" y2="562.6094"/><!--MD5=[204a995c784cbe6b3a7450752a2139a2]
class Primitive--><rect codeLine="6" fill="#FEFECE" filter="url(#f40rmm9px8dzu)" height="48" id="Primitive" style="stroke:#A80036;stroke-width:1.5;" width="83" x="69" y="631"/><ellipse cx="84" cy="647" fill="#B4A7E5" rx="11" ry="11" style="stroke:#A80036;stroke-width:1.0;"/><path d="M79.9219,642.7656 L79.9219,640.6094 L87.3125,640.6094 L87.3125,642.7656 L84.8438,642.7656 L84.8438,650.8438 L87.3125,650.8438 L87.3125,653 L79.9219,653 L79.9219,650.8438 L82.3906,650.8438 L82.3906,642.7656 L79.9219,642.7656 Z " fill="#000000"/><text fill="#000000" font-family="sans-serif" font-size="12" font-style="italic" lengthAdjust="spacing" textLength="51" x="98" y="651.1543">Primitive</text><line style="stroke:#A80036;stroke-width:1.5;" x1="70" x2="151" y1="663" y2="663"/><line style="stroke:#A80036;stroke-width:1.5;" x1="70" x2="151" y1="671" y2="671"/><!--MD5=[5fc6e261d0cc3570726fb106fb4f0bb0]
class PrologFunction--><rect codeLine="8" fill="#FEFECE" filter="url(#f40rmm9px8dzu)" height="48" id="PrologFunction" style="stroke:#A80036;stroke-width:1.5;" width="125" x="187" y="631"/><ellipse cx="202" cy="647" fill="#B4A7E5" rx="11" ry="11" style="stroke:#A80036;stroke-width:1.0;"/><path d="M197.9219,642.7656 L197.9219,640.6094 L205.3125,640.6094 L205.3125,642.7656 L202.8438,642.7656 L202.8438,650.8438 L205.3125,650.8438 L205.3125,653 L197.9219,653 L197.9219,650.8438 L200.3906,650.8438 L200.3906,642.7656 L197.9219,642.7656 Z " fill="#000000"/><text fill="#000000" font-family="sans-serif" font-size="12" font-style="italic" lengthAdjust="spacing" textLength="93" x="216" y="651.1543">PrologFunction</text><line style="stroke:#A80036;stroke-width:1.5;" x1="188" x2="311" y1="663" y2="663"/><line style="stroke:#A80036;stroke-width:1.5;" x1="188" x2="311" y1="671" y2="671"/><!--MD5=[1681db427d861294dc4bf59cd2c200d7]
class Library--><rect codeLine="13" fill="#FEFECE" filter="url(#f40rmm9px8dzu)" height="150.4375" id="Library" style="stroke:#A80036;stroke-width:1.5;" width="273" x="43" y="287"/><ellipse cx="153.75" cy="303" fill="#B4A7E5" rx="11" ry="11" style="stroke:#A80036;stroke-width:1.0;"/><path d="M149.6719,298.7656 L149.6719,296.6094 L157.0625,296.6094 L157.0625,298.7656 L154.5938,298.7656 L154.5938,306.8438 L157.0625,306.8438 L157.0625,309 L149.6719,309 L149.6719,306.8438 L152.1406,306.8438 L152.1406,298.7656 L149.6719,298.7656 Z " fill="#000000"/><text fill="#000000" font-family="sans-serif" font-size="12" font-style="italic" lengthAdjust="spacing" textLength="43" x="174.25" y="307.1543">Library</text><line style="stroke:#A80036;stroke-width:1.5;" x1="44" x2="315" y1="319" y2="319"/><ellipse cx="54" cy="330" fill="none" rx="3" ry="3" style="stroke:#038048;stroke-width:1.0;"/><text fill="#000000" font-family="sans-serif" font-size="11" lengthAdjust="spacing" textLength="129" x="63" y="333.2104">operators: OperatoSet</text><ellipse cx="54" cy="342.8047" fill="none" rx="3" ry="3" style="stroke:#038048;stroke-width:1.0;"/><text fill="#000000" font-family="sans-serif" font-size="11" lengthAdjust="spacing" textLength="83" x="63" y="346.0151">theory: Theory</text><ellipse cx="54" cy="355.6094" fill="none" rx="3" ry="3" style="stroke:#038048;stroke-width:1.0;"/><text fill="#000000" font-family="sans-serif" font-size="11" lengthAdjust="spacing" textLength="217" x="63" y="358.8198">primitives: Map&lt;Signature, Primitive&gt;</text><ellipse cx="54" cy="368.4141" fill="none" rx="3" ry="3" style="stroke:#038048;stroke-width:1.0;"/><text fill="#000000" font-family="sans-serif" font-size="11" lengthAdjust="spacing" textLength="247" x="63" y="371.6245">functions: Map&lt;Signature, PrologFunction&gt;</text><line style="stroke:#A80036;stroke-width:1.0;" x1="44" x2="315" y1="378.2188" y2="378.2188"/><ellipse cx="54" cy="389.2188" fill="#84BE84" rx="3" ry="3" style="stroke:#038048;stroke-width:1.0;"/><text fill="#000000" font-family="sans-serif" font-size="11" lengthAdjust="spacing" textLength="165" x="63" y="392.4292">contains(Signature): Boolean</text><ellipse cx="54" cy="402.0234" fill="#84BE84" rx="3" ry="3" style="stroke:#038048;stroke-width:1.0;"/><text fill="#000000" font-family="sans-serif" font-size="11" lengthAdjust="spacing" textLength="161" x="63" y="405.2339">contains(Operator): Boolean</text><ellipse cx="54" cy="414.8281" fill="#84BE84" rx="3" ry="3" style="stroke:#038048;stroke-width:1.0;"/><text fill="#000000" font-family="sans-serif" font-size="11" lengthAdjust="spacing" textLength="187" x="63" y="418.0386">hasPrimitive(Signature): Boolean</text><ellipse cx="54" cy="427.6328" fill="#84BE84" rx="3" ry="3" style="stroke:#038048;stroke-width:1.0;"/><text fill="#000000" font-family="sans-serif" font-size="11" lengthAdjust="spacing" textLength="185" x="63" y="430.8433">hasFunction(Signature): Boolean</text><!--MD5=[0be40e026757eb61635dca10631d2dae]
class AliasedLibrary--><rect codeLine="27" fill="#FEFECE" filter="url(#f40rmm9px8dzu)" height="60.8047" id="AliasedLibrary" style="stroke:#A80036;stroke-width:1.5;" width="119" x="7" y="140.5"/><ellipse cx="22" cy="156.5" fill="#B4A7E5" rx="11" ry="11" style="stroke:#A80036;stroke-width:1.0;"/><path d="M17.9219,152.2656 L17.9219,150.1094 L25.3125,150.1094 L25.3125,152.2656 L22.8438,152.2656 L22.8438,160.3438 L25.3125,160.3438 L25.3125,162.5 L17.9219,162.5 L17.9219,160.3438 L20.3906,160.3438 L20.3906,152.2656 L17.9219,152.2656 Z " fill="#000000"/><text fill="#000000" font-family="sans-serif" font-size="12" font-style="italic" lengthAdjust="spacing" textLength="87" x="36" y="160.6543">AliasedLibrary</text><line style="stroke:#A80036;stroke-width:1.5;" x1="8" x2="125" y1="172.5" y2="172.5"/><ellipse cx="18" cy="183.5" fill="none" rx="3" ry="3" style="stroke:#038048;stroke-width:1.0;"/><text fill="#000000" font-family="sans-serif" font-size="11" lengthAdjust="spacing" textLength="69" x="27" y="186.7104">alias: String</text><line style="stroke:#A80036;stroke-width:1.5;" x1="8" x2="125" y1="193.3047" y2="193.3047"/><!--MD5=[45135152e4ce426d4a9c6b8b5d29808f]
class LibraryGroup--><rect codeLine="33" fill="#FEFECE" filter="url(#f40rmm9px8dzu)" height="112.0234" id="LibraryGroup" style="stroke:#A80036;stroke-width:1.5;" width="262" x="161.5" y="115"/><ellipse cx="214.75" cy="131" fill="#B4A7E5" rx="11" ry="11" style="stroke:#A80036;stroke-width:1.0;"/><path d="M210.6719,126.7656 L210.6719,124.6094 L218.0625,124.6094 L218.0625,126.7656 L215.5938,126.7656 L215.5938,134.8438 L218.0625,134.8438 L218.0625,137 L210.6719,137 L210.6719,134.8438 L213.1406,134.8438 L213.1406,126.7656 L210.6719,126.7656 Z " fill="#000000"/><text fill="#000000" font-family="sans-serif" font-size="12" font-style="italic" lengthAdjust="spacing" textLength="81" x="235.25" y="135.1543">LibraryGroup</text><rect fill="#FFFFFF" height="15.9688" style="stroke:#000000;stroke-width:1.0;stroke-dasharray:2.0,2.0;" width="64" x="362.5" y="112"/><text fill="#000000" font-family="sans-serif" font-size="12" font-style="italic" lengthAdjust="spacing" textLength="62" x="363.5" y="124.1387">L : Library</text><line style="stroke:#A80036;stroke-width:1.5;" x1="162.5" x2="422.5" y1="147" y2="147"/><ellipse cx="172.5" cy="158" fill="none" rx="3" ry="3" style="stroke:#038048;stroke-width:1.0;"/><text fill="#000000" font-family="sans-serif" font-size="11" lengthAdjust="spacing" textLength="134" x="181.5" y="161.2104">libraries: Collection&lt;L&gt;</text><line style="stroke:#A80036;stroke-width:1.0;" x1="162.5" x2="422.5" y1="167.8047" y2="167.8047"/><ellipse cx="172.5" cy="178.8047" fill="#84BE84" rx="3" ry="3" style="stroke:#038048;stroke-width:1.0;"/><text fill="#000000" font-family="sans-serif" font-size="11" lengthAdjust="spacing" textLength="144" x="181.5" y="182.0151">plus(L): LibraryGroup&lt;L&gt;</text><ellipse cx="172.5" cy="191.6094" fill="#84BE84" rx="3" ry="3" style="stroke:#038048;stroke-width:1.0;"/><text fill="#000000" font-family="sans-serif" font-size="11" lengthAdjust="spacing" textLength="236" x="181.5" y="194.8198">plus(LibraryGroup&lt;L&gt;): LibraryGroup&lt;L&gt;</text><ellipse cx="172.5" cy="204.4141" fill="#84BE84" rx="3" ry="3" style="stroke:#038048;stroke-width:1.0;"/><text fill="#000000" font-family="sans-serif" font-size="11" lengthAdjust="spacing" textLength="155" x="181.5" y="207.6245">minus(L): LibraryGroup&lt;L&gt;</text><ellipse cx="172.5" cy="217.2188" fill="#84BE84" rx="3" ry="3" style="stroke:#038048;stroke-width:1.0;"/><text fill="#000000" font-family="sans-serif" font-size="11" lengthAdjust="spacing" textLength="159" x="181.5" y="220.4292">update(L): LibraryGroup&lt;L&gt;</text><!--MD5=[43bb85fa1f498b21bff7bea42a5f5796]
class Libraries--><rect codeLine="44" fill="#FEFECE" filter="url(#f40rmm9px8dzu)" height="48" id="Libraries" style="stroke:#A80036;stroke-width:1.5;" width="85" x="137" y="7"/><ellipse cx="152" cy="23" fill="#ADD1B2" rx="11" ry="11" style="stroke:#A80036;stroke-width:1.0;"/><path d="M154.9688,28.6406 Q154.3906,28.9375 153.75,29.0781 Q153.1094,29.2344 152.4063,29.2344 Q149.9063,29.2344 148.5781,27.5938 Q147.2656,25.9375 147.2656,22.8125 Q147.2656,19.6875 148.5781,18.0313 Q149.9063,16.375 152.4063,16.375 Q153.1094,16.375 153.75,16.5313 Q154.4063,16.6875 154.9688,16.9844 L154.9688,19.7031 Q154.3438,19.125 153.75,18.8594 Q153.1563,18.5781 152.5313,18.5781 Q151.1875,18.5781 150.5,19.6563 Q149.8125,20.7188 149.8125,22.8125 Q149.8125,24.9063 150.5,25.9844 Q151.1875,27.0469 152.5313,27.0469 Q153.1563,27.0469 153.75,26.7813 Q154.3438,26.5 154.9688,25.9219 L154.9688,28.6406 Z " fill="#000000"/><text fill="#000000" font-family="sans-serif" font-size="12" lengthAdjust="spacing" textLength="53" x="166" y="27.1543">Libraries</text><line style="stroke:#A80036;stroke-width:1.5;" x1="138" x2="221" y1="39" y2="39"/><line style="stroke:#A80036;stroke-width:1.5;" x1="138" x2="221" y1="47" y2="47"/><path d="M257.5,18.5 L257.5,27 L222.12,31 L257.5,35 L257.5,43.6328 A0,0 0 0 0 257.5,43.6328 L415.5,43.6328 A0,0 0 0 0 415.5,43.6328 L415.5,28.5 L405.5,18.5 L257.5,18.5 A0,0 0 0 0 257.5,18.5 " fill="#FBFB77" filter="url(#f40rmm9px8dzu)" style="stroke:#A80036;stroke-width:1.0;"/><path d="M405.5,18.5 L405.5,28.5 L415.5,28.5 L405.5,18.5 " fill="#FBFB77" style="stroke:#A80036;stroke-width:1.0;"/><text fill="#000000" font-family="sans-serif" font-size="13" lengthAdjust="spacing" textLength="137" x="263.5" y="35.5669">this is what users use</text><!--MD5=[5f0f637bfd542d3c23ede9b4d5af1f6f]
link Signature to Primitive--><path codeLine="10" d="M158.61,571.03 C147.35,590.45 133.78,613.86 123.92,630.85 " fill="none" id="Signature-Primitive" style="stroke:#A80036;stroke-width:1.0;"/><text fill="#000000" font-family="sans-serif" font-size="13" lengthAdjust="spacing" textLength="8" x="146.332" y="590.7955">1</text><text fill="#000000" font-family="sans-serif" font-size="13" lengthAdjust="spacing" textLength="8" x="118.3339" y="619.8236">1</text><!--MD5=[9b03c7ba69cdf58719772274b503b8d2]
link Signature to PrologFunction--><path codeLine="11" d="M200.69,571.03 C212.12,590.45 225.89,613.86 235.88,630.85 " fill="none" id="Signature-PrologFunction" style="stroke:#A80036;stroke-width:1.0;"/><text fill="#000000" font-family="sans-serif" font-size="13" lengthAdjust="spacing" textLength="8" x="195.6445" y="590.7955">1</text><text fill="#000000" font-family="sans-serif" font-size="13" lengthAdjust="spacing" textLength="8" x="223.3649" y="619.8236">1</text><!--MD5=[b07e1b0794f736bb703efd9c7faae646]
reverse link Library to Signature--><path codeLine="25" d="M179.5,450.28 C179.5,466.77 179.5,483.15 179.5,496.93 " fill="none" id="Library-backto-Signature" style="stroke:#A80036;stroke-width:1.0;"/><polygon fill="#A80036" points="179.5,437.07,175.5,443.07,179.5,449.07,183.5,443.07,179.5,437.07" style="stroke:#A80036;stroke-width:1.0;"/><text fill="#000000" font-family="sans-serif" font-size="13" lengthAdjust="spacing" textLength="8" x="171.0875" y="457.6362">1</text><text fill="#000000" font-family="sans-serif" font-size="13" lengthAdjust="spacing" textLength="10" x="168.5781" y="485.8276">N</text><!--MD5=[0fcf4f6ce680225949d6caeae53448b0]
link AliasedLibrary to Library--><path codeLine="31" d="M84.16,201.53 C95.2,220 110.08,244.89 124.79,269.5 " fill="none" id="AliasedLibrary-to-Library" style="stroke:#A80036;stroke-width:1.0;"/><polygon fill="none" points="130.91,266.09,135.16,286.84,118.89,273.27,130.91,266.09" style="stroke:#A80036;stroke-width:1.0;"/><!--MD5=[24b01ef8b2aac5c81e5b7f02da37317c]
link LibraryGroup to Library--><path codeLine="42" d="M259.51,227.17 C251.59,240.42 242.92,254.92 234.31,269.33 " fill="none" id="LibraryGroup-to-Library" style="stroke:#A80036;stroke-width:1.0;"/><polygon fill="none" points="240.15,273.21,223.87,286.78,228.13,266.02,240.15,273.21" style="stroke:#A80036;stroke-width:1.0;"/><!--MD5=[5088bc5469e2757b16a9ce6465ce68aa]
reverse link Libraries to AliasedLibrary--><path codeLine="46" d="M152.21,65.32 C133.56,88.11 109.04,118.05 91.01,140.07 " fill="none" id="Libraries-backto-AliasedLibrary" style="stroke:#A80036;stroke-width:1.0;"/><polygon fill="#A80036" points="160.59,55.1,153.693,57.2049,152.9833,64.381,159.8803,62.2761,160.59,55.1" style="stroke:#A80036;stroke-width:1.0;"/><text fill="#000000" font-family="sans-serif" font-size="13" lengthAdjust="spacing" textLength="8" x="147.0057" y="74.8856">1</text><text fill="#000000" font-family="sans-serif" font-size="13" lengthAdjust="spacing" textLength="10" x="85.0339" y="129.2445">N</text><!--MD5=[b0e65a67a13bf5b2a180891d676faf28]
link Libraries to LibraryGroup--><path codeLine="48" d="M198.41,55.1 C208.45,67.36 221.38,83.15 234.43,99.08 " fill="none" id="Libraries-to-LibraryGroup" style="stroke:#A80036;stroke-width:1.0;"/><polygon fill="none" points="240.15,95.02,247.41,114.93,229.32,103.89,240.15,95.02" style="stroke:#A80036;stroke-width:1.0;"/><!--MD5=[8e5f6108988235442eac32134245c11a]
@startuml
class Signature {
    + name: String
    + arity: Int
}

interface Primitive 

interface PrologFunction

Signature "1" - - "1" Primitive
Signature "1" - - "1" PrologFunction

interface Library {
    + operators: OperatoSet
    + theory: Theory
    + primitives: Map<Signature, Primitive>
    + functions: Map<Signature, PrologFunction>
    - -
    + contains(Signature): Boolean
    + contains(Operator): Boolean
    + hasPrimitive(Signature): Boolean
    + hasFunction(Signature): Boolean
}

Library "1" *- - "N" Signature

interface AliasedLibrary {
    + alias: String
}

AliasedLibrary - -|> Library

interface LibraryGroup<L : Library> {
    + libraries: Collection<L>
    - -
    + plus(L): LibraryGroup<L>
    + plus(LibraryGroup<L>): LibraryGroup<L>
    + minus(L): LibraryGroup<L>
    + update(L): LibraryGroup<L>
}

LibraryGroup - -|> Library

class Libraries

Libraries "1" *- - "N" AliasedLibrary

Libraries - -|> LibraryGroup

note right of Libraries: this is what users use
@enduml

PlantUML version 1.2021.00(Sun Jan 10 11:25:05 CET 2021)
(MIT source distribution)
Java Runtime: OpenJDK Runtime Environment
JVM: OpenJDK 64-Bit Server VM
Default Encoding: UTF-8
Language: it
Country: IT
--></g></svg>