<?xml version="1.0" encoding="UTF-8" standalone="no"?>
<svg xmlns="http://www.w3.org/2000/svg" xmlns:xlink="http://www.w3.org/1999/xlink" contentScriptType="application/ecmascript" contentStyleType="text/css" height="178px" preserveAspectRatio="none" style="width:649px;height:178px;background:#FFFFFF;" version="1.1" viewBox="0 0 649 178" width="649px" zoomAndPan="magnify"><defs><filter height="300%" id="fdwsc0wr9m14x" width="300%" x="-1" y="-1"><feGaussianBlur result="blurOut" stdDeviation="2.0"/><feColorMatrix in="blurOut" result="blurOut2" type="matrix" values="0 0 0 0 0 0 0 0 0 0 0 0 0 0 0 0 0 0 .4 0"/><feOffset dx="4.0" dy="4.0" in="blurOut2" result="blurOut3"/><feBlend in="SourceGraphic" in2="blurOut3" mode="normal"/></filter></defs><g><!--MD5=[9d35236b92952560f647498cf8a29acb]
class Term--><rect codeLine="3" fill="#FEFECE" filter="url(#fdwsc0wr9m14x)" height="48" id="Term" style="stroke:#A80036;stroke-width:1.5;" width="63" x="7" y="75"/><ellipse cx="22" cy="91" fill="#B4A7E5" rx="11" ry="11" style="stroke:#A80036;stroke-width:1.0;"/><path d="M22.9531,87.7813 L24.6719,87.7813 C25.0625,87.7813 25.25,87.75 25.375,87.6719 C25.6406,87.5156 25.7813,87.2344 25.7813,86.9375 C25.7813,86.6719 25.6719,86.4063 25.4375,86.2344 C25.2656,86.125 25.125,86.0938 24.6719,86.0938 L19.5313,86.0938 C19.0938,86.0938 18.9688,86.1094 18.8125,86.2031 C18.5625,86.3594 18.4063,86.6563 18.4063,86.9375 C18.4063,87.2188 18.5469,87.4688 18.7656,87.6406 C18.9219,87.75 19.1094,87.7813 19.5313,87.7813 L21.25,87.7813 L21.25,94.2969 L19.5313,94.2969 C19.0938,94.2969 18.9688,94.3125 18.8125,94.4219 C18.5625,94.5781 18.4063,94.8594 18.4063,95.1563 C18.4063,95.4063 18.5469,95.6719 18.7656,95.8281 C18.9219,95.9531 19.125,96 19.5313,96 L24.6719,96 C25.4219,96 25.7813,95.7188 25.7813,95.1563 C25.7813,94.875 25.6719,94.625 25.4375,94.4531 C25.2656,94.3281 25.125,94.2969 24.6719,94.2969 L22.9531,94.2969 L22.9531,87.7813 Z " fill="#000000"/><text fill="#000000" font-family="sans-serif" font-size="12" font-style="italic" lengthAdjust="spacing" textLength="31" x="36" y="95.1543">Term</text><line style="stroke:#A80036;stroke-width:1.5;" x1="8" x2="69" y1="107" y2="107"/><line style="stroke:#A80036;stroke-width:1.5;" x1="8" x2="69" y1="115" y2="115"/><!--MD5=[eb0f4986160aea42d9ece72995cb24c7]
class Struct--><rect codeLine="4" fill="#FEFECE" filter="url(#fdwsc0wr9m14x)" height="48" id="Struct" style="stroke:#A80036;stroke-width:1.5;" width="70" x="130" y="75"/><ellipse cx="145" cy="91" fill="#B4A7E5" rx="11" ry="11" style="stroke:#A80036;stroke-width:1.0;"/><path d="M145.9531,87.7813 L147.6719,87.7813 C148.0625,87.7813 148.25,87.75 148.375,87.6719 C148.6406,87.5156 148.7813,87.2344 148.7813,86.9375 C148.7813,86.6719 148.6719,86.4063 148.4375,86.2344 C148.2656,86.125 148.125,86.0938 147.6719,86.0938 L142.5313,86.0938 C142.0938,86.0938 141.9688,86.1094 141.8125,86.2031 C141.5625,86.3594 141.4063,86.6563 141.4063,86.9375 C141.4063,87.2188 141.5469,87.4688 141.7656,87.6406 C141.9219,87.75 142.1094,87.7813 142.5313,87.7813 L144.25,87.7813 L144.25,94.2969 L142.5313,94.2969 C142.0938,94.2969 141.9688,94.3125 141.8125,94.4219 C141.5625,94.5781 141.4063,94.8594 141.4063,95.1563 C141.4063,95.4063 141.5469,95.6719 141.7656,95.8281 C141.9219,95.9531 142.125,96 142.5313,96 L147.6719,96 C148.4219,96 148.7813,95.7188 148.7813,95.1563 C148.7813,94.875 148.6719,94.625 148.4375,94.4531 C148.2656,94.3281 148.125,94.2969 147.6719,94.2969 L145.9531,94.2969 L145.9531,87.7813 Z " fill="#000000"/><text fill="#000000" font-family="sans-serif" font-size="12" font-style="italic" lengthAdjust="spacing" textLength="38" x="159" y="95.1543">Struct</text><line style="stroke:#A80036;stroke-width:1.5;" x1="131" x2="199" y1="107" y2="107"/><line style="stroke:#A80036;stroke-width:1.5;" x1="131" x2="199" y1="115" y2="115"/><!--MD5=[c160724f8e3bb89ca8141a12554ac2e3]
class Collection--><rect codeLine="5" fill="#FEFECE" filter="url(#fdwsc0wr9m14x)" height="48" id="Collection" style="stroke:#A80036;stroke-width:1.5;" width="90" x="260" y="33"/><ellipse cx="275" cy="49" fill="#B4A7E5" rx="11" ry="11" style="stroke:#A80036;stroke-width:1.0;"/><path d="M275.9531,45.7813 L277.6719,45.7813 C278.0625,45.7813 278.25,45.75 278.375,45.6719 C278.6406,45.5156 278.7813,45.2344 278.7813,44.9375 C278.7813,44.6719 278.6719,44.4063 278.4375,44.2344 C278.2656,44.125 278.125,44.0938 277.6719,44.0938 L272.5313,44.0938 C272.0938,44.0938 271.9688,44.1094 271.8125,44.2031 C271.5625,44.3594 271.4063,44.6563 271.4063,44.9375 C271.4063,45.2188 271.5469,45.4688 271.7656,45.6406 C271.9219,45.75 272.1094,45.7813 272.5313,45.7813 L274.25,45.7813 L274.25,52.2969 L272.5313,52.2969 C272.0938,52.2969 271.9688,52.3125 271.8125,52.4219 C271.5625,52.5781 271.4063,52.8594 271.4063,53.1563 C271.4063,53.4063 271.5469,53.6719 271.7656,53.8281 C271.9219,53.9531 272.125,54 272.5313,54 L277.6719,54 C278.4219,54 278.7813,53.7188 278.7813,53.1563 C278.7813,52.875 278.6719,52.625 278.4375,52.4531 C278.2656,52.3281 278.125,52.2969 277.6719,52.2969 L275.9531,52.2969 L275.9531,45.7813 Z " fill="#000000"/><text fill="#000000" font-family="sans-serif" font-size="12" font-style="italic" lengthAdjust="spacing" textLength="58" x="289" y="53.1543">Collection</text><line style="stroke:#A80036;stroke-width:1.5;" x1="261" x2="349" y1="65" y2="65"/><line style="stroke:#A80036;stroke-width:1.5;" x1="261" x2="349" y1="73" y2="73"/><!--MD5=[f18b0f967872e82ff276115ca1b4c569]
class Atom--><rect codeLine="6" fill="#FEFECE" filter="url(#fdwsc0wr9m14x)" height="48" id="Atom" style="stroke:#A80036;stroke-width:1.5;" width="64" x="273" y="116"/><ellipse cx="288" cy="132" fill="#B4A7E5" rx="11" ry="11" style="stroke:#A80036;stroke-width:1.0;"/><path d="M288.9531,128.7813 L290.6719,128.7813 C291.0625,128.7813 291.25,128.75 291.375,128.6719 C291.6406,128.5156 291.7813,128.2344 291.7813,127.9375 C291.7813,127.6719 291.6719,127.4063 291.4375,127.2344 C291.2656,127.125 291.125,127.0938 290.6719,127.0938 L285.5313,127.0938 C285.0938,127.0938 284.9688,127.1094 284.8125,127.2031 C284.5625,127.3594 284.4063,127.6563 284.4063,127.9375 C284.4063,128.2188 284.5469,128.4688 284.7656,128.6406 C284.9219,128.75 285.1094,128.7813 285.5313,128.7813 L287.25,128.7813 L287.25,135.2969 L285.5313,135.2969 C285.0938,135.2969 284.9688,135.3125 284.8125,135.4219 C284.5625,135.5781 284.4063,135.8594 284.4063,136.1563 C284.4063,136.4063 284.5469,136.6719 284.7656,136.8281 C284.9219,136.9531 285.125,137 285.5313,137 L290.6719,137 C291.4219,137 291.7813,136.7188 291.7813,136.1563 C291.7813,135.875 291.6719,135.625 291.4375,135.4531 C291.2656,135.3281 291.125,135.2969 290.6719,135.2969 L288.9531,135.2969 L288.9531,128.7813 Z " fill="#000000"/><text fill="#000000" font-family="sans-serif" font-size="12" font-style="italic" lengthAdjust="spacing" textLength="32" x="302" y="136.1543">Atom</text><line style="stroke:#A80036;stroke-width:1.5;" x1="274" x2="336" y1="148" y2="148"/><line style="stroke:#A80036;stroke-width:1.5;" x1="274" x2="336" y1="156" y2="156"/><!--MD5=[302c72c1573bd1a597976f8c721380e9]
class Empty--><rect codeLine="7" fill="#FEFECE" filter="url(#fdwsc0wr9m14x)" height="48" id="Empty" style="stroke:#A80036;stroke-width:1.5;" width="72" x="410" y="116"/><ellipse cx="425" cy="132" fill="#B4A7E5" rx="11" ry="11" style="stroke:#A80036;stroke-width:1.0;"/><path d="M425.9531,128.7813 L427.6719,128.7813 C428.0625,128.7813 428.25,128.75 428.375,128.6719 C428.6406,128.5156 428.7813,128.2344 428.7813,127.9375 C428.7813,127.6719 428.6719,127.4063 428.4375,127.2344 C428.2656,127.125 428.125,127.0938 427.6719,127.0938 L422.5313,127.0938 C422.0938,127.0938 421.9688,127.1094 421.8125,127.2031 C421.5625,127.3594 421.4063,127.6563 421.4063,127.9375 C421.4063,128.2188 421.5469,128.4688 421.7656,128.6406 C421.9219,128.75 422.1094,128.7813 422.5313,128.7813 L424.25,128.7813 L424.25,135.2969 L422.5313,135.2969 C422.0938,135.2969 421.9688,135.3125 421.8125,135.4219 C421.5625,135.5781 421.4063,135.8594 421.4063,136.1563 C421.4063,136.4063 421.5469,136.6719 421.7656,136.8281 C421.9219,136.9531 422.125,137 422.5313,137 L427.6719,137 C428.4219,137 428.7813,136.7188 428.7813,136.1563 C428.7813,135.875 428.6719,135.625 428.4375,135.4531 C428.2656,135.3281 428.125,135.2969 427.6719,135.2969 L425.9531,135.2969 L425.9531,128.7813 Z " fill="#000000"/><text fill="#000000" font-family="sans-serif" font-size="12" font-style="italic" lengthAdjust="spacing" textLength="40" x="439" y="136.1543">Empty</text><line style="stroke:#A80036;stroke-width:1.5;" x1="411" x2="481" y1="148" y2="148"/><line style="stroke:#A80036;stroke-width:1.5;" x1="411" x2="481" y1="156" y2="156"/><!--MD5=[e7969329aebad34cb4c65e60c1606de9]
class EmptyList--><rect codeLine="11" fill="#FEFECE" filter="url(#fdwsc0wr9m14x)" height="48" id="EmptyList" style="stroke:#A80036;stroke-width:1.5;" width="93" x="542" y="116"/><ellipse cx="557" cy="132" fill="#B4A7E5" rx="11" ry="11" style="stroke:#A80036;stroke-width:1.0;"/><path d="M557.9531,128.7813 L559.6719,128.7813 C560.0625,128.7813 560.25,128.75 560.375,128.6719 C560.6406,128.5156 560.7813,128.2344 560.7813,127.9375 C560.7813,127.6719 560.6719,127.4063 560.4375,127.2344 C560.2656,127.125 560.125,127.0938 559.6719,127.0938 L554.5313,127.0938 C554.0938,127.0938 553.9688,127.1094 553.8125,127.2031 C553.5625,127.3594 553.4063,127.6563 553.4063,127.9375 C553.4063,128.2188 553.5469,128.4688 553.7656,128.6406 C553.9219,128.75 554.1094,128.7813 554.5313,128.7813 L556.25,128.7813 L556.25,135.2969 L554.5313,135.2969 C554.0938,135.2969 553.9688,135.3125 553.8125,135.4219 C553.5625,135.5781 553.4063,135.8594 553.4063,136.1563 C553.4063,136.4063 553.5469,136.6719 553.7656,136.8281 C553.9219,136.9531 554.125,137 554.5313,137 L559.6719,137 C560.4219,137 560.7813,136.7188 560.7813,136.1563 C560.7813,135.875 560.6719,135.625 560.4375,135.4531 C560.2656,135.3281 560.125,135.2969 559.6719,135.2969 L557.9531,135.2969 L557.9531,128.7813 Z " fill="#000000"/><text fill="#000000" font-family="sans-serif" font-size="12" font-style="italic" lengthAdjust="spacing" textLength="61" x="571" y="136.1543">EmptyList</text><line style="stroke:#A80036;stroke-width:1.5;" x1="543" x2="634" y1="148" y2="148"/><line style="stroke:#A80036;stroke-width:1.5;" x1="543" x2="634" y1="156" y2="156"/><!--MD5=[3d4177ac58b4411586d067f34e84928f]
class List--><rect codeLine="14" fill="#FEFECE" filter="url(#fdwsc0wr9m14x)" height="48" id="List" style="stroke:#A80036;stroke-width:1.5;" width="53" x="419.5" y="33"/><ellipse cx="434.5" cy="49" fill="#B4A7E5" rx="11" ry="11" style="stroke:#A80036;stroke-width:1.0;"/><path d="M435.4531,45.7813 L437.1719,45.7813 C437.5625,45.7813 437.75,45.75 437.875,45.6719 C438.1406,45.5156 438.2813,45.2344 438.2813,44.9375 C438.2813,44.6719 438.1719,44.4063 437.9375,44.2344 C437.7656,44.125 437.625,44.0938 437.1719,44.0938 L432.0313,44.0938 C431.5938,44.0938 431.4688,44.1094 431.3125,44.2031 C431.0625,44.3594 430.9063,44.6563 430.9063,44.9375 C430.9063,45.2188 431.0469,45.4688 431.2656,45.6406 C431.4219,45.75 431.6094,45.7813 432.0313,45.7813 L433.75,45.7813 L433.75,52.2969 L432.0313,52.2969 C431.5938,52.2969 431.4688,52.3125 431.3125,52.4219 C431.0625,52.5781 430.9063,52.8594 430.9063,53.1563 C430.9063,53.4063 431.0469,53.6719 431.2656,53.8281 C431.4219,53.9531 431.625,54 432.0313,54 L437.1719,54 C437.9219,54 438.2813,53.7188 438.2813,53.1563 C438.2813,52.875 438.1719,52.625 437.9375,52.4531 C437.7656,52.3281 437.625,52.2969 437.1719,52.2969 L435.4531,52.2969 L435.4531,45.7813 Z " fill="#000000"/><text fill="#000000" font-family="sans-serif" font-size="12" font-style="italic" lengthAdjust="spacing" textLength="21" x="448.5" y="53.1543">List</text><line style="stroke:#A80036;stroke-width:1.5;" x1="420.5" x2="471.5" y1="65" y2="65"/><line style="stroke:#A80036;stroke-width:1.5;" x1="420.5" x2="471.5" y1="73" y2="73"/><!--MD5=[e9bf4637ac83eb6af140c7019666e1f6]
class Cons--><rect codeLine="27" fill="#FEFECE" filter="url(#fdwsc0wr9m14x)" height="73.6094" id="Cons" style="stroke:#A80036;stroke-width:1.5;" width="92" x="542.5" y="7"/><ellipse cx="571.45" cy="23" fill="#B4A7E5" rx="11" ry="11" style="stroke:#A80036;stroke-width:1.0;"/><path d="M572.4031,19.7813 L574.1219,19.7813 C574.5125,19.7813 574.7,19.75 574.825,19.6719 C575.0906,19.5156 575.2313,19.2344 575.2313,18.9375 C575.2313,18.6719 575.1219,18.4063 574.8875,18.2344 C574.7156,18.125 574.575,18.0938 574.1219,18.0938 L568.9813,18.0938 C568.5438,18.0938 568.4188,18.1094 568.2625,18.2031 C568.0125,18.3594 567.8563,18.6563 567.8563,18.9375 C567.8563,19.2188 567.9969,19.4688 568.2156,19.6406 C568.3719,19.75 568.5594,19.7813 568.9813,19.7813 L570.7,19.7813 L570.7,26.2969 L568.9813,26.2969 C568.5438,26.2969 568.4188,26.3125 568.2625,26.4219 C568.0125,26.5781 567.8563,26.8594 567.8563,27.1563 C567.8563,27.4063 567.9969,27.6719 568.2156,27.8281 C568.3719,27.9531 568.575,28 568.9813,28 L574.1219,28 C574.8719,28 575.2313,27.7188 575.2313,27.1563 C575.2313,26.875 575.1219,26.625 574.8875,26.4531 C574.7156,26.3281 574.575,26.2969 574.1219,26.2969 L572.4031,26.2969 L572.4031,19.7813 Z " fill="#000000"/><text fill="#000000" font-family="sans-serif" font-size="12" font-style="italic" lengthAdjust="spacing" textLength="29" x="588.55" y="27.1543">Cons</text><line style="stroke:#A80036;stroke-width:1.5;" x1="543.5" x2="633.5" y1="39" y2="39"/><ellipse cx="553.5" cy="50" rx="3" ry="3" style="stroke:#038048;stroke-width:1.0;fill:none;"/><text fill="#000000" font-family="sans-serif" font-size="11" lengthAdjust="spacing" textLength="66" x="562.5" y="53.2104">head: Term</text><ellipse cx="553.5" cy="62.8047" rx="3" ry="3" style="stroke:#038048;stroke-width:1.0;fill:none;"/><text fill="#000000" font-family="sans-serif" font-size="11" lengthAdjust="spacing" textLength="54" x="562.5" y="66.0151">tail: Term</text><line style="stroke:#A80036;stroke-width:1.5;" x1="543.5" x2="633.5" y1="72.6094" y2="72.6094"/><!--MD5=[f626f12429d76bc694cd64f7f069082d]
reverse link Term to Struct--><path codeLine="34" d="M90.6401,99 C103.7691,99 117.579,99 129.632,99 " fill="none" id="Term-backto-Struct" style="stroke:#A80036;stroke-width:1.0;"/><polygon fill="none" points="90.2753,105.9999,70.2753,99,90.2753,91.9999,90.2753,105.9999" style="stroke:#A80036;stroke-width:1.0;"/><!--MD5=[5d5281d9d86ea5bbb09f5d4bbd5d543a]
reverse link Struct to Collection--><path codeLine="35" d="M219.475,82.7248 C232.831,78.6601 247.005,74.3462 259.853,70.4362 " fill="none" id="Struct-backto-Collection" style="stroke:#A80036;stroke-width:1.0;"/><polygon fill="none" points="221.284,89.4914,200.112,88.618,217.208,76.098,221.284,89.4914" style="stroke:#A80036;stroke-width:1.0;"/><!--MD5=[71ce62bb6f3323542defcc754b11eb47]
reverse link Struct to Atom--><path codeLine="37" d="M219.501,114.8951 C237.477,120.2359 256.933,126.0164 272.64,130.6828 " fill="none" id="Struct-backto-Atom" style="stroke:#A80036;stroke-width:1.0;"/><polygon fill="none" points="217.291,121.541,200.112,109.1348,221.278,108.1207,217.291,121.541" style="stroke:#A80036;stroke-width:1.0;"/><!--MD5=[0159284274f96a472eb2618ad803aaca]
reverse link Collection to List--><path codeLine="38" d="M370.541,57 C387.792,57 405.453,57 419.243,57 " fill="none" id="Collection-backto-List" style="stroke:#A80036;stroke-width:1.0;"/><polygon fill="none" points="370.363,64,350.363,57,370.363,50,370.363,64" style="stroke:#A80036;stroke-width:1.0;"/><!--MD5=[898712309eb8fbecc3952bd38dd229e1]
reverse link Atom to Empty--><path codeLine="40" d="M357.409,140 C374.92,140 394.077,140 409.999,140 " fill="none" id="Atom-backto-Empty" style="stroke:#A80036;stroke-width:1.0;"/><polygon fill="none" points="357.194,146.9999,337.194,140,357.194,132.9999,357.194,146.9999" style="stroke:#A80036;stroke-width:1.0;"/><!--MD5=[a9ce24b707eff292148d40bd617e660a]
reverse link Empty to EmptyList--><path codeLine="42" d="M502.46,140 C515.562,140 529.383,140 541.986,140 " fill="none" id="Empty-backto-EmptyList" style="stroke:#A80036;stroke-width:1.0;"/><polygon fill="none" points="502.092,146.9999,482.092,140,502.092,132.9999,502.092,146.9999" style="stroke:#A80036;stroke-width:1.0;"/><!--MD5=[b5af1b3c3de85c746cad2571a0bb747a]
reverse link List to EmptyList--><path codeLine="44" d="M490.259,82.555 C508.243,93.1789 529.01,105.447 546.723,115.9111 " fill="none" id="List-backto-EmptyList" style="stroke:#A80036;stroke-width:1.0;"/><polygon fill="none" points="486.429,88.423,472.77,72.2235,493.55,76.3691,486.429,88.423" style="stroke:#A80036;stroke-width:1.0;"/><!--MD5=[86931e52732ee1979ef73de364a25d1a]
reverse link List to Cons--><path codeLine="45" d="M492.86,52.757 C508.718,51.289 526.468,49.647 542.275,48.185 " fill="none" id="List-backto-Cons" style="stroke:#A80036;stroke-width:1.0;"/><polygon fill="none" points="493.33,59.743,472.77,54.616,492.04,45.803,493.33,59.743" style="stroke:#A80036;stroke-width:1.0;"/><!--MD5=[5317561db74ff521add0c56d473adbef]
@startuml
left to right direction

interface Term
interface Struct
interface Collection
interface Atom
interface Empty {
  ' + {static} list(): EmptyList
  ' + {static} set(): EmptySet
}
interface EmptyList {
  ' + {static} invoke(): EmptyList
}
interface List {
  ' + size: Int
  ' + unfoldedArray: Array<Term>
  ' + unfoldedList: List<Term>
  ' + unfoldedSequence: Sequence<Term>
  ' + toArray(): Array<Term>
  ' + toList(): List<Term>
  ' + toSequence(): Sequence<Term>
  ' + {static} empty(): List
  ' + {static} of(**varargs** items: Term): List
  ' + {static} of(items: Iterable<Term>): List
  ' + {static} from(iterable: Iterable<Term>, last: Term? **= null**): List
}
interface Cons {
  + head: Term
  + tail: Term
  ' + {static} of(head: Term, tail: Term): Cons
  ' + {static} singleton(head: Term): Cons
}

Term <|- - Struct
Struct <|- - Collection

Struct <|- - Atom
Collection <|- - List

Atom <|- - Empty

Empty <|- - EmptyList

List <|- - EmptyList
List <|- - Cons
@enduml

@startuml
left to right direction

interface Term
interface Struct
interface Collection
interface Atom
interface Empty {
}
interface EmptyList {
}
interface List {
}
interface Cons {
  + head: Term
  + tail: Term
}

Term <|- - Struct
Struct <|- - Collection

Struct <|- - Atom
Collection <|- - List

Atom <|- - Empty

Empty <|- - EmptyList

List <|- - EmptyList
List <|- - Cons
@enduml

PlantUML version 1.2021.6beta6(Unknown compile time)
(GPL source distribution)
Java Runtime: Java(TM) SE Runtime Environment
JVM: Java HotSpot(TM) 64-Bit Server VM
Default Encoding: UTF-8
Language: en
Country: US
--></g></svg>