<?xml version="1.0" encoding="UTF-8" standalone="no"?><svg xmlns="http://www.w3.org/2000/svg" xmlns:xlink="http://www.w3.org/1999/xlink" contentScriptType="application/ecmascript" contentStyleType="text/css" height="304px" preserveAspectRatio="none" style="width:956px;height:304px;" version="1.1" viewBox="0 0 956 304" width="956px" zoomAndPan="magnify"><defs/><g><!--MD5=[eb0f4986160aea42d9ece72995cb24c7]
class Struct--><rect fill="#FEFECE" height="48" id="Struct" style="stroke: #A80036; stroke-width: 1.5;" width="70" x="6" y="98.5"/><ellipse cx="21" cy="114.5" fill="#B4A7E5" rx="11" ry="11" style="stroke: #A80036; stroke-width: 1.0;"/><path d="M16.9219,110.2656 L16.9219,108.1094 L24.3125,108.1094 L24.3125,110.2656 L21.8438,110.2656 L21.8438,118.3438 L24.3125,118.3438 L24.3125,120.5 L16.9219,120.5 L16.9219,118.3438 L19.3906,118.3438 L19.3906,110.2656 L16.9219,110.2656 Z "/><text fill="#000000" font-family="sans-serif" font-size="12" font-style="italic" lengthAdjust="spacingAndGlyphs" textLength="38" x="35" y="118.6543">Struct</text><line style="stroke: #A80036; stroke-width: 1.5;" x1="7" x2="75" y1="130.5" y2="130.5"/><line style="stroke: #A80036; stroke-width: 1.5;" x1="7" x2="75" y1="138.5" y2="138.5"/><!--MD5=[f18b0f967872e82ff276115ca1b4c569]
class Atom--><rect fill="#FEFECE" height="48" id="Atom" style="stroke: #A80036; stroke-width: 1.5;" width="64" x="276.5" y="21.5"/><ellipse cx="291.5" cy="37.5" fill="#B4A7E5" rx="11" ry="11" style="stroke: #A80036; stroke-width: 1.0;"/><path d="M287.4219,33.2656 L287.4219,31.1094 L294.8125,31.1094 L294.8125,33.2656 L292.3438,33.2656 L292.3438,41.3438 L294.8125,41.3438 L294.8125,43.5 L287.4219,43.5 L287.4219,41.3438 L289.8906,41.3438 L289.8906,33.2656 L287.4219,33.2656 Z "/><text fill="#000000" font-family="sans-serif" font-size="12" font-style="italic" lengthAdjust="spacingAndGlyphs" textLength="32" x="305.5" y="41.6543">Atom</text><line style="stroke: #A80036; stroke-width: 1.5;" x1="277.5" x2="339.5" y1="53.5" y2="53.5"/><line style="stroke: #A80036; stroke-width: 1.5;" x1="277.5" x2="339.5" y1="61.5" y2="61.5"/><!--MD5=[302c72c1573bd1a597976f8c721380e9]
class Empty--><rect fill="#FEFECE" height="73.6094" id="Empty" style="stroke: #A80036; stroke-width: 1.5;" width="114" x="589.5" y="8.5"/><ellipse cx="623.85" cy="24.5" fill="#B4A7E5" rx="11" ry="11" style="stroke: #A80036; stroke-width: 1.0;"/><path d="M619.7719,20.2656 L619.7719,18.1094 L627.1625,18.1094 L627.1625,20.2656 L624.6938,20.2656 L624.6938,28.3438 L627.1625,28.3438 L627.1625,30.5 L619.7719,30.5 L619.7719,28.3438 L622.2406,28.3438 L622.2406,20.2656 L619.7719,20.2656 Z "/><text fill="#000000" font-family="sans-serif" font-size="12" font-style="italic" lengthAdjust="spacingAndGlyphs" textLength="39" x="642.15" y="28.6543">Empty</text><line style="stroke: #A80036; stroke-width: 1.5;" x1="590.5" x2="702.5" y1="40.5" y2="40.5"/><line style="stroke: #A80036; stroke-width: 1.5;" x1="590.5" x2="702.5" y1="48.5" y2="48.5"/><ellipse cx="600.5" cy="59.5" fill="#84BE84" rx="3" ry="3" style="stroke: #038048; stroke-width: 1.0;"/><text fill="#000000" font-family="sans-serif" font-size="11" lengthAdjust="spacingAndGlyphs" text-decoration="underline" textLength="88" x="609.5" y="62.7104">list(): EmptyList</text><ellipse cx="600.5" cy="72.3047" fill="#84BE84" rx="3" ry="3" style="stroke: #038048; stroke-width: 1.0;"/><text fill="#000000" font-family="sans-serif" font-size="11" lengthAdjust="spacingAndGlyphs" text-decoration="underline" textLength="88" x="609.5" y="75.5151">set(): EmptySet</text><!--MD5=[e7969329aebad34cb4c65e60c1606de9]
class EmptyList--><rect fill="#FEFECE" height="60.8047" id="EmptyList" style="stroke: #A80036; stroke-width: 1.5;" width="133" x="812" y="60"/><ellipse cx="845.45" cy="76" fill="#B4A7E5" rx="11" ry="11" style="stroke: #A80036; stroke-width: 1.0;"/><path d="M841.3719,71.7656 L841.3719,69.6094 L848.7625,69.6094 L848.7625,71.7656 L846.2938,71.7656 L846.2938,79.8438 L848.7625,79.8438 L848.7625,82 L841.3719,82 L841.3719,79.8438 L843.8406,79.8438 L843.8406,71.7656 L841.3719,71.7656 Z "/><text fill="#000000" font-family="sans-serif" font-size="12" font-style="italic" lengthAdjust="spacingAndGlyphs" textLength="60" x="863.55" y="80.1543">EmptyList</text><line style="stroke: #A80036; stroke-width: 1.5;" x1="813" x2="944" y1="92" y2="92"/><line style="stroke: #A80036; stroke-width: 1.5;" x1="813" x2="944" y1="100" y2="100"/><ellipse cx="823" cy="111" fill="#84BE84" rx="3" ry="3" style="stroke: #038048; stroke-width: 1.0;"/><text fill="#000000" font-family="sans-serif" font-size="11" lengthAdjust="spacingAndGlyphs" text-decoration="underline" textLength="107" x="832" y="114.2104">invoke(): EmptyList</text><!--MD5=[3d4177ac58b4411586d067f34e84928f]
class List--><rect fill="#FEFECE" height="188.8516" id="List" style="stroke: #A80036; stroke-width: 1.5;" width="345" x="136" y="105"/><ellipse cx="293.75" cy="121" fill="#B4A7E5" rx="11" ry="11" style="stroke: #A80036; stroke-width: 1.0;"/><path d="M289.6719,116.7656 L289.6719,114.6094 L297.0625,114.6094 L297.0625,116.7656 L294.5938,116.7656 L294.5938,124.8438 L297.0625,124.8438 L297.0625,127 L289.6719,127 L289.6719,124.8438 L292.1406,124.8438 L292.1406,116.7656 L289.6719,116.7656 Z "/><text fill="#000000" font-family="sans-serif" font-size="12" font-style="italic" lengthAdjust="spacingAndGlyphs" textLength="21" x="314.25" y="125.1543">List</text><line style="stroke: #A80036; stroke-width: 1.5;" x1="137" x2="480" y1="137" y2="137"/><ellipse cx="147" cy="148" fill="none" rx="3" ry="3" style="stroke: #038048; stroke-width: 1.0;"/><text fill="#000000" font-family="sans-serif" font-size="11" lengthAdjust="spacingAndGlyphs" textLength="44" x="156" y="151.2104">size: Int</text><ellipse cx="147" cy="160.8047" fill="none" rx="3" ry="3" style="stroke: #038048; stroke-width: 1.0;"/><text fill="#000000" font-family="sans-serif" font-size="11" lengthAdjust="spacingAndGlyphs" textLength="165" x="156" y="164.0151">unfoldedArray: Array&lt;Term&gt;</text><ellipse cx="147" cy="173.6094" fill="none" rx="3" ry="3" style="stroke: #038048; stroke-width: 1.0;"/><text fill="#000000" font-family="sans-serif" font-size="11" lengthAdjust="spacingAndGlyphs" textLength="145" x="156" y="176.8198">unfoldedList: List&lt;Term&gt;</text><ellipse cx="147" cy="186.4141" fill="none" rx="3" ry="3" style="stroke: #038048; stroke-width: 1.0;"/><text fill="#000000" font-family="sans-serif" font-size="11" lengthAdjust="spacingAndGlyphs" textLength="217" x="156" y="189.6245">unfoldedSequence: Sequence&lt;Term&gt;</text><line style="stroke: #A80036; stroke-width: 1.5;" x1="137" x2="480" y1="196.2188" y2="196.2188"/><ellipse cx="147" cy="207.2188" fill="#84BE84" rx="3" ry="3" style="stroke: #038048; stroke-width: 1.0;"/><text fill="#000000" font-family="sans-serif" font-size="11" lengthAdjust="spacingAndGlyphs" textLength="135" x="156" y="210.4292">toArray(): Array&lt;Term&gt;</text><ellipse cx="147" cy="220.0234" fill="#84BE84" rx="3" ry="3" style="stroke: #038048; stroke-width: 1.0;"/><text fill="#000000" font-family="sans-serif" font-size="11" lengthAdjust="spacingAndGlyphs" textLength="115" x="156" y="223.2339">toList(): List&lt;Term&gt;</text><ellipse cx="147" cy="232.8281" fill="#84BE84" rx="3" ry="3" style="stroke: #038048; stroke-width: 1.0;"/><text fill="#000000" font-family="sans-serif" font-size="11" lengthAdjust="spacingAndGlyphs" textLength="187" x="156" y="236.0386">toSequence(): Sequence&lt;Term&gt;</text><ellipse cx="147" cy="245.6328" fill="#84BE84" rx="3" ry="3" style="stroke: #038048; stroke-width: 1.0;"/><text fill="#000000" font-family="sans-serif" font-size="11" lengthAdjust="spacingAndGlyphs" text-decoration="underline" textLength="71" x="156" y="248.8433">empty(): List</text><ellipse cx="147" cy="258.4375" fill="#84BE84" rx="3" ry="3" style="stroke: #038048; stroke-width: 1.0;"/><text fill="#000000" font-family="sans-serif" font-size="11" lengthAdjust="spacingAndGlyphs" text-decoration="underline" textLength="15" x="156" y="261.6479">of(</text><text fill="#000000" font-family="sans-serif" font-size="11" font-weight="bold" lengthAdjust="spacingAndGlyphs" text-decoration="underline" textLength="48" x="171" y="261.6479">varargs</text><text fill="#000000" font-family="sans-serif" font-size="11" lengthAdjust="spacingAndGlyphs" text-decoration="underline" textLength="102" x="223" y="261.6479">items: Term): List</text><ellipse cx="147" cy="271.2422" fill="#84BE84" rx="3" ry="3" style="stroke: #038048; stroke-width: 1.0;"/><text fill="#000000" font-family="sans-serif" font-size="11" lengthAdjust="spacingAndGlyphs" text-decoration="underline" textLength="178" x="156" y="274.4526">of(items: Iterable&lt;Term&gt;): List</text><ellipse cx="147" cy="284.0469" fill="#84BE84" rx="3" ry="3" style="stroke: #038048; stroke-width: 1.0;"/><text fill="#000000" font-family="sans-serif" font-size="11" lengthAdjust="spacingAndGlyphs" text-decoration="underline" textLength="246" x="156" y="287.2573">from(iterable: Iterable&lt;Term&gt;, last: Term?</text><text fill="#000000" font-family="sans-serif" font-size="11" font-weight="bold" lengthAdjust="spacingAndGlyphs" text-decoration="underline" textLength="37" x="406" y="287.2573">= null</text><text fill="#000000" font-family="sans-serif" font-size="11" lengthAdjust="spacingAndGlyphs" text-decoration="underline" textLength="32" x="443" y="287.2573">): List</text><!--MD5=[e9bf4637ac83eb6af140c7019666e1f6]
class Cons--><rect fill="#FEFECE" height="99.2188" id="Cons" style="stroke: #A80036; stroke-width: 1.5;" width="211" x="541" y="189"/><ellipse cx="627.25" cy="205" fill="#B4A7E5" rx="11" ry="11" style="stroke: #A80036; stroke-width: 1.0;"/><path d="M623.1719,200.7656 L623.1719,198.6094 L630.5625,198.6094 L630.5625,200.7656 L628.0938,200.7656 L628.0938,208.8438 L630.5625,208.8438 L630.5625,211 L623.1719,211 L623.1719,208.8438 L625.6406,208.8438 L625.6406,200.7656 L623.1719,200.7656 Z "/><text fill="#000000" font-family="sans-serif" font-size="12" font-style="italic" lengthAdjust="spacingAndGlyphs" textLength="30" x="647.75" y="209.1543">Cons</text><line style="stroke: #A80036; stroke-width: 1.5;" x1="542" x2="751" y1="221" y2="221"/><ellipse cx="552" cy="232" fill="none" rx="3" ry="3" style="stroke: #038048; stroke-width: 1.0;"/><text fill="#000000" font-family="sans-serif" font-size="11" lengthAdjust="spacingAndGlyphs" textLength="66" x="561" y="235.2104">head: Term</text><ellipse cx="552" cy="244.8047" fill="none" rx="3" ry="3" style="stroke: #038048; stroke-width: 1.0;"/><text fill="#000000" font-family="sans-serif" font-size="11" lengthAdjust="spacingAndGlyphs" textLength="55" x="561" y="248.0151">tail: Term</text><line style="stroke: #A80036; stroke-width: 1.5;" x1="542" x2="751" y1="254.6094" y2="254.6094"/><ellipse cx="552" cy="265.6094" fill="#84BE84" rx="3" ry="3" style="stroke: #038048; stroke-width: 1.0;"/><text fill="#000000" font-family="sans-serif" font-size="11" lengthAdjust="spacingAndGlyphs" text-decoration="underline" textLength="185" x="561" y="268.8198">of(head: Term, tail: Term): Cons</text><ellipse cx="552" cy="278.4141" fill="#84BE84" rx="3" ry="3" style="stroke: #038048; stroke-width: 1.0;"/><text fill="#000000" font-family="sans-serif" font-size="11" lengthAdjust="spacingAndGlyphs" text-decoration="underline" textLength="163" x="561" y="281.6245">singleton(head: Term): Cons</text><!--MD5=[71ce62bb6f3323542defcc754b11eb47]
reverse link Struct to Atom--><path d="M95.14,101.49 C108.39,96.59 122.63,91.61 136,87.5 C184.35,72.63 241.62,59.48 276.22,52.01 " fill="none" id="Struct&lt;-Atom" style="stroke: #A80036; stroke-width: 1.0;"/><polygon fill="none" points="97.23,108.18,76.05,108.73,92.27,95.09,97.23,108.18" style="stroke: #A80036; stroke-width: 1.0;"/><!--MD5=[1663d601d350eda7521afef5996e8c3e]
reverse link Struct to List--><path d="M95.39,137.98 C107.69,141.55 121.44,145.54 135.85,149.72 " fill="none" id="Struct&lt;-List" style="stroke: #A80036; stroke-width: 1.0;"/><polygon fill="none" points="93.42,144.7,76.17,132.41,97.32,131.26,93.42,144.7" style="stroke: #A80036; stroke-width: 1.0;"/><!--MD5=[898712309eb8fbecc3952bd38dd229e1]
reverse link Atom to Empty--><path d="M360.84,45.5 C422.52,45.5 525.64,45.5 589.38,45.5 " fill="none" id="Atom&lt;-Empty" style="stroke: #A80036; stroke-width: 1.0;"/><polygon fill="none" points="360.51,52.5,340.51,45.5,360.51,38.5,360.51,52.5" style="stroke: #A80036; stroke-width: 1.0;"/><!--MD5=[a9ce24b707eff292148d40bd617e660a]
reverse link Empty to EmptyList--><path d="M723.72,60.41 C752.16,65.98 784.19,72.24 811.62,77.61 " fill="none" id="Empty&lt;-EmptyList" style="stroke: #A80036; stroke-width: 1.0;"/><polygon fill="none" points="722.05,67.22,703.76,56.51,724.74,53.48,722.05,67.22" style="stroke: #A80036; stroke-width: 1.0;"/><!--MD5=[b5af1b3c3de85c746cad2571a0bb747a]
reverse link List to EmptyList--><path d="M500.95,162.76 C608.7,142.08 736.42,117.57 812,103.07 " fill="none" id="List&lt;-EmptyList" style="stroke: #A80036; stroke-width: 1.0;"/><polygon fill="none" points="502.04,169.68,481.07,166.57,499.4,155.93,502.04,169.68" style="stroke: #A80036; stroke-width: 1.0;"/><!--MD5=[86931e52732ee1979ef73de364a25d1a]
reverse link List to Cons--><path d="M501.71,221.81 C514.99,223.35 528.06,224.87 540.59,226.32 " fill="none" id="List&lt;-Cons" style="stroke: #A80036; stroke-width: 1.0;"/><polygon fill="none" points="500.5,228.72,481.44,219.46,502.11,214.81,500.5,228.72" style="stroke: #A80036; stroke-width: 1.0;"/><!--MD5=[ffd7aa3a9189fd2684012d2383b592fb]
@startuml
left to right direction
skinparam shadowing false

interface Struct
interface Atom
interface Empty {
  + {static} list(): EmptyList
  + {static} set(): EmptySet
}
interface EmptyList {
  + {static} invoke(): EmptyList
}
interface List {
  + size: Int
  + unfoldedArray: Array<Term>
  + unfoldedList: List<Term>
  + unfoldedSequence: Sequence<Term>
  + toArray(): Array<Term>
  + toList(): List<Term>
  + toSequence(): Sequence<Term>
  + {static} empty(): List
  + {static} of(**varargs** items: Term): List
  + {static} of(items: Iterable<Term>): List
  + {static} from(iterable: Iterable<Term>, last: Term? **= null**): List
}
interface Cons {
  + head: Term
  + tail: Term
  + {static} of(head: Term, tail: Term): Cons
  + {static} singleton(head: Term): Cons
}

Struct <|- - Atom
Struct <|- - List

Atom <|- - Empty

Empty <|- - EmptyList

List <|- - EmptyList
List <|- - Cons
@enduml

PlantUML version 1.2020.02(Sun Mar 01 11:22:07 CET 2020)
(GPL source distribution)
Java Runtime: OpenJDK Runtime Environment
JVM: OpenJDK 64-Bit Server VM
Java Version: 11.0.10+9
Operating System: Linux
Default Encoding: UTF-8
Language: it
Country: IT
--></g></svg>