<?xml version="1.0" encoding="UTF-8" standalone="no"?>
<svg xmlns="http://www.w3.org/2000/svg" xmlns:xlink="http://www.w3.org/1999/xlink" contentScriptType="application/ecmascript" contentStyleType="text/css" height="177px" preserveAspectRatio="none" style="width:656px;height:177px;background:#FFFFFF;" version="1.1" viewBox="0 0 656 177" width="656px" zoomAndPan="magnify"><defs><filter height="300%" id="f1t9m5eac4r2jg" width="300%" x="-1" y="-1"><feGaussianBlur result="blurOut" stdDeviation="2.0"/><feColorMatrix in="blurOut" result="blurOut2" type="matrix" values="0 0 0 0 0 0 0 0 0 0 0 0 0 0 0 0 0 0 .4 0"/><feOffset dx="4.0" dy="4.0" in="blurOut2" result="blurOut3"/><feBlend in="SourceGraphic" in2="blurOut3" mode="normal"/></filter></defs><g><!--MD5=[9d35236b92952560f647498cf8a29acb]
class Term--><rect codeLine="3" fill="#FEFECE" filter="url(#f1t9m5eac4r2jg)" height="48" id="Term" style="stroke:#A80036;stroke-width:1.5;" width="63" x="7" y="61.5"/><ellipse cx="22" cy="77.5" fill="#B4A7E5" rx="11" ry="11" style="stroke:#A80036;stroke-width:1.0;"/><path d="M22.9531,74.2813 L24.6719,74.2813 C25.0625,74.2813 25.25,74.25 25.375,74.1719 C25.6406,74.0156 25.7813,73.7344 25.7813,73.4375 C25.7813,73.1719 25.6719,72.9063 25.4375,72.7344 C25.2656,72.625 25.125,72.5938 24.6719,72.5938 L19.5313,72.5938 C19.0938,72.5938 18.9688,72.6094 18.8125,72.7031 C18.5625,72.8594 18.4063,73.1563 18.4063,73.4375 C18.4063,73.7188 18.5469,73.9688 18.7656,74.1406 C18.9219,74.25 19.1094,74.2813 19.5313,74.2813 L21.25,74.2813 L21.25,80.7969 L19.5313,80.7969 C19.0938,80.7969 18.9688,80.8125 18.8125,80.9219 C18.5625,81.0781 18.4063,81.3594 18.4063,81.6563 C18.4063,81.9063 18.5469,82.1719 18.7656,82.3281 C18.9219,82.4531 19.125,82.5 19.5313,82.5 L24.6719,82.5 C25.4219,82.5 25.7813,82.2188 25.7813,81.6563 C25.7813,81.375 25.6719,81.125 25.4375,80.9531 C25.2656,80.8281 25.125,80.7969 24.6719,80.7969 L22.9531,80.7969 L22.9531,74.2813 Z " fill="#000000"/><text fill="#000000" font-family="sans-serif" font-size="12" font-style="italic" lengthAdjust="spacing" textLength="31" x="36" y="81.6543">Term</text><line style="stroke:#A80036;stroke-width:1.5;" x1="8" x2="69" y1="93.5" y2="93.5"/><line style="stroke:#A80036;stroke-width:1.5;" x1="8" x2="69" y1="101.5" y2="101.5"/><!--MD5=[54b85b6d1a687c59d530998eb343c279]
class Constant--><rect codeLine="5" fill="#FEFECE" filter="url(#f1t9m5eac4r2jg)" height="48" id="Constant" style="stroke:#A80036;stroke-width:1.5;" width="86" x="130" y="61.5"/><ellipse cx="145" cy="77.5" fill="#B4A7E5" rx="11" ry="11" style="stroke:#A80036;stroke-width:1.0;"/><path d="M145.9531,74.2813 L147.6719,74.2813 C148.0625,74.2813 148.25,74.25 148.375,74.1719 C148.6406,74.0156 148.7813,73.7344 148.7813,73.4375 C148.7813,73.1719 148.6719,72.9063 148.4375,72.7344 C148.2656,72.625 148.125,72.5938 147.6719,72.5938 L142.5313,72.5938 C142.0938,72.5938 141.9688,72.6094 141.8125,72.7031 C141.5625,72.8594 141.4063,73.1563 141.4063,73.4375 C141.4063,73.7188 141.5469,73.9688 141.7656,74.1406 C141.9219,74.25 142.1094,74.2813 142.5313,74.2813 L144.25,74.2813 L144.25,80.7969 L142.5313,80.7969 C142.0938,80.7969 141.9688,80.8125 141.8125,80.9219 C141.5625,81.0781 141.4063,81.3594 141.4063,81.6563 C141.4063,81.9063 141.5469,82.1719 141.7656,82.3281 C141.9219,82.4531 142.125,82.5 142.5313,82.5 L147.6719,82.5 C148.4219,82.5 148.7813,82.2188 148.7813,81.6563 C148.7813,81.375 148.6719,81.125 148.4375,80.9531 C148.2656,80.8281 148.125,80.7969 147.6719,80.7969 L145.9531,80.7969 L145.9531,74.2813 Z " fill="#000000"/><text fill="#000000" font-family="sans-serif" font-size="12" font-style="italic" lengthAdjust="spacing" textLength="54" x="159" y="81.6543">Constant</text><line style="stroke:#A80036;stroke-width:1.5;" x1="131" x2="215" y1="93.5" y2="93.5"/><line style="stroke:#A80036;stroke-width:1.5;" x1="131" x2="215" y1="101.5" y2="101.5"/><!--MD5=[f1926c784da000dbf2f9e262c4c094a8]
class Numeric--><rect codeLine="7" fill="#FEFECE" filter="url(#f1t9m5eac4r2jg)" height="73.6094" id="Numeric" style="stroke:#A80036;stroke-width:1.5;" width="176" x="276" y="48.5"/><ellipse cx="334.25" cy="64.5" fill="#B4A7E5" rx="11" ry="11" style="stroke:#A80036;stroke-width:1.0;"/><path d="M335.2031,61.2813 L336.9219,61.2813 C337.3125,61.2813 337.5,61.25 337.625,61.1719 C337.8906,61.0156 338.0313,60.7344 338.0313,60.4375 C338.0313,60.1719 337.9219,59.9063 337.6875,59.7344 C337.5156,59.625 337.375,59.5938 336.9219,59.5938 L331.7813,59.5938 C331.3438,59.5938 331.2188,59.6094 331.0625,59.7031 C330.8125,59.8594 330.6563,60.1563 330.6563,60.4375 C330.6563,60.7188 330.7969,60.9688 331.0156,61.1406 C331.1719,61.25 331.3594,61.2813 331.7813,61.2813 L333.5,61.2813 L333.5,67.7969 L331.7813,67.7969 C331.3438,67.7969 331.2188,67.8125 331.0625,67.9219 C330.8125,68.0781 330.6563,68.3594 330.6563,68.6563 C330.6563,68.9063 330.7969,69.1719 331.0156,69.3281 C331.1719,69.4531 331.375,69.5 331.7813,69.5 L336.9219,69.5 C337.6719,69.5 338.0313,69.2188 338.0313,68.6563 C338.0313,68.375 337.9219,68.125 337.6875,67.9531 C337.5156,67.8281 337.375,67.7969 336.9219,67.7969 L335.2031,67.7969 L335.2031,61.2813 Z " fill="#000000"/><text fill="#000000" font-family="sans-serif" font-size="12" font-style="italic" lengthAdjust="spacing" textLength="51" x="354.75" y="68.6543">Numeric</text><line style="stroke:#A80036;stroke-width:1.5;" x1="277" x2="451" y1="80.5" y2="80.5"/><ellipse cx="287" cy="91.5" rx="3" ry="3" style="stroke:#038048;stroke-width:1.0;fill:none;"/><text fill="#000000" font-family="sans-serif" font-size="11" lengthAdjust="spacing" textLength="113" x="296" y="94.7104">intValue: BigInteger</text><ellipse cx="287" cy="104.3047" rx="3" ry="3" style="stroke:#038048;stroke-width:1.0;fill:none;"/><text fill="#000000" font-family="sans-serif" font-size="11" lengthAdjust="spacing" textLength="150" x="296" y="107.5151">decimalValue: BigDecimal</text><line style="stroke:#A80036;stroke-width:1.5;" x1="277" x2="451" y1="114.1094" y2="114.1094"/><!--MD5=[ee42c820cde073a9007f0905fabb17c1]
class Integer--><rect codeLine="16" fill="#FEFECE" filter="url(#f1t9m5eac4r2jg)" height="60.8047" id="Integer" style="stroke:#A80036;stroke-width:1.5;" width="124" x="515" y="7"/><ellipse cx="551.6" cy="23" fill="#B4A7E5" rx="11" ry="11" style="stroke:#A80036;stroke-width:1.0;"/><path d="M552.5531,19.7813 L554.2719,19.7813 C554.6625,19.7813 554.85,19.75 554.975,19.6719 C555.2406,19.5156 555.3813,19.2344 555.3813,18.9375 C555.3813,18.6719 555.2719,18.4063 555.0375,18.2344 C554.8656,18.125 554.725,18.0938 554.2719,18.0938 L549.1313,18.0938 C548.6938,18.0938 548.5688,18.1094 548.4125,18.2031 C548.1625,18.3594 548.0063,18.6563 548.0063,18.9375 C548.0063,19.2188 548.1469,19.4688 548.3656,19.6406 C548.5219,19.75 548.7094,19.7813 549.1313,19.7813 L550.85,19.7813 L550.85,26.2969 L549.1313,26.2969 C548.6938,26.2969 548.5688,26.3125 548.4125,26.4219 C548.1625,26.5781 548.0063,26.8594 548.0063,27.1563 C548.0063,27.4063 548.1469,27.6719 548.3656,27.8281 C548.5219,27.9531 548.725,28 549.1313,28 L554.2719,28 C555.0219,28 555.3813,27.7188 555.3813,27.1563 C555.3813,26.875 555.2719,26.625 555.0375,26.4531 C554.8656,26.3281 554.725,26.2969 554.2719,26.2969 L552.5531,26.2969 L552.5531,19.7813 Z " fill="#000000"/><text fill="#000000" font-family="sans-serif" font-size="12" font-style="italic" lengthAdjust="spacing" textLength="44" x="570.4" y="27.1543">Integer</text><line style="stroke:#A80036;stroke-width:1.5;" x1="516" x2="638" y1="39" y2="39"/><ellipse cx="526" cy="50" rx="3" ry="3" style="stroke:#038048;stroke-width:1.0;fill:none;"/><text fill="#000000" font-family="sans-serif" font-size="11" lengthAdjust="spacing" textLength="98" x="535" y="53.2104">value: BigInteger</text><line style="stroke:#A80036;stroke-width:1.5;" x1="516" x2="638" y1="59.8047" y2="59.8047"/><!--MD5=[5fd72fda0f3f342d877047943977dc6a]
class Real--><rect codeLine="27" fill="#FEFECE" filter="url(#f1t9m5eac4r2jg)" height="60.8047" id="Real" style="stroke:#A80036;stroke-width:1.5;" width="130" x="512" y="103"/><ellipse cx="560.25" cy="119" fill="#B4A7E5" rx="11" ry="11" style="stroke:#A80036;stroke-width:1.0;"/><path d="M561.2031,115.7813 L562.9219,115.7813 C563.3125,115.7813 563.5,115.75 563.625,115.6719 C563.8906,115.5156 564.0313,115.2344 564.0313,114.9375 C564.0313,114.6719 563.9219,114.4063 563.6875,114.2344 C563.5156,114.125 563.375,114.0938 562.9219,114.0938 L557.7813,114.0938 C557.3438,114.0938 557.2188,114.1094 557.0625,114.2031 C556.8125,114.3594 556.6563,114.6563 556.6563,114.9375 C556.6563,115.2188 556.7969,115.4688 557.0156,115.6406 C557.1719,115.75 557.3594,115.7813 557.7813,115.7813 L559.5,115.7813 L559.5,122.2969 L557.7813,122.2969 C557.3438,122.2969 557.2188,122.3125 557.0625,122.4219 C556.8125,122.5781 556.6563,122.8594 556.6563,123.1563 C556.6563,123.4063 556.7969,123.6719 557.0156,123.8281 C557.1719,123.9531 557.375,124 557.7813,124 L562.9219,124 C563.6719,124 564.0313,123.7188 564.0313,123.1563 C564.0313,122.875 563.9219,122.625 563.6875,122.4531 C563.5156,122.3281 563.375,122.2969 562.9219,122.2969 L561.2031,122.2969 L561.2031,115.7813 Z " fill="#000000"/><text fill="#000000" font-family="sans-serif" font-size="12" font-style="italic" lengthAdjust="spacing" textLength="25" x="580.75" y="123.1543">Real</text><line style="stroke:#A80036;stroke-width:1.5;" x1="513" x2="641" y1="135" y2="135"/><ellipse cx="523" cy="146" rx="3" ry="3" style="stroke:#038048;stroke-width:1.0;fill:none;"/><text fill="#000000" font-family="sans-serif" font-size="11" lengthAdjust="spacing" textLength="104" x="532" y="149.2104">value: BigDecimal</text><line style="stroke:#A80036;stroke-width:1.5;" x1="513" x2="641" y1="155.8047" y2="155.8047"/><!--MD5=[22dcc2a6458fba43153ab5c044b6d0f2]
reverse link Term to Constant--><path codeLine="35" d="M90.3771,85.5 C103.4343,85.5 117.335,85.5 129.894,85.5 " fill="none" id="Term-backto-Constant" style="stroke:#A80036;stroke-width:1.0;"/><polygon fill="none" points="90.2312,92.4999,70.2312,85.5,90.2312,78.4999,90.2312,92.4999" style="stroke:#A80036;stroke-width:1.0;"/><!--MD5=[70225964948051ed3e9096d211e8a754]
reverse link Constant to Numeric--><path codeLine="37" d="M236.602,85.5 C249.186,85.5 262.626,85.5 275.871,85.5 " fill="none" id="Constant-backto-Numeric" style="stroke:#A80036;stroke-width:1.0;"/><polygon fill="none" points="236.415,92.4999,216.415,85.5,236.415,78.4999,236.415,92.4999" style="stroke:#A80036;stroke-width:1.0;"/><!--MD5=[17d2d3c8e42a151c98c74cb7a0afd032]
reverse link Numeric to Real--><path codeLine="39" d="M471.896,109.8176 C485.506,112.9137 499.085,116.0026 511.726,118.8784 " fill="none" id="Numeric-backto-Real" style="stroke:#A80036;stroke-width:1.0;"/><polygon fill="none" points="469.989,116.5627,452.04,105.3006,473.094,102.9114,469.989,116.5627" style="stroke:#A80036;stroke-width:1.0;"/><!--MD5=[2b9b92e887eeff1b264561e6aba3c4bf]
reverse link Numeric to Integer--><path codeLine="40" d="M471.775,61.21 C486.576,57.843 501.344,54.483 514.913,51.397 " fill="none" id="Numeric-backto-Integer" style="stroke:#A80036;stroke-width:1.0;"/><polygon fill="none" points="473.094,68.0886,452.04,65.6994,469.989,54.437,473.094,68.0886" style="stroke:#A80036;stroke-width:1.0;"/><!--MD5=[60c732517b0e4fbffbc90ecb8b198698]
@startuml
left to right direction

interface Term

interface Constant 

interface Numeric {
  + intValue: BigInteger
  + decimalValue: BigDecimal
  ' + {static} of(value: Number): Numeric
  ' + {static} of(number: String): Numeric
  ' + {static} of(integer: BigInteger): Integer
  ' + {static} of(decimal: BigDecimal): Real
}

interface Integer {
  + value: BigInteger
  ' + {static} of(integer: Int): Integer
  ' + {static} of(integer: Long): Integer
  ' + {static} of(integer: Byte): Integer
  ' + {static} of(integer: Short): Integer
  ' + {static} of(integer: BigInteger): Integer
  ' + {static} of(integer: BigDecimal): Integer
  ' + {static} of(integer: String): Integer
  ' + {static} of(integer: String, radix: Int): Integer
}
interface Real {
  + value: BigDecimal
  ' + {static} of(real: BigDecimal): Real
  ' + {static} of(real: Float): Real
  ' + {static} of(real: Double): Real
  ' + {static} of(real: String): Real
}

Term <|- - Constant

Constant <|- - Numeric

Numeric <|- - Real
Numeric <|- - Integer
@enduml

@startuml
left to right direction

interface Term

interface Constant 

interface Numeric {
  + intValue: BigInteger
  + decimalValue: BigDecimal
}

interface Integer {
  + value: BigInteger
}
interface Real {
  + value: BigDecimal
}

Term <|- - Constant

Constant <|- - Numeric

Numeric <|- - Real
Numeric <|- - Integer
@enduml

PlantUML version 1.2021.6beta6(Unknown compile time)
(GPL source distribution)
Java Runtime: Java(TM) SE Runtime Environment
JVM: Java HotSpot(TM) 64-Bit Server VM
Default Encoding: UTF-8
Language: en
Country: US
--></g></svg>