<?xml version="1.0" encoding="UTF-8" standalone="no"?><svg xmlns="http://www.w3.org/2000/svg" xmlns:xlink="http://www.w3.org/1999/xlink" contentScriptType="application/ecmascript" contentStyleType="text/css" height="330px" preserveAspectRatio="none" style="width:975px;height:330px;" version="1.1" viewBox="0 0 975 330" width="975px" zoomAndPan="magnify"><defs/><g><!--MD5=[9d35236b92952560f647498cf8a29acb]
class Term--><rect fill="#FEFECE" height="124.8281" id="Term" style="stroke: #A80036; stroke-width: 1.5;" width="258" x="6" y="114.5"/><ellipse cx="115.25" cy="130.5" fill="#B4A7E5" rx="11" ry="11" style="stroke: #A80036; stroke-width: 1.0;"/><path d="M111.1719,126.2656 L111.1719,124.1094 L118.5625,124.1094 L118.5625,126.2656 L116.0938,126.2656 L116.0938,134.3438 L118.5625,134.3438 L118.5625,136.5 L111.1719,136.5 L111.1719,134.3438 L113.6406,134.3438 L113.6406,126.2656 L111.1719,126.2656 Z "/><text fill="#000000" font-family="sans-serif" font-size="12" font-style="italic" lengthAdjust="spacingAndGlyphs" textLength="31" x="135.75" y="134.6543">Term</text><line style="stroke: #A80036; stroke-width: 1.5;" x1="7" x2="263" y1="146.5" y2="146.5"/><ellipse cx="17" cy="157.5" fill="none" rx="3" ry="3" style="stroke: #038048; stroke-width: 1.0;"/><text fill="#000000" font-family="sans-serif" font-size="11" lengthAdjust="spacingAndGlyphs" textLength="106" x="26" y="160.7104">isGround: Boolean</text><ellipse cx="17" cy="170.3047" fill="none" rx="3" ry="3" style="stroke: #038048; stroke-width: 1.0;"/><text fill="#000000" font-family="sans-serif" font-size="11" lengthAdjust="spacingAndGlyphs" textLength="153" x="26" y="173.5151">variables: Sequence&lt;Var&gt;</text><line style="stroke: #A80036; stroke-width: 1.5;" x1="7" x2="263" y1="180.1094" y2="180.1094"/><ellipse cx="17" cy="191.1094" fill="#84BE84" rx="3" ry="3" style="stroke: #038048; stroke-width: 1.0;"/><text fill="#000000" font-family="sans-serif" font-size="11" lengthAdjust="spacingAndGlyphs" textLength="158" x="26" y="194.3198">equals(other: Any): Boolean</text><ellipse cx="17" cy="203.9141" fill="#84BE84" rx="3" ry="3" style="stroke: #038048; stroke-width: 1.0;"/><text fill="#000000" font-family="sans-serif" font-size="11" lengthAdjust="spacingAndGlyphs" textLength="232" x="26" y="207.1245">structurallyEquals(other: Term): Boolean</text><ellipse cx="17" cy="216.7188" fill="#84BE84" rx="3" ry="3" style="stroke: #038048; stroke-width: 1.0;"/><text fill="#000000" font-family="sans-serif" font-size="11" lengthAdjust="spacingAndGlyphs" textLength="104" x="26" y="219.9292">freshCopy(): Term</text><ellipse cx="17" cy="229.5234" fill="#84BE84" rx="3" ry="3" style="stroke: #038048; stroke-width: 1.0;"/><text fill="#000000" font-family="sans-serif" font-size="11" lengthAdjust="spacingAndGlyphs" textLength="95" x="26" y="232.7339">toString(): String</text><!--MD5=[54b85b6d1a687c59d530998eb343c279]
class Constant--><rect fill="#FEFECE" height="60.8047" id="Constant" style="stroke: #A80036; stroke-width: 1.5;" width="88" x="324" y="146.5"/><ellipse cx="339" cy="162.5" fill="#B4A7E5" rx="11" ry="11" style="stroke: #A80036; stroke-width: 1.0;"/><path d="M334.9219,158.2656 L334.9219,156.1094 L342.3125,156.1094 L342.3125,158.2656 L339.8438,158.2656 L339.8438,166.3438 L342.3125,166.3438 L342.3125,168.5 L334.9219,168.5 L334.9219,166.3438 L337.3906,166.3438 L337.3906,158.2656 L334.9219,158.2656 Z "/><text fill="#000000" font-family="sans-serif" font-size="12" font-style="italic" lengthAdjust="spacingAndGlyphs" textLength="56" x="353" y="166.6543">Constant</text><line style="stroke: #A80036; stroke-width: 1.5;" x1="325" x2="411" y1="178.5" y2="178.5"/><ellipse cx="335" cy="189.5" fill="none" rx="3" ry="3" style="stroke: #038048; stroke-width: 1.0;"/><text fill="#000000" font-family="sans-serif" font-size="11" lengthAdjust="spacingAndGlyphs" textLength="58" x="344" y="192.7104">value: Any</text><line style="stroke: #A80036; stroke-width: 1.5;" x1="325" x2="411" y1="199.3047" y2="199.3047"/><!--MD5=[f1926c784da000dbf2f9e262c4c094a8]
class Numeric--><rect fill="#FEFECE" height="124.8281" id="Numeric" style="stroke: #A80036; stroke-width: 1.5;" width="199" x="472" y="114.5"/><ellipse cx="541.75" cy="130.5" fill="#B4A7E5" rx="11" ry="11" style="stroke: #A80036; stroke-width: 1.0;"/><path d="M537.6719,126.2656 L537.6719,124.1094 L545.0625,124.1094 L545.0625,126.2656 L542.5938,126.2656 L542.5938,134.3438 L545.0625,134.3438 L545.0625,136.5 L537.6719,136.5 L537.6719,134.3438 L540.1406,134.3438 L540.1406,126.2656 L537.6719,126.2656 Z "/><text fill="#000000" font-family="sans-serif" font-size="12" font-style="italic" lengthAdjust="spacingAndGlyphs" textLength="51" x="562.25" y="134.6543">Numeric</text><line style="stroke: #A80036; stroke-width: 1.5;" x1="473" x2="670" y1="146.5" y2="146.5"/><ellipse cx="483" cy="157.5" fill="none" rx="3" ry="3" style="stroke: #038048; stroke-width: 1.0;"/><text fill="#000000" font-family="sans-serif" font-size="11" lengthAdjust="spacingAndGlyphs" textLength="111" x="492" y="160.7104">intValue: BigInteger</text><ellipse cx="483" cy="170.3047" fill="none" rx="3" ry="3" style="stroke: #038048; stroke-width: 1.0;"/><text fill="#000000" font-family="sans-serif" font-size="11" lengthAdjust="spacingAndGlyphs" textLength="146" x="492" y="173.5151">decimalValue: BigDecimal</text><line style="stroke: #A80036; stroke-width: 1.5;" x1="473" x2="670" y1="180.1094" y2="180.1094"/><ellipse cx="483" cy="191.1094" fill="#84BE84" rx="3" ry="3" style="stroke: #038048; stroke-width: 1.0;"/><text fill="#000000" font-family="sans-serif" font-size="11" lengthAdjust="spacingAndGlyphs" text-decoration="underline" textLength="157" x="492" y="194.3198">of(value: Number): Numeric</text><ellipse cx="483" cy="203.9141" fill="#84BE84" rx="3" ry="3" style="stroke: #038048; stroke-width: 1.0;"/><text fill="#000000" font-family="sans-serif" font-size="11" lengthAdjust="spacingAndGlyphs" text-decoration="underline" textLength="160" x="492" y="207.1245">of(number: String): Numeric</text><ellipse cx="483" cy="216.7188" fill="#84BE84" rx="3" ry="3" style="stroke: #038048; stroke-width: 1.0;"/><text fill="#000000" font-family="sans-serif" font-size="11" lengthAdjust="spacingAndGlyphs" text-decoration="underline" textLength="173" x="492" y="219.9292">of(integer: BigInteger): Integer</text><ellipse cx="483" cy="229.5234" fill="#84BE84" rx="3" ry="3" style="stroke: #038048; stroke-width: 1.0;"/><text fill="#000000" font-family="sans-serif" font-size="11" lengthAdjust="spacingAndGlyphs" text-decoration="underline" textLength="166" x="492" y="232.7339">of(decimal: BigDecimal): Real</text><!--MD5=[ee42c820cde073a9007f0905fabb17c1]
class Integer--><rect fill="#FEFECE" height="163.2422" id="Integer" style="stroke: #A80036; stroke-width: 1.5;" width="233" x="731" y="8.5"/><ellipse cx="820.25" cy="24.5" fill="#B4A7E5" rx="11" ry="11" style="stroke: #A80036; stroke-width: 1.0;"/><path d="M816.1719,20.2656 L816.1719,18.1094 L823.5625,18.1094 L823.5625,20.2656 L821.0938,20.2656 L821.0938,28.3438 L823.5625,28.3438 L823.5625,30.5 L816.1719,30.5 L816.1719,28.3438 L818.6406,28.3438 L818.6406,20.2656 L816.1719,20.2656 Z "/><text fill="#000000" font-family="sans-serif" font-size="12" font-style="italic" lengthAdjust="spacingAndGlyphs" textLength="46" x="840.75" y="28.6543">Integer</text><line style="stroke: #A80036; stroke-width: 1.5;" x1="732" x2="963" y1="40.5" y2="40.5"/><ellipse cx="742" cy="51.5" fill="none" rx="3" ry="3" style="stroke: #038048; stroke-width: 1.0;"/><text fill="#000000" font-family="sans-serif" font-size="11" lengthAdjust="spacingAndGlyphs" textLength="96" x="751" y="54.7104">value: BigInteger</text><line style="stroke: #A80036; stroke-width: 1.5;" x1="732" x2="963" y1="61.3047" y2="61.3047"/><ellipse cx="742" cy="72.3047" fill="#84BE84" rx="3" ry="3" style="stroke: #038048; stroke-width: 1.0;"/><text fill="#000000" font-family="sans-serif" font-size="11" lengthAdjust="spacingAndGlyphs" text-decoration="underline" textLength="129" x="751" y="75.5151">of(integer: Int): Integer</text><ellipse cx="742" cy="85.1094" fill="#84BE84" rx="3" ry="3" style="stroke: #038048; stroke-width: 1.0;"/><text fill="#000000" font-family="sans-serif" font-size="11" lengthAdjust="spacingAndGlyphs" text-decoration="underline" textLength="142" x="751" y="88.3198">of(integer: Long): Integer</text><ellipse cx="742" cy="97.9141" fill="#84BE84" rx="3" ry="3" style="stroke: #038048; stroke-width: 1.0;"/><text fill="#000000" font-family="sans-serif" font-size="11" lengthAdjust="spacingAndGlyphs" text-decoration="underline" textLength="140" x="751" y="101.1245">of(integer: Byte): Integer</text><ellipse cx="742" cy="110.7188" fill="#84BE84" rx="3" ry="3" style="stroke: #038048; stroke-width: 1.0;"/><text fill="#000000" font-family="sans-serif" font-size="11" lengthAdjust="spacingAndGlyphs" text-decoration="underline" textLength="146" x="751" y="113.9292">of(integer: Short): Integer</text><ellipse cx="742" cy="123.5234" fill="#84BE84" rx="3" ry="3" style="stroke: #038048; stroke-width: 1.0;"/><text fill="#000000" font-family="sans-serif" font-size="11" lengthAdjust="spacingAndGlyphs" text-decoration="underline" textLength="173" x="751" y="126.7339">of(integer: BigInteger): Integer</text><ellipse cx="742" cy="136.3281" fill="#84BE84" rx="3" ry="3" style="stroke: #038048; stroke-width: 1.0;"/><text fill="#000000" font-family="sans-serif" font-size="11" lengthAdjust="spacingAndGlyphs" text-decoration="underline" textLength="178" x="751" y="139.5386">of(integer: BigDecimal): Integer</text><ellipse cx="742" cy="149.1328" fill="#84BE84" rx="3" ry="3" style="stroke: #038048; stroke-width: 1.0;"/><text fill="#000000" font-family="sans-serif" font-size="11" lengthAdjust="spacingAndGlyphs" text-decoration="underline" textLength="149" x="751" y="152.3433">of(integer: String): Integer</text><ellipse cx="742" cy="161.9375" fill="#84BE84" rx="3" ry="3" style="stroke: #038048; stroke-width: 1.0;"/><text fill="#000000" font-family="sans-serif" font-size="11" lengthAdjust="spacingAndGlyphs" text-decoration="underline" textLength="207" x="751" y="165.1479">of(integer: String, radix: Int): Integer</text><!--MD5=[5fd72fda0f3f342d877047943977dc6a]
class Real--><rect fill="#FEFECE" height="112.0234" id="Real" style="stroke: #A80036; stroke-width: 1.5;" width="170" x="762.5" y="207"/><ellipse cx="829.75" cy="223" fill="#B4A7E5" rx="11" ry="11" style="stroke: #A80036; stroke-width: 1.0;"/><path d="M825.6719,218.7656 L825.6719,216.6094 L833.0625,216.6094 L833.0625,218.7656 L830.5938,218.7656 L830.5938,226.8438 L833.0625,226.8438 L833.0625,229 L825.6719,229 L825.6719,226.8438 L828.1406,226.8438 L828.1406,218.7656 L825.6719,218.7656 Z "/><text fill="#000000" font-family="sans-serif" font-size="12" font-style="italic" lengthAdjust="spacingAndGlyphs" textLength="27" x="850.25" y="227.1543">Real</text><line style="stroke: #A80036; stroke-width: 1.5;" x1="763.5" x2="931.5" y1="239" y2="239"/><ellipse cx="773.5" cy="250" fill="none" rx="3" ry="3" style="stroke: #038048; stroke-width: 1.0;"/><text fill="#000000" font-family="sans-serif" font-size="11" lengthAdjust="spacingAndGlyphs" textLength="101" x="782.5" y="253.2104">value: BigDecimal</text><line style="stroke: #A80036; stroke-width: 1.5;" x1="763.5" x2="931.5" y1="259.8047" y2="259.8047"/><ellipse cx="773.5" cy="270.8047" fill="#84BE84" rx="3" ry="3" style="stroke: #038048; stroke-width: 1.0;"/><text fill="#000000" font-family="sans-serif" font-size="11" lengthAdjust="spacingAndGlyphs" text-decoration="underline" textLength="144" x="782.5" y="274.0151">of(real: BigDecimal): Real</text><ellipse cx="773.5" cy="283.6094" fill="#84BE84" rx="3" ry="3" style="stroke: #038048; stroke-width: 1.0;"/><text fill="#000000" font-family="sans-serif" font-size="11" lengthAdjust="spacingAndGlyphs" text-decoration="underline" textLength="108" x="782.5" y="286.8198">of(real: Float): Real</text><ellipse cx="773.5" cy="296.4141" fill="#84BE84" rx="3" ry="3" style="stroke: #038048; stroke-width: 1.0;"/><text fill="#000000" font-family="sans-serif" font-size="11" lengthAdjust="spacingAndGlyphs" text-decoration="underline" textLength="120" x="782.5" y="299.6245">of(real: Double): Real</text><ellipse cx="773.5" cy="309.2188" fill="#84BE84" rx="3" ry="3" style="stroke: #038048; stroke-width: 1.0;"/><text fill="#000000" font-family="sans-serif" font-size="11" lengthAdjust="spacingAndGlyphs" text-decoration="underline" textLength="115" x="782.5" y="312.4292">of(real: String): Real</text><!--MD5=[22dcc2a6458fba43153ab5c044b6d0f2]
reverse link Term to Constant--><path d="M284.71,177 C298.85,177 312.26,177 323.99,177 " fill="none" id="Term&lt;-Constant" style="stroke: #A80036; stroke-width: 1.0;"/><polygon fill="none" points="284.33,184,264.33,177,284.33,170,284.33,184" style="stroke: #A80036; stroke-width: 1.0;"/><!--MD5=[70225964948051ed3e9096d211e8a754]
reverse link Constant to Numeric--><path d="M432.37,177 C444.95,177 458.43,177 471.86,177 " fill="none" id="Constant&lt;-Numeric" style="stroke: #A80036; stroke-width: 1.0;"/><polygon fill="none" points="432.23,184,412.23,177,432.23,170,432.23,184" style="stroke: #A80036; stroke-width: 1.0;"/><!--MD5=[17d2d3c8e42a151c98c74cb7a0afd032]
reverse link Numeric to Real--><path d="M690.26,213.96 C714.53,221.58 739.62,229.45 762.41,236.61 " fill="none" id="Numeric&lt;-Real" style="stroke: #A80036; stroke-width: 1.0;"/><polygon fill="none" points="688.02,220.59,671.03,207.93,692.21,207.24,688.02,220.59" style="stroke: #A80036; stroke-width: 1.0;"/><!--MD5=[2b9b92e887eeff1b264561e6aba3c4bf]
reverse link Numeric to Integer--><path d="M690.36,139.58 C703.72,135.34 717.32,131.02 730.65,126.79 " fill="none" id="Numeric&lt;-Integer" style="stroke: #A80036; stroke-width: 1.0;"/><polygon fill="none" points="692.21,146.33,671.03,145.71,687.98,132.99,692.21,146.33" style="stroke: #A80036; stroke-width: 1.0;"/><!--MD5=[72bf46838b9b09f1922ea6e15d7b8a96]
@startuml
left to right direction
skinparam shadowing false

interface Term {
  + isGround: Boolean
  + variables: Sequence<Var>
  + equals(other: Any): Boolean
  + structurallyEquals(other: Term): Boolean
  + freshCopy(): Term
  + toString(): String
}
interface Constant {
  + value: Any
}
interface Numeric {
  + intValue: BigInteger
  + decimalValue: BigDecimal
  + {static} of(value: Number): Numeric
  + {static} of(number: String): Numeric
  + {static} of(integer: BigInteger): Integer
  + {static} of(decimal: BigDecimal): Real
}
interface Integer {
  + value: BigInteger
  + {static} of(integer: Int): Integer
  + {static} of(integer: Long): Integer
  + {static} of(integer: Byte): Integer
  + {static} of(integer: Short): Integer
  + {static} of(integer: BigInteger): Integer
  + {static} of(integer: BigDecimal): Integer
  + {static} of(integer: String): Integer
  + {static} of(integer: String, radix: Int): Integer
}
interface Real {
  + value: BigDecimal
  + {static} of(real: BigDecimal): Real
  + {static} of(real: Float): Real
  + {static} of(real: Double): Real
  + {static} of(real: String): Real
}

Term <|- - Constant

Constant <|- - Numeric

Numeric <|- - Real
Numeric <|- - Integer
@enduml

PlantUML version 1.2020.02(Sun Mar 01 11:22:07 CET 2020)
(GPL source distribution)
Java Runtime: OpenJDK Runtime Environment
JVM: OpenJDK 64-Bit Server VM
Java Version: 11.0.10+9
Operating System: Linux
Default Encoding: UTF-8
Language: it
Country: IT
--></g></svg>