<?xml version="1.0" encoding="UTF-8" standalone="no"?>
<svg xmlns="http://www.w3.org/2000/svg" xmlns:xlink="http://www.w3.org/1999/xlink" contentScriptType="application/ecmascript" contentStyleType="text/css" height="81px" preserveAspectRatio="none" style="width:208px;height:81px;background:#FFFFFF;" version="1.1" viewBox="0 0 208 81" width="208px" zoomAndPan="magnify"><defs><filter height="300%" id="fu0k57ntc1yhh" width="300%" x="-1" y="-1"><feGaussianBlur result="blurOut" stdDeviation="2.0"/><feColorMatrix in="blurOut" result="blurOut2" type="matrix" values="0 0 0 0 0 0 0 0 0 0 0 0 0 0 0 0 0 0 .4 0"/><feOffset dx="4.0" dy="4.0" in="blurOut2" result="blurOut3"/><feBlend in="SourceGraphic" in2="blurOut3" mode="normal"/></filter></defs><g><!--MD5=[14f8ea4b10db0d5b6634289f653dfcaf]
class ObjectToTermConverter--><rect codeLine="1" fill="#FEFECE" filter="url(#fu0k57ntc1yhh)" height="60.8047" id="ObjectToTermConverter" style="stroke:#A80036;stroke-width:1.5;" width="187" x="7" y="7"/><ellipse cx="27.4" cy="23" fill="#B4A7E5" rx="11" ry="11" style="stroke:#A80036;stroke-width:1.0;"/><path d="M28.3531,19.7813 L30.0719,19.7813 C30.4625,19.7813 30.65,19.75 30.775,19.6719 C31.0406,19.5156 31.1813,19.2344 31.1813,18.9375 C31.1813,18.6719 31.0719,18.4063 30.8375,18.2344 C30.6656,18.125 30.525,18.0938 30.0719,18.0938 L24.9313,18.0938 C24.4938,18.0938 24.3688,18.1094 24.2125,18.2031 C23.9625,18.3594 23.8063,18.6563 23.8063,18.9375 C23.8063,19.2188 23.9469,19.4688 24.1656,19.6406 C24.3219,19.75 24.5094,19.7813 24.9313,19.7813 L26.65,19.7813 L26.65,26.2969 L24.9313,26.2969 C24.4938,26.2969 24.3688,26.3125 24.2125,26.4219 C23.9625,26.5781 23.8063,26.8594 23.8063,27.1563 C23.8063,27.4063 23.9469,27.6719 24.1656,27.8281 C24.3219,27.9531 24.525,28 24.9313,28 L30.0719,28 C30.8219,28 31.1813,27.7188 31.1813,27.1563 C31.1813,26.875 31.0719,26.625 30.8375,26.4531 C30.6656,26.3281 30.525,26.2969 30.0719,26.2969 L28.3531,26.2969 L28.3531,19.7813 Z " fill="#000000"/><text fill="#000000" font-family="sans-serif" font-size="12" font-style="italic" lengthAdjust="spacing" textLength="143" x="42.6" y="27.1543">ObjectToTermConverter</text><line style="stroke:#A80036;stroke-width:1.5;" x1="8" x2="193" y1="39" y2="39"/><line style="stroke:#A80036;stroke-width:1.5;" x1="8" x2="193" y1="47" y2="47"/><ellipse cx="18" cy="58" fill="#84BE84" rx="3" ry="3" style="stroke:#038048;stroke-width:1.0;"/><text fill="#000000" font-family="sans-serif" font-size="11" lengthAdjust="spacing" textLength="161" x="27" y="61.2104">convert(source: Any?): Term</text><!--MD5=[83dc9a6924d58ce29e32f51d838845d6]
@startuml
interface ObjectToTermConverter {
    + convert(source: Any?): Term
}
@enduml

PlantUML version 1.2021.6beta6(Unknown compile time)
(GPL source distribution)
Java Runtime: Java(TM) SE Runtime Environment
JVM: Java HotSpot(TM) 64-Bit Server VM
Default Encoding: UTF-8
Language: en
Country: US
--></g></svg>