<?xml version="1.0" encoding="UTF-8" standalone="no"?>
<svg xmlns="http://www.w3.org/2000/svg" xmlns:xlink="http://www.w3.org/1999/xlink" contentScriptType="application/ecmascript" contentStyleType="text/css" height="133px" preserveAspectRatio="none" style="width:417px;height:133px;background:#FFFFFF;" version="1.1" viewBox="0 0 417 133" width="417px" zoomAndPan="magnify"><defs><filter height="300%" id="frtdmcdu0x6uy" width="300%" x="-1" y="-1"><feGaussianBlur result="blurOut" stdDeviation="2.0"/><feColorMatrix in="blurOut" result="blurOut2" type="matrix" values="0 0 0 0 0 0 0 0 0 0 0 0 0 0 0 0 0 0 .4 0"/><feOffset dx="4.0" dy="4.0" in="blurOut2" result="blurOut3"/><feBlend in="SourceGraphic" in2="blurOut3" mode="normal"/></filter></defs><g><!--MD5=[e88fafb297a1f88f1be908edc7301dc3]
class OverloadSelector--><rect codeLine="1" fill="#FEFECE" filter="url(#frtdmcdu0x6uy)" height="112.0234" id="OverloadSelector" style="stroke:#A80036;stroke-width:1.5;" width="396" x="7" y="7"/><ellipse cx="149.75" cy="23" fill="#B4A7E5" rx="11" ry="11" style="stroke:#A80036;stroke-width:1.0;"/><path d="M150.7031,19.7813 L152.4219,19.7813 C152.8125,19.7813 153,19.75 153.125,19.6719 C153.3906,19.5156 153.5313,19.2344 153.5313,18.9375 C153.5313,18.6719 153.4219,18.4063 153.1875,18.2344 C153.0156,18.125 152.875,18.0938 152.4219,18.0938 L147.2813,18.0938 C146.8438,18.0938 146.7188,18.1094 146.5625,18.2031 C146.3125,18.3594 146.1563,18.6563 146.1563,18.9375 C146.1563,19.2188 146.2969,19.4688 146.5156,19.6406 C146.6719,19.75 146.8594,19.7813 147.2813,19.7813 L149,19.7813 L149,26.2969 L147.2813,26.2969 C146.8438,26.2969 146.7188,26.3125 146.5625,26.4219 C146.3125,26.5781 146.1563,26.8594 146.1563,27.1563 C146.1563,27.4063 146.2969,27.6719 146.5156,27.8281 C146.6719,27.9531 146.875,28 147.2813,28 L152.4219,28 C153.1719,28 153.5313,27.7188 153.5313,27.1563 C153.5313,26.875 153.4219,26.625 153.1875,26.4531 C153.0156,26.3281 152.875,26.2969 152.4219,26.2969 L150.7031,26.2969 L150.7031,19.7813 Z " fill="#000000"/><text fill="#000000" font-family="sans-serif" font-size="12" font-style="italic" lengthAdjust="spacing" textLength="102" x="170.25" y="27.1543">OverloadSelector</text><line style="stroke:#A80036;stroke-width:1.5;" x1="8" x2="402" y1="39" y2="39"/><ellipse cx="18" cy="50" rx="3" ry="3" style="stroke:#038048;stroke-width:1.0;fill:none;"/><text fill="#000000" font-family="sans-serif" font-size="11" lengthAdjust="spacing" textLength="94" x="27" y="53.2104">type: KClass&lt;*&gt;</text><ellipse cx="18" cy="62.8047" rx="3" ry="3" style="stroke:#038048;stroke-width:1.0;fill:none;"/><text fill="#000000" font-family="sans-serif" font-size="11" lengthAdjust="spacing" textLength="280" x="27" y="66.0151">termToObjectConverter: TermToObjectConverter</text><line style="stroke:#A80036;stroke-width:1.5;" x1="8" x2="402" y1="72.6094" y2="72.6094"/><ellipse cx="18" cy="83.6094" fill="#84BE84" rx="3" ry="3" style="stroke:#038048;stroke-width:1.0;"/><text fill="#000000" font-family="sans-serif" font-size="11" lengthAdjust="spacing" textLength="370" x="27" y="86.8198">findMethod(name: String, arguments: List&lt;Term&gt;): KCallable&lt;*&gt;</text><ellipse cx="18" cy="96.4141" fill="#84BE84" rx="3" ry="3" style="stroke:#038048;stroke-width:1.0;"/><text fill="#000000" font-family="sans-serif" font-size="11" lengthAdjust="spacing" textLength="355" x="27" y="99.6245">findProperty(name: String, value: Term): KMutableProperty&lt;*&gt;</text><ellipse cx="18" cy="109.2188" fill="#84BE84" rx="3" ry="3" style="stroke:#038048;stroke-width:1.0;"/><text fill="#000000" font-family="sans-serif" font-size="11" lengthAdjust="spacing" textLength="312" x="27" y="112.4292">findConstructor(arguments: List&lt;Term&gt;): KCallable&lt;*&gt;</text><!--MD5=[efd65731051cc84e7534c37f4181dcc5]
@startuml
interface OverloadSelector {
    + type: KClass<*>
    + termToObjectConverter: TermToObjectConverter
    + findMethod(name: String, arguments: List<Term>): KCallable<*>
    + findProperty(name: String, value: Term): KMutableProperty<*>
    + findConstructor(arguments: List<Term>): KCallable<*>
}
@enduml

PlantUML version 1.2021.6beta6(Unknown compile time)
(GPL source distribution)
Java Runtime: Java(TM) SE Runtime Environment
JVM: Java HotSpot(TM) 64-Bit Server VM
Default Encoding: UTF-8
Language: en
Country: US
--></g></svg>