<?xml version="1.0" encoding="UTF-8" standalone="no"?><svg xmlns="http://www.w3.org/2000/svg" xmlns:xlink="http://www.w3.org/1999/xlink" contentScriptType="application/ecmascript" contentStyleType="text/css" height="237px" preserveAspectRatio="none" style="width:798px;height:237px;" version="1.1" viewBox="0 0 798 237" width="798px" zoomAndPan="magnify"><defs><filter height="300%" id="fz1d5l6ngihib" width="300%" x="-1" y="-1"><feGaussianBlur result="blurOut" stdDeviation="2.0"/><feColorMatrix in="blurOut" result="blurOut2" type="matrix" values="0 0 0 0 0 0 0 0 0 0 0 0 0 0 0 0 0 0 .4 0"/><feOffset dx="4.0" dy="4.0" in="blurOut2" result="blurOut3"/><feBlend in="SourceGraphic" in2="blurOut3" mode="normal"/></filter></defs><g><!--MD5=[30404b2edc0ff233b9122d63ae72b243]
cluster :core--><polygon fill="#FFFFFF" filter="url(#fz1d5l6ngihib)" points="16,48,64,48,71,70.2969,383,70.2969,383,230,16,230,16,48" style="stroke:#000000;stroke-width:1.5;"/><line style="stroke:#000000;stroke-width:1.5;" x1="16" x2="71" y1="70.2969" y2="70.2969"/><text fill="#000000" font-family="sans-serif" font-size="14" font-weight="bold" lengthAdjust="spacing" textLength="42" x="20" y="62.9951">:core</text><!--MD5=[5c8f74f689ac2236e8699c53ace97f45]
cluster :oop-lib--><polygon fill="#FFFFFF" filter="url(#fz1d5l6ngihib)" points="411,6,477,6,484,28.2969,781,28.2969,781,188,411,188,411,6" style="stroke:#000000;stroke-width:1.5;"/><line style="stroke:#000000;stroke-width:1.5;" x1="411" x2="484" y1="28.2969" y2="28.2969"/><text fill="#000000" font-family="sans-serif" font-size="14" font-weight="bold" lengthAdjust="spacing" textLength="60" x="415" y="20.9951">:oop-lib</text><!--MD5=[9d35236b92952560f647498cf8a29acb]
class Term--><rect codeLine="5" fill="#FEFECE" filter="url(#fz1d5l6ngihib)" height="48" id="Term" style="stroke:#A80036;stroke-width:1.5;" width="63" x="32" y="125"/><ellipse cx="47" cy="141" fill="#B4A7E5" rx="11" ry="11" style="stroke:#A80036;stroke-width:1.0;"/><path d="M42.9219,136.7656 L42.9219,134.6094 L50.3125,134.6094 L50.3125,136.7656 L47.8438,136.7656 L47.8438,144.8438 L50.3125,144.8438 L50.3125,147 L42.9219,147 L42.9219,144.8438 L45.3906,144.8438 L45.3906,136.7656 L42.9219,136.7656 Z " fill="#000000"/><text fill="#000000" font-family="sans-serif" font-size="12" font-style="italic" lengthAdjust="spacing" textLength="31" x="61" y="145.1543">Term</text><line style="stroke:#A80036;stroke-width:1.5;" x1="33" x2="94" y1="157" y2="157"/><line style="stroke:#A80036;stroke-width:1.5;" x1="33" x2="94" y1="165" y2="165"/><!--MD5=[54b85b6d1a687c59d530998eb343c279]
class Constant--><rect codeLine="6" fill="#FEFECE" filter="url(#fz1d5l6ngihib)" height="48" id="Constant" style="stroke:#A80036;stroke-width:1.5;" width="88" x="155" y="166"/><ellipse cx="170" cy="182" fill="#B4A7E5" rx="11" ry="11" style="stroke:#A80036;stroke-width:1.0;"/><path d="M165.9219,177.7656 L165.9219,175.6094 L173.3125,175.6094 L173.3125,177.7656 L170.8438,177.7656 L170.8438,185.8438 L173.3125,185.8438 L173.3125,188 L165.9219,188 L165.9219,185.8438 L168.3906,185.8438 L168.3906,177.7656 L165.9219,177.7656 Z " fill="#000000"/><text fill="#000000" font-family="sans-serif" font-size="12" font-style="italic" lengthAdjust="spacing" textLength="56" x="184" y="186.1543">Constant</text><line style="stroke:#A80036;stroke-width:1.5;" x1="156" x2="242" y1="198" y2="198"/><line style="stroke:#A80036;stroke-width:1.5;" x1="156" x2="242" y1="206" y2="206"/><!--MD5=[eb0f4986160aea42d9ece72995cb24c7]
class Struct--><rect codeLine="7" fill="#FEFECE" filter="url(#fz1d5l6ngihib)" height="48" id="Struct" style="stroke:#A80036;stroke-width:1.5;" width="70" x="164" y="83"/><ellipse cx="179" cy="99" fill="#B4A7E5" rx="11" ry="11" style="stroke:#A80036;stroke-width:1.0;"/><path d="M174.9219,94.7656 L174.9219,92.6094 L182.3125,92.6094 L182.3125,94.7656 L179.8438,94.7656 L179.8438,102.8438 L182.3125,102.8438 L182.3125,105 L174.9219,105 L174.9219,102.8438 L177.3906,102.8438 L177.3906,94.7656 L174.9219,94.7656 Z " fill="#000000"/><text fill="#000000" font-family="sans-serif" font-size="12" font-style="italic" lengthAdjust="spacing" textLength="38" x="193" y="103.1543">Struct</text><line style="stroke:#A80036;stroke-width:1.5;" x1="165" x2="233" y1="115" y2="115"/><line style="stroke:#A80036;stroke-width:1.5;" x1="165" x2="233" y1="123" y2="123"/><!--MD5=[f18b0f967872e82ff276115ca1b4c569]
class Atom--><rect codeLine="8" fill="#FEFECE" filter="url(#fz1d5l6ngihib)" height="48" id="Atom" style="stroke:#A80036;stroke-width:1.5;" width="64" x="303" y="83"/><ellipse cx="318" cy="99" fill="#B4A7E5" rx="11" ry="11" style="stroke:#A80036;stroke-width:1.0;"/><path d="M313.9219,94.7656 L313.9219,92.6094 L321.3125,92.6094 L321.3125,94.7656 L318.8438,94.7656 L318.8438,102.8438 L321.3125,102.8438 L321.3125,105 L313.9219,105 L313.9219,102.8438 L316.3906,102.8438 L316.3906,94.7656 L313.9219,94.7656 Z " fill="#000000"/><text fill="#000000" font-family="sans-serif" font-size="12" font-style="italic" lengthAdjust="spacing" textLength="32" x="332" y="103.1543">Atom</text><line style="stroke:#A80036;stroke-width:1.5;" x1="304" x2="366" y1="115" y2="115"/><line style="stroke:#A80036;stroke-width:1.5;" x1="304" x2="366" y1="123" y2="123"/><!--MD5=[b426800acd6da9b6ecac1a582c45d730]
class Ref--><rect codeLine="16" fill="#FEFECE" filter="url(#fz1d5l6ngihib)" height="48" id="Ref" style="stroke:#A80036;stroke-width:1.5;" width="52" x="427" y="83"/><ellipse cx="442" cy="99" fill="#B4A7E5" rx="11" ry="11" style="stroke:#A80036;stroke-width:1.0;"/><path d="M437.9219,94.7656 L437.9219,92.6094 L445.3125,92.6094 L445.3125,94.7656 L442.8438,94.7656 L442.8438,102.8438 L445.3125,102.8438 L445.3125,105 L437.9219,105 L437.9219,102.8438 L440.3906,102.8438 L440.3906,94.7656 L437.9219,94.7656 Z " fill="#000000"/><text fill="#000000" font-family="sans-serif" font-size="12" font-style="italic" lengthAdjust="spacing" textLength="20" x="456" y="103.1543">Ref</text><line style="stroke:#A80036;stroke-width:1.5;" x1="428" x2="478" y1="115" y2="115"/><line style="stroke:#A80036;stroke-width:1.5;" x1="428" x2="478" y1="123" y2="123"/><!--MD5=[24c813b3ce4d0a6d9787f260efc3e27a]
class ObjectRef--><rect codeLine="17" fill="#FEFECE" filter="url(#fz1d5l6ngihib)" height="48" id="ObjectRef" style="stroke:#A80036;stroke-width:1.5;" width="91" x="539" y="124"/><ellipse cx="554" cy="140" fill="#B4A7E5" rx="11" ry="11" style="stroke:#A80036;stroke-width:1.0;"/><path d="M549.9219,135.7656 L549.9219,133.6094 L557.3125,133.6094 L557.3125,135.7656 L554.8438,135.7656 L554.8438,143.8438 L557.3125,143.8438 L557.3125,146 L549.9219,146 L549.9219,143.8438 L552.3906,143.8438 L552.3906,135.7656 L549.9219,135.7656 Z " fill="#000000"/><text fill="#000000" font-family="sans-serif" font-size="12" font-style="italic" lengthAdjust="spacing" textLength="59" x="568" y="144.1543">ObjectRef</text><line style="stroke:#A80036;stroke-width:1.5;" x1="540" x2="629" y1="156" y2="156"/><line style="stroke:#A80036;stroke-width:1.5;" x1="540" x2="629" y1="164" y2="164"/><!--MD5=[bb5d160990469bd4f965063233933f15]
class TypeRef--><rect codeLine="18" fill="#FEFECE" filter="url(#fz1d5l6ngihib)" height="48" id="TypeRef" style="stroke:#A80036;stroke-width:1.5;" width="82" x="543.5" y="41"/><ellipse cx="558.5" cy="57" fill="#B4A7E5" rx="11" ry="11" style="stroke:#A80036;stroke-width:1.0;"/><path d="M554.4219,52.7656 L554.4219,50.6094 L561.8125,50.6094 L561.8125,52.7656 L559.3438,52.7656 L559.3438,60.8438 L561.8125,60.8438 L561.8125,63 L554.4219,63 L554.4219,60.8438 L556.8906,60.8438 L556.8906,52.7656 L554.4219,52.7656 Z " fill="#000000"/><text fill="#000000" font-family="sans-serif" font-size="12" font-style="italic" lengthAdjust="spacing" textLength="50" x="572.5" y="61.1543">TypeRef</text><line style="stroke:#A80036;stroke-width:1.5;" x1="544.5" x2="624.5" y1="73" y2="73"/><line style="stroke:#A80036;stroke-width:1.5;" x1="544.5" x2="624.5" y1="81" y2="81"/><!--MD5=[3d6b35729b0ded3898c61e281952a9cf]
class NullRef--><rect codeLine="19" fill="#FEFECE" filter="url(#fz1d5l6ngihib)" height="48" id="NullRef" style="stroke:#A80036;stroke-width:1.5;" width="75" x="690" y="124"/><ellipse cx="705" cy="140" fill="#B4A7E5" rx="11" ry="11" style="stroke:#A80036;stroke-width:1.0;"/><path d="M700.9219,135.7656 L700.9219,133.6094 L708.3125,133.6094 L708.3125,135.7656 L705.8438,135.7656 L705.8438,143.8438 L708.3125,143.8438 L708.3125,146 L700.9219,146 L700.9219,143.8438 L703.3906,143.8438 L703.3906,135.7656 L700.9219,135.7656 Z " fill="#000000"/><text fill="#000000" font-family="sans-serif" font-size="12" font-style="italic" lengthAdjust="spacing" textLength="43" x="719" y="144.1543">NullRef</text><line style="stroke:#A80036;stroke-width:1.5;" x1="691" x2="764" y1="156" y2="156"/><line style="stroke:#A80036;stroke-width:1.5;" x1="691" x2="764" y1="164" y2="164"/><!--MD5=[22dcc2a6458fba43153ab5c044b6d0f2]
reverse link Term to Constant--><path codeLine="10" d="M114.31,164.3 C127.64,168.39 141.93,172.78 154.87,176.75 " fill="none" id="Term-backto-Constant" style="stroke:#A80036;stroke-width:1.0;"/><polygon fill="none" points="112.19,170.97,95.13,158.41,116.3,157.59,112.19,170.97" style="stroke:#A80036;stroke-width:1.0;"/><!--MD5=[f626f12429d76bc694cd64f7f069082d]
reverse link Term to Struct--><path codeLine="11" d="M114.22,133.36 C130.71,128.17 148.7,122.51 163.76,117.77 " fill="none" id="Term-backto-Struct" style="stroke:#A80036;stroke-width:1.0;"/><polygon fill="none" points="116.31,140.04,95.13,139.36,112.1,126.68,116.31,140.04" style="stroke:#A80036;stroke-width:1.0;"/><!--MD5=[71ce62bb6f3323542defcc754b11eb47]
reverse link Struct to Atom--><path codeLine="12" d="M254.43,107 C270.84,107 288.29,107 302.66,107 " fill="none" id="Struct-backto-Atom" style="stroke:#A80036;stroke-width:1.0;"/><polygon fill="none" points="254.16,114,234.16,107,254.16,100,254.16,114" style="stroke:#A80036;stroke-width:1.0;"/><!--MD5=[1aaf9f634ddbf1899d62ba275e398f36]
reverse link Ref to ObjectRef--><path codeLine="21" d="M498.45,121.07 C511.51,125.21 525.81,129.73 538.88,133.87 " fill="none" id="Ref-backto-ObjectRef" style="stroke:#A80036;stroke-width:1.0;"/><polygon fill="none" points="496.23,127.71,479.28,115,500.46,114.37,496.23,127.71" style="stroke:#A80036;stroke-width:1.0;"/><!--MD5=[d6b1f1a5a77c324e39080ec4756d6859]
reverse link Ref to TypeRef--><path codeLine="22" d="M498.46,92.58 C513,87.87 529.05,82.66 543.25,78.05 " fill="none" id="Ref-backto-TypeRef" style="stroke:#A80036;stroke-width:1.0;"/><polygon fill="none" points="500.46,99.29,479.28,98.8,496.14,85.97,500.46,99.29" style="stroke:#A80036;stroke-width:1.0;"/><!--MD5=[c3e0bedeb9e4d71141d63771f7eb0aa2]
reverse link ObjectRef to NullRef--><path codeLine="23" d="M650.21,148 C663.77,148 677.62,148 689.73,148 " fill="none" id="ObjectRef-backto-NullRef" style="stroke:#A80036;stroke-width:1.0;"/><polygon fill="none" points="650.11,155,630.11,148,650.11,141,650.11,155" style="stroke:#A80036;stroke-width:1.0;"/><!--MD5=[23e96a29e95e2c1fc0d71dc76cf710b0]
reverse link Atom to Ref--><path codeLine="26" d="M387.1,107 C400.82,107 415.06,107 426.69,107 " fill="none" id="Atom-backto-Ref" style="stroke:#A80036;stroke-width:1.0;"/><polygon fill="none" points="387.09,114,367.09,107,387.09,100,387.09,114" style="stroke:#A80036;stroke-width:1.0;"/><!--MD5=[7fdb78d503786ad073a3150500da0683]
@startuml

left to right direction

package :core {
    interface Term
    interface Constant
    interface Struct
    interface Atom

    Term <|- - Constant
    Term <|- - Struct
    Struct <|- - Atom
}

package :oop-lib {
    interface Ref 
    interface ObjectRef
    interface TypeRef
    interface NullRef

    Ref <|- - ObjectRef
    Ref <|- - TypeRef
    ObjectRef <|- - NullRef
}

Atom <|- - Ref

@enduml

PlantUML version 1.2021.00(Sun Jan 10 11:25:05 CET 2021)
(MIT source distribution)
Java Runtime: OpenJDK Runtime Environment
JVM: OpenJDK 64-Bit Server VM
Default Encoding: UTF-8
Language: it
Country: IT
--></g></svg>