<?xml version="1.0" encoding="UTF-8" standalone="no"?><svg xmlns="http://www.w3.org/2000/svg" xmlns:xlink="http://www.w3.org/1999/xlink" contentScriptType="application/ecmascript" contentStyleType="text/css" height="219px" preserveAspectRatio="none" style="width:360px;height:219px;" version="1.1" viewBox="0 0 360 219" width="360px" zoomAndPan="magnify"><defs><filter height="300%" id="f104vjrpqv19c1" width="300%" x="-1" y="-1"><feGaussianBlur result="blurOut" stdDeviation="2.0"/><feColorMatrix in="blurOut" result="blurOut2" type="matrix" values="0 0 0 0 0 0 0 0 0 0 0 0 0 0 0 0 0 0 .4 0"/><feOffset dx="4.0" dy="4.0" in="blurOut2" result="blurOut3"/><feBlend in="SourceGraphic" in2="blurOut3" mode="normal"/></filter></defs><g><!--MD5=[edea06a7d58d16627e96798795365c36]
class Theory--><rect codeLine="5" fill="#FEFECE" filter="url(#f104vjrpqv19c1)" height="32" id="Theory" style="stroke:#A80036;stroke-width:1.5;" width="70" x="7" y="21"/><ellipse cx="22" cy="37" fill="#B4A7E5" rx="11" ry="11" style="stroke:#A80036;stroke-width:1.0;"/><path d="M22.9531,33.6406 L22.9531,40.2969 L24.6719,40.2969 Q25.2813,40.2969 25.5469,40.5313 Q25.8125,40.7656 25.8125,41.1563 Q25.8125,41.5313 25.5469,41.7656 Q25.2813,42 24.6719,42 L19.5313,42 Q18.9219,42 18.6563,41.7656 Q18.3906,41.5313 18.3906,41.1406 Q18.3906,40.7656 18.6563,40.5313 Q18.9219,40.2969 19.5313,40.2969 L21.25,40.2969 L21.25,33.6406 L19.5313,33.6406 Q18.9219,33.6406 18.6563,33.4063 Q18.3906,33.1719 18.3906,32.7813 Q18.3906,32.4063 18.6563,32.1719 Q18.9219,31.9375 19.5313,31.9375 L24.6719,31.9375 Q25.2813,31.9375 25.5469,32.1719 Q25.8125,32.4063 25.8125,32.7813 Q25.8125,33.1719 25.5469,33.4063 Q25.2813,33.6406 24.6719,33.6406 L22.9531,33.6406 Z " fill="#000000"/><text fill="#000000" font-family="sans-serif" font-size="12" font-style="italic" lengthAdjust="spacing" textLength="38" x="36" y="41.9102">Theory</text><!--MD5=[0cfa1c9e7fe8a5b0fb64940531a3d6cf]
class RetractResult--><rect codeLine="7" fill="#FEFECE" filter="url(#f104vjrpqv19c1)" height="53.8359" id="RetractResult" style="stroke:#A80036;stroke-width:1.5;" width="165" x="112.5" y="10"/><ellipse cx="127.5" cy="26" fill="#ADD1B2" rx="11" ry="11" style="stroke:#A80036;stroke-width:1.0;"/><path d="M130.2656,21.875 Q130.4219,21.6563 130.6094,21.5469 Q130.7969,21.4375 131.0156,21.4375 Q131.3906,21.4375 131.625,21.7031 Q131.8594,21.9531 131.8594,22.5625 L131.8594,24.0156 Q131.8594,24.625 131.625,24.8906 Q131.3906,25.1563 131.0156,25.1563 Q130.6719,25.1563 130.4688,24.9531 Q130.2656,24.7656 130.1563,24.25 Q130.1094,23.8906 129.9219,23.7031 Q129.5938,23.3281 128.9844,23.1094 Q128.375,22.8906 127.75,22.8906 Q126.9844,22.8906 126.3438,23.2188 Q125.7188,23.5469 125.2188,24.2969 Q124.7344,25.0469 124.7344,26.0781 L124.7344,27.1719 Q124.7344,28.4063 125.625,29.2344 Q126.5156,30.0469 128.1094,30.0469 Q129.0469,30.0469 129.7031,29.7969 Q130.0938,29.6406 130.5156,29.2031 Q130.7813,28.9375 130.9219,28.8594 Q131.0781,28.7813 131.2813,28.7813 Q131.6094,28.7813 131.8594,29.0469 Q132.125,29.2969 132.125,29.6406 Q132.125,29.9844 131.7813,30.3906 Q131.2813,30.9688 130.4844,31.2969 Q129.4063,31.75 128.1094,31.75 Q126.5938,31.75 125.3906,31.125 Q124.4063,30.625 123.7188,29.5625 Q123.0313,28.4844 123.0313,27.2031 L123.0313,26.0469 Q123.0313,24.7188 123.6406,23.5781 Q124.2656,22.4219 125.3594,21.8125 Q126.4531,21.1875 127.6875,21.1875 Q128.4219,21.1875 129.0625,21.3594 Q129.7188,21.5156 130.2656,21.875 Z " fill="#000000"/><text fill="#000000" font-family="sans-serif" font-size="12" lengthAdjust="spacing" textLength="75" x="141.5" y="30.9102">RetractResult</text><rect fill="#FFFFFF" height="17.0938" style="stroke:#000000;stroke-width:1.0;stroke-dasharray:2.0,2.0;" width="56" x="224.5" y="7"/><text fill="#000000" font-family="sans-serif" font-size="12" font-style="italic" lengthAdjust="spacing" textLength="54" x="225.5" y="20.457">T : Theory</text><line style="stroke:#A80036;stroke-width:1.5;" x1="113.5" x2="276.5" y1="42" y2="42"/><ellipse cx="123.5" cy="53" fill="none" rx="3" ry="3" style="stroke:#038048;stroke-width:1.0;"/><text fill="#000000" font-family="sans-serif" font-size="11" font-style="italic" lengthAdjust="spacing" textLength="70" x="132.5" y="57.4189">theory: Theory</text><!--MD5=[62b2edce616dbe77035d94d16f9f0d8e]
class Success--><rect codeLine="11" fill="#FEFECE" filter="url(#f104vjrpqv19c1)" height="81.5078" id="Success" style="stroke:#A80036;stroke-width:1.5;" width="150" x="33" y="124"/><ellipse cx="53.4" cy="140" fill="#ADD1B2" rx="11" ry="11" style="stroke:#A80036;stroke-width:1.0;"/><path d="M56.1656,135.875 Q56.3219,135.6563 56.5094,135.5469 Q56.6969,135.4375 56.9156,135.4375 Q57.2906,135.4375 57.525,135.7031 Q57.7594,135.9531 57.7594,136.5625 L57.7594,138.0156 Q57.7594,138.625 57.525,138.8906 Q57.2906,139.1563 56.9156,139.1563 Q56.5719,139.1563 56.3688,138.9531 Q56.1656,138.7656 56.0563,138.25 Q56.0094,137.8906 55.8219,137.7031 Q55.4938,137.3281 54.8844,137.1094 Q54.275,136.8906 53.65,136.8906 Q52.8844,136.8906 52.2438,137.2188 Q51.6188,137.5469 51.1188,138.2969 Q50.6344,139.0469 50.6344,140.0781 L50.6344,141.1719 Q50.6344,142.4063 51.525,143.2344 Q52.4156,144.0469 54.0094,144.0469 Q54.9469,144.0469 55.6031,143.7969 Q55.9938,143.6406 56.4156,143.2031 Q56.6813,142.9375 56.8219,142.8594 Q56.9781,142.7813 57.1813,142.7813 Q57.5094,142.7813 57.7594,143.0469 Q58.025,143.2969 58.025,143.6406 Q58.025,143.9844 57.6813,144.3906 Q57.1813,144.9688 56.3844,145.2969 Q55.3063,145.75 54.0094,145.75 Q52.4938,145.75 51.2906,145.125 Q50.3063,144.625 49.6188,143.5625 Q48.9313,142.4844 48.9313,141.2031 L48.9313,140.0469 Q48.9313,138.7188 49.5406,137.5781 Q50.1656,136.4219 51.2594,135.8125 Q52.3531,135.1875 53.5875,135.1875 Q54.3219,135.1875 54.9625,135.3594 Q55.6188,135.5156 56.1656,135.875 Z " fill="#000000"/><text fill="#000000" font-family="sans-serif" font-size="12" lengthAdjust="spacing" textLength="48" x="68.6" y="144.9102">Success</text><rect fill="#FFFFFF" height="17.0938" style="stroke:#000000;stroke-width:1.0;stroke-dasharray:2.0,2.0;" width="56" x="130" y="121"/><text fill="#000000" font-family="sans-serif" font-size="12" font-style="italic" lengthAdjust="spacing" textLength="54" x="131" y="134.457">T : Theory</text><line style="stroke:#A80036;stroke-width:1.5;" x1="34" x2="182" y1="156" y2="156"/><ellipse cx="44" cy="167" fill="none" rx="3" ry="3" style="stroke:#038048;stroke-width:1.0;"/><text fill="#000000" font-family="sans-serif" font-size="11" lengthAdjust="spacing" textLength="71" x="53" y="171.4189">theory: Theory</text><ellipse cx="44" cy="180.8359" fill="none" rx="3" ry="3" style="stroke:#038048;stroke-width:1.0;"/><text fill="#000000" font-family="sans-serif" font-size="11" lengthAdjust="spacing" textLength="124" x="53" y="185.2549">clauses: Iterable&lt;Clause&gt;</text><ellipse cx="44" cy="194.6719" fill="none" rx="3" ry="3" style="stroke:#038048;stroke-width:1.0;"/><text fill="#000000" font-family="sans-serif" font-size="11" lengthAdjust="spacing" textLength="91" x="53" y="199.0908">firstClause: Clause</text><!--MD5=[879cfd5b89c70812f6e9f600c0875908]
class Failure--><rect codeLine="17" fill="#FEFECE" filter="url(#f104vjrpqv19c1)" height="53.8359" id="Failure" style="stroke:#A80036;stroke-width:1.5;" width="128" x="218" y="138"/><ellipse cx="233" cy="154" fill="#ADD1B2" rx="11" ry="11" style="stroke:#A80036;stroke-width:1.0;"/><path d="M235.7656,149.875 Q235.9219,149.6563 236.1094,149.5469 Q236.2969,149.4375 236.5156,149.4375 Q236.8906,149.4375 237.125,149.7031 Q237.3594,149.9531 237.3594,150.5625 L237.3594,152.0156 Q237.3594,152.625 237.125,152.8906 Q236.8906,153.1563 236.5156,153.1563 Q236.1719,153.1563 235.9688,152.9531 Q235.7656,152.7656 235.6563,152.25 Q235.6094,151.8906 235.4219,151.7031 Q235.0938,151.3281 234.4844,151.1094 Q233.875,150.8906 233.25,150.8906 Q232.4844,150.8906 231.8438,151.2188 Q231.2188,151.5469 230.7188,152.2969 Q230.2344,153.0469 230.2344,154.0781 L230.2344,155.1719 Q230.2344,156.4063 231.125,157.2344 Q232.0156,158.0469 233.6094,158.0469 Q234.5469,158.0469 235.2031,157.7969 Q235.5938,157.6406 236.0156,157.2031 Q236.2813,156.9375 236.4219,156.8594 Q236.5781,156.7813 236.7813,156.7813 Q237.1094,156.7813 237.3594,157.0469 Q237.625,157.2969 237.625,157.6406 Q237.625,157.9844 237.2813,158.3906 Q236.7813,158.9688 235.9844,159.2969 Q234.9063,159.75 233.6094,159.75 Q232.0938,159.75 230.8906,159.125 Q229.9063,158.625 229.2188,157.5625 Q228.5313,156.4844 228.5313,155.2031 L228.5313,154.0469 Q228.5313,152.7188 229.1406,151.5781 Q229.7656,150.4219 230.8594,149.8125 Q231.9531,149.1875 233.1875,149.1875 Q233.9219,149.1875 234.5625,149.3594 Q235.2188,149.5156 235.7656,149.875 Z " fill="#000000"/><text fill="#000000" font-family="sans-serif" font-size="12" lengthAdjust="spacing" textLength="38" x="247" y="158.9102">Failure</text><rect fill="#FFFFFF" height="17.0938" style="stroke:#000000;stroke-width:1.0;stroke-dasharray:2.0,2.0;" width="56" x="293" y="135"/><text fill="#000000" font-family="sans-serif" font-size="12" font-style="italic" lengthAdjust="spacing" textLength="54" x="294" y="148.457">T : Theory</text><line style="stroke:#A80036;stroke-width:1.5;" x1="219" x2="345" y1="170" y2="170"/><ellipse cx="229" cy="181" fill="none" rx="3" ry="3" style="stroke:#038048;stroke-width:1.0;"/><text fill="#000000" font-family="sans-serif" font-size="11" lengthAdjust="spacing" textLength="71" x="238" y="185.4189">theory: Theory</text><!--MD5=[3066c0590430fce8b7100355d10d05d5]
reverse link RetractResult to Success--><path codeLine="21" d="M165.56,80.64 C155.99,94.5 145.4,109.84 135.94,123.53 " fill="none" id="RetractResult-backto-Success" style="stroke:#A80036;stroke-width:1.0;"/><polygon fill="none" points="159.85,76.59,176.97,64.11,171.37,84.54,159.85,76.59" style="stroke:#A80036;stroke-width:1.0;"/><!--MD5=[8aaebaae656b2406335626ca28554bb2]
reverse link RetractResult to Failure--><path codeLine="22" d="M224.59,80.85 C237.67,99.8 252.63,121.46 264,137.93 " fill="none" id="RetractResult-backto-Failure" style="stroke:#A80036;stroke-width:1.0;"/><polygon fill="none" points="218.63,84.54,213.03,64.11,230.15,76.59,218.63,84.54" style="stroke:#A80036;stroke-width:1.0;"/><!--MD5=[5649c5ee0d0e768127be7638a0d2e2a1]
link Theory to RetractResult--><path codeLine="24" d="M77.26,37 C87.18,37 97.11,37 107.03,37 " fill="none" id="Theory-to-RetractResult" style="stroke:#A80036;stroke-width:1.0;stroke-dasharray:7.0,7.0;"/><polygon fill="#A80036" points="112.22,37,103.22,33,107.22,37,103.22,41,112.22,37" style="stroke:#A80036;stroke-width:1.0;"/><!--MD5=[150117c61c8fb8fd3194911c58bffb63]
@startuml

hide Theory members
hide methods

interface Theory

class RetractResult<T : Theory> {
    + {abstract} theory: Theory
}

class Success<T : Theory> {
    + theory: Theory
    + clauses: Iterable<Clause>
    + firstClause: Clause
}

class Failure<T : Theory> {
    + theory: Theory
}

RetractResult <|- - Success
RetractResult <|- - Failure

Theory .right.> RetractResult

@enduml

PlantUML version 1.2021.00(Sun Jan 10 11:25:05 CET 2021)
(GPL source distribution)
Java Runtime: OpenJDK Runtime Environment
JVM: OpenJDK 64-Bit Server VM
Default Encoding: Cp1252
Language: en
Country: US
--></g></svg>