<?xml version="1.0" encoding="UTF-8" standalone="no"?><svg xmlns="http://www.w3.org/2000/svg" xmlns:xlink="http://www.w3.org/1999/xlink" contentScriptType="application/ecmascript" contentStyleType="text/css" height="219px" preserveAspectRatio="none" style="width:503px;height:219px;" version="1.1" viewBox="0 0 503 219" width="503px" zoomAndPan="magnify"><defs><filter height="300%" id="f110ft859lbf31" width="300%" x="-1" y="-1"><feGaussianBlur result="blurOut" stdDeviation="2.0"/><feColorMatrix in="blurOut" result="blurOut2" type="matrix" values="0 0 0 0 0 0 0 0 0 0 0 0 0 0 0 0 0 0 .4 0"/><feOffset dx="4.0" dy="4.0" in="blurOut2" result="blurOut3"/><feBlend in="SourceGraphic" in2="blurOut3" mode="normal"/></filter></defs><g><!--MD5=[e58ab208f3be0c33294b0b0cc10d28a1]
class ClauseCollection--><rect codeLine="5" fill="#FEFECE" filter="url(#f110ft859lbf31)" height="32" id="ClauseCollection" style="stroke:#A80036;stroke-width:1.5;" width="126" x="7" y="21"/><ellipse cx="22" cy="37" fill="#B4A7E5" rx="11" ry="11" style="stroke:#A80036;stroke-width:1.0;"/><path d="M22.9531,33.6406 L22.9531,40.2969 L24.6719,40.2969 Q25.2813,40.2969 25.5469,40.5313 Q25.8125,40.7656 25.8125,41.1563 Q25.8125,41.5313 25.5469,41.7656 Q25.2813,42 24.6719,42 L19.5313,42 Q18.9219,42 18.6563,41.7656 Q18.3906,41.5313 18.3906,41.1406 Q18.3906,40.7656 18.6563,40.5313 Q18.9219,40.2969 19.5313,40.2969 L21.25,40.2969 L21.25,33.6406 L19.5313,33.6406 Q18.9219,33.6406 18.6563,33.4063 Q18.3906,33.1719 18.3906,32.7813 Q18.3906,32.4063 18.6563,32.1719 Q18.9219,31.9375 19.5313,31.9375 L24.6719,31.9375 Q25.2813,31.9375 25.5469,32.1719 Q25.8125,32.4063 25.8125,32.7813 Q25.8125,33.1719 25.5469,33.4063 Q25.2813,33.6406 24.6719,33.6406 L22.9531,33.6406 Z " fill="#000000"/><text fill="#000000" font-family="sans-serif" font-size="12" font-style="italic" lengthAdjust="spacing" textLength="94" x="36" y="41.9102">ClauseCollection</text><!--MD5=[6c66aa824cb14e73d81b1cfa54ea88dc]
class RetrieveResult--><rect codeLine="7" fill="#FEFECE" filter="url(#f110ft859lbf31)" height="53.8359" id="RetrieveResult" style="stroke:#A80036;stroke-width:1.5;" width="229" x="168.5" y="10"/><ellipse cx="183.5" cy="26" fill="#ADD1B2" rx="11" ry="11" style="stroke:#A80036;stroke-width:1.0;"/><path d="M186.2656,21.875 Q186.4219,21.6563 186.6094,21.5469 Q186.7969,21.4375 187.0156,21.4375 Q187.3906,21.4375 187.625,21.7031 Q187.8594,21.9531 187.8594,22.5625 L187.8594,24.0156 Q187.8594,24.625 187.625,24.8906 Q187.3906,25.1563 187.0156,25.1563 Q186.6719,25.1563 186.4688,24.9531 Q186.2656,24.7656 186.1563,24.25 Q186.1094,23.8906 185.9219,23.7031 Q185.5938,23.3281 184.9844,23.1094 Q184.375,22.8906 183.75,22.8906 Q182.9844,22.8906 182.3438,23.2188 Q181.7188,23.5469 181.2188,24.2969 Q180.7344,25.0469 180.7344,26.0781 L180.7344,27.1719 Q180.7344,28.4063 181.625,29.2344 Q182.5156,30.0469 184.1094,30.0469 Q185.0469,30.0469 185.7031,29.7969 Q186.0938,29.6406 186.5156,29.2031 Q186.7813,28.9375 186.9219,28.8594 Q187.0781,28.7813 187.2813,28.7813 Q187.6094,28.7813 187.8594,29.0469 Q188.125,29.2969 188.125,29.6406 Q188.125,29.9844 187.7813,30.3906 Q187.2813,30.9688 186.4844,31.2969 Q185.4063,31.75 184.1094,31.75 Q182.5938,31.75 181.3906,31.125 Q180.4063,30.625 179.7188,29.5625 Q179.0313,28.4844 179.0313,27.2031 L179.0313,26.0469 Q179.0313,24.7188 179.6406,23.5781 Q180.2656,22.4219 181.3594,21.8125 Q182.4531,21.1875 183.6875,21.1875 Q184.4219,21.1875 185.0625,21.3594 Q185.7188,21.5156 186.2656,21.875 Z " fill="#000000"/><text fill="#000000" font-family="sans-serif" font-size="12" lengthAdjust="spacing" textLength="81" x="197.5" y="30.9102">RetrieveResult</text><rect fill="#FFFFFF" height="17.0938" style="stroke:#000000;stroke-width:1.0;stroke-dasharray:2.0,2.0;" width="114" x="286.5" y="7"/><text fill="#000000" font-family="sans-serif" font-size="12" font-style="italic" lengthAdjust="spacing" textLength="112" x="287.5" y="20.457">C : ClauseCollection</text><line style="stroke:#A80036;stroke-width:1.5;" x1="169.5" x2="396.5" y1="42" y2="42"/><ellipse cx="179.5" cy="53" fill="none" rx="3" ry="3" style="stroke:#038048;stroke-width:1.0;"/><text fill="#000000" font-family="sans-serif" font-size="11" font-style="italic" lengthAdjust="spacing" textLength="62" x="188.5" y="57.4189">collection: C</text><!--MD5=[62b2edce616dbe77035d94d16f9f0d8e]
class Success--><rect codeLine="11" fill="#FEFECE" filter="url(#f110ft859lbf31)" height="81.5078" id="Success" style="stroke:#A80036;stroke-width:1.5;" width="196" x="72" y="124"/><ellipse cx="87" cy="140" fill="#ADD1B2" rx="11" ry="11" style="stroke:#A80036;stroke-width:1.0;"/><path d="M89.7656,135.875 Q89.9219,135.6563 90.1094,135.5469 Q90.2969,135.4375 90.5156,135.4375 Q90.8906,135.4375 91.125,135.7031 Q91.3594,135.9531 91.3594,136.5625 L91.3594,138.0156 Q91.3594,138.625 91.125,138.8906 Q90.8906,139.1563 90.5156,139.1563 Q90.1719,139.1563 89.9688,138.9531 Q89.7656,138.7656 89.6563,138.25 Q89.6094,137.8906 89.4219,137.7031 Q89.0938,137.3281 88.4844,137.1094 Q87.875,136.8906 87.25,136.8906 Q86.4844,136.8906 85.8438,137.2188 Q85.2188,137.5469 84.7188,138.2969 Q84.2344,139.0469 84.2344,140.0781 L84.2344,141.1719 Q84.2344,142.4063 85.125,143.2344 Q86.0156,144.0469 87.6094,144.0469 Q88.5469,144.0469 89.2031,143.7969 Q89.5938,143.6406 90.0156,143.2031 Q90.2813,142.9375 90.4219,142.8594 Q90.5781,142.7813 90.7813,142.7813 Q91.1094,142.7813 91.3594,143.0469 Q91.625,143.2969 91.625,143.6406 Q91.625,143.9844 91.2813,144.3906 Q90.7813,144.9688 89.9844,145.2969 Q88.9063,145.75 87.6094,145.75 Q86.0938,145.75 84.8906,145.125 Q83.9063,144.625 83.2188,143.5625 Q82.5313,142.4844 82.5313,141.2031 L82.5313,140.0469 Q82.5313,138.7188 83.1406,137.5781 Q83.7656,136.4219 84.8594,135.8125 Q85.9531,135.1875 87.1875,135.1875 Q87.9219,135.1875 88.5625,135.3594 Q89.2188,135.5156 89.7656,135.875 Z " fill="#000000"/><text fill="#000000" font-family="sans-serif" font-size="12" lengthAdjust="spacing" textLength="48" x="101" y="144.9102">Success</text><rect fill="#FFFFFF" height="17.0938" style="stroke:#000000;stroke-width:1.0;stroke-dasharray:2.0,2.0;" width="114" x="157" y="121"/><text fill="#000000" font-family="sans-serif" font-size="12" font-style="italic" lengthAdjust="spacing" textLength="112" x="158" y="134.457">C : ClauseCollection</text><line style="stroke:#A80036;stroke-width:1.5;" x1="73" x2="267" y1="156" y2="156"/><ellipse cx="83" cy="167" fill="none" rx="3" ry="3" style="stroke:#038048;stroke-width:1.0;"/><text fill="#000000" font-family="sans-serif" font-size="11" lengthAdjust="spacing" textLength="58" x="92" y="171.4189">collection: C</text><ellipse cx="83" cy="180.8359" fill="none" rx="3" ry="3" style="stroke:#038048;stroke-width:1.0;"/><text fill="#000000" font-family="sans-serif" font-size="11" lengthAdjust="spacing" textLength="106" x="92" y="185.2549">clauses: List&lt;Clause&gt;</text><ellipse cx="83" cy="194.6719" fill="none" rx="3" ry="3" style="stroke:#038048;stroke-width:1.0;"/><text fill="#000000" font-family="sans-serif" font-size="11" lengthAdjust="spacing" textLength="91" x="92" y="199.0908">firstClause: Clause</text><!--MD5=[879cfd5b89c70812f6e9f600c0875908]
class Failure--><rect codeLine="17" fill="#FEFECE" filter="url(#f110ft859lbf31)" height="53.8359" id="Failure" style="stroke:#A80036;stroke-width:1.5;" width="186" x="303" y="138"/><ellipse cx="318" cy="154" fill="#ADD1B2" rx="11" ry="11" style="stroke:#A80036;stroke-width:1.0;"/><path d="M320.7656,149.875 Q320.9219,149.6563 321.1094,149.5469 Q321.2969,149.4375 321.5156,149.4375 Q321.8906,149.4375 322.125,149.7031 Q322.3594,149.9531 322.3594,150.5625 L322.3594,152.0156 Q322.3594,152.625 322.125,152.8906 Q321.8906,153.1563 321.5156,153.1563 Q321.1719,153.1563 320.9688,152.9531 Q320.7656,152.7656 320.6563,152.25 Q320.6094,151.8906 320.4219,151.7031 Q320.0938,151.3281 319.4844,151.1094 Q318.875,150.8906 318.25,150.8906 Q317.4844,150.8906 316.8438,151.2188 Q316.2188,151.5469 315.7188,152.2969 Q315.2344,153.0469 315.2344,154.0781 L315.2344,155.1719 Q315.2344,156.4063 316.125,157.2344 Q317.0156,158.0469 318.6094,158.0469 Q319.5469,158.0469 320.2031,157.7969 Q320.5938,157.6406 321.0156,157.2031 Q321.2813,156.9375 321.4219,156.8594 Q321.5781,156.7813 321.7813,156.7813 Q322.1094,156.7813 322.3594,157.0469 Q322.625,157.2969 322.625,157.6406 Q322.625,157.9844 322.2813,158.3906 Q321.7813,158.9688 320.9844,159.2969 Q319.9063,159.75 318.6094,159.75 Q317.0938,159.75 315.8906,159.125 Q314.9063,158.625 314.2188,157.5625 Q313.5313,156.4844 313.5313,155.2031 L313.5313,154.0469 Q313.5313,152.7188 314.1406,151.5781 Q314.7656,150.4219 315.8594,149.8125 Q316.9531,149.1875 318.1875,149.1875 Q318.9219,149.1875 319.5625,149.3594 Q320.2188,149.5156 320.7656,149.875 Z " fill="#000000"/><text fill="#000000" font-family="sans-serif" font-size="12" lengthAdjust="spacing" textLength="38" x="332" y="158.9102">Failure</text><rect fill="#FFFFFF" height="17.0938" style="stroke:#000000;stroke-width:1.0;stroke-dasharray:2.0,2.0;" width="114" x="378" y="135"/><text fill="#000000" font-family="sans-serif" font-size="12" font-style="italic" lengthAdjust="spacing" textLength="112" x="379" y="148.457">C : ClauseCollection</text><line style="stroke:#A80036;stroke-width:1.5;" x1="304" x2="488" y1="170" y2="170"/><ellipse cx="314" cy="181" fill="none" rx="3" ry="3" style="stroke:#038048;stroke-width:1.0;"/><text fill="#000000" font-family="sans-serif" font-size="11" lengthAdjust="spacing" textLength="58" x="323" y="185.4189">collection: C</text><!--MD5=[5abe403d99fc7644a79fdedc379a6561]
link ClauseCollection to RetrieveResult--><path codeLine="21" d="M133.23,37 C143.2,37 153.16,37 163.13,37 " fill="none" id="ClauseCollection-to-RetrieveResult" style="stroke:#A80036;stroke-width:1.0;stroke-dasharray:7.0,7.0;"/><polygon fill="#A80036" points="168.34,37,159.34,33,163.34,37,159.34,41,168.34,37" style="stroke:#A80036;stroke-width:1.0;"/><!--MD5=[fa871dd302e04cd94b6d1e850f80d187]
reverse link RetrieveResult to Success--><path codeLine="23" d="M246,79.26 C233.24,93.48 218.98,109.38 206.29,123.53 " fill="none" id="RetrieveResult-backto-Success" style="stroke:#A80036;stroke-width:1.0;"/><polygon fill="none" points="241.02,74.32,259.59,64.11,251.44,83.67,241.02,74.32" style="stroke:#A80036;stroke-width:1.0;"/><!--MD5=[9e2b198d002ee3becbae77e072ad6349]
reverse link RetrieveResult to Failure--><path codeLine="24" d="M319.87,79.11 C337.22,98.46 357.4,120.95 372.62,137.93 " fill="none" id="RetrieveResult-backto-Failure" style="stroke:#A80036;stroke-width:1.0;"/><polygon fill="none" points="314.56,83.67,306.41,64.11,324.98,74.32,314.56,83.67" style="stroke:#A80036;stroke-width:1.0;"/><!--MD5=[d1b6081e6d0016527a3697194cfd41d9]
@startuml

hide methods
hide ClauseCollection fields

interface ClauseCollection

class RetrieveResult<C : ClauseCollection> {
    + {abstract} collection: C
}

class Success<C : ClauseCollection> {
    + collection: C
    + clauses: List<Clause>
    + firstClause: Clause
}

class Failure<C : ClauseCollection> {
    + collection: C
}

ClauseCollection .right.> RetrieveResult

RetrieveResult <|- - Success
RetrieveResult <|- - Failure

@enduml

PlantUML version 1.2021.00(Sun Jan 10 11:25:05 CET 2021)
(GPL source distribution)
Java Runtime: OpenJDK Runtime Environment
JVM: OpenJDK 64-Bit Server VM
Default Encoding: Cp1252
Language: en
Country: US
--></g></svg>