<?xml version="1.0" encoding="UTF-8" standalone="no"?>
<svg xmlns="http://www.w3.org/2000/svg" xmlns:xlink="http://www.w3.org/1999/xlink" contentScriptType="application/ecmascript" contentStyleType="text/css" height="152px" preserveAspectRatio="none" style="width:648px;height:152px;background:#FFFFFF;" version="1.1" viewBox="0 0 648 152" width="648px" zoomAndPan="magnify"><defs><filter height="300%" id="f9vusr92biuwq" width="300%" x="-1" y="-1"><feGaussianBlur result="blurOut" stdDeviation="2.0"/><feColorMatrix in="blurOut" result="blurOut2" type="matrix" values="0 0 0 0 0 0 0 0 0 0 0 0 0 0 0 0 0 0 .4 0"/><feOffset dx="4.0" dy="4.0" in="blurOut2" result="blurOut3"/><feBlend in="SourceGraphic" in2="blurOut3" mode="normal"/></filter></defs><g><!--MD5=[9d35236b92952560f647498cf8a29acb]
class Term--><rect codeLine="3" fill="#FEFECE" filter="url(#f9vusr92biuwq)" height="48" id="Term" style="stroke:#A80036;stroke-width:1.5;" width="63" x="7" y="49"/><ellipse cx="22" cy="65" fill="#B4A7E5" rx="11" ry="11" style="stroke:#A80036;stroke-width:1.0;"/><path d="M22.9531,61.7813 L24.6719,61.7813 C25.0625,61.7813 25.25,61.75 25.375,61.6719 C25.6406,61.5156 25.7813,61.2344 25.7813,60.9375 C25.7813,60.6719 25.6719,60.4063 25.4375,60.2344 C25.2656,60.125 25.125,60.0938 24.6719,60.0938 L19.5313,60.0938 C19.0938,60.0938 18.9688,60.1094 18.8125,60.2031 C18.5625,60.3594 18.4063,60.6563 18.4063,60.9375 C18.4063,61.2188 18.5469,61.4688 18.7656,61.6406 C18.9219,61.75 19.1094,61.7813 19.5313,61.7813 L21.25,61.7813 L21.25,68.2969 L19.5313,68.2969 C19.0938,68.2969 18.9688,68.3125 18.8125,68.4219 C18.5625,68.5781 18.4063,68.8594 18.4063,69.1563 C18.4063,69.4063 18.5469,69.6719 18.7656,69.8281 C18.9219,69.9531 19.125,70 19.5313,70 L24.6719,70 C25.4219,70 25.7813,69.7188 25.7813,69.1563 C25.7813,68.875 25.6719,68.625 25.4375,68.4531 C25.2656,68.3281 25.125,68.2969 24.6719,68.2969 L22.9531,68.2969 L22.9531,61.7813 Z " fill="#000000"/><text fill="#000000" font-family="sans-serif" font-size="12" font-style="italic" lengthAdjust="spacing" textLength="31" x="36" y="69.1543">Term</text><line style="stroke:#A80036;stroke-width:1.5;" x1="8" x2="69" y1="81" y2="81"/><line style="stroke:#A80036;stroke-width:1.5;" x1="8" x2="69" y1="89" y2="89"/><!--MD5=[f18b0f967872e82ff276115ca1b4c569]
class Atom--><rect codeLine="4" fill="#FEFECE" filter="url(#f9vusr92biuwq)" height="48" id="Atom" style="stroke:#A80036;stroke-width:1.5;" width="64" x="273" y="7"/><ellipse cx="288" cy="23" fill="#B4A7E5" rx="11" ry="11" style="stroke:#A80036;stroke-width:1.0;"/><path d="M288.9531,19.7813 L290.6719,19.7813 C291.0625,19.7813 291.25,19.75 291.375,19.6719 C291.6406,19.5156 291.7813,19.2344 291.7813,18.9375 C291.7813,18.6719 291.6719,18.4063 291.4375,18.2344 C291.2656,18.125 291.125,18.0938 290.6719,18.0938 L285.5313,18.0938 C285.0938,18.0938 284.9688,18.1094 284.8125,18.2031 C284.5625,18.3594 284.4063,18.6563 284.4063,18.9375 C284.4063,19.2188 284.5469,19.4688 284.7656,19.6406 C284.9219,19.75 285.1094,19.7813 285.5313,19.7813 L287.25,19.7813 L287.25,26.2969 L285.5313,26.2969 C285.0938,26.2969 284.9688,26.3125 284.8125,26.4219 C284.5625,26.5781 284.4063,26.8594 284.4063,27.1563 C284.4063,27.4063 284.5469,27.6719 284.7656,27.8281 C284.9219,27.9531 285.125,28 285.5313,28 L290.6719,28 C291.4219,28 291.7813,27.7188 291.7813,27.1563 C291.7813,26.875 291.6719,26.625 291.4375,26.4531 C291.2656,26.3281 291.125,26.2969 290.6719,26.2969 L288.9531,26.2969 L288.9531,19.7813 Z " fill="#000000"/><text fill="#000000" font-family="sans-serif" font-size="12" font-style="italic" lengthAdjust="spacing" textLength="32" x="302" y="27.1543">Atom</text><line style="stroke:#A80036;stroke-width:1.5;" x1="274" x2="336" y1="39" y2="39"/><line style="stroke:#A80036;stroke-width:1.5;" x1="274" x2="336" y1="47" y2="47"/><!--MD5=[eb0f4986160aea42d9ece72995cb24c7]
class Struct--><rect codeLine="5" fill="#FEFECE" filter="url(#f9vusr92biuwq)" height="48" id="Struct" style="stroke:#A80036;stroke-width:1.5;" width="70" x="130" y="49"/><ellipse cx="145" cy="65" fill="#B4A7E5" rx="11" ry="11" style="stroke:#A80036;stroke-width:1.0;"/><path d="M145.9531,61.7813 L147.6719,61.7813 C148.0625,61.7813 148.25,61.75 148.375,61.6719 C148.6406,61.5156 148.7813,61.2344 148.7813,60.9375 C148.7813,60.6719 148.6719,60.4063 148.4375,60.2344 C148.2656,60.125 148.125,60.0938 147.6719,60.0938 L142.5313,60.0938 C142.0938,60.0938 141.9688,60.1094 141.8125,60.2031 C141.5625,60.3594 141.4063,60.6563 141.4063,60.9375 C141.4063,61.2188 141.5469,61.4688 141.7656,61.6406 C141.9219,61.75 142.1094,61.7813 142.5313,61.7813 L144.25,61.7813 L144.25,68.2969 L142.5313,68.2969 C142.0938,68.2969 141.9688,68.3125 141.8125,68.4219 C141.5625,68.5781 141.4063,68.8594 141.4063,69.1563 C141.4063,69.4063 141.5469,69.6719 141.7656,69.8281 C141.9219,69.9531 142.125,70 142.5313,70 L147.6719,70 C148.4219,70 148.7813,69.7188 148.7813,69.1563 C148.7813,68.875 148.6719,68.625 148.4375,68.4531 C148.2656,68.3281 148.125,68.2969 147.6719,68.2969 L145.9531,68.2969 L145.9531,61.7813 Z " fill="#000000"/><text fill="#000000" font-family="sans-serif" font-size="12" font-style="italic" lengthAdjust="spacing" textLength="38" x="159" y="69.1543">Struct</text><line style="stroke:#A80036;stroke-width:1.5;" x1="131" x2="199" y1="81" y2="81"/><line style="stroke:#A80036;stroke-width:1.5;" x1="131" x2="199" y1="89" y2="89"/><!--MD5=[c160724f8e3bb89ca8141a12554ac2e3]
class Collection--><rect codeLine="6" fill="#FEFECE" filter="url(#f9vusr92biuwq)" height="48" id="Collection" style="stroke:#A80036;stroke-width:1.5;" width="90" x="260" y="90"/><ellipse cx="275" cy="106" fill="#B4A7E5" rx="11" ry="11" style="stroke:#A80036;stroke-width:1.0;"/><path d="M275.9531,102.7813 L277.6719,102.7813 C278.0625,102.7813 278.25,102.75 278.375,102.6719 C278.6406,102.5156 278.7813,102.2344 278.7813,101.9375 C278.7813,101.6719 278.6719,101.4063 278.4375,101.2344 C278.2656,101.125 278.125,101.0938 277.6719,101.0938 L272.5313,101.0938 C272.0938,101.0938 271.9688,101.1094 271.8125,101.2031 C271.5625,101.3594 271.4063,101.6563 271.4063,101.9375 C271.4063,102.2188 271.5469,102.4688 271.7656,102.6406 C271.9219,102.75 272.1094,102.7813 272.5313,102.7813 L274.25,102.7813 L274.25,109.2969 L272.5313,109.2969 C272.0938,109.2969 271.9688,109.3125 271.8125,109.4219 C271.5625,109.5781 271.4063,109.8594 271.4063,110.1563 C271.4063,110.4063 271.5469,110.6719 271.7656,110.8281 C271.9219,110.9531 272.125,111 272.5313,111 L277.6719,111 C278.4219,111 278.7813,110.7188 278.7813,110.1563 C278.7813,109.875 278.6719,109.625 278.4375,109.4531 C278.2656,109.3281 278.125,109.2969 277.6719,109.2969 L275.9531,109.2969 L275.9531,102.7813 Z " fill="#000000"/><text fill="#000000" font-family="sans-serif" font-size="12" font-style="italic" lengthAdjust="spacing" textLength="58" x="289" y="110.1543">Collection</text><line style="stroke:#A80036;stroke-width:1.5;" x1="261" x2="349" y1="122" y2="122"/><line style="stroke:#A80036;stroke-width:1.5;" x1="261" x2="349" y1="130" y2="130"/><!--MD5=[302c72c1573bd1a597976f8c721380e9]
class Empty--><rect codeLine="8" fill="#FEFECE" filter="url(#f9vusr92biuwq)" height="48" id="Empty" style="stroke:#A80036;stroke-width:1.5;" width="72" x="410" y="7"/><ellipse cx="425" cy="23" fill="#B4A7E5" rx="11" ry="11" style="stroke:#A80036;stroke-width:1.0;"/><path d="M425.9531,19.7813 L427.6719,19.7813 C428.0625,19.7813 428.25,19.75 428.375,19.6719 C428.6406,19.5156 428.7813,19.2344 428.7813,18.9375 C428.7813,18.6719 428.6719,18.4063 428.4375,18.2344 C428.2656,18.125 428.125,18.0938 427.6719,18.0938 L422.5313,18.0938 C422.0938,18.0938 421.9688,18.1094 421.8125,18.2031 C421.5625,18.3594 421.4063,18.6563 421.4063,18.9375 C421.4063,19.2188 421.5469,19.4688 421.7656,19.6406 C421.9219,19.75 422.1094,19.7813 422.5313,19.7813 L424.25,19.7813 L424.25,26.2969 L422.5313,26.2969 C422.0938,26.2969 421.9688,26.3125 421.8125,26.4219 C421.5625,26.5781 421.4063,26.8594 421.4063,27.1563 C421.4063,27.4063 421.5469,27.6719 421.7656,27.8281 C421.9219,27.9531 422.125,28 422.5313,28 L427.6719,28 C428.4219,28 428.7813,27.7188 428.7813,27.1563 C428.7813,26.875 428.6719,26.625 428.4375,26.4531 C428.2656,26.3281 428.125,26.2969 427.6719,26.2969 L425.9531,26.2969 L425.9531,19.7813 Z " fill="#000000"/><text fill="#000000" font-family="sans-serif" font-size="12" font-style="italic" lengthAdjust="spacing" textLength="40" x="439" y="27.1543">Empty</text><line style="stroke:#A80036;stroke-width:1.5;" x1="411" x2="481" y1="39" y2="39"/><line style="stroke:#A80036;stroke-width:1.5;" x1="411" x2="481" y1="47" y2="47"/><!--MD5=[658c0fc6cfb7a0fb084a912b803c5445]
class EmptySet--><rect codeLine="12" fill="#FEFECE" filter="url(#f9vusr92biuwq)" height="48" id="EmptySet" style="stroke:#A80036;stroke-width:1.5;" width="92" x="542" y="49"/><ellipse cx="557" cy="65" fill="#B4A7E5" rx="11" ry="11" style="stroke:#A80036;stroke-width:1.0;"/><path d="M557.9531,61.7813 L559.6719,61.7813 C560.0625,61.7813 560.25,61.75 560.375,61.6719 C560.6406,61.5156 560.7813,61.2344 560.7813,60.9375 C560.7813,60.6719 560.6719,60.4063 560.4375,60.2344 C560.2656,60.125 560.125,60.0938 559.6719,60.0938 L554.5313,60.0938 C554.0938,60.0938 553.9688,60.1094 553.8125,60.2031 C553.5625,60.3594 553.4063,60.6563 553.4063,60.9375 C553.4063,61.2188 553.5469,61.4688 553.7656,61.6406 C553.9219,61.75 554.1094,61.7813 554.5313,61.7813 L556.25,61.7813 L556.25,68.2969 L554.5313,68.2969 C554.0938,68.2969 553.9688,68.3125 553.8125,68.4219 C553.5625,68.5781 553.4063,68.8594 553.4063,69.1563 C553.4063,69.4063 553.5469,69.6719 553.7656,69.8281 C553.9219,69.9531 554.125,70 554.5313,70 L559.6719,70 C560.4219,70 560.7813,69.7188 560.7813,69.1563 C560.7813,68.875 560.6719,68.625 560.4375,68.4531 C560.2656,68.3281 560.125,68.2969 559.6719,68.2969 L557.9531,68.2969 L557.9531,61.7813 Z " fill="#000000"/><text fill="#000000" font-family="sans-serif" font-size="12" font-style="italic" lengthAdjust="spacing" textLength="60" x="571" y="69.1543">EmptySet</text><line style="stroke:#A80036;stroke-width:1.5;" x1="543" x2="633" y1="81" y2="81"/><line style="stroke:#A80036;stroke-width:1.5;" x1="543" x2="633" y1="89" y2="89"/><!--MD5=[73145e46247802284b2f7aaef1fa1797]
class Set--><rect codeLine="15" fill="#FEFECE" filter="url(#f9vusr92biuwq)" height="48" id="Set" style="stroke:#A80036;stroke-width:1.5;" width="52" x="420" y="90"/><ellipse cx="435" cy="106" fill="#B4A7E5" rx="11" ry="11" style="stroke:#A80036;stroke-width:1.0;"/><path d="M435.9531,102.7813 L437.6719,102.7813 C438.0625,102.7813 438.25,102.75 438.375,102.6719 C438.6406,102.5156 438.7813,102.2344 438.7813,101.9375 C438.7813,101.6719 438.6719,101.4063 438.4375,101.2344 C438.2656,101.125 438.125,101.0938 437.6719,101.0938 L432.5313,101.0938 C432.0938,101.0938 431.9688,101.1094 431.8125,101.2031 C431.5625,101.3594 431.4063,101.6563 431.4063,101.9375 C431.4063,102.2188 431.5469,102.4688 431.7656,102.6406 C431.9219,102.75 432.1094,102.7813 432.5313,102.7813 L434.25,102.7813 L434.25,109.2969 L432.5313,109.2969 C432.0938,109.2969 431.9688,109.3125 431.8125,109.4219 C431.5625,109.5781 431.4063,109.8594 431.4063,110.1563 C431.4063,110.4063 431.5469,110.6719 431.7656,110.8281 C431.9219,110.9531 432.125,111 432.5313,111 L437.6719,111 C438.4219,111 438.7813,110.7188 438.7813,110.1563 C438.7813,109.875 438.6719,109.625 438.4375,109.4531 C438.2656,109.3281 438.125,109.2969 437.6719,109.2969 L435.9531,109.2969 L435.9531,102.7813 Z " fill="#000000"/><text fill="#000000" font-family="sans-serif" font-size="12" font-style="italic" lengthAdjust="spacing" textLength="20" x="449" y="110.1543">Set</text><line style="stroke:#A80036;stroke-width:1.5;" x1="421" x2="471" y1="122" y2="122"/><line style="stroke:#A80036;stroke-width:1.5;" x1="421" x2="471" y1="130" y2="130"/><!--MD5=[f626f12429d76bc694cd64f7f069082d]
reverse link Term to Struct--><path codeLine="27" d="M90.6401,73 C103.7691,73 117.579,73 129.632,73 " fill="none" id="Term-backto-Struct" style="stroke:#A80036;stroke-width:1.0;"/><polygon fill="none" points="90.2753,79.9999,70.2753,73,90.2753,65.9999,90.2753,79.9999" style="stroke:#A80036;stroke-width:1.0;"/><!--MD5=[5d5281d9d86ea5bbb09f5d4bbd5d543a]
reverse link Struct to Collection--><path codeLine="28" d="M219.475,88.8876 C232.831,92.8556 247.005,97.0668 259.853,100.8838 " fill="none" id="Struct-backto-Collection" style="stroke:#A80036;stroke-width:1.0;"/><polygon fill="none" points="217.291,95.541,200.112,83.1348,221.278,82.1207,217.291,95.541" style="stroke:#A80036;stroke-width:1.0;"/><!--MD5=[71ce62bb6f3323542defcc754b11eb47]
reverse link Struct to Atom--><path codeLine="29" d="M219.501,56.7172 C237.477,51.2462 256.933,45.3247 272.64,40.5444 " fill="none" id="Struct-backto-Atom" style="stroke:#A80036;stroke-width:1.0;"/><polygon fill="none" points="221.284,63.4914,200.112,62.618,217.208,50.098,221.284,63.4914" style="stroke:#A80036;stroke-width:1.0;"/><!--MD5=[1317568493796c4665b61a5c76c851cf]
reverse link Collection to Set--><path codeLine="31" d="M370.4,114 C387.865,114 405.762,114 419.647,114 " fill="none" id="Collection-backto-Set" style="stroke:#A80036;stroke-width:1.0;"/><polygon fill="none" points="370.363,120.9999,350.363,114,370.363,106.9999,370.363,120.9999" style="stroke:#A80036;stroke-width:1.0;"/><!--MD5=[898712309eb8fbecc3952bd38dd229e1]
reverse link Atom to Empty--><path codeLine="33" d="M357.409,31 C374.92,31 394.077,31 409.999,31 " fill="none" id="Atom-backto-Empty" style="stroke:#A80036;stroke-width:1.0;"/><polygon fill="none" points="357.194,38,337.194,31,357.194,24,357.194,38" style="stroke:#A80036;stroke-width:1.0;"/><!--MD5=[825e5fd120d414f559ac830beb8f9001]
reverse link Empty to EmptySet--><path codeLine="35" d="M501.662,47.3986 C514.97,51.3911 529.057,55.617 541.866,59.4598 " fill="none" id="Empty-backto-EmptySet" style="stroke:#A80036;stroke-width:1.0;"/><polygon fill="none" points="499.473,54.0502,482.328,41.5984,503.496,40.6406,499.473,54.0502" style="stroke:#A80036;stroke-width:1.0;"/><!--MD5=[076e2437ca024856018e343fbdab2d68]
reverse link Set to EmptySet--><path codeLine="37" d="M491.316,101.0218 C507.422,96.305 525.634,90.9714 541.815,86.2328 " fill="none" id="Set-backto-EmptySet" style="stroke:#A80036;stroke-width:1.0;"/><polygon fill="none" points="493.19,107.7667,472.029,106.67,489.256,94.331,493.19,107.7667" style="stroke:#A80036;stroke-width:1.0;"/><!--MD5=[4e12a399a21ecf74f8863c52c07feb2d]
@startuml
left to right direction

interface Term
interface Atom
interface Struct
interface Collection

interface Empty {
  ' + {static} list(): EmptyList
  ' + {static} set(): EmptySet
}
interface EmptySet {
  ' + {static} invoke(): EmptySet
}
interface Set {
  ' + unfoldedArray: Array<Term>
  ' + unfoldedList: List<Term>
  ' + unfoldedSequence: Sequence<Term>
  ' + toArray(): Array<Term>
  ' + toList(): List<Term>
  ' + toSequence(): Sequence<Term>
  ' + {static} empty(): Set
  ' + {static} of(**varargs** items: Term): Set
  ' + {static} of(items: Iterable<Term>): Set
}

Term <|- - Struct
Struct <|- - Collection
Struct <|- - Atom

Collection <|- - Set

Atom <|- - Empty

Empty <|- - EmptySet

Set <|- - EmptySet
@enduml

@startuml
left to right direction

interface Term
interface Atom
interface Struct
interface Collection

interface Empty {
}
interface EmptySet {
}
interface Set {
}

Term <|- - Struct
Struct <|- - Collection
Struct <|- - Atom

Collection <|- - Set

Atom <|- - Empty

Empty <|- - EmptySet

Set <|- - EmptySet
@enduml

PlantUML version 1.2021.6beta6(Unknown compile time)
(GPL source distribution)
Java Runtime: Java(TM) SE Runtime Environment
JVM: Java HotSpot(TM) 64-Bit Server VM
Default Encoding: UTF-8
Language: en
Country: US
--></g></svg>