<?xml version="1.0" encoding="UTF-8" standalone="no"?><svg xmlns="http://www.w3.org/2000/svg" xmlns:xlink="http://www.w3.org/1999/xlink" contentScriptType="application/ecmascript" contentStyleType="text/css" height="292px" preserveAspectRatio="none" style="width:706px;height:292px;" version="1.1" viewBox="0 0 706 292" width="706px" zoomAndPan="magnify"><defs/><g><!--MD5=[eb0f4986160aea42d9ece72995cb24c7]
class Struct--><rect fill="#FEFECE" height="48" id="Struct" style="stroke: #A80036; stroke-width: 1.5;" width="70" x="6" y="99.5"/><ellipse cx="21" cy="115.5" fill="#B4A7E5" rx="11" ry="11" style="stroke: #A80036; stroke-width: 1.0;"/><path d="M16.9219,111.2656 L16.9219,109.1094 L24.3125,109.1094 L24.3125,111.2656 L21.8438,111.2656 L21.8438,119.3438 L24.3125,119.3438 L24.3125,121.5 L16.9219,121.5 L16.9219,119.3438 L19.3906,119.3438 L19.3906,111.2656 L16.9219,111.2656 Z "/><text fill="#000000" font-family="sans-serif" font-size="12" font-style="italic" lengthAdjust="spacingAndGlyphs" textLength="38" x="35" y="119.6543">Struct</text><line style="stroke: #A80036; stroke-width: 1.5;" x1="7" x2="75" y1="131.5" y2="131.5"/><line style="stroke: #A80036; stroke-width: 1.5;" x1="7" x2="75" y1="139.5" y2="139.5"/><!--MD5=[f18b0f967872e82ff276115ca1b4c569]
class Atom--><rect fill="#FEFECE" height="48" id="Atom" style="stroke: #A80036; stroke-width: 1.5;" width="64" x="136" y="41.5"/><ellipse cx="151" cy="57.5" fill="#B4A7E5" rx="11" ry="11" style="stroke: #A80036; stroke-width: 1.0;"/><path d="M146.9219,53.2656 L146.9219,51.1094 L154.3125,51.1094 L154.3125,53.2656 L151.8438,53.2656 L151.8438,61.3438 L154.3125,61.3438 L154.3125,63.5 L146.9219,63.5 L146.9219,61.3438 L149.3906,61.3438 L149.3906,53.2656 L146.9219,53.2656 Z "/><text fill="#000000" font-family="sans-serif" font-size="12" font-style="italic" lengthAdjust="spacingAndGlyphs" textLength="32" x="165" y="61.6543">Atom</text><line style="stroke: #A80036; stroke-width: 1.5;" x1="137" x2="199" y1="73.5" y2="73.5"/><line style="stroke: #A80036; stroke-width: 1.5;" x1="137" x2="199" y1="81.5" y2="81.5"/><!--MD5=[302c72c1573bd1a597976f8c721380e9]
class Empty--><rect fill="#FEFECE" height="73.6094" id="Empty" style="stroke: #A80036; stroke-width: 1.5;" width="114" x="324.5" y="8.5"/><ellipse cx="358.85" cy="24.5" fill="#B4A7E5" rx="11" ry="11" style="stroke: #A80036; stroke-width: 1.0;"/><path d="M354.7719,20.2656 L354.7719,18.1094 L362.1625,18.1094 L362.1625,20.2656 L359.6938,20.2656 L359.6938,28.3438 L362.1625,28.3438 L362.1625,30.5 L354.7719,30.5 L354.7719,28.3438 L357.2406,28.3438 L357.2406,20.2656 L354.7719,20.2656 Z "/><text fill="#000000" font-family="sans-serif" font-size="12" font-style="italic" lengthAdjust="spacingAndGlyphs" textLength="39" x="377.15" y="28.6543">Empty</text><line style="stroke: #A80036; stroke-width: 1.5;" x1="325.5" x2="437.5" y1="40.5" y2="40.5"/><line style="stroke: #A80036; stroke-width: 1.5;" x1="325.5" x2="437.5" y1="48.5" y2="48.5"/><ellipse cx="335.5" cy="59.5" fill="#84BE84" rx="3" ry="3" style="stroke: #038048; stroke-width: 1.0;"/><text fill="#000000" font-family="sans-serif" font-size="11" lengthAdjust="spacingAndGlyphs" text-decoration="underline" textLength="88" x="344.5" y="62.7104">list(): EmptyList</text><ellipse cx="335.5" cy="72.3047" fill="#84BE84" rx="3" ry="3" style="stroke: #038048; stroke-width: 1.0;"/><text fill="#000000" font-family="sans-serif" font-size="11" lengthAdjust="spacingAndGlyphs" text-decoration="underline" textLength="88" x="344.5" y="75.5151">set(): EmptySet</text><!--MD5=[658c0fc6cfb7a0fb084a912b803c5445]
class EmptySet--><rect fill="#FEFECE" height="60.8047" id="EmptySet" style="stroke: #A80036; stroke-width: 1.5;" width="132" x="563" y="92"/><ellipse cx="596" cy="108" fill="#B4A7E5" rx="11" ry="11" style="stroke: #A80036; stroke-width: 1.0;"/><path d="M591.9219,103.7656 L591.9219,101.6094 L599.3125,101.6094 L599.3125,103.7656 L596.8438,103.7656 L596.8438,111.8438 L599.3125,111.8438 L599.3125,114 L591.9219,114 L591.9219,111.8438 L594.3906,111.8438 L594.3906,103.7656 L591.9219,103.7656 Z "/><text fill="#000000" font-family="sans-serif" font-size="12" font-style="italic" lengthAdjust="spacingAndGlyphs" textLength="60" x="614" y="112.1543">EmptySet</text><line style="stroke: #A80036; stroke-width: 1.5;" x1="564" x2="694" y1="124" y2="124"/><line style="stroke: #A80036; stroke-width: 1.5;" x1="564" x2="694" y1="132" y2="132"/><ellipse cx="574" cy="143" fill="#84BE84" rx="3" ry="3" style="stroke: #038048; stroke-width: 1.0;"/><text fill="#000000" font-family="sans-serif" font-size="11" lengthAdjust="spacingAndGlyphs" text-decoration="underline" textLength="106" x="583" y="146.2104">invoke(): EmptySet</text><!--MD5=[73145e46247802284b2f7aaef1fa1797]
class Set--><rect fill="#FEFECE" height="163.2422" id="Set" style="stroke: #A80036; stroke-width: 1.5;" width="243" x="260" y="118"/><ellipse cx="366.75" cy="134" fill="#B4A7E5" rx="11" ry="11" style="stroke: #A80036; stroke-width: 1.0;"/><path d="M362.6719,129.7656 L362.6719,127.6094 L370.0625,127.6094 L370.0625,129.7656 L367.5938,129.7656 L367.5938,137.8438 L370.0625,137.8438 L370.0625,140 L362.6719,140 L362.6719,137.8438 L365.1406,137.8438 L365.1406,129.7656 L362.6719,129.7656 Z "/><text fill="#000000" font-family="sans-serif" font-size="12" font-style="italic" lengthAdjust="spacingAndGlyphs" textLength="21" x="387.25" y="138.1543">Set</text><line style="stroke: #A80036; stroke-width: 1.5;" x1="261" x2="502" y1="150" y2="150"/><ellipse cx="271" cy="161" fill="none" rx="3" ry="3" style="stroke: #038048; stroke-width: 1.0;"/><text fill="#000000" font-family="sans-serif" font-size="11" lengthAdjust="spacingAndGlyphs" textLength="165" x="280" y="164.2104">unfoldedArray: Array&lt;Term&gt;</text><ellipse cx="271" cy="173.8047" fill="none" rx="3" ry="3" style="stroke: #038048; stroke-width: 1.0;"/><text fill="#000000" font-family="sans-serif" font-size="11" lengthAdjust="spacingAndGlyphs" textLength="145" x="280" y="177.0151">unfoldedList: List&lt;Term&gt;</text><ellipse cx="271" cy="186.6094" fill="none" rx="3" ry="3" style="stroke: #038048; stroke-width: 1.0;"/><text fill="#000000" font-family="sans-serif" font-size="11" lengthAdjust="spacingAndGlyphs" textLength="217" x="280" y="189.8198">unfoldedSequence: Sequence&lt;Term&gt;</text><line style="stroke: #A80036; stroke-width: 1.5;" x1="261" x2="502" y1="196.4141" y2="196.4141"/><ellipse cx="271" cy="207.4141" fill="#84BE84" rx="3" ry="3" style="stroke: #038048; stroke-width: 1.0;"/><text fill="#000000" font-family="sans-serif" font-size="11" lengthAdjust="spacingAndGlyphs" textLength="135" x="280" y="210.6245">toArray(): Array&lt;Term&gt;</text><ellipse cx="271" cy="220.2188" fill="#84BE84" rx="3" ry="3" style="stroke: #038048; stroke-width: 1.0;"/><text fill="#000000" font-family="sans-serif" font-size="11" lengthAdjust="spacingAndGlyphs" textLength="115" x="280" y="223.4292">toList(): List&lt;Term&gt;</text><ellipse cx="271" cy="233.0234" fill="#84BE84" rx="3" ry="3" style="stroke: #038048; stroke-width: 1.0;"/><text fill="#000000" font-family="sans-serif" font-size="11" lengthAdjust="spacingAndGlyphs" textLength="187" x="280" y="236.2339">toSequence(): Sequence&lt;Term&gt;</text><ellipse cx="271" cy="245.8281" fill="#84BE84" rx="3" ry="3" style="stroke: #038048; stroke-width: 1.0;"/><text fill="#000000" font-family="sans-serif" font-size="11" lengthAdjust="spacingAndGlyphs" text-decoration="underline" textLength="70" x="280" y="249.0386">empty(): Set</text><ellipse cx="271" cy="258.6328" fill="#84BE84" rx="3" ry="3" style="stroke: #038048; stroke-width: 1.0;"/><text fill="#000000" font-family="sans-serif" font-size="11" lengthAdjust="spacingAndGlyphs" text-decoration="underline" textLength="15" x="280" y="261.8433">of(</text><text fill="#000000" font-family="sans-serif" font-size="11" font-weight="bold" lengthAdjust="spacingAndGlyphs" text-decoration="underline" textLength="48" x="295" y="261.8433">varargs</text><text fill="#000000" font-family="sans-serif" font-size="11" lengthAdjust="spacingAndGlyphs" text-decoration="underline" textLength="101" x="347" y="261.8433">items: Term): Set</text><ellipse cx="271" cy="271.4375" fill="#84BE84" rx="3" ry="3" style="stroke: #038048; stroke-width: 1.0;"/><text fill="#000000" font-family="sans-serif" font-size="11" lengthAdjust="spacingAndGlyphs" text-decoration="underline" textLength="177" x="280" y="274.6479">of(items: Iterable&lt;Term&gt;): Set</text><!--MD5=[71ce62bb6f3323542defcc754b11eb47]
reverse link Struct to Atom--><path d="M94.62,99.09 C108.67,92.57 123.4,85.73 135.88,79.94 " fill="none" id="Struct&lt;-Atom" style="stroke: #A80036; stroke-width: 1.0;"/><polygon fill="none" points="97.25,105.58,76.16,107.65,91.35,92.88,97.25,105.58" style="stroke: #A80036; stroke-width: 1.0;"/><!--MD5=[10dfd7325163cb72023c6fe30f7d9519]
reverse link Struct to Set--><path d="M95.58,135.53 C139.55,145.4 203.5,159.76 259.68,172.37 " fill="none" id="Struct&lt;-Set" style="stroke: #A80036; stroke-width: 1.0;"/><polygon fill="none" points="93.99,142.35,76.01,131.14,97.05,128.69,93.99,142.35" style="stroke: #A80036; stroke-width: 1.0;"/><!--MD5=[898712309eb8fbecc3952bd38dd229e1]
reverse link Atom to Empty--><path d="M220.39,60.64 C251.88,57.66 292.2,53.85 324.5,50.8 " fill="none" id="Atom&lt;-Empty" style="stroke: #A80036; stroke-width: 1.0;"/><polygon fill="none" points="220.78,67.63,200.21,62.55,219.46,53.7,220.78,67.63" style="stroke: #A80036; stroke-width: 1.0;"/><!--MD5=[825e5fd120d414f559ac830beb8f9001]
reverse link Empty to EmptySet--><path d="M458.01,69.18 C491.47,79.68 530.47,91.91 562.66,102.01 " fill="none" id="Empty&lt;-EmptySet" style="stroke: #A80036; stroke-width: 1.0;"/><polygon fill="none" points="455.5,75.73,438.51,63.07,459.69,62.38,455.5,75.73" style="stroke: #A80036; stroke-width: 1.0;"/><!--MD5=[076e2437ca024856018e343fbdab2d68]
reverse link Set to EmptySet--><path d="M522.37,155.63 C536.42,151.22 550.17,146.91 562.85,142.93 " fill="none" id="Set&lt;-EmptySet" style="stroke: #A80036; stroke-width: 1.0;"/><polygon fill="none" points="524.27,162.37,503.09,161.68,520.08,149.01,524.27,162.37" style="stroke: #A80036; stroke-width: 1.0;"/><!--MD5=[8573c723eb729b53734159a6d7398a5a]
@startuml
left to right direction
skinparam shadowing false

interface Struct
interface Atom
interface Empty {
  + {static} list(): EmptyList
  + {static} set(): EmptySet
}
interface EmptySet {
  + {static} invoke(): EmptySet
}
interface Set {
  + unfoldedArray: Array<Term>
  + unfoldedList: List<Term>
  + unfoldedSequence: Sequence<Term>
  + toArray(): Array<Term>
  + toList(): List<Term>
  + toSequence(): Sequence<Term>
  + {static} empty(): Set
  + {static} of(**varargs** items: Term): Set
  + {static} of(items: Iterable<Term>): Set
}

Struct <|- - Atom
Struct <|- - Set

Atom <|- - Empty

Empty <|- - EmptySet

Set <|- - EmptySet

@enduml

PlantUML version 1.2020.02(Sun Mar 01 11:22:07 CET 2020)
(GPL source distribution)
Java Runtime: OpenJDK Runtime Environment
JVM: OpenJDK 64-Bit Server VM
Java Version: 11.0.10+9
Operating System: Linux
Default Encoding: UTF-8
Language: it
Country: IT
--></g></svg>