<?xml version="1.0" encoding="UTF-8" standalone="no"?><svg xmlns="http://www.w3.org/2000/svg" xmlns:xlink="http://www.w3.org/1999/xlink" contentScriptType="application/ecmascript" contentStyleType="text/css" height="521px" preserveAspectRatio="none" style="width:1079px;height:521px;" version="1.1" viewBox="0 0 1079 521" width="1079px" zoomAndPan="magnify"><defs><filter height="300%" id="f13yr3m8xksa41" width="300%" x="-1" y="-1"><feGaussianBlur result="blurOut" stdDeviation="2.0"/><feColorMatrix in="blurOut" result="blurOut2" type="matrix" values="0 0 0 0 0 0 0 0 0 0 0 0 0 0 0 0 0 0 .4 0"/><feOffset dx="4.0" dy="4.0" in="blurOut2" result="blurOut3"/><feBlend in="SourceGraphic" in2="blurOut3" mode="normal"/></filter></defs><g><!--MD5=[7e0cc054e68485d8dbab588155cf841a]
class Solver--><rect codeLine="1" fill="#FEFECE" filter="url(#f13yr3m8xksa41)" height="99.2188" id="Solver" style="stroke:#A80036;stroke-width:1.5;" width="391" x="496" y="376"/><ellipse cx="668.25" cy="392" fill="#B4A7E5" rx="11" ry="11" style="stroke:#A80036;stroke-width:1.0;"/><path d="M664.1719,387.7656 L664.1719,385.6094 L671.5625,385.6094 L671.5625,387.7656 L669.0938,387.7656 L669.0938,395.8438 L671.5625,395.8438 L671.5625,398 L664.1719,398 L664.1719,395.8438 L666.6406,395.8438 L666.6406,387.7656 L664.1719,387.7656 Z " fill="#000000"/><text fill="#000000" font-family="sans-serif" font-size="12" font-style="italic" lengthAdjust="spacing" textLength="38" x="688.75" y="396.1543">Solver</text><line style="stroke:#A80036;stroke-width:1.5;" x1="497" x2="886" y1="408" y2="408"/><ellipse cx="507" cy="419" fill="#84BE84" rx="3" ry="3" style="stroke:#038048;stroke-width:1.0;"/><text fill="#000000" font-family="sans-serif" font-size="11" lengthAdjust="spacing" textLength="365" x="516" y="422.2104">solve(goal: Struct, options: SolveOptions): Sequence&lt;Solution&gt;</text><ellipse cx="507" cy="431.8047" fill="#84BE84" rx="3" ry="3" style="stroke:#038048;stroke-width:1.0;"/><text fill="#000000" font-family="sans-serif" font-size="11" lengthAdjust="spacing" textLength="349" x="516" y="435.0151">solveList(goal: Struct, options: SolveOptions): List&lt;Solution&gt;</text><ellipse cx="507" cy="444.6094" fill="#84BE84" rx="3" ry="3" style="stroke:#038048;stroke-width:1.0;"/><text fill="#000000" font-family="sans-serif" font-size="11" lengthAdjust="spacing" textLength="320" x="516" y="447.8198">solveOnce(goal: Struct, options: SolveOptions): Solution</text><line style="stroke:#A80036;stroke-width:1.0;stroke-dasharray:1.0,2.0;" x1="497" x2="886" y1="454.4141" y2="454.4141"/><ellipse cx="507" cy="465.4141" fill="#84BE84" rx="3" ry="3" style="stroke:#038048;stroke-width:1.0;"/><text fill="#000000" font-family="sans-serif" font-size="11" lengthAdjust="spacing" textLength="82" x="516" y="468.6245">clone(): Solver</text><!--MD5=[14e3c46138e08d08d57bfc182c122594]
class SolveOptions--><rect codeLine="9" fill="#FEFECE" filter="url(#f13yr3m8xksa41)" height="163.2422" id="SolveOptions" style="stroke:#A80036;stroke-width:1.5;" width="299" x="7" y="344"/><ellipse cx="112.75" cy="360" fill="#B4A7E5" rx="11" ry="11" style="stroke:#A80036;stroke-width:1.0;"/><path d="M108.6719,355.7656 L108.6719,353.6094 L116.0625,353.6094 L116.0625,355.7656 L113.5938,355.7656 L113.5938,363.8438 L116.0625,363.8438 L116.0625,366 L108.6719,366 L108.6719,363.8438 L111.1406,363.8438 L111.1406,355.7656 L108.6719,355.7656 Z " fill="#000000"/><text fill="#000000" font-family="sans-serif" font-size="12" font-style="italic" lengthAdjust="spacing" textLength="79" x="133.25" y="364.1543">SolveOptions</text><line style="stroke:#A80036;stroke-width:1.5;" x1="8" x2="305" y1="376" y2="376"/><ellipse cx="18" cy="387" fill="none" rx="3" ry="3" style="stroke:#038048;stroke-width:1.0;"/><text fill="#000000" font-family="sans-serif" font-size="11" lengthAdjust="spacing" textLength="88" x="27" y="390.2104">isLazy: Boolean</text><ellipse cx="18" cy="399.8047" fill="none" rx="3" ry="3" style="stroke:#038048;stroke-width:1.0;"/><text fill="#000000" font-family="sans-serif" font-size="11" lengthAdjust="spacing" textLength="97" x="27" y="403.0151">isEager: Boolean</text><ellipse cx="18" cy="412.6094" fill="none" rx="3" ry="3" style="stroke:#038048;stroke-width:1.0;"/><text fill="#000000" font-family="sans-serif" font-size="11" lengthAdjust="spacing" textLength="127" x="27" y="415.8198">timeout: TimeDuration</text><ellipse cx="18" cy="425.4141" fill="none" rx="3" ry="3" style="stroke:#038048;stroke-width:1.0;"/><text fill="#000000" font-family="sans-serif" font-size="11" lengthAdjust="spacing" textLength="46" x="27" y="428.6245">limit: Int</text><ellipse cx="18" cy="438.2188" fill="none" rx="3" ry="3" style="stroke:#038048;stroke-width:1.0;"/><text fill="#000000" font-family="sans-serif" font-size="11" lengthAdjust="spacing" textLength="197" x="27" y="441.4292">customOptions: Map&lt;String, Any&gt;</text><line style="stroke:#A80036;stroke-width:1.0;" x1="8" x2="305" y1="448.0234" y2="448.0234"/><ellipse cx="18" cy="459.0234" fill="#84BE84" rx="3" ry="3" style="stroke:#038048;stroke-width:1.0;"/><text fill="#000000" font-family="sans-serif" font-size="11" lengthAdjust="spacing" textLength="217" x="27" y="462.2339">setLazy(value: Boolean): SolveOptions</text><ellipse cx="18" cy="471.8281" fill="#84BE84" rx="3" ry="3" style="stroke:#038048;stroke-width:1.0;"/><text fill="#000000" font-family="sans-serif" font-size="11" lengthAdjust="spacing" textLength="269" x="27" y="475.0386">setTimeout(value: TimeDuration): SolveOptions</text><ellipse cx="18" cy="484.6328" fill="#84BE84" rx="3" ry="3" style="stroke:#038048;stroke-width:1.0;"/><text fill="#000000" font-family="sans-serif" font-size="11" lengthAdjust="spacing" textLength="188" x="27" y="487.8433">setLimit(value: Int): SolveOptions</text><ellipse cx="18" cy="497.4375" fill="#84BE84" rx="3" ry="3" style="stroke:#038048;stroke-width:1.0;"/><text fill="#000000" font-family="sans-serif" font-size="11" lengthAdjust="spacing" textLength="273" x="27" y="500.6479">setOption(key: String, value: Any): SolveOptions</text><!--MD5=[14dcd1c6f0ba10ad7a0e543e42252a17]
class Solution--><rect codeLine="22" fill="#FEFECE" filter="url(#f13yr3m8xksa41)" height="124.8281" id="Solution" style="stroke:#A80036;stroke-width:1.5;" width="244" x="569.5" y="142"/><ellipse cx="661.75" cy="158" fill="#B4A7E5" rx="11" ry="11" style="stroke:#A80036;stroke-width:1.0;"/><path d="M657.6719,153.7656 L657.6719,151.6094 L665.0625,151.6094 L665.0625,153.7656 L662.5938,153.7656 L662.5938,161.8438 L665.0625,161.8438 L665.0625,164 L657.6719,164 L657.6719,161.8438 L660.1406,161.8438 L660.1406,153.7656 L657.6719,153.7656 Z " fill="#000000"/><text fill="#000000" font-family="sans-serif" font-size="12" font-style="italic" lengthAdjust="spacing" textLength="51" x="682.25" y="162.1543">Solution</text><line style="stroke:#A80036;stroke-width:1.5;" x1="570.5" x2="812.5" y1="174" y2="174"/><ellipse cx="580.5" cy="185" fill="none" rx="3" ry="3" style="stroke:#038048;stroke-width:1.0;"/><text fill="#000000" font-family="sans-serif" font-size="11" lengthAdjust="spacing" textLength="74" x="589.5" y="188.2104">query: Struct</text><ellipse cx="580.5" cy="197.8047" fill="none" rx="3" ry="3" style="stroke:#038048;stroke-width:1.0;"/><text fill="#000000" font-family="sans-serif" font-size="11" lengthAdjust="spacing" textLength="143" x="589.5" y="201.0151">substitution: Substitution</text><ellipse cx="580.5" cy="210.6094" fill="none" rx="3" ry="3" style="stroke:#038048;stroke-width:1.0;"/><text fill="#000000" font-family="sans-serif" font-size="11" lengthAdjust="spacing" textLength="218" x="589.5" y="213.8198">exception: TuPrologRuntimeException?</text><ellipse cx="580.5" cy="223.4141" fill="none" rx="3" ry="3" style="stroke:#038048;stroke-width:1.0;"/><text fill="#000000" font-family="sans-serif" font-size="11" lengthAdjust="spacing" textLength="119" x="589.5" y="226.6245">solvedQuery: Struct?</text><line style="stroke:#A80036;stroke-width:1.0;" x1="570.5" x2="812.5" y1="233.2188" y2="233.2188"/><ellipse cx="580.5" cy="244.2188" fill="#84BE84" rx="3" ry="3" style="stroke:#038048;stroke-width:1.0;"/><text fill="#000000" font-family="sans-serif" font-size="11" lengthAdjust="spacing" textLength="167" x="589.5" y="247.4292">valueOf(variable: Var): Term?</text><ellipse cx="580.5" cy="257.0234" fill="#84BE84" rx="3" ry="3" style="stroke:#038048;stroke-width:1.0;"/><text fill="#000000" font-family="sans-serif" font-size="11" lengthAdjust="spacing" textLength="182" x="589.5" y="260.2339">valueOf(variable: String): Term?</text><!--MD5=[78deafe57a054f90e733a54508add033]
class Yes--><rect codeLine="32" fill="#FEFECE" filter="url(#f13yr3m8xksa41)" height="73.6094" id="Yes" style="stroke:#A80036;stroke-width:1.5;" width="210" x="352.5" y="7"/><ellipse cx="442.75" cy="23" fill="#B4A7E5" rx="11" ry="11" style="stroke:#A80036;stroke-width:1.0;"/><path d="M438.6719,18.7656 L438.6719,16.6094 L446.0625,16.6094 L446.0625,18.7656 L443.5938,18.7656 L443.5938,26.8438 L446.0625,26.8438 L446.0625,29 L438.6719,29 L438.6719,26.8438 L441.1406,26.8438 L441.1406,18.7656 L438.6719,18.7656 Z " fill="#000000"/><text fill="#000000" font-family="sans-serif" font-size="12" font-style="italic" lengthAdjust="spacing" textLength="21" x="463.25" y="27.1543">Yes</text><line style="stroke:#A80036;stroke-width:1.5;" x1="353.5" x2="561.5" y1="39" y2="39"/><ellipse cx="363.5" cy="50" fill="none" rx="3" ry="3" style="stroke:#038048;stroke-width:1.0;"/><text fill="#000000" font-family="sans-serif" font-size="11" lengthAdjust="spacing" textLength="184" x="372.5" y="53.2104">substitution: Substitution.Unifier</text><ellipse cx="363.5" cy="62.8047" fill="none" rx="3" ry="3" style="stroke:#038048;stroke-width:1.0;"/><text fill="#000000" font-family="sans-serif" font-size="11" lengthAdjust="spacing" textLength="113" x="372.5" y="66.0151">solvedQuery: Struct</text><line style="stroke:#A80036;stroke-width:1.5;" x1="353.5" x2="561.5" y1="72.6094" y2="72.6094"/><!--MD5=[15f853ada6cf513874ca1e946349bb56]
class No--><rect codeLine="37" fill="#FEFECE" filter="url(#f13yr3m8xksa41)" height="73.6094" id="No" style="stroke:#A80036;stroke-width:1.5;" width="192" x="597.5" y="7"/><ellipse cx="680.75" cy="23" fill="#B4A7E5" rx="11" ry="11" style="stroke:#A80036;stroke-width:1.0;"/><path d="M676.6719,18.7656 L676.6719,16.6094 L684.0625,16.6094 L684.0625,18.7656 L681.5938,18.7656 L681.5938,26.8438 L684.0625,26.8438 L684.0625,29 L676.6719,29 L676.6719,26.8438 L679.1406,26.8438 L679.1406,18.7656 L676.6719,18.7656 Z " fill="#000000"/><text fill="#000000" font-family="sans-serif" font-size="12" font-style="italic" lengthAdjust="spacing" textLength="17" x="701.25" y="27.1543">No</text><line style="stroke:#A80036;stroke-width:1.5;" x1="598.5" x2="788.5" y1="39" y2="39"/><ellipse cx="608.5" cy="50" fill="none" rx="3" ry="3" style="stroke:#038048;stroke-width:1.0;"/><text fill="#000000" font-family="sans-serif" font-size="11" lengthAdjust="spacing" textLength="166" x="617.5" y="53.2104">substitution: Substitution.Fail</text><ellipse cx="608.5" cy="62.8047" fill="none" rx="3" ry="3" style="stroke:#038048;stroke-width:1.0;"/><text fill="#000000" font-family="sans-serif" font-size="11" lengthAdjust="spacing" textLength="122" x="617.5" y="66.0151">solvedQuery: Nothing</text><line style="stroke:#A80036;stroke-width:1.5;" x1="598.5" x2="788.5" y1="72.6094" y2="72.6094"/><!--MD5=[bd2a07716c51a39d50669f9491a7f698]
class Halt--><rect codeLine="42" fill="#FEFECE" filter="url(#f13yr3m8xksa41)" height="60.8047" id="Halt" style="stroke:#A80036;stroke-width:1.5;" width="238" x="827.5" y="13.5"/><ellipse cx="929.75" cy="29.5" fill="#B4A7E5" rx="11" ry="11" style="stroke:#A80036;stroke-width:1.0;"/><path d="M925.6719,25.2656 L925.6719,23.1094 L933.0625,23.1094 L933.0625,25.2656 L930.5938,25.2656 L930.5938,33.3438 L933.0625,33.3438 L933.0625,35.5 L925.6719,35.5 L925.6719,33.3438 L928.1406,33.3438 L928.1406,25.2656 L925.6719,25.2656 Z " fill="#000000"/><text fill="#000000" font-family="sans-serif" font-size="12" font-style="italic" lengthAdjust="spacing" textLength="25" x="950.25" y="33.6543">Halt</text><line style="stroke:#A80036;stroke-width:1.5;" x1="828.5" x2="1064.5" y1="45.5" y2="45.5"/><ellipse cx="838.5" cy="56.5" fill="none" rx="3" ry="3" style="stroke:#038048;stroke-width:1.0;"/><text fill="#000000" font-family="sans-serif" font-size="11" lengthAdjust="spacing" textLength="212" x="847.5" y="59.7104">exception: TuPrologRuntimeException</text><line style="stroke:#A80036;stroke-width:1.5;" x1="828.5" x2="1064.5" y1="66.3047" y2="66.3047"/><!--MD5=[06f7b6b7c55e04441bfc09883fdedb6e]
class TuPrologRuntimeException--><rect codeLine="50" fill="#FEFECE" filter="url(#f13yr3m8xksa41)" height="48" id="TuPrologRuntimeException" style="stroke:#A80036;stroke-width:1.5;" width="199" x="849" y="180.5"/><ellipse cx="864" cy="196.5" fill="#ADD1B2" rx="11" ry="11" style="stroke:#A80036;stroke-width:1.0;"/><path d="M866.9688,202.1406 Q866.3906,202.4375 865.75,202.5781 Q865.1094,202.7344 864.4063,202.7344 Q861.9063,202.7344 860.5781,201.0938 Q859.2656,199.4375 859.2656,196.3125 Q859.2656,193.1875 860.5781,191.5313 Q861.9063,189.875 864.4063,189.875 Q865.1094,189.875 865.75,190.0313 Q866.4063,190.1875 866.9688,190.4844 L866.9688,193.2031 Q866.3438,192.625 865.75,192.3594 Q865.1563,192.0781 864.5313,192.0781 Q863.1875,192.0781 862.5,193.1563 Q861.8125,194.2188 861.8125,196.3125 Q861.8125,198.4063 862.5,199.4844 Q863.1875,200.5469 864.5313,200.5469 Q865.1563,200.5469 865.75,200.2813 Q866.3438,200 866.9688,199.4219 L866.9688,202.1406 Z " fill="#000000"/><text fill="#000000" font-family="sans-serif" font-size="12" lengthAdjust="spacing" textLength="167" x="878" y="200.6543">TuPrologRuntimeException</text><line style="stroke:#A80036;stroke-width:1.5;" x1="850" x2="1047" y1="212.5" y2="212.5"/><line style="stroke:#A80036;stroke-width:1.5;" x1="850" x2="1047" y1="220.5" y2="220.5"/><!--MD5=[0c120d24489569538998b3f1de3de786]
link Yes to Solution--><path codeLine="46" d="M510.89,81.16 C532.69,95.93 558.72,113.56 584.14,130.78 " fill="none" id="Yes-to-Solution" style="stroke:#A80036;stroke-width:1.0;"/><polygon fill="none" points="588.07,124.99,600.7,142,580.22,136.58,588.07,124.99" style="stroke:#A80036;stroke-width:1.0;"/><!--MD5=[da705c7569333dafdb71a93876af5bc8]
link No to Solution--><path codeLine="47" d="M693.04,81.36 C692.89,93.4 692.71,107.32 692.54,121.37 " fill="none" id="No-to-Solution" style="stroke:#A80036;stroke-width:1.0;"/><polygon fill="none" points="699.53,121.92,692.28,141.83,685.53,121.74,699.53,121.92" style="stroke:#A80036;stroke-width:1.0;"/><!--MD5=[58e5bed449d46f47b6cb9f24653c15ab]
link Halt to Solution--><path codeLine="48" d="M898.84,74.63 C873.05,90.65 839.98,111.21 807.86,131.17 " fill="none" id="Halt-to-Solution" style="stroke:#A80036;stroke-width:1.0;"/><polygon fill="none" points="811.37,137.24,790.68,141.85,803.97,125.35,811.37,137.24" style="stroke:#A80036;stroke-width:1.0;"/><!--MD5=[be14afc48a6e18926d4388aea4230741]
reverse link Halt to TuPrologRuntimeException--><path codeLine="52" d="M947.04,88.14 C947.42,117.73 947.9,155.87 948.2,180.01 " fill="none" id="Halt-backto-TuPrologRuntimeException" style="stroke:#A80036;stroke-width:1.0;"/><polygon fill="#A80036" points="946.88,74.81,942.9595,80.8622,947.0382,86.809,950.9588,80.7567,946.88,74.81" style="stroke:#A80036;stroke-width:1.0;"/><text fill="#000000" font-family="sans-serif" font-size="13" lengthAdjust="spacing" textLength="8" x="938.1673" y="94.4515">1</text><text fill="#000000" font-family="sans-serif" font-size="13" lengthAdjust="spacing" textLength="8" x="939.1519" y="169.2955">1</text><!--MD5=[c90ab3a81554e385aadde5bc9eacd0f1]
reverse link SolveOptions to Solver--><path codeLine="54" d="M311.42,425.5 C368.96,425.5 435,425.5 495.72,425.5 " fill="none" id="SolveOptions-backto-Solver" style="stroke:#A80036;stroke-width:1.0;"/><polygon fill="#A80036" points="306.24,425.5,315.24,429.5,311.24,425.5,315.24,421.5,306.24,425.5" style="stroke:#A80036;stroke-width:1.0;"/><text fill="#000000" font-family="sans-serif" font-size="13" lengthAdjust="spacing" textLength="153" x="324.5" y="418.5669">input of solve* methods</text><!--MD5=[98e57eeda52dce54b1dd86e6d921e50d]
reverse link Solution to Solver--><path codeLine="55" d="M691.5,272.39 C691.5,305.77 691.5,345.4 691.5,375.85 " fill="none" id="Solution-backto-Solver" style="stroke:#A80036;stroke-width:1.0;"/><polygon fill="#A80036" points="691.5,267.09,687.5,276.09,691.5,272.09,695.5,276.09,691.5,267.09" style="stroke:#A80036;stroke-width:1.0;"/><text fill="#000000" font-family="sans-serif" font-size="13" lengthAdjust="spacing" textLength="163" x="692.5" y="310.0669">output of solve* methods</text><!--MD5=[d2de9fb72e64f04acc0ae9b911e37299]
@startuml
interface Solver {
    + solve(goal: Struct, options: SolveOptions): Sequence<Solution>
    + solveList(goal: Struct, options: SolveOptions): List<Solution>
    + solveOnce(goal: Struct, options: SolveOptions): Solution
    ..
    + clone(): Solver
}

interface SolveOptions {
    + isLazy: Boolean
    + isEager: Boolean
    + timeout: TimeDuration
    + limit: Int
    + customOptions: Map<String, Any>
    - -
    + setLazy(value: Boolean): SolveOptions
    + setTimeout(value: TimeDuration): SolveOptions
    + setLimit(value: Int): SolveOptions
    + setOption(key: String, value: Any): SolveOptions
}

interface Solution {
    + query: Struct
    + substitution: Substitution
    + exception: TuPrologRuntimeException?
    + solvedQuery: Struct?
    - -
    + valueOf(variable: Var): Term?
    + valueOf(variable: String): Term?
}

interface Yes {
    + substitution: Substitution.Unifier
    + solvedQuery: Struct
}

interface No {
    + substitution: Substitution.Fail
    + solvedQuery: Nothing
}

interface Halt {
    + exception: TuPrologRuntimeException
}

Yes - -|> Solution
No - -|> Solution
Halt - -|> Solution

class TuPrologRuntimeException

Halt "1" *-down- "1" TuPrologRuntimeException

SolveOptions <-right- Solver : input of solve* methods
Solution <-down- Solver : output of solve* methods

@enduml

PlantUML version 1.2021.00(Sun Jan 10 11:25:05 CET 2021)
(MIT source distribution)
Java Runtime: OpenJDK Runtime Environment
JVM: OpenJDK 64-Bit Server VM
Default Encoding: UTF-8
Language: it
Country: IT
--></g></svg>