<?xml version="1.0" encoding="UTF-8" standalone="no"?>
<svg xmlns="http://www.w3.org/2000/svg" xmlns:xlink="http://www.w3.org/1999/xlink" contentScriptType="application/ecmascript" contentStyleType="text/css" height="1049px" preserveAspectRatio="none" style="width:1275px;height:1049px;" version="1.1" viewBox="0 0 1275 1049" width="1275px" zoomAndPan="magnify"><defs><filter height="300%" id="f15zvivr2a77fy" width="300%" x="-1" y="-1"><feGaussianBlur result="blurOut" stdDeviation="2.0"/><feColorMatrix in="blurOut" result="blurOut2" type="matrix" values="0 0 0 0 0 0 0 0 0 0 0 0 0 0 0 0 0 0 .4 0"/><feOffset dx="4.0" dy="4.0" in="blurOut2" result="blurOut3"/><feBlend in="SourceGraphic" in2="blurOut3" mode="normal"/></filter></defs><g><!--MD5=[5906af5765eb3dde04353d7e2c8f0e92]
cluster solve--><polygon fill="#FFFFFF" filter="url(#f15zvivr2a77fy)" points="348,6,396,6,403,28.2969,906,28.2969,906,412,348,412,348,6" style="stroke:#000000;stroke-width:1.5;"/><line style="stroke:#000000;stroke-width:1.5;" x1="348" x2="403" y1="28.2969" y2="28.2969"/><text fill="#000000" font-family="sans-serif" font-size="14" font-weight="bold" lengthAdjust="spacing" textLength="42" x="352" y="20.9951">solve</text><!--MD5=[4b7bb29c9395cf827e3f6e9fcf55c19f]
cluster solve.primitive--><polygon fill="#FFFFFF" filter="url(#f15zvivr2a77fy)" points="322,943,448,943,455,965.2969,458,965.2969,458,1042,322,1042,322,943" style="stroke:#000000;stroke-width:1.5;"/><line style="stroke:#000000;stroke-width:1.5;" x1="322" x2="455" y1="965.2969" y2="965.2969"/><text fill="#000000" font-family="sans-serif" font-size="14" font-weight="bold" lengthAdjust="spacing" textLength="120" x="326" y="957.9951">solve.primitive</text><!--MD5=[23dddbe7ae563471ab8e9ae0acffd670]
cluster solve.function--><polygon fill="#FFFFFF" filter="url(#f15zvivr2a77fy)" points="482,943,604,943,611,965.2969,636,965.2969,636,1042,482,1042,482,943" style="stroke:#000000;stroke-width:1.5;"/><line style="stroke:#000000;stroke-width:1.5;" x1="482" x2="611" y1="965.2969" y2="965.2969"/><text fill="#000000" font-family="sans-serif" font-size="14" font-weight="bold" lengthAdjust="spacing" textLength="116" x="486" y="957.9951">solve.function</text><!--MD5=[57a67b3563cde18d979186b31366c06a]
cluster solve.library--><polygon fill="#FFFFFF" filter="url(#f15zvivr2a77fy)" points="416,445,522,445,529,467.2969,601,467.2969,601,910,416,910,416,445" style="stroke:#000000;stroke-width:1.5;"/><line style="stroke:#000000;stroke-width:1.5;" x1="416" x2="529" y1="467.2969" y2="467.2969"/><text fill="#000000" font-family="sans-serif" font-size="14" font-weight="bold" lengthAdjust="spacing" textLength="100" x="420" y="459.9951">solve.library</text><!--MD5=[fcc89c4edf40be0d57f79c49e9812f5f]
cluster theory--><polygon fill="#FFFFFF" filter="url(#f15zvivr2a77fy)" points="688,700,747,700,754,722.2969,842,722.2969,842,910,688,910,688,700" style="stroke:#000000;stroke-width:1.5;"/><line style="stroke:#000000;stroke-width:1.5;" x1="688" x2="754" y1="722.2969" y2="722.2969"/><text fill="#000000" font-family="sans-serif" font-size="14" font-weight="bold" lengthAdjust="spacing" textLength="53" x="692" y="714.9951">theory</text><!--MD5=[01435ace8273dc3cae88e7f376e4d373]
cluster core--><polygon fill="#FFFFFF" filter="url(#f15zvivr2a77fy)" points="689,943,730,943,737,965.2969,935,965.2969,935,1042,689,1042,689,943" style="stroke:#000000;stroke-width:1.5;"/><line style="stroke:#000000;stroke-width:1.5;" x1="689" x2="737" y1="965.2969" y2="965.2969"/><text fill="#000000" font-family="sans-serif" font-size="14" font-weight="bold" lengthAdjust="spacing" textLength="35" x="693" y="957.9951">core</text><!--MD5=[632375c170e87e80409dc660d9380ffb]
cluster solve.flags--><polygon fill="#FFFFFF" filter="url(#f15zvivr2a77fy)" points="16,152,110,152,117,174.2969,324,174.2969,324,412,16,412,16,152" style="stroke:#000000;stroke-width:1.5;"/><line style="stroke:#000000;stroke-width:1.5;" x1="16" x2="117" y1="174.2969" y2="174.2969"/><text fill="#000000" font-family="sans-serif" font-size="14" font-weight="bold" lengthAdjust="spacing" textLength="88" x="20" y="166.9951">solve.flags</text><!--MD5=[0edc20d885a46d7a631e95df6933d9bc]
cluster solve.channels--><polygon fill="#FFFFFF" filter="url(#f15zvivr2a77fy)" points="930,313,1055,313,1062,335.2969,1258,335.2969,1258,799,930,799,930,313" style="stroke:#000000;stroke-width:1.5;"/><line style="stroke:#000000;stroke-width:1.5;" x1="930" x2="1062" y1="335.2969" y2="335.2969"/><text fill="#000000" font-family="sans-serif" font-size="14" font-weight="bold" lengthAdjust="spacing" textLength="119" x="934" y="327.9951">solve.channels</text><!--MD5=[7e0cc054e68485d8dbab588155cf841a]
class Solver--><rect codeLine="4" fill="#FEFECE" filter="url(#f15zvivr2a77fy)" height="48" id="Solver" style="stroke:#A80036;stroke-width:1.5;" width="69" x="625.5" y="187"/><ellipse cx="640.5" cy="203" fill="#B4A7E5" rx="11" ry="11" style="stroke:#A80036;stroke-width:1.0;"/><path d="M641.4531,199.7813 L643.1719,199.7813 C643.5625,199.7813 643.75,199.75 643.875,199.6719 C644.1406,199.5156 644.2813,199.2344 644.2813,198.9375 C644.2813,198.6719 644.1719,198.4063 643.9375,198.2344 C643.7656,198.125 643.625,198.0938 643.1719,198.0938 L638.0313,198.0938 C637.5938,198.0938 637.4688,198.1094 637.3125,198.2031 C637.0625,198.3594 636.9063,198.6563 636.9063,198.9375 C636.9063,199.2188 637.0469,199.4688 637.2656,199.6406 C637.4219,199.75 637.6094,199.7813 638.0313,199.7813 L639.75,199.7813 L639.75,206.2969 L638.0313,206.2969 C637.5938,206.2969 637.4688,206.3125 637.3125,206.4219 C637.0625,206.5781 636.9063,206.8594 636.9063,207.1563 C636.9063,207.4063 637.0469,207.6719 637.2656,207.8281 C637.4219,207.9531 637.625,208 638.0313,208 L643.1719,208 C643.9219,208 644.2813,207.7188 644.2813,207.1563 C644.2813,206.875 644.1719,206.625 643.9375,206.4531 C643.7656,206.3281 643.625,206.2969 643.1719,206.2969 L641.4531,206.2969 L641.4531,199.7813 Z " fill="#000000"/><text fill="#000000" font-family="sans-serif" font-size="12" font-style="italic" lengthAdjust="spacing" textLength="37" x="654.5" y="207.1543">Solver</text><line style="stroke:#A80036;stroke-width:1.5;" x1="626.5" x2="693.5" y1="219" y2="219"/><line style="stroke:#A80036;stroke-width:1.5;" x1="626.5" x2="693.5" y1="227" y2="227"/><!--MD5=[b8f9c9f402fdb0639661b25476f0741f]
class ExecutionContext--><rect codeLine="6" fill="#FEFECE" filter="url(#f15zvivr2a77fy)" height="48" id="ExecutionContext" style="stroke:#A80036;stroke-width:1.5;" width="139" x="679.5" y="348"/><ellipse cx="694.5" cy="364" fill="#B4A7E5" rx="11" ry="11" style="stroke:#A80036;stroke-width:1.0;"/><path d="M695.4531,360.7813 L697.1719,360.7813 C697.5625,360.7813 697.75,360.75 697.875,360.6719 C698.1406,360.5156 698.2813,360.2344 698.2813,359.9375 C698.2813,359.6719 698.1719,359.4063 697.9375,359.2344 C697.7656,359.125 697.625,359.0938 697.1719,359.0938 L692.0313,359.0938 C691.5938,359.0938 691.4688,359.1094 691.3125,359.2031 C691.0625,359.3594 690.9063,359.6563 690.9063,359.9375 C690.9063,360.2188 691.0469,360.4688 691.2656,360.6406 C691.4219,360.75 691.6094,360.7813 692.0313,360.7813 L693.75,360.7813 L693.75,367.2969 L692.0313,367.2969 C691.5938,367.2969 691.4688,367.3125 691.3125,367.4219 C691.0625,367.5781 690.9063,367.8594 690.9063,368.1563 C690.9063,368.4063 691.0469,368.6719 691.2656,368.8281 C691.4219,368.9531 691.625,369 692.0313,369 L697.1719,369 C697.9219,369 698.2813,368.7188 698.2813,368.1563 C698.2813,367.875 698.1719,367.625 697.9375,367.4531 C697.7656,367.3281 697.625,367.2969 697.1719,367.2969 L695.4531,367.2969 L695.4531,360.7813 Z " fill="#000000"/><text fill="#000000" font-family="sans-serif" font-size="12" font-style="italic" lengthAdjust="spacing" textLength="107" x="708.5" y="368.1543">ExecutionContext</text><line style="stroke:#A80036;stroke-width:1.5;" x1="680.5" x2="817.5" y1="380" y2="380"/><line style="stroke:#A80036;stroke-width:1.5;" x1="680.5" x2="817.5" y1="388" y2="388"/><!--MD5=[c5c3bc2db960f5b0e791f54130695b68]
class SolverFactory--><rect codeLine="13" fill="#FEFECE" filter="url(#f15zvivr2a77fy)" height="48" id="SolverFactory" style="stroke:#A80036;stroke-width:1.5;" width="114" x="603" y="41"/><ellipse cx="618" cy="57" fill="#B4A7E5" rx="11" ry="11" style="stroke:#A80036;stroke-width:1.0;"/><path d="M618.9531,53.7813 L620.6719,53.7813 C621.0625,53.7813 621.25,53.75 621.375,53.6719 C621.6406,53.5156 621.7813,53.2344 621.7813,52.9375 C621.7813,52.6719 621.6719,52.4063 621.4375,52.2344 C621.2656,52.125 621.125,52.0938 620.6719,52.0938 L615.5313,52.0938 C615.0938,52.0938 614.9688,52.1094 614.8125,52.2031 C614.5625,52.3594 614.4063,52.6563 614.4063,52.9375 C614.4063,53.2188 614.5469,53.4688 614.7656,53.6406 C614.9219,53.75 615.1094,53.7813 615.5313,53.7813 L617.25,53.7813 L617.25,60.2969 L615.5313,60.2969 C615.0938,60.2969 614.9688,60.3125 614.8125,60.4219 C614.5625,60.5781 614.4063,60.8594 614.4063,61.1563 C614.4063,61.4063 614.5469,61.6719 614.7656,61.8281 C614.9219,61.9531 615.125,62 615.5313,62 L620.6719,62 C621.4219,62 621.7813,61.7188 621.7813,61.1563 C621.7813,60.875 621.6719,60.625 621.4375,60.4531 C621.2656,60.3281 621.125,60.2969 620.6719,60.2969 L618.9531,60.2969 L618.9531,53.7813 Z " fill="#000000"/><text fill="#000000" font-family="sans-serif" font-size="12" font-style="italic" lengthAdjust="spacing" textLength="82" x="632" y="61.1543">SolverFactory</text><line style="stroke:#A80036;stroke-width:1.5;" x1="604" x2="716" y1="73" y2="73"/><line style="stroke:#A80036;stroke-width:1.5;" x1="604" x2="716" y1="81" y2="81"/><path d="M730,198.5 L730,207 L694.57,211 L730,215 L730,223.6328 A0,0 0 0 0 730,223.6328 L890,223.6328 A0,0 0 0 0 890,223.6328 L890,208.5 L880,198.5 L730,198.5 A0,0 0 0 0 730,198.5 " fill="#FBFB77" filter="url(#f15zvivr2a77fy)" style="stroke:#A80036;stroke-width:1.0;"/><path d="M880,198.5 L880,208.5 L890,208.5 L880,198.5 " fill="#FBFB77" style="stroke:#A80036;stroke-width:1.0;"/><text fill="#000000" font-family="sans-serif" font-size="13" lengthAdjust="spacing" textLength="139" x="736" y="215.5669">this is what users use</text><!--MD5=[14e3c46138e08d08d57bfc182c122594]
class SolveOptions--><rect codeLine="19" fill="#FEFECE" filter="url(#f15zvivr2a77fy)" height="48" id="SolveOptions" style="stroke:#A80036;stroke-width:1.5;" width="110" x="364" y="187"/><ellipse cx="379" cy="203" fill="#B4A7E5" rx="11" ry="11" style="stroke:#A80036;stroke-width:1.0;"/><path d="M379.9531,199.7813 L381.6719,199.7813 C382.0625,199.7813 382.25,199.75 382.375,199.6719 C382.6406,199.5156 382.7813,199.2344 382.7813,198.9375 C382.7813,198.6719 382.6719,198.4063 382.4375,198.2344 C382.2656,198.125 382.125,198.0938 381.6719,198.0938 L376.5313,198.0938 C376.0938,198.0938 375.9688,198.1094 375.8125,198.2031 C375.5625,198.3594 375.4063,198.6563 375.4063,198.9375 C375.4063,199.2188 375.5469,199.4688 375.7656,199.6406 C375.9219,199.75 376.1094,199.7813 376.5313,199.7813 L378.25,199.7813 L378.25,206.2969 L376.5313,206.2969 C376.0938,206.2969 375.9688,206.3125 375.8125,206.4219 C375.5625,206.5781 375.4063,206.8594 375.4063,207.1563 C375.4063,207.4063 375.5469,207.6719 375.7656,207.8281 C375.9219,207.9531 376.125,208 376.5313,208 L381.6719,208 C382.4219,208 382.7813,207.7188 382.7813,207.1563 C382.7813,206.875 382.6719,206.625 382.4375,206.4531 C382.2656,206.3281 382.125,206.2969 381.6719,206.2969 L379.9531,206.2969 L379.9531,199.7813 Z " fill="#000000"/><text fill="#000000" font-family="sans-serif" font-size="12" font-style="italic" lengthAdjust="spacing" textLength="78" x="393" y="207.1543">SolveOptions</text><line style="stroke:#A80036;stroke-width:1.5;" x1="365" x2="473" y1="219" y2="219"/><line style="stroke:#A80036;stroke-width:1.5;" x1="365" x2="473" y1="227" y2="227"/><!--MD5=[14dcd1c6f0ba10ad7a0e543e42252a17]
class Solution--><rect codeLine="21" fill="#FEFECE" filter="url(#f15zvivr2a77fy)" height="48" id="Solution" style="stroke:#A80036;stroke-width:1.5;" width="81" x="509.5" y="187"/><ellipse cx="524.5" cy="203" fill="#B4A7E5" rx="11" ry="11" style="stroke:#A80036;stroke-width:1.0;"/><path d="M525.4531,199.7813 L527.1719,199.7813 C527.5625,199.7813 527.75,199.75 527.875,199.6719 C528.1406,199.5156 528.2813,199.2344 528.2813,198.9375 C528.2813,198.6719 528.1719,198.4063 527.9375,198.2344 C527.7656,198.125 527.625,198.0938 527.1719,198.0938 L522.0313,198.0938 C521.5938,198.0938 521.4688,198.1094 521.3125,198.2031 C521.0625,198.3594 520.9063,198.6563 520.9063,198.9375 C520.9063,199.2188 521.0469,199.4688 521.2656,199.6406 C521.4219,199.75 521.6094,199.7813 522.0313,199.7813 L523.75,199.7813 L523.75,206.2969 L522.0313,206.2969 C521.5938,206.2969 521.4688,206.3125 521.3125,206.4219 C521.0625,206.5781 520.9063,206.8594 520.9063,207.1563 C520.9063,207.4063 521.0469,207.6719 521.2656,207.8281 C521.4219,207.9531 521.625,208 522.0313,208 L527.1719,208 C527.9219,208 528.2813,207.7188 528.2813,207.1563 C528.2813,206.875 528.1719,206.625 527.9375,206.4531 C527.7656,206.3281 527.625,206.2969 527.1719,206.2969 L525.4531,206.2969 L525.4531,199.7813 Z " fill="#000000"/><text fill="#000000" font-family="sans-serif" font-size="12" font-style="italic" lengthAdjust="spacing" textLength="49" x="538.5" y="207.1543">Solution</text><line style="stroke:#A80036;stroke-width:1.5;" x1="510.5" x2="589.5" y1="219" y2="219"/><line style="stroke:#A80036;stroke-width:1.5;" x1="510.5" x2="589.5" y1="227" y2="227"/><!--MD5=[204a995c784cbe6b3a7450752a2139a2]
class Primitive--><rect codeLine="28" fill="#FEFECE" filter="url(#f15zvivr2a77fy)" height="48" id="Primitive" style="stroke:#A80036;stroke-width:1.5;" width="84" x="358" y="978"/><ellipse cx="373" cy="994" fill="#B4A7E5" rx="11" ry="11" style="stroke:#A80036;stroke-width:1.0;"/><path d="M373.9531,990.7813 L375.6719,990.7813 C376.0625,990.7813 376.25,990.75 376.375,990.6719 C376.6406,990.5156 376.7813,990.2344 376.7813,989.9375 C376.7813,989.6719 376.6719,989.4063 376.4375,989.2344 C376.2656,989.125 376.125,989.0938 375.6719,989.0938 L370.5313,989.0938 C370.0938,989.0938 369.9688,989.1094 369.8125,989.2031 C369.5625,989.3594 369.4063,989.6563 369.4063,989.9375 C369.4063,990.2188 369.5469,990.4688 369.7656,990.6406 C369.9219,990.75 370.1094,990.7813 370.5313,990.7813 L372.25,990.7813 L372.25,997.2969 L370.5313,997.2969 C370.0938,997.2969 369.9688,997.3125 369.8125,997.4219 C369.5625,997.5781 369.4063,997.8594 369.4063,998.1563 C369.4063,998.4063 369.5469,998.6719 369.7656,998.8281 C369.9219,998.9531 370.125,999 370.5313,999 L375.6719,999 C376.4219,999 376.7813,998.7188 376.7813,998.1563 C376.7813,997.875 376.6719,997.625 376.4375,997.4531 C376.2656,997.3281 376.125,997.2969 375.6719,997.2969 L373.9531,997.2969 L373.9531,990.7813 Z " fill="#000000"/><text fill="#000000" font-family="sans-serif" font-size="12" font-style="italic" lengthAdjust="spacing" textLength="52" x="387" y="998.1543">Primitive</text><line style="stroke:#A80036;stroke-width:1.5;" x1="359" x2="441" y1="1010" y2="1010"/><line style="stroke:#A80036;stroke-width:1.5;" x1="359" x2="441" y1="1018" y2="1018"/><!--MD5=[5fc6e261d0cc3570726fb106fb4f0bb0]
class PrologFunction--><rect codeLine="32" fill="#FEFECE" filter="url(#f15zvivr2a77fy)" height="48" id="PrologFunction" style="stroke:#A80036;stroke-width:1.5;" width="122" x="498" y="978"/><ellipse cx="513" cy="994" fill="#B4A7E5" rx="11" ry="11" style="stroke:#A80036;stroke-width:1.0;"/><path d="M513.9531,990.7813 L515.6719,990.7813 C516.0625,990.7813 516.25,990.75 516.375,990.6719 C516.6406,990.5156 516.7813,990.2344 516.7813,989.9375 C516.7813,989.6719 516.6719,989.4063 516.4375,989.2344 C516.2656,989.125 516.125,989.0938 515.6719,989.0938 L510.5313,989.0938 C510.0938,989.0938 509.9688,989.1094 509.8125,989.2031 C509.5625,989.3594 509.4063,989.6563 509.4063,989.9375 C509.4063,990.2188 509.5469,990.4688 509.7656,990.6406 C509.9219,990.75 510.1094,990.7813 510.5313,990.7813 L512.25,990.7813 L512.25,997.2969 L510.5313,997.2969 C510.0938,997.2969 509.9688,997.3125 509.8125,997.4219 C509.5625,997.5781 509.4063,997.8594 509.4063,998.1563 C509.4063,998.4063 509.5469,998.6719 509.7656,998.8281 C509.9219,998.9531 510.125,999 510.5313,999 L515.6719,999 C516.4219,999 516.7813,998.7188 516.7813,998.1563 C516.7813,997.875 516.6719,997.625 516.4375,997.4531 C516.2656,997.3281 516.125,997.2969 515.6719,997.2969 L513.9531,997.2969 L513.9531,990.7813 Z " fill="#000000"/><text fill="#000000" font-family="sans-serif" font-size="12" font-style="italic" lengthAdjust="spacing" textLength="90" x="527" y="998.1543">PrologFunction</text><line style="stroke:#A80036;stroke-width:1.5;" x1="499" x2="619" y1="1010" y2="1010"/><line style="stroke:#A80036;stroke-width:1.5;" x1="499" x2="619" y1="1018" y2="1018"/><!--MD5=[1681db427d861294dc4bf59cd2c200d7]
class Library--><rect codeLine="37" fill="#FEFECE" filter="url(#f15zvivr2a77fy)" height="48" id="Library" style="stroke:#A80036;stroke-width:1.5;" width="74" x="505" y="846"/><ellipse cx="520" cy="862" fill="#B4A7E5" rx="11" ry="11" style="stroke:#A80036;stroke-width:1.0;"/><path d="M520.9531,858.7813 L522.6719,858.7813 C523.0625,858.7813 523.25,858.75 523.375,858.6719 C523.6406,858.5156 523.7813,858.2344 523.7813,857.9375 C523.7813,857.6719 523.6719,857.4063 523.4375,857.2344 C523.2656,857.125 523.125,857.0938 522.6719,857.0938 L517.5313,857.0938 C517.0938,857.0938 516.9688,857.1094 516.8125,857.2031 C516.5625,857.3594 516.4063,857.6563 516.4063,857.9375 C516.4063,858.2188 516.5469,858.4688 516.7656,858.6406 C516.9219,858.75 517.1094,858.7813 517.5313,858.7813 L519.25,858.7813 L519.25,865.2969 L517.5313,865.2969 C517.0938,865.2969 516.9688,865.3125 516.8125,865.4219 C516.5625,865.5781 516.4063,865.8594 516.4063,866.1563 C516.4063,866.4063 516.5469,866.6719 516.7656,866.8281 C516.9219,866.9531 517.125,867 517.5313,867 L522.6719,867 C523.4219,867 523.7813,866.7188 523.7813,866.1563 C523.7813,865.875 523.6719,865.625 523.4375,865.4531 C523.2656,865.3281 523.125,865.2969 522.6719,865.2969 L520.9531,865.2969 L520.9531,858.7813 Z " fill="#000000"/><text fill="#000000" font-family="sans-serif" font-size="12" font-style="italic" lengthAdjust="spacing" textLength="42" x="534" y="866.1543">Library</text><line style="stroke:#A80036;stroke-width:1.5;" x1="506" x2="578" y1="878" y2="878"/><line style="stroke:#A80036;stroke-width:1.5;" x1="506" x2="578" y1="886" y2="886"/><!--MD5=[0be40e026757eb61635dca10631d2dae]
class AliasedLibrary--><rect codeLine="39" fill="#FEFECE" filter="url(#f15zvivr2a77fy)" height="48" id="AliasedLibrary" style="stroke:#A80036;stroke-width:1.5;" width="116" x="469" y="735"/><ellipse cx="484" cy="751" fill="#B4A7E5" rx="11" ry="11" style="stroke:#A80036;stroke-width:1.0;"/><path d="M484.9531,747.7813 L486.6719,747.7813 C487.0625,747.7813 487.25,747.75 487.375,747.6719 C487.6406,747.5156 487.7813,747.2344 487.7813,746.9375 C487.7813,746.6719 487.6719,746.4063 487.4375,746.2344 C487.2656,746.125 487.125,746.0938 486.6719,746.0938 L481.5313,746.0938 C481.0938,746.0938 480.9688,746.1094 480.8125,746.2031 C480.5625,746.3594 480.4063,746.6563 480.4063,746.9375 C480.4063,747.2188 480.5469,747.4688 480.7656,747.6406 C480.9219,747.75 481.1094,747.7813 481.5313,747.7813 L483.25,747.7813 L483.25,754.2969 L481.5313,754.2969 C481.0938,754.2969 480.9688,754.3125 480.8125,754.4219 C480.5625,754.5781 480.4063,754.8594 480.4063,755.1563 C480.4063,755.4063 480.5469,755.6719 480.7656,755.8281 C480.9219,755.9531 481.125,756 481.5313,756 L486.6719,756 C487.4219,756 487.7813,755.7188 487.7813,755.1563 C487.7813,754.875 487.6719,754.625 487.4375,754.4531 C487.2656,754.3281 487.125,754.2969 486.6719,754.2969 L484.9531,754.2969 L484.9531,747.7813 Z " fill="#000000"/><text fill="#000000" font-family="sans-serif" font-size="12" font-style="italic" lengthAdjust="spacing" textLength="84" x="498" y="755.1543">AliasedLibrary</text><line style="stroke:#A80036;stroke-width:1.5;" x1="470" x2="584" y1="767" y2="767"/><line style="stroke:#A80036;stroke-width:1.5;" x1="470" x2="584" y1="775" y2="775"/><!--MD5=[45135152e4ce426d4a9c6b8b5d29808f]
class LibraryGroup--><rect codeLine="41" fill="#FEFECE" filter="url(#f15zvivr2a77fy)" height="48" id="LibraryGroup" style="stroke:#A80036;stroke-width:1.5;" width="111" x="470.5" y="605"/><ellipse cx="485.5" cy="621" fill="#B4A7E5" rx="11" ry="11" style="stroke:#A80036;stroke-width:1.0;"/><path d="M486.4531,617.7813 L488.1719,617.7813 C488.5625,617.7813 488.75,617.75 488.875,617.6719 C489.1406,617.5156 489.2813,617.2344 489.2813,616.9375 C489.2813,616.6719 489.1719,616.4063 488.9375,616.2344 C488.7656,616.125 488.625,616.0938 488.1719,616.0938 L483.0313,616.0938 C482.5938,616.0938 482.4688,616.1094 482.3125,616.2031 C482.0625,616.3594 481.9063,616.6563 481.9063,616.9375 C481.9063,617.2188 482.0469,617.4688 482.2656,617.6406 C482.4219,617.75 482.6094,617.7813 483.0313,617.7813 L484.75,617.7813 L484.75,624.2969 L483.0313,624.2969 C482.5938,624.2969 482.4688,624.3125 482.3125,624.4219 C482.0625,624.5781 481.9063,624.8594 481.9063,625.1563 C481.9063,625.4063 482.0469,625.6719 482.2656,625.8281 C482.4219,625.9531 482.625,626 483.0313,626 L488.1719,626 C488.9219,626 489.2813,625.7188 489.2813,625.1563 C489.2813,624.875 489.1719,624.625 488.9375,624.4531 C488.7656,624.3281 488.625,624.2969 488.1719,624.2969 L486.4531,624.2969 L486.4531,617.7813 Z " fill="#000000"/><text fill="#000000" font-family="sans-serif" font-size="12" font-style="italic" lengthAdjust="spacing" textLength="79" x="499.5" y="625.1543">LibraryGroup</text><line style="stroke:#A80036;stroke-width:1.5;" x1="471.5" x2="580.5" y1="637" y2="637"/><line style="stroke:#A80036;stroke-width:1.5;" x1="471.5" x2="580.5" y1="645" y2="645"/><!--MD5=[43bb85fa1f498b21bff7bea42a5f5796]
class Libraries--><rect codeLine="43" fill="#FEFECE" filter="url(#f15zvivr2a77fy)" height="48" id="Libraries" style="stroke:#A80036;stroke-width:1.5;" width="84" x="497" y="480"/><ellipse cx="512" cy="496" fill="#ADD1B2" rx="11" ry="11" style="stroke:#A80036;stroke-width:1.0;"/><path d="M514.3438,491.6719 C513.4063,491.2344 512.8125,491.0938 511.9375,491.0938 C509.3125,491.0938 507.3125,493.1719 507.3125,495.8906 L507.3125,497.0156 C507.3125,499.5938 509.4219,501.4844 512.3125,501.4844 C513.5313,501.4844 514.6875,501.1875 515.4375,500.6406 C516.0156,500.2344 516.3438,499.7813 516.3438,499.3906 C516.3438,498.9375 515.9531,498.5469 515.4844,498.5469 C515.2656,498.5469 515.0625,498.625 514.875,498.8125 C514.4219,499.2969 514.4219,499.2969 514.2344,499.3906 C513.8125,499.6563 513.125,499.7813 512.3594,499.7813 C510.3125,499.7813 509.0156,498.6875 509.0156,496.9844 L509.0156,495.8906 C509.0156,494.1094 510.2656,492.7969 512,492.7969 C512.5781,492.7969 513.1875,492.9531 513.6563,493.2031 C514.1406,493.4844 514.3125,493.7031 514.4063,494.1094 C514.4688,494.5156 514.5,494.6406 514.6406,494.7656 C514.7813,494.9063 515.0156,495.0156 515.2344,495.0156 C515.5,495.0156 515.7656,494.875 515.9375,494.6563 C516.0469,494.5 516.0781,494.3125 516.0781,493.8906 L516.0781,492.4688 C516.0781,492.0313 516.0625,491.9063 515.9688,491.75 C515.8125,491.4844 515.5313,491.3438 515.2344,491.3438 C514.9375,491.3438 514.7344,491.4375 514.5156,491.75 L514.3438,491.6719 Z " fill="#000000"/><text fill="#000000" font-family="sans-serif" font-size="12" lengthAdjust="spacing" textLength="52" x="526" y="500.1543">Libraries</text><line style="stroke:#A80036;stroke-width:1.5;" x1="498" x2="580" y1="512" y2="512"/><line style="stroke:#A80036;stroke-width:1.5;" x1="498" x2="580" y1="520" y2="520"/><!--MD5=[edea06a7d58d16627e96798795365c36]
class Theory--><rect codeLine="59" fill="#FEFECE" filter="url(#f15zvivr2a77fy)" height="48" id="Theory" style="stroke:#A80036;stroke-width:1.5;" width="73" x="704.5" y="846"/><ellipse cx="719.5" cy="862" fill="#B4A7E5" rx="11" ry="11" style="stroke:#A80036;stroke-width:1.0;"/><path d="M720.4531,858.7813 L722.1719,858.7813 C722.5625,858.7813 722.75,858.75 722.875,858.6719 C723.1406,858.5156 723.2813,858.2344 723.2813,857.9375 C723.2813,857.6719 723.1719,857.4063 722.9375,857.2344 C722.7656,857.125 722.625,857.0938 722.1719,857.0938 L717.0313,857.0938 C716.5938,857.0938 716.4688,857.1094 716.3125,857.2031 C716.0625,857.3594 715.9063,857.6563 715.9063,857.9375 C715.9063,858.2188 716.0469,858.4688 716.2656,858.6406 C716.4219,858.75 716.6094,858.7813 717.0313,858.7813 L718.75,858.7813 L718.75,865.2969 L717.0313,865.2969 C716.5938,865.2969 716.4688,865.3125 716.3125,865.4219 C716.0625,865.5781 715.9063,865.8594 715.9063,866.1563 C715.9063,866.4063 716.0469,866.6719 716.2656,866.8281 C716.4219,866.9531 716.625,867 717.0313,867 L722.1719,867 C722.9219,867 723.2813,866.7188 723.2813,866.1563 C723.2813,865.875 723.1719,865.625 722.9375,865.4531 C722.7656,865.3281 722.625,865.2969 722.1719,865.2969 L720.4531,865.2969 L720.4531,858.7813 Z " fill="#000000"/><text fill="#000000" font-family="sans-serif" font-size="12" font-style="italic" lengthAdjust="spacing" textLength="41" x="733.5" y="866.1543">Theory</text><line style="stroke:#A80036;stroke-width:1.5;" x1="705.5" x2="776.5" y1="878" y2="878"/><line style="stroke:#A80036;stroke-width:1.5;" x1="705.5" x2="776.5" y1="886" y2="886"/><!--MD5=[149674817d81a335337902030b0ee8d2]
class MutableTheory--><rect codeLine="60" fill="#FEFECE" filter="url(#f15zvivr2a77fy)" height="48" id="MutableTheory" style="stroke:#A80036;stroke-width:1.5;" width="121" x="704.5" y="735"/><ellipse cx="719.5" cy="751" fill="#B4A7E5" rx="11" ry="11" style="stroke:#A80036;stroke-width:1.0;"/><path d="M720.4531,747.7813 L722.1719,747.7813 C722.5625,747.7813 722.75,747.75 722.875,747.6719 C723.1406,747.5156 723.2813,747.2344 723.2813,746.9375 C723.2813,746.6719 723.1719,746.4063 722.9375,746.2344 C722.7656,746.125 722.625,746.0938 722.1719,746.0938 L717.0313,746.0938 C716.5938,746.0938 716.4688,746.1094 716.3125,746.2031 C716.0625,746.3594 715.9063,746.6563 715.9063,746.9375 C715.9063,747.2188 716.0469,747.4688 716.2656,747.6406 C716.4219,747.75 716.6094,747.7813 717.0313,747.7813 L718.75,747.7813 L718.75,754.2969 L717.0313,754.2969 C716.5938,754.2969 716.4688,754.3125 716.3125,754.4219 C716.0625,754.5781 715.9063,754.8594 715.9063,755.1563 C715.9063,755.4063 716.0469,755.6719 716.2656,755.8281 C716.4219,755.9531 716.625,756 717.0313,756 L722.1719,756 C722.9219,756 723.2813,755.7188 723.2813,755.1563 C723.2813,754.875 723.1719,754.625 722.9375,754.4531 C722.7656,754.3281 722.625,754.2969 722.1719,754.2969 L720.4531,754.2969 L720.4531,747.7813 Z " fill="#000000"/><text fill="#000000" font-family="sans-serif" font-size="12" font-style="italic" lengthAdjust="spacing" textLength="89" x="733.5" y="755.1543">MutableTheory</text><line style="stroke:#A80036;stroke-width:1.5;" x1="705.5" x2="824.5" y1="767" y2="767"/><line style="stroke:#A80036;stroke-width:1.5;" x1="705.5" x2="824.5" y1="775" y2="775"/><!--MD5=[3d9a9201f4e3c24a3b32edb25b35db95]
class Clause--><rect codeLine="73" fill="#FEFECE" filter="url(#f15zvivr2a77fy)" height="48" id="Clause" style="stroke:#A80036;stroke-width:1.5;" width="71" x="705.5" y="978"/><ellipse cx="720.5" cy="994" fill="#B4A7E5" rx="11" ry="11" style="stroke:#A80036;stroke-width:1.0;"/><path d="M721.4531,990.7813 L723.1719,990.7813 C723.5625,990.7813 723.75,990.75 723.875,990.6719 C724.1406,990.5156 724.2813,990.2344 724.2813,989.9375 C724.2813,989.6719 724.1719,989.4063 723.9375,989.2344 C723.7656,989.125 723.625,989.0938 723.1719,989.0938 L718.0313,989.0938 C717.5938,989.0938 717.4688,989.1094 717.3125,989.2031 C717.0625,989.3594 716.9063,989.6563 716.9063,989.9375 C716.9063,990.2188 717.0469,990.4688 717.2656,990.6406 C717.4219,990.75 717.6094,990.7813 718.0313,990.7813 L719.75,990.7813 L719.75,997.2969 L718.0313,997.2969 C717.5938,997.2969 717.4688,997.3125 717.3125,997.4219 C717.0625,997.5781 716.9063,997.8594 716.9063,998.1563 C716.9063,998.4063 717.0469,998.6719 717.2656,998.8281 C717.4219,998.9531 717.625,999 718.0313,999 L723.1719,999 C723.9219,999 724.2813,998.7188 724.2813,998.1563 C724.2813,997.875 724.1719,997.625 723.9375,997.4531 C723.7656,997.3281 723.625,997.2969 723.1719,997.2969 L721.4531,997.2969 L721.4531,990.7813 Z " fill="#000000"/><text fill="#000000" font-family="sans-serif" font-size="12" font-style="italic" lengthAdjust="spacing" textLength="39" x="734.5" y="998.1543">Clause</text><line style="stroke:#A80036;stroke-width:1.5;" x1="706.5" x2="775.5" y1="1010" y2="1010"/><line style="stroke:#A80036;stroke-width:1.5;" x1="706.5" x2="775.5" y1="1018" y2="1018"/><!--MD5=[550ff5495501a87e1ab8aec111b17d9b]
class OperatorSet--><rect codeLine="79" fill="#FEFECE" filter="url(#f15zvivr2a77fy)" height="48" id="OperatorSet" style="stroke:#A80036;stroke-width:1.5;" width="107" x="811.5" y="978"/><ellipse cx="826.5" cy="994" fill="#ADD1B2" rx="11" ry="11" style="stroke:#A80036;stroke-width:1.0;"/><path d="M828.8438,989.6719 C827.9063,989.2344 827.3125,989.0938 826.4375,989.0938 C823.8125,989.0938 821.8125,991.1719 821.8125,993.8906 L821.8125,995.0156 C821.8125,997.5938 823.9219,999.4844 826.8125,999.4844 C828.0313,999.4844 829.1875,999.1875 829.9375,998.6406 C830.5156,998.2344 830.8438,997.7813 830.8438,997.3906 C830.8438,996.9375 830.4531,996.5469 829.9844,996.5469 C829.7656,996.5469 829.5625,996.625 829.375,996.8125 C828.9219,997.2969 828.9219,997.2969 828.7344,997.3906 C828.3125,997.6563 827.625,997.7813 826.8594,997.7813 C824.8125,997.7813 823.5156,996.6875 823.5156,994.9844 L823.5156,993.8906 C823.5156,992.1094 824.7656,990.7969 826.5,990.7969 C827.0781,990.7969 827.6875,990.9531 828.1563,991.2031 C828.6406,991.4844 828.8125,991.7031 828.9063,992.1094 C828.9688,992.5156 829,992.6406 829.1406,992.7656 C829.2813,992.9063 829.5156,993.0156 829.7344,993.0156 C830,993.0156 830.2656,992.875 830.4375,992.6563 C830.5469,992.5 830.5781,992.3125 830.5781,991.8906 L830.5781,990.4688 C830.5781,990.0313 830.5625,989.9063 830.4688,989.75 C830.3125,989.4844 830.0313,989.3438 829.7344,989.3438 C829.4375,989.3438 829.2344,989.4375 829.0156,989.75 L828.8438,989.6719 Z " fill="#000000"/><text fill="#000000" font-family="sans-serif" font-size="12" lengthAdjust="spacing" textLength="75" x="840.5" y="998.1543">OperatorSet</text><line style="stroke:#A80036;stroke-width:1.5;" x1="812.5" x2="917.5" y1="1010" y2="1010"/><line style="stroke:#A80036;stroke-width:1.5;" x1="812.5" x2="917.5" y1="1018" y2="1018"/><!--MD5=[8a83ee8581b5c4e5f8754dad88dc09f0]
class NotableFlag--><rect codeLine="90" fill="#FEFECE" filter="url(#f15zvivr2a77fy)" height="48" id="NotableFlag" style="stroke:#A80036;stroke-width:1.5;" width="103" x="32.5" y="348"/><ellipse cx="47.5" cy="364" fill="#B4A7E5" rx="11" ry="11" style="stroke:#A80036;stroke-width:1.0;"/><path d="M48.4531,360.7813 L50.1719,360.7813 C50.5625,360.7813 50.75,360.75 50.875,360.6719 C51.1406,360.5156 51.2813,360.2344 51.2813,359.9375 C51.2813,359.6719 51.1719,359.4063 50.9375,359.2344 C50.7656,359.125 50.625,359.0938 50.1719,359.0938 L45.0313,359.0938 C44.5938,359.0938 44.4688,359.1094 44.3125,359.2031 C44.0625,359.3594 43.9063,359.6563 43.9063,359.9375 C43.9063,360.2188 44.0469,360.4688 44.2656,360.6406 C44.4219,360.75 44.6094,360.7813 45.0313,360.7813 L46.75,360.7813 L46.75,367.2969 L45.0313,367.2969 C44.5938,367.2969 44.4688,367.3125 44.3125,367.4219 C44.0625,367.5781 43.9063,367.8594 43.9063,368.1563 C43.9063,368.4063 44.0469,368.6719 44.2656,368.8281 C44.4219,368.9531 44.625,369 45.0313,369 L50.1719,369 C50.9219,369 51.2813,368.7188 51.2813,368.1563 C51.2813,367.875 51.1719,367.625 50.9375,367.4531 C50.7656,367.3281 50.625,367.2969 50.1719,367.2969 L48.4531,367.2969 L48.4531,360.7813 Z " fill="#000000"/><text fill="#000000" font-family="sans-serif" font-size="12" font-style="italic" lengthAdjust="spacing" textLength="71" x="61.5" y="368.1543">NotableFlag</text><line style="stroke:#A80036;stroke-width:1.5;" x1="33.5" x2="134.5" y1="380" y2="380"/><line style="stroke:#A80036;stroke-width:1.5;" x1="33.5" x2="134.5" y1="388" y2="388"/><!--MD5=[4dfc6a72b8dd60daa1b635d583ff79da]
class Map--><rect codeLine="91" fill="#FEFECE" filter="url(#f15zvivr2a77fy)" height="48" id="Map" style="stroke:#A80036;stroke-width:1.5;" width="137" x="170.5" y="348"/><ellipse cx="185.5" cy="364" fill="#B4A7E5" rx="11" ry="11" style="stroke:#A80036;stroke-width:1.0;"/><path d="M186.4531,360.7813 L188.1719,360.7813 C188.5625,360.7813 188.75,360.75 188.875,360.6719 C189.1406,360.5156 189.2813,360.2344 189.2813,359.9375 C189.2813,359.6719 189.1719,359.4063 188.9375,359.2344 C188.7656,359.125 188.625,359.0938 188.1719,359.0938 L183.0313,359.0938 C182.5938,359.0938 182.4688,359.1094 182.3125,359.2031 C182.0625,359.3594 181.9063,359.6563 181.9063,359.9375 C181.9063,360.2188 182.0469,360.4688 182.2656,360.6406 C182.4219,360.75 182.6094,360.7813 183.0313,360.7813 L184.75,360.7813 L184.75,367.2969 L183.0313,367.2969 C182.5938,367.2969 182.4688,367.3125 182.3125,367.4219 C182.0625,367.5781 181.9063,367.8594 181.9063,368.1563 C181.9063,368.4063 182.0469,368.6719 182.2656,368.8281 C182.4219,368.9531 182.625,369 183.0313,369 L188.1719,369 C188.9219,369 189.2813,368.7188 189.2813,368.1563 C189.2813,367.875 189.1719,367.625 188.9375,367.4531 C188.7656,367.3281 188.625,367.2969 188.1719,367.2969 L186.4531,367.2969 L186.4531,360.7813 Z " fill="#000000"/><text fill="#000000" font-family="sans-serif" font-size="12" font-style="italic" lengthAdjust="spacing" textLength="25" x="199.5" y="368.1543">Map</text><rect fill="#FFFFFF" height="15.9688" style="stroke:#000000;stroke-width:1.0;stroke-dasharray:2.0,2.0;" width="78" x="232.5" y="345"/><text fill="#000000" font-family="sans-serif" font-size="12" font-style="italic" lengthAdjust="spacing" textLength="76" x="233.5" y="357.1387">String, Term</text><line style="stroke:#A80036;stroke-width:1.5;" x1="171.5" x2="306.5" y1="380" y2="380"/><line style="stroke:#A80036;stroke-width:1.5;" x1="171.5" x2="306.5" y1="388" y2="388"/><!--MD5=[9f1812e6113878599cb0680a6172a5b3]
class FlagStore--><rect codeLine="92" fill="#FEFECE" filter="url(#f15zvivr2a77fy)" height="48" id="FlagStore" style="stroke:#A80036;stroke-width:1.5;" width="89" x="194.5" y="187"/><ellipse cx="209.5" cy="203" fill="#B4A7E5" rx="11" ry="11" style="stroke:#A80036;stroke-width:1.0;"/><path d="M210.4531,199.7813 L212.1719,199.7813 C212.5625,199.7813 212.75,199.75 212.875,199.6719 C213.1406,199.5156 213.2813,199.2344 213.2813,198.9375 C213.2813,198.6719 213.1719,198.4063 212.9375,198.2344 C212.7656,198.125 212.625,198.0938 212.1719,198.0938 L207.0313,198.0938 C206.5938,198.0938 206.4688,198.1094 206.3125,198.2031 C206.0625,198.3594 205.9063,198.6563 205.9063,198.9375 C205.9063,199.2188 206.0469,199.4688 206.2656,199.6406 C206.4219,199.75 206.6094,199.7813 207.0313,199.7813 L208.75,199.7813 L208.75,206.2969 L207.0313,206.2969 C206.5938,206.2969 206.4688,206.3125 206.3125,206.4219 C206.0625,206.5781 205.9063,206.8594 205.9063,207.1563 C205.9063,207.4063 206.0469,207.6719 206.2656,207.8281 C206.4219,207.9531 206.625,208 207.0313,208 L212.1719,208 C212.9219,208 213.2813,207.7188 213.2813,207.1563 C213.2813,206.875 213.1719,206.625 212.9375,206.4531 C212.7656,206.3281 212.625,206.2969 212.1719,206.2969 L210.4531,206.2969 L210.4531,199.7813 Z " fill="#000000"/><text fill="#000000" font-family="sans-serif" font-size="12" font-style="italic" lengthAdjust="spacing" textLength="57" x="223.5" y="207.1543">FlagStore</text><line style="stroke:#A80036;stroke-width:1.5;" x1="195.5" x2="282.5" y1="219" y2="219"/><line style="stroke:#A80036;stroke-width:1.5;" x1="195.5" x2="282.5" y1="227" y2="227"/><!--MD5=[085076096658226fe7d3ac7a26d9b629]
class Listener--><rect codeLine="101" fill="#FEFECE" filter="url(#f15zvivr2a77fy)" height="48" id="Listener" style="stroke:#A80036;stroke-width:1.5;" width="80" x="1056" y="735"/><ellipse cx="1071" cy="751" fill="#B4A7E5" rx="11" ry="11" style="stroke:#A80036;stroke-width:1.0;"/><path d="M1071.9531,747.7813 L1073.6719,747.7813 C1074.0625,747.7813 1074.25,747.75 1074.375,747.6719 C1074.6406,747.5156 1074.7813,747.2344 1074.7813,746.9375 C1074.7813,746.6719 1074.6719,746.4063 1074.4375,746.2344 C1074.2656,746.125 1074.125,746.0938 1073.6719,746.0938 L1068.5313,746.0938 C1068.0938,746.0938 1067.9688,746.1094 1067.8125,746.2031 C1067.5625,746.3594 1067.4063,746.6563 1067.4063,746.9375 C1067.4063,747.2188 1067.5469,747.4688 1067.7656,747.6406 C1067.9219,747.75 1068.1094,747.7813 1068.5313,747.7813 L1070.25,747.7813 L1070.25,754.2969 L1068.5313,754.2969 C1068.0938,754.2969 1067.9688,754.3125 1067.8125,754.4219 C1067.5625,754.5781 1067.4063,754.8594 1067.4063,755.1563 C1067.4063,755.4063 1067.5469,755.6719 1067.7656,755.8281 C1067.9219,755.9531 1068.125,756 1068.5313,756 L1073.6719,756 C1074.4219,756 1074.7813,755.7188 1074.7813,755.1563 C1074.7813,754.875 1074.6719,754.625 1074.4375,754.4531 C1074.2656,754.3281 1074.125,754.2969 1073.6719,754.2969 L1071.9531,754.2969 L1071.9531,747.7813 Z " fill="#000000"/><text fill="#000000" font-family="sans-serif" font-size="12" font-style="italic" lengthAdjust="spacing" textLength="48" x="1085" y="755.1543">Listener</text><line style="stroke:#A80036;stroke-width:1.5;" x1="1057" x2="1135" y1="767" y2="767"/><line style="stroke:#A80036;stroke-width:1.5;" x1="1057" x2="1135" y1="775" y2="775"/><!--MD5=[1e4e6ac1845d89d680410515caa0c0ac]
class Channel--><rect codeLine="102" fill="#FEFECE" filter="url(#f15zvivr2a77fy)" height="48" id="Channel" style="stroke:#A80036;stroke-width:1.5;" width="92" x="1050" y="605"/><ellipse cx="1065" cy="621" fill="#B4A7E5" rx="11" ry="11" style="stroke:#A80036;stroke-width:1.0;"/><path d="M1065.9531,617.7813 L1067.6719,617.7813 C1068.0625,617.7813 1068.25,617.75 1068.375,617.6719 C1068.6406,617.5156 1068.7813,617.2344 1068.7813,616.9375 C1068.7813,616.6719 1068.6719,616.4063 1068.4375,616.2344 C1068.2656,616.125 1068.125,616.0938 1067.6719,616.0938 L1062.5313,616.0938 C1062.0938,616.0938 1061.9688,616.1094 1061.8125,616.2031 C1061.5625,616.3594 1061.4063,616.6563 1061.4063,616.9375 C1061.4063,617.2188 1061.5469,617.4688 1061.7656,617.6406 C1061.9219,617.75 1062.1094,617.7813 1062.5313,617.7813 L1064.25,617.7813 L1064.25,624.2969 L1062.5313,624.2969 C1062.0938,624.2969 1061.9688,624.3125 1061.8125,624.4219 C1061.5625,624.5781 1061.4063,624.8594 1061.4063,625.1563 C1061.4063,625.4063 1061.5469,625.6719 1061.7656,625.8281 C1061.9219,625.9531 1062.125,626 1062.5313,626 L1067.6719,626 C1068.4219,626 1068.7813,625.7188 1068.7813,625.1563 C1068.7813,624.875 1068.6719,624.625 1068.4375,624.4531 C1068.2656,624.3281 1068.125,624.2969 1067.6719,624.2969 L1065.9531,624.2969 L1065.9531,617.7813 Z " fill="#000000"/><text fill="#000000" font-family="sans-serif" font-size="12" font-style="italic" lengthAdjust="spacing" textLength="49" x="1079" y="625.1543">Channel</text><rect fill="#FFFFFF" height="15.9688" style="stroke:#000000;stroke-width:1.0;stroke-dasharray:2.0,2.0;" width="9" x="1136" y="602"/><text fill="#000000" font-family="sans-serif" font-size="12" font-style="italic" lengthAdjust="spacing" textLength="7" x="1137" y="614.1387">T</text><line style="stroke:#A80036;stroke-width:1.5;" x1="1051" x2="1141" y1="637" y2="637"/><line style="stroke:#A80036;stroke-width:1.5;" x1="1051" x2="1141" y1="645" y2="645"/><!--MD5=[f7baa1082940d3ce43d405e81b39ac4c]
class InputChannel--><rect codeLine="103" fill="#FEFECE" filter="url(#f15zvivr2a77fy)" height="48" id="InputChannel" style="stroke:#A80036;stroke-width:1.5;" width="125" x="1116.5" y="480"/><ellipse cx="1131.5" cy="496" fill="#B4A7E5" rx="11" ry="11" style="stroke:#A80036;stroke-width:1.0;"/><path d="M1132.4531,492.7813 L1134.1719,492.7813 C1134.5625,492.7813 1134.75,492.75 1134.875,492.6719 C1135.1406,492.5156 1135.2813,492.2344 1135.2813,491.9375 C1135.2813,491.6719 1135.1719,491.4063 1134.9375,491.2344 C1134.7656,491.125 1134.625,491.0938 1134.1719,491.0938 L1129.0313,491.0938 C1128.5938,491.0938 1128.4688,491.1094 1128.3125,491.2031 C1128.0625,491.3594 1127.9063,491.6563 1127.9063,491.9375 C1127.9063,492.2188 1128.0469,492.4688 1128.2656,492.6406 C1128.4219,492.75 1128.6094,492.7813 1129.0313,492.7813 L1130.75,492.7813 L1130.75,499.2969 L1129.0313,499.2969 C1128.5938,499.2969 1128.4688,499.3125 1128.3125,499.4219 C1128.0625,499.5781 1127.9063,499.8594 1127.9063,500.1563 C1127.9063,500.4063 1128.0469,500.6719 1128.2656,500.8281 C1128.4219,500.9531 1128.625,501 1129.0313,501 L1134.1719,501 C1134.9219,501 1135.2813,500.7188 1135.2813,500.1563 C1135.2813,499.875 1135.1719,499.625 1134.9375,499.4531 C1134.7656,499.3281 1134.625,499.2969 1134.1719,499.2969 L1132.4531,499.2969 L1132.4531,492.7813 Z " fill="#000000"/><text fill="#000000" font-family="sans-serif" font-size="12" font-style="italic" lengthAdjust="spacing" textLength="82" x="1145.5" y="500.1543">InputChannel</text><rect fill="#FFFFFF" height="15.9688" style="stroke:#000000;stroke-width:1.0;stroke-dasharray:2.0,2.0;" width="9" x="1235.5" y="477"/><text fill="#000000" font-family="sans-serif" font-size="12" font-style="italic" lengthAdjust="spacing" textLength="7" x="1236.5" y="489.1387">T</text><line style="stroke:#A80036;stroke-width:1.5;" x1="1117.5" x2="1240.5" y1="512" y2="512"/><line style="stroke:#A80036;stroke-width:1.5;" x1="1117.5" x2="1240.5" y1="520" y2="520"/><!--MD5=[65a4a8a9711b185e0a80cb86d89d8ef9]
class OutputChannel--><rect codeLine="104" fill="#FEFECE" filter="url(#f15zvivr2a77fy)" height="48" id="OutputChannel" style="stroke:#A80036;stroke-width:1.5;" width="135" x="946.5" y="480"/><ellipse cx="961.5" cy="496" fill="#B4A7E5" rx="11" ry="11" style="stroke:#A80036;stroke-width:1.0;"/><path d="M962.4531,492.7813 L964.1719,492.7813 C964.5625,492.7813 964.75,492.75 964.875,492.6719 C965.1406,492.5156 965.2813,492.2344 965.2813,491.9375 C965.2813,491.6719 965.1719,491.4063 964.9375,491.2344 C964.7656,491.125 964.625,491.0938 964.1719,491.0938 L959.0313,491.0938 C958.5938,491.0938 958.4688,491.1094 958.3125,491.2031 C958.0625,491.3594 957.9063,491.6563 957.9063,491.9375 C957.9063,492.2188 958.0469,492.4688 958.2656,492.6406 C958.4219,492.75 958.6094,492.7813 959.0313,492.7813 L960.75,492.7813 L960.75,499.2969 L959.0313,499.2969 C958.5938,499.2969 958.4688,499.3125 958.3125,499.4219 C958.0625,499.5781 957.9063,499.8594 957.9063,500.1563 C957.9063,500.4063 958.0469,500.6719 958.2656,500.8281 C958.4219,500.9531 958.625,501 959.0313,501 L964.1719,501 C964.9219,501 965.2813,500.7188 965.2813,500.1563 C965.2813,499.875 965.1719,499.625 964.9375,499.4531 C964.7656,499.3281 964.625,499.2969 964.1719,499.2969 L962.4531,499.2969 L962.4531,492.7813 Z " fill="#000000"/><text fill="#000000" font-family="sans-serif" font-size="12" font-style="italic" lengthAdjust="spacing" textLength="92" x="975.5" y="500.1543">OutputChannel</text><rect fill="#FFFFFF" height="15.9688" style="stroke:#000000;stroke-width:1.0;stroke-dasharray:2.0,2.0;" width="9" x="1075.5" y="477"/><text fill="#000000" font-family="sans-serif" font-size="12" font-style="italic" lengthAdjust="spacing" textLength="7" x="1076.5" y="489.1387">T</text><line style="stroke:#A80036;stroke-width:1.5;" x1="947.5" x2="1080.5" y1="512" y2="512"/><line style="stroke:#A80036;stroke-width:1.5;" x1="947.5" x2="1080.5" y1="520" y2="520"/><!--MD5=[4c95f9bed35113f7168e59ba3b2ef414]
class InputStore--><rect codeLine="105" fill="#FEFECE" filter="url(#f15zvivr2a77fy)" height="48" id="InputStore" style="stroke:#A80036;stroke-width:1.5;" width="97" x="1112.5" y="348"/><ellipse cx="1127.5" cy="364" fill="#B4A7E5" rx="11" ry="11" style="stroke:#A80036;stroke-width:1.0;"/><path d="M1128.4531,360.7813 L1130.1719,360.7813 C1130.5625,360.7813 1130.75,360.75 1130.875,360.6719 C1131.1406,360.5156 1131.2813,360.2344 1131.2813,359.9375 C1131.2813,359.6719 1131.1719,359.4063 1130.9375,359.2344 C1130.7656,359.125 1130.625,359.0938 1130.1719,359.0938 L1125.0313,359.0938 C1124.5938,359.0938 1124.4688,359.1094 1124.3125,359.2031 C1124.0625,359.3594 1123.9063,359.6563 1123.9063,359.9375 C1123.9063,360.2188 1124.0469,360.4688 1124.2656,360.6406 C1124.4219,360.75 1124.6094,360.7813 1125.0313,360.7813 L1126.75,360.7813 L1126.75,367.2969 L1125.0313,367.2969 C1124.5938,367.2969 1124.4688,367.3125 1124.3125,367.4219 C1124.0625,367.5781 1123.9063,367.8594 1123.9063,368.1563 C1123.9063,368.4063 1124.0469,368.6719 1124.2656,368.8281 C1124.4219,368.9531 1124.625,369 1125.0313,369 L1130.1719,369 C1130.9219,369 1131.2813,368.7188 1131.2813,368.1563 C1131.2813,367.875 1131.1719,367.625 1130.9375,367.4531 C1130.7656,367.3281 1130.625,367.2969 1130.1719,367.2969 L1128.4531,367.2969 L1128.4531,360.7813 Z " fill="#000000"/><text fill="#000000" font-family="sans-serif" font-size="12" font-style="italic" lengthAdjust="spacing" textLength="65" x="1141.5" y="368.1543">InputStore</text><line style="stroke:#A80036;stroke-width:1.5;" x1="1113.5" x2="1208.5" y1="380" y2="380"/><line style="stroke:#A80036;stroke-width:1.5;" x1="1113.5" x2="1208.5" y1="388" y2="388"/><!--MD5=[02a1f05eac83fd68d63f990662b2b84d]
class OutputStore--><rect codeLine="106" fill="#FEFECE" filter="url(#f15zvivr2a77fy)" height="48" id="OutputStore" style="stroke:#A80036;stroke-width:1.5;" width="107" x="953.5" y="348"/><ellipse cx="968.5" cy="364" fill="#B4A7E5" rx="11" ry="11" style="stroke:#A80036;stroke-width:1.0;"/><path d="M969.4531,360.7813 L971.1719,360.7813 C971.5625,360.7813 971.75,360.75 971.875,360.6719 C972.1406,360.5156 972.2813,360.2344 972.2813,359.9375 C972.2813,359.6719 972.1719,359.4063 971.9375,359.2344 C971.7656,359.125 971.625,359.0938 971.1719,359.0938 L966.0313,359.0938 C965.5938,359.0938 965.4688,359.1094 965.3125,359.2031 C965.0625,359.3594 964.9063,359.6563 964.9063,359.9375 C964.9063,360.2188 965.0469,360.4688 965.2656,360.6406 C965.4219,360.75 965.6094,360.7813 966.0313,360.7813 L967.75,360.7813 L967.75,367.2969 L966.0313,367.2969 C965.5938,367.2969 965.4688,367.3125 965.3125,367.4219 C965.0625,367.5781 964.9063,367.8594 964.9063,368.1563 C964.9063,368.4063 965.0469,368.6719 965.2656,368.8281 C965.4219,368.9531 965.625,369 966.0313,369 L971.1719,369 C971.9219,369 972.2813,368.7188 972.2813,368.1563 C972.2813,367.875 972.1719,367.625 971.9375,367.4531 C971.7656,367.3281 971.625,367.2969 971.1719,367.2969 L969.4531,367.2969 L969.4531,360.7813 Z " fill="#000000"/><text fill="#000000" font-family="sans-serif" font-size="12" font-style="italic" lengthAdjust="spacing" textLength="75" x="982.5" y="368.1543">OutputStore</text><line style="stroke:#A80036;stroke-width:1.5;" x1="954.5" x2="1059.5" y1="380" y2="380"/><line style="stroke:#A80036;stroke-width:1.5;" x1="954.5" x2="1059.5" y1="388" y2="388"/><!--MD5=[78622f03d0e3db21f08eb1e74a236e39]
reverse link Solver to ExecutionContext--><path codeLine="11" d="M675.394,239.501 C692.539,270.131 719.953,319.107 736.043,347.852 " fill="none" id="Solver-backto-ExecutionContext" style="stroke:#A80036;stroke-width:1.0;stroke-dasharray:7.0,7.0;"/><polygon fill="#A80036" points="672.941,235.12,673.8478,244.927,675.3838,239.4827,680.8281,241.0186,672.941,235.12" style="stroke:#A80036;stroke-width:1.0;"/><text fill="#000000" font-family="sans-serif" font-size="13" lengthAdjust="spacing" textLength="78" x="709" y="278.0669">encapsulate</text><text fill="#000000" font-family="sans-serif" font-size="13" lengthAdjust="spacing" textLength="33" x="731.5" y="293.1997">state</text><!--MD5=[db3b6a31af9203210f4b2def1f5da32c]
link SolverFactory to Solver--><path codeLine="15" d="M660,89.136 C660,114.329 660,154.633 660,181.694 " fill="none" id="SolverFactory-to-Solver" style="stroke:#A80036;stroke-width:1.0;"/><polygon fill="#A80036" points="660,186.921,664,177.921,660,181.921,656,177.921,660,186.921" style="stroke:#A80036;stroke-width:1.0;"/><text fill="#000000" font-family="sans-serif" font-size="13" lengthAdjust="spacing" textLength="48" x="661" y="132.0669">creates</text><!--MD5=[98e57eeda52dce54b1dd86e6d921e50d]
reverse link Solution to Solver--><path codeLine="23" d="M595.955,211 C605.773,211 615.592,211 625.41,211 " fill="none" id="Solution-backto-Solver" style="stroke:#A80036;stroke-width:1.0;"/><polygon fill="#A80036" points="590.82,211,599.82,215,595.82,211,599.82,207,590.82,211" style="stroke:#A80036;stroke-width:1.0;"/><text fill="#000000" font-family="sans-serif" font-size="13" lengthAdjust="spacing" textLength="9" x="598.6094" y="206.7892">N</text><text fill="#000000" font-family="sans-serif" font-size="13" lengthAdjust="spacing" textLength="8" x="609.4508" y="206.5337">1</text><!--MD5=[9f268a4e7cdc85f9bfcc80c31eb7b2a0]
link SolveOptions to Solver--><path codeLine="24" d="M433.826,186.688 C449.416,163.701 476.282,130.682 509.5,116.5 C542.609,102.365 558.376,100.25 590.5,116.5 C617.476,130.146 636.535,159.74 647.789,182.199 " fill="none" id="SolveOptions-to-Solver" style="stroke:#A80036;stroke-width:1.0;"/><polygon fill="#A80036" points="650.072,186.875,649.7166,177.0326,647.8777,182.3822,642.5281,180.5434,650.072,186.875" style="stroke:#A80036;stroke-width:1.0;"/><text fill="#000000" font-family="sans-serif" font-size="13" lengthAdjust="spacing" textLength="8" x="428.4648" y="176.0169">1</text><text fill="#000000" font-family="sans-serif" font-size="13" lengthAdjust="spacing" textLength="8" x="638.503" y="175.855">1</text><!--MD5=[0fcf4f6ce680225949d6caeae53448b0]
link AliasedLibrary to Library--><path codeLine="45" d="M530.181,783.116 C531.891,795.544 534.056,811.275 536.064,825.868 " fill="none" id="AliasedLibrary-to-Library" style="stroke:#A80036;stroke-width:1.0;"/><polygon fill="none" points="543.031,825.15,538.823,845.917,529.162,827.058,543.031,825.15" style="stroke:#A80036;stroke-width:1.0;"/><!--MD5=[24b01ef8b2aac5c81e5b7f02da37317c]
link LibraryGroup to Library--><path codeLine="46" d="M485.596,653.096 C472,663.145 458.412,676.257 451,692 C429.23,738.243 427.11,761.816 451,807 C459.068,822.259 472.764,834.467 487.116,843.878 " fill="none" id="LibraryGroup-to-Library" style="stroke:#A80036;stroke-width:1.0;"/><polygon fill="none" points="490.796,837.92,504.611,853.987,483.792,850.042,490.796,837.92" style="stroke:#A80036;stroke-width:1.0;"/><!--MD5=[bbe51409217e8519b5ff64d298381195]
reverse link LibraryGroup to AliasedLibrary--><path codeLine="48" d="M526.285,666.418 C526.457,688.469 526.671,715.923 526.82,734.993 " fill="none" id="LibraryGroup-backto-AliasedLibrary" style="stroke:#A80036;stroke-width:1.0;"/><polygon fill="#A80036" points="526.181,653.18,522.2279,659.211,526.2746,665.1796,530.2277,659.1486,526.181,653.18" style="stroke:#A80036;stroke-width:1.0;"/><text fill="#000000" font-family="sans-serif" font-size="13" lengthAdjust="spacing" textLength="8" x="517.2501" y="672.9851">1</text><text fill="#000000" font-family="sans-serif" font-size="13" lengthAdjust="spacing" textLength="9" x="516.6208" y="724.0032">N</text><!--MD5=[b0e65a67a13bf5b2a180891d676faf28]
link Libraries to LibraryGroup--><path codeLine="50" d="M536.555,528.135 C534.866,544.113 532.57,565.842 530.55,584.952 " fill="none" id="Libraries-to-LibraryGroup" style="stroke:#A80036;stroke-width:1.0;"/><polygon fill="none" points="537.498,585.815,528.434,604.968,523.575,584.343,537.498,585.815" style="stroke:#A80036;stroke-width:1.0;"/><!--MD5=[1b9c2281a11dd39c591fb4abc360eaab]
reverse link Library to PrologFunction--><path codeLine="53" d="M546.766,907.447 C549.723,930.059 553.432,958.4247 555.987,977.9598 " fill="none" id="Library-backto-PrologFunction" style="stroke:#A80036;stroke-width:1.0;"/><polygon fill="#A80036" points="545.039,894.241,541.8507,900.709,546.5949,906.1397,549.7832,899.6717,545.039,894.241" style="stroke:#A80036;stroke-width:1.0;"/><text fill="#000000" font-family="sans-serif" font-size="13" lengthAdjust="spacing" textLength="8" x="536.8048" y="914.0609">1</text><text fill="#000000" font-family="sans-serif" font-size="13" lengthAdjust="spacing" textLength="9" x="545.0618" y="966.9615">N</text><!--MD5=[5094e7b4ab8275cd191392b20d8e860b]
reverse link Library to Primitive--><path codeLine="54" d="M506.995,903.046 C481.624,926.274 447.914,957.135 425.167,977.9598 " fill="none" id="Library-backto-Primitive" style="stroke:#A80036;stroke-width:1.0;"/><polygon fill="#A80036" points="516.613,894.241,509.4865,895.3423,507.7621,902.3442,514.8886,901.2429,516.613,894.241" style="stroke:#A80036;stroke-width:1.0;"/><text fill="#000000" font-family="sans-serif" font-size="13" lengthAdjust="spacing" textLength="8" x="501.4499" y="914.0609">1</text><text fill="#000000" font-family="sans-serif" font-size="13" lengthAdjust="spacing" textLength="9" x="421.4629" y="966.9615">N</text><!--MD5=[5e3ead796016cc84d1074d6636ad3bfa]
reverse link ExecutionContext to Libraries--><path codeLine="56" d="M675.93,401.468 C659.039,409.184 641.491,418.159 626,428 C602.435,442.971 578.625,463.998 561.885,479.98 " fill="none" id="ExecutionContext-backto-Libraries" style="stroke:#A80036;stroke-width:1.0;"/><polygon fill="#A80036" points="688.073,396.079,680.9661,394.8574,677.1051,400.9478,684.212,402.1694,688.073,396.079" style="stroke:#A80036;stroke-width:1.0;"/><text fill="#000000" font-family="sans-serif" font-size="13" lengthAdjust="spacing" textLength="8" x="663.4355" y="416.255">1</text><text fill="#000000" font-family="sans-serif" font-size="13" lengthAdjust="spacing" textLength="8" x="558.7243" y="468.9869">1</text><!--MD5=[82161de30b884347a97aa09103f4880f]
link MutableTheory to Theory--><path codeLine="62" d="M759.91,783.116 C757.142,795.689 753.629,811.642 750.385,826.377 " fill="none" id="MutableTheory-to-Theory" style="stroke:#A80036;stroke-width:1.0;"/><polygon fill="none" points="757.219,827.89,746.082,845.917,743.547,824.88,757.219,827.89" style="stroke:#A80036;stroke-width:1.0;"/><!--MD5=[32f873bb1d805206fdfcf50cf1499597]
reverse link Library to Theory--><path codeLine="65" d="M592.502,870 C629.791,870 667.079,870 704.368,870 " fill="none" id="Library-backto-Theory" style="stroke:#A80036;stroke-width:1.0;"/><polygon fill="#A80036" points="579.312,870,585.312,874,591.312,870,585.312,866,579.312,870" style="stroke:#A80036;stroke-width:1.0;"/><text fill="#000000" font-family="sans-serif" font-size="13" lengthAdjust="spacing" textLength="8" x="586.9289" y="865.6963">1</text><text fill="#000000" font-family="sans-serif" font-size="13" lengthAdjust="spacing" textLength="8" x="688.6225" y="865.6499">1</text><!--MD5=[e07852c23154dcea3cd240471166cd9b]
reverse link ExecutionContext to Theory--><path codeLine="67" d="M732.544,408.497 C699.858,484.219 634.27,666.173 687,807 C692.506,821.705 703.25,835.22 713.715,845.852 " fill="none" id="ExecutionContext-backto-Theory" style="stroke:#A80036;stroke-width:1.0;"/><polygon fill="#A80036" points="737.857,396.45,731.776,400.3257,733.0147,407.4296,739.0957,403.5539,737.857,396.45" style="stroke:#A80036;stroke-width:1.0;"/><text fill="#000000" font-family="sans-serif" font-size="13" lengthAdjust="spacing" textLength="55" x="675" y="633.5669">static KB</text><text fill="#000000" font-family="sans-serif" font-size="13" lengthAdjust="spacing" textLength="8" x="726.3552" y="415.9207">1</text><text fill="#000000" font-family="sans-serif" font-size="13" lengthAdjust="spacing" textLength="8" x="697.6982" y="834.8261">1</text><!--MD5=[a8f376b691498c06301f8a287a092e71]
reverse link ExecutionContext to MutableTheory--><path codeLine="68" d="M750.521,409.589 C753.777,487.955 761.348,670.131 764.034,734.753 " fill="none" id="ExecutionContext-backto-MutableTheory" style="stroke:#A80036;stroke-width:1.0;"/><polygon fill="#A80036" points="749.965,396.216,746.2177,402.377,750.4635,408.2056,754.2108,402.0447,749.965,396.216" style="stroke:#A80036;stroke-width:1.0;"/><text fill="#000000" font-family="sans-serif" font-size="13" lengthAdjust="spacing" textLength="75" x="759" y="571.0669">dynamic KB</text><text fill="#000000" font-family="sans-serif" font-size="13" lengthAdjust="spacing" textLength="8" x="741.2252" y="416.0299">1</text><text fill="#000000" font-family="sans-serif" font-size="13" lengthAdjust="spacing" textLength="8" x="754.8235" y="724.0977">1</text><!--MD5=[99953e93362baa0d8a9792bb0cd63535]
reverse link Library to OperatorSet--><path codeLine="84" d="M591.352,888.961 C619.394,898.64 655.327,910.169 688,918 C734.399,929.12 751.12,914.076 794,935 C814.57,945.037 833.322,963.0369 846.383,977.7061 " fill="none" id="Library-backto-OperatorSet" style="stroke:#A80036;stroke-width:1.0;"/><polygon fill="#A80036" points="579.063,884.663,583.4062,890.4194,590.3903,888.6243,586.0471,882.8679,579.063,884.663" style="stroke:#A80036;stroke-width:1.0;"/><text fill="#000000" font-family="sans-serif" font-size="13" lengthAdjust="spacing" textLength="8" x="586.8906" y="900.9674">1</text><text fill="#000000" font-family="sans-serif" font-size="13" lengthAdjust="spacing" textLength="9" x="831.7482" y="967.0394">N</text><!--MD5=[82eb9be5699e10ed4ac311270b68a918]
reverse link Theory to Clause--><path codeLine="85" d="M741,907.447 C741,930.059 741,958.4247 741,977.9598 " fill="none" id="Theory-backto-Clause" style="stroke:#A80036;stroke-width:1.0;"/><polygon fill="#A80036" points="741,894.241,737,900.241,741,906.241,745,900.241,741,894.241" style="stroke:#A80036;stroke-width:1.0;"/><text fill="#000000" font-family="sans-serif" font-size="13" lengthAdjust="spacing" textLength="8" x="732.025" y="914.0609">1</text><text fill="#000000" font-family="sans-serif" font-size="13" lengthAdjust="spacing" textLength="9" x="730.8469" y="966.9615">N</text><!--MD5=[f6279961f0277503fdcaf7b857e9b3c0]
reverse link ExecutionContext to OperatorSet--><path codeLine="87" d="M807.379,402.954 C841.929,425.263 879,459.366 879,503 C879,503 879,503 879,871 C879,908.455 873.184,951.633 869.049,977.5968 " fill="none" id="ExecutionContext-backto-OperatorSet" style="stroke:#A80036;stroke-width:1.0;"/><polygon fill="#A80036" points="796.301,396.128,799.3111,402.6808,806.5176,402.4225,803.5075,395.8697,796.301,396.128" style="stroke:#A80036;stroke-width:1.0;"/><text fill="#000000" font-family="sans-serif" font-size="13" lengthAdjust="spacing" textLength="8" x="798.8556" y="415.9204">1</text><text fill="#000000" font-family="sans-serif" font-size="13" lengthAdjust="spacing" textLength="8" x="861.0609" y="966.9035">1</text><!--MD5=[b56f74591b645416f244600f6e3fd1ad]
link FlagStore to Map--><path codeLine="94" d="M239,235.12 C239,259.26 239,297.688 239,327.528 " fill="none" id="FlagStore-to-Map" style="stroke:#A80036;stroke-width:1.0;"/><polygon fill="none" points="246,327.852,239,347.852,232,327.852,246,327.852" style="stroke:#A80036;stroke-width:1.0;"/><!--MD5=[e32e1120ffca2c55663f9ff64ae096b0]
reverse link FlagStore to NotableFlag--><path codeLine="95" d="M207.271,244.548 C177.3,275.293 133.095,320.638 106.566,347.852 " fill="none" id="FlagStore-backto-NotableFlag" style="stroke:#A80036;stroke-width:1.0;"/><polygon fill="#A80036" points="216.462,235.12,209.4095,236.6242,208.0855,243.7127,215.138,242.2085,216.462,235.12" style="stroke:#A80036;stroke-width:1.0;"/><text fill="#000000" font-family="sans-serif" font-size="13" lengthAdjust="spacing" textLength="8" x="201.9934" y="254.9105">1</text><text fill="#000000" font-family="sans-serif" font-size="13" lengthAdjust="spacing" textLength="9" x="102.1948" y="336.8261">N</text><!--MD5=[1477e36f78b0fb4a594eddd45de82f11]
link FlagStore to ExecutionContext--><path codeLine="98" d="M283.812,225.971 C369.503,252.686 557.738,311.371 666.676,345.334 " fill="none" id="FlagStore-to-ExecutionContext" style="stroke:#A80036;stroke-width:1.0;"/><polygon fill="#A80036" points="679.232,349.249,674.6949,343.6441,667.7761,345.6765,672.3132,351.2814,679.232,349.249" style="stroke:#A80036;stroke-width:1.0;"/><text fill="#000000" font-family="sans-serif" font-size="13" lengthAdjust="spacing" textLength="8" x="291.5914" y="224.2392">1</text><text fill="#000000" font-family="sans-serif" font-size="13" lengthAdjust="spacing" textLength="8" x="663.6247" y="343.2031">1</text><!--MD5=[9f28813481c377e0a439168eabb2ad82]
reverse link Channel to Listener--><path codeLine="108" d="M1096,666.418 C1096,688.469 1096,715.923 1096,734.993 " fill="none" id="Channel-backto-Listener" style="stroke:#A80036;stroke-width:1.0;"/><polygon fill="#A80036" points="1096,653.18,1092,659.18,1096,665.18,1100,659.18,1096,653.18" style="stroke:#A80036;stroke-width:1.0;"/><text fill="#000000" font-family="sans-serif" font-size="13" lengthAdjust="spacing" textLength="8" x="1087.025" y="672.9851">1</text><text fill="#000000" font-family="sans-serif" font-size="13" lengthAdjust="spacing" textLength="9" x="1085.8469" y="724.0032">N</text><!--MD5=[6d9fb721530fa5a5a652455aa24f1d2e]
link InputChannel to Channel--><path codeLine="109" d="M1163.39,528.135 C1151.97,545.058 1136.2,568.432 1122.78,588.313 " fill="none" id="InputChannel-to-Channel" style="stroke:#A80036;stroke-width:1.0;"/><polygon fill="none" points="1128.53,592.305,1111.54,604.968,1116.93,584.474,1128.53,592.305" style="stroke:#A80036;stroke-width:1.0;"/><!--MD5=[a2f9bcabbe9ec688eba75489fc0866cd]
link OutputChannel to Channel--><path codeLine="110" d="M1029.42,528.135 C1040.71,545.058 1056.29,568.432 1069.54,588.313 " fill="none" id="OutputChannel-to-Channel" style="stroke:#A80036;stroke-width:1.0;"/><polygon fill="none" points="1075.38,584.444,1080.65,604.968,1063.73,592.21,1075.38,584.444" style="stroke:#A80036;stroke-width:1.0;"/><!--MD5=[8b62abbfe90ec69e50fa3ee30413f165]
reverse link InputStore to InputChannel--><path codeLine="112" d="M1166,409.127 C1169.14,431.791 1173.09,460.333 1175.81,479.96 " fill="none" id="InputStore-backto-InputChannel" style="stroke:#A80036;stroke-width:1.0;"/><polygon fill="#A80036" points="1164.22,396.241,1161.0808,402.7329,1165.8659,408.1276,1169.0052,401.6356,1164.22,396.241" style="stroke:#A80036;stroke-width:1.0;"/><text fill="#000000" font-family="sans-serif" font-size="13" lengthAdjust="spacing" textLength="8" x="1156.0299" y="416.0609">1</text><text fill="#000000" font-family="sans-serif" font-size="13" lengthAdjust="spacing" textLength="9" x="1164.8394" y="468.9618">N</text><!--MD5=[3b1b1da4af67453fad1c78147a319924]
reverse link OutputStore to OutputChannel--><path codeLine="113" d="M1008.96,409.447 C1010.18,432.059 1011.71,460.425 1012.76,479.96 " fill="none" id="OutputStore-backto-OutputChannel" style="stroke:#A80036;stroke-width:1.0;"/><polygon fill="#A80036" points="1008.25,396.241,1004.5784,402.4474,1008.8953,408.2236,1012.5669,402.0172,1008.25,396.241" style="stroke:#A80036;stroke-width:1.0;"/><text fill="#000000" font-family="sans-serif" font-size="13" lengthAdjust="spacing" textLength="8" x="999.5797" y="416.0609">1</text><text fill="#000000" font-family="sans-serif" font-size="13" lengthAdjust="spacing" textLength="9" x="1002.2891" y="468.9618">N</text><!--MD5=[7b5b3bd3c3f72237b44c6a45d5ba374e]
link InputStore to ExecutionContext--><path codeLine="116" d="M1145.65,347.591 C1128.4,322.719 1097.88,285.646 1060.5,270 C1014.17,250.609 996.314,258.192 947.5,270 C891.358,283.58 833.289,315.934 794.575,340.591 " fill="none" id="InputStore-to-ExecutionContext" style="stroke:#A80036;stroke-width:1.0;"/><polygon fill="#A80036" points="783.206,347.966,790.4165,348.0566,793.2734,341.4355,786.0629,341.345,783.206,347.966" style="stroke:#A80036;stroke-width:1.0;"/><text fill="#000000" font-family="sans-serif" font-size="13" lengthAdjust="spacing" textLength="8" x="1132.9334" y="336.8963">1</text><text fill="#000000" font-family="sans-serif" font-size="13" lengthAdjust="spacing" textLength="8" x="782.9463" y="336.9693">1</text><!--MD5=[e79420da58672690d8ffe29e2761ba3c]
link OutputStore to ExecutionContext--><path codeLine="117" d="M953.259,372 C912.738,372 872.217,372 831.695,372 " fill="none" id="OutputStore-to-ExecutionContext" style="stroke:#A80036;stroke-width:1.0;"/><polygon fill="#A80036" points="818.539,372,824.539,376,830.539,372,824.539,368,818.539,372" style="stroke:#A80036;stroke-width:1.0;"/><text fill="#000000" font-family="sans-serif" font-size="13" lengthAdjust="spacing" textLength="8" x="937.5001" y="368.068">1</text><text fill="#000000" font-family="sans-serif" font-size="13" lengthAdjust="spacing" textLength="8" x="826.5823" y="368.2538">1</text><!--MD5=[7b21822325188758b326c761551af235]
@startuml
package solve {
    ' interface ExecutionContextAware

    interface Solver

    interface ExecutionContext

    ' ExecutionContext - -|> ExecutionContextAware
    ' Solver - -|> ExecutionContextAware

    Solver <.. ExecutionContext : "encapsulate\nstate"

    interface SolverFactory

    SolverFactory - -> Solver : creates

    note right of Solver: this is what users use

    interface SolveOptions

    interface Solution

    Solver "1" -left-> "N" Solution
    Solver "1" <-left- "1" SolveOptions
}

package solve.primitive {
    interface Primitive
}

package solve.function {
    interface PrologFunction
}


package solve.library {
    interface Library

    interface AliasedLibrary

    interface LibraryGroup

    class Libraries

    AliasedLibrary - -|> Library
    LibraryGroup - -|> Library

    LibraryGroup "1" *- - "N" AliasedLibrary

    Libraries - -|> LibraryGroup
}

Library "1" *-down- "N" PrologFunction
Library "1" *- - "N" Primitive

ExecutionContext "1" *- - "1" Libraries

package theory {
    interface Theory
    interface MutableTheory

    MutableTheory - -|> Theory
}

Library "1" *-right- "1" Theory

ExecutionContext "1" *- - "1" Theory: static KB
ExecutionContext "1" *- - "1" MutableTheory: dynamic KB

package core {
'    interface Term
'    interface Struct
    interface Clause

'    Clause - -|> Struct
'    Struct - -|> Term

'    class Operator
    class OperatorSet

'    OperatorSet "1" *- - "N" Operator
}

Library "1" *- - "N" OperatorSet
Theory "1" *- - "N" Clause

ExecutionContext "1" *- - "1" OperatorSet

package solve.flags {
    interface NotableFlag
    interface Map<String, Term>
    interface FlagStore

    FlagStore - -|> Map
    FlagStore "1" *- - "N" NotableFlag
}

ExecutionContext "1" *-up- "1" FlagStore

package solve.channels {
    interface Listener
    interface Channel<T>
    interface InputChannel<T>
    interface OutputChannel<T>
    interface InputStore
    interface OutputStore

    Channel "1" *- - "N" Listener
    InputChannel - -|> Channel
    OutputChannel - -|> Channel

    InputStore "1" *- - "N" InputChannel
    OutputStore "1" *- - "N" OutputChannel
}

ExecutionContext "1" *-left- "1" InputStore
ExecutionContext "1" *-left- "1" OutputStore
@enduml

@startuml
package solve {

    interface Solver

    interface ExecutionContext


    Solver <.. ExecutionContext : "encapsulate\nstate"

    interface SolverFactory

    SolverFactory - -> Solver : creates

    note right of Solver: this is what users use

    interface SolveOptions

    interface Solution

    Solver "1" -left-> "N" Solution
    Solver "1" <-left- "1" SolveOptions
}

package solve.primitive {
    interface Primitive
}

package solve.function {
    interface PrologFunction
}


package solve.library {
    interface Library

    interface AliasedLibrary

    interface LibraryGroup

    class Libraries

    AliasedLibrary - -|> Library
    LibraryGroup - -|> Library

    LibraryGroup "1" *- - "N" AliasedLibrary

    Libraries - -|> LibraryGroup
}

Library "1" *-down- "N" PrologFunction
Library "1" *- - "N" Primitive

ExecutionContext "1" *- - "1" Libraries

package theory {
    interface Theory
    interface MutableTheory

    MutableTheory - -|> Theory
}

Library "1" *-right- "1" Theory

ExecutionContext "1" *- - "1" Theory: static KB
ExecutionContext "1" *- - "1" MutableTheory: dynamic KB

package core {
    interface Clause


    class OperatorSet

}

Library "1" *- - "N" OperatorSet
Theory "1" *- - "N" Clause

ExecutionContext "1" *- - "1" OperatorSet

package solve.flags {
    interface NotableFlag
    interface Map<String, Term>
    interface FlagStore

    FlagStore - -|> Map
    FlagStore "1" *- - "N" NotableFlag
}

ExecutionContext "1" *-up- "1" FlagStore

package solve.channels {
    interface Listener
    interface Channel<T>
    interface InputChannel<T>
    interface OutputChannel<T>
    interface InputStore
    interface OutputStore

    Channel "1" *- - "N" Listener
    InputChannel - -|> Channel
    OutputChannel - -|> Channel

    InputStore "1" *- - "N" InputChannel
    OutputStore "1" *- - "N" OutputChannel
}

ExecutionContext "1" *-left- "1" InputStore
ExecutionContext "1" *-left- "1" OutputStore
@enduml

PlantUML version 1.2021.5beta3(Unknown compile time)
(GPL source distribution)
Java Runtime: Java(TM) SE Runtime Environment
JVM: Java HotSpot(TM) 64-Bit Server VM
Default Encoding: UTF-8
Language: en
Country: US
--></g></svg>