<?xml version="1.0" encoding="UTF-8" standalone="no"?>
<svg xmlns="http://www.w3.org/2000/svg" xmlns:xlink="http://www.w3.org/1999/xlink" contentScriptType="application/ecmascript" contentStyleType="text/css" height="273px" preserveAspectRatio="none" style="width:421px;height:273px;background:#FFFFFF;" version="1.1" viewBox="0 0 421 273" width="421px" zoomAndPan="magnify"><defs><filter height="300%" id="fwy1skjn75gld" width="300%" x="-1" y="-1"><feGaussianBlur result="blurOut" stdDeviation="2.0"/><feColorMatrix in="blurOut" result="blurOut2" type="matrix" values="0 0 0 0 0 0 0 0 0 0 0 0 0 0 0 0 0 0 .4 0"/><feOffset dx="4.0" dy="4.0" in="blurOut2" result="blurOut3"/><feBlend in="SourceGraphic" in2="blurOut3" mode="normal"/></filter></defs><g><!--MD5=[9d35236b92952560f647498cf8a29acb]
class Term--><rect codeLine="3" fill="#FEFECE" filter="url(#fwy1skjn75gld)" height="48" id="Term" style="stroke:#A80036;stroke-width:1.5;" width="63" x="7" y="109.5"/><ellipse cx="22" cy="125.5" fill="#B4A7E5" rx="11" ry="11" style="stroke:#A80036;stroke-width:1.0;"/><path d="M22.9531,122.2813 L24.6719,122.2813 C25.0625,122.2813 25.25,122.25 25.375,122.1719 C25.6406,122.0156 25.7813,121.7344 25.7813,121.4375 C25.7813,121.1719 25.6719,120.9063 25.4375,120.7344 C25.2656,120.625 25.125,120.5938 24.6719,120.5938 L19.5313,120.5938 C19.0938,120.5938 18.9688,120.6094 18.8125,120.7031 C18.5625,120.8594 18.4063,121.1563 18.4063,121.4375 C18.4063,121.7188 18.5469,121.9688 18.7656,122.1406 C18.9219,122.25 19.1094,122.2813 19.5313,122.2813 L21.25,122.2813 L21.25,128.7969 L19.5313,128.7969 C19.0938,128.7969 18.9688,128.8125 18.8125,128.9219 C18.5625,129.0781 18.4063,129.3594 18.4063,129.6563 C18.4063,129.9063 18.5469,130.1719 18.7656,130.3281 C18.9219,130.4531 19.125,130.5 19.5313,130.5 L24.6719,130.5 C25.4219,130.5 25.7813,130.2188 25.7813,129.6563 C25.7813,129.375 25.6719,129.125 25.4375,128.9531 C25.2656,128.8281 25.125,128.7969 24.6719,128.7969 L22.9531,128.7969 L22.9531,122.2813 Z " fill="#000000"/><text fill="#000000" font-family="sans-serif" font-size="12" font-style="italic" lengthAdjust="spacing" textLength="31" x="36" y="129.6543">Term</text><line style="stroke:#A80036;stroke-width:1.5;" x1="8" x2="69" y1="141.5" y2="141.5"/><line style="stroke:#A80036;stroke-width:1.5;" x1="8" x2="69" y1="149.5" y2="149.5"/><!--MD5=[eb0f4986160aea42d9ece72995cb24c7]
class Struct--><rect codeLine="5" fill="#FEFECE" filter="url(#fwy1skjn75gld)" height="252.875" id="Struct" style="stroke:#A80036;stroke-width:1.5;" width="277" x="130" y="7"/><ellipse cx="245.25" cy="23" fill="#B4A7E5" rx="11" ry="11" style="stroke:#A80036;stroke-width:1.0;"/><path d="M246.2031,19.7813 L247.9219,19.7813 C248.3125,19.7813 248.5,19.75 248.625,19.6719 C248.8906,19.5156 249.0313,19.2344 249.0313,18.9375 C249.0313,18.6719 248.9219,18.4063 248.6875,18.2344 C248.5156,18.125 248.375,18.0938 247.9219,18.0938 L242.7813,18.0938 C242.3438,18.0938 242.2188,18.1094 242.0625,18.2031 C241.8125,18.3594 241.6563,18.6563 241.6563,18.9375 C241.6563,19.2188 241.7969,19.4688 242.0156,19.6406 C242.1719,19.75 242.3594,19.7813 242.7813,19.7813 L244.5,19.7813 L244.5,26.2969 L242.7813,26.2969 C242.3438,26.2969 242.2188,26.3125 242.0625,26.4219 C241.8125,26.5781 241.6563,26.8594 241.6563,27.1563 C241.6563,27.4063 241.7969,27.6719 242.0156,27.8281 C242.1719,27.9531 242.375,28 242.7813,28 L247.9219,28 C248.6719,28 249.0313,27.7188 249.0313,27.1563 C249.0313,26.875 248.9219,26.625 248.6875,26.4531 C248.5156,26.3281 248.375,26.2969 247.9219,26.2969 L246.2031,26.2969 L246.2031,19.7813 Z " fill="#000000"/><text fill="#000000" font-family="sans-serif" font-size="12" font-style="italic" lengthAdjust="spacing" textLength="38" x="265.75" y="27.1543">Struct</text><line style="stroke:#A80036;stroke-width:1.5;" x1="131" x2="406" y1="39" y2="39"/><ellipse cx="141" cy="50" rx="3" ry="3" style="stroke:#038048;stroke-width:1.0;fill:none;"/><text fill="#000000" font-family="sans-serif" font-size="11" lengthAdjust="spacing" textLength="79" x="150" y="53.2104">functor: String</text><ellipse cx="141" cy="62.8047" rx="3" ry="3" style="stroke:#038048;stroke-width:1.0;fill:none;"/><text fill="#000000" font-family="sans-serif" font-size="11" lengthAdjust="spacing" textLength="46" x="150" y="66.0151">arity: Int</text><ellipse cx="141" cy="75.6094" rx="3" ry="3" style="stroke:#038048;stroke-width:1.0;fill:none;"/><text fill="#000000" font-family="sans-serif" font-size="11" lengthAdjust="spacing" textLength="172" x="150" y="78.8198">isFunctorWellFormed: Boolean</text><ellipse cx="141" cy="88.4141" rx="3" ry="3" style="stroke:#038048;stroke-width:1.0;fill:none;"/><text fill="#000000" font-family="sans-serif" font-size="11" lengthAdjust="spacing" textLength="103" x="150" y="91.6245">indicator: Indicator</text><ellipse cx="141" cy="101.2188" rx="3" ry="3" style="stroke:#038048;stroke-width:1.0;fill:none;"/><text fill="#000000" font-family="sans-serif" font-size="11" lengthAdjust="spacing" textLength="109" x="150" y="104.4292">args: Array&lt;Term&gt;</text><ellipse cx="141" cy="114.0234" rx="3" ry="3" style="stroke:#038048;stroke-width:1.0;fill:none;"/><text fill="#000000" font-family="sans-serif" font-size="11" lengthAdjust="spacing" textLength="117" x="150" y="117.2339">argsList: List&lt;Term&gt;</text><ellipse cx="141" cy="126.8281" rx="3" ry="3" style="stroke:#038048;stroke-width:1.0;fill:none;"/><text fill="#000000" font-family="sans-serif" font-size="11" lengthAdjust="spacing" textLength="197" x="150" y="130.0386">argsSequence: Sequence&lt;Term&gt;</text><ellipse cx="141" cy="139.6328" rx="3" ry="3" style="stroke:#038048;stroke-width:1.0;fill:none;"/><text fill="#000000" font-family="sans-serif" font-size="11" lengthAdjust="spacing" textLength="103" x="150" y="142.8433">indicator: Indicator</text><line style="stroke:#A80036;stroke-width:1.5;" x1="131" x2="406" y1="149.4375" y2="149.4375"/><ellipse cx="141" cy="160.4375" fill="#84BE84" rx="3" ry="3" style="stroke:#038048;stroke-width:1.0;"/><text fill="#000000" font-family="sans-serif" font-size="11" lengthAdjust="spacing" textLength="117" x="150" y="163.6479">get(index: Int): Term</text><ellipse cx="141" cy="173.2422" fill="#84BE84" rx="3" ry="3" style="stroke:#038048;stroke-width:1.0;"/><text fill="#000000" font-family="sans-serif" font-size="11" lengthAdjust="spacing" textLength="148" x="150" y="176.4526">getArgAt(index: Int): Term</text><ellipse cx="141" cy="186.0469" fill="#84BE84" rx="3" ry="3" style="stroke:#038048;stroke-width:1.0;"/><text fill="#000000" font-family="sans-serif" font-size="11" lengthAdjust="spacing" textLength="184" x="150" y="189.2573">addFirst(argument: Term): Struct</text><ellipse cx="141" cy="198.8516" fill="#84BE84" rx="3" ry="3" style="stroke:#038048;stroke-width:1.0;"/><text fill="#000000" font-family="sans-serif" font-size="11" lengthAdjust="spacing" textLength="184" x="150" y="202.062">addLast(argument: Term): Struct</text><ellipse cx="141" cy="211.6563" fill="#84BE84" rx="3" ry="3" style="stroke:#038048;stroke-width:1.0;"/><text fill="#000000" font-family="sans-serif" font-size="11" lengthAdjust="spacing" textLength="183" x="150" y="214.8667">append(argument: Term): Struct</text><ellipse cx="141" cy="224.4609" fill="#84BE84" rx="3" ry="3" style="stroke:#038048;stroke-width:1.0;"/><text fill="#000000" font-family="sans-serif" font-size="11" lengthAdjust="spacing" textLength="244" x="150" y="227.6714">insertAt(index: Int, argument: Term): Struct</text><ellipse cx="141" cy="237.2656" fill="#84BE84" rx="3" ry="3" style="stroke:#038048;stroke-width:1.0;"/><text fill="#000000" font-family="sans-serif" font-size="11" lengthAdjust="spacing" textLength="186" x="150" y="240.4761">setFunctor(functor: String): Struct</text><ellipse cx="141" cy="250.0703" fill="#84BE84" rx="3" ry="3" style="stroke:#038048;stroke-width:1.0;"/><text fill="#000000" font-family="sans-serif" font-size="11" lengthAdjust="spacing" textLength="251" x="150" y="253.2808">setArgs(arguments: Iterable&lt;Term&gt;): Struct</text><!--MD5=[f626f12429d76bc694cd64f7f069082d]
reverse link Term to Struct--><path codeLine="25" d="M90.316,133.5 C102.402,133.5 115.873,133.5 129.839,133.5 " fill="none" id="Term-backto-Struct" style="stroke:#A80036;stroke-width:1.0;"/><polygon fill="none" points="90.2491,140.5,70.2491,133.5,90.2491,126.5,90.2491,140.5" style="stroke:#A80036;stroke-width:1.0;"/><!--MD5=[2c7301f612c39af81f5d7958141d1e6e]
@startuml
left to right direction

interface Term 

interface Struct {
  + functor: String
  + arity: Int
  + isFunctorWellFormed: Boolean
  + indicator: Indicator
  + args: Array<Term>
  + argsList: List<Term>
  + argsSequence: Sequence<Term>
  + indicator: Indicator
  + get(index: Int): Term
  + getArgAt(index: Int): Term
  ' + {static} of(functor: String, **varargs** args: Term): Struct
  + addFirst(argument: Term): Struct
  + addLast(argument: Term): Struct
  + append(argument: Term): Struct
  + insertAt(index: Int, argument: Term): Struct
  + setFunctor(functor: String): Struct
  + setArgs(arguments: Iterable<Term>): Struct
}

Term <|- - Struct
@enduml

@startuml
left to right direction

interface Term 

interface Struct {
  + functor: String
  + arity: Int
  + isFunctorWellFormed: Boolean
  + indicator: Indicator
  + args: Array<Term>
  + argsList: List<Term>
  + argsSequence: Sequence<Term>
  + indicator: Indicator
  + get(index: Int): Term
  + getArgAt(index: Int): Term
  + addFirst(argument: Term): Struct
  + addLast(argument: Term): Struct
  + append(argument: Term): Struct
  + insertAt(index: Int, argument: Term): Struct
  + setFunctor(functor: String): Struct
  + setArgs(arguments: Iterable<Term>): Struct
}

Term <|- - Struct
@enduml

PlantUML version 1.2021.6beta6(Unknown compile time)
(GPL source distribution)
Java Runtime: Java(TM) SE Runtime Environment
JVM: Java HotSpot(TM) 64-Bit Server VM
Default Encoding: UTF-8
Language: en
Country: US
--></g></svg>