<?xml version="1.0" encoding="UTF-8" standalone="no"?>
<svg xmlns="http://www.w3.org/2000/svg" xmlns:xlink="http://www.w3.org/1999/xlink" contentScriptType="application/ecmascript" contentStyleType="text/css" height="187px" preserveAspectRatio="none" style="width:779px;height:187px;" version="1.1" viewBox="0 0 779 187" width="779px" zoomAndPan="magnify"><defs><filter height="300%" id="ftpzrqn6yl0pp" width="300%" x="-1" y="-1"><feGaussianBlur result="blurOut" stdDeviation="2.0"/><feColorMatrix in="blurOut" result="blurOut2" type="matrix" values="0 0 0 0 0 0 0 0 0 0 0 0 0 0 0 0 0 0 .4 0"/><feOffset dx="4.0" dy="4.0" in="blurOut2" result="blurOut3"/><feBlend in="SourceGraphic" in2="blurOut3" mode="normal"/></filter></defs><g><!--MD5=[1a1e58d762ea6312a1e2ff2660883857]
class Substitution--><rect codeLine="3" fill="#FEFECE" filter="url(#ftpzrqn6yl0pp)" height="137.6328" id="Substitution" style="stroke:#A80036;stroke-width:1.5;" width="266" x="139" y="22.5"/><ellipse cx="230.75" cy="38.5" fill="#B4A7E5" rx="11" ry="11" style="stroke:#A80036;stroke-width:1.0;"/><path d="M231.7031,35.2813 L233.4219,35.2813 C233.8125,35.2813 234,35.25 234.125,35.1719 C234.3906,35.0156 234.5313,34.7344 234.5313,34.4375 C234.5313,34.1719 234.4219,33.9063 234.1875,33.7344 C234.0156,33.625 233.875,33.5938 233.4219,33.5938 L228.2813,33.5938 C227.8438,33.5938 227.7188,33.6094 227.5625,33.7031 C227.3125,33.8594 227.1563,34.1563 227.1563,34.4375 C227.1563,34.7188 227.2969,34.9688 227.5156,35.1406 C227.6719,35.25 227.8594,35.2813 228.2813,35.2813 L230,35.2813 L230,41.7969 L228.2813,41.7969 C227.8438,41.7969 227.7188,41.8125 227.5625,41.9219 C227.3125,42.0781 227.1563,42.3594 227.1563,42.6563 C227.1563,42.9063 227.2969,43.1719 227.5156,43.3281 C227.6719,43.4531 227.875,43.5 228.2813,43.5 L233.4219,43.5 C234.1719,43.5 234.5313,43.2188 234.5313,42.6563 C234.5313,42.375 234.4219,42.125 234.1875,41.9531 C234.0156,41.8281 233.875,41.7969 233.4219,41.7969 L231.7031,41.7969 L231.7031,35.2813 Z " fill="#000000"/><text fill="#000000" font-family="sans-serif" font-size="12" font-style="italic" lengthAdjust="spacing" textLength="74" x="251.25" y="42.6543">Substitution</text><line style="stroke:#A80036;stroke-width:1.5;" x1="140" x2="404" y1="54.5" y2="54.5"/><ellipse cx="150" cy="65.5" rx="3" ry="3" style="stroke:#038048;stroke-width:1.0;fill:none;"/><text fill="#000000" font-family="sans-serif" font-size="11" lengthAdjust="spacing" textLength="110" x="159" y="68.7104">isSuccess: Boolean</text><ellipse cx="150" cy="78.3047" rx="3" ry="3" style="stroke:#038048;stroke-width:1.0;fill:none;"/><text fill="#000000" font-family="sans-serif" font-size="11" lengthAdjust="spacing" textLength="97" x="159" y="81.5151">isFailed: Boolean</text><line style="stroke:#A80036;stroke-width:1.5;" x1="140" x2="404" y1="88.1094" y2="88.1094"/><ellipse cx="150" cy="99.1094" fill="#84BE84" rx="3" ry="3" style="stroke:#038048;stroke-width:1.0;"/><text fill="#000000" font-family="sans-serif" font-size="11" lengthAdjust="spacing" textLength="121" x="159" y="102.3198">getOriginal(Var): Var?</text><ellipse cx="150" cy="111.9141" fill="#84BE84" rx="3" ry="3" style="stroke:#038048;stroke-width:1.0;"/><text fill="#000000" font-family="sans-serif" font-size="11" lengthAdjust="spacing" textLength="152" x="159" y="115.1245">getByName(String): Term?</text><ellipse cx="150" cy="124.7188" fill="#84BE84" rx="3" ry="3" style="stroke:#038048;stroke-width:1.0;"/><text fill="#000000" font-family="sans-serif" font-size="11" lengthAdjust="spacing" textLength="172" x="159" y="127.9292">plus(Substitution): Substitution</text><ellipse cx="150" cy="137.5234" fill="#84BE84" rx="3" ry="3" style="stroke:#038048;stroke-width:1.0;"/><text fill="#000000" font-family="sans-serif" font-size="11" lengthAdjust="spacing" textLength="197" x="159" y="140.7339">minus(Iterable&lt;Var&gt;): Substitution</text><ellipse cx="150" cy="150.3281" fill="#84BE84" rx="3" ry="3" style="stroke:#038048;stroke-width:1.0;"/><text fill="#000000" font-family="sans-serif" font-size="11" lengthAdjust="spacing" textLength="240" x="159" y="153.5386">filter((Var, Term) -&gt; Boolean): Substitution</text><!--MD5=[4dfc6a72b8dd60daa1b635d583ff79da]
class Map--><rect codeLine="13" fill="#FEFECE" filter="url(#ftpzrqn6yl0pp)" height="163.2422" id="Map" style="stroke:#A80036;stroke-width:1.5;" width="206" x="559" y="10"/><ellipse cx="631.25" cy="26" fill="#B4A7E5" rx="11" ry="11" style="stroke:#A80036;stroke-width:1.0;"/><path d="M632.2031,22.7813 L633.9219,22.7813 C634.3125,22.7813 634.5,22.75 634.625,22.6719 C634.8906,22.5156 635.0313,22.2344 635.0313,21.9375 C635.0313,21.6719 634.9219,21.4063 634.6875,21.2344 C634.5156,21.125 634.375,21.0938 633.9219,21.0938 L628.7813,21.0938 C628.3438,21.0938 628.2188,21.1094 628.0625,21.2031 C627.8125,21.3594 627.6563,21.6563 627.6563,21.9375 C627.6563,22.2188 627.7969,22.4688 628.0156,22.6406 C628.1719,22.75 628.3594,22.7813 628.7813,22.7813 L630.5,22.7813 L630.5,29.2969 L628.7813,29.2969 C628.3438,29.2969 628.2188,29.3125 628.0625,29.4219 C627.8125,29.5781 627.6563,29.8594 627.6563,30.1563 C627.6563,30.4063 627.7969,30.6719 628.0156,30.8281 C628.1719,30.9531 628.375,31 628.7813,31 L633.9219,31 C634.6719,31 635.0313,30.7188 635.0313,30.1563 C635.0313,29.875 634.9219,29.625 634.6875,29.4531 C634.5156,29.3281 634.375,29.2969 633.9219,29.2969 L632.2031,29.2969 L632.2031,22.7813 Z " fill="#000000"/><text fill="#000000" font-family="sans-serif" font-size="12" font-style="italic" lengthAdjust="spacing" textLength="25" x="651.75" y="30.1543">Map</text><rect fill="#FFFFFF" height="15.9688" style="stroke:#000000;stroke-width:1.0;stroke-dasharray:2.0,2.0;" width="26" x="742" y="7"/><text fill="#000000" font-family="sans-serif" font-size="12" font-style="italic" lengthAdjust="spacing" textLength="24" x="743" y="19.1387">K, V</text><line style="stroke:#A80036;stroke-width:1.5;" x1="560" x2="764" y1="42" y2="42"/><ellipse cx="570" cy="53" rx="3" ry="3" style="stroke:#038048;stroke-width:1.0;fill:none;"/><text fill="#000000" font-family="sans-serif" font-size="11" lengthAdjust="spacing" textLength="45" x="579" y="56.2104">size: Int</text><ellipse cx="570" cy="65.8047" rx="3" ry="3" style="stroke:#038048;stroke-width:1.0;fill:none;"/><text fill="#000000" font-family="sans-serif" font-size="11" lengthAdjust="spacing" textLength="79" x="579" y="69.0151">keys: Set&lt;K&gt;</text><ellipse cx="570" cy="78.6094" rx="3" ry="3" style="stroke:#038048;stroke-width:1.0;fill:none;"/><text fill="#000000" font-family="sans-serif" font-size="11" lengthAdjust="spacing" textLength="127" x="579" y="81.8198">values: Collection&lt;V&gt;</text><ellipse cx="570" cy="91.4141" rx="3" ry="3" style="stroke:#038048;stroke-width:1.0;fill:none;"/><text fill="#000000" font-family="sans-serif" font-size="11" lengthAdjust="spacing" textLength="180" x="579" y="94.6245">entries: Set&lt;Map.Entry&lt;K, V&gt;&gt;</text><line style="stroke:#A80036;stroke-width:1.5;" x1="560" x2="764" y1="101.2188" y2="101.2188"/><ellipse cx="570" cy="112.2188" fill="#84BE84" rx="3" ry="3" style="stroke:#038048;stroke-width:1.0;"/><text fill="#000000" font-family="sans-serif" font-size="11" lengthAdjust="spacing" textLength="107" x="579" y="115.4292">isEmpty(): Boolean</text><ellipse cx="570" cy="125.0234" fill="#84BE84" rx="3" ry="3" style="stroke:#038048;stroke-width:1.0;"/><text fill="#000000" font-family="sans-serif" font-size="11" lengthAdjust="spacing" textLength="138" x="579" y="128.2339">containsKey(K): Boolean</text><ellipse cx="570" cy="137.8281" fill="#84BE84" rx="3" ry="3" style="stroke:#038048;stroke-width:1.0;"/><text fill="#000000" font-family="sans-serif" font-size="11" lengthAdjust="spacing" textLength="150" x="579" y="141.0386">containsValue(V): Boolean</text><ellipse cx="570" cy="150.6328" fill="#84BE84" rx="3" ry="3" style="stroke:#038048;stroke-width:1.0;"/><text fill="#000000" font-family="sans-serif" font-size="11" lengthAdjust="spacing" textLength="55" x="579" y="153.8433">get(K): V?</text><ellipse cx="570" cy="163.4375" fill="#84BE84" rx="3" ry="3" style="stroke:#038048;stroke-width:1.0;"/><text fill="#000000" font-family="sans-serif" font-size="11" lengthAdjust="spacing" textLength="119" x="579" y="166.6479">getOrDefault(K, V): V</text><!--MD5=[de7deb3dae4c2a776ddc47dee374604b]
class Unifier--><rect codeLine="25" fill="#FEFECE" filter="url(#ftpzrqn6yl0pp)" height="48" id="Unifier" style="stroke:#A80036;stroke-width:1.5;" width="71" x="7" y="25.5"/><ellipse cx="22" cy="41.5" fill="#B4A7E5" rx="11" ry="11" style="stroke:#A80036;stroke-width:1.0;"/><path d="M22.9531,38.2813 L24.6719,38.2813 C25.0625,38.2813 25.25,38.25 25.375,38.1719 C25.6406,38.0156 25.7813,37.7344 25.7813,37.4375 C25.7813,37.1719 25.6719,36.9063 25.4375,36.7344 C25.2656,36.625 25.125,36.5938 24.6719,36.5938 L19.5313,36.5938 C19.0938,36.5938 18.9688,36.6094 18.8125,36.7031 C18.5625,36.8594 18.4063,37.1563 18.4063,37.4375 C18.4063,37.7188 18.5469,37.9688 18.7656,38.1406 C18.9219,38.25 19.1094,38.2813 19.5313,38.2813 L21.25,38.2813 L21.25,44.7969 L19.5313,44.7969 C19.0938,44.7969 18.9688,44.8125 18.8125,44.9219 C18.5625,45.0781 18.4063,45.3594 18.4063,45.6563 C18.4063,45.9063 18.5469,46.1719 18.7656,46.3281 C18.9219,46.4531 19.125,46.5 19.5313,46.5 L24.6719,46.5 C25.4219,46.5 25.7813,46.2188 25.7813,45.6563 C25.7813,45.375 25.6719,45.125 25.4375,44.9531 C25.2656,44.8281 25.125,44.7969 24.6719,44.7969 L22.9531,44.7969 L22.9531,38.2813 Z " fill="#000000"/><text fill="#000000" font-family="sans-serif" font-size="12" font-style="italic" lengthAdjust="spacing" textLength="39" x="36" y="45.6543">Unifier</text><line style="stroke:#A80036;stroke-width:1.5;" x1="8" x2="77" y1="57.5" y2="57.5"/><line style="stroke:#A80036;stroke-width:1.5;" x1="8" x2="77" y1="65.5" y2="65.5"/><!--MD5=[0f49711e09a4e276ecfadbbcb416eaaf]
class Fail--><rect codeLine="27" fill="#FEFECE" filter="url(#ftpzrqn6yl0pp)" height="48" id="Fail" style="stroke:#A80036;stroke-width:1.5;" width="52" x="16.5" y="108.5"/><ellipse cx="31.5" cy="124.5" fill="#B4A7E5" rx="11" ry="11" style="stroke:#A80036;stroke-width:1.0;"/><path d="M32.4531,121.2813 L34.1719,121.2813 C34.5625,121.2813 34.75,121.25 34.875,121.1719 C35.1406,121.0156 35.2813,120.7344 35.2813,120.4375 C35.2813,120.1719 35.1719,119.9063 34.9375,119.7344 C34.7656,119.625 34.625,119.5938 34.1719,119.5938 L29.0313,119.5938 C28.5938,119.5938 28.4688,119.6094 28.3125,119.7031 C28.0625,119.8594 27.9063,120.1563 27.9063,120.4375 C27.9063,120.7188 28.0469,120.9688 28.2656,121.1406 C28.4219,121.25 28.6094,121.2813 29.0313,121.2813 L30.75,121.2813 L30.75,127.7969 L29.0313,127.7969 C28.5938,127.7969 28.4688,127.8125 28.3125,127.9219 C28.0625,128.0781 27.9063,128.3594 27.9063,128.6563 C27.9063,128.9063 28.0469,129.1719 28.2656,129.3281 C28.4219,129.4531 28.625,129.5 29.0313,129.5 L34.1719,129.5 C34.9219,129.5 35.2813,129.2188 35.2813,128.6563 C35.2813,128.375 35.1719,128.125 34.9375,127.9531 C34.7656,127.8281 34.625,127.7969 34.1719,127.7969 L32.4531,127.7969 L32.4531,121.2813 Z " fill="#000000"/><text fill="#000000" font-family="sans-serif" font-size="12" font-style="italic" lengthAdjust="spacing" textLength="20" x="45.5" y="128.6543">Fail</text><line style="stroke:#A80036;stroke-width:1.5;" x1="17.5" x2="67.5" y1="140.5" y2="140.5"/><line style="stroke:#A80036;stroke-width:1.5;" x1="17.5" x2="67.5" y1="148.5" y2="148.5"/><!--MD5=[76d7b83c562093f8feca687a4f49a473]
link Substitution to Map--><path codeLine="29" d="M405.171,91.5 C448.394,91.5 496.189,91.5 538.655,91.5 " fill="none" id="Substitution-to-Map" style="stroke:#A80036;stroke-width:1.0;"/><polygon fill="none" points="538.71,84.4999,558.71,91.5,538.71,98.4999,538.71,84.4999" style="stroke:#A80036;stroke-width:1.0;"/><text fill="#000000" font-family="sans-serif" font-size="13" lengthAdjust="spacing" textLength="34" x="437" y="72.5669">binds</text><text fill="#000000" font-family="sans-serif" font-size="13" font-style="italic" lengthAdjust="spacing" textLength="9" x="475" y="72.5669">K</text><text fill="#000000" font-family="sans-serif" font-size="13" lengthAdjust="spacing" textLength="13" x="488" y="72.5669">to</text><text fill="#000000" font-family="sans-serif" font-size="13" font-style="italic" lengthAdjust="spacing" textLength="22" x="505" y="72.5669">Var</text><text fill="#000000" font-family="sans-serif" font-size="13" lengthAdjust="spacing" textLength="24" x="436" y="87.6997">and</text><text fill="#000000" font-family="sans-serif" font-size="13" font-style="italic" lengthAdjust="spacing" textLength="9" x="464" y="87.6997">V</text><text fill="#000000" font-family="sans-serif" font-size="13" lengthAdjust="spacing" textLength="13" x="477" y="87.6997">to</text><text fill="#000000" font-family="sans-serif" font-size="13" font-style="italic" lengthAdjust="spacing" textLength="34" x="494" y="87.6997">Term</text><!--MD5=[3f050c5010282d46c8509eefab8828c2]
link Unifier to Substitution--><path codeLine="31" d="M78.0524,55.879 C89.7857,58.045 103.751,60.623 118.726,63.388 " fill="none" id="Unifier-to-Substitution" style="stroke:#A80036;stroke-width:1.0;"/><polygon fill="none" points="120.119,56.527,138.516,67.041,117.577,70.294,120.119,56.527" style="stroke:#A80036;stroke-width:1.0;"/><!--MD5=[cb92f8aa936fe7ec9fd9e885149f5eb9]
link Fail to Substitution--><path codeLine="33" d="M68.7157,127.9556 C82.0777,125.5475 99.7052,122.3707 118.994,118.8945 " fill="none" id="Fail-to-Substitution" style="stroke:#A80036;stroke-width:1.0;"/><polygon fill="none" points="117.815,111.9943,138.739,115.336,120.298,125.7723,117.815,111.9943" style="stroke:#A80036;stroke-width:1.0;"/><!--MD5=[f80e0cfe5a576543afaa858550f14f8d]
@startuml
left to right direction

interface Substitution {
    + isSuccess: Boolean
    + isFailed: Boolean
    + getOriginal(Var): Var?
    + getByName(String): Term?
    + plus(Substitution): Substitution
    + minus(Iterable<Var>): Substitution
    + filter((Var, Term) -> Boolean): Substitution
}

interface Map<K, V> {
    + size: Int
    + keys: Set<K>
    + values: Collection<V>
    + entries: Set<Map.Entry<K, V>>
    + isEmpty(): Boolean
    + containsKey(K): Boolean
    + containsValue(V): Boolean
    + get(K): V?
    + getOrDefault(K, V): V
}

interface Unifier

interface Fail

Substitution - -|> Map: binds //K// to //Var//\nand //V// to //Term//

Unifier - -|> Substitution

Fail - -|> Substitution
@enduml

PlantUML version 1.2021.5(Sun Apr 25 11:20:28 UTC 2021)
(GPL source distribution)
Java Runtime: Java(TM) SE Runtime Environment
JVM: Java HotSpot(TM) 64-Bit Server VM
Default Encoding: UTF-8
Language: en
Country: US
--></g></svg>