<?xml version="1.0" encoding="UTF-8" standalone="no"?>
<svg xmlns="http://www.w3.org/2000/svg" xmlns:xlink="http://www.w3.org/1999/xlink" contentScriptType="application/ecmascript" contentStyleType="text/css" height="515px" preserveAspectRatio="none" style="width:972px;height:515px;" version="1.1" viewBox="0 0 972 515" width="972px" zoomAndPan="magnify"><defs/><g><!--MD5=[d6443aa840973661d856ebb400245d1f]
cluster clauses--><rect fill="#FFFFFF" height="315" style="stroke: #000000; stroke-width: 1.5;" width="213" x="748.5" y="189"/><text fill="#000000" font-family="sans-serif" font-size="14" font-weight="bold" lengthAdjust="spacingAndGlyphs" textLength="60" x="825" y="203.9951">clauses</text><!--MD5=[3d9a9201f4e3c24a3b32edb25b35db95]
class Clause--><rect fill="#FEFECE" height="48" id="Clause" style="stroke: #A80036; stroke-width: 1.5;" width="74" x="765.5" y="224"/><ellipse cx="780.5" cy="240" fill="#B4A7E5" rx="11" ry="11" style="stroke: #A80036; stroke-width: 1.0;"/><path d="M776.4219,235.7656 L776.4219,233.6094 L783.8125,233.6094 L783.8125,235.7656 L781.3438,235.7656 L781.3438,243.8438 L783.8125,243.8438 L783.8125,246 L776.4219,246 L776.4219,243.8438 L778.8906,243.8438 L778.8906,235.7656 L776.4219,235.7656 Z "/><text fill="#000000" font-family="sans-serif" font-size="12" font-style="italic" lengthAdjust="spacingAndGlyphs" textLength="42" x="794.5" y="244.1543">Clause</text><line style="stroke: #A80036; stroke-width: 1.5;" x1="766.5" x2="838.5" y1="256" y2="256"/><line style="stroke: #A80036; stroke-width: 1.5;" x1="766.5" x2="838.5" y1="264" y2="264"/><!--MD5=[4cf87534c235239d37db4adfd136fff4]
class Rule--><rect fill="#FEFECE" height="48" id="Rule" style="stroke: #A80036; stroke-width: 1.5;" width="59" x="765" y="332"/><ellipse cx="780" cy="348" fill="#B4A7E5" rx="11" ry="11" style="stroke: #A80036; stroke-width: 1.0;"/><path d="M775.9219,343.7656 L775.9219,341.6094 L783.3125,341.6094 L783.3125,343.7656 L780.8438,343.7656 L780.8438,351.8438 L783.3125,351.8438 L783.3125,354 L775.9219,354 L775.9219,351.8438 L778.3906,351.8438 L778.3906,343.7656 L775.9219,343.7656 Z "/><text fill="#000000" font-family="sans-serif" font-size="12" font-style="italic" lengthAdjust="spacingAndGlyphs" textLength="27" x="794" y="352.1543">Rule</text><line style="stroke: #A80036; stroke-width: 1.5;" x1="766" x2="823" y1="364" y2="364"/><line style="stroke: #A80036; stroke-width: 1.5;" x1="766" x2="823" y1="372" y2="372"/><!--MD5=[326c2f491a5c94a5eb0f952bc2efd709]
class Directive--><rect fill="#FEFECE" height="48" id="Directive" style="stroke: #A80036; stroke-width: 1.5;" width="86" x="859.5" y="332"/><ellipse cx="874.5" cy="348" fill="#B4A7E5" rx="11" ry="11" style="stroke: #A80036; stroke-width: 1.0;"/><path d="M870.4219,343.7656 L870.4219,341.6094 L877.8125,341.6094 L877.8125,343.7656 L875.3438,343.7656 L875.3438,351.8438 L877.8125,351.8438 L877.8125,354 L870.4219,354 L870.4219,351.8438 L872.8906,351.8438 L872.8906,343.7656 L870.4219,343.7656 Z "/><text fill="#000000" font-family="sans-serif" font-size="12" font-style="italic" lengthAdjust="spacingAndGlyphs" textLength="54" x="888.5" y="352.1543">Directive</text><line style="stroke: #A80036; stroke-width: 1.5;" x1="860.5" x2="944.5" y1="364" y2="364"/><line style="stroke: #A80036; stroke-width: 1.5;" x1="860.5" x2="944.5" y1="372" y2="372"/><!--MD5=[8b7b02036613c263e1d0ae582a50c9f5]
class Fact--><rect fill="#FEFECE" height="48" id="Fact" style="stroke: #A80036; stroke-width: 1.5;" width="59" x="765" y="440"/><ellipse cx="780" cy="456" fill="#B4A7E5" rx="11" ry="11" style="stroke: #A80036; stroke-width: 1.0;"/><path d="M775.9219,451.7656 L775.9219,449.6094 L783.3125,449.6094 L783.3125,451.7656 L780.8438,451.7656 L780.8438,459.8438 L783.3125,459.8438 L783.3125,462 L775.9219,462 L775.9219,459.8438 L778.3906,459.8438 L778.3906,451.7656 L775.9219,451.7656 Z "/><text fill="#000000" font-family="sans-serif" font-size="12" font-style="italic" lengthAdjust="spacingAndGlyphs" textLength="27" x="794" y="460.1543">Fact</text><line style="stroke: #A80036; stroke-width: 1.5;" x1="766" x2="823" y1="472" y2="472"/><line style="stroke: #A80036; stroke-width: 1.5;" x1="766" x2="823" y1="480" y2="480"/><!--MD5=[9d35236b92952560f647498cf8a29acb]
class Term--><rect fill="#FEFECE" height="48" id="Term" style="stroke: #A80036; stroke-width: 1.5;" width="63" x="361" y="8"/><ellipse cx="376" cy="24" fill="#B4A7E5" rx="11" ry="11" style="stroke: #A80036; stroke-width: 1.0;"/><path d="M371.9219,19.7656 L371.9219,17.6094 L379.3125,17.6094 L379.3125,19.7656 L376.8438,19.7656 L376.8438,27.8438 L379.3125,27.8438 L379.3125,30 L371.9219,30 L371.9219,27.8438 L374.3906,27.8438 L374.3906,19.7656 L371.9219,19.7656 Z "/><text fill="#000000" font-family="sans-serif" font-size="12" font-style="italic" lengthAdjust="spacingAndGlyphs" textLength="31" x="390" y="28.1543">Term</text><line style="stroke: #A80036; stroke-width: 1.5;" x1="362" x2="423" y1="40" y2="40"/><line style="stroke: #A80036; stroke-width: 1.5;" x1="362" x2="423" y1="48" y2="48"/><!--MD5=[54b85b6d1a687c59d530998eb343c279]
class Constant--><rect fill="#FEFECE" height="48" id="Constant" style="stroke: #A80036; stroke-width: 1.5;" width="89" x="242" y="116"/><ellipse cx="257" cy="132" fill="#B4A7E5" rx="11" ry="11" style="stroke: #A80036; stroke-width: 1.0;"/><path d="M252.9219,127.7656 L252.9219,125.6094 L260.3125,125.6094 L260.3125,127.7656 L257.8438,127.7656 L257.8438,135.8438 L260.3125,135.8438 L260.3125,138 L252.9219,138 L252.9219,135.8438 L255.3906,135.8438 L255.3906,127.7656 L252.9219,127.7656 Z "/><text fill="#000000" font-family="sans-serif" font-size="12" font-style="italic" lengthAdjust="spacingAndGlyphs" textLength="57" x="271" y="136.1543">Constant</text><line style="stroke: #A80036; stroke-width: 1.5;" x1="243" x2="330" y1="148" y2="148"/><line style="stroke: #A80036; stroke-width: 1.5;" x1="243" x2="330" y1="156" y2="156"/><!--MD5=[731225e2007e13f9ac67fff186258580]
class Var--><rect fill="#FEFECE" height="48" id="Var" style="stroke: #A80036; stroke-width: 1.5;" width="53" x="366" y="116"/><ellipse cx="381" cy="132" fill="#B4A7E5" rx="11" ry="11" style="stroke: #A80036; stroke-width: 1.0;"/><path d="M376.9219,127.7656 L376.9219,125.6094 L384.3125,125.6094 L384.3125,127.7656 L381.8438,127.7656 L381.8438,135.8438 L384.3125,135.8438 L384.3125,138 L376.9219,138 L376.9219,135.8438 L379.3906,135.8438 L379.3906,127.7656 L376.9219,127.7656 Z "/><text fill="#000000" font-family="sans-serif" font-size="12" font-style="italic" lengthAdjust="spacingAndGlyphs" textLength="21" x="395" y="136.1543">Var</text><line style="stroke: #A80036; stroke-width: 1.5;" x1="367" x2="418" y1="148" y2="148"/><line style="stroke: #A80036; stroke-width: 1.5;" x1="367" x2="418" y1="156" y2="156"/><!--MD5=[eb0f4986160aea42d9ece72995cb24c7]
class Struct--><rect fill="#FEFECE" height="48" id="Struct" style="stroke: #A80036; stroke-width: 1.5;" width="70" x="454.5" y="116"/><ellipse cx="469.5" cy="132" fill="#B4A7E5" rx="11" ry="11" style="stroke: #A80036; stroke-width: 1.0;"/><path d="M465.4219,127.7656 L465.4219,125.6094 L472.8125,125.6094 L472.8125,127.7656 L470.3438,127.7656 L470.3438,135.8438 L472.8125,135.8438 L472.8125,138 L465.4219,138 L465.4219,135.8438 L467.8906,135.8438 L467.8906,127.7656 L465.4219,127.7656 Z "/><text fill="#000000" font-family="sans-serif" font-size="12" font-style="italic" lengthAdjust="spacingAndGlyphs" textLength="38" x="483.5" y="136.1543">Struct</text><line style="stroke: #A80036; stroke-width: 1.5;" x1="455.5" x2="523.5" y1="148" y2="148"/><line style="stroke: #A80036; stroke-width: 1.5;" x1="455.5" x2="523.5" y1="156" y2="156"/><!--MD5=[f1926c784da000dbf2f9e262c4c094a8]
class Numeric--><rect fill="#FEFECE" height="48" id="Numeric" style="stroke: #A80036; stroke-width: 1.5;" width="83" x="106" y="224"/><ellipse cx="121" cy="240" fill="#B4A7E5" rx="11" ry="11" style="stroke: #A80036; stroke-width: 1.0;"/><path d="M116.9219,235.7656 L116.9219,233.6094 L124.3125,233.6094 L124.3125,235.7656 L121.8438,235.7656 L121.8438,243.8438 L124.3125,243.8438 L124.3125,246 L116.9219,246 L116.9219,243.8438 L119.3906,243.8438 L119.3906,235.7656 L116.9219,235.7656 Z "/><text fill="#000000" font-family="sans-serif" font-size="12" font-style="italic" lengthAdjust="spacingAndGlyphs" textLength="51" x="135" y="244.1543">Numeric</text><line style="stroke: #A80036; stroke-width: 1.5;" x1="107" x2="188" y1="256" y2="256"/><line style="stroke: #A80036; stroke-width: 1.5;" x1="107" x2="188" y1="264" y2="264"/><!--MD5=[ee42c820cde073a9007f0905fabb17c1]
class Integer--><rect fill="#FEFECE" height="48" id="Integer" style="stroke: #A80036; stroke-width: 1.5;" width="77" x="6" y="332"/><ellipse cx="21" cy="348" fill="#B4A7E5" rx="11" ry="11" style="stroke: #A80036; stroke-width: 1.0;"/><path d="M16.9219,343.7656 L16.9219,341.6094 L24.3125,341.6094 L24.3125,343.7656 L21.8438,343.7656 L21.8438,351.8438 L24.3125,351.8438 L24.3125,354 L16.9219,354 L16.9219,351.8438 L19.3906,351.8438 L19.3906,343.7656 L16.9219,343.7656 Z "/><text fill="#000000" font-family="sans-serif" font-size="12" font-style="italic" lengthAdjust="spacingAndGlyphs" textLength="45" x="35" y="352.1543">Integer</text><line style="stroke: #A80036; stroke-width: 1.5;" x1="7" x2="82" y1="364" y2="364"/><line style="stroke: #A80036; stroke-width: 1.5;" x1="7" x2="82" y1="372" y2="372"/><!--MD5=[5fd72fda0f3f342d877047943977dc6a]
class Real--><rect fill="#FEFECE" height="48" id="Real" style="stroke: #A80036; stroke-width: 1.5;" width="59" x="118" y="332"/><ellipse cx="133" cy="348" fill="#B4A7E5" rx="11" ry="11" style="stroke: #A80036; stroke-width: 1.0;"/><path d="M128.9219,343.7656 L128.9219,341.6094 L136.3125,341.6094 L136.3125,343.7656 L133.8438,343.7656 L133.8438,351.8438 L136.3125,351.8438 L136.3125,354 L128.9219,354 L128.9219,351.8438 L131.3906,351.8438 L131.3906,343.7656 L128.9219,343.7656 Z "/><text fill="#000000" font-family="sans-serif" font-size="12" font-style="italic" lengthAdjust="spacingAndGlyphs" textLength="27" x="147" y="352.1543">Real</text><line style="stroke: #A80036; stroke-width: 1.5;" x1="119" x2="176" y1="364" y2="364"/><line style="stroke: #A80036; stroke-width: 1.5;" x1="119" x2="176" y1="372" y2="372"/><!--MD5=[f18b0f967872e82ff276115ca1b4c569]
class Atom--><rect fill="#FEFECE" height="48" id="Atom" style="stroke: #A80036; stroke-width: 1.5;" width="64" x="258.5" y="224"/><ellipse cx="273.5" cy="240" fill="#B4A7E5" rx="11" ry="11" style="stroke: #A80036; stroke-width: 1.0;"/><path d="M269.4219,235.7656 L269.4219,233.6094 L276.8125,233.6094 L276.8125,235.7656 L274.3438,235.7656 L274.3438,243.8438 L276.8125,243.8438 L276.8125,246 L269.4219,246 L269.4219,243.8438 L271.8906,243.8438 L271.8906,235.7656 L269.4219,235.7656 Z "/><text fill="#000000" font-family="sans-serif" font-size="12" font-style="italic" lengthAdjust="spacingAndGlyphs" textLength="32" x="287.5" y="244.1543">Atom</text><line style="stroke: #A80036; stroke-width: 1.5;" x1="259.5" x2="321.5" y1="256" y2="256"/><line style="stroke: #A80036; stroke-width: 1.5;" x1="259.5" x2="321.5" y1="264" y2="264"/><!--MD5=[de147283bee8035b23b97cb1a9ddf59d]
class Truth--><rect fill="#FEFECE" height="48" id="Truth" style="stroke: #A80036; stroke-width: 1.5;" width="65" x="284" y="332"/><ellipse cx="299" cy="348" fill="#B4A7E5" rx="11" ry="11" style="stroke: #A80036; stroke-width: 1.0;"/><path d="M294.9219,343.7656 L294.9219,341.6094 L302.3125,341.6094 L302.3125,343.7656 L299.8438,343.7656 L299.8438,351.8438 L302.3125,351.8438 L302.3125,354 L294.9219,354 L294.9219,351.8438 L297.3906,351.8438 L297.3906,343.7656 L294.9219,343.7656 Z "/><text fill="#000000" font-family="sans-serif" font-size="12" font-style="italic" lengthAdjust="spacingAndGlyphs" textLength="33" x="313" y="352.1543">Truth</text><line style="stroke: #A80036; stroke-width: 1.5;" x1="285" x2="348" y1="364" y2="364"/><line style="stroke: #A80036; stroke-width: 1.5;" x1="285" x2="348" y1="372" y2="372"/><!--MD5=[ff04013806d21ddc19c98782fe2ddc6c]
class Indicator--><rect fill="#FEFECE" height="48" id="Indicator" style="stroke: #A80036; stroke-width: 1.5;" width="87" x="643" y="224"/><ellipse cx="658" cy="240" fill="#B4A7E5" rx="11" ry="11" style="stroke: #A80036; stroke-width: 1.0;"/><path d="M653.9219,235.7656 L653.9219,233.6094 L661.3125,233.6094 L661.3125,235.7656 L658.8438,235.7656 L658.8438,243.8438 L661.3125,243.8438 L661.3125,246 L653.9219,246 L653.9219,243.8438 L656.3906,243.8438 L656.3906,235.7656 L653.9219,235.7656 Z "/><text fill="#000000" font-family="sans-serif" font-size="12" font-style="italic" lengthAdjust="spacingAndGlyphs" textLength="55" x="672" y="244.1543">Indicator</text><line style="stroke: #A80036; stroke-width: 1.5;" x1="644" x2="729" y1="256" y2="256"/><line style="stroke: #A80036; stroke-width: 1.5;" x1="644" x2="729" y1="264" y2="264"/><!--MD5=[302c72c1573bd1a597976f8c721380e9]
class Empty--><rect fill="#FEFECE" height="48" id="Empty" style="stroke: #A80036; stroke-width: 1.5;" width="70" x="394.5" y="440"/><ellipse cx="409.5" cy="456" fill="#B4A7E5" rx="11" ry="11" style="stroke: #A80036; stroke-width: 1.0;"/><path d="M405.4219,451.7656 L405.4219,449.6094 L412.8125,449.6094 L412.8125,451.7656 L410.3438,451.7656 L410.3438,459.8438 L412.8125,459.8438 L412.8125,462 L405.4219,462 L405.4219,459.8438 L407.8906,459.8438 L407.8906,451.7656 L405.4219,451.7656 Z "/><text fill="#000000" font-family="sans-serif" font-size="12" font-style="italic" lengthAdjust="spacingAndGlyphs" textLength="38" x="423.5" y="460.1543">Empty</text><line style="stroke: #A80036; stroke-width: 1.5;" x1="395.5" x2="463.5" y1="472" y2="472"/><line style="stroke: #A80036; stroke-width: 1.5;" x1="395.5" x2="463.5" y1="480" y2="480"/><!--MD5=[658c0fc6cfb7a0fb084a912b803c5445]
class EmptySet--><rect fill="#FEFECE" height="48" id="EmptySet" style="stroke: #A80036; stroke-width: 1.5;" width="91" x="384" y="332"/><ellipse cx="399" cy="348" fill="#B4A7E5" rx="11" ry="11" style="stroke: #A80036; stroke-width: 1.0;"/><path d="M394.9219,343.7656 L394.9219,341.6094 L402.3125,341.6094 L402.3125,343.7656 L399.8438,343.7656 L399.8438,351.8438 L402.3125,351.8438 L402.3125,354 L394.9219,354 L394.9219,351.8438 L397.3906,351.8438 L397.3906,343.7656 L394.9219,343.7656 Z "/><text fill="#000000" font-family="sans-serif" font-size="12" font-style="italic" lengthAdjust="spacingAndGlyphs" textLength="59" x="413" y="352.1543">EmptySet</text><line style="stroke: #A80036; stroke-width: 1.5;" x1="385" x2="474" y1="364" y2="364"/><line style="stroke: #A80036; stroke-width: 1.5;" x1="385" x2="474" y1="372" y2="372"/><!--MD5=[e7969329aebad34cb4c65e60c1606de9]
class EmptyList--><rect fill="#FEFECE" height="48" id="EmptyList" style="stroke: #A80036; stroke-width: 1.5;" width="91" x="510" y="332"/><ellipse cx="525" cy="348" fill="#B4A7E5" rx="11" ry="11" style="stroke: #A80036; stroke-width: 1.0;"/><path d="M520.9219,343.7656 L520.9219,341.6094 L528.3125,341.6094 L528.3125,343.7656 L525.8438,343.7656 L525.8438,351.8438 L528.3125,351.8438 L528.3125,354 L520.9219,354 L520.9219,351.8438 L523.3906,351.8438 L523.3906,343.7656 L520.9219,343.7656 Z "/><text fill="#000000" font-family="sans-serif" font-size="12" font-style="italic" lengthAdjust="spacingAndGlyphs" textLength="59" x="539" y="352.1543">EmptyList</text><line style="stroke: #A80036; stroke-width: 1.5;" x1="511" x2="600" y1="364" y2="364"/><line style="stroke: #A80036; stroke-width: 1.5;" x1="511" x2="600" y1="372" y2="372"/><!--MD5=[3d4177ac58b4411586d067f34e84928f]
class List--><rect fill="#FEFECE" height="48" id="List" style="stroke: #A80036; stroke-width: 1.5;" width="53" x="555" y="224"/><ellipse cx="570" cy="240" fill="#B4A7E5" rx="11" ry="11" style="stroke: #A80036; stroke-width: 1.0;"/><path d="M565.9219,235.7656 L565.9219,233.6094 L573.3125,233.6094 L573.3125,235.7656 L570.8438,235.7656 L570.8438,243.8438 L573.3125,243.8438 L573.3125,246 L565.9219,246 L565.9219,243.8438 L568.3906,243.8438 L568.3906,235.7656 L565.9219,235.7656 Z "/><text fill="#000000" font-family="sans-serif" font-size="12" font-style="italic" lengthAdjust="spacingAndGlyphs" textLength="21" x="584" y="244.1543">List</text><line style="stroke: #A80036; stroke-width: 1.5;" x1="556" x2="607" y1="256" y2="256"/><line style="stroke: #A80036; stroke-width: 1.5;" x1="556" x2="607" y1="264" y2="264"/><!--MD5=[e9bf4637ac83eb6af140c7019666e1f6]
class Cons--><rect fill="#FEFECE" height="48" id="Cons" style="stroke: #A80036; stroke-width: 1.5;" width="63" x="636" y="332"/><ellipse cx="651" cy="348" fill="#B4A7E5" rx="11" ry="11" style="stroke: #A80036; stroke-width: 1.0;"/><path d="M646.9219,343.7656 L646.9219,341.6094 L654.3125,341.6094 L654.3125,343.7656 L651.8438,343.7656 L651.8438,351.8438 L654.3125,351.8438 L654.3125,354 L646.9219,354 L646.9219,351.8438 L649.3906,351.8438 L649.3906,343.7656 L646.9219,343.7656 Z "/><text fill="#000000" font-family="sans-serif" font-size="12" font-style="italic" lengthAdjust="spacingAndGlyphs" textLength="31" x="665" y="352.1543">Cons</text><line style="stroke: #A80036; stroke-width: 1.5;" x1="637" x2="698" y1="364" y2="364"/><line style="stroke: #A80036; stroke-width: 1.5;" x1="637" x2="698" y1="372" y2="372"/><!--MD5=[73145e46247802284b2f7aaef1fa1797]
class Set--><rect fill="#FEFECE" height="48" id="Set" style="stroke: #A80036; stroke-width: 1.5;" width="53" x="365" y="224"/><ellipse cx="380" cy="240" fill="#B4A7E5" rx="11" ry="11" style="stroke: #A80036; stroke-width: 1.0;"/><path d="M375.9219,235.7656 L375.9219,233.6094 L383.3125,233.6094 L383.3125,235.7656 L380.8438,235.7656 L380.8438,243.8438 L383.3125,243.8438 L383.3125,246 L375.9219,246 L375.9219,243.8438 L378.3906,243.8438 L378.3906,235.7656 L375.9219,235.7656 Z "/><text fill="#000000" font-family="sans-serif" font-size="12" font-style="italic" lengthAdjust="spacingAndGlyphs" textLength="21" x="394" y="244.1543">Set</text><line style="stroke: #A80036; stroke-width: 1.5;" x1="366" x2="417" y1="256" y2="256"/><line style="stroke: #A80036; stroke-width: 1.5;" x1="366" x2="417" y1="264" y2="264"/><!--MD5=[064889823136230ed73fb5238d2f9216]
class Tuple--><rect fill="#FEFECE" height="48" id="Tuple" style="stroke: #A80036; stroke-width: 1.5;" width="66" x="453.5" y="224"/><ellipse cx="468.5" cy="240" fill="#B4A7E5" rx="11" ry="11" style="stroke: #A80036; stroke-width: 1.0;"/><path d="M464.4219,235.7656 L464.4219,233.6094 L471.8125,233.6094 L471.8125,235.7656 L469.3438,235.7656 L469.3438,243.8438 L471.8125,243.8438 L471.8125,246 L464.4219,246 L464.4219,243.8438 L466.8906,243.8438 L466.8906,235.7656 L464.4219,235.7656 Z "/><text fill="#000000" font-family="sans-serif" font-size="12" font-style="italic" lengthAdjust="spacingAndGlyphs" textLength="34" x="482.5" y="244.1543">Tuple</text><line style="stroke: #A80036; stroke-width: 1.5;" x1="454.5" x2="518.5" y1="256" y2="256"/><line style="stroke: #A80036; stroke-width: 1.5;" x1="454.5" x2="518.5" y1="264" y2="264"/><!--MD5=[f626f12429d76bc694cd64f7f069082d]
reverse link Term to Struct--><path d="M427.48,71.23 C441.09,86.1 456.24,102.65 468.16,115.68 " fill="none" id="Term&lt;-Struct" style="stroke: #A80036; stroke-width: 1.0;"/><polygon fill="none" points="421.89,75.48,413.55,56,432.21,66.03,421.89,75.48" style="stroke: #A80036; stroke-width: 1.0;"/><!--MD5=[22dcc2a6458fba43153ab5c044b6d0f2]
reverse link Term to Constant--><path d="M355.22,70.28 C340.11,85.39 323.12,102.38 309.82,115.68 " fill="none" id="Term&lt;-Constant" style="stroke: #A80036; stroke-width: 1.0;"/><polygon fill="none" points="350.41,65.19,369.5,56,360.31,75.09,350.41,65.19" style="stroke: #A80036; stroke-width: 1.0;"/><!--MD5=[6348e5cd8d5bc8163d36f1359c5d0625]
reverse link Term to Var--><path d="M392.5,76.02 C392.5,89.58 392.5,104.04 392.5,115.68 " fill="none" id="Term&lt;-Var" style="stroke: #A80036; stroke-width: 1.0;"/><polygon fill="none" points="385.5,76,392.5,56,399.5,76,385.5,76" style="stroke: #A80036; stroke-width: 1.0;"/><!--MD5=[70225964948051ed3e9096d211e8a754]
reverse link Constant to Numeric--><path d="M240.38,176.17 C219.9,191.79 196.34,209.75 178.08,223.68 " fill="none" id="Constant&lt;-Numeric" style="stroke: #A80036; stroke-width: 1.0;"/><polygon fill="none" points="236.19,170.56,256.34,164,244.68,181.69,236.19,170.56" style="stroke: #A80036; stroke-width: 1.0;"/><!--MD5=[904172204236467fd977e5a86c11fa2e]
reverse link Constant to Atom--><path d="M288.12,184.02 C288.64,197.58 289.18,212.04 289.62,223.68 " fill="none" id="Constant&lt;-Atom" style="stroke: #A80036; stroke-width: 1.0;"/><polygon fill="none" points="281.13,184.25,287.37,164,295.12,183.72,281.13,184.25" style="stroke: #A80036; stroke-width: 1.0;"/><!--MD5=[17d2d3c8e42a151c98c74cb7a0afd032]
reverse link Numeric to Real--><path d="M147.5,292.02 C147.5,305.58 147.5,320.04 147.5,331.68 " fill="none" id="Numeric&lt;-Real" style="stroke: #A80036; stroke-width: 1.0;"/><polygon fill="none" points="140.5,292,147.5,272,154.5,292,140.5,292" style="stroke: #A80036; stroke-width: 1.0;"/><!--MD5=[2b9b92e887eeff1b264561e6aba3c4bf]
reverse link Numeric to Integer--><path d="M110.82,286.75 C96.25,301.74 79.95,318.51 67.16,331.68 " fill="none" id="Numeric&lt;-Integer" style="stroke: #A80036; stroke-width: 1.0;"/><polygon fill="none" points="106.19,281.47,125.15,272,116.23,291.22,106.19,281.47" style="stroke: #A80036; stroke-width: 1.0;"/><!--MD5=[71ce62bb6f3323542defcc754b11eb47]
reverse link Struct to Atom--><path d="M434.96,163 C393.81,172.66 378.02,163.38 347.5,181 C329.67,191.3 314.7,209.28 304.58,223.88 " fill="none" id="Struct&lt;-Atom" style="stroke: #A80036; stroke-width: 1.0;"/><polygon fill="none" points="433.12,156.25,454.27,157.57,436.92,169.72,433.12,156.25" style="stroke: #A80036; stroke-width: 1.0;"/><!--MD5=[1663d601d350eda7521afef5996e8c3e]
reverse link Struct to List--><path d="M534.03,178.32 C534.87,179.21 535.69,180.1 536.5,181 C548.36,194.2 559.61,210.7 567.9,223.9 " fill="none" id="Struct&lt;-List" style="stroke: #A80036; stroke-width: 1.0;"/><polygon fill="none" points="529.08,183.27,519.45,164.39,538.75,173.14,529.08,183.27" style="stroke: #A80036; stroke-width: 1.0;"/><!--MD5=[7121e3ba3beb08d71469fa7d80898bfa]
reverse link Struct to Tuple--><path d="M488.28,184.02 C487.9,197.58 487.49,212.04 487.16,223.68 " fill="none" id="Struct&lt;-Tuple" style="stroke: #A80036; stroke-width: 1.0;"/><polygon fill="none" points="481.29,183.79,488.85,164,495.28,184.19,481.29,183.79" style="stroke: #A80036; stroke-width: 1.0;"/><!--MD5=[10dfd7325163cb72023c6fe30f7d9519]
reverse link Struct to Set--><path d="M439.38,177.1 C438.05,178.39 436.75,179.69 435.5,181 C423.25,193.87 412.18,210.53 404.2,223.89 " fill="none" id="Struct&lt;-Set" style="stroke: #A80036; stroke-width: 1.0;"/><polygon fill="none" points="434.86,171.76,454.6,164.08,443.96,182.4,434.86,171.76" style="stroke: #A80036; stroke-width: 1.0;"/><!--MD5=[bbce5c6e594f9519b0e03f998c702cd7]
reverse link Struct to Indicator--><path d="M544.23,150.06 C570.23,156.06 600.91,165.74 625.5,181 C643.27,192.02 659.15,209.59 670.25,223.83 " fill="none" id="Struct&lt;-Indicator" style="stroke: #A80036; stroke-width: 1.0;"/><polygon fill="none" points="542.75,156.9,524.59,145.99,545.59,143.19,542.75,156.9" style="stroke: #A80036; stroke-width: 1.0;"/><!--MD5=[5635cc4b99654f3c5c549950d77dd0db]
reverse link Atom to Truth--><path d="M300.93,291.54 C304.29,305.23 307.89,319.9 310.78,331.68 " fill="none" id="Atom&lt;-Truth" style="stroke: #A80036; stroke-width: 1.0;"/><polygon fill="none" points="294.11,293.09,296.14,272,307.7,289.76,294.11,293.09" style="stroke: #A80036; stroke-width: 1.0;"/><!--MD5=[898712309eb8fbecc3952bd38dd229e1]
reverse link Atom to Empty--><path d="M268.82,290.62 C257.88,317.83 250.05,353.16 266.5,380 C294.3,425.35 355.5,446.89 394.49,456.36 " fill="none" id="Atom&lt;-Empty" style="stroke: #A80036; stroke-width: 1.0;"/><polygon fill="none" points="262.6,287.39,277.24,272.07,275.35,293.18,262.6,287.39" style="stroke: #A80036; stroke-width: 1.0;"/><!--MD5=[fcda1a5f81290cc689640184bf09b76b]
link EmptyList to Empty--><path d="M528.16,380 C511.93,393.66 490.98,411.28 472.57,426.77 " fill="none" id="EmptyList-&gt;Empty" style="stroke: #A80036; stroke-width: 1.0;"/><polygon fill="none" points="477.03,432.16,457.22,439.68,468.02,421.45,477.03,432.16" style="stroke: #A80036; stroke-width: 1.0;"/><!--MD5=[f77ae7fd0ae1dd74853f2c96584f0d9c]
link EmptySet to Empty--><path d="M429.5,380 C429.5,391.59 429.5,406.03 429.5,419.6 " fill="none" id="EmptySet-&gt;Empty" style="stroke: #A80036; stroke-width: 1.0;"/><polygon fill="none" points="436.5,419.68,429.5,439.68,422.5,419.68,436.5,419.68" style="stroke: #A80036; stroke-width: 1.0;"/><!--MD5=[b5af1b3c3de85c746cad2571a0bb747a]
reverse link List to EmptyList--><path d="M571.07,291.54 C567.71,305.23 564.11,319.9 561.22,331.68 " fill="none" id="List&lt;-EmptyList" style="stroke: #A80036; stroke-width: 1.0;"/><polygon fill="none" points="564.3,289.76,575.86,272,577.89,293.09,564.3,289.76" style="stroke: #A80036; stroke-width: 1.0;"/><!--MD5=[86931e52732ee1979ef73de364a25d1a]
reverse link List to Cons--><path d="M612.9,287.7 C624.86,302.45 638.12,318.79 648.58,331.68 " fill="none" id="List&lt;-Cons" style="stroke: #A80036; stroke-width: 1.0;"/><polygon fill="none" points="607.33,291.94,600.16,272,618.2,283.12,607.33,291.94" style="stroke: #A80036; stroke-width: 1.0;"/><!--MD5=[076e2437ca024856018e343fbdab2d68]
reverse link Set to EmptySet--><path d="M406.58,291.06 C411.54,304.89 416.87,319.76 421.14,331.68 " fill="none" id="Set&lt;-EmptySet" style="stroke: #A80036; stroke-width: 1.0;"/><polygon fill="none" points="399.91,293.19,399.75,272,413.08,288.46,399.91,293.19" style="stroke: #A80036; stroke-width: 1.0;"/><!--MD5=[b7702a11f4d6cfaf0543be0d76476975]
reverse link Struct to Clause--><path d="M544.7,144.98 C609.9,150.47 713.76,161.91 747.5,181 C765.28,191.06 779.79,209.26 789.42,224 " fill="none" id="Struct&lt;-Clause" style="stroke: #A80036; stroke-width: 1.0;"/><polygon fill="none" points="544.01,151.95,524.63,143.38,545.12,137.99,544.01,151.95" style="stroke: #A80036; stroke-width: 1.0;"/><!--MD5=[f3bf6ee72f5e1a12bb542db493abdab0]
reverse link Clause to Rule--><path d="M799.25,292.02 C798.23,305.58 797.14,320.04 796.26,331.68 " fill="none" id="Clause&lt;-Rule" style="stroke: #A80036; stroke-width: 1.0;"/><polygon fill="none" points="792.28,291.42,800.76,272,806.24,292.47,792.28,291.42" style="stroke: #A80036; stroke-width: 1.0;"/><!--MD5=[528afe65e613338255b9ddfd2453915a]
reverse link Clause to Directive--><path d="M838.12,286.75 C852.26,301.74 868.08,318.51 880.5,331.68 " fill="none" id="Clause&lt;-Directive" style="stroke: #A80036; stroke-width: 1.0;"/><polygon fill="none" points="832.83,291.35,824.2,272,843.01,281.74,832.83,291.35" style="stroke: #A80036; stroke-width: 1.0;"/><!--MD5=[20e1b802e026257bc052a955cce88ea7]
reverse link Rule to Fact--><path d="M794.5,400.02 C794.5,413.58 794.5,428.04 794.5,439.68 " fill="none" id="Rule&lt;-Fact" style="stroke: #A80036; stroke-width: 1.0;"/><polygon fill="none" points="787.5,400,794.5,380,801.5,400,787.5,400" style="stroke: #A80036; stroke-width: 1.0;"/><!--MD5=[38391be1593259c00922cae8ec720683]
@startuml
skinparam shadowing false

interface Term
interface Constant
interface Var
interface Struct
interface Numeric
interface Integer
interface Real
interface Atom
interface Truth
interface Indicator
interface Empty
interface EmptySet
interface EmptyList
interface List
interface Cons
interface Set
interface Tuple

Term <|-down- Struct
Term <|-down- Constant
Term <|-down- Var

Constant <|-down- Numeric
Constant <|-down- Atom

Numeric <|-down- Real
Numeric <|-down- Integer

Struct <|-down- Atom
Struct <|-down- List
Struct <|-down- Tuple
Struct <|-down- Set
Struct <|-down- Indicator

Atom <|-down- Truth
Atom <|-down- Empty

Empty <|-up- EmptyList
Empty <|-up- EmptySet

List <|-down- EmptyList
List <|-down- Cons
Set <|-down- EmptySet

package clauses <<Rectangle>> {

    interface Clause
    interface Rule
    interface Directive
    interface Fact
    Struct <|-down- Clause
    Clause <|-down- Rule
    Clause <|-down- Directive
    Rule <|-down- Fact

}
@enduml

PlantUML version 1.2020.02(Sun Mar 01 11:22:07 CET 2020)
(GPL source distribution)
Java Runtime: OpenJDK Runtime Environment
JVM: OpenJDK 64-Bit Server VM
Java Version: 11.0.9.1+1
Operating System: Linux
Default Encoding: US-ASCII
Language: en
Country: US
--></g></svg>