<?xml version="1.0" encoding="UTF-8" standalone="no"?>
<svg xmlns="http://www.w3.org/2000/svg" xmlns:xlink="http://www.w3.org/1999/xlink" contentScriptType="application/ecmascript" contentStyleType="text/css" height="637px" preserveAspectRatio="none" style="width:850px;height:637px;" version="1.1" viewBox="0 0 850 637" width="850px" zoomAndPan="magnify"><defs/><g><!--MD5=[d6443aa840973661d856ebb400245d1f]
cluster clauses--><rect fill="#FFFFFF" height="315" style="stroke:#000000;stroke-width:1.5;" width="211" x="633" y="7"/><text fill="#000000" font-family="sans-serif" font-size="14" font-weight="bold" lengthAdjust="spacing" textLength="61" x="708" y="21.9951">clauses</text><!--MD5=[3d9a9201f4e3c24a3b32edb25b35db95]
class Clause--><rect codeLine="52" fill="#FEFECE" height="48" id="Clause" style="stroke:#A80036;stroke-width:1.5;" width="71" x="649.5" y="42"/><ellipse cx="664.5" cy="58" fill="#B4A7E5" rx="11" ry="11" style="stroke:#A80036;stroke-width:1.0;"/><path d="M665.4531,54.7813 L667.1719,54.7813 C667.5625,54.7813 667.75,54.75 667.875,54.6719 C668.1406,54.5156 668.2813,54.2344 668.2813,53.9375 C668.2813,53.6719 668.1719,53.4063 667.9375,53.2344 C667.7656,53.125 667.625,53.0938 667.1719,53.0938 L662.0313,53.0938 C661.5938,53.0938 661.4688,53.1094 661.3125,53.2031 C661.0625,53.3594 660.9063,53.6563 660.9063,53.9375 C660.9063,54.2188 661.0469,54.4688 661.2656,54.6406 C661.4219,54.75 661.6094,54.7813 662.0313,54.7813 L663.75,54.7813 L663.75,61.2969 L662.0313,61.2969 C661.5938,61.2969 661.4688,61.3125 661.3125,61.4219 C661.0625,61.5781 660.9063,61.8594 660.9063,62.1563 C660.9063,62.4063 661.0469,62.6719 661.2656,62.8281 C661.4219,62.9531 661.625,63 662.0313,63 L667.1719,63 C667.9219,63 668.2813,62.7188 668.2813,62.1563 C668.2813,61.875 668.1719,61.625 667.9375,61.4531 C667.7656,61.3281 667.625,61.2969 667.1719,61.2969 L665.4531,61.2969 L665.4531,54.7813 Z " fill="#000000"/><text fill="#000000" font-family="sans-serif" font-size="12" font-style="italic" lengthAdjust="spacing" textLength="39" x="678.5" y="62.1543">Clause</text><line style="stroke:#A80036;stroke-width:1.5;" x1="650.5" x2="719.5" y1="74" y2="74"/><line style="stroke:#A80036;stroke-width:1.5;" x1="650.5" x2="719.5" y1="82" y2="82"/><!--MD5=[4cf87534c235239d37db4adfd136fff4]
class Rule--><rect codeLine="53" fill="#FEFECE" height="48" id="Rule" style="stroke:#A80036;stroke-width:1.5;" width="58" x="649" y="150"/><ellipse cx="664" cy="166" fill="#B4A7E5" rx="11" ry="11" style="stroke:#A80036;stroke-width:1.0;"/><path d="M664.9531,162.7813 L666.6719,162.7813 C667.0625,162.7813 667.25,162.75 667.375,162.6719 C667.6406,162.5156 667.7813,162.2344 667.7813,161.9375 C667.7813,161.6719 667.6719,161.4063 667.4375,161.2344 C667.2656,161.125 667.125,161.0938 666.6719,161.0938 L661.5313,161.0938 C661.0938,161.0938 660.9688,161.1094 660.8125,161.2031 C660.5625,161.3594 660.4063,161.6563 660.4063,161.9375 C660.4063,162.2188 660.5469,162.4688 660.7656,162.6406 C660.9219,162.75 661.1094,162.7813 661.5313,162.7813 L663.25,162.7813 L663.25,169.2969 L661.5313,169.2969 C661.0938,169.2969 660.9688,169.3125 660.8125,169.4219 C660.5625,169.5781 660.4063,169.8594 660.4063,170.1563 C660.4063,170.4063 660.5469,170.6719 660.7656,170.8281 C660.9219,170.9531 661.125,171 661.5313,171 L666.6719,171 C667.4219,171 667.7813,170.7188 667.7813,170.1563 C667.7813,169.875 667.6719,169.625 667.4375,169.4531 C667.2656,169.3281 667.125,169.2969 666.6719,169.2969 L664.9531,169.2969 L664.9531,162.7813 Z " fill="#000000"/><text fill="#000000" font-family="sans-serif" font-size="12" font-style="italic" lengthAdjust="spacing" textLength="26" x="678" y="170.1543">Rule</text><line style="stroke:#A80036;stroke-width:1.5;" x1="650" x2="706" y1="182" y2="182"/><line style="stroke:#A80036;stroke-width:1.5;" x1="650" x2="706" y1="190" y2="190"/><!--MD5=[326c2f491a5c94a5eb0f952bc2efd709]
class Directive--><rect codeLine="54" fill="#FEFECE" height="48" id="Directive" style="stroke:#A80036;stroke-width:1.5;" width="85" x="742.5" y="150"/><ellipse cx="757.5" cy="166" fill="#B4A7E5" rx="11" ry="11" style="stroke:#A80036;stroke-width:1.0;"/><path d="M758.4531,162.7813 L760.1719,162.7813 C760.5625,162.7813 760.75,162.75 760.875,162.6719 C761.1406,162.5156 761.2813,162.2344 761.2813,161.9375 C761.2813,161.6719 761.1719,161.4063 760.9375,161.2344 C760.7656,161.125 760.625,161.0938 760.1719,161.0938 L755.0313,161.0938 C754.5938,161.0938 754.4688,161.1094 754.3125,161.2031 C754.0625,161.3594 753.9063,161.6563 753.9063,161.9375 C753.9063,162.2188 754.0469,162.4688 754.2656,162.6406 C754.4219,162.75 754.6094,162.7813 755.0313,162.7813 L756.75,162.7813 L756.75,169.2969 L755.0313,169.2969 C754.5938,169.2969 754.4688,169.3125 754.3125,169.4219 C754.0625,169.5781 753.9063,169.8594 753.9063,170.1563 C753.9063,170.4063 754.0469,170.6719 754.2656,170.8281 C754.4219,170.9531 754.625,171 755.0313,171 L760.1719,171 C760.9219,171 761.2813,170.7188 761.2813,170.1563 C761.2813,169.875 761.1719,169.625 760.9375,169.4531 C760.7656,169.3281 760.625,169.2969 760.1719,169.2969 L758.4531,169.2969 L758.4531,162.7813 Z " fill="#000000"/><text fill="#000000" font-family="sans-serif" font-size="12" font-style="italic" lengthAdjust="spacing" textLength="53" x="771.5" y="170.1543">Directive</text><line style="stroke:#A80036;stroke-width:1.5;" x1="743.5" x2="826.5" y1="182" y2="182"/><line style="stroke:#A80036;stroke-width:1.5;" x1="743.5" x2="826.5" y1="190" y2="190"/><!--MD5=[8b7b02036613c263e1d0ae582a50c9f5]
class Fact--><rect codeLine="55" fill="#FEFECE" height="48" id="Fact" style="stroke:#A80036;stroke-width:1.5;" width="58" x="651" y="258"/><ellipse cx="666" cy="274" fill="#B4A7E5" rx="11" ry="11" style="stroke:#A80036;stroke-width:1.0;"/><path d="M666.9531,270.7813 L668.6719,270.7813 C669.0625,270.7813 669.25,270.75 669.375,270.6719 C669.6406,270.5156 669.7813,270.2344 669.7813,269.9375 C669.7813,269.6719 669.6719,269.4063 669.4375,269.2344 C669.2656,269.125 669.125,269.0938 668.6719,269.0938 L663.5313,269.0938 C663.0938,269.0938 662.9688,269.1094 662.8125,269.2031 C662.5625,269.3594 662.4063,269.6563 662.4063,269.9375 C662.4063,270.2188 662.5469,270.4688 662.7656,270.6406 C662.9219,270.75 663.1094,270.7813 663.5313,270.7813 L665.25,270.7813 L665.25,277.2969 L663.5313,277.2969 C663.0938,277.2969 662.9688,277.3125 662.8125,277.4219 C662.5625,277.5781 662.4063,277.8594 662.4063,278.1563 C662.4063,278.4063 662.5469,278.6719 662.7656,278.8281 C662.9219,278.9531 663.125,279 663.5313,279 L668.6719,279 C669.4219,279 669.7813,278.7188 669.7813,278.1563 C669.7813,277.875 669.6719,277.625 669.4375,277.4531 C669.2656,277.3281 669.125,277.2969 668.6719,277.2969 L666.9531,277.2969 L666.9531,270.7813 Z " fill="#000000"/><text fill="#000000" font-family="sans-serif" font-size="12" font-style="italic" lengthAdjust="spacing" textLength="26" x="680" y="278.1543">Fact</text><line style="stroke:#A80036;stroke-width:1.5;" x1="652" x2="708" y1="290" y2="290"/><line style="stroke:#A80036;stroke-width:1.5;" x1="652" x2="708" y1="298" y2="298"/><!--MD5=[9d35236b92952560f647498cf8a29acb]
class Term--><rect codeLine="3" fill="#FEFECE" height="48" id="Term" style="stroke:#A80036;stroke-width:1.5;" width="63" x="350.5" y="42"/><ellipse cx="365.5" cy="58" fill="#B4A7E5" rx="11" ry="11" style="stroke:#A80036;stroke-width:1.0;"/><path d="M366.4531,54.7813 L368.1719,54.7813 C368.5625,54.7813 368.75,54.75 368.875,54.6719 C369.1406,54.5156 369.2813,54.2344 369.2813,53.9375 C369.2813,53.6719 369.1719,53.4063 368.9375,53.2344 C368.7656,53.125 368.625,53.0938 368.1719,53.0938 L363.0313,53.0938 C362.5938,53.0938 362.4688,53.1094 362.3125,53.2031 C362.0625,53.3594 361.9063,53.6563 361.9063,53.9375 C361.9063,54.2188 362.0469,54.4688 362.2656,54.6406 C362.4219,54.75 362.6094,54.7813 363.0313,54.7813 L364.75,54.7813 L364.75,61.2969 L363.0313,61.2969 C362.5938,61.2969 362.4688,61.3125 362.3125,61.4219 C362.0625,61.5781 361.9063,61.8594 361.9063,62.1563 C361.9063,62.4063 362.0469,62.6719 362.2656,62.8281 C362.4219,62.9531 362.625,63 363.0313,63 L368.1719,63 C368.9219,63 369.2813,62.7188 369.2813,62.1563 C369.2813,61.875 369.1719,61.625 368.9375,61.4531 C368.7656,61.3281 368.625,61.2969 368.1719,61.2969 L366.4531,61.2969 L366.4531,54.7813 Z " fill="#000000"/><text fill="#000000" font-family="sans-serif" font-size="12" font-style="italic" lengthAdjust="spacing" textLength="31" x="379.5" y="62.1543">Term</text><line style="stroke:#A80036;stroke-width:1.5;" x1="351.5" x2="412.5" y1="74" y2="74"/><line style="stroke:#A80036;stroke-width:1.5;" x1="351.5" x2="412.5" y1="82" y2="82"/><!--MD5=[54b85b6d1a687c59d530998eb343c279]
class Constant--><rect codeLine="4" fill="#FEFECE" height="48" id="Constant" style="stroke:#A80036;stroke-width:1.5;" width="86" x="235" y="150"/><ellipse cx="250" cy="166" fill="#B4A7E5" rx="11" ry="11" style="stroke:#A80036;stroke-width:1.0;"/><path d="M250.9531,162.7813 L252.6719,162.7813 C253.0625,162.7813 253.25,162.75 253.375,162.6719 C253.6406,162.5156 253.7813,162.2344 253.7813,161.9375 C253.7813,161.6719 253.6719,161.4063 253.4375,161.2344 C253.2656,161.125 253.125,161.0938 252.6719,161.0938 L247.5313,161.0938 C247.0938,161.0938 246.9688,161.1094 246.8125,161.2031 C246.5625,161.3594 246.4063,161.6563 246.4063,161.9375 C246.4063,162.2188 246.5469,162.4688 246.7656,162.6406 C246.9219,162.75 247.1094,162.7813 247.5313,162.7813 L249.25,162.7813 L249.25,169.2969 L247.5313,169.2969 C247.0938,169.2969 246.9688,169.3125 246.8125,169.4219 C246.5625,169.5781 246.4063,169.8594 246.4063,170.1563 C246.4063,170.4063 246.5469,170.6719 246.7656,170.8281 C246.9219,170.9531 247.125,171 247.5313,171 L252.6719,171 C253.4219,171 253.7813,170.7188 253.7813,170.1563 C253.7813,169.875 253.6719,169.625 253.4375,169.4531 C253.2656,169.3281 253.125,169.2969 252.6719,169.2969 L250.9531,169.2969 L250.9531,162.7813 Z " fill="#000000"/><text fill="#000000" font-family="sans-serif" font-size="12" font-style="italic" lengthAdjust="spacing" textLength="54" x="264" y="170.1543">Constant</text><line style="stroke:#A80036;stroke-width:1.5;" x1="236" x2="320" y1="182" y2="182"/><line style="stroke:#A80036;stroke-width:1.5;" x1="236" x2="320" y1="190" y2="190"/><!--MD5=[c160724f8e3bb89ca8141a12554ac2e3]
class Collection--><rect codeLine="5" fill="#FEFECE" height="48" id="Collection" style="stroke:#A80036;stroke-width:1.5;" width="90" x="405" y="258"/><ellipse cx="420" cy="274" fill="#B4A7E5" rx="11" ry="11" style="stroke:#A80036;stroke-width:1.0;"/><path d="M420.9531,270.7813 L422.6719,270.7813 C423.0625,270.7813 423.25,270.75 423.375,270.6719 C423.6406,270.5156 423.7813,270.2344 423.7813,269.9375 C423.7813,269.6719 423.6719,269.4063 423.4375,269.2344 C423.2656,269.125 423.125,269.0938 422.6719,269.0938 L417.5313,269.0938 C417.0938,269.0938 416.9688,269.1094 416.8125,269.2031 C416.5625,269.3594 416.4063,269.6563 416.4063,269.9375 C416.4063,270.2188 416.5469,270.4688 416.7656,270.6406 C416.9219,270.75 417.1094,270.7813 417.5313,270.7813 L419.25,270.7813 L419.25,277.2969 L417.5313,277.2969 C417.0938,277.2969 416.9688,277.3125 416.8125,277.4219 C416.5625,277.5781 416.4063,277.8594 416.4063,278.1563 C416.4063,278.4063 416.5469,278.6719 416.7656,278.8281 C416.9219,278.9531 417.125,279 417.5313,279 L422.6719,279 C423.4219,279 423.7813,278.7188 423.7813,278.1563 C423.7813,277.875 423.6719,277.625 423.4375,277.4531 C423.2656,277.3281 423.125,277.2969 422.6719,277.2969 L420.9531,277.2969 L420.9531,270.7813 Z " fill="#000000"/><text fill="#000000" font-family="sans-serif" font-size="12" font-style="italic" lengthAdjust="spacing" textLength="58" x="434" y="278.1543">Collection</text><line style="stroke:#A80036;stroke-width:1.5;" x1="406" x2="494" y1="290" y2="290"/><line style="stroke:#A80036;stroke-width:1.5;" x1="406" x2="494" y1="298" y2="298"/><!--MD5=[731225e2007e13f9ac67fff186258580]
class Var--><rect codeLine="6" fill="#FEFECE" height="48" id="Var" style="stroke:#A80036;stroke-width:1.5;" width="52" x="356" y="150"/><ellipse cx="371" cy="166" fill="#B4A7E5" rx="11" ry="11" style="stroke:#A80036;stroke-width:1.0;"/><path d="M371.9531,162.7813 L373.6719,162.7813 C374.0625,162.7813 374.25,162.75 374.375,162.6719 C374.6406,162.5156 374.7813,162.2344 374.7813,161.9375 C374.7813,161.6719 374.6719,161.4063 374.4375,161.2344 C374.2656,161.125 374.125,161.0938 373.6719,161.0938 L368.5313,161.0938 C368.0938,161.0938 367.9688,161.1094 367.8125,161.2031 C367.5625,161.3594 367.4063,161.6563 367.4063,161.9375 C367.4063,162.2188 367.5469,162.4688 367.7656,162.6406 C367.9219,162.75 368.1094,162.7813 368.5313,162.7813 L370.25,162.7813 L370.25,169.2969 L368.5313,169.2969 C368.0938,169.2969 367.9688,169.3125 367.8125,169.4219 C367.5625,169.5781 367.4063,169.8594 367.4063,170.1563 C367.4063,170.4063 367.5469,170.6719 367.7656,170.8281 C367.9219,170.9531 368.125,171 368.5313,171 L373.6719,171 C374.4219,171 374.7813,170.7188 374.7813,170.1563 C374.7813,169.875 374.6719,169.625 374.4375,169.4531 C374.2656,169.3281 374.125,169.2969 373.6719,169.2969 L371.9531,169.2969 L371.9531,162.7813 Z " fill="#000000"/><text fill="#000000" font-family="sans-serif" font-size="12" font-style="italic" lengthAdjust="spacing" textLength="20" x="385" y="170.1543">Var</text><line style="stroke:#A80036;stroke-width:1.5;" x1="357" x2="407" y1="182" y2="182"/><line style="stroke:#A80036;stroke-width:1.5;" x1="357" x2="407" y1="190" y2="190"/><!--MD5=[eb0f4986160aea42d9ece72995cb24c7]
class Struct--><rect codeLine="7" fill="#FEFECE" height="48" id="Struct" style="stroke:#A80036;stroke-width:1.5;" width="70" x="443" y="150"/><ellipse cx="458" cy="166" fill="#B4A7E5" rx="11" ry="11" style="stroke:#A80036;stroke-width:1.0;"/><path d="M458.9531,162.7813 L460.6719,162.7813 C461.0625,162.7813 461.25,162.75 461.375,162.6719 C461.6406,162.5156 461.7813,162.2344 461.7813,161.9375 C461.7813,161.6719 461.6719,161.4063 461.4375,161.2344 C461.2656,161.125 461.125,161.0938 460.6719,161.0938 L455.5313,161.0938 C455.0938,161.0938 454.9688,161.1094 454.8125,161.2031 C454.5625,161.3594 454.4063,161.6563 454.4063,161.9375 C454.4063,162.2188 454.5469,162.4688 454.7656,162.6406 C454.9219,162.75 455.1094,162.7813 455.5313,162.7813 L457.25,162.7813 L457.25,169.2969 L455.5313,169.2969 C455.0938,169.2969 454.9688,169.3125 454.8125,169.4219 C454.5625,169.5781 454.4063,169.8594 454.4063,170.1563 C454.4063,170.4063 454.5469,170.6719 454.7656,170.8281 C454.9219,170.9531 455.125,171 455.5313,171 L460.6719,171 C461.4219,171 461.7813,170.7188 461.7813,170.1563 C461.7813,169.875 461.6719,169.625 461.4375,169.4531 C461.2656,169.3281 461.125,169.2969 460.6719,169.2969 L458.9531,169.2969 L458.9531,162.7813 Z " fill="#000000"/><text fill="#000000" font-family="sans-serif" font-size="12" font-style="italic" lengthAdjust="spacing" textLength="38" x="472" y="170.1543">Struct</text><line style="stroke:#A80036;stroke-width:1.5;" x1="444" x2="512" y1="182" y2="182"/><line style="stroke:#A80036;stroke-width:1.5;" x1="444" x2="512" y1="190" y2="190"/><!--MD5=[f1926c784da000dbf2f9e262c4c094a8]
class Numeric--><rect codeLine="8" fill="#FEFECE" height="48" id="Numeric" style="stroke:#A80036;stroke-width:1.5;" width="83" x="105.5" y="258"/><ellipse cx="120.5" cy="274" fill="#B4A7E5" rx="11" ry="11" style="stroke:#A80036;stroke-width:1.0;"/><path d="M121.4531,270.7813 L123.1719,270.7813 C123.5625,270.7813 123.75,270.75 123.875,270.6719 C124.1406,270.5156 124.2813,270.2344 124.2813,269.9375 C124.2813,269.6719 124.1719,269.4063 123.9375,269.2344 C123.7656,269.125 123.625,269.0938 123.1719,269.0938 L118.0313,269.0938 C117.5938,269.0938 117.4688,269.1094 117.3125,269.2031 C117.0625,269.3594 116.9063,269.6563 116.9063,269.9375 C116.9063,270.2188 117.0469,270.4688 117.2656,270.6406 C117.4219,270.75 117.6094,270.7813 118.0313,270.7813 L119.75,270.7813 L119.75,277.2969 L118.0313,277.2969 C117.5938,277.2969 117.4688,277.3125 117.3125,277.4219 C117.0625,277.5781 116.9063,277.8594 116.9063,278.1563 C116.9063,278.4063 117.0469,278.6719 117.2656,278.8281 C117.4219,278.9531 117.625,279 118.0313,279 L123.1719,279 C123.9219,279 124.2813,278.7188 124.2813,278.1563 C124.2813,277.875 124.1719,277.625 123.9375,277.4531 C123.7656,277.3281 123.625,277.2969 123.1719,277.2969 L121.4531,277.2969 L121.4531,270.7813 Z " fill="#000000"/><text fill="#000000" font-family="sans-serif" font-size="12" font-style="italic" lengthAdjust="spacing" textLength="51" x="134.5" y="278.1543">Numeric</text><line style="stroke:#A80036;stroke-width:1.5;" x1="106.5" x2="187.5" y1="290" y2="290"/><line style="stroke:#A80036;stroke-width:1.5;" x1="106.5" x2="187.5" y1="298" y2="298"/><!--MD5=[ee42c820cde073a9007f0905fabb17c1]
class Integer--><rect codeLine="9" fill="#FEFECE" height="48" id="Integer" style="stroke:#A80036;stroke-width:1.5;" width="76" x="7" y="366"/><ellipse cx="22" cy="382" fill="#B4A7E5" rx="11" ry="11" style="stroke:#A80036;stroke-width:1.0;"/><path d="M22.9531,378.7813 L24.6719,378.7813 C25.0625,378.7813 25.25,378.75 25.375,378.6719 C25.6406,378.5156 25.7813,378.2344 25.7813,377.9375 C25.7813,377.6719 25.6719,377.4063 25.4375,377.2344 C25.2656,377.125 25.125,377.0938 24.6719,377.0938 L19.5313,377.0938 C19.0938,377.0938 18.9688,377.1094 18.8125,377.2031 C18.5625,377.3594 18.4063,377.6563 18.4063,377.9375 C18.4063,378.2188 18.5469,378.4688 18.7656,378.6406 C18.9219,378.75 19.1094,378.7813 19.5313,378.7813 L21.25,378.7813 L21.25,385.2969 L19.5313,385.2969 C19.0938,385.2969 18.9688,385.3125 18.8125,385.4219 C18.5625,385.5781 18.4063,385.8594 18.4063,386.1563 C18.4063,386.4063 18.5469,386.6719 18.7656,386.8281 C18.9219,386.9531 19.125,387 19.5313,387 L24.6719,387 C25.4219,387 25.7813,386.7188 25.7813,386.1563 C25.7813,385.875 25.6719,385.625 25.4375,385.4531 C25.2656,385.3281 25.125,385.2969 24.6719,385.2969 L22.9531,385.2969 L22.9531,378.7813 Z " fill="#000000"/><text fill="#000000" font-family="sans-serif" font-size="12" font-style="italic" lengthAdjust="spacing" textLength="44" x="36" y="386.1543">Integer</text><line style="stroke:#A80036;stroke-width:1.5;" x1="8" x2="82" y1="398" y2="398"/><line style="stroke:#A80036;stroke-width:1.5;" x1="8" x2="82" y1="406" y2="406"/><!--MD5=[5fd72fda0f3f342d877047943977dc6a]
class Real--><rect codeLine="10" fill="#FEFECE" height="48" id="Real" style="stroke:#A80036;stroke-width:1.5;" width="57" x="118.5" y="366"/><ellipse cx="133.5" cy="382" fill="#B4A7E5" rx="11" ry="11" style="stroke:#A80036;stroke-width:1.0;"/><path d="M134.4531,378.7813 L136.1719,378.7813 C136.5625,378.7813 136.75,378.75 136.875,378.6719 C137.1406,378.5156 137.2813,378.2344 137.2813,377.9375 C137.2813,377.6719 137.1719,377.4063 136.9375,377.2344 C136.7656,377.125 136.625,377.0938 136.1719,377.0938 L131.0313,377.0938 C130.5938,377.0938 130.4688,377.1094 130.3125,377.2031 C130.0625,377.3594 129.9063,377.6563 129.9063,377.9375 C129.9063,378.2188 130.0469,378.4688 130.2656,378.6406 C130.4219,378.75 130.6094,378.7813 131.0313,378.7813 L132.75,378.7813 L132.75,385.2969 L131.0313,385.2969 C130.5938,385.2969 130.4688,385.3125 130.3125,385.4219 C130.0625,385.5781 129.9063,385.8594 129.9063,386.1563 C129.9063,386.4063 130.0469,386.6719 130.2656,386.8281 C130.4219,386.9531 130.625,387 131.0313,387 L136.1719,387 C136.9219,387 137.2813,386.7188 137.2813,386.1563 C137.2813,385.875 137.1719,385.625 136.9375,385.4531 C136.7656,385.3281 136.625,385.2969 136.1719,385.2969 L134.4531,385.2969 L134.4531,378.7813 Z " fill="#000000"/><text fill="#000000" font-family="sans-serif" font-size="12" font-style="italic" lengthAdjust="spacing" textLength="25" x="147.5" y="386.1543">Real</text><line style="stroke:#A80036;stroke-width:1.5;" x1="119.5" x2="174.5" y1="398" y2="398"/><line style="stroke:#A80036;stroke-width:1.5;" x1="119.5" x2="174.5" y1="406" y2="406"/><!--MD5=[f18b0f967872e82ff276115ca1b4c569]
class Atom--><rect codeLine="11" fill="#FEFECE" height="48" id="Atom" style="stroke:#A80036;stroke-width:1.5;" width="64" x="254" y="258"/><ellipse cx="269" cy="274" fill="#B4A7E5" rx="11" ry="11" style="stroke:#A80036;stroke-width:1.0;"/><path d="M269.9531,270.7813 L271.6719,270.7813 C272.0625,270.7813 272.25,270.75 272.375,270.6719 C272.6406,270.5156 272.7813,270.2344 272.7813,269.9375 C272.7813,269.6719 272.6719,269.4063 272.4375,269.2344 C272.2656,269.125 272.125,269.0938 271.6719,269.0938 L266.5313,269.0938 C266.0938,269.0938 265.9688,269.1094 265.8125,269.2031 C265.5625,269.3594 265.4063,269.6563 265.4063,269.9375 C265.4063,270.2188 265.5469,270.4688 265.7656,270.6406 C265.9219,270.75 266.1094,270.7813 266.5313,270.7813 L268.25,270.7813 L268.25,277.2969 L266.5313,277.2969 C266.0938,277.2969 265.9688,277.3125 265.8125,277.4219 C265.5625,277.5781 265.4063,277.8594 265.4063,278.1563 C265.4063,278.4063 265.5469,278.6719 265.7656,278.8281 C265.9219,278.9531 266.125,279 266.5313,279 L271.6719,279 C272.4219,279 272.7813,278.7188 272.7813,278.1563 C272.7813,277.875 272.6719,277.625 272.4375,277.4531 C272.2656,277.3281 272.125,277.2969 271.6719,277.2969 L269.9531,277.2969 L269.9531,270.7813 Z " fill="#000000"/><text fill="#000000" font-family="sans-serif" font-size="12" font-style="italic" lengthAdjust="spacing" textLength="32" x="283" y="278.1543">Atom</text><line style="stroke:#A80036;stroke-width:1.5;" x1="255" x2="317" y1="290" y2="290"/><line style="stroke:#A80036;stroke-width:1.5;" x1="255" x2="317" y1="298" y2="298"/><!--MD5=[de147283bee8035b23b97cb1a9ddf59d]
class Truth--><rect codeLine="12" fill="#FEFECE" height="48" id="Truth" style="stroke:#A80036;stroke-width:1.5;" width="65" x="210.5" y="366"/><ellipse cx="225.5" cy="382" fill="#B4A7E5" rx="11" ry="11" style="stroke:#A80036;stroke-width:1.0;"/><path d="M226.4531,378.7813 L228.1719,378.7813 C228.5625,378.7813 228.75,378.75 228.875,378.6719 C229.1406,378.5156 229.2813,378.2344 229.2813,377.9375 C229.2813,377.6719 229.1719,377.4063 228.9375,377.2344 C228.7656,377.125 228.625,377.0938 228.1719,377.0938 L223.0313,377.0938 C222.5938,377.0938 222.4688,377.1094 222.3125,377.2031 C222.0625,377.3594 221.9063,377.6563 221.9063,377.9375 C221.9063,378.2188 222.0469,378.4688 222.2656,378.6406 C222.4219,378.75 222.6094,378.7813 223.0313,378.7813 L224.75,378.7813 L224.75,385.2969 L223.0313,385.2969 C222.5938,385.2969 222.4688,385.3125 222.3125,385.4219 C222.0625,385.5781 221.9063,385.8594 221.9063,386.1563 C221.9063,386.4063 222.0469,386.6719 222.2656,386.8281 C222.4219,386.9531 222.625,387 223.0313,387 L228.1719,387 C228.9219,387 229.2813,386.7188 229.2813,386.1563 C229.2813,385.875 229.1719,385.625 228.9375,385.4531 C228.7656,385.3281 228.625,385.2969 228.1719,385.2969 L226.4531,385.2969 L226.4531,378.7813 Z " fill="#000000"/><text fill="#000000" font-family="sans-serif" font-size="12" font-style="italic" lengthAdjust="spacing" textLength="33" x="239.5" y="386.1543">Truth</text><line style="stroke:#A80036;stroke-width:1.5;" x1="211.5" x2="274.5" y1="398" y2="398"/><line style="stroke:#A80036;stroke-width:1.5;" x1="211.5" x2="274.5" y1="406" y2="406"/><!--MD5=[ff04013806d21ddc19c98782fe2ddc6c]
class Indicator--><rect codeLine="13" fill="#FEFECE" height="48" id="Indicator" style="stroke:#A80036;stroke-width:1.5;" width="86" x="530" y="258"/><ellipse cx="545" cy="274" fill="#B4A7E5" rx="11" ry="11" style="stroke:#A80036;stroke-width:1.0;"/><path d="M545.9531,270.7813 L547.6719,270.7813 C548.0625,270.7813 548.25,270.75 548.375,270.6719 C548.6406,270.5156 548.7813,270.2344 548.7813,269.9375 C548.7813,269.6719 548.6719,269.4063 548.4375,269.2344 C548.2656,269.125 548.125,269.0938 547.6719,269.0938 L542.5313,269.0938 C542.0938,269.0938 541.9688,269.1094 541.8125,269.2031 C541.5625,269.3594 541.4063,269.6563 541.4063,269.9375 C541.4063,270.2188 541.5469,270.4688 541.7656,270.6406 C541.9219,270.75 542.1094,270.7813 542.5313,270.7813 L544.25,270.7813 L544.25,277.2969 L542.5313,277.2969 C542.0938,277.2969 541.9688,277.3125 541.8125,277.4219 C541.5625,277.5781 541.4063,277.8594 541.4063,278.1563 C541.4063,278.4063 541.5469,278.6719 541.7656,278.8281 C541.9219,278.9531 542.125,279 542.5313,279 L547.6719,279 C548.4219,279 548.7813,278.7188 548.7813,278.1563 C548.7813,277.875 548.6719,277.625 548.4375,277.4531 C548.2656,277.3281 548.125,277.2969 547.6719,277.2969 L545.9531,277.2969 L545.9531,270.7813 Z " fill="#000000"/><text fill="#000000" font-family="sans-serif" font-size="12" font-style="italic" lengthAdjust="spacing" textLength="54" x="559" y="278.1543">Indicator</text><line style="stroke:#A80036;stroke-width:1.5;" x1="531" x2="615" y1="290" y2="290"/><line style="stroke:#A80036;stroke-width:1.5;" x1="531" x2="615" y1="298" y2="298"/><!--MD5=[302c72c1573bd1a597976f8c721380e9]
class Empty--><rect codeLine="14" fill="#FEFECE" height="48" id="Empty" style="stroke:#A80036;stroke-width:1.5;" width="72" x="393" y="582"/><ellipse cx="408" cy="598" fill="#B4A7E5" rx="11" ry="11" style="stroke:#A80036;stroke-width:1.0;"/><path d="M408.9531,594.7813 L410.6719,594.7813 C411.0625,594.7813 411.25,594.75 411.375,594.6719 C411.6406,594.5156 411.7813,594.2344 411.7813,593.9375 C411.7813,593.6719 411.6719,593.4063 411.4375,593.2344 C411.2656,593.125 411.125,593.0938 410.6719,593.0938 L405.5313,593.0938 C405.0938,593.0938 404.9688,593.1094 404.8125,593.2031 C404.5625,593.3594 404.4063,593.6563 404.4063,593.9375 C404.4063,594.2188 404.5469,594.4688 404.7656,594.6406 C404.9219,594.75 405.1094,594.7813 405.5313,594.7813 L407.25,594.7813 L407.25,601.2969 L405.5313,601.2969 C405.0938,601.2969 404.9688,601.3125 404.8125,601.4219 C404.5625,601.5781 404.4063,601.8594 404.4063,602.1563 C404.4063,602.4063 404.5469,602.6719 404.7656,602.8281 C404.9219,602.9531 405.125,603 405.5313,603 L410.6719,603 C411.4219,603 411.7813,602.7188 411.7813,602.1563 C411.7813,601.875 411.6719,601.625 411.4375,601.4531 C411.2656,601.3281 411.125,601.2969 410.6719,601.2969 L408.9531,601.2969 L408.9531,594.7813 Z " fill="#000000"/><text fill="#000000" font-family="sans-serif" font-size="12" font-style="italic" lengthAdjust="spacing" textLength="40" x="422" y="602.1543">Empty</text><line style="stroke:#A80036;stroke-width:1.5;" x1="394" x2="464" y1="614" y2="614"/><line style="stroke:#A80036;stroke-width:1.5;" x1="394" x2="464" y1="622" y2="622"/><!--MD5=[658c0fc6cfb7a0fb084a912b803c5445]
class EmptySet--><rect codeLine="15" fill="#FEFECE" height="48" id="EmptySet" style="stroke:#A80036;stroke-width:1.5;" width="92" x="607" y="474"/><ellipse cx="622" cy="490" fill="#B4A7E5" rx="11" ry="11" style="stroke:#A80036;stroke-width:1.0;"/><path d="M622.9531,486.7813 L624.6719,486.7813 C625.0625,486.7813 625.25,486.75 625.375,486.6719 C625.6406,486.5156 625.7813,486.2344 625.7813,485.9375 C625.7813,485.6719 625.6719,485.4063 625.4375,485.2344 C625.2656,485.125 625.125,485.0938 624.6719,485.0938 L619.5313,485.0938 C619.0938,485.0938 618.9688,485.1094 618.8125,485.2031 C618.5625,485.3594 618.4063,485.6563 618.4063,485.9375 C618.4063,486.2188 618.5469,486.4688 618.7656,486.6406 C618.9219,486.75 619.1094,486.7813 619.5313,486.7813 L621.25,486.7813 L621.25,493.2969 L619.5313,493.2969 C619.0938,493.2969 618.9688,493.3125 618.8125,493.4219 C618.5625,493.5781 618.4063,493.8594 618.4063,494.1563 C618.4063,494.4063 618.5469,494.6719 618.7656,494.8281 C618.9219,494.9531 619.125,495 619.5313,495 L624.6719,495 C625.4219,495 625.7813,494.7188 625.7813,494.1563 C625.7813,493.875 625.6719,493.625 625.4375,493.4531 C625.2656,493.3281 625.125,493.2969 624.6719,493.2969 L622.9531,493.2969 L622.9531,486.7813 Z " fill="#000000"/><text fill="#000000" font-family="sans-serif" font-size="12" font-style="italic" lengthAdjust="spacing" textLength="60" x="636" y="494.1543">EmptySet</text><line style="stroke:#A80036;stroke-width:1.5;" x1="608" x2="698" y1="506" y2="506"/><line style="stroke:#A80036;stroke-width:1.5;" x1="608" x2="698" y1="514" y2="514"/><!--MD5=[e7969329aebad34cb4c65e60c1606de9]
class EmptyList--><rect codeLine="16" fill="#FEFECE" height="48" id="EmptyList" style="stroke:#A80036;stroke-width:1.5;" width="93" x="382.5" y="474"/><ellipse cx="397.5" cy="490" fill="#B4A7E5" rx="11" ry="11" style="stroke:#A80036;stroke-width:1.0;"/><path d="M398.4531,486.7813 L400.1719,486.7813 C400.5625,486.7813 400.75,486.75 400.875,486.6719 C401.1406,486.5156 401.2813,486.2344 401.2813,485.9375 C401.2813,485.6719 401.1719,485.4063 400.9375,485.2344 C400.7656,485.125 400.625,485.0938 400.1719,485.0938 L395.0313,485.0938 C394.5938,485.0938 394.4688,485.1094 394.3125,485.2031 C394.0625,485.3594 393.9063,485.6563 393.9063,485.9375 C393.9063,486.2188 394.0469,486.4688 394.2656,486.6406 C394.4219,486.75 394.6094,486.7813 395.0313,486.7813 L396.75,486.7813 L396.75,493.2969 L395.0313,493.2969 C394.5938,493.2969 394.4688,493.3125 394.3125,493.4219 C394.0625,493.5781 393.9063,493.8594 393.9063,494.1563 C393.9063,494.4063 394.0469,494.6719 394.2656,494.8281 C394.4219,494.9531 394.625,495 395.0313,495 L400.1719,495 C400.9219,495 401.2813,494.7188 401.2813,494.1563 C401.2813,493.875 401.1719,493.625 400.9375,493.4531 C400.7656,493.3281 400.625,493.2969 400.1719,493.2969 L398.4531,493.2969 L398.4531,486.7813 Z " fill="#000000"/><text fill="#000000" font-family="sans-serif" font-size="12" font-style="italic" lengthAdjust="spacing" textLength="61" x="411.5" y="494.1543">EmptyList</text><line style="stroke:#A80036;stroke-width:1.5;" x1="383.5" x2="474.5" y1="506" y2="506"/><line style="stroke:#A80036;stroke-width:1.5;" x1="383.5" x2="474.5" y1="514" y2="514"/><!--MD5=[3d4177ac58b4411586d067f34e84928f]
class List--><rect codeLine="17" fill="#FEFECE" height="48" id="List" style="stroke:#A80036;stroke-width:1.5;" width="53" x="416.5" y="366"/><ellipse cx="431.5" cy="382" fill="#B4A7E5" rx="11" ry="11" style="stroke:#A80036;stroke-width:1.0;"/><path d="M432.4531,378.7813 L434.1719,378.7813 C434.5625,378.7813 434.75,378.75 434.875,378.6719 C435.1406,378.5156 435.2813,378.2344 435.2813,377.9375 C435.2813,377.6719 435.1719,377.4063 434.9375,377.2344 C434.7656,377.125 434.625,377.0938 434.1719,377.0938 L429.0313,377.0938 C428.5938,377.0938 428.4688,377.1094 428.3125,377.2031 C428.0625,377.3594 427.9063,377.6563 427.9063,377.9375 C427.9063,378.2188 428.0469,378.4688 428.2656,378.6406 C428.4219,378.75 428.6094,378.7813 429.0313,378.7813 L430.75,378.7813 L430.75,385.2969 L429.0313,385.2969 C428.5938,385.2969 428.4688,385.3125 428.3125,385.4219 C428.0625,385.5781 427.9063,385.8594 427.9063,386.1563 C427.9063,386.4063 428.0469,386.6719 428.2656,386.8281 C428.4219,386.9531 428.625,387 429.0313,387 L434.1719,387 C434.9219,387 435.2813,386.7188 435.2813,386.1563 C435.2813,385.875 435.1719,385.625 434.9375,385.4531 C434.7656,385.3281 434.625,385.2969 434.1719,385.2969 L432.4531,385.2969 L432.4531,378.7813 Z " fill="#000000"/><text fill="#000000" font-family="sans-serif" font-size="12" font-style="italic" lengthAdjust="spacing" textLength="21" x="445.5" y="386.1543">List</text><line style="stroke:#A80036;stroke-width:1.5;" x1="417.5" x2="468.5" y1="398" y2="398"/><line style="stroke:#A80036;stroke-width:1.5;" x1="417.5" x2="468.5" y1="406" y2="406"/><!--MD5=[e9bf4637ac83eb6af140c7019666e1f6]
class Cons--><rect codeLine="18" fill="#FEFECE" height="48" id="Cons" style="stroke:#A80036;stroke-width:1.5;" width="61" x="510.5" y="474"/><ellipse cx="525.5" cy="490" fill="#B4A7E5" rx="11" ry="11" style="stroke:#A80036;stroke-width:1.0;"/><path d="M526.4531,486.7813 L528.1719,486.7813 C528.5625,486.7813 528.75,486.75 528.875,486.6719 C529.1406,486.5156 529.2813,486.2344 529.2813,485.9375 C529.2813,485.6719 529.1719,485.4063 528.9375,485.2344 C528.7656,485.125 528.625,485.0938 528.1719,485.0938 L523.0313,485.0938 C522.5938,485.0938 522.4688,485.1094 522.3125,485.2031 C522.0625,485.3594 521.9063,485.6563 521.9063,485.9375 C521.9063,486.2188 522.0469,486.4688 522.2656,486.6406 C522.4219,486.75 522.6094,486.7813 523.0313,486.7813 L524.75,486.7813 L524.75,493.2969 L523.0313,493.2969 C522.5938,493.2969 522.4688,493.3125 522.3125,493.4219 C522.0625,493.5781 521.9063,493.8594 521.9063,494.1563 C521.9063,494.4063 522.0469,494.6719 522.2656,494.8281 C522.4219,494.9531 522.625,495 523.0313,495 L528.1719,495 C528.9219,495 529.2813,494.7188 529.2813,494.1563 C529.2813,493.875 529.1719,493.625 528.9375,493.4531 C528.7656,493.3281 528.625,493.2969 528.1719,493.2969 L526.4531,493.2969 L526.4531,486.7813 Z " fill="#000000"/><text fill="#000000" font-family="sans-serif" font-size="12" font-style="italic" lengthAdjust="spacing" textLength="29" x="539.5" y="494.1543">Cons</text><line style="stroke:#A80036;stroke-width:1.5;" x1="511.5" x2="570.5" y1="506" y2="506"/><line style="stroke:#A80036;stroke-width:1.5;" x1="511.5" x2="570.5" y1="514" y2="514"/><!--MD5=[73145e46247802284b2f7aaef1fa1797]
class Set--><rect codeLine="19" fill="#FEFECE" height="48" id="Set" style="stroke:#A80036;stroke-width:1.5;" width="52" x="505" y="366"/><ellipse cx="520" cy="382" fill="#B4A7E5" rx="11" ry="11" style="stroke:#A80036;stroke-width:1.0;"/><path d="M520.9531,378.7813 L522.6719,378.7813 C523.0625,378.7813 523.25,378.75 523.375,378.6719 C523.6406,378.5156 523.7813,378.2344 523.7813,377.9375 C523.7813,377.6719 523.6719,377.4063 523.4375,377.2344 C523.2656,377.125 523.125,377.0938 522.6719,377.0938 L517.5313,377.0938 C517.0938,377.0938 516.9688,377.1094 516.8125,377.2031 C516.5625,377.3594 516.4063,377.6563 516.4063,377.9375 C516.4063,378.2188 516.5469,378.4688 516.7656,378.6406 C516.9219,378.75 517.1094,378.7813 517.5313,378.7813 L519.25,378.7813 L519.25,385.2969 L517.5313,385.2969 C517.0938,385.2969 516.9688,385.3125 516.8125,385.4219 C516.5625,385.5781 516.4063,385.8594 516.4063,386.1563 C516.4063,386.4063 516.5469,386.6719 516.7656,386.8281 C516.9219,386.9531 517.125,387 517.5313,387 L522.6719,387 C523.4219,387 523.7813,386.7188 523.7813,386.1563 C523.7813,385.875 523.6719,385.625 523.4375,385.4531 C523.2656,385.3281 523.125,385.2969 522.6719,385.2969 L520.9531,385.2969 L520.9531,378.7813 Z " fill="#000000"/><text fill="#000000" font-family="sans-serif" font-size="12" font-style="italic" lengthAdjust="spacing" textLength="20" x="534" y="386.1543">Set</text><line style="stroke:#A80036;stroke-width:1.5;" x1="506" x2="556" y1="398" y2="398"/><line style="stroke:#A80036;stroke-width:1.5;" x1="506" x2="556" y1="406" y2="406"/><!--MD5=[064889823136230ed73fb5238d2f9216]
class Tuple--><rect codeLine="20" fill="#FEFECE" height="48" id="Tuple" style="stroke:#A80036;stroke-width:1.5;" width="65" x="592.5" y="366"/><ellipse cx="607.5" cy="382" fill="#B4A7E5" rx="11" ry="11" style="stroke:#A80036;stroke-width:1.0;"/><path d="M608.4531,378.7813 L610.1719,378.7813 C610.5625,378.7813 610.75,378.75 610.875,378.6719 C611.1406,378.5156 611.2813,378.2344 611.2813,377.9375 C611.2813,377.6719 611.1719,377.4063 610.9375,377.2344 C610.7656,377.125 610.625,377.0938 610.1719,377.0938 L605.0313,377.0938 C604.5938,377.0938 604.4688,377.1094 604.3125,377.2031 C604.0625,377.3594 603.9063,377.6563 603.9063,377.9375 C603.9063,378.2188 604.0469,378.4688 604.2656,378.6406 C604.4219,378.75 604.6094,378.7813 605.0313,378.7813 L606.75,378.7813 L606.75,385.2969 L605.0313,385.2969 C604.5938,385.2969 604.4688,385.3125 604.3125,385.4219 C604.0625,385.5781 603.9063,385.8594 603.9063,386.1563 C603.9063,386.4063 604.0469,386.6719 604.2656,386.8281 C604.4219,386.9531 604.625,387 605.0313,387 L610.1719,387 C610.9219,387 611.2813,386.7188 611.2813,386.1563 C611.2813,385.875 611.1719,385.625 610.9375,385.4531 C610.7656,385.3281 610.625,385.2969 610.1719,385.2969 L608.4531,385.2969 L608.4531,378.7813 Z " fill="#000000"/><text fill="#000000" font-family="sans-serif" font-size="12" font-style="italic" lengthAdjust="spacing" textLength="33" x="621.5" y="386.1543">Tuple</text><line style="stroke:#A80036;stroke-width:1.5;" x1="593.5" x2="656.5" y1="398" y2="398"/><line style="stroke:#A80036;stroke-width:1.5;" x1="593.5" x2="656.5" y1="406" y2="406"/><!--MD5=[f626f12429d76bc694cd64f7f069082d]
reverse link Term to Struct--><path codeLine="22" d="M416.621,105.227 C430.088,120.097 445.081,136.652 456.879,149.678 " fill="none" id="Term-backto-Struct" style="stroke:#A80036;stroke-width:1.0;"/><polygon fill="none" points="411.068,109.524,402.831,90,421.445,100.126,411.068,109.524" style="stroke:#A80036;stroke-width:1.0;"/><!--MD5=[22dcc2a6458fba43153ab5c044b6d0f2]
reverse link Term to Constant--><path codeLine="23" d="M345.423,104.28 C330.598,119.391 313.934,136.375 300.882,149.678 " fill="none" id="Term-backto-Constant" style="stroke:#A80036;stroke-width:1.0;"/><polygon fill="none" points="340.43,99.374,359.434,90,350.423,109.179,340.43,99.374" style="stroke:#A80036;stroke-width:1.0;"/><!--MD5=[6348e5cd8d5bc8163d36f1359c5d0625]
reverse link Term to Var--><path codeLine="24" d="M382,110.024 C382,123.579 382,138.038 382,149.678 " fill="none" id="Term-backto-Var" style="stroke:#A80036;stroke-width:1.0;"/><polygon fill="none" points="375,110,382,90,389,110,375,110" style="stroke:#A80036;stroke-width:1.0;"/><!--MD5=[70225964948051ed3e9096d211e8a754]
reverse link Constant to Numeric--><path codeLine="26" d="M233.96,210.635 C214.79,226.147 192.862,243.89 175.822,257.678 " fill="none" id="Constant-backto-Numeric" style="stroke:#A80036;stroke-width:1.0;"/><polygon fill="none" points="229.624,205.139,249.575,198,238.43,216.023,229.624,205.139" style="stroke:#A80036;stroke-width:1.0;"/><!--MD5=[904172204236467fd977e5a86c11fa2e]
reverse link Constant to Atom--><path codeLine="27" d="M281.247,218.024 C282.27,231.579 283.361,246.038 284.24,257.678 " fill="none" id="Constant-backto-Atom" style="stroke:#A80036;stroke-width:1.0;"/><polygon fill="none" points="274.261,218.471,279.736,198,288.221,217.417,274.261,218.471" style="stroke:#A80036;stroke-width:1.0;"/><!--MD5=[17d2d3c8e42a151c98c74cb7a0afd032]
reverse link Numeric to Real--><path codeLine="29" d="M147,326.024 C147,339.579 147,354.038 147,365.678 " fill="none" id="Numeric-backto-Real" style="stroke:#A80036;stroke-width:1.0;"/><polygon fill="none" points="140,326,147,306,154,326,140,326" style="stroke:#A80036;stroke-width:1.0;"/><!--MD5=[2b9b92e887eeff1b264561e6aba3c4bf]
reverse link Numeric to Integer--><path codeLine="30" d="M110.672,320.753 C96.2463,335.744 80.1094,352.514 67.4415,365.678 " fill="none" id="Numeric-backto-Integer" style="stroke:#A80036;stroke-width:1.0;"/><polygon fill="none" points="105.9559,315.558,124.868,306,116.044,325.266,105.9559,315.558" style="stroke:#A80036;stroke-width:1.0;"/><!--MD5=[71ce62bb6f3323542defcc754b11eb47]
reverse link Struct to Atom--><path codeLine="32" d="M424.849,204.344 C390.602,223.251 347.201,247.212 318.12,263.267 " fill="none" id="Struct-backto-Atom" style="stroke:#A80036;stroke-width:1.0;"/><polygon fill="none" points="421.892,197.98,442.784,194.442,428.659,210.237,421.892,197.98" style="stroke:#A80036;stroke-width:1.0;"/><!--MD5=[bbce5c6e594f9519b0e03f998c702cd7]
reverse link Struct to Indicator--><path codeLine="33" d="M512.26,213.227 C525.587,228.097 540.424,244.652 552.099,257.678 " fill="none" id="Struct-backto-Indicator" style="stroke:#A80036;stroke-width:1.0;"/><polygon fill="none" points="506.749,217.566,498.614,198,517.175,208.222,506.749,217.566" style="stroke:#A80036;stroke-width:1.0;"/><!--MD5=[5d5281d9d86ea5bbb09f5d4bbd5d543a]
reverse link Struct to Collection--><path codeLine="34" d="M466.763,217.54 C463.146,231.235 459.272,245.9 456.16,257.678 " fill="none" id="Struct-backto-Collection" style="stroke:#A80036;stroke-width:1.0;"/><polygon fill="none" points="460.049,215.549,471.924,198,473.584,219.125,460.049,215.549" style="stroke:#A80036;stroke-width:1.0;"/><!--MD5=[0159284274f96a472eb2618ad803aaca]
reverse link Collection to List--><path codeLine="36" d="M447.159,326.024 C446.264,339.579 445.309,354.038 444.54,365.678 " fill="none" id="Collection-backto-List" style="stroke:#A80036;stroke-width:1.0;"/><polygon fill="none" points="440.178,325.496,448.481,306,454.148,326.418,440.178,325.496" style="stroke:#A80036;stroke-width:1.0;"/><!--MD5=[080c87522df2a2680f980ab69ceea513]
reverse link Collection to Tuple--><path codeLine="37" d="M494.48,318.107 C500.272,322.263 506.207,326.328 512,330 C537.983,346.468 569.064,362.447 592.047,373.613 " fill="none" id="Collection-backto-Tuple" style="stroke:#A80036;stroke-width:1.0;"/><polygon fill="none" points="490.143,323.604,478.3,306.033,498.516,312.384,490.143,323.604" style="stroke:#A80036;stroke-width:1.0;"/><!--MD5=[1317568493796c4665b61a5c76c851cf]
reverse link Collection to Set--><path codeLine="38" d="M479.938,322.178 C491.111,336.8 503.437,352.929 513.179,365.678 " fill="none" id="Collection-backto-Set" style="stroke:#A80036;stroke-width:1.0;"/><polygon fill="none" points="474.157,326.142,467.576,306,485.281,317.642,474.157,326.142" style="stroke:#A80036;stroke-width:1.0;"/><!--MD5=[5635cc4b99654f3c5c549950d77dd0db]
reverse link Atom to Truth--><path codeLine="40" d="M269.135,324.575 C263.468,338.543 257.351,353.622 252.461,365.678 " fill="none" id="Atom-backto-Truth" style="stroke:#A80036;stroke-width:1.0;"/><polygon fill="none" points="262.665,321.902,276.67,306,275.638,327.165,262.665,321.902" style="stroke:#A80036;stroke-width:1.0;"/><!--MD5=[898712309eb8fbecc3952bd38dd229e1]
reverse link Atom to Empty--><path codeLine="41" d="M295.45,325.597 C307.397,374.799 330.639,457.275 365,522 C376.604,543.8575 393.941,565.9162 407.645,581.7936 " fill="none" id="Atom-backto-Empty" style="stroke:#A80036;stroke-width:1.0;"/><polygon fill="none" points="288.631,327.174,290.89,306.105,302.262,323.984,288.631,327.174" style="stroke:#A80036;stroke-width:1.0;"/><!--MD5=[fcda1a5f81290cc689640184bf09b76b]
link EmptyList to Empty--><path codeLine="43" d="M429,522 C429,533.5885 429,548.0294 429,561.6013 " fill="none" id="EmptyList-to-Empty" style="stroke:#A80036;stroke-width:1.0;"/><polygon fill="none" points="436,561.6785,429,581.6784,422,561.6784,436,561.6785" style="stroke:#A80036;stroke-width:1.0;"/><!--MD5=[f77ae7fd0ae1dd74853f2c96584f0d9c]
link EmptySet to Empty--><path codeLine="44" d="M606.859,520.835 C571.004,537.8015 521.184,561.377 483.391,579.2616 " fill="none" id="EmptySet-to-Empty" style="stroke:#A80036;stroke-width:1.0;"/><polygon fill="none" points="486.198,585.6774,465.126,587.9049,480.209,573.0227,486.198,585.6774" style="stroke:#A80036;stroke-width:1.0;"/><!--MD5=[b5af1b3c3de85c746cad2571a0bb747a]
reverse link List to EmptyList--><path codeLine="46" d="M437.318,434.024 C435.527,447.579 433.618,462.038 432.08,473.678 " fill="none" id="List-backto-EmptyList" style="stroke:#A80036;stroke-width:1.0;"/><polygon fill="none" points="430.404,432.912,439.962,414,444.283,434.745,430.404,432.912" style="stroke:#A80036;stroke-width:1.0;"/><!--MD5=[86931e52732ee1979ef73de364a25d1a]
reverse link List to Cons--><path codeLine="47" d="M477.904,428.753 C491.763,443.744 507.267,460.514 519.439,473.678 " fill="none" id="List-backto-Cons" style="stroke:#A80036;stroke-width:1.0;"/><polygon fill="none" points="472.702,433.438,464.265,414,482.982,423.934,472.702,433.438" style="stroke:#A80036;stroke-width:1.0;"/><!--MD5=[076e2437ca024856018e343fbdab2d68]
reverse link Set to EmptySet--><path codeLine="48" d="M572.367,426.942 C590.246,442.476 610.644,460.199 626.45,473.932 " fill="none" id="Set-backto-EmptySet" style="stroke:#A80036;stroke-width:1.0;"/><polygon fill="none" points="567.678,432.141,557.172,413.74,576.861,421.573,567.678,432.141" style="stroke:#A80036;stroke-width:1.0;"/><!--MD5=[7d5dd9f21bb35d6050aa4aa0dc25dbc6]
link Clause to Struct--><path codeLine="56" d="M649.415,85.222 C616.857,101.894 568.245,126.787 531.096,145.811 " fill="none" id="Clause-to-Struct" style="stroke:#A80036;stroke-width:1.0;"/><polygon fill="none" points="534.113,152.13,513.12,155.016,527.731,139.669,534.113,152.13" style="stroke:#A80036;stroke-width:1.0;"/><!--MD5=[f3bf6ee72f5e1a12bb542db493abdab0]
reverse link Clause to Rule--><path codeLine="57" d="M682.159,110.024 C681.264,123.579 680.309,138.038 679.54,149.678 " fill="none" id="Clause-backto-Rule" style="stroke:#A80036;stroke-width:1.0;"/><polygon fill="none" points="675.178,109.496,683.481,90,689.148,110.418,675.178,109.496" style="stroke:#A80036;stroke-width:1.0;"/><!--MD5=[528afe65e613338255b9ddfd2453915a]
reverse link Clause to Directive--><path codeLine="58" d="M720.616,104.753 C734.758,119.744 750.579,136.514 762.999,149.678 " fill="none" id="Clause-backto-Directive" style="stroke:#A80036;stroke-width:1.0;"/><polygon fill="none" points="715.331,109.352,706.699,90,725.515,99.745,715.331,109.352" style="stroke:#A80036;stroke-width:1.0;"/><!--MD5=[20e1b802e026257bc052a955cce88ea7]
reverse link Rule to Fact--><path codeLine="59" d="M678.812,218.024 C679.068,231.579 679.34,246.038 679.56,257.678 " fill="none" id="Rule-backto-Fact" style="stroke:#A80036;stroke-width:1.0;"/><polygon fill="none" points="671.813,218.129,678.434,198,685.81,217.865,671.813,218.129" style="stroke:#A80036;stroke-width:1.0;"/><!--MD5=[e1f069a7daeb077e8e6a7c552e5ba88f]
@startuml
skinparam shadowing false

interface Term
interface Constant
interface Collection
interface Var
interface Struct
interface Numeric
interface Integer
interface Real
interface Atom
interface Truth
interface Indicator
interface Empty
interface EmptySet
interface EmptyList
interface List
interface Cons
interface Set
interface Tuple

Term <|-down- Struct
Term <|-down- Constant
Term <|-down- Var

Constant <|-down- Numeric
Constant <|-down- Atom

Numeric <|-down- Real
Numeric <|-down- Integer

Struct <|-down- Atom
Struct <|-down- Indicator
Struct <|-down- Collection

Collection <|-down- List
Collection <|-down- Tuple
Collection <|-down- Set

Atom <|-down- Truth
Atom <|-down- Empty

Empty <|-up- EmptyList
Empty <|-up- EmptySet

List <|-down- EmptyList
List <|-down- Cons
Set <|-down- EmptySet

package clauses <<Rectangle>> {

    interface Clause
    interface Rule
    interface Directive
    interface Fact
    Clause - -|> Struct
    Clause <|-down- Rule
    Clause <|-down- Directive
    Rule <|-down- Fact

}
@enduml

PlantUML version 1.2021.5(Sun Apr 25 11:20:28 UTC 2021)
(GPL source distribution)
Java Runtime: Java(TM) SE Runtime Environment
JVM: Java HotSpot(TM) 64-Bit Server VM
Default Encoding: UTF-8
Language: en
Country: US
--></g></svg>