<?xml version="1.0" encoding="UTF-8" standalone="no"?><svg xmlns="http://www.w3.org/2000/svg" xmlns:xlink="http://www.w3.org/1999/xlink" contentScriptType="application/ecmascript" contentStyleType="text/css" height="515px" preserveAspectRatio="none" style="width:976px;height:515px;" version="1.1" viewBox="0 0 976 515" width="976px" zoomAndPan="magnify"><defs/><g><!--MD5=[d6443aa840973661d856ebb400245d1f]
cluster clauses--><rect fill="#FFFFFF" height="315" style="stroke: #000000; stroke-width: 1.5;" width="213" x="752" y="189"/><text fill="#000000" font-family="sans-serif" font-size="14" font-weight="bold" lengthAdjust="spacingAndGlyphs" textLength="60" x="828.5" y="203.9951">clauses</text><!--MD5=[3d9a9201f4e3c24a3b32edb25b35db95]
class Clause--><rect fill="#FEFECE" height="48" id="Clause" style="stroke: #A80036; stroke-width: 1.5;" width="73" x="769.5" y="224"/><ellipse cx="784.5" cy="240" fill="#B4A7E5" rx="11" ry="11" style="stroke: #A80036; stroke-width: 1.0;"/><path d="M780.4219,235.7656 L780.4219,233.6094 L787.8125,233.6094 L787.8125,235.7656 L785.3438,235.7656 L785.3438,243.8438 L787.8125,243.8438 L787.8125,246 L780.4219,246 L780.4219,243.8438 L782.8906,243.8438 L782.8906,235.7656 L780.4219,235.7656 Z "/><text fill="#000000" font-family="sans-serif" font-size="12" font-style="italic" lengthAdjust="spacingAndGlyphs" textLength="41" x="798.5" y="244.1543">Clause</text><line style="stroke: #A80036; stroke-width: 1.5;" x1="770.5" x2="841.5" y1="256" y2="256"/><line style="stroke: #A80036; stroke-width: 1.5;" x1="770.5" x2="841.5" y1="264" y2="264"/><!--MD5=[4cf87534c235239d37db4adfd136fff4]
class Rule--><rect fill="#FEFECE" height="48" id="Rule" style="stroke: #A80036; stroke-width: 1.5;" width="59" x="768.5" y="332"/><ellipse cx="783.5" cy="348" fill="#B4A7E5" rx="11" ry="11" style="stroke: #A80036; stroke-width: 1.0;"/><path d="M779.4219,343.7656 L779.4219,341.6094 L786.8125,341.6094 L786.8125,343.7656 L784.3438,343.7656 L784.3438,351.8438 L786.8125,351.8438 L786.8125,354 L779.4219,354 L779.4219,351.8438 L781.8906,351.8438 L781.8906,343.7656 L779.4219,343.7656 Z "/><text fill="#000000" font-family="sans-serif" font-size="12" font-style="italic" lengthAdjust="spacingAndGlyphs" textLength="27" x="797.5" y="352.1543">Rule</text><line style="stroke: #A80036; stroke-width: 1.5;" x1="769.5" x2="826.5" y1="364" y2="364"/><line style="stroke: #A80036; stroke-width: 1.5;" x1="769.5" x2="826.5" y1="372" y2="372"/><!--MD5=[326c2f491a5c94a5eb0f952bc2efd709]
class Directive--><rect fill="#FEFECE" height="48" id="Directive" style="stroke: #A80036; stroke-width: 1.5;" width="86" x="863" y="332"/><ellipse cx="878" cy="348" fill="#B4A7E5" rx="11" ry="11" style="stroke: #A80036; stroke-width: 1.0;"/><path d="M873.9219,343.7656 L873.9219,341.6094 L881.3125,341.6094 L881.3125,343.7656 L878.8438,343.7656 L878.8438,351.8438 L881.3125,351.8438 L881.3125,354 L873.9219,354 L873.9219,351.8438 L876.3906,351.8438 L876.3906,343.7656 L873.9219,343.7656 Z "/><text fill="#000000" font-family="sans-serif" font-size="12" font-style="italic" lengthAdjust="spacingAndGlyphs" textLength="54" x="892" y="352.1543">Directive</text><line style="stroke: #A80036; stroke-width: 1.5;" x1="864" x2="948" y1="364" y2="364"/><line style="stroke: #A80036; stroke-width: 1.5;" x1="864" x2="948" y1="372" y2="372"/><!--MD5=[8b7b02036613c263e1d0ae582a50c9f5]
class Fact--><rect fill="#FEFECE" height="48" id="Fact" style="stroke: #A80036; stroke-width: 1.5;" width="59" x="768.5" y="440"/><ellipse cx="783.5" cy="456" fill="#B4A7E5" rx="11" ry="11" style="stroke: #A80036; stroke-width: 1.0;"/><path d="M779.4219,451.7656 L779.4219,449.6094 L786.8125,449.6094 L786.8125,451.7656 L784.3438,451.7656 L784.3438,459.8438 L786.8125,459.8438 L786.8125,462 L779.4219,462 L779.4219,459.8438 L781.8906,459.8438 L781.8906,451.7656 L779.4219,451.7656 Z "/><text fill="#000000" font-family="sans-serif" font-size="12" font-style="italic" lengthAdjust="spacingAndGlyphs" textLength="27" x="797.5" y="460.1543">Fact</text><line style="stroke: #A80036; stroke-width: 1.5;" x1="769.5" x2="826.5" y1="472" y2="472"/><line style="stroke: #A80036; stroke-width: 1.5;" x1="769.5" x2="826.5" y1="480" y2="480"/><!--MD5=[9d35236b92952560f647498cf8a29acb]
class Term--><rect fill="#FEFECE" height="48" id="Term" style="stroke: #A80036; stroke-width: 1.5;" width="63" x="363.5" y="8"/><ellipse cx="378.5" cy="24" fill="#B4A7E5" rx="11" ry="11" style="stroke: #A80036; stroke-width: 1.0;"/><path d="M374.4219,19.7656 L374.4219,17.6094 L381.8125,17.6094 L381.8125,19.7656 L379.3438,19.7656 L379.3438,27.8438 L381.8125,27.8438 L381.8125,30 L374.4219,30 L374.4219,27.8438 L376.8906,27.8438 L376.8906,19.7656 L374.4219,19.7656 Z "/><text fill="#000000" font-family="sans-serif" font-size="12" font-style="italic" lengthAdjust="spacingAndGlyphs" textLength="31" x="392.5" y="28.1543">Term</text><line style="stroke: #A80036; stroke-width: 1.5;" x1="364.5" x2="425.5" y1="40" y2="40"/><line style="stroke: #A80036; stroke-width: 1.5;" x1="364.5" x2="425.5" y1="48" y2="48"/><!--MD5=[54b85b6d1a687c59d530998eb343c279]
class Constant--><rect fill="#FEFECE" height="48" id="Constant" style="stroke: #A80036; stroke-width: 1.5;" width="88" x="245" y="116"/><ellipse cx="260" cy="132" fill="#B4A7E5" rx="11" ry="11" style="stroke: #A80036; stroke-width: 1.0;"/><path d="M255.9219,127.7656 L255.9219,125.6094 L263.3125,125.6094 L263.3125,127.7656 L260.8438,127.7656 L260.8438,135.8438 L263.3125,135.8438 L263.3125,138 L255.9219,138 L255.9219,135.8438 L258.3906,135.8438 L258.3906,127.7656 L255.9219,127.7656 Z "/><text fill="#000000" font-family="sans-serif" font-size="12" font-style="italic" lengthAdjust="spacingAndGlyphs" textLength="56" x="274" y="136.1543">Constant</text><line style="stroke: #A80036; stroke-width: 1.5;" x1="246" x2="332" y1="148" y2="148"/><line style="stroke: #A80036; stroke-width: 1.5;" x1="246" x2="332" y1="156" y2="156"/><!--MD5=[731225e2007e13f9ac67fff186258580]
class Var--><rect fill="#FEFECE" height="48" id="Var" style="stroke: #A80036; stroke-width: 1.5;" width="53" x="368.5" y="116"/><ellipse cx="383.5" cy="132" fill="#B4A7E5" rx="11" ry="11" style="stroke: #A80036; stroke-width: 1.0;"/><path d="M379.4219,127.7656 L379.4219,125.6094 L386.8125,125.6094 L386.8125,127.7656 L384.3438,127.7656 L384.3438,135.8438 L386.8125,135.8438 L386.8125,138 L379.4219,138 L379.4219,135.8438 L381.8906,135.8438 L381.8906,127.7656 L379.4219,127.7656 Z "/><text fill="#000000" font-family="sans-serif" font-size="12" font-style="italic" lengthAdjust="spacingAndGlyphs" textLength="21" x="397.5" y="136.1543">Var</text><line style="stroke: #A80036; stroke-width: 1.5;" x1="369.5" x2="420.5" y1="148" y2="148"/><line style="stroke: #A80036; stroke-width: 1.5;" x1="369.5" x2="420.5" y1="156" y2="156"/><!--MD5=[eb0f4986160aea42d9ece72995cb24c7]
class Struct--><rect fill="#FEFECE" height="48" id="Struct" style="stroke: #A80036; stroke-width: 1.5;" width="70" x="457" y="116"/><ellipse cx="472" cy="132" fill="#B4A7E5" rx="11" ry="11" style="stroke: #A80036; stroke-width: 1.0;"/><path d="M467.9219,127.7656 L467.9219,125.6094 L475.3125,125.6094 L475.3125,127.7656 L472.8438,127.7656 L472.8438,135.8438 L475.3125,135.8438 L475.3125,138 L467.9219,138 L467.9219,135.8438 L470.3906,135.8438 L470.3906,127.7656 L467.9219,127.7656 Z "/><text fill="#000000" font-family="sans-serif" font-size="12" font-style="italic" lengthAdjust="spacingAndGlyphs" textLength="38" x="486" y="136.1543">Struct</text><line style="stroke: #A80036; stroke-width: 1.5;" x1="458" x2="526" y1="148" y2="148"/><line style="stroke: #A80036; stroke-width: 1.5;" x1="458" x2="526" y1="156" y2="156"/><!--MD5=[f1926c784da000dbf2f9e262c4c094a8]
class Numeric--><rect fill="#FEFECE" height="48" id="Numeric" style="stroke: #A80036; stroke-width: 1.5;" width="83" x="107.5" y="224"/><ellipse cx="122.5" cy="240" fill="#B4A7E5" rx="11" ry="11" style="stroke: #A80036; stroke-width: 1.0;"/><path d="M118.4219,235.7656 L118.4219,233.6094 L125.8125,233.6094 L125.8125,235.7656 L123.3438,235.7656 L123.3438,243.8438 L125.8125,243.8438 L125.8125,246 L118.4219,246 L118.4219,243.8438 L120.8906,243.8438 L120.8906,235.7656 L118.4219,235.7656 Z "/><text fill="#000000" font-family="sans-serif" font-size="12" font-style="italic" lengthAdjust="spacingAndGlyphs" textLength="51" x="136.5" y="244.1543">Numeric</text><line style="stroke: #A80036; stroke-width: 1.5;" x1="108.5" x2="189.5" y1="256" y2="256"/><line style="stroke: #A80036; stroke-width: 1.5;" x1="108.5" x2="189.5" y1="264" y2="264"/><!--MD5=[ee42c820cde073a9007f0905fabb17c1]
class Integer--><rect fill="#FEFECE" height="48" id="Integer" style="stroke: #A80036; stroke-width: 1.5;" width="78" x="6" y="332"/><ellipse cx="21" cy="348" fill="#B4A7E5" rx="11" ry="11" style="stroke: #A80036; stroke-width: 1.0;"/><path d="M16.9219,343.7656 L16.9219,341.6094 L24.3125,341.6094 L24.3125,343.7656 L21.8438,343.7656 L21.8438,351.8438 L24.3125,351.8438 L24.3125,354 L16.9219,354 L16.9219,351.8438 L19.3906,351.8438 L19.3906,343.7656 L16.9219,343.7656 Z "/><text fill="#000000" font-family="sans-serif" font-size="12" font-style="italic" lengthAdjust="spacingAndGlyphs" textLength="46" x="35" y="352.1543">Integer</text><line style="stroke: #A80036; stroke-width: 1.5;" x1="7" x2="83" y1="364" y2="364"/><line style="stroke: #A80036; stroke-width: 1.5;" x1="7" x2="83" y1="372" y2="372"/><!--MD5=[5fd72fda0f3f342d877047943977dc6a]
class Real--><rect fill="#FEFECE" height="48" id="Real" style="stroke: #A80036; stroke-width: 1.5;" width="59" x="119.5" y="332"/><ellipse cx="134.5" cy="348" fill="#B4A7E5" rx="11" ry="11" style="stroke: #A80036; stroke-width: 1.0;"/><path d="M130.4219,343.7656 L130.4219,341.6094 L137.8125,341.6094 L137.8125,343.7656 L135.3438,343.7656 L135.3438,351.8438 L137.8125,351.8438 L137.8125,354 L130.4219,354 L130.4219,351.8438 L132.8906,351.8438 L132.8906,343.7656 L130.4219,343.7656 Z "/><text fill="#000000" font-family="sans-serif" font-size="12" font-style="italic" lengthAdjust="spacingAndGlyphs" textLength="27" x="148.5" y="352.1543">Real</text><line style="stroke: #A80036; stroke-width: 1.5;" x1="120.5" x2="177.5" y1="364" y2="364"/><line style="stroke: #A80036; stroke-width: 1.5;" x1="120.5" x2="177.5" y1="372" y2="372"/><!--MD5=[f18b0f967872e82ff276115ca1b4c569]
class Atom--><rect fill="#FEFECE" height="48" id="Atom" style="stroke: #A80036; stroke-width: 1.5;" width="64" x="261" y="224"/><ellipse cx="276" cy="240" fill="#B4A7E5" rx="11" ry="11" style="stroke: #A80036; stroke-width: 1.0;"/><path d="M271.9219,235.7656 L271.9219,233.6094 L279.3125,233.6094 L279.3125,235.7656 L276.8438,235.7656 L276.8438,243.8438 L279.3125,243.8438 L279.3125,246 L271.9219,246 L271.9219,243.8438 L274.3906,243.8438 L274.3906,235.7656 L271.9219,235.7656 Z "/><text fill="#000000" font-family="sans-serif" font-size="12" font-style="italic" lengthAdjust="spacingAndGlyphs" textLength="32" x="290" y="244.1543">Atom</text><line style="stroke: #A80036; stroke-width: 1.5;" x1="262" x2="324" y1="256" y2="256"/><line style="stroke: #A80036; stroke-width: 1.5;" x1="262" x2="324" y1="264" y2="264"/><!--MD5=[de147283bee8035b23b97cb1a9ddf59d]
class Truth--><rect fill="#FEFECE" height="48" id="Truth" style="stroke: #A80036; stroke-width: 1.5;" width="65" x="285.5" y="332"/><ellipse cx="300.5" cy="348" fill="#B4A7E5" rx="11" ry="11" style="stroke: #A80036; stroke-width: 1.0;"/><path d="M296.4219,343.7656 L296.4219,341.6094 L303.8125,341.6094 L303.8125,343.7656 L301.3438,343.7656 L301.3438,351.8438 L303.8125,351.8438 L303.8125,354 L296.4219,354 L296.4219,351.8438 L298.8906,351.8438 L298.8906,343.7656 L296.4219,343.7656 Z "/><text fill="#000000" font-family="sans-serif" font-size="12" font-style="italic" lengthAdjust="spacingAndGlyphs" textLength="33" x="314.5" y="352.1543">Truth</text><line style="stroke: #A80036; stroke-width: 1.5;" x1="286.5" x2="349.5" y1="364" y2="364"/><line style="stroke: #A80036; stroke-width: 1.5;" x1="286.5" x2="349.5" y1="372" y2="372"/><!--MD5=[ff04013806d21ddc19c98782fe2ddc6c]
class Indicator--><rect fill="#FEFECE" height="48" id="Indicator" style="stroke: #A80036; stroke-width: 1.5;" width="88" x="646" y="224"/><ellipse cx="661" cy="240" fill="#B4A7E5" rx="11" ry="11" style="stroke: #A80036; stroke-width: 1.0;"/><path d="M656.9219,235.7656 L656.9219,233.6094 L664.3125,233.6094 L664.3125,235.7656 L661.8438,235.7656 L661.8438,243.8438 L664.3125,243.8438 L664.3125,246 L656.9219,246 L656.9219,243.8438 L659.3906,243.8438 L659.3906,235.7656 L656.9219,235.7656 Z "/><text fill="#000000" font-family="sans-serif" font-size="12" font-style="italic" lengthAdjust="spacingAndGlyphs" textLength="56" x="675" y="244.1543">Indicator</text><line style="stroke: #A80036; stroke-width: 1.5;" x1="647" x2="733" y1="256" y2="256"/><line style="stroke: #A80036; stroke-width: 1.5;" x1="647" x2="733" y1="264" y2="264"/><!--MD5=[302c72c1573bd1a597976f8c721380e9]
class Empty--><rect fill="#FEFECE" height="48" id="Empty" style="stroke: #A80036; stroke-width: 1.5;" width="71" x="396.5" y="440"/><ellipse cx="411.5" cy="456" fill="#B4A7E5" rx="11" ry="11" style="stroke: #A80036; stroke-width: 1.0;"/><path d="M407.4219,451.7656 L407.4219,449.6094 L414.8125,449.6094 L414.8125,451.7656 L412.3438,451.7656 L412.3438,459.8438 L414.8125,459.8438 L414.8125,462 L407.4219,462 L407.4219,459.8438 L409.8906,459.8438 L409.8906,451.7656 L407.4219,451.7656 Z "/><text fill="#000000" font-family="sans-serif" font-size="12" font-style="italic" lengthAdjust="spacingAndGlyphs" textLength="39" x="425.5" y="460.1543">Empty</text><line style="stroke: #A80036; stroke-width: 1.5;" x1="397.5" x2="466.5" y1="472" y2="472"/><line style="stroke: #A80036; stroke-width: 1.5;" x1="397.5" x2="466.5" y1="480" y2="480"/><!--MD5=[658c0fc6cfb7a0fb084a912b803c5445]
class EmptySet--><rect fill="#FEFECE" height="48" id="EmptySet" style="stroke: #A80036; stroke-width: 1.5;" width="92" x="386" y="332"/><ellipse cx="401" cy="348" fill="#B4A7E5" rx="11" ry="11" style="stroke: #A80036; stroke-width: 1.0;"/><path d="M396.9219,343.7656 L396.9219,341.6094 L404.3125,341.6094 L404.3125,343.7656 L401.8438,343.7656 L401.8438,351.8438 L404.3125,351.8438 L404.3125,354 L396.9219,354 L396.9219,351.8438 L399.3906,351.8438 L399.3906,343.7656 L396.9219,343.7656 Z "/><text fill="#000000" font-family="sans-serif" font-size="12" font-style="italic" lengthAdjust="spacingAndGlyphs" textLength="60" x="415" y="352.1543">EmptySet</text><line style="stroke: #A80036; stroke-width: 1.5;" x1="387" x2="477" y1="364" y2="364"/><line style="stroke: #A80036; stroke-width: 1.5;" x1="387" x2="477" y1="372" y2="372"/><!--MD5=[e7969329aebad34cb4c65e60c1606de9]
class EmptyList--><rect fill="#FEFECE" height="48" id="EmptyList" style="stroke: #A80036; stroke-width: 1.5;" width="92" x="513" y="332"/><ellipse cx="528" cy="348" fill="#B4A7E5" rx="11" ry="11" style="stroke: #A80036; stroke-width: 1.0;"/><path d="M523.9219,343.7656 L523.9219,341.6094 L531.3125,341.6094 L531.3125,343.7656 L528.8438,343.7656 L528.8438,351.8438 L531.3125,351.8438 L531.3125,354 L523.9219,354 L523.9219,351.8438 L526.3906,351.8438 L526.3906,343.7656 L523.9219,343.7656 Z "/><text fill="#000000" font-family="sans-serif" font-size="12" font-style="italic" lengthAdjust="spacingAndGlyphs" textLength="60" x="542" y="352.1543">EmptyList</text><line style="stroke: #A80036; stroke-width: 1.5;" x1="514" x2="604" y1="364" y2="364"/><line style="stroke: #A80036; stroke-width: 1.5;" x1="514" x2="604" y1="372" y2="372"/><!--MD5=[3d4177ac58b4411586d067f34e84928f]
class List--><rect fill="#FEFECE" height="48" id="List" style="stroke: #A80036; stroke-width: 1.5;" width="53" x="557.5" y="224"/><ellipse cx="572.5" cy="240" fill="#B4A7E5" rx="11" ry="11" style="stroke: #A80036; stroke-width: 1.0;"/><path d="M568.4219,235.7656 L568.4219,233.6094 L575.8125,233.6094 L575.8125,235.7656 L573.3438,235.7656 L573.3438,243.8438 L575.8125,243.8438 L575.8125,246 L568.4219,246 L568.4219,243.8438 L570.8906,243.8438 L570.8906,235.7656 L568.4219,235.7656 Z "/><text fill="#000000" font-family="sans-serif" font-size="12" font-style="italic" lengthAdjust="spacingAndGlyphs" textLength="21" x="586.5" y="244.1543">List</text><line style="stroke: #A80036; stroke-width: 1.5;" x1="558.5" x2="609.5" y1="256" y2="256"/><line style="stroke: #A80036; stroke-width: 1.5;" x1="558.5" x2="609.5" y1="264" y2="264"/><!--MD5=[e9bf4637ac83eb6af140c7019666e1f6]
class Cons--><rect fill="#FEFECE" height="48" id="Cons" style="stroke: #A80036; stroke-width: 1.5;" width="62" x="640" y="332"/><ellipse cx="655" cy="348" fill="#B4A7E5" rx="11" ry="11" style="stroke: #A80036; stroke-width: 1.0;"/><path d="M650.9219,343.7656 L650.9219,341.6094 L658.3125,341.6094 L658.3125,343.7656 L655.8438,343.7656 L655.8438,351.8438 L658.3125,351.8438 L658.3125,354 L650.9219,354 L650.9219,351.8438 L653.3906,351.8438 L653.3906,343.7656 L650.9219,343.7656 Z "/><text fill="#000000" font-family="sans-serif" font-size="12" font-style="italic" lengthAdjust="spacingAndGlyphs" textLength="30" x="669" y="352.1543">Cons</text><line style="stroke: #A80036; stroke-width: 1.5;" x1="641" x2="701" y1="364" y2="364"/><line style="stroke: #A80036; stroke-width: 1.5;" x1="641" x2="701" y1="372" y2="372"/><!--MD5=[73145e46247802284b2f7aaef1fa1797]
class Set--><rect fill="#FEFECE" height="48" id="Set" style="stroke: #A80036; stroke-width: 1.5;" width="53" x="367.5" y="224"/><ellipse cx="382.5" cy="240" fill="#B4A7E5" rx="11" ry="11" style="stroke: #A80036; stroke-width: 1.0;"/><path d="M378.4219,235.7656 L378.4219,233.6094 L385.8125,233.6094 L385.8125,235.7656 L383.3438,235.7656 L383.3438,243.8438 L385.8125,243.8438 L385.8125,246 L378.4219,246 L378.4219,243.8438 L380.8906,243.8438 L380.8906,235.7656 L378.4219,235.7656 Z "/><text fill="#000000" font-family="sans-serif" font-size="12" font-style="italic" lengthAdjust="spacingAndGlyphs" textLength="21" x="396.5" y="244.1543">Set</text><line style="stroke: #A80036; stroke-width: 1.5;" x1="368.5" x2="419.5" y1="256" y2="256"/><line style="stroke: #A80036; stroke-width: 1.5;" x1="368.5" x2="419.5" y1="264" y2="264"/><!--MD5=[064889823136230ed73fb5238d2f9216]
class Tuple--><rect fill="#FEFECE" height="48" id="Tuple" style="stroke: #A80036; stroke-width: 1.5;" width="66" x="456" y="224"/><ellipse cx="471" cy="240" fill="#B4A7E5" rx="11" ry="11" style="stroke: #A80036; stroke-width: 1.0;"/><path d="M466.9219,235.7656 L466.9219,233.6094 L474.3125,233.6094 L474.3125,235.7656 L471.8438,235.7656 L471.8438,243.8438 L474.3125,243.8438 L474.3125,246 L466.9219,246 L466.9219,243.8438 L469.3906,243.8438 L469.3906,235.7656 L466.9219,235.7656 Z "/><text fill="#000000" font-family="sans-serif" font-size="12" font-style="italic" lengthAdjust="spacingAndGlyphs" textLength="34" x="485" y="244.1543">Tuple</text><line style="stroke: #A80036; stroke-width: 1.5;" x1="457" x2="521" y1="256" y2="256"/><line style="stroke: #A80036; stroke-width: 1.5;" x1="457" x2="521" y1="264" y2="264"/><!--MD5=[f626f12429d76bc694cd64f7f069082d]
reverse link Term to Struct--><path d="M429.98,71.23 C443.59,86.1 458.74,102.65 470.66,115.68 " fill="none" id="Term&lt;-Struct" style="stroke: #A80036; stroke-width: 1.0;"/><polygon fill="none" points="424.39,75.48,416.05,56,434.71,66.03,424.39,75.48" style="stroke: #A80036; stroke-width: 1.0;"/><!--MD5=[22dcc2a6458fba43153ab5c044b6d0f2]
reverse link Term to Constant--><path d="M357.72,70.28 C342.61,85.39 325.62,102.38 312.32,115.68 " fill="none" id="Term&lt;-Constant" style="stroke: #A80036; stroke-width: 1.0;"/><polygon fill="none" points="352.91,65.19,372,56,362.81,75.09,352.91,65.19" style="stroke: #A80036; stroke-width: 1.0;"/><!--MD5=[6348e5cd8d5bc8163d36f1359c5d0625]
reverse link Term to Var--><path d="M395,76.02 C395,89.58 395,104.04 395,115.68 " fill="none" id="Term&lt;-Var" style="stroke: #A80036; stroke-width: 1.0;"/><polygon fill="none" points="388,76,395,56,402,76,388,76" style="stroke: #A80036; stroke-width: 1.0;"/><!--MD5=[70225964948051ed3e9096d211e8a754]
reverse link Constant to Numeric--><path d="M242.55,176.17 C221.92,191.79 198.2,209.75 179.8,223.68 " fill="none" id="Constant&lt;-Numeric" style="stroke: #A80036; stroke-width: 1.0;"/><polygon fill="none" points="238.45,170.49,258.62,164,246.9,181.65,238.45,170.49" style="stroke: #A80036; stroke-width: 1.0;"/><!--MD5=[904172204236467fd977e5a86c11fa2e]
reverse link Constant to Atom--><path d="M290.62,184.02 C291.14,197.58 291.68,212.04 292.12,223.68 " fill="none" id="Constant&lt;-Atom" style="stroke: #A80036; stroke-width: 1.0;"/><polygon fill="none" points="283.63,184.25,289.87,164,297.62,183.72,283.63,184.25" style="stroke: #A80036; stroke-width: 1.0;"/><!--MD5=[17d2d3c8e42a151c98c74cb7a0afd032]
reverse link Numeric to Real--><path d="M149,292.02 C149,305.58 149,320.04 149,331.68 " fill="none" id="Numeric&lt;-Real" style="stroke: #A80036; stroke-width: 1.0;"/><polygon fill="none" points="142,292,149,272,156,292,142,292" style="stroke: #A80036; stroke-width: 1.0;"/><!--MD5=[2b9b92e887eeff1b264561e6aba3c4bf]
reverse link Numeric to Integer--><path d="M112.42,286.28 C97.6,301.39 80.93,318.38 67.88,331.68 " fill="none" id="Numeric&lt;-Integer" style="stroke: #A80036; stroke-width: 1.0;"/><polygon fill="none" points="107.43,281.37,126.43,272,117.42,291.18,107.43,281.37" style="stroke: #A80036; stroke-width: 1.0;"/><!--MD5=[71ce62bb6f3323542defcc754b11eb47]
reverse link Struct to Atom--><path d="M437.46,163 C396.31,172.66 380.52,163.38 350,181 C332.17,191.3 317.2,209.28 307.08,223.88 " fill="none" id="Struct&lt;-Atom" style="stroke: #A80036; stroke-width: 1.0;"/><polygon fill="none" points="435.62,156.25,456.77,157.57,439.42,169.72,435.62,156.25" style="stroke: #A80036; stroke-width: 1.0;"/><!--MD5=[1663d601d350eda7521afef5996e8c3e]
reverse link Struct to List--><path d="M536.53,178.32 C537.37,179.21 538.19,180.1 539,181 C550.86,194.2 562.11,210.7 570.4,223.9 " fill="none" id="Struct&lt;-List" style="stroke: #A80036; stroke-width: 1.0;"/><polygon fill="none" points="531.58,183.27,521.95,164.39,541.25,173.14,531.58,183.27" style="stroke: #A80036; stroke-width: 1.0;"/><!--MD5=[7121e3ba3beb08d71469fa7d80898bfa]
reverse link Struct to Tuple--><path d="M490.78,184.02 C490.4,197.58 489.99,212.04 489.66,223.68 " fill="none" id="Struct&lt;-Tuple" style="stroke: #A80036; stroke-width: 1.0;"/><polygon fill="none" points="483.79,183.79,491.35,164,497.78,184.19,483.79,183.79" style="stroke: #A80036; stroke-width: 1.0;"/><!--MD5=[10dfd7325163cb72023c6fe30f7d9519]
reverse link Struct to Set--><path d="M441.88,177.1 C440.55,178.39 439.25,179.69 438,181 C425.75,193.87 414.68,210.53 406.7,223.89 " fill="none" id="Struct&lt;-Set" style="stroke: #A80036; stroke-width: 1.0;"/><polygon fill="none" points="437.36,171.76,457.1,164.08,446.46,182.4,437.36,171.76" style="stroke: #A80036; stroke-width: 1.0;"/><!--MD5=[bbce5c6e594f9519b0e03f998c702cd7]
reverse link Struct to Indicator--><path d="M546.67,150.14 C572.66,156.17 603.35,165.84 628,181 C645.94,192.04 662.09,209.6 673.4,223.84 " fill="none" id="Struct&lt;-Indicator" style="stroke: #A80036; stroke-width: 1.0;"/><polygon fill="none" points="545.2,156.99,527.04,146.05,548.05,143.28,545.2,156.99" style="stroke: #A80036; stroke-width: 1.0;"/><!--MD5=[5635cc4b99654f3c5c549950d77dd0db]
reverse link Atom to Truth--><path d="M303.03,291.54 C306.26,305.23 309.72,319.9 312.5,331.68 " fill="none" id="Atom&lt;-Truth" style="stroke: #A80036; stroke-width: 1.0;"/><polygon fill="none" points="296.2,293.07,298.42,272,309.83,289.86,296.2,293.07" style="stroke: #A80036; stroke-width: 1.0;"/><!--MD5=[898712309eb8fbecc3952bd38dd229e1]
reverse link Atom to Empty--><path d="M271,290.21 C259.69,317.46 251.41,353.02 268,380 C295.91,425.4 357.19,446.89 396.44,456.34 " fill="none" id="Atom&lt;-Empty" style="stroke: #A80036; stroke-width: 1.0;"/><polygon fill="none" points="264.66,287.24,279.45,272.07,277.35,293.15,264.66,287.24" style="stroke: #A80036; stroke-width: 1.0;"/><!--MD5=[fcda1a5f81290cc689640184bf09b76b]
link EmptyList to Empty--><path d="M531.44,380 C515.08,393.66 493.97,411.28 475.41,426.77 " fill="none" id="EmptyList-&gt;Empty" style="stroke: #A80036; stroke-width: 1.0;"/><polygon fill="none" points="479.78,432.24,459.94,439.68,470.81,421.49,479.78,432.24" style="stroke: #A80036; stroke-width: 1.0;"/><!--MD5=[f77ae7fd0ae1dd74853f2c96584f0d9c]
link EmptySet to Empty--><path d="M432,380 C432,391.59 432,406.03 432,419.6 " fill="none" id="EmptySet-&gt;Empty" style="stroke: #A80036; stroke-width: 1.0;"/><polygon fill="none" points="439,419.68,432,439.68,425,419.68,439,419.68" style="stroke: #A80036; stroke-width: 1.0;"/><!--MD5=[b5af1b3c3de85c746cad2571a0bb747a]
reverse link List to EmptyList--><path d="M573.97,291.54 C570.74,305.23 567.28,319.9 564.5,331.68 " fill="none" id="List&lt;-EmptyList" style="stroke: #A80036; stroke-width: 1.0;"/><polygon fill="none" points="567.17,289.86,578.58,272,580.8,293.07,567.17,289.86" style="stroke: #A80036; stroke-width: 1.0;"/><!--MD5=[86931e52732ee1979ef73de364a25d1a]
reverse link List to Cons--><path d="M615.76,287.7 C627.87,302.45 641.28,318.79 651.86,331.68 " fill="none" id="List&lt;-Cons" style="stroke: #A80036; stroke-width: 1.0;"/><polygon fill="none" points="610.16,291.9,602.88,272,620.98,283.02,610.16,291.9" style="stroke: #A80036; stroke-width: 1.0;"/><!--MD5=[076e2437ca024856018e343fbdab2d68]
reverse link Set to EmptySet--><path d="M409.08,291.06 C414.04,304.89 419.37,319.76 423.64,331.68 " fill="none" id="Set&lt;-EmptySet" style="stroke: #A80036; stroke-width: 1.0;"/><polygon fill="none" points="402.41,293.19,402.25,272,415.58,288.46,402.41,293.19" style="stroke: #A80036; stroke-width: 1.0;"/><!--MD5=[b7702a11f4d6cfaf0543be0d76476975]
reverse link Struct to Clause--><path d="M547.41,144.96 C612.86,150.43 717.12,161.84 751,181 C768.79,191.06 783.29,209.25 792.93,223.99 " fill="none" id="Struct&lt;-Clause" style="stroke: #A80036; stroke-width: 1.0;"/><polygon fill="none" points="546.65,151.92,527.27,143.36,547.76,137.97,546.65,151.92" style="stroke: #A80036; stroke-width: 1.0;"/><!--MD5=[f3bf6ee72f5e1a12bb542db493abdab0]
reverse link Clause to Rule--><path d="M802.75,292.02 C801.73,305.58 800.64,320.04 799.76,331.68 " fill="none" id="Clause&lt;-Rule" style="stroke: #A80036; stroke-width: 1.0;"/><polygon fill="none" points="795.78,291.42,804.26,272,809.74,292.47,795.78,291.42" style="stroke: #A80036; stroke-width: 1.0;"/><!--MD5=[528afe65e613338255b9ddfd2453915a]
reverse link Clause to Directive--><path d="M841.62,286.75 C855.76,301.74 871.58,318.51 884,331.68 " fill="none" id="Clause&lt;-Directive" style="stroke: #A80036; stroke-width: 1.0;"/><polygon fill="none" points="836.33,291.35,827.7,272,846.51,281.74,836.33,291.35" style="stroke: #A80036; stroke-width: 1.0;"/><!--MD5=[20e1b802e026257bc052a955cce88ea7]
reverse link Rule to Fact--><path d="M798,400.02 C798,413.58 798,428.04 798,439.68 " fill="none" id="Rule&lt;-Fact" style="stroke: #A80036; stroke-width: 1.0;"/><polygon fill="none" points="791,400,798,380,805,400,791,400" style="stroke: #A80036; stroke-width: 1.0;"/><!--MD5=[2597f0423145b355c4de41a2bf33e7f8]
@startuml
skinparam shadowing false

interface Term
interface Constant
interface Var
interface Struct
interface Numeric
interface Integer
interface Real
interface Atom
interface Truth
interface Indicator
interface Empty
interface EmptySet
interface EmptyList
interface List
interface Cons
interface Set
interface Tuple

Term <|-down- Struct
Term <|-down- Constant
Term <|-down- Var

Constant <|-down- Numeric
Constant <|-down- Atom

Numeric <|-down- Real
Numeric <|-down- Integer

Struct <|-down- Atom
Struct <|-down- List
Struct <|-down- Tuple
Struct <|-down- Set
Struct <|-down- Indicator

Atom <|-down- Truth
Atom <|-down- Empty

Empty <|-up- EmptyList
Empty <|-up- EmptySet

List <|-down- EmptyList
List <|-down- Cons
Set <|-down- EmptySet

package clauses <<Rectangle>> {

    interface Clause
    interface Rule
    interface Directive
    interface Fact
    Struct <|-down- Clause
    Clause <|-down- Rule
    Clause <|-down- Directive
    Rule <|-down- Fact

}
@enduml

PlantUML version 1.2020.02(Sun Mar 01 11:22:07 CET 2020)
(GPL source distribution)
Java Runtime: OpenJDK Runtime Environment
JVM: OpenJDK 64-Bit Server VM
Java Version: 11.0.10+9
Operating System: Linux
Default Encoding: UTF-8
Language: it
Country: IT
--></g></svg>