<?xml version="1.0" encoding="UTF-8" standalone="no"?>
<svg xmlns="http://www.w3.org/2000/svg" xmlns:xlink="http://www.w3.org/1999/xlink" contentScriptType="application/ecmascript" contentStyleType="text/css" height="235px" preserveAspectRatio="none" style="width:411px;height:235px;background:#FFFFFF;" version="1.1" viewBox="0 0 411 235" width="411px" zoomAndPan="magnify"><defs><filter height="300%" id="f1unb58htu40tl" width="300%" x="-1" y="-1"><feGaussianBlur result="blurOut" stdDeviation="2.0"/><feColorMatrix in="blurOut" result="blurOut2" type="matrix" values="0 0 0 0 0 0 0 0 0 0 0 0 0 0 0 0 0 0 .4 0"/><feOffset dx="4.0" dy="4.0" in="blurOut2" result="blurOut3"/><feBlend in="SourceGraphic" in2="blurOut3" mode="normal"/></filter></defs><g><!--MD5=[9d35236b92952560f647498cf8a29acb]
class Term--><rect codeLine="1" fill="#FEFECE" filter="url(#f1unb58htu40tl)" height="214.4609" id="Term" style="stroke:#A80036;stroke-width:1.5;" width="390" x="7" y="7"/><ellipse cx="182.25" cy="23" fill="#B4A7E5" rx="11" ry="11" style="stroke:#A80036;stroke-width:1.0;"/><path d="M183.2031,19.7813 L184.9219,19.7813 C185.3125,19.7813 185.5,19.75 185.625,19.6719 C185.8906,19.5156 186.0313,19.2344 186.0313,18.9375 C186.0313,18.6719 185.9219,18.4063 185.6875,18.2344 C185.5156,18.125 185.375,18.0938 184.9219,18.0938 L179.7813,18.0938 C179.3438,18.0938 179.2188,18.1094 179.0625,18.2031 C178.8125,18.3594 178.6563,18.6563 178.6563,18.9375 C178.6563,19.2188 178.7969,19.4688 179.0156,19.6406 C179.1719,19.75 179.3594,19.7813 179.7813,19.7813 L181.5,19.7813 L181.5,26.2969 L179.7813,26.2969 C179.3438,26.2969 179.2188,26.3125 179.0625,26.4219 C178.8125,26.5781 178.6563,26.8594 178.6563,27.1563 C178.6563,27.4063 178.7969,27.6719 179.0156,27.8281 C179.1719,27.9531 179.375,28 179.7813,28 L184.9219,28 C185.6719,28 186.0313,27.7188 186.0313,27.1563 C186.0313,26.875 185.9219,26.625 185.6875,26.4531 C185.5156,26.3281 185.375,26.2969 184.9219,26.2969 L183.2031,26.2969 L183.2031,19.7813 Z " fill="#000000"/><text fill="#000000" font-family="sans-serif" font-size="12" font-style="italic" lengthAdjust="spacing" textLength="31" x="202.75" y="27.1543">Term</text><line style="stroke:#A80036;stroke-width:1.5;" x1="8" x2="396" y1="39" y2="39"/><ellipse cx="18" cy="50" rx="3" ry="3" style="stroke:#038048;stroke-width:1.0;fill:none;"/><text fill="#000000" font-family="sans-serif" font-size="11" lengthAdjust="spacing" textLength="104" x="27" y="53.2104">isGround: Boolean</text><ellipse cx="18" cy="62.8047" rx="3" ry="3" style="stroke:#038048;stroke-width:1.0;fill:none;"/><text fill="#000000" font-family="sans-serif" font-size="11" lengthAdjust="spacing" textLength="155" x="27" y="66.0151">variables: Sequence&lt;Var&gt;</text><line style="stroke:#A80036;stroke-width:1.5;" x1="8" x2="396" y1="72.6094" y2="72.6094"/><ellipse cx="18" cy="83.6094" fill="#84BE84" rx="3" ry="3" style="stroke:#038048;stroke-width:1.0;"/><text fill="#000000" font-family="sans-serif" font-size="11" lengthAdjust="spacing" textLength="96" x="27" y="86.8198">is&lt;T&gt;(): Boolean</text><ellipse cx="18" cy="96.4141" fill="#84BE84" rx="3" ry="3" style="stroke:#038048;stroke-width:1.0;"/><text fill="#000000" font-family="sans-serif" font-size="11" lengthAdjust="spacing" textLength="100" x="27" y="99.6245">as&lt;T&gt;(): Boolean</text><ellipse cx="18" cy="109.2188" fill="#84BE84" rx="3" ry="3" style="stroke:#038048;stroke-width:1.0;"/><text fill="#000000" font-family="sans-serif" font-size="11" lengthAdjust="spacing" textLength="124" x="27" y="112.4292">castTo&lt;T&gt;(): Boolean</text><ellipse cx="18" cy="122.0234" fill="#84BE84" rx="3" ry="3" style="stroke:#038048;stroke-width:1.0;"/><text fill="#000000" font-family="sans-serif" font-size="11" lengthAdjust="spacing" textLength="159" x="27" y="125.2339">equals(other: Any): Boolean</text><ellipse cx="18" cy="134.8281" fill="#84BE84" rx="3" ry="3" style="stroke:#038048;stroke-width:1.0;"/><text fill="#000000" font-family="sans-serif" font-size="11" lengthAdjust="spacing" textLength="364" x="27" y="138.0386">equals(other: Term, useVarCompleteNames: Boolean): Boolean</text><ellipse cx="18" cy="147.6328" fill="#84BE84" rx="3" ry="3" style="stroke:#038048;stroke-width:1.0;"/><text fill="#000000" font-family="sans-serif" font-size="11" lengthAdjust="spacing" textLength="228" x="27" y="150.8433">structurallyEquals(other: Term): Boolean</text><ellipse cx="18" cy="160.4375" fill="#84BE84" rx="3" ry="3" style="stroke:#038048;stroke-width:1.0;"/><text fill="#000000" font-family="sans-serif" font-size="11" lengthAdjust="spacing" textLength="103" x="27" y="163.6479">freshCopy(): Term</text><ellipse cx="18" cy="173.2422" fill="#84BE84" rx="3" ry="3" style="stroke:#038048;stroke-width:1.0;"/><text fill="#000000" font-family="sans-serif" font-size="11" lengthAdjust="spacing" textLength="215" x="27" y="176.4526">apply(substitution: Substitution): Term</text><ellipse cx="18" cy="186.0469" fill="#84BE84" rx="3" ry="3" style="stroke:#038048;stroke-width:1.0;"/><text fill="#000000" font-family="sans-serif" font-size="11" lengthAdjust="spacing" textLength="216" x="27" y="189.2573">accept&lt;T&gt;(visitor: TermVisitor&lt;T&gt;): T</text><ellipse cx="18" cy="198.8516" fill="#84BE84" rx="3" ry="3" style="stroke:#038048;stroke-width:1.0;"/><text fill="#000000" font-family="sans-serif" font-size="11" lengthAdjust="spacing" textLength="160" x="27" y="202.062">compareTo(other: Term): Int</text><ellipse cx="18" cy="211.6563" fill="#84BE84" rx="3" ry="3" style="stroke:#038048;stroke-width:1.0;"/><text fill="#000000" font-family="sans-serif" font-size="11" lengthAdjust="spacing" textLength="92" x="27" y="214.8667">toString(): String</text><!--MD5=[94d0dd768c2679b25b16388f12797c5f]
@startuml
interface Term {
  + isGround: Boolean
  + variables: Sequence<Var>
  + is<T>(): Boolean
  + as<T>(): Boolean
  + castTo<T>(): Boolean
  + equals(other: Any): Boolean
  + equals(other: Term, useVarCompleteNames: Boolean): Boolean
  + structurallyEquals(other: Term): Boolean
  + freshCopy(): Term
  + apply(substitution: Substitution): Term
  + accept<T>(visitor: TermVisitor<T>): T
  + compareTo(other: Term): Int 
  + toString(): String
}
@enduml

PlantUML version 1.2021.6beta6(Unknown compile time)
(GPL source distribution)
Java Runtime: Java(TM) SE Runtime Environment
JVM: Java HotSpot(TM) 64-Bit Server VM
Default Encoding: UTF-8
Language: en
Country: US
--></g></svg>