<?xml version="1.0" encoding="UTF-8" standalone="no"?>
<svg xmlns="http://www.w3.org/2000/svg" xmlns:xlink="http://www.w3.org/1999/xlink" contentScriptType="application/ecmascript" contentStyleType="text/css" height="94px" preserveAspectRatio="none" style="width:512px;height:94px;background:#FFFFFF;" version="1.1" viewBox="0 0 512 94" width="512px" zoomAndPan="magnify"><defs><filter height="300%" id="f1g9xn0rxnvbk8" width="300%" x="-1" y="-1"><feGaussianBlur result="blurOut" stdDeviation="2.0"/><feColorMatrix in="blurOut" result="blurOut2" type="matrix" values="0 0 0 0 0 0 0 0 0 0 0 0 0 0 0 0 0 0 .4 0"/><feOffset dx="4.0" dy="4.0" in="blurOut2" result="blurOut3"/><feBlend in="SourceGraphic" in2="blurOut3" mode="normal"/></filter></defs><g><!--MD5=[9d35236b92952560f647498cf8a29acb]
class Term--><rect codeLine="3" fill="#FEFECE" filter="url(#f1g9xn0rxnvbk8)" height="48" id="Term" style="stroke:#A80036;stroke-width:1.5;" width="63" x="7" y="20"/><ellipse cx="22" cy="36" fill="#B4A7E5" rx="11" ry="11" style="stroke:#A80036;stroke-width:1.0;"/><path d="M22.9531,32.7813 L24.6719,32.7813 C25.0625,32.7813 25.25,32.75 25.375,32.6719 C25.6406,32.5156 25.7813,32.2344 25.7813,31.9375 C25.7813,31.6719 25.6719,31.4063 25.4375,31.2344 C25.2656,31.125 25.125,31.0938 24.6719,31.0938 L19.5313,31.0938 C19.0938,31.0938 18.9688,31.1094 18.8125,31.2031 C18.5625,31.3594 18.4063,31.6563 18.4063,31.9375 C18.4063,32.2188 18.5469,32.4688 18.7656,32.6406 C18.9219,32.75 19.1094,32.7813 19.5313,32.7813 L21.25,32.7813 L21.25,39.2969 L19.5313,39.2969 C19.0938,39.2969 18.9688,39.3125 18.8125,39.4219 C18.5625,39.5781 18.4063,39.8594 18.4063,40.1563 C18.4063,40.4063 18.5469,40.6719 18.7656,40.8281 C18.9219,40.9531 19.125,41 19.5313,41 L24.6719,41 C25.4219,41 25.7813,40.7188 25.7813,40.1563 C25.7813,39.875 25.6719,39.625 25.4375,39.4531 C25.2656,39.3281 25.125,39.2969 24.6719,39.2969 L22.9531,39.2969 L22.9531,32.7813 Z " fill="#000000"/><text fill="#000000" font-family="sans-serif" font-size="12" font-style="italic" lengthAdjust="spacing" textLength="31" x="36" y="40.1543">Term</text><line style="stroke:#A80036;stroke-width:1.5;" x1="8" x2="69" y1="52" y2="52"/><line style="stroke:#A80036;stroke-width:1.5;" x1="8" x2="69" y1="60" y2="60"/><!--MD5=[eb0f4986160aea42d9ece72995cb24c7]
class Struct--><rect codeLine="4" fill="#FEFECE" filter="url(#f1g9xn0rxnvbk8)" height="48" id="Struct" style="stroke:#A80036;stroke-width:1.5;" width="70" x="130" y="20"/><ellipse cx="145" cy="36" fill="#B4A7E5" rx="11" ry="11" style="stroke:#A80036;stroke-width:1.0;"/><path d="M145.9531,32.7813 L147.6719,32.7813 C148.0625,32.7813 148.25,32.75 148.375,32.6719 C148.6406,32.5156 148.7813,32.2344 148.7813,31.9375 C148.7813,31.6719 148.6719,31.4063 148.4375,31.2344 C148.2656,31.125 148.125,31.0938 147.6719,31.0938 L142.5313,31.0938 C142.0938,31.0938 141.9688,31.1094 141.8125,31.2031 C141.5625,31.3594 141.4063,31.6563 141.4063,31.9375 C141.4063,32.2188 141.5469,32.4688 141.7656,32.6406 C141.9219,32.75 142.1094,32.7813 142.5313,32.7813 L144.25,32.7813 L144.25,39.2969 L142.5313,39.2969 C142.0938,39.2969 141.9688,39.3125 141.8125,39.4219 C141.5625,39.5781 141.4063,39.8594 141.4063,40.1563 C141.4063,40.4063 141.5469,40.6719 141.7656,40.8281 C141.9219,40.9531 142.125,41 142.5313,41 L147.6719,41 C148.4219,41 148.7813,40.7188 148.7813,40.1563 C148.7813,39.875 148.6719,39.625 148.4375,39.4531 C148.2656,39.3281 148.125,39.2969 147.6719,39.2969 L145.9531,39.2969 L145.9531,32.7813 Z " fill="#000000"/><text fill="#000000" font-family="sans-serif" font-size="12" font-style="italic" lengthAdjust="spacing" textLength="38" x="159" y="40.1543">Struct</text><line style="stroke:#A80036;stroke-width:1.5;" x1="131" x2="199" y1="52" y2="52"/><line style="stroke:#A80036;stroke-width:1.5;" x1="131" x2="199" y1="60" y2="60"/><!--MD5=[c160724f8e3bb89ca8141a12554ac2e3]
class Collection--><rect codeLine="5" fill="#FEFECE" filter="url(#f1g9xn0rxnvbk8)" height="48" id="Collection" style="stroke:#A80036;stroke-width:1.5;" width="90" x="260" y="20"/><ellipse cx="275" cy="36" fill="#B4A7E5" rx="11" ry="11" style="stroke:#A80036;stroke-width:1.0;"/><path d="M275.9531,32.7813 L277.6719,32.7813 C278.0625,32.7813 278.25,32.75 278.375,32.6719 C278.6406,32.5156 278.7813,32.2344 278.7813,31.9375 C278.7813,31.6719 278.6719,31.4063 278.4375,31.2344 C278.2656,31.125 278.125,31.0938 277.6719,31.0938 L272.5313,31.0938 C272.0938,31.0938 271.9688,31.1094 271.8125,31.2031 C271.5625,31.3594 271.4063,31.6563 271.4063,31.9375 C271.4063,32.2188 271.5469,32.4688 271.7656,32.6406 C271.9219,32.75 272.1094,32.7813 272.5313,32.7813 L274.25,32.7813 L274.25,39.2969 L272.5313,39.2969 C272.0938,39.2969 271.9688,39.3125 271.8125,39.4219 C271.5625,39.5781 271.4063,39.8594 271.4063,40.1563 C271.4063,40.4063 271.5469,40.6719 271.7656,40.8281 C271.9219,40.9531 272.125,41 272.5313,41 L277.6719,41 C278.4219,41 278.7813,40.7188 278.7813,40.1563 C278.7813,39.875 278.6719,39.625 278.4375,39.4531 C278.2656,39.3281 278.125,39.2969 277.6719,39.2969 L275.9531,39.2969 L275.9531,32.7813 Z " fill="#000000"/><text fill="#000000" font-family="sans-serif" font-size="12" font-style="italic" lengthAdjust="spacing" textLength="58" x="289" y="40.1543">Collection</text><line style="stroke:#A80036;stroke-width:1.5;" x1="261" x2="349" y1="52" y2="52"/><line style="stroke:#A80036;stroke-width:1.5;" x1="261" x2="349" y1="60" y2="60"/><!--MD5=[064889823136230ed73fb5238d2f9216]
class Tuple--><rect codeLine="7" fill="#FEFECE" filter="url(#f1g9xn0rxnvbk8)" height="73.6094" id="Tuple" style="stroke:#A80036;stroke-width:1.5;" width="88" x="410" y="7"/><ellipse cx="435.35" cy="23" fill="#B4A7E5" rx="11" ry="11" style="stroke:#A80036;stroke-width:1.0;"/><path d="M436.3031,19.7813 L438.0219,19.7813 C438.4125,19.7813 438.6,19.75 438.725,19.6719 C438.9906,19.5156 439.1313,19.2344 439.1313,18.9375 C439.1313,18.6719 439.0219,18.4063 438.7875,18.2344 C438.6156,18.125 438.475,18.0938 438.0219,18.0938 L432.8813,18.0938 C432.4438,18.0938 432.3188,18.1094 432.1625,18.2031 C431.9125,18.3594 431.7563,18.6563 431.7563,18.9375 C431.7563,19.2188 431.8969,19.4688 432.1156,19.6406 C432.2719,19.75 432.4594,19.7813 432.8813,19.7813 L434.6,19.7813 L434.6,26.2969 L432.8813,26.2969 C432.4438,26.2969 432.3188,26.3125 432.1625,26.4219 C431.9125,26.5781 431.7563,26.8594 431.7563,27.1563 C431.7563,27.4063 431.8969,27.6719 432.1156,27.8281 C432.2719,27.9531 432.475,28 432.8813,28 L438.0219,28 C438.7719,28 439.1313,27.7188 439.1313,27.1563 C439.1313,26.875 439.0219,26.625 438.7875,26.4531 C438.6156,26.3281 438.475,26.2969 438.0219,26.2969 L436.3031,26.2969 L436.3031,19.7813 Z " fill="#000000"/><text fill="#000000" font-family="sans-serif" font-size="12" font-style="italic" lengthAdjust="spacing" textLength="33" x="451.65" y="27.1543">Tuple</text><line style="stroke:#A80036;stroke-width:1.5;" x1="411" x2="497" y1="39" y2="39"/><ellipse cx="421" cy="50" rx="3" ry="3" style="stroke:#038048;stroke-width:1.0;fill:none;"/><text fill="#000000" font-family="sans-serif" font-size="11" lengthAdjust="spacing" textLength="56" x="430" y="53.2104">left: Term</text><ellipse cx="421" cy="62.8047" rx="3" ry="3" style="stroke:#038048;stroke-width:1.0;fill:none;"/><text fill="#000000" font-family="sans-serif" font-size="11" lengthAdjust="spacing" textLength="62" x="430" y="66.0151">right: Term</text><line style="stroke:#A80036;stroke-width:1.5;" x1="411" x2="497" y1="72.6094" y2="72.6094"/><!--MD5=[f626f12429d76bc694cd64f7f069082d]
reverse link Term to Struct--><path codeLine="15" d="M90.6401,44 C103.7691,44 117.579,44 129.632,44 " fill="none" id="Term-backto-Struct" style="stroke:#A80036;stroke-width:1.0;"/><polygon fill="none" points="90.2753,50.9999,70.2753,44,90.2753,36.9999,90.2753,50.9999" style="stroke:#A80036;stroke-width:1.0;"/><!--MD5=[5d5281d9d86ea5bbb09f5d4bbd5d543a]
reverse link Struct to Collection--><path codeLine="16" d="M220.42,44 C233.497,44 247.308,44 259.853,44 " fill="none" id="Struct-backto-Collection" style="stroke:#A80036;stroke-width:1.0;"/><polygon fill="none" points="220.112,50.9999,200.112,44,220.112,36.9999,220.112,50.9999" style="stroke:#A80036;stroke-width:1.0;"/><!--MD5=[080c87522df2a2680f980ab69ceea513]
reverse link Collection to Tuple--><path codeLine="18" d="M370.488,44 C383.834,44 397.583,44 409.938,44 " fill="none" id="Collection-backto-Tuple" style="stroke:#A80036;stroke-width:1.0;"/><polygon fill="none" points="370.105,50.9999,350.105,44,370.105,36.9999,370.105,50.9999" style="stroke:#A80036;stroke-width:1.0;"/><!--MD5=[15bc334da3f215c3c149785f0967b235]
@startuml
left to right direction

interface Term
interface Struct
interface Collection

interface Tuple {
  + left: Term
  + right: Term
  ' + {static} of(left: Term, right: Term): Tuple
  ' + {static} of(**varargs** items: Term): Tuple
  ' + {static} of(items: Iterable<Term>): Tuple
}

Term <|- - Struct
Struct <|- - Collection

Collection <|- - Tuple
@enduml

@startuml
left to right direction

interface Term
interface Struct
interface Collection

interface Tuple {
  + left: Term
  + right: Term
}

Term <|- - Struct
Struct <|- - Collection

Collection <|- - Tuple
@enduml

PlantUML version 1.2021.6beta6(Unknown compile time)
(GPL source distribution)
Java Runtime: Java(TM) SE Runtime Environment
JVM: Java HotSpot(TM) 64-Bit Server VM
Default Encoding: UTF-8
Language: en
Country: US
--></g></svg>