<?xml version="1.0" encoding="UTF-8" standalone="no"?>
<svg xmlns="http://www.w3.org/2000/svg" xmlns:xlink="http://www.w3.org/1999/xlink" contentScriptType="application/ecmascript" contentStyleType="text/css" height="94px" preserveAspectRatio="none" style="width:323px;height:94px;background:#FFFFFF;" version="1.1" viewBox="0 0 323 94" width="323px" zoomAndPan="magnify"><defs><filter height="300%" id="f1d5w0d7jmmkn0" width="300%" x="-1" y="-1"><feGaussianBlur result="blurOut" stdDeviation="2.0"/><feColorMatrix in="blurOut" result="blurOut2" type="matrix" values="0 0 0 0 0 0 0 0 0 0 0 0 0 0 0 0 0 0 .4 0"/><feOffset dx="4.0" dy="4.0" in="blurOut2" result="blurOut3"/><feBlend in="SourceGraphic" in2="blurOut3" mode="normal"/></filter></defs><g><!--MD5=[73335f77eb77e9f89894dce8ee492a47]
class TypeFactory--><rect codeLine="1" fill="#FEFECE" filter="url(#f1d5w0d7jmmkn0)" height="73.6094" id="TypeFactory" style="stroke:#A80036;stroke-width:1.5;" width="302" x="7" y="7"/><ellipse cx="116.75" cy="23" fill="#B4A7E5" rx="11" ry="11" style="stroke:#A80036;stroke-width:1.0;"/><path d="M117.7031,19.7813 L119.4219,19.7813 C119.8125,19.7813 120,19.75 120.125,19.6719 C120.3906,19.5156 120.5313,19.2344 120.5313,18.9375 C120.5313,18.6719 120.4219,18.4063 120.1875,18.2344 C120.0156,18.125 119.875,18.0938 119.4219,18.0938 L114.2813,18.0938 C113.8438,18.0938 113.7188,18.1094 113.5625,18.2031 C113.3125,18.3594 113.1563,18.6563 113.1563,18.9375 C113.1563,19.2188 113.2969,19.4688 113.5156,19.6406 C113.6719,19.75 113.8594,19.7813 114.2813,19.7813 L116,19.7813 L116,26.2969 L114.2813,26.2969 C113.8438,26.2969 113.7188,26.3125 113.5625,26.4219 C113.3125,26.5781 113.1563,26.8594 113.1563,27.1563 C113.1563,27.4063 113.2969,27.6719 113.5156,27.8281 C113.6719,27.9531 113.875,28 114.2813,28 L119.4219,28 C120.1719,28 120.5313,27.7188 120.5313,27.1563 C120.5313,26.875 120.4219,26.625 120.1875,26.4531 C120.0156,26.3281 119.875,26.2969 119.4219,26.2969 L117.7031,26.2969 L117.7031,19.7813 Z " fill="#000000"/><text fill="#000000" font-family="sans-serif" font-size="12" font-style="italic" lengthAdjust="spacing" textLength="74" x="137.25" y="27.1543">TypeFactory</text><line style="stroke:#A80036;stroke-width:1.5;" x1="8" x2="308" y1="39" y2="39"/><line style="stroke:#A80036;stroke-width:1.5;" x1="8" x2="308" y1="47" y2="47"/><ellipse cx="18" cy="58" fill="#84BE84" rx="3" ry="3" style="stroke:#038048;stroke-width:1.0;"/><text fill="#000000" font-family="sans-serif" font-size="11" lengthAdjust="spacing" textLength="270" x="27" y="61.2104">typeFromName(typeName: String): KClass&lt;*&gt;?</text><ellipse cx="18" cy="70.8047" fill="#84BE84" rx="3" ry="3" style="stroke:#038048;stroke-width:1.0;"/><text fill="#000000" font-family="sans-serif" font-size="11" lengthAdjust="spacing" textLength="276" x="27" y="74.0151">typeRefFromName(typeName: String): TypeRef?</text><!--MD5=[f4582d2d533988ac52b7aa9105f3bb44]
@startuml
interface TypeFactory {
    + typeFromName(typeName: String): KClass<*>?
    + typeRefFromName(typeName: String): TypeRef?
}
@enduml

PlantUML version 1.2021.6beta6(Unknown compile time)
(GPL source distribution)
Java Runtime: Java(TM) SE Runtime Environment
JVM: Java HotSpot(TM) 64-Bit Server VM
Default Encoding: UTF-8
Language: en
Country: US
--></g></svg>