<?xml version="1.0" encoding="UTF-8" standalone="no"?><svg xmlns="http://www.w3.org/2000/svg" xmlns:xlink="http://www.w3.org/1999/xlink" contentScriptType="application/ecmascript" contentStyleType="text/css" height="251px" preserveAspectRatio="none" style="width:422px;height:251px;" version="1.1" viewBox="0 0 422 251" width="422px" zoomAndPan="magnify"><defs><filter height="300%" id="f18abgro4m8ury" width="300%" x="-1" y="-1"><feGaussianBlur result="blurOut" stdDeviation="2.0"/><feColorMatrix in="blurOut" result="blurOut2" type="matrix" values="0 0 0 0 0 0 0 0 0 0 0 0 0 0 0 0 0 0 .4 0"/><feOffset dx="4.0" dy="4.0" in="blurOut2" result="blurOut3"/><feBlend in="SourceGraphic" in2="blurOut3" mode="normal"/></filter></defs><g><!--MD5=[8082c4f664cfaa166b12e9b1877f0f83]
class AbstractUnificator--><rect codeLine="13" fill="#FEFECE" filter="url(#f18abgro4m8ury)" height="53.8359" id="AbstractUnificator" style="stroke:#A80036;stroke-width:1.5;" width="239" x="7" y="184"/><ellipse cx="73.75" cy="200" fill="#A9DCDF" rx="11" ry="11" style="stroke:#A80036;stroke-width:1.0;"/><path d="M75.9375,201.7656 L71.7969,201.7656 L71.375,202.7969 L71.7969,202.7969 Q72.4063,202.7969 72.6719,203.0313 Q72.9375,203.2656 72.9375,203.6563 Q72.9375,204.0313 72.6719,204.2656 Q72.4063,204.5 71.7969,204.5 L69.5,204.5 Q68.8906,204.5 68.6406,204.2656 Q68.375,204.0313 68.375,203.6406 Q68.375,203.2656 68.6563,203.0313 Q68.9219,202.7813 69.5469,202.7969 L72.2188,196.1406 L71.1094,196.1406 Q70.5,196.1406 70.2344,195.9063 Q69.9688,195.6719 69.9688,195.2813 Q69.9688,194.9063 70.2344,194.6719 Q70.5,194.4375 71.1094,194.4375 L74.7813,194.4375 L78.1719,202.7969 Q78.7656,202.7969 78.9531,202.9375 Q79.3438,203.2031 79.3438,203.6563 Q79.3438,204.0313 79.0781,204.2656 Q78.8281,204.5 78.2188,204.5 L75.9219,204.5 Q75.3125,204.5 75.0469,204.2656 Q74.7813,204.0313 74.7813,203.6406 Q74.7813,203.2656 75.0469,203.0313 Q75.3125,202.7969 75.9219,202.7969 L76.3438,202.7969 L75.9375,201.7656 Z M75.2188,200.0625 L73.8594,196.6875 L72.4844,200.0625 L75.2188,200.0625 Z " fill="#000000"/><text fill="#000000" font-family="sans-serif" font-size="12" font-style="italic" lengthAdjust="spacing" textLength="97" x="94.25" y="204.9102">AbstractUnificator</text><line style="stroke:#A80036;stroke-width:1.5;" x1="8" x2="245" y1="216" y2="216"/><ellipse cx="18" cy="227" fill="#84BE84" rx="3" ry="3" style="stroke:#038048;stroke-width:1.0;"/><text fill="#000000" font-family="sans-serif" font-size="11" font-style="italic" lengthAdjust="spacing" textLength="213" x="27" y="231.4189">checkTermsEquality(Term, Term): Boolean</text><!--MD5=[e467b6be6bf054f6d9ecb064456e8cab]
class CachedUnificator--><rect codeLine="17" fill="#FEFECE" filter="url(#f18abgro4m8ury)" height="53.8359" id="CachedUnificator" style="stroke:#A80036;stroke-width:1.5;" width="127" x="281" y="184"/><ellipse cx="296" cy="200" fill="#ADD1B2" rx="11" ry="11" style="stroke:#A80036;stroke-width:1.0;"/><path d="M298.7656,195.875 Q298.9219,195.6563 299.1094,195.5469 Q299.2969,195.4375 299.5156,195.4375 Q299.8906,195.4375 300.125,195.7031 Q300.3594,195.9531 300.3594,196.5625 L300.3594,198.0156 Q300.3594,198.625 300.125,198.8906 Q299.8906,199.1563 299.5156,199.1563 Q299.1719,199.1563 298.9688,198.9531 Q298.7656,198.7656 298.6563,198.25 Q298.6094,197.8906 298.4219,197.7031 Q298.0938,197.3281 297.4844,197.1094 Q296.875,196.8906 296.25,196.8906 Q295.4844,196.8906 294.8438,197.2188 Q294.2188,197.5469 293.7188,198.2969 Q293.2344,199.0469 293.2344,200.0781 L293.2344,201.1719 Q293.2344,202.4063 294.125,203.2344 Q295.0156,204.0469 296.6094,204.0469 Q297.5469,204.0469 298.2031,203.7969 Q298.5938,203.6406 299.0156,203.2031 Q299.2813,202.9375 299.4219,202.8594 Q299.5781,202.7813 299.7813,202.7813 Q300.1094,202.7813 300.3594,203.0469 Q300.625,203.2969 300.625,203.6406 Q300.625,203.9844 300.2813,204.3906 Q299.7813,204.9688 298.9844,205.2969 Q297.9063,205.75 296.6094,205.75 Q295.0938,205.75 293.8906,205.125 Q292.9063,204.625 292.2188,203.5625 Q291.5313,202.4844 291.5313,201.2031 L291.5313,200.0469 Q291.5313,198.7188 292.1406,197.5781 Q292.7656,196.4219 293.8594,195.8125 Q294.9531,195.1875 296.1875,195.1875 Q296.9219,195.1875 297.5625,195.3594 Q298.2188,195.5156 298.7656,195.875 Z " fill="#000000"/><text fill="#000000" font-family="sans-serif" font-size="12" lengthAdjust="spacing" textLength="95" x="310" y="204.9102">CachedUnificator</text><line style="stroke:#A80036;stroke-width:1.5;" x1="282" x2="407" y1="216" y2="216"/><ellipse cx="292" cy="227" fill="none" rx="3" ry="3" style="stroke:#038048;stroke-width:1.0;"/><text fill="#000000" font-family="sans-serif" font-size="11" lengthAdjust="spacing" textLength="101" x="301" y="231.4189">decorated: Unificator</text><!--MD5=[f07c8db1113be1d2deec2d7257bc5d1d]
class Unificator--><rect codeLine="5" fill="#FEFECE" filter="url(#f18abgro4m8ury)" height="117.1797" id="Unificator" style="stroke:#A80036;stroke-width:1.5;" width="244" x="113.5" y="7"/><ellipse cx="205.25" cy="23" fill="#B4A7E5" rx="11" ry="11" style="stroke:#A80036;stroke-width:1.0;"/><path d="M206.2031,19.6406 L206.2031,26.2969 L207.9219,26.2969 Q208.5313,26.2969 208.7969,26.5313 Q209.0625,26.7656 209.0625,27.1563 Q209.0625,27.5313 208.7969,27.7656 Q208.5313,28 207.9219,28 L202.7813,28 Q202.1719,28 201.9063,27.7656 Q201.6406,27.5313 201.6406,27.1406 Q201.6406,26.7656 201.9063,26.5313 Q202.1719,26.2969 202.7813,26.2969 L204.5,26.2969 L204.5,19.6406 L202.7813,19.6406 Q202.1719,19.6406 201.9063,19.4063 Q201.6406,19.1719 201.6406,18.7813 Q201.6406,18.4063 201.9063,18.1719 Q202.1719,17.9375 202.7813,17.9375 L207.9219,17.9375 Q208.5313,17.9375 208.7969,18.1719 Q209.0625,18.4063 209.0625,18.7813 Q209.0625,19.1719 208.7969,19.4063 Q208.5313,19.6406 207.9219,19.6406 L206.2031,19.6406 Z " fill="#000000"/><text fill="#000000" font-family="sans-serif" font-size="12" font-style="italic" lengthAdjust="spacing" textLength="52" x="225.75" y="27.9102">Unificator</text><line style="stroke:#A80036;stroke-width:1.5;" x1="114.5" x2="356.5" y1="39" y2="39"/><ellipse cx="124.5" cy="50" fill="none" rx="3" ry="3" style="stroke:#038048;stroke-width:1.0;"/><text fill="#000000" font-family="sans-serif" font-size="11" lengthAdjust="spacing" textLength="98" x="133.5" y="54.4189">context: Substitution</text><line style="stroke:#A80036;stroke-width:1.5;" x1="114.5" x2="356.5" y1="60.8359" y2="60.8359"/><ellipse cx="124.5" cy="71.8359" fill="#84BE84" rx="3" ry="3" style="stroke:#038048;stroke-width:1.0;"/><text fill="#000000" font-family="sans-serif" font-size="11" lengthAdjust="spacing" textLength="136" x="133.5" y="76.2549">match(Term, Term): Boolean</text><ellipse cx="124.5" cy="85.6719" fill="#84BE84" rx="3" ry="3" style="stroke:#038048;stroke-width:1.0;"/><text fill="#000000" font-family="sans-serif" font-size="11" lengthAdjust="spacing" textLength="144" x="133.5" y="90.0908">mgu(Term, Term): Substitution</text><ellipse cx="124.5" cy="99.5078" fill="#84BE84" rx="3" ry="3" style="stroke:#038048;stroke-width:1.0;"/><text fill="#000000" font-family="sans-serif" font-size="11" lengthAdjust="spacing" textLength="122" x="133.5" y="103.9268">unify(Term, Term): Term?</text><ellipse cx="124.5" cy="113.3438" fill="#84BE84" rx="3" ry="3" style="stroke:#038048;stroke-width:1.0;"/><text fill="#000000" font-family="sans-serif" font-size="11" lengthAdjust="spacing" textLength="218" x="133.5" y="117.7627">merge(Substitution, Substitution): Substitution</text><!--MD5=[92dbbcc73130df836718ad23e019b787]
reverse link Unificator to AbstractUnificator--><path codeLine="21" d="M179.45,140.29 C167.56,155.95 155.75,171.49 146.32,183.9 " fill="none" id="Unificator-backto-AbstractUnificator" style="stroke:#A80036;stroke-width:1.0;stroke-dasharray:7.0,7.0;"/><polygon fill="none" points="174.12,135.73,191.79,124.04,185.27,144.2,174.12,135.73" style="stroke:#A80036;stroke-width:1.0;"/><!--MD5=[03b61e28eb950afd248e8d4e8ae3ec82]
reverse link Unificator to CachedUnificator--><path codeLine="22" d="M291.55,140.29 C303.44,155.95 315.25,171.49 324.68,183.9 " fill="none" id="Unificator-backto-CachedUnificator" style="stroke:#A80036;stroke-width:1.0;stroke-dasharray:7.0,7.0;"/><polygon fill="none" points="285.73,144.2,279.21,124.04,296.88,135.73,285.73,144.2" style="stroke:#A80036;stroke-width:1.0;"/><!--MD5=[b52282e67b5c347ffa8875b7b86ffb66]
@startuml unify

hide AbstractUnificator fields
hide CachedUnificator methods

interface Unificator {
    + context: Substitution
    + match(Term, Term): Boolean
    + mgu(Term, Term): Substitution
    + unify(Term, Term): Term?
    + merge(Substitution, Substitution): Substitution
}

abstract class AbstractUnificator {
    {abstract} + checkTermsEquality(Term, Term): Boolean
}

class CachedUnificator {
    + decorated: Unificator
}

Unificator <|.. AbstractUnificator
Unificator <|.. CachedUnificator

@enduml

PlantUML version 1.2021.00(Sun Jan 10 11:25:05 CET 2021)
(GPL source distribution)
Java Runtime: OpenJDK Runtime Environment
JVM: OpenJDK 64-Bit Server VM
Default Encoding: Cp1252
Language: en
Country: US
--></g></svg>