<?xml version="1.0" encoding="UTF-8" standalone="no"?>
<svg xmlns="http://www.w3.org/2000/svg" xmlns:xlink="http://www.w3.org/1999/xlink" contentScriptType="application/ecmascript" contentStyleType="text/css" height="253px" preserveAspectRatio="none" style="width:469px;height:253px;background:#FFFFFF;" version="1.1" viewBox="0 0 469 253" width="469px" zoomAndPan="magnify"><defs><filter height="300%" id="fvlo00trf20u9" width="300%" x="-1" y="-1"><feGaussianBlur result="blurOut" stdDeviation="2.0"/><feColorMatrix in="blurOut" result="blurOut2" type="matrix" values="0 0 0 0 0 0 0 0 0 0 0 0 0 0 0 0 0 0 .4 0"/><feOffset dx="4.0" dy="4.0" in="blurOut2" result="blurOut3"/><feBlend in="SourceGraphic" in2="blurOut3" mode="normal"/></filter></defs><g><!--MD5=[f07c8db1113be1d2deec2d7257bc5d1d]
class Unificator--><rect codeLine="1" fill="#FEFECE" filter="url(#fvlo00trf20u9)" height="99.2188" id="Unificator" style="stroke:#A80036;stroke-width:1.5;" width="287" x="119" y="7"/><ellipse cx="229.25" cy="23" fill="#B4A7E5" rx="11" ry="11" style="stroke:#A80036;stroke-width:1.0;"/><path d="M230.2031,19.7813 L231.9219,19.7813 C232.3125,19.7813 232.5,19.75 232.625,19.6719 C232.8906,19.5156 233.0313,19.2344 233.0313,18.9375 C233.0313,18.6719 232.9219,18.4063 232.6875,18.2344 C232.5156,18.125 232.375,18.0938 231.9219,18.0938 L226.7813,18.0938 C226.3438,18.0938 226.2188,18.1094 226.0625,18.2031 C225.8125,18.3594 225.6563,18.6563 225.6563,18.9375 C225.6563,19.2188 225.7969,19.4688 226.0156,19.6406 C226.1719,19.75 226.3594,19.7813 226.7813,19.7813 L228.5,19.7813 L228.5,26.2969 L226.7813,26.2969 C226.3438,26.2969 226.2188,26.3125 226.0625,26.4219 C225.8125,26.5781 225.6563,26.8594 225.6563,27.1563 C225.6563,27.4063 225.7969,27.6719 226.0156,27.8281 C226.1719,27.9531 226.375,28 226.7813,28 L231.9219,28 C232.6719,28 233.0313,27.7188 233.0313,27.1563 C233.0313,26.875 232.9219,26.625 232.6875,26.4531 C232.5156,26.3281 232.375,26.2969 231.9219,26.2969 L230.2031,26.2969 L230.2031,19.7813 Z " fill="#000000"/><text fill="#000000" font-family="sans-serif" font-size="12" font-style="italic" lengthAdjust="spacing" textLength="58" x="249.75" y="27.1543">Unificator</text><line style="stroke:#A80036;stroke-width:1.5;" x1="120" x2="405" y1="39" y2="39"/><line style="stroke:#A80036;stroke-width:1.5;" x1="120" x2="405" y1="47" y2="47"/><ellipse cx="130" cy="58" fill="#84BE84" rx="3" ry="3" style="stroke:#038048;stroke-width:1.0;"/><text fill="#000000" font-family="sans-serif" font-size="11" lengthAdjust="spacing" textLength="164" x="139" y="61.2104">match(Term, Term): Boolean</text><ellipse cx="130" cy="70.8047" fill="#84BE84" rx="3" ry="3" style="stroke:#038048;stroke-width:1.0;"/><text fill="#000000" font-family="sans-serif" font-size="11" lengthAdjust="spacing" textLength="174" x="139" y="74.0151">mgu(Term, Term): Substitution</text><ellipse cx="130" cy="83.6094" fill="#84BE84" rx="3" ry="3" style="stroke:#038048;stroke-width:1.0;"/><text fill="#000000" font-family="sans-serif" font-size="11" lengthAdjust="spacing" textLength="146" x="139" y="86.8198">unify(Term, Term): Term?</text><ellipse cx="130" cy="96.4141" fill="#84BE84" rx="3" ry="3" style="stroke:#038048;stroke-width:1.0;"/><text fill="#000000" font-family="sans-serif" font-size="11" lengthAdjust="spacing" textLength="261" x="139" y="99.6245">merge(Substitution, Substitution): Substitution</text><!--MD5=[8082c4f664cfaa166b12e9b1877f0f83]
class AbstractUnificator--><rect codeLine="8" fill="#FEFECE" filter="url(#fvlo00trf20u9)" height="73.6094" id="AbstractUnificator" style="stroke:#A80036;stroke-width:1.5;" width="269" x="7" y="166"/><ellipse cx="82.75" cy="182" fill="#A9DCDF" rx="11" ry="11" style="stroke:#A80036;stroke-width:1.0;"/><path d="M84.8281,183.8125 L85.2188,184.7969 L84.8281,184.7969 C84.375,184.7969 84.2656,184.8125 84.1094,184.9219 C83.8594,185.0781 83.7031,185.3594 83.7031,185.6563 C83.7031,185.9219 83.8438,186.1719 84.0625,186.3281 C84.2031,186.4531 84.4063,186.5 84.8281,186.5 L87.1875,186.5 C87.5469,186.5 87.7656,186.4688 87.9063,186.375 C88.1563,186.2344 88.3125,185.9375 88.3125,185.6563 C88.3125,185.375 88.1719,185.125 87.9531,184.9688 C87.7813,184.8281 87.625,184.7969 87.1563,184.7969 L83.7656,176.5938 L80.0938,176.5938 C79.6406,176.5938 79.5156,176.6094 79.3594,176.7031 C79.1094,176.875 78.9531,177.1563 78.9531,177.4375 C78.9531,177.7188 79.0938,177.9688 79.3125,178.1406 C79.4844,178.25 79.6563,178.2813 80.0938,178.2813 L81.1719,178.2813 L78.5313,184.7969 C78.1094,184.7969 77.9531,184.8125 77.7969,184.9219 C77.5469,185.0781 77.3906,185.3594 77.3906,185.6563 C77.3906,186.2188 77.7656,186.5 78.5156,186.5 L80.7813,186.5 C81.1406,186.5 81.3594,186.4688 81.4844,186.375 C81.75,186.2344 81.8906,185.9375 81.8906,185.6563 C81.8906,185.375 81.7656,185.125 81.5469,184.9531 C81.375,184.8281 81.2344,184.7969 80.7813,184.7969 L80.3906,184.7969 L80.7813,183.8125 L84.8281,183.8125 Z M84.125,182.1094 L81.4531,182.1094 L82.7969,178.8438 L84.125,182.1094 Z " fill="#000000"/><text fill="#000000" font-family="sans-serif" font-size="12" font-style="italic" lengthAdjust="spacing" textLength="109" x="103.25" y="186.1543">AbstractUnificator</text><line style="stroke:#A80036;stroke-width:1.5;" x1="8" x2="275" y1="198" y2="198"/><ellipse cx="18" cy="209" rx="3" ry="3" style="stroke:#038048;stroke-width:1.0;fill:none;"/><text fill="#000000" font-family="sans-serif" font-size="11" lengthAdjust="spacing" textLength="117" x="27" y="212.2104">context: Substitution</text><line style="stroke:#A80036;stroke-width:1.5;" x1="8" x2="275" y1="218.8047" y2="218.8047"/><ellipse cx="18" cy="229.8047" fill="#84BE84" rx="3" ry="3" style="stroke:#038048;stroke-width:1.0;"/><text fill="#000000" font-family="sans-serif" font-size="11" font-style="italic" lengthAdjust="spacing" textLength="243" x="27" y="233.0151">checkTermsEquality(Term, Term): Boolean</text><!--MD5=[e467b6be6bf054f6d9ecb064456e8cab]
class CachedUnificator--><rect codeLine="13" fill="#FEFECE" filter="url(#fvlo00trf20u9)" height="60.8047" id="CachedUnificator" style="stroke:#A80036;stroke-width:1.5;" width="144" x="311.5" y="172.5"/><ellipse cx="331" cy="188.5" fill="#ADD1B2" rx="11" ry="11" style="stroke:#A80036;stroke-width:1.0;"/><path d="M333.3438,184.1719 C332.4063,183.7344 331.8125,183.5938 330.9375,183.5938 C328.3125,183.5938 326.3125,185.6719 326.3125,188.3906 L326.3125,189.5156 C326.3125,192.0938 328.4219,193.9844 331.3125,193.9844 C332.5313,193.9844 333.6875,193.6875 334.4375,193.1406 C335.0156,192.7344 335.3438,192.2813 335.3438,191.8906 C335.3438,191.4375 334.9531,191.0469 334.4844,191.0469 C334.2656,191.0469 334.0625,191.125 333.875,191.3125 C333.4219,191.7969 333.4219,191.7969 333.2344,191.8906 C332.8125,192.1563 332.125,192.2813 331.3594,192.2813 C329.3125,192.2813 328.0156,191.1875 328.0156,189.4844 L328.0156,188.3906 C328.0156,186.6094 329.2656,185.2969 331,185.2969 C331.5781,185.2969 332.1875,185.4531 332.6563,185.7031 C333.1406,185.9844 333.3125,186.2031 333.4063,186.6094 C333.4688,187.0156 333.5,187.1406 333.6406,187.2656 C333.7813,187.4063 334.0156,187.5156 334.2344,187.5156 C334.5,187.5156 334.7656,187.375 334.9375,187.1563 C335.0469,187 335.0781,186.8125 335.0781,186.3906 L335.0781,184.9688 C335.0781,184.5313 335.0625,184.4063 334.9688,184.25 C334.8125,183.9844 334.5313,183.8438 334.2344,183.8438 C333.9375,183.8438 333.7344,183.9375 333.5156,184.25 L333.3438,184.1719 Z " fill="#000000"/><text fill="#000000" font-family="sans-serif" font-size="12" lengthAdjust="spacing" textLength="102" x="346" y="192.6543">CachedUnificator</text><line style="stroke:#A80036;stroke-width:1.5;" x1="312.5" x2="454.5" y1="204.5" y2="204.5"/><ellipse cx="322.5" cy="215.5" rx="3" ry="3" style="stroke:#038048;stroke-width:1.0;fill:none;"/><text fill="#000000" font-family="sans-serif" font-size="11" lengthAdjust="spacing" textLength="118" x="331.5" y="218.7104">decorated: Unificator</text><line style="stroke:#A80036;stroke-width:1.5;" x1="312.5" x2="454.5" y1="225.3047" y2="225.3047"/><!--MD5=[92dbbcc73130df836718ad23e019b787]
reverse link Unificator to AbstractUnificator--><path codeLine="17" d="M208.895,121.515 C196.209,136.665 183.114,152.3044 171.878,165.7216 " fill="none" id="Unificator-backto-AbstractUnificator" style="stroke:#A80036;stroke-width:1.0;stroke-dasharray:7.0,7.0;"/><polygon fill="none" points="203.665,116.858,221.872,106.018,214.399,125.846,203.665,116.858" style="stroke:#A80036;stroke-width:1.0;"/><!--MD5=[03b61e28eb950afd248e8d4e8ae3ec82]
reverse link Unificator to CachedUnificator--><path codeLine="18" d="M316.192,121.62 C331.006,139.311 346.371,157.6597 358.674,172.3522 " fill="none" id="Unificator-backto-CachedUnificator" style="stroke:#A80036;stroke-width:1.0;stroke-dasharray:7.0,7.0;"/><polygon fill="none" points="310.601,125.846,303.128,106.018,321.335,116.858,310.601,125.846" style="stroke:#A80036;stroke-width:1.0;"/><!--MD5=[97360aa6c622ad566c55dd63cfdecc41]
@startuml
interface Unificator {
    + match(Term, Term): Boolean
    + mgu(Term, Term): Substitution
    + unify(Term, Term): Term?
    + merge(Substitution, Substitution): Substitution
}

abstract class AbstractUnificator {
    + context: Substitution
    {abstract} + checkTermsEquality(Term, Term): Boolean
}

class CachedUnificator {
    + decorated: Unificator
}

Unificator <|.. AbstractUnificator
Unificator <|.. CachedUnificator
@enduml

PlantUML version 1.2021.6beta6(Unknown compile time)
(GPL source distribution)
Java Runtime: Java(TM) SE Runtime Environment
JVM: Java HotSpot(TM) 64-Bit Server VM
Default Encoding: UTF-8
Language: en
Country: US
--></g></svg>