<?xml version="1.0" encoding="UTF-8" standalone="no"?>
<svg xmlns="http://www.w3.org/2000/svg" xmlns:xlink="http://www.w3.org/1999/xlink" contentScriptType="application/ecmascript" contentStyleType="text/css" height="120px" preserveAspectRatio="none" style="width:300px;height:120px;background:#FFFFFF;" version="1.1" viewBox="0 0 300 120" width="300px" zoomAndPan="magnify"><defs><filter height="300%" id="fixso29e9wr1q" width="300%" x="-1" y="-1"><feGaussianBlur result="blurOut" stdDeviation="2.0"/><feColorMatrix in="blurOut" result="blurOut2" type="matrix" values="0 0 0 0 0 0 0 0 0 0 0 0 0 0 0 0 0 0 .4 0"/><feOffset dx="4.0" dy="4.0" in="blurOut2" result="blurOut3"/><feBlend in="SourceGraphic" in2="blurOut3" mode="normal"/></filter></defs><g><!--MD5=[9d35236b92952560f647498cf8a29acb]
class Term--><rect codeLine="3" fill="#FEFECE" filter="url(#fixso29e9wr1q)" height="48" id="Term" style="stroke:#A80036;stroke-width:1.5;" width="63" x="7" y="32.5"/><ellipse cx="22" cy="48.5" fill="#B4A7E5" rx="11" ry="11" style="stroke:#A80036;stroke-width:1.0;"/><path d="M22.9531,45.2813 L24.6719,45.2813 C25.0625,45.2813 25.25,45.25 25.375,45.1719 C25.6406,45.0156 25.7813,44.7344 25.7813,44.4375 C25.7813,44.1719 25.6719,43.9063 25.4375,43.7344 C25.2656,43.625 25.125,43.5938 24.6719,43.5938 L19.5313,43.5938 C19.0938,43.5938 18.9688,43.6094 18.8125,43.7031 C18.5625,43.8594 18.4063,44.1563 18.4063,44.4375 C18.4063,44.7188 18.5469,44.9688 18.7656,45.1406 C18.9219,45.25 19.1094,45.2813 19.5313,45.2813 L21.25,45.2813 L21.25,51.7969 L19.5313,51.7969 C19.0938,51.7969 18.9688,51.8125 18.8125,51.9219 C18.5625,52.0781 18.4063,52.3594 18.4063,52.6563 C18.4063,52.9063 18.5469,53.1719 18.7656,53.3281 C18.9219,53.4531 19.125,53.5 19.5313,53.5 L24.6719,53.5 C25.4219,53.5 25.7813,53.2188 25.7813,52.6563 C25.7813,52.375 25.6719,52.125 25.4375,51.9531 C25.2656,51.8281 25.125,51.7969 24.6719,51.7969 L22.9531,51.7969 L22.9531,45.2813 Z " fill="#000000"/><text fill="#000000" font-family="sans-serif" font-size="12" font-style="italic" lengthAdjust="spacing" textLength="31" x="36" y="52.6543">Term</text><line style="stroke:#A80036;stroke-width:1.5;" x1="8" x2="69" y1="64.5" y2="64.5"/><line style="stroke:#A80036;stroke-width:1.5;" x1="8" x2="69" y1="72.5" y2="72.5"/><!--MD5=[731225e2007e13f9ac67fff186258580]
class Var--><rect codeLine="5" fill="#FEFECE" filter="url(#fixso29e9wr1q)" height="99.2188" id="Var" style="stroke:#A80036;stroke-width:1.5;" width="156" x="130" y="7"/><ellipse cx="193.75" cy="23" fill="#B4A7E5" rx="11" ry="11" style="stroke:#A80036;stroke-width:1.0;"/><path d="M194.7031,19.7813 L196.4219,19.7813 C196.8125,19.7813 197,19.75 197.125,19.6719 C197.3906,19.5156 197.5313,19.2344 197.5313,18.9375 C197.5313,18.6719 197.4219,18.4063 197.1875,18.2344 C197.0156,18.125 196.875,18.0938 196.4219,18.0938 L191.2813,18.0938 C190.8438,18.0938 190.7188,18.1094 190.5625,18.2031 C190.3125,18.3594 190.1563,18.6563 190.1563,18.9375 C190.1563,19.2188 190.2969,19.4688 190.5156,19.6406 C190.6719,19.75 190.8594,19.7813 191.2813,19.7813 L193,19.7813 L193,26.2969 L191.2813,26.2969 C190.8438,26.2969 190.7188,26.3125 190.5625,26.4219 C190.3125,26.5781 190.1563,26.8594 190.1563,27.1563 C190.1563,27.4063 190.2969,27.6719 190.5156,27.8281 C190.6719,27.9531 190.875,28 191.2813,28 L196.4219,28 C197.1719,28 197.5313,27.7188 197.5313,27.1563 C197.5313,26.875 197.4219,26.625 197.1875,26.4531 C197.0156,26.3281 196.875,26.2969 196.4219,26.2969 L194.7031,26.2969 L194.7031,19.7813 Z " fill="#000000"/><text fill="#000000" font-family="sans-serif" font-size="12" font-style="italic" lengthAdjust="spacing" textLength="20" x="214.25" y="27.1543">Var</text><line style="stroke:#A80036;stroke-width:1.5;" x1="131" x2="285" y1="39" y2="39"/><ellipse cx="141" cy="50" rx="3" ry="3" style="stroke:#038048;stroke-width:1.0;fill:none;"/><text fill="#000000" font-family="sans-serif" font-size="11" lengthAdjust="spacing" textLength="73" x="150" y="53.2104">name: String</text><ellipse cx="141" cy="62.8047" rx="3" ry="3" style="stroke:#038048;stroke-width:1.0;fill:none;"/><text fill="#000000" font-family="sans-serif" font-size="11" lengthAdjust="spacing" textLength="128" x="150" y="66.0151">completeName: String</text><ellipse cx="141" cy="75.6094" rx="3" ry="3" style="stroke:#038048;stroke-width:1.0;fill:none;"/><text fill="#000000" font-family="sans-serif" font-size="11" lengthAdjust="spacing" textLength="50" x="150" y="78.8198">id: String</text><ellipse cx="141" cy="88.4141" rx="3" ry="3" style="stroke:#038048;stroke-width:1.0;fill:none;"/><text fill="#000000" font-family="sans-serif" font-size="11" lengthAdjust="spacing" textLength="130" x="150" y="91.6245">isAnonymous: Boolean</text><line style="stroke:#A80036;stroke-width:1.5;" x1="131" x2="285" y1="98.2188" y2="98.2188"/><!--MD5=[6348e5cd8d5bc8163d36f1359c5d0625]
reverse link Term to Var--><path codeLine="12" d="M90.4321,56.5 C102.8603,56.5 116.434,56.5 129.785,56.5 " fill="none" id="Term-backto-Var" style="stroke:#A80036;stroke-width:1.0;"/><polygon fill="none" points="90.2221,63.4999,70.2221,56.5,90.222,49.4999,90.2221,63.4999" style="stroke:#A80036;stroke-width:1.0;"/><!--MD5=[4299f85c9d529627335df5e4636e0069]
@startuml
left to right direction

interface Term 

interface Var {
  + name: String
  + completeName: String
  + id: String
  + isAnonymous: Boolean
  ' + {static} of(name: String): Var
}
Term <|- - Var
@enduml

@startuml
left to right direction

interface Term 

interface Var {
  + name: String
  + completeName: String
  + id: String
  + isAnonymous: Boolean
}
Term <|- - Var
@enduml

PlantUML version 1.2021.6beta6(Unknown compile time)
(GPL source distribution)
Java Runtime: Java(TM) SE Runtime Environment
JVM: Java HotSpot(TM) 64-Bit Server VM
Default Encoding: UTF-8
Language: en
Country: US
--></g></svg>