<?xml version="1.0" encoding="UTF-8" standalone="no"?><svg xmlns="http://www.w3.org/2000/svg" xmlns:xlink="http://www.w3.org/1999/xlink" contentScriptType="application/ecmascript" contentStyleType="text/css" height="143px" preserveAspectRatio="none" style="width:481px;height:143px;" version="1.1" viewBox="0 0 481 143" width="481px" zoomAndPan="magnify"><defs/><g><!--MD5=[9d35236b92952560f647498cf8a29acb]
class Term--><rect fill="#FEFECE" height="124.8281" id="Term" style="stroke: #A80036; stroke-width: 1.5;" width="258" x="6" y="8"/><ellipse cx="115.25" cy="24" fill="#B4A7E5" rx="11" ry="11" style="stroke: #A80036; stroke-width: 1.0;"/><path d="M111.1719,19.7656 L111.1719,17.6094 L118.5625,17.6094 L118.5625,19.7656 L116.0938,19.7656 L116.0938,27.8438 L118.5625,27.8438 L118.5625,30 L111.1719,30 L111.1719,27.8438 L113.6406,27.8438 L113.6406,19.7656 L111.1719,19.7656 Z "/><text fill="#000000" font-family="sans-serif" font-size="12" font-style="italic" lengthAdjust="spacingAndGlyphs" textLength="31" x="135.75" y="28.1543">Term</text><line style="stroke: #A80036; stroke-width: 1.5;" x1="7" x2="263" y1="40" y2="40"/><ellipse cx="17" cy="51" fill="none" rx="3" ry="3" style="stroke: #038048; stroke-width: 1.0;"/><text fill="#000000" font-family="sans-serif" font-size="11" lengthAdjust="spacingAndGlyphs" textLength="106" x="26" y="54.2104">isGround: Boolean</text><ellipse cx="17" cy="63.8047" fill="none" rx="3" ry="3" style="stroke: #038048; stroke-width: 1.0;"/><text fill="#000000" font-family="sans-serif" font-size="11" lengthAdjust="spacingAndGlyphs" textLength="153" x="26" y="67.0151">variables: Sequence&lt;Var&gt;</text><line style="stroke: #A80036; stroke-width: 1.5;" x1="7" x2="263" y1="73.6094" y2="73.6094"/><ellipse cx="17" cy="84.6094" fill="#84BE84" rx="3" ry="3" style="stroke: #038048; stroke-width: 1.0;"/><text fill="#000000" font-family="sans-serif" font-size="11" lengthAdjust="spacingAndGlyphs" textLength="158" x="26" y="87.8198">equals(other: Any): Boolean</text><ellipse cx="17" cy="97.4141" fill="#84BE84" rx="3" ry="3" style="stroke: #038048; stroke-width: 1.0;"/><text fill="#000000" font-family="sans-serif" font-size="11" lengthAdjust="spacingAndGlyphs" textLength="232" x="26" y="100.6245">structurallyEquals(other: Term): Boolean</text><ellipse cx="17" cy="110.2188" fill="#84BE84" rx="3" ry="3" style="stroke: #038048; stroke-width: 1.0;"/><text fill="#000000" font-family="sans-serif" font-size="11" lengthAdjust="spacingAndGlyphs" textLength="104" x="26" y="113.4292">freshCopy(): Term</text><ellipse cx="17" cy="123.0234" fill="#84BE84" rx="3" ry="3" style="stroke: #038048; stroke-width: 1.0;"/><text fill="#000000" font-family="sans-serif" font-size="11" lengthAdjust="spacingAndGlyphs" textLength="95" x="26" y="126.2339">toString(): String</text><!--MD5=[731225e2007e13f9ac67fff186258580]
class Var--><rect fill="#FEFECE" height="86.4141" id="Var" style="stroke: #A80036; stroke-width: 1.5;" width="146" x="324" y="27.5"/><ellipse cx="382.25" cy="43.5" fill="#B4A7E5" rx="11" ry="11" style="stroke: #A80036; stroke-width: 1.0;"/><path d="M378.1719,39.2656 L378.1719,37.1094 L385.5625,37.1094 L385.5625,39.2656 L383.0938,39.2656 L383.0938,47.3438 L385.5625,47.3438 L385.5625,49.5 L378.1719,49.5 L378.1719,47.3438 L380.6406,47.3438 L380.6406,39.2656 L378.1719,39.2656 Z "/><text fill="#000000" font-family="sans-serif" font-size="12" font-style="italic" lengthAdjust="spacingAndGlyphs" textLength="21" x="402.75" y="47.6543">Var</text><line style="stroke: #A80036; stroke-width: 1.5;" x1="325" x2="469" y1="59.5" y2="59.5"/><ellipse cx="335" cy="70.5" fill="none" rx="3" ry="3" style="stroke: #038048; stroke-width: 1.0;"/><text fill="#000000" font-family="sans-serif" font-size="11" lengthAdjust="spacingAndGlyphs" textLength="74" x="344" y="73.7104">name: String</text><ellipse cx="335" cy="83.3047" fill="none" rx="3" ry="3" style="stroke: #038048; stroke-width: 1.0;"/><text fill="#000000" font-family="sans-serif" font-size="11" lengthAdjust="spacingAndGlyphs" textLength="93" x="344" y="86.5151">complete: Name</text><line style="stroke: #A80036; stroke-width: 1.5;" x1="325" x2="469" y1="93.1094" y2="93.1094"/><ellipse cx="335" cy="104.1094" fill="#84BE84" rx="3" ry="3" style="stroke: #038048; stroke-width: 1.0;"/><text fill="#000000" font-family="sans-serif" font-size="11" lengthAdjust="spacingAndGlyphs" text-decoration="underline" textLength="120" x="344" y="107.3198">of(name: String): Var</text><!--MD5=[6348e5cd8d5bc8163d36f1359c5d0625]
reverse link Term to Var--><path d="M284.23,70.5 C297.89,70.5 311.28,70.5 323.77,70.5 " fill="none" id="Term&lt;-Var" style="stroke: #A80036; stroke-width: 1.0;"/><polygon fill="none" points="284.1,77.5,264.1,70.5,284.1,63.5,284.1,77.5" style="stroke: #A80036; stroke-width: 1.0;"/><!--MD5=[a3b36ffdb7e34bd7dd191f6aec2bbc73]
@startuml
left to right direction
skinparam shadowing false

interface Term {
  + isGround: Boolean
  + variables: Sequence<Var>
  + equals(other: Any): Boolean
  + structurallyEquals(other: Term): Boolean
  + freshCopy(): Term
  + toString(): String
}
interface Var {
  + name: String
  + complete: Name
  + {static} of(name: String): Var
}
Term <|- - Var
@enduml

PlantUML version 1.2020.02(Sun Mar 01 11:22:07 CET 2020)
(GPL source distribution)
Java Runtime: OpenJDK Runtime Environment
JVM: OpenJDK 64-Bit Server VM
Java Version: 11.0.10+9
Operating System: Linux
Default Encoding: UTF-8
Language: it
Country: IT
--></g></svg>